<svg xmlns="http://www.w3.org/2000/svg" width="37.358" height="24.512" viewBox="0 0 37.358 24.512">
  <g id="フリーダイヤルのアイコン" transform="translate(0 -88.032)">
    <path id="パス_1497" data-name="パス 1497" d="M0,88.032v3.822a22.027,22.027,0,0,1,8.036,1.5q.663.262,1.287.562a20.363,20.363,0,0,1,3.041-1.165,22.362,22.362,0,0,1,6.315-.9,22.036,22.036,0,0,1,8.07,1.5q.663.262,1.287.562a20.379,20.379,0,0,1,3.042-1.165,22.372,22.372,0,0,1,6.281-.9V88.032Z" transform="translate(0 0)" fill="#363636"/>
    <path id="パス_1498" data-name="パス 1498" d="M320.59,211.853a4.645,4.645,0,0,0,7.24,3.851,4.635,4.635,0,0,0,2.048-3.851,3.962,3.962,0,0,0-.3-1.46,6.436,6.436,0,0,0-.924-1.575,11.742,11.742,0,0,0-3.422-2.852,12.626,12.626,0,0,0-2.81,2.148,6.979,6.979,0,0,0-1.6,2.448A3.878,3.878,0,0,0,320.59,211.853Z" transform="translate(-297.198 -109.329)" fill="#363636"/>
    <path id="パス_1499" data-name="パス 1499" d="M32.582,176.263a9.368,9.368,0,0,1,2.134,3.316,6.288,6.288,0,0,1,.372,2.092,7.052,7.052,0,1,1-14.1,0,6.688,6.688,0,0,1,.809-3.092,10.515,10.515,0,0,1,2.13-2.745,14.657,14.657,0,0,1,1.527-1.249c-.369-.135-.747-.262-1.136-.377a19.976,19.976,0,0,0-5.635-.8,19.7,19.7,0,0,0-6.771,1.176,14.125,14.125,0,0,1,1.96,1.678A9.374,9.374,0,0,1,16,179.58a6.281,6.281,0,0,1,.372,2.092,7.052,7.052,0,1,1-14.1,0,6.691,6.691,0,0,1,.808-3.092,10.518,10.518,0,0,1,2.131-2.745,14.616,14.616,0,0,1,1.527-1.249c-.369-.135-.747-.262-1.136-.377a19.984,19.984,0,0,0-5.6-.8v18.282H37.358V173.409a19.7,19.7,0,0,0-6.737,1.176A14.118,14.118,0,0,1,32.582,176.263Z" transform="translate(0 -79.147)" fill="#363636"/>
    <path id="パス_1500" data-name="パス 1500" d="M64.118,211.853a4.645,4.645,0,0,0,7.239,3.851,4.636,4.636,0,0,0,2.049-3.851,3.974,3.974,0,0,0-.3-1.46,6.456,6.456,0,0,0-.924-1.575,11.752,11.752,0,0,0-3.422-2.852,12.615,12.615,0,0,0-2.809,2.148,6.978,6.978,0,0,0-1.6,2.448A3.873,3.873,0,0,0,64.118,211.853Z" transform="translate(-59.44 -109.329)" fill="#363636"/>
  </g>
</svg>
