<svg xmlns="http://www.w3.org/2000/svg" width="191.01" height="47.774" viewBox="0 0 191.01 47.774">
  <g id="グループ_1969" data-name="グループ 1969" transform="translate(-177.479 -4463)">
    <path id="パス_1140" data-name="パス 1140" d="M2.239,0H24.446L35.83,11.943V45.534H0V4.015S2.864,0,2.239,0" transform="translate(177.479 4463)" fill="#fff"/>
    <path id="パス_1141" data-name="パス 1141" d="M18.076,25.911a2.152,2.152,0,0,1,1.7.679,3.087,3.087,0,0,1-.016,3.7,2.233,2.233,0,0,1-1.773.715H15.733v-5.1ZM35.175,9.8,26.032.653A2.243,2.243,0,0,0,24.446,0h-.56V11.943H35.828v-.569A2.231,2.231,0,0,0,35.175,9.8M20.9,12.69V0H2.239A2.233,2.233,0,0,0,0,2.239v43.3a2.233,2.233,0,0,0,2.239,2.239h31.35a2.233,2.233,0,0,0,2.239-2.239V14.929H23.139A2.246,2.246,0,0,1,20.9,12.69m4.172,15.74c0,7.583-7.456,6.516-9.329,6.516v4.8a1.01,1.01,0,0,1-1.009,1.007H12.148a1.01,1.01,0,0,1-1.009-1.007V22.971a1.01,1.01,0,0,1,1.009-1.007h6.8c3.737,0,6.122,2.753,6.122,6.465" transform="translate(177.479 4463)" fill="#c33f21"/>
    <path id="パス_1142" data-name="パス 1142" d="M31.809.123H54.016l11.16,11.655V45.367l-35.607.072V3.922s2.864-3.8,2.239-3.8" transform="translate(199.959 4463.094)" fill="#fff"/>
    <path id="パス_1143" data-name="パス 1143" d="M50.343,12.741V.095h-18.6a2.227,2.227,0,0,0-2.23,2.232V45.469a2.228,2.228,0,0,0,2.23,2.232H62.985a2.229,2.229,0,0,0,2.234-2.232v-30.5H52.572a2.236,2.236,0,0,1-2.228-2.23m4.48,12.049h2a1,1,0,0,1,.979,1.23L54.622,40.079a1,1,0,0,1-.979.778H50.465a1,1,0,0,1-.973-.762c-2.156-8.66-1.739-6.795-2.142-9.247H47.31c-.1,1.2-.2,1.456-2.144,9.247a1,1,0,0,1-.972.762H41.089a1,1,0,0,1-.977-.787L36.948,26.011a1,1,0,0,1,.979-1.222h2.051a1.008,1.008,0,0,1,.989.813c1.3,6.527,1.681,9.162,1.755,10.225.134-.854.611-2.737,2.463-10.268a1,1,0,0,1,.979-.762H48.6a1,1,0,0,1,.979.771c2.008,8.4,2.41,10.375,2.478,10.827-.018-.936-.22-1.489,1.806-10.812a.97.97,0,0,1,.963-.8m10.4-13.36V12h-11.9V.095h.567a2.236,2.236,0,0,1,1.582.651l9.1,9.111a2.226,2.226,0,0,1,.653,1.572" transform="translate(199.917 4463.072)" fill="#004f9f"/>
    <path id="パス_1144" data-name="パス 1144" d="M2.893,34.519H25.1L34.942,45.38l-.178,32.887L.108,79.291V37.772s3.41-3.253,2.785-3.253" transform="translate(281.341 4429.224)" fill="#fff"/>
    <path id="パス_1145" data-name="パス 1145" d="M20.532,47.031V34.565H2.2a2.2,2.2,0,0,0-2.2,2.2V79.3a2.194,2.194,0,0,0,2.2,2.2H33a2.194,2.194,0,0,0,2.2-2.2V49.231H22.732a2.207,2.207,0,0,1-2.2-2.2M25.2,57.651l-4.957,7.713L25.2,73.078a.991.991,0,0,1-.833,1.526h-2.88a.99.99,0,0,1-.873-.519C18.993,71.1,17.6,68.417,17.6,68.417c-.528,1.222-.826,1.651-3.019,5.677a.984.984,0,0,1-.866.519h-2.88A.991.991,0,0,1,10,73.086l4.974-7.713L10,57.66a.989.989,0,0,1,.833-1.526h2.871a1,1,0,0,1,.875.519c2.153,4.026,1.649,2.772,3.019,5.652,0,0,.5-.966,3.019-5.652a1,1,0,0,1,.875-.519h2.871A.983.983,0,0,1,25.2,57.651Zm10-11.912v.56H23.466V34.565h.558a2.2,2.2,0,0,1,1.56.643l8.972,8.983a2.188,2.188,0,0,1,.642,1.549" transform="translate(281.259 4429.259)" fill="#247138"/>
    <path id="パス_1146" data-name="パス 1146" d="M32.316,34.53H54.523L64.778,44.718V78.308L29.531,79.3V37.783s3.41-3.253,2.785-3.253" transform="translate(303.711 4429.232)" fill="#fff"/>
    <path id="パス_1147" data-name="パス 1147" d="M46.314,58.629c-.414-1.322-.4-3.876-.165-3.876.7,0,.628,3.051.165,3.876m-.141,3.9a38.034,38.034,0,0,1-2.346,5.184,30.387,30.387,0,0,1,5.2-1.811A10.708,10.708,0,0,1,46.173,62.532ZM38.395,72.849c0,.067,1.091-.445,2.885-3.323-.553.521-2.406,2.026-2.885,3.323m13.9-23.633H64.786V79.344A2.2,2.2,0,0,1,62.58,81.55H31.718a2.2,2.2,0,0,1-2.2-2.206V36.725a2.2,2.2,0,0,1,2.2-2.206H50.09V47.012a2.209,2.209,0,0,0,2.2,2.2M51.118,64.889a8.3,8.3,0,0,1-3.529-4.448c.371-1.53.958-3.853.512-5.307a2.071,2.071,0,0,0-3.952-.563c-.414,1.514-.033,3.645.669,6.367a77.734,77.734,0,0,1-3.373,7.092c-.009,0-.009.009-.016.009-2.241,1.149-6.085,3.679-4.506,5.621a2.565,2.565,0,0,0,1.778.827c1.48,0,2.952-1.487,5.05-5.108a47.041,47.041,0,0,1,6.532-1.919,12.533,12.533,0,0,0,5.29,1.612,2.14,2.14,0,0,0,1.63-3.587c-1.149-1.125-4.49-.8-6.085-.595M64.144,44.163l-9-9a2.209,2.209,0,0,0-1.561-.642h-.553V46.278H64.786v-.562a2.206,2.206,0,0,0-.642-1.553M56.317,67.244c.34-.224-.206-.984-3.538-.745,3.066,1.306,3.538.745,3.538.745" transform="translate(303.698 4429.224)" fill="#9f0c1a"/>
  </g>
</svg>
