<svg xmlns="http://www.w3.org/2000/svg" xmlns:xlink="http://www.w3.org/1999/xlink" width="37" height="37" viewBox="0 0 37 37">
  <defs>
    <clipPath id="clip-path">
      <rect id="長方形_1833" data-name="長方形 1833" width="37" height="37" transform="translate(0 -0.031)" fill="#fff"/>
    </clipPath>
  </defs>
  <g id="グループ_2237" data-name="グループ 2237" transform="translate(0 0.031)" clip-path="url(#clip-path)">
    <path id="パス_1484" data-name="パス 1484" d="M36.5,18.25A18.25,18.25,0,1,0,15.4,36.278V23.525H10.764V18.25H15.4V14.229c0-4.574,2.725-7.1,6.894-7.1a28.014,28.014,0,0,1,4.085.357v4.491h-2.3a2.638,2.638,0,0,0-2.974,2.85V18.25h5.062l-.809,5.275H21.1V36.278A18.254,18.254,0,0,0,36.5,18.25" transform="translate(0 0.5)" fill="#fff"/>
    <path id="パス_1485" data-name="パス 1485" d="M28.156,25.38l.809-5.275H23.9V16.682a2.638,2.638,0,0,1,2.974-2.85h2.3V9.34a28.075,28.075,0,0,0-4.085-.356c-4.169,0-6.894,2.526-6.894,7.1v4.021H13.566V25.38H18.2V38.133a18.413,18.413,0,0,0,5.7,0V25.38Z" transform="translate(-21.372 168.644)" fill="#fff"/>
  </g>
</svg>
