<svg xmlns="http://www.w3.org/2000/svg" width="216" height="32" viewBox="0 0 216 32">
  <path id="レイヤー_1" data-name="レイヤー 1" d="M68.318,20.11h2.075a.277.277,0,0,1,.279.274V34.33a.277.277,0,0,1-.279.274H68.318a.277.277,0,0,1-.279-.274V20.383a.277.277,0,0,1,.279-.274Zm10.662.274a.277.277,0,0,1,.279-.274H84.12a10.658,10.658,0,0,1,2.055.2,5.387,5.387,0,0,1,1.762.652,3.486,3.486,0,0,1,1.23,1.265,4.041,4.041,0,0,1,.466,2.028,3.965,3.965,0,0,1-.891,2.641,3.772,3.772,0,0,1-2.434,1.3.066.066,0,0,0-.055.039.064.064,0,0,0,.008.066l3.618,5.907a.263.263,0,0,1,.007.276.274.274,0,0,1-.246.135H87.127a.267.267,0,0,1-.239-.143l-3.325-5.959a.073.073,0,0,0-.067-.039H81.686a.072.072,0,0,0-.067.072v5.8a.277.277,0,0,1-.279.274H79.265a.277.277,0,0,1-.279-.274Zm4.656,5.868a8.205,8.205,0,0,0,1.131-.052,3.38,3.38,0,0,0,1.031-.248,1.671,1.671,0,0,0,.765-.593,1.862,1.862,0,0,0,.293-1.115,1.766,1.766,0,0,0-.273-1.024,1.662,1.662,0,0,0-.712-.58,3.418,3.418,0,0,0-.971-.261,9.373,9.373,0,0,0-1.031-.059H81.659a.072.072,0,0,0-.067.072V26.18a.072.072,0,0,0,.067.072ZM101.4,20.11h1.916a.28.28,0,0,1,.253.163L109.7,34.225a.263.263,0,0,1-.02.257.274.274,0,0,1-.233.121h-2.368a.279.279,0,0,1-.259-.17l-1.29-3.1a.066.066,0,0,0-.067-.046H99.1a.066.066,0,0,0-.067.046l-1.25,3.1a.273.273,0,0,1-.259.17H95.188a.274.274,0,0,1-.233-.121.263.263,0,0,1-.02-.257l6.192-13.953A.287.287,0,0,1,101.4,20.11Zm3.126,8.874-2.175-5.633a.074.074,0,0,0-.133,0L100,28.983a.064.064,0,0,0,.007.064.067.067,0,0,0,.06.027h4.39a.067.067,0,0,0,.06-.027.064.064,0,0,0,.007-.064Zm11.234-8.874h2.075a.277.277,0,0,1,.279.274V34.33a.277.277,0,0,1-.279.274h-2.075a.277.277,0,0,1-.279-.274V20.383A.277.277,0,0,1,115.759,20.11Zm17.3,2.334h-4.183a.277.277,0,0,1-.279-.274V20.383a.277.277,0,0,1,.279-.274h11.14a.275.275,0,0,1,.2.081.264.264,0,0,1,.077.193V22.17a.265.265,0,0,1-.077.193.275.275,0,0,1-.2.081h-4.183a.072.072,0,0,0-.073.072V34.33a.277.277,0,0,1-.279.274H133.4a.277.277,0,0,1-.279-.274V22.548a.071.071,0,0,0,0-.071A.074.074,0,0,0,133.058,22.444Zm11.367,4.975a8.18,8.18,0,0,1,.585-3.162,6.93,6.93,0,0,1,4.084-3.971,8.706,8.706,0,0,1,3.139-.548,9.048,9.048,0,0,1,3.179.5,7.039,7.039,0,0,1,2.481,1.526,6.954,6.954,0,0,1,1.629,2.419,8.117,8.117,0,0,1,.585,3.149,7.9,7.9,0,0,1-.585,3.1,7.034,7.034,0,0,1-1.629,2.393,7.334,7.334,0,0,1-2.481,1.565,8.908,8.908,0,0,1-3.179.587,8.706,8.706,0,0,1-3.139-.548,7.051,7.051,0,0,1-4.1-3.919,7.842,7.842,0,0,1-.565-3.09Zm2.76-.163a6.1,6.1,0,0,0,.366,2.152,4.95,4.95,0,0,0,1.031,1.7,4.767,4.767,0,0,0,1.6,1.128,5.082,5.082,0,0,0,2.082.411,5.183,5.183,0,0,0,2.088-.411,4.727,4.727,0,0,0,1.6-1.128,5.073,5.073,0,0,0,1.037-1.7,6.25,6.25,0,0,0,.366-2.152,5.636,5.636,0,0,0-.366-2.028,5.064,5.064,0,0,0-1.038-1.65,4.657,4.657,0,0,0-1.6-1.1,5.292,5.292,0,0,0-2.088-.4,5.19,5.19,0,0,0-2.082.4,4.7,4.7,0,0,0-1.6,1.1,4.939,4.939,0,0,0-1.031,1.65A5.5,5.5,0,0,0,147.185,27.255Zm31.472,2.028a5.824,5.824,0,0,1-.459,2.36,5.459,5.459,0,0,1-3.159,2.928,7.1,7.1,0,0,1-4.722,0,5.441,5.441,0,0,1-1.889-1.134,5.057,5.057,0,0,1-1.23-1.76,5.939,5.939,0,0,1-.446-2.36V20.383a.265.265,0,0,1,.077-.193.276.276,0,0,1,.2-.081h2.082a.275.275,0,0,1,.2.081.265.265,0,0,1,.078.193V29.2a3.957,3.957,0,0,0,.173,1.115,2.971,2.971,0,0,0,.552,1.076,2.884,2.884,0,0,0,1.024.808,3.983,3.983,0,0,0,3.126,0,2.943,2.943,0,0,0,1.024-.808,3.19,3.19,0,0,0,.552-1.076A3.936,3.936,0,0,0,176,29.2V20.383a.277.277,0,0,1,.279-.274h2.075a.277.277,0,0,1,.279.274Zm17.08-5.914a.29.29,0,0,1-.359-.033,4.164,4.164,0,0,0-1.41-.978,4.36,4.36,0,0,0-1.536-.287,5.183,5.183,0,0,0-2.075.4,4.7,4.7,0,0,0-1.6,1.1,5.064,5.064,0,0,0-1.038,1.65,5.637,5.637,0,0,0-.366,2.028,6.25,6.25,0,0,0,.366,2.152,5.074,5.074,0,0,0,1.038,1.7,4.767,4.767,0,0,0,1.6,1.128,5.075,5.075,0,0,0,2.075.411,3.906,3.906,0,0,0,1.749-.424,4.5,4.5,0,0,0,1.41-1.141.276.276,0,0,1,.372-.052l1.729,1.206a.277.277,0,0,1,.06.391,5.844,5.844,0,0,1-2.268,1.734,7.738,7.738,0,0,1-3.073.652,8.707,8.707,0,0,1-3.139-.548,6.943,6.943,0,0,1-4.084-3.919,7.842,7.842,0,0,1-.585-3.091,8.182,8.182,0,0,1,.585-3.162,6.93,6.93,0,0,1,4.084-3.971,8.707,8.707,0,0,1,3.139-.548,7.289,7.289,0,0,1,2.793.528,6.4,6.4,0,0,1,2.182,1.539.27.27,0,0,1-.047.411Zm8.36-3.26h2.082a.275.275,0,0,1,.2.081.264.264,0,0,1,.077.193v5.425a.065.065,0,0,0,.022.049.067.067,0,0,0,.051.017H213.3a.067.067,0,0,0,.051-.017.065.065,0,0,0,.022-.049V20.383a.265.265,0,0,1,.077-.193.276.276,0,0,1,.2-.081h2.082a.275.275,0,0,1,.2.081.264.264,0,0,1,.077.193V34.33a.264.264,0,0,1-.077.193.275.275,0,0,1-.2.081h-2.082a.276.276,0,0,1-.2-.081.265.265,0,0,1-.077-.193V28.286a.072.072,0,0,0-.073-.072h-6.771a.072.072,0,0,0-.073.072V34.33a.264.264,0,0,1-.077.193.275.275,0,0,1-.2.081H204.1a.276.276,0,0,1-.2-.081.265.265,0,0,1-.077-.193V20.383a.265.265,0,0,1,.077-.193A.276.276,0,0,1,204.1,20.11ZM55.2,18.753c-2.727-.567-5.62.489-7.981,2.758a8.273,8.273,0,0,0-.619-1.134c-2.215-3.521-6.431-4.29-10.309-2.543a11.367,11.367,0,0,0-6.132-4.916c-5.72-1.832-12.271.965-17.06,3.912C4.654,22.013-7.231,37.407,5.738,44.292c.492.261,0-.808-.3-.991-5.554-3.736-2.255-9.532-.605-12.734A28.364,28.364,0,0,1,13.3,21c4.536-3.351,19.494-10.869,21.948-2.667-3.991,2.073-7.369,5.581-10.083,9-2,2.523-5.148,7.824-3.325,9.78,2.115,2.3,5.853,1.415,8.646-.978a19.246,19.246,0,0,0,7.09-13.112A13.1,13.1,0,0,0,37.4,20.37c2-1.115,4.243-1.806,6.279-1.2A3.316,3.316,0,0,1,45.93,22.9c-1.583,1.6-4.33,7.531-3.811,9.493.166.652,1.1.828,2.148-.365A21.315,21.315,0,0,0,47.8,25.365a17.731,17.731,0,0,1,4.822-3.912c3.1-1.63,5.986-.274,6.126,2.751a10.465,10.465,0,0,1-3.638,7.824,9.779,9.779,0,0,1-.978.652c-.146.1-.253.228-.173.378.359.652,1.47,2.112,1.935,1.832C61.52,31.48,62.93,20.338,55.2,18.753ZM31.3,32.087a22.231,22.231,0,0,1-3.532,3.462,10.7,10.7,0,0,1-1.789,1.232c-.665.3-1.2.548-1.4.319-1.33-1.571,2.128-6.025,3.212-7.544a42.266,42.266,0,0,1,5.234-5.868,31.994,31.994,0,0,1,2.441-2.08A16.1,16.1,0,0,1,31.3,32.087Z" transform="translate(0.004 -12.333)" fill="#00c8ac"/>
</svg>
