<svg xmlns="http://www.w3.org/2000/svg" xmlns:xlink="http://www.w3.org/1999/xlink" width="10" height="15" viewBox="0 0 10 15">
  <defs>
    <clipPath id="clip-path">
      <rect id="長方形_1545" data-name="長方形 1545" width="10" height="15" transform="translate(0.127 0.19)" fill="#363636"/>
    </clipPath>
  </defs>
  <g id="グループ_1775" data-name="グループ 1775" transform="translate(-0.127 -0.19)" clip-path="url(#clip-path)">
    <path id="パス_1160" data-name="パス 1160" d="M8.684,6.356V3.661A3.639,3.639,0,0,0,5.077,0,3.639,3.639,0,0,0,1.469,3.661V6.356H.495a.5.5,0,0,0-.495.5v7.83a.5.5,0,0,0,.495.5H9.632a.5.5,0,0,0,.495-.5V6.858a.5.5,0,0,0-.495-.5Zm-2.9,6.551H4.3a.126.126,0,0,1-.121-.157l.425-1.732a1.15,1.15,0,1,1,.879.013l.422,1.719a.126.126,0,0,1-.121.157M7.07,6.356H3.083V3.661a1.994,1.994,0,1,1,3.987,0Z" transform="translate(0 0)" fill="#363636"/>
  </g>
</svg>
