<svg xmlns="http://www.w3.org/2000/svg" width="73" height="73" viewBox="0 0 73 73">
  <g id="グループ_1603" data-name="グループ 1603" transform="translate(0 0)">
    <path id="パス_478" data-name="パス 478" d="M29.967,0V3.618H45.419V19.064h3.618V0Z" transform="translate(23.963)" fill="#00c8ac"/>
    <path id="パス_479" data-name="パス 479" d="M45.419,29.968V45.42H29.968v3.616H49.037V29.968Z" transform="translate(23.963 23.964)" fill="#00c8ac"/>
    <path id="パス_480" data-name="パス 480" d="M0,0V19.064H3.618V3.618H19.069V0Z" fill="#00c8ac"/>
    <path id="パス_481" data-name="パス 481" d="M0,29.968V49.036H19.069V45.42H3.618V29.968Z" transform="translate(0 23.964)" fill="#00c8ac"/>
    <rect id="長方形_1335" data-name="長方形 1335" width="5.274" height="5.274" transform="translate(48.31 19.414)" fill="#00c8ac"/>
    <path id="パス_482" data-name="パス 482" d="M26.54,23.681H39.722V7.861H23.9v15.82H26.54Zm0-13.184H37.086V21.043H26.54Z" transform="translate(19.124 6.29)" fill="#00c8ac"/>
    <rect id="長方形_1336" data-name="長方形 1336" width="5.274" height="5.274" transform="translate(48.31 48.311)" fill="#00c8ac"/>
    <path id="パス_483" data-name="パス 483" d="M37.086,23.9H23.9v15.82h15.82V23.9H37.086Zm0,13.184H26.54V26.54H37.086Z" transform="translate(19.124 19.125)" fill="#00c8ac"/>
    <rect id="長方形_1337" data-name="長方形 1337" width="5.274" height="5.274" transform="translate(19.413 19.414)" fill="#00c8ac"/>
    <path id="パス_484" data-name="パス 484" d="M7.861,7.861v15.82h15.82V7.861H7.861ZM10.5,10.5H21.043V21.043H10.5Z" transform="translate(6.29 6.29)" fill="#00c8ac"/>
    <rect id="長方形_1338" data-name="長方形 1338" width="2.636" height="2.636" transform="translate(48.317 37.809)" fill="#00c8ac"/>
    <path id="パス_485" data-name="パス 485" d="M15.771,23.343V18.069h2.636v5.274h2.638v2.636H15.771v2.638H13.135v2.636H10.5V28.617H7.861V25.979H10.5V23.343h5.274Z" transform="translate(6.292 14.464)" fill="#00c8ac"/>
    <path id="パス_486" data-name="パス 486" d="M13.135,18.069v2.636H10.5v2.638H7.86V18.069h5.274Z" transform="translate(6.299 14.48)" fill="#00c8ac"/>
    <path id="パス_487" data-name="パス 487" d="M14.872,29.736h2.636v2.636h2.638V35.01H14.872V32.372H12.236V29.736Z" transform="translate(9.802 23.829)" fill="#00c8ac"/>
    <path id="パス_488" data-name="パス 488" d="M20.146,39.161V41.8h2.636v2.636h7.91V39.161H28.056V41.8H25.418V39.161H22.782V36.525h2.636V20.705H22.782V18.069H17.508v5.274h5.274v2.636H20.146v2.636h2.636v5.274H20.146V28.615h-7.91v7.91h5.272v2.636Zm-2.638-5.272H14.872V31.253h2.636Z" transform="translate(9.785 14.425)" fill="#00c8ac"/>
    <path id="パス_489" data-name="パス 489" d="M20.986,28V25.361h2.636v5.272H20.986Z" transform="translate(16.822 20.323)" fill="#00c8ac"/>
    <path id="パス_490" data-name="パス 490" d="M30.914,20.706V18.07h5.274v5.272H33.55V25.98H30.914V23.342H28.278V20.706Z" transform="translate(22.652 14.475)" fill="#00c8ac"/>
    <rect id="長方形_1339" data-name="長方形 1339" width="2.636" height="2.636" transform="translate(37.808 29.927)" fill="#00c8ac"/>
    <rect id="長方形_1340" data-name="長方形 1340" width="2.636" height="2.636" transform="translate(35.181 32.554)" fill="#00c8ac"/>
    <path id="パス_491" data-name="パス 491" d="M18.069,23.681V21.045h2.636V18.407H18.069V15.771h2.636V13.135H18.069V7.861h7.91V10.5H23.343v2.638h2.636v5.272H23.343v5.274H18.069Z" transform="translate(14.474 6.29)" fill="#00c8ac"/>
    <path id="パス_492" data-name="パス 492" d="M31.532,20.706v2.636H28.9V20.706H26.258V25.98H23.622v2.636H20.986V23.342h2.636V18.07h7.91Z" transform="translate(16.805 14.47)" fill="#00c8ac"/>
    <path id="パス_493" data-name="パス 493" d="M13.135,34.729h2.636v2.636H7.86V32.093H10.5V26.819h2.636Z" transform="translate(6.297 21.477)" fill="#00c8ac"/>
    <rect id="長方形_1341" data-name="長方形 1341" width="2.636" height="2.636" transform="translate(14.162 45.69)" fill="#00c8ac"/>
  </g>
</svg>
