<svg xmlns="http://www.w3.org/2000/svg" width="93.001" height="66" viewBox="0 0 93.001 66">
  <g id="グループ_1602" data-name="グループ 1602" transform="translate(0.001)">
    <path id="パス_466" data-name="パス 466" d="M36.491,12.347H16.938a5.663,5.663,0,1,1,0-11.325H36.491Z" transform="translate(6.733 0.607)" fill="#00c8ac"/>
    <path id="パス_467" data-name="パス 467" d="M25.546,19.521h-8.02A2.136,2.136,0,0,1,15.4,17.55L14.462,5.406H28.611L27.678,17.55a2.135,2.135,0,0,1-2.132,1.97" transform="translate(8.646 3.211)" fill="#00c8ac"/>
    <path id="パス_468" data-name="パス 468" d="M39.39,27.43H67.05a2.4,2.4,0,0,1,2.4,2.394V49.707H39.39Z" transform="translate(23.55 16.293)" fill="#00c8ac"/>
    <path id="パス_469" data-name="パス 469" d="M61.22,42H0L.52,40.4H60.7Z" transform="translate(0 23.996)" fill="#00c8ac"/>
    <path id="パス_470" data-name="パス 470" d="M32.376,43.919c4.17-2.627,17.358-1.022,26.775,0L57.94,35.451c-8.881-1.1-21.662-1.981-27.986,5.255-6.323-7.237-19.106-6.35-27.985-5.255L.758,43.919c9.418-1.022,22.6-2.627,26.775,0Z" transform="translate(0.453 20.621)" fill="#00c8ac"/>
    <path id="パス_471" data-name="パス 471" d="M3.431,44.629a.776.776,0,0,1-.411-.12.766.766,0,0,1-.24-1.058l1.644-2.593a.777.777,0,0,1,1.063-.239.767.767,0,0,1,.238,1.06L4.081,44.272a.769.769,0,0,1-.65.357m3.29-5.185a.777.777,0,0,1-.412-.12.766.766,0,0,1-.238-1.058l1.644-2.593a.776.776,0,0,1,1.061-.239.768.768,0,0,1,.24,1.06L7.371,39.087a.773.773,0,0,1-.65.357m3.288-5.187a.781.781,0,0,1-.412-.12.766.766,0,0,1-.238-1.058L11,30.486a.775.775,0,0,1,1.063-.237.767.767,0,0,1,.238,1.058L10.66,33.9a.769.769,0,0,1-.65.357M13.3,29.072a.789.789,0,0,1-.411-.118.768.768,0,0,1-.24-1.06L14.291,25.3a.774.774,0,0,1,1.061-.238.766.766,0,0,1,.238,1.058l-1.644,2.593a.769.769,0,0,1-.65.357m3.29-5.187a.766.766,0,0,1-.65-1.178l1.644-2.593a.778.778,0,0,1,1.061-.238.766.766,0,0,1,.24,1.058l-1.644,2.593a.771.771,0,0,1-.65.357M19.874,18.7a.78.78,0,0,1-.412-.118.769.769,0,0,1-.238-1.06l1.644-2.593a.779.779,0,0,1,1.063-.238.767.767,0,0,1,.238,1.058l-1.644,2.593a.769.769,0,0,1-.65.357" transform="translate(1.591 8.657)" fill="#00c8ac"/>
    <path id="パス_472" data-name="パス 472" d="M41.587,44.63a.769.769,0,0,1-.65-.357l-1.644-2.593a.769.769,0,1,1,1.3-.821l1.644,2.593A.766.766,0,0,1,42,44.51a.776.776,0,0,1-.411.12M38.3,39.444a.773.773,0,0,1-.65-.357L36,36.494a.769.769,0,0,1,1.3-.821l1.644,2.593a.766.766,0,0,1-.238,1.058.777.777,0,0,1-.412.12m-3.288-5.187a.769.769,0,0,1-.65-.357l-1.643-2.593a.769.769,0,0,1,1.3-.821l1.643,2.593a.766.766,0,0,1-.238,1.058.781.781,0,0,1-.412.12m-3.287-5.185a.769.769,0,0,1-.65-.357l-1.644-2.593a.768.768,0,0,1,1.3-.821l1.646,2.593a.768.768,0,0,1-.24,1.06.789.789,0,0,1-.411.118m-3.29-5.187a.771.771,0,0,1-.65-.357l-1.644-2.593a.766.766,0,0,1,.24-1.058.775.775,0,0,1,1.061.238l1.644,2.593a.767.767,0,0,1-.238,1.06.776.776,0,0,1-.412.118M25.143,18.7a.769.769,0,0,1-.65-.357L22.849,15.75a.767.767,0,0,1,.238-1.058.777.777,0,0,1,1.063.238l1.644,2.593a.769.769,0,0,1-.238,1.06.78.78,0,0,1-.412.118" transform="translate(13.589 8.657)" fill="#00c8ac"/>
    <path id="パス_473" data-name="パス 473" d="M55.454,42.285V26.134l-25.1-21.2h-11.2" transform="translate(11.453 2.93)" fill="none" stroke="#00c8ac" stroke-miterlimit="10" stroke-width="5.102"/>
    <path id="パス_474" data-name="パス 474" d="M50.773,20.64A6.477,6.477,0,1,0,44.3,27.1a6.468,6.468,0,0,0,6.476-6.46" transform="translate(22.61 8.423)" fill="#00c8ac"/>
    <path id="パス_475" data-name="パス 475" d="M36.536,6.974a6.991,6.991,0,1,0-6.991,6.974,6.982,6.982,0,0,0,6.991-6.974" transform="translate(13.483)" fill="#00c8ac"/>
    <path id="パス_476" data-name="パス 476" d="M44.76,19.014a2.1,2.1,0,1,0-2.1,2.1,2.1,2.1,0,0,0,2.1-2.1" transform="translate(24.248 10.049)" fill="#fff"/>
    <path id="パス_477" data-name="パス 477" d="M29.815,5.156a2.1,2.1,0,1,0-2.1,2.1,2.1,2.1,0,0,0,2.1-2.1" transform="translate(15.313 1.817)" fill="#fff"/>
    <rect id="長方形_1334" data-name="長方形 1334" width="93" height="66" fill="none"/>
  </g>
</svg>
