<svg id="グループ_1978" data-name="グループ 1978" xmlns="http://www.w3.org/2000/svg" width="56" height="57" viewBox="0 0 56 57">
  <path id="パス_605" data-name="パス 605" d="M223.09,21.154h-1.416V14.587a14.288,14.288,0,1,0-28.57,0v6.567h-1.415a6.556,6.556,0,0,0-4.831,2.111.877.877,0,0,0,.027,1.221.834.834,0,0,0,1.2-.028,4.9,4.9,0,0,1,3.608-1.576h31.4a5.044,5.044,0,0,1,4.986,5.09v22.21a5.044,5.044,0,0,1-4.986,5.09H193.041a.864.864,0,0,0,0,1.728H223.09a6.757,6.757,0,0,0,6.678-6.818V27.972a6.757,6.757,0,0,0-6.678-6.818M194.8,14.587a12.6,12.6,0,1,1,25.187,0v6.567h-3.655V14.587a8.941,8.941,0,1,0-17.878,0v6.567H194.8Zm19.841,6.567h-14.5V14.587a7.249,7.249,0,1,1,14.5,0Z" transform="translate(-173.768 0)" fill="#00c8ac"/>
  <path id="パス_606" data-name="パス 606" d="M203.624,40.517h.688a2.934,2.934,0,0,0,2.93-2.931v-4.64a5.68,5.68,0,1,0-6.549,0v4.639a2.935,2.935,0,0,0,2.931,2.931m-3.242-13.85a3.912,3.912,0,0,1,2.721-2.2,4.113,4.113,0,0,1,.854-.09,3.936,3.936,0,0,1,2.158,7.237,1.33,1.33,0,0,0-.611,1.115v4.861a1.192,1.192,0,0,1-1.192,1.192h-.688a1.192,1.192,0,0,1-1.192-1.192V32.725a1.331,1.331,0,0,0-.611-1.115,3.956,3.956,0,0,1-1.439-4.943" transform="translate(-170.518 7.469)" fill="#00c8ac"/>
  <path id="パス_607" data-name="パス 607" d="M201.188,37.847v-12a.87.87,0,0,0-.869-.869c-4.73,0-10.605-4.507-10.664-4.553a.869.869,0,0,0-1.065,0c-.059.046-5.925,4.553-10.664,4.553a.87.87,0,0,0-.869.869v12a8.258,8.258,0,0,0,3.083,6.7c1.69,1.249,6.435,4.386,7.37,5l1.134.748a.87.87,0,0,0,.958,0l1.134-.748c.935-.617,5.68-3.755,7.369-5a8.255,8.255,0,0,0,3.085-6.7m-4.118,5.3c-1.689,1.248-6.724,4.574-7.294,4.949l-.656.433-.656-.433c-.568-.375-5.6-3.7-7.292-4.949a6.52,6.52,0,0,1-2.378-5.3V26.673c4.256-.38,8.793-3.386,10.326-4.483,1.534,1.1,6.071,4.1,10.327,4.483V37.847a6.52,6.52,0,0,1-2.378,5.3" transform="translate(-177.055 6.556)" fill="#00c8ac"/>
  <path id="パス_608" data-name="パス 608" d="M192.064,28.836l-5.48,5.48L183.472,31.2a.87.87,0,1,0-1.231,1.231l3.729,3.728a.871.871,0,0,0,1.229,0l6.094-6.1a.869.869,0,1,0-1.229-1.229" transform="translate(-175.361 9.51)" fill="#00c8ac"/>
</svg>
