<svg xmlns="http://www.w3.org/2000/svg" width="99" height="30" viewBox="0 0 99 30">
  <g id="グループ_1977" data-name="グループ 1977" transform="translate(-356.001 -3022.999)">
    <g id="グループ_1689" data-name="グループ 1689" transform="translate(167 240)">
      <path id="パス_609" data-name="パス 609" d="M23.183,26.306V20.074h2.152v6.232a5.211,5.211,0,0,1-.5,2.517q-.933,1.652-3.569,1.651t-3.578-1.651a5.228,5.228,0,0,1-.5-2.517V20.074h2.152v6.232a3.525,3.525,0,0,0,.248,1.528,1.643,1.643,0,0,0,1.678.851,1.638,1.638,0,0,0,1.671-.851,3.526,3.526,0,0,0,.248-1.528" transform="translate(195.04 2772.956)" fill="#00c8ac"/>
      <path id="パス_610" data-name="パス 610" d="M28.863,28.827a3.729,3.729,0,0,0,1.218-.165,1.176,1.176,0,0,0,.886-1.176.866.866,0,0,0-.439-.778,4.771,4.771,0,0,0-1.382-.475l-1.074-.242a6.8,6.8,0,0,1-2.187-.775,2.474,2.474,0,0,1-1.025-2.2,2.929,2.929,0,0,1,.991-2.262,4.185,4.185,0,0,1,2.91-.9,4.43,4.43,0,0,1,2.733.849,3.033,3.033,0,0,1,1.187,2.467H30.645a1.457,1.457,0,0,0-.8-1.3,2.663,2.663,0,0,0-1.232-.254,2.289,2.289,0,0,0-1.306.33,1.053,1.053,0,0,0-.488.921.87.87,0,0,0,.482.812,5.811,5.811,0,0,0,1.321.419l1.747.42a4.553,4.553,0,0,1,1.734.735,2.478,2.478,0,0,1,.907,2.071,2.92,2.92,0,0,1-1.062,2.307,4.456,4.456,0,0,1-3,.918,4.875,4.875,0,0,1-3.116-.9A3.012,3.012,0,0,1,24.7,27.162h2.022A2.065,2.065,0,0,0,27.1,28.2a2.176,2.176,0,0,0,1.767.625" transform="translate(197.659 2772.882)" fill="#00c8ac"/>
      <path id="パス_611" data-name="パス 611" d="M36.973,30.213H32.379V20.074H37.3a3.13,3.13,0,0,1,2.642,1.081,2.564,2.564,0,0,1,.468,1.546,2.262,2.262,0,0,1-.468,1.494,2.408,2.408,0,0,1-.77.579,2.266,2.266,0,0,1,1.172.892,2.676,2.676,0,0,1,.4,1.487,2.955,2.955,0,0,1-.454,1.617,2.806,2.806,0,0,1-1.873,1.306,7.139,7.139,0,0,1-1.442.138m1.006-6.4a.949.949,0,0,0,.411-.888.909.909,0,0,0-.549-.936,3.964,3.964,0,0,0-1.212-.157H34.4v2.235H36.89a2.085,2.085,0,0,0,1.089-.254m-1.053,1.932H34.4v2.7H36.89a2.428,2.428,0,0,0,1.04-.18,1.273,1.273,0,0,0,.674-1.265,1.09,1.09,0,0,0-.652-1.087,2.635,2.635,0,0,0-1.026-.172" transform="translate(200.34 2772.961)" fill="#00c8ac"/>
      <rect id="長方形_1393" data-name="長方形 1393" width="52.516" height="28" rx="2.334" transform="translate(200.988 2783.999)" fill="none" stroke="#00c8ac" stroke-miterlimit="10" stroke-width="2"/>
      <path id="パス_612" data-name="パス 612" d="M81.745,27.652h-34.5V21.429h34.5" transform="translate(206.256 2773.459)" fill="none" stroke="#00c8ac" stroke-miterlimit="10" stroke-width="2"/>
      <path id="パス_613" data-name="パス 613" d="M2.962,35.3H11.7V16.612H2.962A2.215,2.215,0,0,0,.709,18.789V33.126A2.215,2.215,0,0,0,2.962,35.3Z" transform="translate(189.292 2772.044)" fill="none" stroke="#00c8ac" stroke-miterlimit="10" stroke-width="2"/>
    </g>
  </g>
</svg>
