<svg id="グループ_1979" data-name="グループ 1979" xmlns="http://www.w3.org/2000/svg" width="53" height="49" viewBox="0 0 53 49">
  <path id="パス_595" data-name="パス 595" d="M15.88,26.492c.139-.513.249-.915.916-.915.543,0,.994.31.994.728a2.074,2.074,0,0,1-.109.653L14.7,36.936c-.249.839-.451,1.443-1.507,1.443-1.008,0-1.2-.714-1.4-1.443L9.344,27.951,6.891,36.936c-.2.729-.4,1.443-1.413,1.443-1.056,0-1.242-.62-1.49-1.443l-2.98-9.977a3.017,3.017,0,0,1-.126-.637c0-.45.5-.744.994-.744.668,0,.777.388.932.915l2.656,9.45,2.5-9.094c.185-.666.356-1.272,1.3-1.272,1.042,0,1.227.42,1.461,1.272l2.5,9.094Z" transform="translate(0.396 10.621)" fill="#00c8ac"/>
  <path id="パス_596" data-name="パス 596" d="M17.659,26.6a1.1,1.1,0,0,1-1.117,1.118A1.118,1.118,0,1,1,17.659,26.6m-1.987,3c0-.527.264-.823.869-.823.543,0,.885.217.885.823V37.6c0,.511-.249.821-.869.821-.543,0-.885-.216-.885-.821Z" transform="translate(6.747 10.578)" fill="#00c8ac"/>
  <path id="パス_597" data-name="パス 597" d="M20.766,31.408a.885.885,0,1,1,0-1.77h2.686a.885.885,0,1,1,0,1.77Z" transform="translate(8.687 12.442)" fill="#00c8ac"/>
  <path id="パス_598" data-name="パス 598" d="M32.356,31.01a.83.83,0,1,1,0,1.66H27.792v4.749c0,.543-.28.883-.932.883-.575,0-.948-.232-.948-.883V27.611c0-.652,0-1.863,1.785-1.863h5.139a.854.854,0,1,1,0,1.708h-4.5c-.4,0-.543.109-.543.543V31.01Z" transform="translate(11.3 10.698)" fill="#00c8ac"/>
  <path id="パス_599" data-name="パス 599" d="M36.668,26.6a1.1,1.1,0,0,1-1.117,1.118A1.118,1.118,0,1,1,36.668,26.6m-1.986,3c0-.527.264-.823.869-.823.543,0,.885.217.885.823V37.6c0,.511-.249.821-.869.821-.543,0-.885-.216-.885-.821Z" transform="translate(15.053 10.578)" fill="#00c8ac"/>
  <path id="パス_600" data-name="パス 600" d="M9.914,10.9A8.311,8.311,0,0,1,18.6,19.443a8.7,8.7,0,0,1-8.991,8.985C4.992,28.429,0,25.321,0,16.641,0,7.757,5.2.617,12.852.617c.412,0,1.333,0,1.333,1.025a.954.954,0,0,1-1.059.991c-5.3,0-10.186,3.928-10.973,12.574A8.627,8.627,0,0,1,9.914,10.9m-.138,2.016C6.393,12.917,2.6,15.1,2.6,19.375a6.816,6.816,0,0,0,6.974,7.037,6.462,6.462,0,0,0,6.768-6.8c0-5.091-3.76-6.7-6.564-6.7" transform="translate(0 0.277)" fill="#00c8ac"/>
  <path id="パス_601" data-name="パス 601" d="M19.395,16.568a2.353,2.353,0,1,0,2.355,2.353,2.357,2.357,0,0,0-2.355-2.353" transform="translate(7.444 6.978)" fill="#00c8ac"/>
  <path id="パス_602" data-name="パス 602" d="M45.405,26.349A26.307,26.307,0,0,0,37.684,7.718a26.388,26.388,0,0,0-8.378-5.647A26.207,26.207,0,0,0,19.044,0a1.225,1.225,0,0,0,0,2.449A23.816,23.816,0,0,1,32.412,6.53a24.056,24.056,0,0,1,6.459,6.457,23.792,23.792,0,0,1,4.083,13.362,1.225,1.225,0,1,0,2.45,0" transform="translate(7.595 0)" fill="#00c8ac"/>
  <path id="パス_603" data-name="パス 603" d="M35.948,16.731a18.336,18.336,0,0,0-16.9-11.2,1.225,1.225,0,0,0,0,2.451A15.876,15.876,0,0,1,34.939,23.868a1.225,1.225,0,1,0,2.45,0,18.226,18.226,0,0,0-1.442-7.137" transform="translate(7.691 2.256)" fill="#00c8ac"/>
  <path id="パス_604" data-name="パス 604" d="M28.562,17.37a10.325,10.325,0,0,0-9.518-6.306,1.225,1.225,0,0,0,0,2.449,7.876,7.876,0,0,1,7.879,7.876,1.226,1.226,0,0,0,2.452,0,10.254,10.254,0,0,0-.813-4.019" transform="translate(7.75 4.607)" fill="#00c8ac"/>
</svg>
