<svg xmlns="http://www.w3.org/2000/svg" width="157.499" height="82.087" viewBox="0 0 157.499 82.087">
  <g id="グループ_3978" data-name="グループ 3978" transform="translate(-257.001 -3239)">
    <path id="パス_6790" data-name="パス 6790" d="M-29.376-11.1c.442-.459.833-.918,1.19-1.36.493.391,1.02.884,1.513,1.36Zm2.72,3.366v.612h-3.485v-.612ZM-30.192-5.27c.017-.221.034-.442.034-.646h3.5v.646Zm3.859,3.536V-.527h-2.873V-1.734Zm.136-8.007v-.884c.357.374.663.714.9.986l1.292-1.5a33.534,33.534,0,0,0-3.553-3.06h-1.8a11.764,11.764,0,0,1-4.267,4.148,5.733,5.733,0,0,1,1.207,1.428c.187-.119.374-.255.561-.374v2.312c0,1.921-.187,4.641-1.683,6.6a6.364,6.364,0,0,1,1.326,1.207A8.067,8.067,0,0,0-30.906-1.36V1.445h1.7V.918h2.873v.476h1.751V-3.179h-5.865c.051-.221.085-.459.119-.68h5.491V-9.146h-6.8a16.4,16.4,0,0,0,1.513-1.241v.646Zm4.267-2.6h-1.9v9.571h1.9Zm1.8-1.717V-.952c0,.289-.119.391-.425.391-.323,0-1.309,0-2.329-.034a8.269,8.269,0,0,1,.663,2.057,7.511,7.511,0,0,0,3.162-.408c.68-.306.9-.867.9-1.989V-14.059Zm13.719,4.08c-.187.459-.391.952-.6,1.36h-3.179l.289-.051a9.132,9.132,0,0,0-.578-1.309ZM-.918-2.4V-4.063H-7.531v-.748h5.1V-6.273h-5.1v-.765h5.9V-8.619H-4.964c.255-.408.527-.867.8-1.36h3.2v-1.649h-2.21c.391-.6.85-1.36,1.326-2.142l-2.125-.51a13.694,13.694,0,0,1-1.071,2.465l.612.187H-5.95V-14.4h-1.9v2.771H-9.112V-14.4H-11v2.771h-1.547l.833-.306A12.864,12.864,0,0,0-13-14.331l-1.734.6a15.238,15.238,0,0,1,1.054,2.108h-2.278v1.649h3.553l-.2.034a7.639,7.639,0,0,1,.578,1.326h-3.23v1.581H-9.52v.765h-4.9v1.462h4.9v.748h-6.494V-2.4h4.879A17.86,17.86,0,0,1-16.507-.408a9.43,9.43,0,0,1,1.292,1.683,16.126,16.126,0,0,0,5.7-2.754V1.479h1.989v-3.06A14.511,14.511,0,0,0-1.819,1.292,9.509,9.509,0,0,1-.459-.544,15.187,15.187,0,0,1-5.848-2.4ZM5.44-4.08V-6.664H8.381V-4.08Zm10.846,0H10.472V-6.664H14.96V-8.551H10.472v-2.023h4.879v-1.955H5.746a10.853,10.853,0,0,0,.561-1.394L4.25-14.45A13.11,13.11,0,0,1,.68-8.789,15.646,15.646,0,0,1,2.431-7.48a15.278,15.278,0,0,0,2.312-3.094H8.381v2.023H3.417V-4.08H.731v1.938h7.65V1.5h2.091V-2.142h5.814Zm9.826.136V-5.576c.1.1.17.187.238.255a10.783,10.783,0,0,0,.782-1.224A18,18,0,0,0,28.288-3.2,8.351,8.351,0,0,1,25.3-.629a15.833,15.833,0,0,0-1.411-.9,6.871,6.871,0,0,0,.9-2.414Zm-4.879,0h1.649A5.169,5.169,0,0,1,22.236-2.4c-.493-.238-.986-.442-1.5-.646Zm9.146-5.525a18.19,18.19,0,0,1-.918,4,21.45,21.45,0,0,1-1.037-4Zm3.043,0v-1.87H28.9c.221-.9.408-1.836.544-2.788L27.4-14.4C27-11.373,26.18-8.483,24.735-6.749a11.787,11.787,0,0,1,1.377,1.173H22.066l.408-.816-.731-.153h1.088V-8.6c.663.527,1.377,1.122,1.751,1.479l1.071-1.394c-.374-.255-1.581-.969-2.4-1.428h2.788v-1.6H24.429c.408-.527.935-1.241,1.462-1.972l-1.7-.68a16.421,16.421,0,0,1-1.139,2.159l1.122.493H22.831V-14.4H20.978v2.856H19.55l1.088-.476a7.243,7.243,0,0,0-1.02-2.108l-1.462.612a9.056,9.056,0,0,1,.884,1.972H17.748v1.6H20.4A9.031,9.031,0,0,1,17.408-7.82a6.116,6.116,0,0,1,1.02,1.462,12.252,12.252,0,0,0,2.55-1.972V-6.7L20.6-6.783c-.17.374-.374.782-.578,1.207H17.561v1.632h1.615c-.425.816-.85,1.581-1.224,2.176l1.768.544.187-.323a9.8,9.8,0,0,1,.952.459,8.933,8.933,0,0,1-3.23.918,4.465,4.465,0,0,1,.8,1.666A10.43,10.43,0,0,0,22.61-.119a16.11,16.11,0,0,1,1.768,1.275l.765-.782a7.677,7.677,0,0,1,.646,1.156,11.042,11.042,0,0,0,3.587-2.788,9.227,9.227,0,0,0,2.856,2.7A7.806,7.806,0,0,1,33.626-.306a7.979,7.979,0,0,1-3.009-2.822A19.129,19.129,0,0,0,32.47-9.469Z" transform="translate(336 3259.691)" fill="#6a6a6a"/>
    <g id="グループ_2530" data-name="グループ 2530" transform="translate(-684.609 710)">
      <path id="パス_6791" data-name="パス 6791" d="M8-6V-9.8h4.325V-6ZM23.95-6H15.4V-9.8H22v-2.775H15.4V-15.55h7.175v-2.875H8.45a15.961,15.961,0,0,0,.825-2.05L6.25-21.25A19.279,19.279,0,0,1,1-12.925,23.009,23.009,0,0,1,3.575-11a22.467,22.467,0,0,0,3.4-4.55h5.35v2.975h-7.3V-6H1.075v2.85h11.25V2.2H15.4V-3.15h8.55Z" transform="translate(1035.36 2602.691)" fill="#00c8ac"/>
      <path id="パス_6792" data-name="パス 6792" d="M-44.132-22.308c0-4,1.98-5.984,4.4-5.984,2.772,0,5.016,2.2,5.588,8.1-1.5,2.508-3.564,3.52-5.368,3.52C-42.328-16.676-44.132-18.48-44.132-22.308ZM-40.612.616c6.468,0,12.5-5.324,12.5-17.644,0-11.308-5.544-16.148-11.7-16.148-5.588,0-10.252,4.18-10.252,10.868,0,6.908,3.916,10.252,9.328,10.252a9.144,9.144,0,0,0,6.688-3.52c-.308,8.14-3.3,10.912-6.952,10.912A7.226,7.226,0,0,1-46.112-7L-49.544-3.08A12.212,12.212,0,0,0-40.612.616ZM-22.308,0h19.58V-5.236H-8.844V-32.6h-4.8a20.312,20.312,0,0,1-7.568,2.772v4h5.9V-5.236h-7Z" transform="translate(1031.61 2601.691)" fill="#00c8ac"/>
    </g>
    <g id="グループ_2388" data-name="グループ 2388" transform="translate(42.221 720)">
      <path id="パス_1526" data-name="パス 1526" d="M170.8,471.832c-.1-.527-.492-.644-.867-.26a18.863,18.863,0,0,0-4.054,6.6c-1.053,3.52.224,4.767.224,4.767a2.092,2.092,0,0,0,1.657.5s1.752-.341,2.806-3.86a18.863,18.863,0,0,0,.236-7.74" transform="translate(69.285 2104.513)" fill="#c6c262"/>
      <path id="パス_1527" data-name="パス 1527" d="M135.484,407.084c-.017-.537-.384-.714-.815-.394a18.863,18.863,0,0,0-5.053,5.867c-1.6,3.307-.538,4.742-.538,4.742a2.092,2.092,0,0,0,1.556.753s1.784-.058,3.384-3.365a18.866,18.866,0,0,0,1.465-7.6" transform="translate(101.61 2161.612)" fill="#c6c262"/>
      <path id="パス_1528" data-name="パス 1528" d="M111.136,343.915c.078-.531-.251-.771-.732-.532a18.861,18.861,0,0,0-6.011,4.881c-2.16,2.971-1.369,4.572-1.369,4.572a2.092,2.092,0,0,0,1.4,1.017s1.766.259,3.926-2.713a18.864,18.864,0,0,0,2.787-7.224" transform="translate(124.326 2217.212)" fill="#c6c262"/>
      <path id="パス_1529" data-name="パス 1529" d="M105.175,275.566c.178-.507-.1-.8-.618-.661a18.862,18.862,0,0,0-6.827,3.653c-2.684,2.509-2.21,4.23-2.21,4.23a2.092,2.092,0,0,0,1.181,1.263s1.685.589,4.369-1.92a18.864,18.864,0,0,0,4.106-6.565" transform="translate(130.819 2277.367)" fill="#c6c262"/>
      <path id="パス_1530" data-name="パス 1530" d="M108.449,216.425c.282-.457.074-.807-.462-.779a18.39,18.39,0,0,0-7.273,2.056c-3.093,1.833-3,3.558-3,3.558a2.092,2.092,0,0,0,.882,1.487s1.469.906,4.562-.927a18.392,18.392,0,0,0,5.294-5.395" transform="translate(128.858 2329.437)" fill="#c6c262"/>
      <path id="パス_1531" data-name="パス 1531" d="M131.458,152.023c.325-.427.152-.8-.384-.82a18.39,18.39,0,0,0-7.438,1.342c-3.256,1.526-3.333,3.25-3.333,3.25a2.091,2.091,0,0,0,.734,1.566s1.375,1.044,4.631-.482a18.391,18.391,0,0,0,5.791-4.857" transform="translate(108.938 2386.092)" fill="#c6c262"/>
      <path id="パス_1532" data-name="パス 1532" d="M164.224,86.284c.351-.406.2-.785-.332-.842a18.391,18.391,0,0,0-7.508.872c-3.345,1.318-3.531,3.034-3.531,3.034a2.092,2.092,0,0,0,.634,1.609s1.307,1.129,4.652-.189a18.392,18.392,0,0,0,6.085-4.483" transform="translate(80.366 2444.049)" fill="#c6c262"/>
      <path id="パス_1533" data-name="パス 1533" d="M31.722,545.892c-.533.065-.677.446-.32.847,0,0,3.563,4,7.69,5.561s5.876,0,5.876,0a2.091,2.091,0,0,0,.611-1.617s-.284-2.323-4.411-3.882-9.446-.913-9.446-.913" transform="translate(187.383 2039.18)" fill="#c6c262"/>
      <path id="パス_1534" data-name="パス 1534" d="M7.157,453.045c-.533-.065-.764.271-.513.746a21.636,21.636,0,0,0,5.719,6.728c3.4,2.344,5.289,1.351,5.289,1.351a2.092,2.092,0,0,0,.98-1.424s.255-2.115-3.149-4.459a21.638,21.638,0,0,0-8.326-2.941" transform="translate(209.036 2120.744)" fill="#c6c262"/>
      <path id="パス_1535" data-name="パス 1535" d="M.722,350.875c-.494-.211-.809.046-.7.572a21.638,21.638,0,0,0,3.61,8.059c2.613,3.2,4.7,2.775,4.7,2.775a2.092,2.092,0,0,0,1.34-1.093s.836-1.959-1.777-5.161a21.638,21.638,0,0,0-7.172-5.152" transform="translate(214.781 2210.605)" fill="#c6c262"/>
      <path id="パス_1536" data-name="パス 1536" d="M9.01,248.718c-.431-.321-.8-.144-.816.392a21.638,21.638,0,0,0,1.625,8.679c1.792,3.724,3.921,3.8,3.921,3.8a2.091,2.091,0,0,0,1.558-.75s1.271-1.71-.521-5.434a21.637,21.637,0,0,0-5.768-6.686" transform="translate(207.59 2300.482)" fill="#c6c262"/>
      <path id="パス_1537" data-name="パス 1537" d="M31.623,162.8c-.377-.382-.767-.263-.866.265a19.545,19.545,0,0,0,.29,8.005c1.109,3.62,2.947,3.966,2.947,3.966a2.091,2.091,0,0,0,1.653-.507s1.329-1.316.22-4.936a19.544,19.544,0,0,0-4.244-6.794" transform="translate(188.032 2376.074)" fill="#c6c262"/>
      <path id="パス_1538" data-name="パス 1538" d="M67.032,85.261c-.292-.45-.7-.412-.9.084a18.512,18.512,0,0,0-1.261,7.5c.337,3.6,1.948,4.261,1.948,4.261a2.092,2.092,0,0,0,1.722-.161S70,96,69.663,92.4a18.511,18.511,0,0,0-2.631-7.136" transform="translate(157.798 2444.419)" fill="#c6c262"/>
      <path id="パス_1539" data-name="パス 1539" d="M110.791,11.968c-.2-.5-.606-.539-.9-.09a17.6,17.6,0,0,0-2.54,6.789c-.344,3.448,1.016,4.343,1.016,4.343a2.091,2.091,0,0,0,1.72.172s1.51-.609,1.854-4.057a17.6,17.6,0,0,0-1.149-7.157" transform="translate(120.466 2508.845)" fill="#c6c262"/>
      <path id="パス_1540" data-name="パス 1540" d="M166.1.646c.108-.526-.208-.783-.7-.572a17.6,17.6,0,0,0-5.863,4.261c-2.189,2.686-1.549,4.183-1.549,4.183a2.091,2.091,0,0,0,1.34,1.092s1.6.325,3.784-2.361A17.6,17.6,0,0,0,166.1.646" transform="translate(75.926 2519)" fill="#c6c262"/>
      <path id="パス_1541" data-name="パス 1541" d="M91.232,89.982c-.215.377-2.862,5.406-4.114,8.373a62.151,62.151,0,0,0-3.876,11.138,50.493,50.493,0,0,0-.714,15.6,45.633,45.633,0,0,0,1.8,8.951A49.077,49.077,0,0,0,88.2,143.17C89.226,145.05,99.452,159.7,99.452,159.7" transform="translate(142.356 2439.998)" fill="none" stroke="#c6c262" stroke-linecap="round" stroke-linejoin="round" stroke-width="2"/>
      <path id="パス_6793" data-name="パス 6793" d="M0,0H30V81H0Z" transform="translate(214.78 2519)" fill="none"/>
    </g>
    <g id="グループ_2387" data-name="グループ 2387" transform="translate(384.5 3239)">
      <path id="パス_1526-2" data-name="パス 1526" d="M165.769,471.832c.1-.527.492-.644.867-.26a18.863,18.863,0,0,1,4.054,6.6c1.053,3.52-.224,4.767-.224,4.767a2.092,2.092,0,0,1-1.656.5s-1.752-.341-2.806-3.86a18.863,18.863,0,0,1-.236-7.74" transform="translate(-161.078 -414.487)" fill="#c6c262"/>
      <path id="パス_1527-2" data-name="パス 1527" d="M128.735,407.084c.017-.537.384-.714.815-.394a18.863,18.863,0,0,1,5.053,5.867c1.6,3.307.538,4.742.538,4.742a2.092,2.092,0,0,1-1.556.753s-1.784-.058-3.384-3.365a18.866,18.866,0,0,1-1.465-7.6" transform="translate(-121.048 -357.388)" fill="#c6c262"/>
      <path id="パス_1528-2" data-name="パス 1528" d="M102.894,343.915c-.078-.531.251-.771.732-.532a18.861,18.861,0,0,1,6.011,4.881c2.16,2.971,1.369,4.572,1.369,4.572a2.092,2.092,0,0,1-1.4,1.017s-1.766.259-3.926-2.713a18.864,18.864,0,0,1-2.787-7.224" transform="translate(-93.576 -301.788)" fill="#c6c262"/>
      <path id="パス_1529-2" data-name="パス 1529" d="M95.541,275.566c-.178-.507.1-.8.618-.661a18.861,18.861,0,0,1,6.827,3.653c2.684,2.509,2.21,4.23,2.21,4.23a2.092,2.092,0,0,1-1.181,1.263s-1.685.589-4.369-1.92a18.864,18.864,0,0,1-4.106-6.565" transform="translate(-86.756 -241.632)" fill="#c6c262"/>
      <path id="パス_1530-2" data-name="パス 1530" d="M97.837,216.425c-.282-.457-.074-.807.462-.779a18.39,18.39,0,0,1,7.273,2.056c3.093,1.833,3,3.558,3,3.558a2.092,2.092,0,0,1-.882,1.487s-1.469.906-4.562-.927a18.392,18.392,0,0,1-5.294-5.395" transform="translate(-90.363 -189.563)" fill="#c6c262"/>
      <path id="パス_1531-2" data-name="パス 1531" d="M120.466,152.023c-.325-.427-.152-.8.384-.82a18.39,18.39,0,0,1,7.438,1.342c3.256,1.526,3.333,3.25,3.333,3.25a2.091,2.091,0,0,1-.734,1.566s-1.375,1.044-4.631-.482a18.391,18.391,0,0,1-5.791-4.857" transform="translate(-116.082 -132.908)" fill="#c6c262"/>
      <path id="パス_1532-2" data-name="パス 1532" d="M153.036,86.284c-.351-.406-.2-.785.332-.842a18.39,18.39,0,0,1,7.508.872c3.345,1.318,3.531,3.034,3.531,3.034a2.092,2.092,0,0,1-.634,1.609s-1.307,1.129-4.652-.189a18.392,18.392,0,0,1-6.085-4.483" transform="translate(-152.846 -74.951)" fill="#c6c262"/>
      <path id="パス_1533-2" data-name="パス 1533" d="M45.073,545.892c.533.065.677.446.32.847,0,0-3.563,4-7.69,5.561s-5.876,0-5.876,0a2.091,2.091,0,0,1-.611-1.617s.284-2.323,4.411-3.882,9.446-.913,9.446-.913" transform="translate(-19.398 -479.82)" fill="#c6c262"/>
      <path id="パス_1534-2" data-name="パス 1534" d="M18.022,453.045c.533-.065.764.271.513.746a21.636,21.636,0,0,1-5.719,6.728c-3.4,2.344-5.289,1.351-5.289,1.351a2.092,2.092,0,0,1-.98-1.424s-.255-2.115,3.149-4.459a21.637,21.637,0,0,1,8.326-2.941" transform="translate(10.565 -398.256)" fill="#c6c262"/>
      <path id="パス_1535-2" data-name="パス 1535" d="M9.076,350.875c.494-.211.809.046.7.572a21.638,21.638,0,0,1-3.61,8.059c-2.613,3.2-4.7,2.775-4.7,2.775a2.092,2.092,0,0,1-1.339-1.093s-.836-1.959,1.777-5.161a21.637,21.637,0,0,1,7.172-5.152" transform="translate(20.201 -308.395)" fill="#c6c262"/>
      <path id="パス_1536-2" data-name="パス 1536" d="M14.916,248.718c.431-.321.8-.144.816.392a21.638,21.638,0,0,1-1.625,8.679c-1.792,3.724-3.921,3.8-3.921,3.8a2.091,2.091,0,0,1-1.558-.75s-1.271-1.71.521-5.434a21.637,21.637,0,0,1,5.767-6.686" transform="translate(13.264 -218.518)" fill="#c6c262"/>
      <path id="パス_1537-2" data-name="パス 1537" d="M35.152,162.8c.377-.382.767-.263.866.265a19.545,19.545,0,0,1-.29,8.005c-1.109,3.62-2.947,3.966-2.947,3.966a2.091,2.091,0,0,1-1.653-.507s-1.329-1.316-.22-4.936a19.544,19.544,0,0,1,4.244-6.794" transform="translate(-10.028 -142.926)" fill="#c6c262"/>
      <path id="パス_1538-2" data-name="パス 1538" d="M67.5,85.261c.292-.45.7-.412.9.084a18.512,18.512,0,0,1,1.261,7.5c-.337,3.6-1.948,4.261-1.948,4.261A2.092,2.092,0,0,1,66,96.945S64.537,96,64.874,92.4A18.511,18.511,0,0,1,67.5,85.261" transform="translate(-47.555 -74.581)" fill="#c6c262"/>
      <path id="パス_1539-2" data-name="パス 1539" d="M108.495,11.968c.2-.5.606-.539.9-.09a17.6,17.6,0,0,1,2.54,6.789c.344,3.448-1.016,4.343-1.016,4.343a2.091,2.091,0,0,1-1.72.172s-1.51-.609-1.854-4.057a17.6,17.6,0,0,1,1.149-7.157" transform="translate(-94.972 -10.155)" fill="#c6c262"/>
      <path id="パス_1540-2" data-name="パス 1540" d="M157.924.646c-.107-.526.208-.783.7-.572a17.6,17.6,0,0,1,5.863,4.261c2.189,2.686,1.549,4.183,1.549,4.183a2.091,2.091,0,0,1-1.34,1.092s-1.6.325-3.784-2.361a17.6,17.6,0,0,1-2.989-6.6" transform="translate(-155.174)" fill="#c6c262"/>
      <path id="パス_1541-2" data-name="パス 1541" d="M90.459,89.982c.215.377,2.862,5.406,4.114,8.373a62.152,62.152,0,0,1,3.876,11.138,50.494,50.494,0,0,1,.714,15.6,45.633,45.633,0,0,1-1.8,8.951,49.079,49.079,0,0,1-3.871,9.125C92.465,145.05,82.239,159.7,82.239,159.7" transform="translate(-79.267 -79.002)" fill="none" stroke="#c6c262" stroke-linecap="round" stroke-linejoin="round" stroke-width="2"/>
      <path id="パス_6794" data-name="パス 6794" d="M0,0H30V81H0Z" transform="translate(0)" fill="none"/>
    </g>
  </g>
</svg>
