<svg xmlns="http://www.w3.org/2000/svg" width="303.28" height="82.087" viewBox="0 0 303.28 82.087">
  <g id="グループ_3980" data-name="グループ 3980" transform="translate(-809.001 -3239)">
    <path id="パス_6800" data-name="パス 6800" d="M-12.614-9.707h-4.539v-.51h4.539Zm0,1.377h-4.539v-.527h4.539Zm0,1.394h-4.539V-7.48h4.539ZM-19.023-11.1v5.066h8.364V-11.1h-3.689l.221-.544h4.845v-1.36h-2.5c.238-.323.493-.714.748-1.139l-1.887-.289a12.688,12.688,0,0,1-.731,1.428H-15.98a7.216,7.216,0,0,0-.782-1.411l-1.649.306a7.543,7.543,0,0,1,.578,1.1h-2.533v1.36h4.386c-.034.187-.085.374-.119.544Zm-1.564-1.02a11.129,11.129,0,0,0-2.363-2.091l-1.309,1.105a11.911,11.911,0,0,1,2.3,2.193ZM-12.9-4.046c1.275-.017,2.5-.051,3.4-.085A8.662,8.662,0,0,1-9.01-5.678c-2.346.17-6.783.221-8.84.136-1.445-.051-2.465-.425-3.026-1.36v-3.3h-3.791v1.53h1.955v2.057c-.714.408-1.462.782-2.091,1.088l.68,1.6c.952-.578,1.785-1.105,2.6-1.666.816,1.071,1.972,1.445,3.689,1.513.782.017,1.836.034,2.975.034v.714h-9.86V-1.8h3.757l-.9.748A12.807,12.807,0,0,1-19.6.935l1.462-1.241a11.086,11.086,0,0,0-1.768-1.5h5.049V-.493c0,.187-.085.255-.357.255-.255.017-1.19.017-2.023-.034a6.76,6.76,0,0,1,.629,1.751,8.652,8.652,0,0,0,2.839-.272c.68-.272.867-.748.867-1.649V-1.8h3.638v-1.53H-12.9Zm8.33-9.4v2.057H-.7c.051.578.119,1.19.238,1.836L-1.5-9.741C-2.431-5.27-4.454-1.989-7.99-.2A16.146,16.146,0,0,1-6.137,1.445a14.711,14.711,0,0,0,6.273-8.4A14.364,14.364,0,0,0,6.392,1.428,10.884,10.884,0,0,1,8.024-.34C1.768-4.029,1.309-10.234,1.309-13.447ZM12.546-5.44A54.012,54.012,0,0,1,9.5-.017l1.768,1.258c.952-1.666,1.955-3.621,2.805-5.423Zm.7-2.686A11.862,11.862,0,0,0,10.1-9.741L9.027-8.228a13.2,13.2,0,0,1,3.06,1.785Zm8.211,1.479v.7H17.289V-6.7H15.861A20.407,20.407,0,0,0,19.3-7.905a17.986,17.986,0,0,0,3.927,1.258ZM17.187-3.094a9.958,9.958,0,0,0,.1-1.173h4.165v1.173Zm3.689-8.024A6.6,6.6,0,0,1,19.4-9.894a8.747,8.747,0,0,1-1.7-1.224Zm3.859,0v-1.751H20.4v-1.513H18.309v1.513H14.042v.119A13.743,13.743,0,0,0,11.1-14.314l-1.1,1.5a11.674,11.674,0,0,1,3.009,1.836l1.037-1.479v1.343h1.326a10.48,10.48,0,0,0,2.125,2.125,21.2,21.2,0,0,1-4.148.952,8.36,8.36,0,0,1,.952,1.7c.357-.068.714-.153,1.054-.238v1.853a6.5,6.5,0,0,1-2.125,5.3,8.6,8.6,0,0,1,1.615,1.071,6.272,6.272,0,0,0,2.006-3.077h4.607V1.445h1.989V-6.6l.612.119A4.949,4.949,0,0,1,25.143-8.3a23.869,23.869,0,0,1-3.893-.8,8.274,8.274,0,0,0,1.9-2.023Z" transform="translate(960 3260)" fill="#6a6a6a"/>
    <path id="パス_6801" data-name="パス 6801" d="M-106.7-13.376l5.06-8.1c.924-1.76,1.8-3.564,2.6-5.324h.176c-.088,1.936-.22,4.884-.22,6.776v6.644ZM-99.088,0h6.028V-8.448h3.828v-4.928H-93.06V-32.6h-7.788l-12.144,19.756v4.4h13.9Zm19.272,0h6.556c.528-12.76,1.54-19.4,9.108-28.644V-32.6H-85.8v5.456h14.652C-77.352-18.524-79.244-11.308-79.816,0Zm31.988-24.508v-3.608h3.3c-.792,1.276-1.584,2.464-2.42,3.608Zm3.432,14.7H-51.48v-2.772H-44.4ZM-51.48-2.728V-5.852H-44.4v3.124Zm28.424-32.3-.792.176H-36.52v.836l-4.62-1.276A41.646,41.646,0,0,1-43.3-30.36V-32.6h-4.532v-4.268h-4.84V-32.6h-5.764v4.488h5.764v3.608h-7.656v4.576h9.372a40.751,40.751,0,0,1-10.516,7.26,26.893,26.893,0,0,1,3.036,4.356c.7-.4,1.452-.836,2.2-1.32V3.7h4.752V1.452H-44.4V3.124h4.972V-16.72h-7.92c.968-1.056,1.892-2.068,2.816-3.212h6.556v-4.576h-3.256A53.33,53.33,0,0,0-36.52-33.88V3.784h5.148v-33.7h5.544c-1.056,3.388-2.552,7.832-3.872,11,3.564,3.388,4.576,6.6,4.576,9.02,0,1.452-.308,2.508-1.144,2.992a3.59,3.59,0,0,1-1.76.4c-.792,0-1.716,0-2.772-.088a12.721,12.721,0,0,1,1.32,5.06,21.746,21.746,0,0,0,3.828-.044,6.658,6.658,0,0,0,3.08-1.188c1.76-1.144,2.464-3.3,2.464-6.6,0-2.816-.748-6.292-4.488-10.208,1.8-3.872,3.74-8.844,5.324-13.068Zm38.632,15.18H3.652v-2.288H15.576Zm0,5.764H3.652v-2.288H15.576Zm0,5.808H3.652V-10.6H15.576ZM-1.32-25.916V-4.488H20.768V-25.916h-9.9c.352-.748.748-1.54,1.1-2.376H23.716v-4.224H16.984c.7-1.056,1.5-2.332,2.288-3.652l-5.192-1.1a36.351,36.351,0,0,1-2.332,4.752h-5.5l.528-.22a15.6,15.6,0,0,0-2.86-4.488L-.22-35.684A18.417,18.417,0,0,1,1.8-32.516H-4.312v4.224H6.336c-.132.792-.264,1.584-.44,2.376Zm-3.432-3.7A35.234,35.234,0,0,0-12.1-36.256l-3.872,3.168a33.3,33.3,0,0,1,7.084,6.952Zm-1.1,9.416H-16.016v4.8h5.06v9.284a57.784,57.784,0,0,1-6.028,4.048l2.552,5.456c2.42-1.848,4.356-3.564,6.292-5.28C-5.28,1.54-1.672,2.772,3.74,2.992c5.236.22,14.08.132,19.36-.132a27.4,27.4,0,0,1,1.628-5.28c-5.852.44-15.752.572-20.9.352C-.748-2.244-4.048-3.432-5.852-6.38Zm48.8-7.568a31.57,31.57,0,0,1-7.3,11.528c.044-1.628.088-3.168.088-4.532V-27.94H67.98v-4.84H52.008v-4.444H46.552v4.444H30.624v11.968c0,6.424-.308,15.576-3.74,21.912A20.1,20.1,0,0,1,31.372,4C33.924-.66,35.024-7.128,35.464-13.024c.66.792,1.276,1.584,1.716,2.156a25.521,25.521,0,0,0,2.772-2.6V3.74H44.88V-20.02a50.438,50.438,0,0,0,3.212-6.336ZM47.564-13.2a38.455,38.455,0,0,1,4.18,8.448l4.4-1.98a35.774,35.774,0,0,0-4.4-8.184ZM68.2-21.648H63.756V-27.1H58.7v5.456H47.344v4.84H58.7V-1.892c0,.66-.264.88-.968.88-.792,0-3.256,0-5.588-.088a18.89,18.89,0,0,1,1.584,5.016c3.564.044,6.072-.088,7.788-.88C63.228,2.2,63.756.88,63.756-1.848v-14.96H68.2Zm33.7-8.316H87.384v-2.2H101.9Zm0,5.632H87.384V-26.62H101.9Zm0,5.544H87.384v-2.244H101.9Zm5.148-16.94h-24.6v20.5h24.6Zm-26,28.644A31.235,31.235,0,0,1,71.676,0a44.067,44.067,0,0,1,4.268,3.52A43.677,43.677,0,0,0,86.5-5.06Zm30.668-1.232v-4.62H79.42V-33.088H74.14v25.7h5.28v-.924h9.812V3.828h5.5V-8.316ZM97.5-4.62a89.936,89.936,0,0,1,9.9,8.184l4.84-3.256a92.892,92.892,0,0,0-10.252-7.744Z" transform="translate(961 3312)" fill="#00c8ac"/>
    <g id="グループ_2385" data-name="グループ 2385" transform="translate(594.221 720)">
      <path id="パス_1526" data-name="パス 1526" d="M170.8,471.832c-.1-.527-.492-.644-.867-.26a18.863,18.863,0,0,0-4.054,6.6c-1.053,3.52.224,4.767.224,4.767a2.092,2.092,0,0,0,1.657.5s1.752-.341,2.806-3.86a18.863,18.863,0,0,0,.236-7.74" transform="translate(69.285 2104.513)" fill="#c6c262"/>
      <path id="パス_1527" data-name="パス 1527" d="M135.484,407.084c-.017-.537-.384-.714-.815-.394a18.863,18.863,0,0,0-5.053,5.867c-1.6,3.307-.538,4.742-.538,4.742a2.092,2.092,0,0,0,1.556.753s1.784-.058,3.384-3.365a18.866,18.866,0,0,0,1.465-7.6" transform="translate(101.61 2161.612)" fill="#c6c262"/>
      <path id="パス_1528" data-name="パス 1528" d="M111.136,343.915c.078-.531-.251-.771-.732-.532a18.861,18.861,0,0,0-6.011,4.881c-2.16,2.971-1.369,4.572-1.369,4.572a2.092,2.092,0,0,0,1.4,1.017s1.766.259,3.926-2.713a18.864,18.864,0,0,0,2.787-7.224" transform="translate(124.326 2217.212)" fill="#c6c262"/>
      <path id="パス_1529" data-name="パス 1529" d="M105.175,275.566c.178-.507-.1-.8-.618-.661a18.862,18.862,0,0,0-6.827,3.653c-2.684,2.509-2.21,4.23-2.21,4.23a2.092,2.092,0,0,0,1.181,1.263s1.685.589,4.369-1.92a18.864,18.864,0,0,0,4.106-6.565" transform="translate(130.819 2277.367)" fill="#c6c262"/>
      <path id="パス_1530" data-name="パス 1530" d="M108.449,216.425c.282-.457.074-.807-.462-.779a18.39,18.39,0,0,0-7.273,2.056c-3.093,1.833-3,3.558-3,3.558a2.092,2.092,0,0,0,.882,1.487s1.469.906,4.562-.927a18.392,18.392,0,0,0,5.294-5.395" transform="translate(128.858 2329.437)" fill="#c6c262"/>
      <path id="パス_1531" data-name="パス 1531" d="M131.458,152.023c.325-.427.152-.8-.384-.82a18.39,18.39,0,0,0-7.438,1.342c-3.256,1.526-3.333,3.25-3.333,3.25a2.091,2.091,0,0,0,.734,1.566s1.375,1.044,4.631-.482a18.391,18.391,0,0,0,5.791-4.857" transform="translate(108.938 2386.092)" fill="#c6c262"/>
      <path id="パス_1532" data-name="パス 1532" d="M164.224,86.284c.351-.406.2-.785-.332-.842a18.391,18.391,0,0,0-7.508.872c-3.345,1.318-3.531,3.034-3.531,3.034a2.092,2.092,0,0,0,.634,1.609s1.307,1.129,4.652-.189a18.392,18.392,0,0,0,6.085-4.483" transform="translate(80.366 2444.049)" fill="#c6c262"/>
      <path id="パス_1533" data-name="パス 1533" d="M31.722,545.892c-.533.065-.677.446-.32.847,0,0,3.563,4,7.69,5.561s5.876,0,5.876,0a2.091,2.091,0,0,0,.611-1.617s-.284-2.323-4.411-3.882-9.446-.913-9.446-.913" transform="translate(187.383 2039.18)" fill="#c6c262"/>
      <path id="パス_1534" data-name="パス 1534" d="M7.157,453.045c-.533-.065-.764.271-.513.746a21.636,21.636,0,0,0,5.719,6.728c3.4,2.344,5.289,1.351,5.289,1.351a2.092,2.092,0,0,0,.98-1.424s.255-2.115-3.149-4.459a21.638,21.638,0,0,0-8.326-2.941" transform="translate(209.036 2120.744)" fill="#c6c262"/>
      <path id="パス_1535" data-name="パス 1535" d="M.722,350.875c-.494-.211-.809.046-.7.572a21.638,21.638,0,0,0,3.61,8.059c2.613,3.2,4.7,2.775,4.7,2.775a2.092,2.092,0,0,0,1.34-1.093s.836-1.959-1.777-5.161a21.638,21.638,0,0,0-7.172-5.152" transform="translate(214.781 2210.605)" fill="#c6c262"/>
      <path id="パス_1536" data-name="パス 1536" d="M9.01,248.718c-.431-.321-.8-.144-.816.392a21.638,21.638,0,0,0,1.625,8.679c1.792,3.724,3.921,3.8,3.921,3.8a2.091,2.091,0,0,0,1.558-.75s1.271-1.71-.521-5.434a21.637,21.637,0,0,0-5.768-6.686" transform="translate(207.59 2300.482)" fill="#c6c262"/>
      <path id="パス_1537" data-name="パス 1537" d="M31.623,162.8c-.377-.382-.767-.263-.866.265a19.545,19.545,0,0,0,.29,8.005c1.109,3.62,2.947,3.966,2.947,3.966a2.091,2.091,0,0,0,1.653-.507s1.329-1.316.22-4.936a19.544,19.544,0,0,0-4.244-6.794" transform="translate(188.032 2376.074)" fill="#c6c262"/>
      <path id="パス_1538" data-name="パス 1538" d="M67.032,85.261c-.292-.45-.7-.412-.9.084a18.512,18.512,0,0,0-1.261,7.5c.337,3.6,1.948,4.261,1.948,4.261a2.092,2.092,0,0,0,1.722-.161S70,96,69.663,92.4a18.511,18.511,0,0,0-2.631-7.136" transform="translate(157.798 2444.419)" fill="#c6c262"/>
      <path id="パス_1539" data-name="パス 1539" d="M110.791,11.968c-.2-.5-.606-.539-.9-.09a17.6,17.6,0,0,0-2.54,6.789c-.344,3.448,1.016,4.343,1.016,4.343a2.091,2.091,0,0,0,1.72.172s1.51-.609,1.854-4.057a17.6,17.6,0,0,0-1.149-7.157" transform="translate(120.466 2508.845)" fill="#c6c262"/>
      <path id="パス_1540" data-name="パス 1540" d="M166.1.646c.108-.526-.208-.783-.7-.572a17.6,17.6,0,0,0-5.863,4.261c-2.189,2.686-1.549,4.183-1.549,4.183a2.091,2.091,0,0,0,1.34,1.092s1.6.325,3.784-2.361A17.6,17.6,0,0,0,166.1.646" transform="translate(75.926 2519)" fill="#c6c262"/>
      <path id="パス_1541" data-name="パス 1541" d="M91.232,89.982c-.215.377-2.862,5.406-4.114,8.373a62.151,62.151,0,0,0-3.876,11.138,50.493,50.493,0,0,0-.714,15.6,45.633,45.633,0,0,0,1.8,8.951A49.077,49.077,0,0,0,88.2,143.17C89.226,145.05,99.452,159.7,99.452,159.7" transform="translate(142.356 2439.998)" fill="none" stroke="#c6c262" stroke-linecap="round" stroke-linejoin="round" stroke-width="2"/>
      <path id="パス_6802" data-name="パス 6802" d="M0,0H30V81H0Z" transform="translate(214.78 2519)" fill="none"/>
    </g>
    <g id="グループ_2386" data-name="グループ 2386" transform="translate(1082.281 3239)">
      <path id="パス_1526-2" data-name="パス 1526" d="M165.769,471.832c.1-.527.492-.644.867-.26a18.863,18.863,0,0,1,4.054,6.6c1.053,3.52-.224,4.767-.224,4.767a2.092,2.092,0,0,1-1.656.5s-1.752-.341-2.806-3.86a18.863,18.863,0,0,1-.236-7.74" transform="translate(-161.078 -414.487)" fill="#c6c262"/>
      <path id="パス_1527-2" data-name="パス 1527" d="M128.735,407.084c.017-.537.384-.714.815-.394a18.863,18.863,0,0,1,5.053,5.867c1.6,3.307.538,4.742.538,4.742a2.092,2.092,0,0,1-1.556.753s-1.784-.058-3.384-3.365a18.866,18.866,0,0,1-1.465-7.6" transform="translate(-121.048 -357.388)" fill="#c6c262"/>
      <path id="パス_1528-2" data-name="パス 1528" d="M102.894,343.915c-.078-.531.251-.771.732-.532a18.861,18.861,0,0,1,6.011,4.881c2.16,2.971,1.369,4.572,1.369,4.572a2.092,2.092,0,0,1-1.4,1.017s-1.766.259-3.926-2.713a18.864,18.864,0,0,1-2.787-7.224" transform="translate(-93.576 -301.788)" fill="#c6c262"/>
      <path id="パス_1529-2" data-name="パス 1529" d="M95.541,275.566c-.178-.507.1-.8.618-.661a18.861,18.861,0,0,1,6.827,3.653c2.684,2.509,2.21,4.23,2.21,4.23a2.092,2.092,0,0,1-1.181,1.263s-1.685.589-4.369-1.92a18.864,18.864,0,0,1-4.106-6.565" transform="translate(-86.756 -241.632)" fill="#c6c262"/>
      <path id="パス_1530-2" data-name="パス 1530" d="M97.837,216.425c-.282-.457-.074-.807.462-.779a18.39,18.39,0,0,1,7.273,2.056c3.093,1.833,3,3.558,3,3.558a2.092,2.092,0,0,1-.882,1.487s-1.469.906-4.562-.927a18.392,18.392,0,0,1-5.294-5.395" transform="translate(-90.363 -189.563)" fill="#c6c262"/>
      <path id="パス_1531-2" data-name="パス 1531" d="M120.466,152.023c-.325-.427-.152-.8.384-.82a18.39,18.39,0,0,1,7.438,1.342c3.256,1.526,3.333,3.25,3.333,3.25a2.091,2.091,0,0,1-.734,1.566s-1.375,1.044-4.631-.482a18.391,18.391,0,0,1-5.791-4.857" transform="translate(-116.082 -132.908)" fill="#c6c262"/>
      <path id="パス_1532-2" data-name="パス 1532" d="M153.036,86.284c-.351-.406-.2-.785.332-.842a18.39,18.39,0,0,1,7.508.872c3.345,1.318,3.531,3.034,3.531,3.034a2.092,2.092,0,0,1-.634,1.609s-1.307,1.129-4.652-.189a18.392,18.392,0,0,1-6.085-4.483" transform="translate(-152.846 -74.951)" fill="#c6c262"/>
      <path id="パス_1533-2" data-name="パス 1533" d="M45.073,545.892c.533.065.677.446.32.847,0,0-3.563,4-7.69,5.561s-5.876,0-5.876,0a2.091,2.091,0,0,1-.611-1.617s.284-2.323,4.411-3.882,9.446-.913,9.446-.913" transform="translate(-19.398 -479.82)" fill="#c6c262"/>
      <path id="パス_1534-2" data-name="パス 1534" d="M18.022,453.045c.533-.065.764.271.513.746a21.636,21.636,0,0,1-5.719,6.728c-3.4,2.344-5.289,1.351-5.289,1.351a2.092,2.092,0,0,1-.98-1.424s-.255-2.115,3.149-4.459a21.637,21.637,0,0,1,8.326-2.941" transform="translate(10.565 -398.256)" fill="#c6c262"/>
      <path id="パス_1535-2" data-name="パス 1535" d="M9.076,350.875c.494-.211.809.046.7.572a21.638,21.638,0,0,1-3.61,8.059c-2.613,3.2-4.7,2.775-4.7,2.775a2.092,2.092,0,0,1-1.339-1.093s-.836-1.959,1.777-5.161a21.637,21.637,0,0,1,7.172-5.152" transform="translate(20.201 -308.395)" fill="#c6c262"/>
      <path id="パス_1536-2" data-name="パス 1536" d="M14.916,248.718c.431-.321.8-.144.816.392a21.638,21.638,0,0,1-1.625,8.679c-1.792,3.724-3.921,3.8-3.921,3.8a2.091,2.091,0,0,1-1.558-.75s-1.271-1.71.521-5.434a21.637,21.637,0,0,1,5.767-6.686" transform="translate(13.264 -218.518)" fill="#c6c262"/>
      <path id="パス_1537-2" data-name="パス 1537" d="M35.152,162.8c.377-.382.767-.263.866.265a19.545,19.545,0,0,1-.29,8.005c-1.109,3.62-2.947,3.966-2.947,3.966a2.091,2.091,0,0,1-1.653-.507s-1.329-1.316-.22-4.936a19.544,19.544,0,0,1,4.244-6.794" transform="translate(-10.028 -142.926)" fill="#c6c262"/>
      <path id="パス_1538-2" data-name="パス 1538" d="M67.5,85.261c.292-.45.7-.412.9.084a18.512,18.512,0,0,1,1.261,7.5c-.337,3.6-1.948,4.261-1.948,4.261A2.092,2.092,0,0,1,66,96.945S64.537,96,64.874,92.4A18.511,18.511,0,0,1,67.5,85.261" transform="translate(-47.555 -74.581)" fill="#c6c262"/>
      <path id="パス_1539-2" data-name="パス 1539" d="M108.495,11.968c.2-.5.606-.539.9-.09a17.6,17.6,0,0,1,2.54,6.789c.344,3.448-1.016,4.343-1.016,4.343a2.091,2.091,0,0,1-1.72.172s-1.51-.609-1.854-4.057a17.6,17.6,0,0,1,1.149-7.157" transform="translate(-94.972 -10.155)" fill="#c6c262"/>
      <path id="パス_1540-2" data-name="パス 1540" d="M157.924.646c-.107-.526.208-.783.7-.572a17.6,17.6,0,0,1,5.863,4.261c2.189,2.686,1.549,4.183,1.549,4.183a2.091,2.091,0,0,1-1.34,1.092s-1.6.325-3.784-2.361a17.6,17.6,0,0,1-2.989-6.6" transform="translate(-155.174)" fill="#c6c262"/>
      <path id="パス_1541-2" data-name="パス 1541" d="M90.459,89.982c.215.377,2.862,5.406,4.114,8.373a62.152,62.152,0,0,1,3.876,11.138,50.494,50.494,0,0,1,.714,15.6,45.633,45.633,0,0,1-1.8,8.951,49.079,49.079,0,0,1-3.871,9.125C92.465,145.05,82.239,159.7,82.239,159.7" transform="translate(-79.267 -79.002)" fill="none" stroke="#c6c262" stroke-linecap="round" stroke-linejoin="round" stroke-width="2"/>
      <path id="パス_6803" data-name="パス 6803" d="M0,0H30V81H0Z" transform="translate(0)" fill="none"/>
    </g>
  </g>
</svg>
