<svg xmlns="http://www.w3.org/2000/svg" width="48" height="48" viewBox="0 0 48 48">
  <g id="グループ_3981" data-name="グループ 3981" transform="translate(-978 -7631)">
    <g id="パス_6804" data-name="パス 6804" transform="translate(978 7631)" fill="none">
      <path d="M24,0A24,24,0,1,1,0,24,24,24,0,0,1,24,0Z" stroke="none"/>
      <path d="M 24 3 C 21.16370010375977 3 18.4138298034668 3.554821014404297 15.82677841186523 4.649051666259766 C 13.32646942138672 5.706588745117188 11.08032989501953 7.22119140625 9.150760650634766 9.150760650634766 C 7.22119140625 11.08032989501953 5.706588745117188 13.32646942138672 4.649051666259766 15.82677841186523 C 3.554821014404297 18.4138298034668 3 21.16370010375977 3 24 C 3 26.83629989624023 3.554821014404297 29.5861701965332 4.649051666259766 32.1732177734375 C 5.706588745117188 34.67353057861328 7.22119140625 36.91967010498047 9.150760650634766 38.84923934936523 C 11.08032989501953 40.77880859375 13.32646942138672 42.29341125488281 15.82677841186523 43.35094833374023 C 18.4138298034668 44.4451789855957 21.16370010375977 45 24 45 C 26.83629989624023 45 29.5861701965332 44.4451789855957 32.1732177734375 43.35094833374023 C 34.67353057861328 42.29341125488281 36.91967010498047 40.77880859375 38.84923934936523 38.84923934936523 C 40.77880859375 36.91967010498047 42.29341125488281 34.67353057861328 43.35094833374023 32.1732177734375 C 44.4451789855957 29.5861701965332 45 26.83629989624023 45 24 C 45 21.16370010375977 44.4451789855957 18.4138298034668 43.35094833374023 15.82677841186523 C 42.29341125488281 13.32646942138672 40.77880859375 11.08032989501953 38.84923934936523 9.150760650634766 C 36.91967010498047 7.22119140625 34.67353057861328 5.706588745117188 32.1732177734375 4.649051666259766 C 29.5861701965332 3.554821014404297 26.83629989624023 3 24 3 M 24 0 C 37.25482940673828 0 48 10.74517059326172 48 24 C 48 37.25482940673828 37.25482940673828 48 24 48 C 10.74517059326172 48 0 37.25482940673828 0 24 C 0 10.74517059326172 10.74517059326172 0 24 0 Z" stroke="none" fill="#00c8ac"/>
    </g>
    <path id="パス_1163" data-name="パス 1163" d="M0,0H6V16H0Z" transform="translate(999 7642)" fill="#00c8ac"/>
    <path id="パス_52" data-name="パス 52" d="M3139.179-9190.738v4.9h16.964v-4.9" transform="translate(-2145.68 16852.738)" fill="none" stroke="#00c8ac" stroke-width="3"/>
  </g>
</svg>
