<svg id="グループ_2638" data-name="グループ 2638" xmlns="http://www.w3.org/2000/svg" xmlns:xlink="http://www.w3.org/1999/xlink" width="68.759" height="49.396" viewBox="0 0 68.759 49.396">
  <defs>
    <clipPath id="clip-path">
      <rect id="長方形_2213" data-name="長方形 2213" width="68.759" height="49.396" transform="translate(0 0)" fill="#00c8ac"/>
    </clipPath>
  </defs>
  <g id="グループ_2637" data-name="グループ 2637" transform="translate(0 0)" clip-path="url(#clip-path)">
    <path id="パス_2007" data-name="パス 2007" d="M39.6,79.274a6.293,6.293,0,0,1-4.639-2.07,7.294,7.294,0,0,1-1.923-4.993V61.846a44.446,44.446,0,0,0-8.158-.647,49.363,49.363,0,0,0-11.295,1.223C8.13,63.508,0,67.254,0,75.3v6.328H49.762v-2.35Z" transform="translate(0 -32.227)" fill="#00c8ac"/>
    <path id="パス_2008" data-name="パス 2008" d="M80.651,67.071a3.408,3.408,0,0,1-3.4-3.4V48.378a3.408,3.408,0,0,1,3.4-3.4h25.381a3.408,3.408,0,0,1,3.4,3.4V63.667a3.409,3.409,0,0,1-3.4,3.4Zm25.291-3.495V50.069L94.419,59.106c-.044.035-.09.067-.137.1l-.042.025c-.045.027-.081.046-.118.065l-.05.024c-.051.024-.1.044-.153.063a1.717,1.717,0,0,1-.184.053l-.028.006c-.053.011-.1.019-.151.026l-.039,0a1.672,1.672,0,0,1-.175.009,1.556,1.556,0,0,1-.177-.009l-.041,0c-.047-.006-.1-.014-.144-.024l-.031-.007a1.714,1.714,0,0,1-.169-.048l-.012,0-.013-.006c-.048-.017-.1-.037-.143-.059l-.043-.021c-.044-.022-.08-.042-.116-.063L92.4,59.2c-.047-.03-.093-.062-.138-.1l-.01-.008L80.741,50.069V63.576Zm-12.6-8.067,8.979-7.041H84.363Z" transform="translate(-40.677 -23.683)" fill="#00c8ac"/>
    <path id="パス_2009" data-name="パス 2009" d="M51.017,12.31A12.31,12.31,0,1,1,38.708,0,12.309,12.309,0,0,1,51.017,12.31" transform="translate(-13.901 -0.001)" fill="#00c8ac"/>
  </g>
</svg>
