<svg xmlns="http://www.w3.org/2000/svg" width="21" height="54" viewBox="0 0 21 54">
  <g id="インフォメーションのアイコン" transform="translate(-157.189)">
    <path id="パス_54" data-name="パス 54" d="M191.887,15.37a7.685,7.685,0,1,0-7.72-7.685A7.7,7.7,0,0,0,191.887,15.37Z" transform="translate(-24.12)" fill="#00c8ac"/>
    <path id="パス_55" data-name="パス 55" d="M177.218,207.775H176.17a1.94,1.94,0,0,1-1.943-1.936v-26.2a1.017,1.017,0,0,0-1.492-.9l-13.249,7.339c-3.855,1.921-2.006,4.215-.57,4.157s5.71-.478,5.71-.478v16.079a1.94,1.94,0,0,1-1.943,1.936h-2.057a.97.97,0,0,0-.971.968v4.223a.97.97,0,0,0,.971.967h16.592a.97.97,0,0,0,.971-.967v-4.223A.97.97,0,0,0,177.218,207.775Z" transform="translate(0 -159.933)" fill="#00c8ac"/>
  </g>
</svg>
