<svg xmlns="http://www.w3.org/2000/svg" xmlns:xlink="http://www.w3.org/1999/xlink" width="1186.119" height="173.878" viewBox="0 0 1186.119 173.878">
  <defs>
    <filter id="パス_1556" x="98.512" y="0.271" width="80.955" height="99.626" filterUnits="userSpaceOnUse">
      <feOffset input="SourceAlpha"/>
      <feGaussianBlur stdDeviation="3" result="blur"/>
      <feFlood flood-opacity="0.553"/>
      <feComposite operator="in" in2="blur"/>
      <feComposite in="SourceGraphic"/>
    </filter>
    <filter id="パス_1557" x="176.565" y="5.049" width="99.336" height="90.132" filterUnits="userSpaceOnUse">
      <feOffset input="SourceAlpha"/>
      <feGaussianBlur stdDeviation="3" result="blur-2"/>
      <feFlood flood-opacity="0.553"/>
      <feComposite operator="in" in2="blur-2"/>
      <feComposite in="SourceGraphic"/>
    </filter>
    <filter id="パス_1558" x="368.169" y="8.063" width="87.61" height="83.75" filterUnits="userSpaceOnUse">
      <feOffset input="SourceAlpha"/>
      <feGaussianBlur stdDeviation="3" result="blur-3"/>
      <feFlood flood-opacity="0.553"/>
      <feComposite operator="in" in2="blur-3"/>
      <feComposite in="SourceGraphic"/>
    </filter>
    <filter id="パス_1559" x="461.106" y="1.139" width="66.174" height="97.401" filterUnits="userSpaceOnUse">
      <feOffset input="SourceAlpha"/>
      <feGaussianBlur stdDeviation="3" result="blur-4"/>
      <feFlood flood-opacity="0.553"/>
      <feComposite operator="in" in2="blur-4"/>
      <feComposite in="SourceGraphic"/>
    </filter>
    <filter id="パス_1560" x="527.95" y="52.064" width="53.582" height="51.422" filterUnits="userSpaceOnUse">
      <feOffset input="SourceAlpha"/>
      <feGaussianBlur stdDeviation="3" result="blur-5"/>
      <feFlood flood-opacity="0.553"/>
      <feComposite operator="in" in2="blur-5"/>
      <feComposite in="SourceGraphic"/>
    </filter>
    <filter id="パス_1564" x="800.981" y="5.049" width="99.336" height="90.132" filterUnits="userSpaceOnUse">
      <feOffset input="SourceAlpha"/>
      <feGaussianBlur stdDeviation="3" result="blur-6"/>
      <feFlood flood-opacity="0.553"/>
      <feComposite operator="in" in2="blur-6"/>
      <feComposite in="SourceGraphic"/>
    </filter>
    <filter id="パス_1565" x="987.262" y="8.063" width="87.61" height="83.75" filterUnits="userSpaceOnUse">
      <feOffset input="SourceAlpha"/>
      <feGaussianBlur stdDeviation="3" result="blur-7"/>
      <feFlood flood-opacity="0.553"/>
      <feComposite operator="in" in2="blur-7"/>
      <feComposite in="SourceGraphic"/>
    </filter>
    <filter id="パス_1566" x="1070.264" y="1.139" width="66.175" height="97.401" filterUnits="userSpaceOnUse">
      <feOffset input="SourceAlpha"/>
      <feGaussianBlur stdDeviation="3" result="blur-8"/>
      <feFlood flood-opacity="0.553"/>
      <feComposite operator="in" in2="blur-8"/>
      <feComposite in="SourceGraphic"/>
    </filter>
    <filter id="パス_1567" x="1132.537" y="52.064" width="53.583" height="51.422" filterUnits="userSpaceOnUse">
      <feOffset input="SourceAlpha"/>
      <feGaussianBlur stdDeviation="3" result="blur-9"/>
      <feFlood flood-opacity="0.553"/>
      <feComposite operator="in" in2="blur-9"/>
      <feComposite in="SourceGraphic"/>
    </filter>
    <filter id="パス_1568" x="0" y="0.614" width="98.31" height="99.218" filterUnits="userSpaceOnUse">
      <feOffset input="SourceAlpha"/>
      <feGaussianBlur stdDeviation="3" result="blur-10"/>
      <feFlood flood-opacity="0.553"/>
      <feComposite operator="in" in2="blur-10"/>
      <feComposite in="SourceGraphic"/>
    </filter>
    <filter id="パス_1569" x="272.446" y="0" width="99.492" height="100.043" filterUnits="userSpaceOnUse">
      <feOffset input="SourceAlpha"/>
      <feGaussianBlur stdDeviation="3" result="blur-11"/>
      <feFlood flood-opacity="0.553"/>
      <feComposite operator="in" in2="blur-11"/>
      <feComposite in="SourceGraphic"/>
    </filter>
    <filter id="パス_1570" x="897.031" y="0" width="99.492" height="100.043" filterUnits="userSpaceOnUse">
      <feOffset input="SourceAlpha"/>
      <feGaussianBlur stdDeviation="3" result="blur-12"/>
      <feFlood flood-opacity="0.553"/>
      <feComposite operator="in" in2="blur-12"/>
      <feComposite in="SourceGraphic"/>
    </filter>
    <filter id="パス_1561" x="598.54" y="8.388" width="55.482" height="83.392" filterUnits="userSpaceOnUse">
      <feOffset input="SourceAlpha"/>
      <feGaussianBlur stdDeviation="3" result="blur-13"/>
      <feFlood flood-opacity="0.553"/>
      <feComposite operator="in" in2="blur-13"/>
      <feComposite in="SourceGraphic"/>
    </filter>
    <filter id="パス_1562" x="659.341" y="7.004" width="74.828" height="85.386" filterUnits="userSpaceOnUse">
      <feOffset input="SourceAlpha"/>
      <feGaussianBlur stdDeviation="3" result="blur-14"/>
      <feFlood flood-opacity="0.553"/>
      <feComposite operator="in" in2="blur-14"/>
      <feComposite in="SourceGraphic"/>
    </filter>
    <filter id="パス_1563" x="734.092" y="7.286" width="69.441" height="85.97" filterUnits="userSpaceOnUse">
      <feOffset input="SourceAlpha"/>
      <feGaussianBlur stdDeviation="3" result="blur-15"/>
      <feFlood flood-opacity="0.553"/>
      <feComposite operator="in" in2="blur-15"/>
      <feComposite in="SourceGraphic"/>
    </filter>
    <filter id="パス_1571" x="596.849" y="86.981" width="209.825" height="25.468" filterUnits="userSpaceOnUse">
      <feOffset input="SourceAlpha"/>
      <feGaussianBlur stdDeviation="3" result="blur-16"/>
      <feFlood flood-opacity="0.553"/>
      <feComposite operator="in" in2="blur-16"/>
      <feComposite in="SourceGraphic"/>
    </filter>
    <clipPath id="clip-path">
      <rect id="長方形_1999" data-name="長方形 1999" width="758.183" height="39.424" fill="#fff"/>
    </clipPath>
  </defs>
  <g id="グループ_3969" data-name="グループ 3969" transform="translate(-240 -307.025)">
    <g id="グループ_2521" data-name="グループ 2521" transform="translate(249 316.025)">
      <g transform="matrix(1, 0, 0, 1, -9, -9)" filter="url(#パス_1556)">
        <path id="パス_1556-2" data-name="パス 1556" d="M122.582,23.667c-1.829,0-1.829.866-3.657,1.058-1.925.1-2.889-2.213-4.042-.769-1.733,2.31-1.157,3.08-.867,5.967.1.577,1.059-.289,1.636-.289a6.025,6.025,0,0,1,4.14,1.444,6.539,6.539,0,0,1,2.021,4.14c0,1.443-1.636,2.5-2.6,3.464a4.52,4.52,0,0,1-3.563,1.253c-1.732,0-1.732.577-3.464.577s-1.733-.384-3.465-.384-1.733.962-3.37.962c-1.732,0-2.118-1.636-3.465-.578A1.878,1.878,0,0,0,101.5,43.5c1.347,0,2.021-1.251,3.755-1.251,1.636,0,1.636.192,3.368.192,1.636,0,1.636-.288,3.274-.288a4.349,4.349,0,0,1,3.176.962,4.342,4.342,0,0,1,.962,3.176,4.3,4.3,0,0,1-1.059,3.08,4.434,4.434,0,0,1-3.079,1.444c-1.638,0-1.638-.963-3.37-.963-1.636,0-1.636.193-3.272.193-1.733,0-1.925-.385-3.274.674-1.058.962-1.347,1.924-.1,2.7,1.733,1.155,2.119.577,4.14.577,2.117,0,2.117-.673,4.234-.673h4.14c2.119,0,2.119.481,4.14.481a5.318,5.318,0,0,1,3.755,1.732,5.5,5.5,0,0,1,1.924,3.659c0,1.54-1.347,2.406-2.31,3.368s-1.828,2.31-3.368,2.31c-.962,0-1.059-.769-1.925-.289a30.221,30.221,0,0,0,2.5,2.408,31,31,0,0,0,2.6,2.213,6.763,6.763,0,0,1,2.31,3.85c.1,1.347-.867,2.791-1.829,3.946a5.019,5.019,0,0,1-4.042,2.118c-1.155,0-2.793.1-3.755-.674-1.251-.962-1.925-2.406-2.791-3.368a19.947,19.947,0,0,1-2.6-3.37,42.782,42.782,0,0,1-2.983-3.176,29.5,29.5,0,0,1-1.638-4.044c-1.155-.384-1.925-1.059-2.6,0-1.058,1.732-.479,2.117-.479,4.14s.384,2.021.384,4.042.674,2.023.674,4.044a6.1,6.1,0,0,1-1.828,4.042c-.963.963-2.5,1.058-4.044,1.058a4.54,4.54,0,0,1-3.368-1.636,4.289,4.289,0,0,1-1.638-3.464c0-2.021-.866-2.021-.866-4.044s.192-2.021.192-4.042,1.059-2.117,0-3.755c-.769-1.154-.962-.481-2.213-.193a19.177,19.177,0,0,1-1.251,3.274c-.482.866-1.542,1.636-2.31,2.7a30.841,30.841,0,0,1-2.5,2.5c-.77.864-.866,2.406-1.829,3.176a31.4,31.4,0,0,1-2.983,1.924,4.8,4.8,0,0,1-2.984.77,4.812,4.812,0,0,1-5.006-5.967,5.244,5.244,0,0,1,1.925-3.465,14.932,14.932,0,0,0,2.31-2.6c.77-.866,1.251-1.636,1.925-2.5,0-.192.289.385.1.385-1.443,0-2.5-1.251-3.465-2.214A4.677,4.677,0,0,1,70.8,59.187a4.951,4.951,0,0,1,5.2-5.2c1.925,0,1.925-.481,3.85-.481,1.829,0,1.829.289,3.755.289s1.925.77,3.755.77c1.924,0,2.309.481,3.849-.676,1.155-.864.963-1.73-.289-2.5-1.924-1.157-2.021-.481-4.427-.481-2.31,0-2.31-.578-4.621-.578a3.144,3.144,0,0,1-2.6-.963c-.77-.77-1.54-1.443-1.54-2.6,0-1.251-.1-2.7.673-3.467a5.861,5.861,0,0,1,3.465-1.636c2.31,0,2.31,1.348,4.621,1.348,2.406,0,2.7.577,4.716-.481a1.559,1.559,0,0,0,.1-2.791c-1.925-1.155-2.31.769-4.621.769-2.214,0-2.214-1.251-4.427-1.251s-2.214.867-4.429.867a6.385,6.385,0,0,1-4.235-1.348c-.963-.962-1.155-2.7-1.155-4.14a5.187,5.187,0,0,1,1.829-3.657,4.588,4.588,0,0,1,3.561-1.155c.674,0,1.251.1,1.348-.578.385-2.791,1.154-3.368-.674-5.485-1.54-1.733-2.021.385-4.331.385-2.214,0-2.214-1.155-4.525-1.155-1.444,0-3.08.192-4.042-.77s-.867-2.6-.867-4.044a4.661,4.661,0,0,1,1.54-3.465c.963-.963,1.925-1.925,3.37-1.925,1.829,0,2.887,1.732,3.946.193,1.059-1.638-.192-2.214-.674-4.14-.385-1.155-1.251-2.31-.674-3.274a5.5,5.5,0,0,1,2.793-2.5,5.275,5.275,0,0,1,3.561.77,4.572,4.572,0,0,1,2.117,2.7c.482,1.636.482,1.54.963,3.08s-1.059,2.6.192,3.657c1.155.866,2.023.481,2.889-.673,1.155-1.446.1-1.638.1-3.467,0-1.924.674-1.924.674-3.752a4.508,4.508,0,0,1,1.54-3.467A4.543,4.543,0,0,1,90.433.276c1.539,0,3.175,0,4.138.963s.963,2.6.963,4.14c0,1.828.577,1.828.577,3.752,0,1.829-1.155,2.021,0,3.467.962,1.154,1.829,1.539,2.791.385,1.155-1.348-.385-1.925-.385-3.755,0-1.733-.288-1.733-.288-3.561,0-1.444,1.154-2.791,2.117-3.755A5.5,5.5,0,0,1,104.1.179c1.54,0,2.406,1.155,3.368,2.119a4.292,4.292,0,0,1,1.348,3.37c0,1.828.577,1.828.577,3.561,0,1.829-.962,2.214.1,3.561.769,1.155,1.154.289,2.213-.577,1.348-.963,1.059-.963,1.636-2.5A32.669,32.669,0,0,1,114.4,6.437a4.1,4.1,0,0,1,2.5-2.214,4.176,4.176,0,0,1,3.368-.481,4.577,4.577,0,0,1,2.408,2.6,4.132,4.132,0,0,1-.289,3.176c-.674,1.636-1.444,1.636-1.444,3.37,0,.578,1.059-.673,1.636-.673,1.54,0,2.793,1.251,3.755,2.214a4.785,4.785,0,0,1,1.347,3.753c0,1.444-.1,2.984-1.059,3.946s-2.5.962-4.042.962Zm-18.385.578c-1.54-1.059-1.733-.385-3.657-.385-1.829,0-1.829.673-3.659.673s-1.829-.962-3.753-.962c-1.829,0-3.178-1.347-4.044.289-1.444,2.5-.289,3.176,1.348,5.582.962,1.443,1.154,1.058,2.887,1.058s1.732-1.058,3.465-1.058,1.732.288,3.465.288,2.406,1.54,3.465.1c1.636-2.406,2.887-3.85.481-5.582" transform="translate(42.78 9.09)" fill="#fff"/>
      </g>
      <g transform="matrix(1, 0, 0, 1, -9, -9)" filter="url(#パス_1557)">
        <path id="パス_1557-2" data-name="パス 1557" d="M163.778,43.2a39.953,39.953,0,0,1,.1,4.815c-.1,1.251-.674,2.5-.867,3.753s.482,2.6.289,3.85-.1,2.6-.289,3.85-1.636,2.31-1.925,3.561c-.192,1.251-.673,2.406-.962,3.657s0,2.6-.385,3.85c-.289,1.253-1.347,1.638-2.214,2.406-.962.674-1.636,2.118-2.791,2.118-.481,0-.866-.673-1.347-.866a5.577,5.577,0,0,1-3.659-2.021,5.817,5.817,0,0,1-.192-4.237c.288-1.251.77-2.309,1.059-3.464s.288-2.406.481-3.563c.289-1.155.1-2.406.289-3.561s.192-2.406.384-3.561c.1-1.155.77-2.31.867-3.561a31.325,31.325,0,0,0,.77-3.465c.192-1.251-.482-2.5-.482-3.563,0-1.154,1.251-2.406,1.059-3.366-.192-1.348-1.54-2.119-1.925-2.7a2.9,2.9,0,0,0-2.5-1.733c-.866-.094-2.214.1-3.85,0-1.251-.094-2.6-.575-3.946-.575h-.482c-.289,1.154-.769,2.309-1.154,3.56-.289,1.155.385,2.6.1,3.755-.289,1.251-1.155,2.214-1.444,3.467-.289,1.154-.77,2.309-.962,3.56-.289,1.155-.289,2.406-.578,3.659-.289,1.154-1.348,2.214-1.636,3.37-.193,1.251.577,2.694.385,3.849-.289,1.251-.193,2.5-.385,3.659-.289,1.249-1.636,2.213-1.829,3.464-.192,1.155-.289,2.408-.578,3.561a4.434,4.434,0,0,1-1.636,3.082,5.339,5.339,0,0,1-3.272,1.636c-.289,0-.481-.77-.77-.866-1.444-.192-2.791-.482-3.561-1.54-.866-1.155-.674-2.5-.385-3.948.192-1.251.674-2.5.866-3.753s.192-2.5.385-3.85c.289-1.251-.577-2.7-.385-3.946.289-1.251,1.54-2.31,1.733-3.563.288-1.251.288-2.6.577-3.849s.1-2.6.385-3.85,1.732-2.214,2.021-3.465-.192-2.7.1-3.946c.288-1.155.769-2.5,1.058-3.755-1.444.1-2.887-.1-4.235,0-1.539.1-2.887,1.059-4.042,1.155v-.385c-1.54.1-3.272.1-4.331-.77s-1.444-2.6-1.636-4.042.866-2.5,1.732-3.561,1.636-2.406,3.08-2.6c1.155-.1,2.6.385,4.138.288,1.253-.094,2.7-.385,4.14-.481,1.251,0,2.984.1,4.331.1.385-1.154,0-2.887.385-4.042s.674-2.309,1.059-3.465.962-2.213,1.347-3.368,1.253-2.119,1.638-3.272,1.058-2.216,1.443-3.37l-1.058-.385c.481-1.348,2.117-1.733,3.272-2.406,1.253-.578,2.6-1.542,3.946-1.061a6.058,6.058,0,0,1,3.561,2.7c.674,1.155.385,2.983-.1,4.427-.385,1.155-1.155,2.119-1.54,3.272s-.577,2.31-.962,3.465-.481,2.408-.77,3.563c-.385,1.154-1.348,2.5-1.733,3.657,1.253,0,2.791-.673,3.948-.578s2.213,1.251,3.272,1.444a14.225,14.225,0,0,1,4.042.674,13.65,13.65,0,0,1,3.659,2.021,10.885,10.885,0,0,1,2.6,3.272,16.627,16.627,0,0,1,1.347,3.85c.385,1.253,1.347,2.5,1.54,3.852s-.578,2.791-.578,4.137m17.038,6.643a4.111,4.111,0,0,1-2.6,2.6c-.578.192-1.059,1.251-1.638,1.251-1.154,0-2.021-1.059-2.887-1.636a4.577,4.577,0,0,1-1.925-2.31c-.481-1.251-.481-2.6-.866-3.85-.482-1.155-1.155-2.31-1.54-3.561-.481-1.157-1.253-2.31-1.638-3.465-.481-1.251-.962-2.406-1.347-3.659-.481-1.251-1.059-2.406-1.444-3.56-.481-1.253-.673-2.5-1.058-3.755s-1.542-2.214-1.925-3.467-.674-2.5-1.059-3.753,0-2.7-.289-3.946l-.577.192a5.386,5.386,0,0,1,.673-4.234c.674-1.253,2.023-1.733,3.465-2.214,1.348-.385,2.408.193,3.561.866,1.253.673,2.312,1.155,2.7,2.6.385,1.251.867,2.406,1.155,3.657.385,1.155,1.253,2.213,1.636,3.37.289,1.251-.1,2.7.289,3.849.385,1.253,1.733,2.119,2.118,3.274.385,1.251-.192,2.791.192,3.948.385,1.251,1.253,2.213,1.733,3.464.385,1.155,1.636,2.021,2.021,3.272.481,1.155.1,2.6.578,3.755.385,1.155,1.251,2.214,1.732,3.37.481,1.443-.578,2.694-1.059,3.946M186.4,30.017a4.128,4.128,0,0,1-2.021,2.214c-.577.192-1.058.866-1.539.866-1.733,0-2.6-1.636-3.274-3.274-.481-1.058-2.021-1.829-2.5-3.175-.385-1.253-.289-2.7-.674-3.755-.674-2.021-1.155-3.659-1.155-3.659h.1a3.529,3.529,0,0,1,.77-2.887c.481-.963.674-2.312,1.829-2.6a4.756,4.756,0,0,1,3.465.288,4.512,4.512,0,0,1,1.829,2.793,7.454,7.454,0,0,1,1.828,3.08c.385,1.059.481,2.31.867,3.465.479,1.347,1.058,2.406,1.443,3.274.385,1.154-.578,2.309-.963,3.368m10.589-3.08c-.385,1.058-1.54,1.348-2.6,1.733-.481.192-.866,1.251-1.347,1.251a5.291,5.291,0,0,1-4.525-2.889c-.385-.962.289-2.6-.1-3.85s-1.733-2.117-2.119-3.176a14.793,14.793,0,0,1-.577-3.657,4.009,4.009,0,0,1,.289-3.176,3.916,3.916,0,0,1,5.582-1.733c.962.577,2.31,1.155,2.7,2.31a8.077,8.077,0,0,0,.288,3.465c.289,1.059,1.253,2.021,1.638,3.08.385,1.251.481,2.5.77,3.37a3.889,3.889,0,0,1,0,3.272" transform="translate(69.55 10.73)" fill="#fff"/>
      </g>
      <g transform="matrix(1, 0, 0, 1, -9, -9)" filter="url(#パス_1558)">
        <path id="パス_1558-2" data-name="パス 1558" d="M310.653,44.1c-.1,1.251-.577,2.406-.674,3.561-.192,1.251.866,2.7.482,3.85-.289,1.251-1.638,2.119-2.119,3.274-.481,1.058-.1,2.694-.673,3.753-.674,1.059-2.023,1.638-2.793,2.6a23.037,23.037,0,0,1-2.6,2.7,21.793,21.793,0,0,1-2.985,2.213,15.871,15.871,0,0,1-3.465,1.542c-1.155.479-2.6,0-3.755.288-1.251.289-2.214,1.636-3.561,1.733-.1,0-.385-.193-.577-.193a5.827,5.827,0,0,1-3.659-1.636,6.675,6.675,0,0,1-2.021-3.465,6.55,6.55,0,0,1,1.155-4.331,6.527,6.527,0,0,1,4.042-2.023,15.133,15.133,0,0,0,3.274-.673c1.251-.385,2.406-.385,3.272-.963a10.644,10.644,0,0,0,2.793-2.117,12.559,12.559,0,0,0,1.828-3.176c.385-1.061,1.347-2.119,1.636-3.37a22.1,22.1,0,0,0,.481-3.755v-.481c0-1.347-.962-2.6-1.347-3.85a12.27,12.27,0,0,0-1.925-3.465,12.163,12.163,0,0,0-2.31-3.176c-.962-.866-1.828-2.119-3.08-2.694a20.046,20.046,0,0,0-3.368-.482,12.3,12.3,0,0,0-3.274-.1c-1.347,0-2.6.77-4.042,1.154-1.251.289-2.984-.1-4.331.578a21.346,21.346,0,0,0-3.755,2.119,26.229,26.229,0,0,0-4.042,4.042c-.482,1.925.385,2.119.385,4.14-.1,2.021-.674,2.021-.674,4.042-.1,2.021-.1,2.021-.1,4.042-.1,2.023,0,2.023,0,4.044-.1,2.021.77,2.021.673,4.042,0,2.021.385,2.119.289,4.14,0,2.021-.866,1.924-.962,3.946,0,1.444-.289,3.08-1.251,3.946a5.515,5.515,0,0,1-3.948,1.155l-.1-.481c-1.54,0-2.985.1-3.946-.867a5.584,5.584,0,0,1-1.54-4.042c0-2.118.1-2.118.192-4.234.1-2.214-.1-2.214-.1-4.333a15.015,15.015,0,0,0-.192-4.14c-.674.963-.867,1.54-1.348,2.312-1.155,2.021-1.732,3.272-1.732,3.272a4.61,4.61,0,0,1-3.178,2.021,4.173,4.173,0,0,1-3.657-.577c-1.251-.674-2.984-1.253-3.37-2.5-.288-1.348.867-2.694,1.636-3.946a12.236,12.236,0,0,1,1.829-4.042c.674-1.059.866-2.7,1.829-4.14.77-1.155,2.214-1.925,3.08-3.272.674-.963.77-2.214,1.443-3.178s1.542-1.732,2.216-2.7c.769-.962,1.058-1.829,1.732-2.694.289-1.157,1.925-2.023.963-2.5-1.638-.866-1.927,1.155-3.755,1.253-1.829.192-1.925-.963-3.755-.867-1.732.192-1.732.77-3.465.962-.192,0-.385.482-.577.482a6.455,6.455,0,0,1-4.044-1.155,7.017,7.017,0,0,1-1.925-3.85c-.192-1.444,1.444-2.5,2.31-3.561a4.4,4.4,0,0,1,3.176-1.733c2.021-.192,1.925-1.155,3.948-1.347s2.117.481,4.138.289,2.889.962,4.427-.385c1.157-1.155-.288-2.119-.288-3.755s-.578-1.733-.578-3.37c.1-1.636,1.059-1.636,1.059-3.272a4.846,4.846,0,0,1,1.444-3.561,5,5,0,0,1,3.657-1.829,6.038,6.038,0,0,1,4.044,1.539,6.565,6.565,0,0,1,1.155,4.14c0,2.021.384,2.021.384,4.14-.1,2.119.193,2.119.1,4.14,0,2.117-.77,2.021-.1,3.946,1.157-.674,2.023-.481,3.178-.962,1.251-.578,2.31-1.446,3.561-1.925a30.173,30.173,0,0,1,3.946-.578,28.709,28.709,0,0,1,3.946-.77,21.4,21.4,0,0,1,3.563.77,22.491,22.491,0,0,1,3.464.77c1.155.288,2.6-.385,3.755.1,1.251.578,1.829,2.214,2.985,2.889,1.154.77,2.5,1.058,3.561,2.021a19.877,19.877,0,0,1,2.887,2.791c.866,1.059.866,2.6,1.54,3.755s2.31,1.924,2.791,3.176c.387,1.347-.385,2.887-.192,4.235s1.732,2.6,1.732,3.946c0,.193-.866.385-.866.674" transform="translate(135.26 11.76)" fill="#fff"/>
      </g>
      <g transform="matrix(1, 0, 0, 1, -9, -9)" filter="url(#パス_1559)">
        <path id="パス_1559-2" data-name="パス 1559" d="M351.118,57.347c-.193,1.348-1.733,2.5-2.214,3.755-.385,1.444.192,3.176-.385,4.427a31.552,31.552,0,0,1-2.406,3.465,32.106,32.106,0,0,1-2.7,3.37c-.868.867-2.406.867-3.37,1.636a20.191,20.191,0,0,1-2.888,2.119c-1.058.577-1.924,1.732-3.079,2.213-1.059.385-2.408.193-3.659.482a23.313,23.313,0,0,1-3.465.962c-1.251.192-2.5-.289-3.657-.289-.1,0-.1.193-.1.193-.385,0-.674.385-.963.385a23.276,23.276,0,0,1-3.657,0c-1.251-.193-2.119-1.636-3.274-1.925-1.154-.385-2.5-.193-3.561-.674a23.739,23.739,0,0,1-3.08-1.828,20.277,20.277,0,0,1-2.6-2.312c-.77-.866-.963-2.117-1.54-3.079-.481-1.061-.193-2.214-.481-3.37a11.665,11.665,0,0,1-.674-3.176c.1-.674-.482-1.444-.385-2.214a20.6,20.6,0,0,1,1.251-3.08,13.978,13.978,0,0,1,1.636-2.887,13.686,13.686,0,0,1,1.925-2.7c.866-.769,1.155-2.309,2.119-2.887,1.154-.77,2.791-.866,4.042-1.347A27.592,27.592,0,0,1,318,47.817c1.348,0,2.7-.288,4.044-.288.385,0,.77.481,1.155.481,1.251.1,2.7-1.058,3.946-.77,1.251.192,2.213,1.54,3.37,1.925A18.82,18.82,0,0,1,333.887,51a22.02,22.02,0,0,1,3.37,1.733,30.866,30.866,0,0,1,2.791,2.213c0-.673-.481-.963-.481-1.733,0-1.345.866-2.694.481-3.753-.385-1.251-1.732-1.829-2.6-2.791a12.365,12.365,0,0,0-2.406-2.7,14.551,14.551,0,0,0-3.272-1.348,25.869,25.869,0,0,0-3.272-1.154c-1.059-.289-2.118-1.155-3.274-1.446-1.155-.192-2.31-.577-3.465-.77-1.155-.094-2.406.291-3.659.193-1.924-.1-3.079-1.539-3.945-3.272a4.4,4.4,0,0,1,.385-4.718c1.154-1.636.864-1.828,1.924-3.366,1.157-1.638.482-2.024,1.636-3.66,1.059-1.539,1.733-1.155,2.793-2.694,1.155-1.54.577-1.925,1.732-3.467a37.488,37.488,0,0,1,2.214-3.176c1.059-1.636,2.887-.96,2.117-2.694-.866-1.733-1.443-.289-3.272-.289-1.925,0-1.925-.1-3.755,0-1.829,0-1.829.481-3.657.577-1.925,0-1.925-.962-3.755-.962s-1.829,1.059-3.657,1.059c-1.54,0-2.7-1.155-3.659-2.119s-2.117-2.117-2.117-3.561a6.277,6.277,0,0,1,1.444-4.235c.962-.963,2.7-.866,4.235-.866,1.732-.1,1.732,0,3.561,0s1.829.193,3.657.1c1.829,0,1.829-.193,3.659-.193,1.732,0,1.732-1.058,3.561-1.154,1.829,0,1.829.385,3.657.385,1.733-.1,1.733.481,3.561.481,0,0,1.829.1,3.659.1,1.732,0,1.732-.674,3.561-.769a6.643,6.643,0,0,1,3.08.769,6.941,6.941,0,0,1,2.213,2.214c.482.866.1,2.117.1,3.08-.1.963.1,2.213-.482,3.079-1.251,1.733-1.732,1.348-2.887,2.984-1.155,1.733-1.444,1.54-2.6,3.274-1.154,1.636-1.058,1.732-2.213,3.465-1.251,1.636-.866,1.925-2.021,3.561-1.157,1.733-1.253,1.636-2.408,3.37-1.155,1.636-2.6,1.058-3.272,2.984,1.251.288,3.176.385,4.331.673,1.155.385,1.925,1.733,2.984,2.214a22.735,22.735,0,0,1,3.368,1.058,31.135,31.135,0,0,1,3.08,1.638,14.927,14.927,0,0,1,3.08,1.924c.866.77,1.251,2.021,1.925,2.984A19.427,19.427,0,0,1,348.036,43a19.835,19.835,0,0,1,1.638,3.176,18.165,18.165,0,0,1,.962,3.467,21.872,21.872,0,0,1,0,3.56c0,1.446.674,2.889.482,4.333Zm-19.733,5.776a8.917,8.917,0,0,0-2.119-2.791,10.056,10.056,0,0,0-3.272-1.155c-1.059-.288-2.021-1.539-3.37-1.732-.1,0-.288.481-.577.481v.1a17.139,17.139,0,0,0-3.176.192,11.476,11.476,0,0,0-2.889,1.348c-1.443.963-1.347,2.213-1.636,3.755,0,.192-.1.288-.1.577,0,1.348-.482,2.793.77,3.85a11.238,11.238,0,0,0,3.561,1.54c1.059.289,2.406-.385,3.85-.385.289,0,.481.288.77.288a25.063,25.063,0,0,0,3.753.193c1.348-.193,2.31-1.251,3.37-1.732A11.637,11.637,0,0,0,333.6,66.01s.577-.192.577-.288c-.577-1.251-2.119-1.733-2.791-2.6" transform="translate(167.13 9.39)" fill="#fff"/>
      </g>
      <g transform="matrix(1, 0, 0, 1, -9, -9)" filter="url(#パス_1560)">
        <path id="パス_1560-2" data-name="パス 1560" d="M381.74,55.67c-.481,1.443-.192,3.176-1.058,4.331a12.522,12.522,0,0,1-3.37,2.983c-.866.77-2.117.867-3.08,1.348a19.01,19.01,0,0,1-2.984,1.828c-1.058.291-2.021,1.348-3.175,1.446-1.157.192-2.408-.77-3.563-.77-1.444,0-2.983.866-4.331.577-1.347-.385-2.5-1.444-3.85-2.119a27.679,27.679,0,0,1-3.657-2.117,15.019,15.019,0,0,1-2.214-2.7,11.208,11.208,0,0,1-1.636-2.984,12.806,12.806,0,0,1-1.251-3.176,13.8,13.8,0,0,1-.674-3.464,13.3,13.3,0,0,1,.866-3.37c.289-1.155,0-2.5.578-3.465a16.388,16.388,0,0,1,1.636-3.176,14.878,14.878,0,0,1,2.7-2.31,17.6,17.6,0,0,1,3.657-2.5,17.1,17.1,0,0,1,4.14-1.732c1.444-.385,3.08.577,4.525.577a23,23,0,0,1,3.657.1,19.564,19.564,0,0,1,3.561.676c1.251.479,2.021,1.539,2.984,2.213a12.36,12.36,0,0,1,2.887,2.117,13.241,13.241,0,0,1,2.214,3.467c.674,1.345,1.636,2.406,2.021,3.752a20.766,20.766,0,0,1,.1,4.237,15.591,15.591,0,0,1-.674,4.235m-10.78-8.952c-.578-.578-1.829-.193-3.08-.578-.866-.288-1.636-1.348-2.887-1.348a8.56,8.56,0,0,0-5.488,1.831,5.646,5.646,0,0,0-2.5,4.235c0,1.73,1.829,2.5,3.08,3.561,1.155,1.058,2.791,2.213,4.427,2.213,1.251,0,2.5.387,3.37.193a8.857,8.857,0,0,0,3.176-1.638,4.786,4.786,0,0,0,1.349-3.753,6.761,6.761,0,0,0-1.444-4.716" transform="translate(190.05 26.85)" fill="#fff"/>
      </g>
      <g transform="matrix(1, 0, 0, 1, -9, -9)" filter="url(#パス_1564)">
        <path id="パス_1564-2" data-name="パス 1564" d="M574.064,43.2a39.652,39.652,0,0,1,.094,4.815c-.094,1.251-.673,2.5-.864,3.753s.479,2.6.288,3.85-.1,2.6-.288,3.85-1.636,2.31-1.927,3.561c-.192,1.251-.673,2.406-.962,3.657s0,2.6-.385,3.85c-.289,1.253-1.347,1.638-2.214,2.406-.962.674-1.636,2.118-2.791,2.118-.481,0-.866-.673-1.347-.866a5.573,5.573,0,0,1-3.659-2.021,5.817,5.817,0,0,1-.193-4.237c.289-1.251.77-2.309,1.061-3.464s.288-2.406.479-3.563c.291-1.155.1-2.406.291-3.561s.19-2.406.384-3.561c.1-1.155.77-2.31.868-3.561a31.338,31.338,0,0,0,.77-3.465c.193-1.251-.483-2.5-.483-3.563,0-1.154,1.251-2.406,1.061-3.366-.193-1.348-1.542-2.119-1.927-2.7a2.9,2.9,0,0,0-2.5-1.733c-.866-.094-2.213.1-3.85,0-1.25-.094-2.6-.575-3.946-.575h-.481c-.289,1.154-.77,2.309-1.155,3.56-.288,1.155.385,2.6.1,3.755-.289,1.251-1.155,2.214-1.446,3.467-.288,1.154-.769,2.309-.96,3.56-.291,1.155-.291,2.406-.578,3.659-.289,1.154-1.348,2.214-1.638,3.37-.192,1.251.578,2.694.385,3.849-.288,1.251-.192,2.5-.385,3.659-.288,1.249-1.636,2.213-1.828,3.464-.193,1.155-.289,2.408-.578,3.561a4.44,4.44,0,0,1-1.636,3.082c-.963.77-1.924,1.636-3.272,1.636-.289,0-.483-.77-.77-.866-1.444-.192-2.791-.482-3.563-1.54-.864-1.155-.673-2.5-.385-3.948.193-1.251.676-2.5.867-3.753s.192-2.5.383-3.85c.291-1.251-.575-2.7-.383-3.946.289-1.251,1.54-2.31,1.732-3.563.289-1.251.289-2.6.578-3.849s.1-2.6.385-3.85,1.733-2.214,2.021-3.465-.193-2.7.1-3.946c.288-1.155.768-2.5,1.058-3.755-1.443.1-2.889-.1-4.236,0-1.54.1-2.889,1.059-4.044,1.155v-.385c-1.539.1-3.272.1-4.33-.77s-1.444-2.6-1.636-4.042.866-2.5,1.73-3.561,1.636-2.406,3.082-2.6c1.154-.1,2.6.385,4.138.288,1.253-.094,2.7-.385,4.14-.481,1.251,0,2.984.1,4.331.1.385-1.154,0-2.887.385-4.042s.674-2.309,1.059-3.465.962-2.213,1.347-3.368,1.251-2.119,1.636-3.272,1.059-2.216,1.444-3.37l-1.058-.385c.479-1.348,2.117-1.733,3.272-2.406,1.253-.578,2.6-1.542,3.946-1.061a6.064,6.064,0,0,1,3.561,2.7c.674,1.155.385,2.983-.1,4.427-.385,1.155-1.155,2.119-1.54,3.272s-.577,2.31-.962,3.465-.481,2.408-.772,3.563c-.385,1.154-1.347,2.5-1.732,3.657,1.253,0,2.791-.673,3.946-.578s2.214,1.251,3.274,1.444a14.236,14.236,0,0,1,4.044.674,13.685,13.685,0,0,1,3.657,2.021,10.855,10.855,0,0,1,2.6,3.272,16.556,16.556,0,0,1,1.348,3.85c.385,1.253,1.348,2.5,1.54,3.852s-.577,2.791-.577,4.137M591.1,49.846a4.112,4.112,0,0,1-2.6,2.6c-.578.192-1.059,1.251-1.638,1.251-1.155,0-2.021-1.059-2.887-1.636a4.577,4.577,0,0,1-1.925-2.31c-.482-1.251-.482-2.6-.867-3.85-.479-1.155-1.154-2.31-1.539-3.561-.483-1.157-1.253-2.31-1.638-3.465-.481-1.251-.962-2.406-1.347-3.659-.481-1.251-1.059-2.406-1.444-3.56-.481-1.253-.674-2.5-1.059-3.755s-1.54-2.214-1.924-3.467-.674-2.5-1.059-3.753,0-2.7-.289-3.946l-.577.192a5.385,5.385,0,0,1,.673-4.234c.676-1.253,2.021-1.733,3.467-2.214,1.345-.385,2.406.193,3.56.866,1.253.673,2.31,1.155,2.7,2.6.385,1.251.864,2.406,1.155,3.657.385,1.155,1.251,2.213,1.636,3.37.288,1.251-.1,2.7.288,3.849.385,1.253,1.733,2.119,2.118,3.274.385,1.251-.193,2.791.192,3.948.385,1.251,1.251,2.213,1.733,3.464.385,1.155,1.636,2.021,2.021,3.272.481,1.155.1,2.6.578,3.755.385,1.155,1.251,2.214,1.732,3.37.481,1.443-.578,2.694-1.059,3.946m5.584-19.829a4.139,4.139,0,0,1-2.021,2.214c-.578.192-1.059.866-1.542.866-1.734,0-2.6-1.636-3.272-3.274-.482-1.058-2.021-1.829-2.5-3.175-.385-1.253-.288-2.7-.672-3.755-.674-2.021-1.155-3.659-1.155-3.659h.1a3.518,3.518,0,0,1,.769-2.887c.481-.963.674-2.312,1.829-2.6a4.756,4.756,0,0,1,3.465.288,4.51,4.51,0,0,1,1.828,2.793,7.465,7.465,0,0,1,1.829,3.08c.385,1.059.483,2.31.867,3.465.481,1.347,1.058,2.406,1.443,3.274.385,1.154-.577,2.309-.962,3.368m10.588-3.08c-.385,1.058-1.54,1.348-2.6,1.733-.481.192-.866,1.251-1.348,1.251a5.292,5.292,0,0,1-4.523-2.889c-.385-.962.289-2.6-.1-3.85s-1.734-2.117-2.119-3.176a14.8,14.8,0,0,1-.577-3.657,4.015,4.015,0,0,1,.289-3.176,3.916,3.916,0,0,1,5.582-1.733c.963.577,2.31,1.155,2.7,2.31a8.063,8.063,0,0,0,.289,3.465c.288,1.059,1.251,2.021,1.636,3.08.385,1.251.483,2.5.77,3.37a3.89,3.89,0,0,1,0,3.272" transform="translate(283.68 10.73)" fill="#fff"/>
      </g>
      <g transform="matrix(1, 0, 0, 1, -9, -9)" filter="url(#パス_1565)">
        <path id="パス_1565-2" data-name="パス 1565" d="M717.439,44.1c-.1,1.251-.578,2.406-.673,3.561-.193,1.251.866,2.7.481,3.85-.289,1.251-1.636,2.119-2.119,3.274-.481,1.058-.1,2.694-.674,3.753-.673,1.059-2.021,1.638-2.791,2.6a22.933,22.933,0,0,1-2.6,2.7,21.7,21.7,0,0,1-2.983,2.213,15.875,15.875,0,0,1-3.465,1.542c-1.155.479-2.6,0-3.755.288-1.251.289-2.213,1.636-3.561,1.733-.1,0-.385-.193-.578-.193a5.827,5.827,0,0,1-3.657-1.636,6.675,6.675,0,0,1-2.021-3.465A6.54,6.54,0,0,1,690.2,59.98a6.523,6.523,0,0,1,4.044-2.023,15.138,15.138,0,0,0,3.272-.673c1.251-.385,2.406-.385,3.274-.963a10.685,10.685,0,0,0,2.791-2.117,12.558,12.558,0,0,0,1.828-3.176c.385-1.061,1.347-2.119,1.636-3.37a22.1,22.1,0,0,0,.481-3.755v-.481c0-1.347-.96-2.6-1.345-3.85a12.316,12.316,0,0,0-1.927-3.465,12.167,12.167,0,0,0-2.31-3.176c-.962-.866-1.829-2.119-3.08-2.694a20.046,20.046,0,0,0-3.368-.482,12.3,12.3,0,0,0-3.274-.1c-1.347,0-2.6.77-4.044,1.154-1.251.289-2.982-.1-4.33.578a21.4,21.4,0,0,0-3.755,2.119,26.293,26.293,0,0,0-4.042,4.042c-.483,1.925.385,2.119.385,4.14-.1,2.021-.674,2.021-.674,4.042-.1,2.021-.1,2.021-.1,4.042-.1,2.023,0,2.023,0,4.044-.1,2.021.77,2.021.673,4.042,0,2.021.385,2.119.289,4.14,0,2.021-.866,1.924-.962,3.946,0,1.444-.291,3.08-1.251,3.946a5.515,5.515,0,0,1-3.948,1.155l-.1-.481c-1.54,0-2.985.1-3.946-.867a5.584,5.584,0,0,1-1.54-4.042c0-2.118.1-2.118.193-4.234.094-2.214-.1-2.214-.1-4.333a14.836,14.836,0,0,0-.193-4.14c-.673.963-.866,1.54-1.345,2.312-1.157,2.021-1.733,3.272-1.733,3.272a4.613,4.613,0,0,1-3.176,2.021,4.176,4.176,0,0,1-3.659-.577c-1.253-.674-2.983-1.253-3.368-2.5-.291-1.348.866-2.694,1.636-3.946a12.249,12.249,0,0,1,1.828-4.042c.676-1.059.866-2.7,1.829-4.14.77-1.155,2.213-1.925,3.08-3.272.674-.963.77-2.214,1.444-3.178s1.54-1.732,2.213-2.7c.77-.962,1.059-1.829,1.734-2.694.288-1.157,1.924-2.023.963-2.5-1.638-.866-1.927,1.155-3.755,1.253-1.829.192-1.925-.963-3.755-.867-1.733.192-1.733.77-3.465.962-.192,0-.385.482-.577.482a6.453,6.453,0,0,1-4.044-1.155,7.018,7.018,0,0,1-1.925-3.85c-.192-1.444,1.444-2.5,2.31-3.561a4.407,4.407,0,0,1,3.176-1.733c2.021-.192,1.925-1.155,3.946-1.347s2.119.481,4.14.289,2.887.962,4.429-.385c1.155-1.155-.289-2.119-.289-3.755s-.577-1.733-.577-3.37c.094-1.636,1.058-1.636,1.058-3.272a4.84,4.84,0,0,1,1.444-3.561,5,5,0,0,1,3.657-1.829,6.038,6.038,0,0,1,4.044,1.539,6.565,6.565,0,0,1,1.155,4.14c0,2.021.384,2.021.384,4.14-.1,2.119.193,2.119.1,4.14,0,2.117-.77,2.021-.1,3.946,1.155-.674,2.023-.481,3.176-.962,1.253-.578,2.312-1.446,3.563-1.925a30.181,30.181,0,0,1,3.946-.578,28.709,28.709,0,0,1,3.946-.77,21.361,21.361,0,0,1,3.563.77,22.493,22.493,0,0,1,3.464.77c1.157.288,2.6-.385,3.755.1,1.251.578,1.829,2.214,2.984,2.889,1.154.77,2.5,1.058,3.56,2.021a19.8,19.8,0,0,1,2.889,2.791c.866,1.059.866,2.6,1.542,3.755s2.309,1.924,2.791,3.176c.385,1.347-.385,2.887-.193,4.235s1.732,2.6,1.732,3.946c0,.193-.866.385-.866.674" transform="translate(347.57 11.76)" fill="#fff"/>
      </g>
      <g transform="matrix(1, 0, 0, 1, -9, -9)" filter="url(#パス_1566)">
        <path id="パス_1566-2" data-name="パス 1566" d="M751.375,57.347c-.193,1.348-1.734,2.5-2.214,3.755-.385,1.444.193,3.176-.385,4.427a31.569,31.569,0,0,1-2.406,3.465,32.115,32.115,0,0,1-2.7,3.37c-.866.867-2.408.867-3.37,1.636a20.261,20.261,0,0,1-2.887,2.119c-1.059.577-1.927,1.732-3.08,2.213-1.059.385-2.408.193-3.659.482a23.352,23.352,0,0,1-3.464.962c-1.251.192-2.5-.289-3.659-.289-.1,0-.1.193-.1.193-.385,0-.674.385-.963.385a23.276,23.276,0,0,1-3.657,0c-1.251-.193-2.119-1.636-3.274-1.925-1.154-.385-2.5-.193-3.56-.674a23.668,23.668,0,0,1-3.082-1.828,20.392,20.392,0,0,1-2.6-2.312c-.77-.866-.962-2.117-1.539-3.079-.482-1.061-.192-2.214-.482-3.37a11.716,11.716,0,0,1-.673-3.176c.1-.674-.483-1.444-.385-2.214a20.6,20.6,0,0,1,1.251-3.08,14.054,14.054,0,0,1,1.636-2.887,13.683,13.683,0,0,1,1.925-2.7c.866-.769,1.155-2.309,2.119-2.887,1.154-.77,2.79-.866,4.042-1.347a27.6,27.6,0,0,1,4.042-.772c1.349,0,2.7-.288,4.044-.288.385,0,.77.481,1.155.481,1.251.1,2.7-1.058,3.946-.77,1.251.192,2.214,1.54,3.37,1.925A18.937,18.937,0,0,1,734.145,51a21.99,21.99,0,0,1,3.367,1.733,30.676,30.676,0,0,1,2.793,2.213c0-.673-.481-.963-.481-1.733,0-1.345.866-2.694.481-3.753-.385-1.251-1.732-1.829-2.6-2.791a12.363,12.363,0,0,0-2.406-2.7,14.552,14.552,0,0,0-3.272-1.348,25.875,25.875,0,0,0-3.272-1.154c-1.061-.289-2.118-1.155-3.274-1.446-1.155-.192-2.31-.577-3.465-.77-1.155-.094-2.406.291-3.659.193-1.924-.1-3.079-1.539-3.945-3.272a4.4,4.4,0,0,1,.385-4.718c1.154-1.636.866-1.828,1.924-3.366,1.155-1.638.483-2.024,1.636-3.66,1.061-1.539,1.734-1.155,2.791-2.694,1.157-1.54.578-1.925,1.733-3.467A37.46,37.46,0,0,1,725.1,15.09c1.059-1.636,2.889-.96,2.119-2.694-.868-1.733-1.444-.289-3.274-.289-1.925,0-1.925-.1-3.753,0-1.831,0-1.831.481-3.659.577-1.925,0-1.925-.962-3.753-.962s-1.831,1.059-3.659,1.059c-1.542,0-2.7-1.155-3.657-2.119s-2.119-2.117-2.119-3.561a6.285,6.285,0,0,1,1.444-4.235c.962-.963,2.7-.866,4.236-.866,1.732-.1,1.732,0,3.561,0s1.829.193,3.657.1c1.829,0,1.829-.193,3.657-.193,1.733,0,1.733-1.058,3.563-1.154,1.828,0,1.828.385,3.657.385,1.734-.1,1.734.481,3.561.481,0,0,1.829.1,3.659.1,1.732,0,1.732-.674,3.561-.769a6.643,6.643,0,0,1,3.08.769,6.96,6.96,0,0,1,2.214,2.214c.481.866.094,2.117.094,3.08-.094.963.1,2.213-.479,3.079-1.251,1.733-1.733,1.348-2.889,2.984-1.155,1.733-1.444,1.54-2.6,3.274-1.154,1.636-1.058,1.732-2.214,3.465-1.251,1.636-.866,1.925-2.021,3.561-1.155,1.733-1.251,1.636-2.406,3.37-1.155,1.636-2.6,1.058-3.272,2.984,1.251.288,3.176.385,4.331.673,1.155.385,1.925,1.733,2.983,2.214a22.642,22.642,0,0,1,3.37,1.058,31.159,31.159,0,0,1,3.082,1.638,15,15,0,0,1,3.079,1.924c.866.77,1.251,2.021,1.925,2.984A19.207,19.207,0,0,1,748.293,43a19.819,19.819,0,0,1,1.637,3.176,18.269,18.269,0,0,1,.962,3.467,22.053,22.053,0,0,1,0,3.56c0,1.446.674,2.889.483,4.333Zm-19.733,5.776a8.92,8.92,0,0,0-2.119-2.791,10.055,10.055,0,0,0-3.272-1.155c-1.059-.288-2.021-1.539-3.369-1.732-.1,0-.288.481-.577.481v.1a17.161,17.161,0,0,0-3.178.192,11.487,11.487,0,0,0-2.887,1.348c-1.443.963-1.347,2.213-1.636,3.755,0,.192-.1.288-.1.577,0,1.348-.481,2.793.77,3.85a11.237,11.237,0,0,0,3.561,1.54c1.058.289,2.406-.385,3.85-.385.289,0,.481.288.77.288a25.065,25.065,0,0,0,3.755.193c1.347-.193,2.309-1.251,3.368-1.732a11.606,11.606,0,0,0,3.272-1.638s.578-.192.578-.288c-.578-1.251-2.119-1.733-2.791-2.6" transform="translate(376.03 9.39)" fill="#fff"/>
      </g>
      <g transform="matrix(1, 0, 0, 1, -9, -9)" filter="url(#パス_1567)">
        <path id="パス_1567-2" data-name="パス 1567" d="M779,55.67c-.481,1.443-.193,3.176-1.059,4.331a12.5,12.5,0,0,1-3.37,2.983c-.868.77-2.118.867-3.08,1.348a19.148,19.148,0,0,1-2.984,1.828c-1.058.291-2.021,1.348-3.175,1.446-1.155.192-2.408-.77-3.561-.77-1.446,0-2.984.866-4.333.577-1.348-.385-2.5-1.444-3.85-2.119a27.689,27.689,0,0,1-3.659-2.117,15.017,15.017,0,0,1-2.213-2.7,11.246,11.246,0,0,1-1.636-2.984,12.8,12.8,0,0,1-1.251-3.176,13.73,13.73,0,0,1-.676-3.464,13.3,13.3,0,0,1,.868-3.37c.289-1.155,0-2.5.578-3.465a16.466,16.466,0,0,1,1.636-3.176,14.871,14.871,0,0,1,2.694-2.31,17.611,17.611,0,0,1,3.659-2.5,17.114,17.114,0,0,1,4.138-1.732c1.446-.385,3.082.577,4.525.577a22.994,22.994,0,0,1,3.657.1,19.555,19.555,0,0,1,3.563.676c1.253.479,2.021,1.539,2.983,2.213a12.341,12.341,0,0,1,2.889,2.117,13.241,13.241,0,0,1,2.214,3.467c.673,1.345,1.636,2.406,2.021,3.752a20.871,20.871,0,0,1,.1,4.237A15.592,15.592,0,0,1,779,55.67m-10.781-8.952c-.578-.578-1.829-.193-3.08-.578-.867-.288-1.637-1.348-2.889-1.348a8.554,8.554,0,0,0-5.485,1.831,5.643,5.643,0,0,0-2.5,4.235c0,1.73,1.828,2.5,3.08,3.561,1.154,1.058,2.791,2.213,4.429,2.213,1.249,0,2.5.387,3.368.193a8.858,8.858,0,0,0,3.176-1.638,4.785,4.785,0,0,0,1.347-3.753,6.761,6.761,0,0,0-1.443-4.716" transform="translate(397.38 26.85)" fill="#fff"/>
      </g>
      <g transform="matrix(1, 0, 0, 1, -9, -9)" filter="url(#パス_1568)">
        <path id="パス_1568-2" data-name="パス 1568" d="M66.2,53.269c.347-.775,1.627-1.606,2.354-2.723.81-1.243,1.318-2.513,1.884-2.851,1.074-.641.9,1.642,3.578,1.51a4.284,4.284,0,0,0,3.761-2.742c.823-1.933,1.539-3.945,1.936-4.739.3-.6.239-2.558.534-4.531.209-1.393-.19-2.984-.107-4.394a8.664,8.664,0,0,0-.559-4,3.394,3.394,0,0,0-2.6-2.1c-1.616-.312-3.838.294-4.264-.085-.81-.715.437-3.412,1.5-4.738s.934-5.039-.79-6.048-2.122-2.152-.531-2.948,1.134-1.968,1.663-3.823a3.378,3.378,0,0,0-1.348-3.4c-1.065-.7-2.77.143-3.671.157-.6.008-2.529-.909-4.835-.5C63.263,5.568,61.779,6.67,60.143,7c-1.619.323-3.134,1.106-4.582,1.435-2.065.47-4.12-.265-4.96.065-1.25.489-2.192,2.117-3.733,2.446-1.21.259-2.659.452-4.289.638-1.246.143-2.7-1.21-4.3-1.1-1.857-.265-2.507.347-4.1,1.937-.773.773-.992,2.715-.747,4.2.259,1.571,1.729,2.651,2.275,3.2,1.059,1.061-.872,3.7-1.137,5.292s.47,2.347-.855,2.082-1.218,4.092-.953,5.948S30.82,36.206,27.9,36.206s-1.72-.9-1.72-2.225a24.946,24.946,0,0,1-.423-4.525,12.017,12.017,0,0,0-.294-4.385c-.8-2.386.626-3.875,4.073-3.61,1.835.142,3.112.584,3.479-.292a14.609,14.609,0,0,0,.487-3.58c.065-.8-1.184-1.332-1.428-1.953-.734-1.864-2.053-3.039-3.645-3.039-2.12,0-1.479-2.974-.419-4.3.464-.581.073-2.633-.953-4.114-.679-.98-2.376-1.079-3.528-1.772C22.464,1.766,21.569.346,20.207.406,18.071.5,17.079,2.212,16.33,3.626a9.153,9.153,0,0,0-1.079,4.888c.265,1.326.365,3.363-.96,3.893-.793.317-3.088-.919-5.631-.9-1.709.014-3.421,1.335-5.234,1.867-2.084.613-3.5,1.877-3.423,3.8a8.461,8.461,0,0,0,2.449,5.135c.726.581,3.1.816,5.549.479,2.017-.277,3.971-1.536,5.339-1.819,3.027-.627,3.327,2.084,2.8,3.144a14.632,14.632,0,0,0-.965,5.356c.023,2.52-.388,5.111-.341,5.649A10.135,10.135,0,0,1,13.784,39.5a11.952,11.952,0,0,1-3.672,3.225c-1.688.907-3.853.437-4.84.56-1.02.128-2.571,1.377-3.7,2.382A4.162,4.162,0,0,0,.346,49.293a3.7,3.7,0,0,0,1.972,2.753,5.51,5.51,0,0,0,3.5.5c.753-.116,2.426-.829,4.254-1.429a21.681,21.681,0,0,1,4.6-1.067c1.907-.079,1.38,2.157,1.645,3.482a29.313,29.313,0,0,1,.784,3.975c.131,1.283.029,2.746.082,4.041a12.986,12.986,0,0,1-.277,4.158c-.8,1.855-4.648-.811-6.5.514s-1.428,3.5-1.641,5.616c-.068.685,1.453,2.015,2.943,3.31a35.192,35.192,0,0,0,3.234,2.507c1.158.788,2.122,2.018,3.243,2.613a11.546,11.546,0,0,0,4.1,1.356c1.207.047,1.54-2.093,2.246-3.9.508-1.3,2.287-2.453,2.558-3.913a21.473,21.473,0,0,0,.1-4.569c0-1.221-.714-2.718-.831-4.155a9.555,9.555,0,0,1,.939-3.963,15.151,15.151,0,0,0-.078-4.246c-.154-1.26-1.9-2.443-2.08-3.726-.236-1.641.554-3.228.533-4.05a4.548,4.548,0,0,1,1.837-3.835c1.248-.842,3.449-.259,4.461-.764,2.122-1.061,3.118.839,4.42,2.239a4.11,4.11,0,0,0,2.715,1.183c1.367.18,2.668,1.441,3.351,1.441.434.038.507-1.239,1.032-1.062a16.854,16.854,0,0,0,6.937.461,15.025,15.025,0,0,1,3.593.291c2.239.1,2.841.811,2.59,1.312-.353.706-1.163,5.041-2.047,5.57s-2.313-.365-3.793-2.128a15.558,15.558,0,0,0-3.688-2.567,4.564,4.564,0,0,0-3.908-.584c-1.943.708-.694-.242-1.414.19-1.59.53-1.738,3.618-2.184,5.015-.231.72,1.683,2.555,3.377,3.758,1.586,1.128,3.236,1.934,3.493,2.577.53,1.326.135,4.933-1.721,6.258-.938.67-2.977,1.144-4.411,2.423A42.453,42.453,0,0,0,36.759,74.4a4.607,4.607,0,0,0-.467,4.321c.546,1.347,2.157,1.852,3.421,2.216,2.613.752,4.767-.689,6.247-1.253A15.074,15.074,0,0,0,50.789,76.6c1.714-1.72,2.6-4.331,3.234-4.866,1.274-1.079,3.383.367,4.117,1.011.4.349,3.077.808,5.173,2.166,1.762,1.143,3.335,2.691,4.4,3.169,1.54.691,3.858,1.928,5.747,1.692.607-.076,1.863-1.242,3.036-2.505a5.173,5.173,0,0,0,1.25-3.293c.164-1.7-.973-2.14-2.532-2.927A25.328,25.328,0,0,1,71,68.74a8.609,8.609,0,0,0-3.129-1.453,10.214,10.214,0,0,1-3.376-1.72c-1.855-1.59-1.4-5.339-1.4-6.4s2.373-4.263,3.106-5.9M59.641,16.431c.732-.244,2.255.128,3.589-.07,1.561-.233,2.843-.72,3.223-.338.708.706.8.35.09,1.233-.347.435-2.015,1.184-2.481,2.616-.481,1.478-1.067,3-1.157,3.45-.177.884-.358,3.491-1.772,3.491s-1.411.078-1.589-.805-.915-3.837-1.268-5.957-.105-2.642,1.364-3.621M44.785,19.795c2.122-1.061,3.739.9,4.447,1.607s1.1,4.006,1.1,5.066-2.007,2.192-3.421,2.368-.642-3.185-1.173-5.66-2.251-2.286-.956-3.382M60.073,40.768c-.93,0-2.837-.8-4.742-.909-2.08-.122-4.124.088-4.771,0-.619-.088-2.045,1.014-3.507,1.132S44.076,39.9,43.458,39.9c-1.237,0-.88-.583-.88-2.4.355-1.237,3.331-.075,4.745.1.848.107,2.587-.285,4.719-.425a20.86,20.86,0,0,0,4.464-1.149c1.3-.4,2.776.3,4.015.31,1.3.012,2.633-.749,3.9-.665,1.288.087,2.618,1.49,3.893,1.246,3.712-.706,2.72,3.185,2.19,4.068s-2.641,1.181-4.054.473-4.43-.7-6.374-.7" transform="translate(9 9.21)" fill="#fff"/>
      </g>
      <g transform="matrix(1, 0, 0, 1, -9, -9)" filter="url(#パス_1569)">
        <path id="パス_1569-2" data-name="パス 1569" d="M257.445,70.321c-.989-.283-2.539,1.5-6.278-.741-2.309-1.386-5.432-.53-6.7-.953a50.877,50.877,0,0,1-4.884-2.283,36.769,36.769,0,0,0-5.235-2.482c-1.368-.269-4.26-.113-4.271-1.817,0-.75,1.817-1.58,3.2-3.385,1.755-2.3,3.28-5.69,4.7-7.3,2.537-2.883-2.823-8.4-4.261-8.454s-1.947-2.488-1.947-5.028a50.663,50.663,0,0,1,.831-5.228,15.769,15.769,0,0,0-.14-5.5c-1-4.8.72-7.61,2.129-7.61s1.411,1.692-.282,2.539-.282,4.514.282,5.925c.33.822,2.466,2.306,4.794,4.048a49.493,49.493,0,0,1,4.8,3.852c3.2,3.071,7.617.846,9.307-2.863.9-1.989-1.125-6.072-4.747-7.255-3.1-1.014-5.226-3.741-5.875-4.146-1.4-.874,1.32-1.466,5.283-1.446s6.471-2.911,6.471-5.451-1.974-3.385-3.79-4.514c-.927-.575.091-.149-3.794-.552-1.236-.128-2.773.721-3.9.647-1.289-.085-2.808-1.38-5.439-1.222-1.428.085-3.922.16-6.444.443-2.478.279-4.978.825-6.5.685-3.067-.282-2.539-2.823-2.575-5.878S221.1.6,217.1.059s-4.4,2.79-5.36,6.219c-.5,1.788-2.09,2.246-4.258,2.672-1.988.39-5.06-1.842-7.04.011-1.782,1.668-3.884-.607-5.789-.467-2.195.161-4.073.551-4.654.606-.948.088-4.758-1.7-6.4.356-1.292,1.618-4.719,1.892-4.578,5.179.145,3.331,1.16,5.491,3.663,6.068.988.228,2.263-.23,3.4.131,2.434.773,3.542-.379,4.226-.105,1.615.648.464,4.076-1.574,4.884-1.365.542-5.01,4.579-6.386,6.188-2.406,2.813-.741,4.281-.088,6.232.746,2.233,3.881,1.992,4.6,1.95,1.085-.064,4.852-3.1,7.4-5.241.836-.7,1.135-.944,3.1-2.507,5.028-4.013,3.6-8.781,2.537-9.593a1.672,1.672,0,0,1,.849-2.907c1.412-.1,3.383,1.778,3.665,2.624s-1.692,8.182-4.232,10.722-4.514,7.9-1.444,9.619,7.212-.481,8.753-2.3a26.856,26.856,0,0,0,2.837-5.287,50.633,50.633,0,0,0,1.988-5.132c.563-1.975.846-6.208,2.545-8.745s4.789-.283,6.483,0-.283,1.692,0,2.822a21.318,21.318,0,0,1-.283,5.925c-.282,1.409-1.128,1.409-3.1,1.409s-2.539,3.386-3.1,5.079,2.823,4.8,2.823,4.8l1.691,2.257s.376,2.351-5.079.282c-1.72-.651-3.3-.142-4.484-.049a9.747,9.747,0,0,0-5.672,2.024c-1.062.638-3.106,2.093-3.615,3.683-.9,2.8-2.887,3.312-3.721,4.216-1.421,1.542-3.452,1.469-4.646,3.156-.7.992-2.5,2.239-2.689,3.522-.259,1.73,1.318,3.479,2.257,4.325,1.849,1.665,5.336,1.875,7.712.752,1.25-.589,2.056-2.338,2.446-2.727,1.129-1.128,2.313-.434,3.949.848s0,1.974-.565,2.82-2.539,1.975-4.794,2.822c-1.131.423-4.665,2.169-7.056,1.764-3.138-.531-6.488,1.481-8.745,2.185-4.516,1.411-2.3,5.645-.248,8.136,1.023,1.246,3.611.24,6.145.641,3.977.629,4.965-1.3,5.669-1.441,1.411-.282,7.619-1.128,9.311-1.974.729-.365,3.376-2.881,5.806-3.018,4.914-.274,5.006-2.694,5.7-3.26,1.224-1,2.6-1.341,3.727-.493s6.489,1.409,8.746,1.692c1.128.14,2.44,1.2,3.958,1.8,4.015,1.586,2.849,1.586,4.015,1.586a13.035,13.035,0,0,1,7.024,2.485c3.071,2.289,5.2,1.257,9.265,1.466,5.847.3,5.7-1.516,6.642-5.29.6-2.408-2.049-4.885-2.972-5.149M221.614,55.65c-.753,1.316-3.01,2.446-4.327,2.068a58.137,58.137,0,0,1-5.643-2.633s-.565-.941.376-1.128c0,0,5.832.187,7.147.376s3.2,0,2.447,1.316" transform="translate(102.43 9)" fill="#fff"/>
      </g>
      <g transform="matrix(1, 0, 0, 1, -9, -9)" filter="url(#パス_1570)">
        <path id="パス_1570-2" data-name="パス 1570" d="M667.838,70.321c-.988-.283-2.539,1.5-6.278-.741-2.307-1.386-5.43-.53-6.7-.953a50.543,50.543,0,0,1-4.885-2.283,36.775,36.775,0,0,0-5.234-2.482c-1.368-.269-4.26-.113-4.271-1.817,0-.75,1.817-1.58,3.2-3.385,1.755-2.3,3.28-5.69,4.7-7.3,2.539-2.883-2.822-8.4-4.26-8.454s-1.946-2.488-1.946-5.028A50.271,50.271,0,0,1,643,32.648a15.738,15.738,0,0,0-.142-5.5c-1-4.8.721-7.61,2.131-7.61s1.411,1.692-.282,2.539-.281,4.514.282,5.925c.33.822,2.465,2.306,4.794,4.048a49.494,49.494,0,0,1,4.8,3.852c3.2,3.071,7.617.846,9.3-2.863.906-1.989-1.123-6.072-4.745-7.255-3.1-1.014-5.226-3.741-5.875-4.146-1.4-.874,1.32-1.466,5.283-1.446s6.471-2.911,6.471-5.451-1.974-3.385-3.79-4.514c-.928-.575.09-.149-3.794-.552-1.236-.128-2.773.721-3.905.647-1.289-.085-2.806-1.38-5.438-1.222-1.428.085-3.922.16-6.444.443-2.478.279-4.978.825-6.5.685-3.067-.282-2.539-2.823-2.575-5.878S631.492.6,627.494.059s-4.4,2.79-5.36,6.219c-.5,1.788-2.09,2.246-4.258,2.672-1.988.39-5.06-1.842-7.04.011-1.782,1.668-3.884-.607-5.789-.467-2.195.161-4.073.551-4.654.606-.948.088-4.759-1.7-6.4.356-1.292,1.618-4.719,1.892-4.578,5.179.144,3.331,1.16,5.491,3.662,6.068.989.228,2.265-.23,3.4.131,2.434.773,3.542-.379,4.226-.105,1.615.648.464,4.076-1.574,4.884-1.365.542-5.01,4.579-6.386,6.188-2.406,2.813-.741,4.281-.088,6.232.746,2.233,3.881,1.992,4.6,1.95,1.085-.064,4.853-3.1,7.4-5.241.834-.7,1.135-.944,3.1-2.507,5.03-4.013,3.6-8.781,2.54-9.593a1.671,1.671,0,0,1,.849-2.907c1.412-.1,3.383,1.778,3.665,2.624s-1.692,8.182-4.232,10.722-4.514,7.9-1.444,9.619,7.212-.481,8.752-2.3a26.858,26.858,0,0,0,2.837-5.287,50.635,50.635,0,0,0,1.988-5.132c.563-1.975.846-6.208,2.545-8.745s4.789-.283,6.483,0-.283,1.692,0,2.822a21.375,21.375,0,0,1-.283,5.925c-.282,1.409-1.128,1.409-3.1,1.409s-2.539,3.386-3.1,5.079,2.822,4.8,2.822,4.8l1.692,2.257s.376,2.351-5.079.282c-1.72-.651-3.3-.142-4.484-.049a9.747,9.747,0,0,0-5.672,2.024c-1.064.638-3.106,2.093-3.614,3.683-.9,2.8-2.887,3.312-3.721,4.216-1.423,1.542-3.453,1.469-4.646,3.156-.7.992-2.5,2.239-2.689,3.522-.26,1.73,1.318,3.479,2.257,4.325,1.849,1.665,5.336,1.875,7.711.752,1.248-.589,2.056-2.338,2.446-2.727,1.128-1.128,2.312-.434,3.949.848s0,1.974-.565,2.82-2.539,1.975-4.8,2.822c-1.129.423-4.663,2.169-7.054,1.764-3.138-.531-6.488,1.481-8.745,2.185-4.516,1.411-2.3,5.645-.248,8.136,1.023,1.246,3.611.24,6.145.641,3.977.629,4.965-1.3,5.669-1.441,1.411-.282,7.617-1.128,9.309-1.974.731-.365,3.377-2.881,5.808-3.018,4.914-.274,5.006-2.694,5.7-3.26,1.224-1,2.6-1.341,3.727-.493s6.489,1.409,8.746,1.692c1.128.14,2.438,1.2,3.958,1.8,4.015,1.586,2.849,1.586,4.015,1.586a13.039,13.039,0,0,1,7.024,2.485c3.071,2.289,5.205,1.257,9.265,1.466,5.847.3,5.7-1.516,6.642-5.29.6-2.408-2.048-4.885-2.974-5.149M632.008,55.65c-.752,1.316-3.009,2.446-4.325,2.068a58.136,58.136,0,0,1-5.643-2.633s-.565-.941.376-1.128c0,0,5.831.187,7.147.376s3.2,0,2.446,1.316" transform="translate(316.62 9)" fill="#fff"/>
      </g>
      <g transform="matrix(1, 0, 0, 1, -9, -9)" filter="url(#パス_1561)">
        <path id="パス_1561-2" data-name="パス 1561" d="M429.679,67.76c-.481.963-.674,2.31-1.54,2.889s-2.214,0-3.176,0a4.792,4.792,0,0,1-2.021-.482c-1.059-.481-2.119-1.058-3.274-1.539-1.058-.385-2.6.385-3.753,0-1.059-.482-1.927-1.829-2.984-2.214-1.155-.385-2.5-.1-3.659-.385-1.154-.385-2.213-1.059-3.272-1.348-1.636-.385-3.08-.77-4.331-1.058a18.893,18.893,0,0,1-4.14-1.54c-1.443-.291-2.7-.578-3.368-1.733a4.9,4.9,0,0,1-.77-3.85,4.563,4.563,0,0,1,5.967-3.657,5.707,5.707,0,0,1,3.85-.385c.962.193,1.829,1.636,3.176,2.021,1.059.289,2.406-.1,3.659.289,1.154.289,2.213.866,3.368,1.251,1.155.289,2.5.289,3.657.674,1.059.288,1.925,1.54,3.08,1.925,1.157.481,2.214.962,3.37,1.347,1.155.482,2.5.289,3.561.77a5.676,5.676,0,0,1,3.08,2.889c.578,1.251.1,2.791-.481,4.138M428.524,20.3c-.866.674-2.406,0-3.561,0-.482,0-1.059.674-1.54.578-1.059-.289-2.117-1.54-3.561-1.831-1.155-.288-2.7.676-4.044.387-1.251-.289-2.5-.674-3.753-.962-1.348-.193-2.5-1.446-3.659-1.638s-2.406.577-3.465.385c-1.155-.193-2.213-.578-3.176-.673a25.487,25.487,0,0,0-3.272-.291c-1.444-.192-2.406-1.443-3.178-2.6A4,4,0,0,1,394.642,10a4.03,4.03,0,0,1,1.732-3.079,4.289,4.289,0,0,1,3.563-.867,7.764,7.764,0,0,1,3.946-.481c1.058.193,2.309.866,3.753,1.059,1.155.192,2.5-.289,3.85,0,1.251.192,2.5.674,3.755.867,1.251.288,2.406.96,3.657,1.154,1.348.289,2.7.289,3.85.482,1.348.385,2.406,1.539,3.465,1.828,1.444.481,2.5.866,3.176,2.021.674,1.251,1.733,2.791,1.251,4.14a6.632,6.632,0,0,1-2.117,3.176m-1.54,19.829c-.385,1.155-.192,2.406-1.059,3.08a6.2,6.2,0,0,1-3.272.481c-.578,0-.963-.481-1.54-.674-1.251-.481-2.887-.192-4.429-.575-1.347-.387-2.887-.193-4.331-.578s-2.7-1.638-4.042-2.021c-1.444-.289-2.983.192-4.14,0-2.117-.385-3.657-.867-4.042-.867a6.055,6.055,0,0,1-3.755-1.829c-.962-.962-.577-2.406-.577-3.849,0-1.54-.674-3.37.289-4.333s2.791-.385,4.33-.385c.867,0,1.157-.673,1.733-.673.578.1,1.251.288,2.119.385.866.192,1.732,1.058,2.791,1.251.962.192,2.117-.288,3.176,0,1.155.288,2.406.1,3.657.385s2.119,1.636,3.37,2.021c1.155.288,2.7-.385,3.85-.1,1.251.384,2.117,1.732,3.272,2.117,1.349.482,2.7,1.059,3.274,2.312s-.193,2.5-.674,3.849" transform="translate(214.26 11.88)" fill="#00c8ac"/>
      </g>
      <g transform="matrix(1, 0, 0, 1, -9, -9)" filter="url(#パス_1562)">
        <path id="パス_1562-2" data-name="パス 1562" d="M488.866,35.122c-.481,1.155,0,2.887-.578,3.946-.577,1.155-1.636,2.021-2.213,3.176-.674,1.059-.866,2.406-1.444,3.467-.673,1.154-2.406,1.539-3.079,2.6-.676,1.155-.676,2.6-1.348,3.657s-2.021,1.636-2.7,2.7c-.769,1.059-1.059,2.31-1.829,3.37-.673,1.059-.963,2.406-1.732,3.37a36.783,36.783,0,0,1-2.117,3.176c-.772,1.058-1.636,2.021-2.312,2.984-.866.962-2.309,1.443-3.079,2.406a4.492,4.492,0,0,1-3.657,2.021,4.541,4.541,0,0,1-3.274-.963,4.96,4.96,0,0,1-2.117-3.561,6.527,6.527,0,0,1,.866-4.235,35.4,35.4,0,0,0,2.694-2.694c.77-.963,1.348-2.021,2.216-3.082.673-1.058,2.213-1.539,2.981-2.6.676-.962,1.061-2.309,1.733-3.368.77-1.059,1.733-1.925,2.406-2.983.77-1.061.867-2.5,1.542-3.561s1.347-2.119,2.021-3.274a29.43,29.43,0,0,0,1.828-2.887c-1.732-.578-1.732-.291-3.657-.291s-1.925-.481-3.755-.481c-1.925,0-1.925.772-3.849.772s-1.927-.867-3.755-.867h-7.6c-1.925,0-1.925-.192-3.755-.192-1.925,0-1.925.962-3.849.962-1.829,0-1.829.289-3.755.289s-1.925-1.155-3.85-1.155a4.223,4.223,0,0,1-3.37-1.251,4.435,4.435,0,0,1-1.25-3.467c0-1.443,0-2.694.96-3.657s2.216-1.058,3.659-1.058c2.021,0,2.021-.867,3.948-.867,2.021,0,2.021-.288,3.945-.288a11.678,11.678,0,0,1,3.946.866c1.927,0,1.927-.772,3.85-.772s1.925-.094,3.946-.094c1.927,0,1.927,1.058,3.851,1.058,2.023,0,2.023-1.155,3.946-1.155s1.927,1.155,3.851,1.155c2.023,0,2.023-.866,3.946-.866s1.927-.385,3.85-.385c2.023,0,2.023.288,3.946.288h3.948a6.172,6.172,0,0,1,4.812,2.793c.963,1.54.1,3.368-.77,5.006m-6.642-21.465a4.5,4.5,0,0,1-3.272,1.443c-1.348,0-2.7.385-4.044.385s-2.694-.192-3.945-.192c-1.446,0-2.7,1.059-4.045,1.059s-2.694-.577-4.042-.577-2.694-.1-3.946-.1c-1.444,0-2.887.866-4.235.866-1.443,0-2.791-.866-4.14-.866-1.443,0-2.791-.288-4.234-.288-1.348,0-2.793,0-4.14-.1v.674a5.4,5.4,0,0,1-3.657-2.023,5.307,5.307,0,0,1-1.542-3.753,5.384,5.384,0,0,1,1.831-3.659c.962-.866,2.309-2.021,3.753-1.924,1.347,0,2.7.481,4.044.481s2.694.866,4.138.866c1.253,0,2.7-.77,4.044-.77h4.138c1.253,0,2.6-.1,3.946-.1,1.251,0,2.6.577,3.948.577,1.251,0,2.6-.481,3.946-.481,1.251-.1,2.6-.385,3.945-.481,1.348,0,2.6.481,3.948.481a5.979,5.979,0,0,1,4.14,1.059c.962.962.866,2.6.866,4.042a4.072,4.072,0,0,1-1.444,3.37" transform="translate(235.11 11.4)" fill="#00c8ac"/>
      </g>
      <g transform="matrix(1, 0, 0, 1, -9, -9)" filter="url(#パス_1563)">
        <path id="パス_1563-2" data-name="パス 1563" d="M532.123,13.752c-.77.866-2.021,1.348-2.887,2.312-.77.769-1.348,2.021-2.216,2.887-.769.866-1.25,2.117-2.116,2.983-.772.866-1.636,1.733-2.5,2.6s-2.214,1.155-3.178,2.021c-.769.77-1.058,2.214-1.924,3.082.1.384-.77.673-.77,1.154,0,2.021.578,1.638.578,4.044,0,1.154.288,2.5.288,4.042,0,1.251.385,2.6.385,3.948s-.77,2.694-.77,4.042.289,2.694.289,4.042-.577,2.7-.577,3.946c0,1.54,1.25,2.887,1.25,4.042,0,2.408-1.155,2.021-1.155,4.044,0,1.925-.192,1.925-.192,3.946,0,1.443.385,3.176-.578,4.14a6.446,6.446,0,0,1-4.138,1.732,6.594,6.594,0,0,1-4.331-1.54,6.715,6.715,0,0,1-1.444-4.331c0-2.021.578-2.021.578-3.946V58.994c0-2.023.288-2.023.288-3.946,0-2.021-.288-2.021-.288-3.948,0-2.021.578-2.021.578-3.946V43.207a8.476,8.476,0,0,0-.578-4.044c-.963.963-2.31,1.829-3.369,2.793s-2.119,1.828-3.176,2.791-2.119,1.828-3.176,2.791c-1.059.867-1.829,2.214-2.887,3.082-1.061.96-2.023,1.924-3.082,2.886a6.2,6.2,0,0,1-3.755,1.542c-1.443,0-2.6-1.542-3.657-2.791a4.7,4.7,0,0,1-1.251-3.467,4.417,4.417,0,0,1,1.829-3.272c.962-.866,2.021-1.733,3.079-2.6.963-.866,1.831-1.925,2.791-2.791,1.061-.866,1.831-1.925,2.793-2.791.962-.963,2.021-1.829,2.983-2.7s2.214-1.54,3.178-2.406,2.021-1.732,2.983-2.6,1.444-2.312,2.408-3.178c1.058-.962,2.406-1.347,3.368-2.213.963-.963,2.021-1.831,2.984-2.7.963-.962,1.251-2.5,2.214-3.368.962-.963,1.732-2.117,2.6-2.984.963-.963,2.214-1.636,3.082-2.6.962-.963,2.309-1.54,3.175-2.406.963-1.058.963-2.887,1.733-3.755l.1.1a5.957,5.957,0,0,1,7.988-.385A5.952,5.952,0,0,1,533.759,9.9a5.169,5.169,0,0,1-1.636,3.849" transform="translate(260.75 11.5)" fill="#00c8ac"/>
      </g>
      <g transform="matrix(1, 0, 0, 1, -9, -9)" filter="url(#パス_1571)">
        <path id="パス_1571-2" data-name="パス 1571" d="M580.815,64.058c-2.73,0-2.73.495-5.461.495s-2.73-.079-5.459-.079-2.729-.836-5.458-.836-2.73.621-5.461.621-2.732.12-5.465.12-2.73-.192-5.461-.192-2.729-.321-5.459-.321-2.73-.082-5.462-.082-2.732.5-5.464.5-2.73-.788-5.461-.788-2.73.272-5.462.272-2.732-.078-5.464-.078-2.73-.17-5.462-.17-2.732.682-5.464.682-2.732-.259-5.462-.259-2.733.629-5.465.629-2.732-.373-5.464-.373-2.732-.525-5.465-.525-2.729-.12-5.458-.12-2.732.689-5.464.689-2.729-.664-5.458-.664-2.733.085-5.465.085-2.73.493-5.461.493-2.733-.525-5.467-.525-2.732.505-5.464.505-2.732.055-5.465.055-2.735-.679-5.468-.679-2.735.078-5.468.078-2.735.257-5.468.257-2.733-.275-5.467-.275-2.735.788-5.468.788-2.735-.753-5.468-.753-2.739,1.011-5.479,1.011-2.738-.282-5.477-.282c-1.747,0-2.866-1.706-2.866-3.452h.122a2.476,2.476,0,0,1,2.744-2.718c2.73,0,2.73-1.015,5.461-1.015s2.73.577,5.459.577,2.729.213,5.458.213,2.73-.353,5.461-.353,2.733.609,5.465.609,2.73-.656,5.461-.656,2.729.715,5.459.715,2.73-.907,5.462-.907,2.732.552,5.464.552,2.73.349,5.461.349,2.73-.869,5.462-.869l5.464,0c2.73,0,2.73.321,5.462.321s2.732-.534,5.464-.534,2.732.21,5.464.21,2.732.377,5.464.377,2.732-.277,5.464-.277,2.732.7,5.465.7,2.729-1.014,5.458-1.014,2.732.587,5.464.587,2.729-.137,5.458-.137,2.733.507,5.465.507,2.73-.256,5.461-.256,2.733-.72,5.467-.72,2.732.959,5.464.959,2.733.111,5.465.111,2.735-.356,5.468-.356,2.735-.409,5.468-.409,2.735-.254,5.468-.254,2.735.6,5.468.6,2.733-.647,5.467-.647,2.735.991,5.47.991,2.738-.724,5.477-.724,2.738-.23,5.477-.23c1.747,0,3.178,1.951,3.178,3.7h-.543c0,1.746-.887,3.17-2.634,3.17" transform="translate(213.68 38.83)" fill="#00c8ac"/>
      </g>
    </g>
    <g id="グループ_2400" data-name="グループ 2400" transform="translate(454.442 441.479)">
      <g id="グループ_2399" data-name="グループ 2399" clip-path="url(#clip-path)">
        <path id="パス_1572" data-name="パス 1572" d="M26.726,24.406c-.394.443-.443,1.28-.935,1.722-.443.4-1.231.444-1.772.788a17.545,17.545,0,0,1-1.624.936c-.542.246-.985.787-1.624.984A10.9,10.9,0,0,1,19,29.427a12.224,12.224,0,0,1-1.92.147,11.354,11.354,0,0,1-1.87.2v.1c-.492,0-.984.247-1.427.2-.64-.049-1.28-.148-1.871-.246s-1.132-.64-1.722-.787c-.591-.2-1.083-.542-1.673-.788a9.555,9.555,0,0,1-1.575-.837,15.438,15.438,0,0,1-1.428-1.082c-.443-.394-1.132-.591-1.526-1.034A9.741,9.741,0,0,1,2.9,23.422c-.394-.591-1.329-.886-1.625-1.575-.245-.64.2-1.575,0-2.264a14.379,14.379,0,0,1-.787-2.018,15.285,15.285,0,0,1-.049-2.116c0-.148-.443-.3-.443-.345,0-.688.64-1.328.738-2.018s.148-1.329.3-2.018c.2-.64.541-1.23.787-1.821.246-.64.246-1.427.541-2.018.345-.59.985-.984,1.378-1.526.444-.541.444-1.426.936-1.919S6,3.241,6.6,2.848a11.4,11.4,0,0,1,1.772-.836c.64-.3,1.083-.935,1.772-1.133A12.886,12.886,0,0,1,12.109.338c.984-.1,1.968-.2,2.9-.2.591,0,1.181.443,1.772.492a10.181,10.181,0,0,1,1.772.444,10.314,10.314,0,0,1,1.772.245,17.684,17.684,0,0,1,1.722.69c.542.245.837.885,1.329,1.228.493.4,1.181.493,1.624.886a16.9,16.9,0,0,1,1.28,1.329l.049-.049a2.658,2.658,0,0,1,.64,1.969c0,.69-.541,1.083-1.132,1.575-.541.541-.984,1.329-1.723,1.279a3.261,3.261,0,0,1-2.067-.984c-.492-.541-.64-1.378-1.132-1.82-.541-.444-1.427-.345-2.018-.591A7.919,7.919,0,0,0,17.078,5.9a14.353,14.353,0,0,0-2.067,0,14.857,14.857,0,0,0-2.165-.148,7.692,7.692,0,0,0-1.92.935c-.64.295-1.525.246-2.067.689A7.594,7.594,0,0,0,7.481,9.05a9.148,9.148,0,0,0-.837,2.017,12.749,12.749,0,0,0-.393,2.068c-.1.689-.591,1.329-.64,2.067,0,.1.1.2.1.246A9.946,9.946,0,0,0,6.2,17.615a6.131,6.131,0,0,0,.739,2.017,6.689,6.689,0,0,0,1.082,1.92,7.077,7.077,0,0,0,1.428.886c.492.344.689,1.181,1.279,1.378.493.2,1.181,0,1.772.1a9.6,9.6,0,0,0,1.723.295,6.812,6.812,0,0,0,.984.2c.739,0,1.378-.541,2.067-.64a9.969,9.969,0,0,0,2.166-.295,8.879,8.879,0,0,0,1.821-1.181,14.251,14.251,0,0,0,1.378-1.624,3.184,3.184,0,0,1,2.165-.887c.69,0,1.231.591,1.822,1.085a2.549,2.549,0,0,1,.787,1.771,2.162,2.162,0,0,1-.689,1.772" transform="translate(0 0.056)" fill="#fff"/>
        <path id="パス_1573" data-name="パス 1573" d="M43.7,29.011a2.981,2.981,0,0,1-1.92,1.034c-.787,0-1.23-.788-1.722-1.28a2.291,2.291,0,0,1-.886-1.722,12.06,12.06,0,0,1-.148-2.019c0-.59-.295-1.279-.295-2.017,0-.64.295-1.329.295-2.018,0-.64-.295-1.329-.295-2.019,0-.639.492-1.279.394-1.771a4.281,4.281,0,0,0-1.083-1.477,3.609,3.609,0,0,0-1.28-.935c-.394-.147-.935.148-1.575.148a6.712,6.712,0,0,0-1.771.049,2.918,2.918,0,0,0-1.428,1.034c-.344.344-1.181.443-1.378.984a5.637,5.637,0,0,0-.1,1.624c0,.148.344.246.344.344,0,1.036-.541,1.036-.541,2.019,0,1.033.59,1.033.59,2.018,0,1.033.1,1.033.1,2.017,0,1.034-.05,1.034-.05,2.019a3.1,3.1,0,0,1-1.033,1.968,3.156,3.156,0,0,1-1.969,1.083,3.428,3.428,0,0,1-2.165-.886c-.492-.492-.443-1.427-.443-2.165,0-.985-.3-.788-.3-1.969,0-.591.345-1.279.345-2.018,0-.64-.1-1.28-.1-2.018,0-.64-.3-1.329-.3-1.968,0-.689.049-1.329.049-2.019s.049-1.329.049-2.018.1-1.328.1-1.968c0-.738.345-1.428.345-2.018,0-1.181-.64-.985-.64-1.969s.344-.984.344-2.018c0-.984-.148-.984-.148-1.968s.345-.984.345-2.019a2.759,2.759,0,0,1,.443-2.017A3.044,3.044,0,0,1,27.948.318a3,3,0,0,1,2.067.689,3.03,3.03,0,0,1,.739,2.066c0,.886-.443.886-.443,1.774s.394.886.394,1.722c0,.886-.3.886-.3,1.772s-.443,1.082-.049,1.87a13.877,13.877,0,0,1,2.559-.639,11.767,11.767,0,0,1,2.264-.64c.689,0,1.28.491,1.92.59a8.659,8.659,0,0,1,1.968.2A11.737,11.737,0,0,1,40.7,10.8a11.908,11.908,0,0,1,1.476,1.28,8.384,8.384,0,0,1,.837,1.624,11.1,11.1,0,0,1,.984,3.494,10.181,10.181,0,0,1,.246,1.771c0,.69.394,1.379.394,2.019v2.018c0,.738-.246,1.427-.246,2.017a4.445,4.445,0,0,0,.443,2.019A2.9,2.9,0,0,1,43.7,29.011" transform="translate(9.898 0.126)" fill="#fff"/>
        <path id="パス_1574" data-name="パス 1574" d="M66.692,24.177l.344-.049A2.655,2.655,0,0,1,66.1,26a2.27,2.27,0,0,1-1.772.837c-.049,0-.049.442-.1.442a3.033,3.033,0,0,1-1.969-.984,2.651,2.651,0,0,1-.688-1.87c0-.591.442-1.034-.148-1.083-.739-.1-.591.394-1.132.885-.443.444-.739,1.085-1.231,1.379a8.5,8.5,0,0,1-1.771.64,11.463,11.463,0,0,1-1.723.886c-.591.1-1.231-.542-1.87-.542a7.456,7.456,0,0,1-1.821.1,8.534,8.534,0,0,1-1.92-.2,15.489,15.489,0,0,1-1.526-1.132A10.657,10.657,0,0,1,47,24.177a9.9,9.9,0,0,1-1.181-1.328c-.345-.492-.148-1.231-.345-1.772s-.935-.935-1.033-1.526.393-1.181.393-1.772a10.608,10.608,0,0,1-.1-1.771,9.208,9.208,0,0,1,.443-1.674c.2-.59.738-.935,1.033-1.427.3-.542.247-1.28.64-1.723.443-.541,1.182-.689,1.674-1.132s.738-1.181,1.28-1.575c.59-.344,1.23-.59,1.82-.886s1.379-.049,1.969-.246a13.751,13.751,0,0,1,1.87-.59,12.774,12.774,0,0,1,1.969-.1,14.433,14.433,0,0,1,1.969.246,10.073,10.073,0,0,1,2.116.1,8.564,8.564,0,0,1,1.969.837c.443.3.59,1.083.984,1.526.345.443.886.787,1.132,1.329.295.492.049,1.182.2,1.772a9.044,9.044,0,0,1,.542,1.624c0,.049.049.049.049.148.049.984.492.935.541,1.919.049,1.033-.443,1.033-.394,2.068.049.984,0,.984.049,1.968s.443.984.493,1.969-.443,1.033-.394,2.017m-5.463-9.646c-.148-1.231-.886-1.378-1.378-1.772a3.985,3.985,0,0,0-2.412-.738c-.049,0-.049-.3-.049-.3a8.457,8.457,0,0,0-1.772.444,14.463,14.463,0,0,0-1.624.689,8.428,8.428,0,0,0-1.378,1.033c-.492.345-1.428.246-1.821.689a5.566,5.566,0,0,0-.64,1.575,6.107,6.107,0,0,0,.1,1.624,3.273,3.273,0,0,0,.739,2.51,2.631,2.631,0,0,0,1.279.738c.492.247.935.69,1.428.69.541,0,.935-.591,1.427-.788a3.408,3.408,0,0,0,1.23-.837c.985-.934,1.428-.492,2.461-1.476a2.66,2.66,0,0,1,2.559-.738c.443-.69.1-.935.05-1.772a8.654,8.654,0,0,0-.2-1.575" transform="translate(17.665 2.646)" fill="#fff"/>
        <path id="パス_1575" data-name="パス 1575" d="M88.663,18.537c0,.688.443,1.377.443,2.017,0,.739-.394,1.428-.394,2.019,0,1.23.3,1.033.3,2.017H88.86a3.16,3.16,0,0,1-.64,2.166,3.172,3.172,0,0,1-2.166.492,2.883,2.883,0,0,1-2.067-.59c-.492-.493-.393-1.28-.393-2.068,0-.984-.148-.787-.148-2.017,0-.591-.344-1.28-.344-2.019V18.537c0-.64.1-1.329.1-2.018a4.023,4.023,0,0,0-.591-1.674,3.653,3.653,0,0,0-1.082-1.378,4.634,4.634,0,0,0-1.575-1.033,7.085,7.085,0,0,0-1.871-.3,4.546,4.546,0,0,0-1.821.049c-.541.2-.837.936-1.23,1.329-.443.394-1.182.542-1.378.984-.246.493,0,1.133,0,1.674,0,1.083-.394,1.083-.394,2.116s.59,1.033.59,2.068c0,1.082-.049,1.082-.049,2.115s-.541,1.036-.541,2.068c0,.787.049,1.427-.443,1.92a2.931,2.931,0,0,1-1.919.984,2.83,2.83,0,0,1-1.822-1.083,2.412,2.412,0,0,1-.787-1.821c0-1.033-.443-1.033-.443-2.068V18.29c0-1.033.492-1.033.492-2.116,0-.394-.394-.886-.345-1.279,0-.1.3-.246.3-.444-.049-.442,0-1.082-.1-1.722a13.319,13.319,0,0,0-.394-1.477,3.038,3.038,0,0,0-.837-1.279,3,3,0,0,1-1.034-1.92,2.923,2.923,0,0,1,.985-1.968,2.384,2.384,0,0,1,1.919-.591,2.469,2.469,0,0,1,1.821.591,7.407,7.407,0,0,1,1.083,1.082A5.628,5.628,0,0,1,72.471,8.3a9.2,9.2,0,0,1,1.722-.787,10.975,10.975,0,0,1,1.92-.64,8.592,8.592,0,0,1,1.968-.246,15.286,15.286,0,0,1,2.116-.05,9.4,9.4,0,0,1,3.692,1.871,9.756,9.756,0,0,1,1.722.984,8.186,8.186,0,0,1,1.526,1.379,12.25,12.25,0,0,1,.984,1.771,8.624,8.624,0,0,1,.3,1.968c.148.64.689,1.282.689,1.971s-.443,1.378-.443,2.018" transform="translate(26.209 2.184)" fill="#fff"/>
        <path id="パス_1576" data-name="パス 1576" d="M107.333,17.035v1.919c0,.985.2.985.2,1.92,0,.984-.345.984-.345,1.919,0,.985.443.985.443,1.969,0,.64-.541,1.279-.541,1.919-.049.64.2,1.28.1,1.92a13.815,13.815,0,0,1-.688,1.821,9.834,9.834,0,0,1-.69,2.018c-.393.59-1.181.837-1.722,1.328a11.483,11.483,0,0,1-1.674,1.28,14.821,14.821,0,0,1-1.771.739,14.636,14.636,0,0,1-1.822.787,12.711,12.711,0,0,1-1.968.344s0-.2-.049-.2a9.422,9.422,0,0,1-1.92-.542c-.64-.1-1.477.247-2.067,0-.64-.246-.935-1.083-1.477-1.477a11.9,11.9,0,0,1-1.476-1.279c-.443-.492-1.181-.738-1.526-1.329-.394-.64,0-1.378.2-2.017A2.2,2.2,0,0,1,89.615,28.6c.689-.345,1.28-.837,1.969-.689.688.2.935.935,1.328,1.575.345.64,1.182.935,1.871,1.279a4.662,4.662,0,0,0,2.067.148c.541,0,1.034.295,1.526.148a6.63,6.63,0,0,0,1.328-.837c1.132-.689,1.575-.837,1.871-1.575a5.137,5.137,0,0,0,.541-1.673c.049-.493-.1-1.28-.1-1.92a10.674,10.674,0,0,1-2.067.542c-.69.147-1.329.64-2.018.64v-.4a8.909,8.909,0,0,1-1.969-.147,13.566,13.566,0,0,1-1.87-.591c-.591-.295-1.428-.147-2.018-.541-.541-.345-.689-1.231-1.181-1.723-.443-.442-1.33-.59-1.674-1.132a12.349,12.349,0,0,1-.541-1.919,14.284,14.284,0,0,1-.837-1.772,8.748,8.748,0,0,1,.049-1.968,10.082,10.082,0,0,1,.1-2.117,9.919,9.919,0,0,1,.444-2.166A9.261,9.261,0,0,1,89.762,10a9.484,9.484,0,0,1,1.477-1.674c.443-.345,1.28-.246,1.772-.492.541-.295.984-.837,1.575-.984A10.171,10.171,0,0,1,96.358,6.5a10.62,10.62,0,0,1,1.82-.2,12.58,12.58,0,0,1,2.265.542,13.631,13.631,0,0,1,2.362.885,2.608,2.608,0,0,1,1.87-.787c.739,0,1.477-.148,1.969.345a2.73,2.73,0,0,1,.541,2.017v3.839c0,.985.591.985.591,1.971,0,.935-.443.935-.443,1.919m-5.168-2.117c0-.935-.393-.935-.492-1.87-.148-.049.1-.492-.049-.591-.541-.295-1.28,0-1.821-.147a7.552,7.552,0,0,0-1.625-.493,6.66,6.66,0,0,0-1.771.444,5.248,5.248,0,0,0-1.526.935c-.492.394-1.132.59-1.378,1.082-.246.542,0,1.133,0,1.774,0,.539-.344,1.18-.1,1.771.247.493.837.738,1.28,1.181a4.757,4.757,0,0,0,1.477,1.034c.64.246,1.181.886,1.772.886a5.262,5.262,0,0,0,1.87-.493,4.566,4.566,0,0,0,1.476-1.131c.246-.246.1-.542.345-.689.148-.935.541-.886.591-1.821s-.05-.936-.05-1.871" transform="translate(34.901 2.506)" fill="#fff"/>
        <path id="パス_1577" data-name="パス 1577" d="M127.8,16.531c-.148.442-.689.688-1.083,1.132-.1.147-.049.2-.147.344a3.118,3.118,0,0,1-1.774.936,9.8,9.8,0,0,1-2.017.147c-.935,0-.935.049-1.821.049-.936,0-.936.295-1.821.295s-.886-.393-1.822-.393h-1.771c-.936,0-.985-.345-1.87-.1.344.442.492.984.836,1.18a6.011,6.011,0,0,0,2.018,1.034,7,7,0,0,0,2.264.049,5.286,5.286,0,0,0,2.018-.394,3.263,3.263,0,0,1,2.264.246,2.83,2.83,0,0,1,1.378,1.624,2.628,2.628,0,0,1-.2,2.019c-.295.64-.591,1.427-1.329,1.722a12.884,12.884,0,0,1-2.067.2,14.926,14.926,0,0,1-2.067-.049c-.689,0-1.477.64-2.215.492a9.867,9.867,0,0,1-2.116-.738,12.324,12.324,0,0,1-1.969-.984,13.3,13.3,0,0,1-1.771-1.28c-.493-.493-.542-1.33-.936-1.87-.393-.591-1.033-.985-1.328-1.575a14.163,14.163,0,0,1-.3-2.019c-.147-.689-.787-1.329-.787-1.968,0-.689.787-1.28.935-1.92a8.094,8.094,0,0,1,.2-1.919,7.7,7.7,0,0,1,.689-1.871,8.567,8.567,0,0,1,1.279-1.624,12.7,12.7,0,0,1,1.723-1.082,7.9,7.9,0,0,1,1.87-.788,10.808,10.808,0,0,1,1.871-.836c.639-.1,1.377.541,2.017.541a12.063,12.063,0,0,1,1.871.148,7.5,7.5,0,0,1,1.821.393,7.578,7.578,0,0,1,1.87.591,8.451,8.451,0,0,1,1.575,1.132c.443.443.64,1.083,1.083,1.624.443.591,1.328.936,1.575,1.625a5.994,5.994,0,0,1,.2,2.313,4.2,4.2,0,0,1-.147,1.575m-6.5-3.5c-.492-.393-1.23-.246-1.722-.443a4.6,4.6,0,0,0-1.625-.2c-.59,0-1.132-.295-1.673-.1-.492.2-1.231.2-1.674.591-.393.344-.245,1.082-.59,1.624,0,.1-.2.2-.1.2,1.033,0,1.033-.491,2.067-.491s1.034.1,2.018.1c1.033,0,1.033.295,2.067.295.984,0,.984-.295,2.017-.246.148,0,.444.148.345.049a8.111,8.111,0,0,0-1.132-1.378" transform="translate(42.687 2.615)" fill="#fff"/>
        <path id="パス_1578" data-name="パス 1578" d="M147.021,6.926c0,.984-.049.984-.049,1.968s.049.985.049,2.019c0,.984.148.984.148,1.969,0,1.033-.148,1.033-.148,2.017s.049.984.049,1.969c0,1.034.345,1.034.345,2.018s-.492.984-.492,1.969v3.986c0,1.034.147,1.034.147,2.018a2.891,2.891,0,0,1-.443,2.067c-.492.493-1.328.295-2.067.295a2.518,2.518,0,0,1-1.919-.442,3.125,3.125,0,0,1-1.132-1.92c0-1.034.344-1.034.344-2.018s.345-.984.345-2.018c0-.984-.541-.984-.541-1.968s-.05-.985-.05-2.019c0-.984.148-.984.148-1.968,0-1.034.246-1.034.246-2.018s-.295-.984-.295-1.968c0-1.036.147-1.036.147-2.019s.1-.984.1-1.969c0-1.033-.492-1.033-.492-2.017s.492-.984.492-1.969c0-1.034-.2-1.034-.2-2.018,0-.738.59-1.231,1.082-1.722S143.822.035,144.56.035s1.231.69,1.723,1.182,1.23.935,1.23,1.673c0,1.034.049,1.034.049,2.018s-.541.985-.541,2.018" transform="translate(56.24 0.014)" fill="#fff"/>
        <path id="パス_1579" data-name="パス 1579" d="M171.534,16.531c-.148.442-.689.688-1.083,1.132-.1.147-.049.2-.147.344a3.118,3.118,0,0,1-1.773.936,9.8,9.8,0,0,1-2.017.147c-.935,0-.935.049-1.822.049-.935,0-.935.295-1.82.295s-.886-.393-1.822-.393h-1.771c-.936,0-.985-.345-1.87-.1.344.442.492.984.836,1.18a6.025,6.025,0,0,0,2.018,1.034,7,7,0,0,0,2.264.049,5.286,5.286,0,0,0,2.018-.394,3.263,3.263,0,0,1,2.264.246,2.83,2.83,0,0,1,1.378,1.624,2.622,2.622,0,0,1-.2,2.019c-.295.64-.591,1.427-1.328,1.722a12.918,12.918,0,0,1-2.068.2,14.926,14.926,0,0,1-2.067-.049c-.689,0-1.477.64-2.215.492a9.867,9.867,0,0,1-2.116-.738,12.324,12.324,0,0,1-1.969-.984,13.5,13.5,0,0,1-1.772-1.28c-.492-.493-.541-1.33-.935-1.87-.393-.591-1.033-.985-1.328-1.575a14.163,14.163,0,0,1-.3-2.019c-.147-.689-.787-1.329-.787-1.968,0-.689.787-1.28.935-1.92a8.1,8.1,0,0,1,.2-1.919,7.7,7.7,0,0,1,.689-1.871,8.568,8.568,0,0,1,1.279-1.624,12.7,12.7,0,0,1,1.723-1.082,7.9,7.9,0,0,1,1.87-.788,10.808,10.808,0,0,1,1.871-.836c.639-.1,1.377.541,2.017.541a12.062,12.062,0,0,1,1.871.148,7.5,7.5,0,0,1,1.821.393,7.578,7.578,0,0,1,1.87.591,8.451,8.451,0,0,1,1.575,1.132c.443.443.64,1.083,1.083,1.624.443.591,1.328.936,1.575,1.625a5.994,5.994,0,0,1,.2,2.313,4.194,4.194,0,0,1-.147,1.575m-6.5-3.5c-.492-.393-1.23-.246-1.722-.443a4.6,4.6,0,0,0-1.625-.2c-.59,0-1.132-.295-1.673-.1-.492.2-1.23.2-1.674.591-.393.344-.245,1.082-.59,1.624,0,.1-.2.2-.1.2,1.033,0,1.033-.491,2.067-.491s1.033.1,2.018.1c1.033,0,1.033.295,2.067.295.984,0,.984-.295,2.017-.246.148,0,.443.148.345.049a8.111,8.111,0,0,0-1.132-1.378" transform="translate(60.076 2.615)" fill="#fff"/>
        <path id="パス_1580" data-name="パス 1580" d="M193.362,24.177l.344-.049A2.655,2.655,0,0,1,192.771,26a2.269,2.269,0,0,1-1.771.837c-.05,0-.05.442-.1.442a3.037,3.037,0,0,1-1.969-.984,2.658,2.658,0,0,1-.689-1.87c0-.591.443-1.034-.147-1.083-.739-.1-.591.394-1.132.885-.443.444-.739,1.085-1.231,1.379a8.5,8.5,0,0,1-1.771.64,11.463,11.463,0,0,1-1.723.886c-.591.1-1.231-.542-1.871-.542a7.44,7.44,0,0,1-1.82.1,8.526,8.526,0,0,1-1.92-.2A15.322,15.322,0,0,1,175.1,25.36a10.656,10.656,0,0,1-1.427-1.182,9.8,9.8,0,0,1-1.181-1.328c-.345-.492-.148-1.231-.345-1.772s-.935-.935-1.033-1.526.393-1.181.393-1.772a10.761,10.761,0,0,1-.1-1.771,9.209,9.209,0,0,1,.443-1.674c.2-.59.738-.935,1.034-1.427.295-.542.246-1.28.639-1.723.443-.541,1.182-.689,1.674-1.132s.738-1.181,1.28-1.575c.59-.344,1.23-.59,1.82-.886s1.379-.049,1.969-.246a13.751,13.751,0,0,1,1.87-.59,12.774,12.774,0,0,1,1.969-.1,14.433,14.433,0,0,1,1.969.246,10.074,10.074,0,0,1,2.116.1,8.564,8.564,0,0,1,1.969.837c.443.3.59,1.083.984,1.526.345.443.886.787,1.132,1.329.3.492.049,1.182.2,1.772a9.043,9.043,0,0,1,.542,1.624c0,.049.049.049.049.148.049.984.492.935.541,1.919.049,1.033-.443,1.033-.394,2.068.049.984,0,.984.049,1.968s.443.984.492,1.969-.442,1.033-.393,2.017M187.9,14.531c-.148-1.231-.886-1.378-1.378-1.772a3.985,3.985,0,0,0-2.412-.738c-.049,0-.049-.3-.049-.3a8.457,8.457,0,0,0-1.772.444,14.464,14.464,0,0,0-1.624.689,8.428,8.428,0,0,0-1.378,1.033c-.493.345-1.428.246-1.821.689a5.567,5.567,0,0,0-.64,1.575,6.108,6.108,0,0,0,.1,1.624,3.273,3.273,0,0,0,.739,2.51,2.631,2.631,0,0,0,1.279.738c.492.247.935.69,1.427.69.542,0,.936-.591,1.428-.788a3.408,3.408,0,0,0,1.23-.837c.985-.934,1.428-.492,2.461-1.476a2.66,2.66,0,0,1,2.559-.738c.443-.69.1-.935.05-1.772a8.656,8.656,0,0,0-.2-1.575" transform="translate(68.025 2.646)" fill="#fff"/>
        <path id="パス_1581" data-name="パス 1581" d="M206.471,12.061c-.492.493-1.28.3-2.067.3s-1.427.738-2.166,1.131a5.969,5.969,0,0,0-1.722,1.428,4.824,4.824,0,0,0-.886,1.329,5.782,5.782,0,0,0-.787,1.428c-.148.539-.641,1.033-.591,1.575,0,.049.295.049.295.049,0,.836-.492.836-.492,1.722s.59.886.59,1.772-.492.886-.492,1.771a2.349,2.349,0,0,1-.59,1.822,2.486,2.486,0,0,1-1.87.738,2.9,2.9,0,0,1-2.067-.492,2.972,2.972,0,0,1-.64-2.068c0-.984-.2-.984-.2-1.968s-.2-.984-.2-1.969.541-.984.541-1.968-.049-.984-.049-1.969-.394-.985-.394-1.969.246-.984.246-1.969-.2-.984-.2-1.968.493-.984.493-1.92a2.254,2.254,0,0,1,.639-1.87c.492-.492,1.083-1.181,1.822-1.181a3.239,3.239,0,0,1,2.116.935,2.985,2.985,0,0,1,.541,2.116c0,.542-.295.689.1,1.083a11.71,11.71,0,0,1,1.624-1.525,9.382,9.382,0,0,1,2.116-.837A8.96,8.96,0,0,1,204.4,7.09V6.943a3.239,3.239,0,0,1,2.116.935,3.245,3.245,0,0,1,.837,2.116,3.17,3.17,0,0,1-.886,2.067" transform="translate(76.568 2.31)" fill="#fff"/>
        <path id="パス_1582" data-name="パス 1582" d="M231.179,18.537c0,.688.442,1.377.442,2.017,0,.739-.394,1.428-.394,2.019,0,1.23.3,1.033.3,2.017h-.148a3.167,3.167,0,0,1-.639,2.166,3.178,3.178,0,0,1-2.168.492,2.883,2.883,0,0,1-2.067-.59c-.492-.493-.393-1.28-.393-2.068,0-.984-.147-.787-.147-2.017,0-.591-.345-1.28-.345-2.019V18.537c0-.64.1-1.329.1-2.018a4.04,4.04,0,0,0-.59-1.674,3.681,3.681,0,0,0-1.082-1.378,4.662,4.662,0,0,0-1.575-1.033,7.1,7.1,0,0,0-1.873-.3,4.538,4.538,0,0,0-1.82.049c-.542.2-.839.936-1.231,1.329-.443.394-1.182.542-1.378.984-.246.493,0,1.133,0,1.674,0,1.083-.394,1.083-.394,2.116s.59,1.033.59,2.068c0,1.082-.048,1.082-.048,2.115s-.542,1.036-.542,2.068c0,.787.049,1.427-.443,1.92a2.928,2.928,0,0,1-1.919.984,2.83,2.83,0,0,1-1.822-1.083,2.411,2.411,0,0,1-.785-1.821c0-1.033-.443-1.033-.443-2.068V18.29c0-1.033.491-1.033.491-2.116,0-.394-.394-.886-.345-1.279,0-.1.3-.246.3-.444-.05-.442,0-1.082-.1-1.722a13.315,13.315,0,0,0-.394-1.477,3.011,3.011,0,0,0-.837-1.279,3,3,0,0,1-1.034-1.92,2.923,2.923,0,0,1,.985-1.968,2.384,2.384,0,0,1,1.919-.591,2.469,2.469,0,0,1,1.821.591,7.335,7.335,0,0,1,1.083,1.082,5.568,5.568,0,0,1,.739,1.132,9.193,9.193,0,0,1,1.722-.787,10.976,10.976,0,0,1,1.92-.64,8.611,8.611,0,0,1,1.968-.246,15.286,15.286,0,0,1,2.116-.05,9.39,9.39,0,0,1,3.694,1.871,9.793,9.793,0,0,1,1.72.984,8.186,8.186,0,0,1,1.526,1.379,12.392,12.392,0,0,1,.985,1.771,8.7,8.7,0,0,1,.295,1.968c.148.64.689,1.282.689,1.971s-.442,1.378-.442,2.018" transform="translate(82.868 2.184)" fill="#fff"/>
        <path id="パス_1583" data-name="パス 1583" d="M235.919,20.251c0,1.033.1,1.033.1,2.066,0,.985.295.985.295,2.018s-.541,1.034-.541,2.068c0,.737.148,1.525-.344,2.017s-1.231.444-2.018.444a2.305,2.305,0,0,1-1.772-.689c-.492-.542-1.231-1.036-1.231-1.772,0-1.034.443-.936.443-2.068,0-.64-.295-1.378-.295-2.067,0-1.132.148-1.033.148-2.017,0-1.036-.394-1.036-.394-2.068s.295-1.033.295-2.067-.049-1.034-.049-2.018c0-1.033.295-1.033.295-2.067a2.6,2.6,0,0,1,.64-1.919,2.806,2.806,0,0,1,1.92-.886c.738,0,1.181.639,1.673,1.131s1.034.935,1.034,1.674c0,1.034.1.886.1,2.067,0,.591.049,1.329.049,2.067,0,.689.1,1.427.1,2.018,0,1.182-.443,1.033-.443,2.068m-.2-14.176c-.148.59-.148,1.23-.591,1.575a2.559,2.559,0,0,1-1.722.344,3.046,3.046,0,0,1-.689.049c-.69-.2-1.034-.787-1.378-1.378s-.887-1.23-.739-1.919c.2-.738.542-.64.739-1.378a2.174,2.174,0,0,1,1.279-1.428,2.139,2.139,0,0,1,1.821-.295,2.213,2.213,0,0,1,1.427,1.133,2.27,2.27,0,0,1,.3,1.87c-.2.689-.246.689-.443,1.427" transform="translate(91.563 0.619)" fill="#fff"/>
        <path id="パス_1584" data-name="パス 1584" d="M262.659,18.537c0,.688.443,1.377.443,2.017,0,.739-.394,1.428-.394,2.019,0,1.23.3,1.033.3,2.017h-.148a3.167,3.167,0,0,1-.639,2.166,3.176,3.176,0,0,1-2.166.492,2.887,2.887,0,0,1-2.068-.59c-.491-.493-.393-1.28-.393-2.068,0-.984-.147-.787-.147-2.017,0-.591-.345-1.28-.345-2.019V18.537c0-.64.1-1.329.1-2.018a4,4,0,0,0-.591-1.674,3.654,3.654,0,0,0-1.082-1.378,4.608,4.608,0,0,0-1.575-1.033,7.073,7.073,0,0,0-1.87-.3,4.552,4.552,0,0,0-1.822.049c-.541.2-.837.936-1.23,1.329-.443.394-1.182.542-1.378.984-.246.493,0,1.133,0,1.674,0,1.083-.393,1.083-.393,2.116s.588,1.033.588,2.068c0,1.082-.049,1.082-.049,2.115s-.539,1.036-.539,2.068c0,.787.049,1.427-.444,1.92a2.928,2.928,0,0,1-1.919.984,2.837,2.837,0,0,1-1.822-1.083,2.417,2.417,0,0,1-.787-1.821c0-1.033-.442-1.033-.442-2.068V18.29c0-1.033.491-1.033.491-2.116,0-.394-.393-.886-.344-1.279,0-.1.295-.246.295-.444-.049-.442,0-1.082-.1-1.722a13.014,13.014,0,0,0-.394-1.477,3.053,3.053,0,0,0-.836-1.279,3,3,0,0,1-1.034-1.92,2.923,2.923,0,0,1,.985-1.968,2.381,2.381,0,0,1,1.919-.591,2.464,2.464,0,0,1,1.82.591,7.416,7.416,0,0,1,1.085,1.082,5.681,5.681,0,0,1,.738,1.132,9.2,9.2,0,0,1,1.722-.787,11.013,11.013,0,0,1,1.92-.64,8.6,8.6,0,0,1,1.969-.246,15.271,15.271,0,0,1,2.115-.05,9.551,9.551,0,0,1,1.971.739,9.421,9.421,0,0,1,1.722,1.132,9.656,9.656,0,0,1,1.722.984,8.144,8.144,0,0,1,1.526,1.379,12.251,12.251,0,0,1,.984,1.771,8.547,8.547,0,0,1,.3,1.968c.148.64.689,1.282.689,1.971s-.443,1.378-.443,2.018" transform="translate(95.385 2.184)" fill="#fff"/>
        <path id="パス_1585" data-name="パス 1585" d="M281.331,17.035v1.919c0,.985.2.985.2,1.92,0,.984-.345.984-.345,1.919,0,.985.443.985.443,1.969,0,.64-.542,1.279-.542,1.919-.049.64.2,1.28.1,1.92a14.022,14.022,0,0,1-.688,1.821,9.832,9.832,0,0,1-.69,2.018c-.394.59-1.181.837-1.723,1.328a11.392,11.392,0,0,1-1.673,1.28,14.745,14.745,0,0,1-1.772.739,14.619,14.619,0,0,1-1.821.787,12.73,12.73,0,0,1-1.969.344s0-.2-.049-.2a9.411,9.411,0,0,1-1.919-.542c-.64-.1-1.477.247-2.067,0-.64-.246-.935-1.083-1.477-1.477a12,12,0,0,1-1.477-1.279c-.442-.492-1.18-.738-1.525-1.329-.394-.64,0-1.378.2-2.017a2.2,2.2,0,0,1,1.083-1.477c.689-.345,1.28-.837,1.969-.689.688.2.935.935,1.328,1.575.345.64,1.182.935,1.871,1.279a4.657,4.657,0,0,0,2.066.148c.542,0,1.036.295,1.526.148a6.6,6.6,0,0,0,1.329-.837c1.132-.689,1.575-.837,1.87-1.575a5.1,5.1,0,0,0,.542-1.673c.049-.493-.1-1.28-.1-1.92a10.66,10.66,0,0,1-2.068.542c-.689.147-1.328.64-2.017.64v-.4a8.91,8.91,0,0,1-1.969-.147,13.509,13.509,0,0,1-1.87-.591c-.591-.295-1.428-.147-2.02-.541-.539-.345-.689-1.231-1.18-1.723-.444-.442-1.33-.59-1.674-1.132a12.045,12.045,0,0,1-.541-1.919,14.273,14.273,0,0,1-.837-1.772,8.747,8.747,0,0,1,.049-1.968,10.083,10.083,0,0,1,.1-2.117,9.922,9.922,0,0,1,.444-2.166A9.263,9.263,0,0,1,263.76,10a9.485,9.485,0,0,1,1.477-1.674c.443-.345,1.28-.246,1.771-.492.542-.295.985-.837,1.575-.984a10.212,10.212,0,0,1,1.774-.344,10.6,10.6,0,0,1,1.82-.2,12.58,12.58,0,0,1,2.265.542,13.632,13.632,0,0,1,2.362.885,2.608,2.608,0,0,1,1.87-.787c.738,0,1.477-.148,1.969.345a2.731,2.731,0,0,1,.541,2.017v3.839c0,.985.591.985.591,1.971,0,.935-.443.935-.443,1.919m-5.168-2.117c0-.935-.393-.935-.493-1.87-.147-.049.1-.492-.049-.591-.539-.295-1.279,0-1.82-.147a7.552,7.552,0,0,0-1.625-.493,6.647,6.647,0,0,0-1.771.444,5.248,5.248,0,0,0-1.526.935c-.492.394-1.132.59-1.378,1.082-.246.542,0,1.133,0,1.774,0,.539-.344,1.18-.1,1.771.246.493.837.738,1.28,1.181a4.751,4.751,0,0,0,1.476,1.034c.64.246,1.182.886,1.774.886a5.262,5.262,0,0,0,1.87-.493,4.566,4.566,0,0,0,1.476-1.131c.246-.246.1-.542.344-.689.15-.935.542-.886.591-1.821s-.049-.936-.049-1.871" transform="translate(104.077 2.506)" fill="#fff"/>
        <path id="パス_1586" data-name="パス 1586" d="M287.616,26.026c-.1.689-.541,1.328-.689,2.017a3.006,3.006,0,0,1-1.132,1.33,2.773,2.773,0,0,1-1.575.64,3.968,3.968,0,0,1-.738-.148,2.9,2.9,0,0,1-1.722-1.182,2.958,2.958,0,0,1-.3-2.165A9.4,9.4,0,0,0,282,24.2a18.291,18.291,0,0,0-.147-2.362c0-.738-.049-1.477-.049-2.067a3.354,3.354,0,0,1,.689-2.165,3.281,3.281,0,0,1,2.066-.985,3.388,3.388,0,0,1,2.166.739,3.3,3.3,0,0,1,.739,2.066c.049.739-.1,1.526-.1,2.412,0,.64.493,1.378.443,2.067s-.1,1.428-.2,2.117" transform="translate(111.866 6.607)" fill="#fff"/>
        <path id="パス_1587" data-name="パス 1587" d="M317.99,24.406c-.394.443-.443,1.28-.935,1.722-.443.4-1.231.444-1.772.788a17.4,17.4,0,0,1-1.625.936c-.539.246-.984.787-1.624.984a10.834,10.834,0,0,1-1.771.591,12.224,12.224,0,0,1-1.92.147,11.355,11.355,0,0,1-1.87.2v.1c-.493,0-.984.247-1.428.2-.64-.049-1.279-.148-1.87-.246s-1.132-.64-1.722-.787c-.591-.2-1.083-.542-1.673-.788a9.5,9.5,0,0,1-1.575-.837,15.441,15.441,0,0,1-1.428-1.082c-.443-.394-1.132-.591-1.526-1.034a9.818,9.818,0,0,1-1.083-1.87c-.393-.591-1.328-.886-1.624-1.575-.246-.64.2-1.575,0-2.264a14.386,14.386,0,0,1-.787-2.018,15.078,15.078,0,0,1-.05-2.116c0-.148-.442-.3-.442-.345,0-.688.64-1.328.738-2.018s.148-1.329.295-2.018c.2-.64.542-1.23.788-1.821.245-.64.245-1.427.541-2.018A20.1,20.1,0,0,1,295.005,5.7c.442-.541.442-1.426.935-1.919s1.328-.542,1.919-.935a11.446,11.446,0,0,1,1.771-.836c.64-.3,1.085-.935,1.773-1.133a12.914,12.914,0,0,1,1.968-.541c.984-.1,1.969-.2,2.9-.2.591,0,1.181.443,1.772.492a10.134,10.134,0,0,1,1.771.444,10.33,10.33,0,0,1,1.773.245,17.68,17.68,0,0,1,1.722.69c.541.245.837.885,1.328,1.228.493.4,1.182.493,1.627.886a17.131,17.131,0,0,1,1.279,1.329l.049-.049a2.658,2.658,0,0,1,.64,1.969c0,.69-.542,1.083-1.132,1.575-.541.541-.985,1.329-1.723,1.279a3.261,3.261,0,0,1-2.067-.984c-.492-.541-.64-1.378-1.132-1.82-.541-.444-1.427-.345-2.018-.591a7.92,7.92,0,0,0-1.821-.935,14.353,14.353,0,0,0-2.067,0,14.863,14.863,0,0,0-2.166-.148,7.661,7.661,0,0,0-1.919.935c-.64.295-1.525.246-2.067.689a7.6,7.6,0,0,0-1.379,1.674,9.279,9.279,0,0,0-.836,2.017,12.748,12.748,0,0,0-.393,2.068c-.1.689-.591,1.329-.64,2.067,0,.1.1.2.1.246a9.947,9.947,0,0,0,.492,2.166,6.132,6.132,0,0,0,.739,2.017,6.69,6.69,0,0,0,1.082,1.92,7,7,0,0,0,1.428.886c.491.344.689,1.181,1.279,1.378.492.2,1.181,0,1.772.1a9.6,9.6,0,0,0,1.723.295,6.812,6.812,0,0,0,.984.2c.738,0,1.378-.541,2.067-.64a9.945,9.945,0,0,0,2.165-.295,8.889,8.889,0,0,0,1.822-1.181,14.108,14.108,0,0,0,1.378-1.624,3.185,3.185,0,0,1,2.165-.887c.689,0,1.231.591,1.822,1.085a2.555,2.555,0,0,1,.787,1.771,2.161,2.161,0,0,1-.689,1.772" transform="translate(115.797 0.056)" fill="#fff"/>
        <path id="パス_1588" data-name="パス 1588" d="M334.962,29.011a2.978,2.978,0,0,1-1.919,1.034c-.788,0-1.231-.788-1.722-1.28a2.288,2.288,0,0,1-.887-1.722,12.061,12.061,0,0,1-.148-2.019c0-.59-.295-1.279-.295-2.017,0-.64.295-1.329.295-2.018,0-.64-.295-1.329-.295-2.019,0-.639.492-1.279.394-1.771a4.28,4.28,0,0,0-1.083-1.477,3.6,3.6,0,0,0-1.28-.935c-.393-.147-.935.148-1.575.148a6.713,6.713,0,0,0-1.771.049,2.918,2.918,0,0,0-1.428,1.034c-.344.344-1.181.443-1.377.984a5.585,5.585,0,0,0-.1,1.624c0,.148.345.246.345.344,0,1.036-.542,1.036-.542,2.019,0,1.033.591,1.033.591,2.018,0,1.033.1,1.033.1,2.017,0,1.034-.049,1.034-.049,2.019a3.1,3.1,0,0,1-1.033,1.968,3.163,3.163,0,0,1-1.971,1.083,3.428,3.428,0,0,1-2.165-.886c-.492-.492-.443-1.427-.443-2.165,0-.985-.3-.788-.3-1.969,0-.591.345-1.279.345-2.018,0-.64-.1-1.28-.1-2.018,0-.64-.3-1.329-.3-1.968,0-.689.049-1.329.049-2.019s.05-1.329.05-2.018.1-1.328.1-1.968c0-.738.344-1.428.344-2.018,0-1.181-.64-.985-.64-1.969s.345-.984.345-2.018c0-.984-.148-.984-.148-1.968s.345-.984.345-2.019a2.752,2.752,0,0,1,.443-2.017,3.038,3.038,0,0,1,2.066-.738,3,3,0,0,1,2.068.689,3.036,3.036,0,0,1,.738,2.066c0,.886-.443.886-.443,1.774s.394.886.394,1.722c0,.886-.3.886-.3,1.772s-.442,1.082-.049,1.87a13.876,13.876,0,0,1,2.559-.639,11.768,11.768,0,0,1,2.264-.64c.689,0,1.28.491,1.92.59a8.652,8.652,0,0,1,1.968.2A11.654,11.654,0,0,1,331.96,10.8a11.8,11.8,0,0,1,1.476,1.28,8.307,8.307,0,0,1,.837,1.624,10.2,10.2,0,0,1,.64,1.722,10.47,10.47,0,0,1,.345,1.772,10.316,10.316,0,0,1,.246,1.771c0,.69.393,1.379.393,2.019v2.018c0,.738-.246,1.427-.246,2.017a4.434,4.434,0,0,0,.444,2.019,2.9,2.9,0,0,1-1.133,1.968" transform="translate(125.695 0.126)" fill="#fff"/>
        <path id="パス_1589" data-name="パス 1589" d="M357.957,24.177l.344-.049A2.655,2.655,0,0,1,357.365,26a2.269,2.269,0,0,1-1.771.837c-.05,0-.05.442-.1.442a3.033,3.033,0,0,1-1.968-.984,2.652,2.652,0,0,1-.689-1.87c0-.591.443-1.034-.147-1.083-.739-.1-.591.394-1.133.885-.442.444-.738,1.085-1.23,1.379a8.533,8.533,0,0,1-1.771.64,11.476,11.476,0,0,1-1.725.886c-.59.1-1.23-.542-1.87-.542a7.448,7.448,0,0,1-1.82.1,8.526,8.526,0,0,1-1.92-.2A15.324,15.324,0,0,1,339.7,25.36a10.656,10.656,0,0,1-1.427-1.182,9.71,9.71,0,0,1-1.181-1.328c-.345-.492-.148-1.231-.345-1.772s-.935-.935-1.034-1.526.394-1.181.394-1.772a10.758,10.758,0,0,1-.1-1.771,9.208,9.208,0,0,1,.443-1.674c.2-.59.738-.935,1.034-1.427.295-.542.246-1.28.639-1.723.443-.541,1.182-.689,1.673-1.132s.738-1.181,1.28-1.575c.591-.344,1.231-.59,1.821-.886s1.378-.049,1.969-.246a13.749,13.749,0,0,1,1.87-.59,12.775,12.775,0,0,1,1.969-.1,14.414,14.414,0,0,1,1.968.246,10.086,10.086,0,0,1,2.117.1,8.53,8.53,0,0,1,1.968.837c.444.3.591,1.083.985,1.526.344.443.886.787,1.132,1.329.3.492.049,1.182.2,1.772a8.829,8.829,0,0,1,.542,1.624c0,.049.049.049.049.148.049.984.493.935.542,1.919.049,1.033-.443,1.033-.394,2.068.049.984,0,.984.049,1.968s.443.984.492,1.969-.443,1.033-.393,2.017m-5.463-9.646c-.148-1.231-.887-1.378-1.378-1.772a3.989,3.989,0,0,0-2.412-.738c-.049,0-.049-.3-.049-.3a8.47,8.47,0,0,0-1.773.444,14.575,14.575,0,0,0-1.624.689,8.423,8.423,0,0,0-1.377,1.033c-.493.345-1.428.246-1.822.689a5.607,5.607,0,0,0-.639,1.575,6.108,6.108,0,0,0,.1,1.624,3.273,3.273,0,0,0,.739,2.51,2.624,2.624,0,0,0,1.279.738c.492.247.935.69,1.427.69.542,0,.935-.591,1.428-.788a3.419,3.419,0,0,0,1.23-.837c.985-.934,1.427-.492,2.461-1.476a2.66,2.66,0,0,1,2.559-.738c.443-.69.1-.935.05-1.772a8.654,8.654,0,0,0-.2-1.575" transform="translate(133.462 2.646)" fill="#fff"/>
        <path id="パス_1590" data-name="パス 1590" d="M379.926,18.537c0,.688.443,1.377.443,2.017,0,.739-.394,1.428-.394,2.019,0,1.23.3,1.033.3,2.017h-.148a3.167,3.167,0,0,1-.639,2.166,3.175,3.175,0,0,1-2.166.492,2.887,2.887,0,0,1-2.068-.59c-.491-.493-.393-1.28-.393-2.068,0-.984-.147-.787-.147-2.017,0-.591-.345-1.28-.345-2.019V18.537c0-.64.1-1.329.1-2.018a4,4,0,0,0-.591-1.674,3.653,3.653,0,0,0-1.082-1.378,4.607,4.607,0,0,0-1.575-1.033,7.073,7.073,0,0,0-1.87-.3,4.552,4.552,0,0,0-1.822.049c-.541.2-.837.936-1.23,1.329-.443.394-1.182.542-1.378.984-.246.493,0,1.133,0,1.674,0,1.083-.393,1.083-.393,2.116s.588,1.033.588,2.068c0,1.082-.049,1.082-.049,2.115s-.539,1.036-.539,2.068c0,.787.049,1.427-.444,1.92a2.928,2.928,0,0,1-1.919.984,2.837,2.837,0,0,1-1.822-1.083,2.417,2.417,0,0,1-.787-1.821c0-1.033-.442-1.033-.442-2.068V18.29c0-1.033.49-1.033.49-2.116,0-.394-.393-.886-.344-1.279,0-.1.295-.246.295-.444-.049-.442,0-1.082-.1-1.722a13.014,13.014,0,0,0-.394-1.477,3.053,3.053,0,0,0-.836-1.279,3,3,0,0,1-1.036-1.92,2.925,2.925,0,0,1,.987-1.968,2.381,2.381,0,0,1,1.919-.591,2.464,2.464,0,0,1,1.82.591A7.414,7.414,0,0,1,363,7.167a5.682,5.682,0,0,1,.738,1.132,9.194,9.194,0,0,1,1.722-.787,11.015,11.015,0,0,1,1.92-.64,8.6,8.6,0,0,1,1.969-.246,15.271,15.271,0,0,1,2.115-.05,9.55,9.55,0,0,1,1.971.739,9.42,9.42,0,0,1,1.722,1.132,9.656,9.656,0,0,1,1.722.984A8.139,8.139,0,0,1,378.4,10.81a12.249,12.249,0,0,1,.984,1.771,8.547,8.547,0,0,1,.3,1.968c.148.64.689,1.282.689,1.971s-.443,1.378-.443,2.018" transform="translate(142.005 2.184)" fill="#fff"/>
        <path id="パス_1591" data-name="パス 1591" d="M398.6,17.035v1.919c0,.985.2.985.2,1.92,0,.984-.345.984-.345,1.919,0,.985.443.985.443,1.969,0,.64-.542,1.279-.542,1.919-.049.64.2,1.28.1,1.92a14.013,14.013,0,0,1-.688,1.821,9.834,9.834,0,0,1-.69,2.018c-.394.59-1.181.837-1.723,1.328a11.393,11.393,0,0,1-1.673,1.28,14.755,14.755,0,0,1-1.772.739,14.624,14.624,0,0,1-1.821.787,12.73,12.73,0,0,1-1.969.344s0-.2-.049-.2a9.41,9.41,0,0,1-1.919-.542c-.64-.1-1.477.247-2.067,0-.64-.246-.935-1.083-1.477-1.477a12.012,12.012,0,0,1-1.477-1.279c-.442-.492-1.18-.738-1.525-1.329-.394-.64,0-1.378.2-2.017a2.2,2.2,0,0,1,1.083-1.477c.689-.345,1.28-.837,1.969-.689.688.2.935.935,1.328,1.575.345.64,1.182.935,1.871,1.279a4.657,4.657,0,0,0,2.066.148c.542,0,1.036.295,1.526.148a6.6,6.6,0,0,0,1.329-.837c1.132-.689,1.575-.837,1.87-1.575a5.1,5.1,0,0,0,.542-1.673c.049-.493-.1-1.28-.1-1.92a10.662,10.662,0,0,1-2.068.542c-.689.147-1.328.64-2.017.64v-.4a8.909,8.909,0,0,1-1.969-.147,13.507,13.507,0,0,1-1.87-.591c-.591-.295-1.428-.147-2.019-.541-.539-.345-.689-1.231-1.18-1.723-.444-.442-1.33-.59-1.674-1.132a12.042,12.042,0,0,1-.541-1.919,14.282,14.282,0,0,1-.837-1.772,8.745,8.745,0,0,1,.049-1.968,10.083,10.083,0,0,1,.1-2.117,9.915,9.915,0,0,1,.444-2.166A9.261,9.261,0,0,1,381.026,10,9.485,9.485,0,0,1,382.5,8.322c.443-.345,1.28-.246,1.771-.492.542-.295.985-.837,1.575-.984a10.211,10.211,0,0,1,1.773-.344,10.605,10.605,0,0,1,1.82-.2,12.579,12.579,0,0,1,2.266.542,13.632,13.632,0,0,1,2.362.885,2.608,2.608,0,0,1,1.87-.787c.738,0,1.477-.148,1.969.345a2.73,2.73,0,0,1,.541,2.017v3.839c0,.985.591.985.591,1.971,0,.935-.443.935-.443,1.919m-5.168-2.117c0-.935-.393-.935-.493-1.87-.147-.049.1-.492-.049-.591-.539-.295-1.279,0-1.82-.147a7.551,7.551,0,0,0-1.625-.493,6.647,6.647,0,0,0-1.771.444,5.247,5.247,0,0,0-1.526.935c-.492.394-1.132.59-1.378,1.082-.246.542,0,1.133,0,1.774,0,.539-.344,1.18-.1,1.771.246.493.837.738,1.28,1.181a4.752,4.752,0,0,0,1.476,1.034c.64.246,1.182.886,1.774.886a5.261,5.261,0,0,0,1.87-.493,4.566,4.566,0,0,0,1.476-1.131c.246-.246.1-.542.344-.689.15-.935.542-.886.591-1.821s-.049-.936-.049-1.871" transform="translate(150.698 2.506)" fill="#fff"/>
        <path id="パス_1592" data-name="パス 1592" d="M419.06,16.531c-.147.442-.689.688-1.082,1.132-.1.147-.049.2-.147.344a3.127,3.127,0,0,1-1.773.936,9.8,9.8,0,0,1-2.017.147c-.935,0-.935.049-1.821.049-.936,0-.936.295-1.822.295s-.886-.393-1.821-.393h-1.771c-.936,0-.985-.345-1.871-.1.345.442.493.984.837,1.18a6.011,6.011,0,0,0,2.018,1.034,7,7,0,0,0,2.264.049,5.271,5.271,0,0,0,2.017-.394,3.266,3.266,0,0,1,2.265.246,2.83,2.83,0,0,1,1.378,1.624,2.628,2.628,0,0,1-.2,2.019c-.3.64-.591,1.427-1.329,1.722a12.9,12.9,0,0,1-2.067.2,14.925,14.925,0,0,1-2.067-.049c-.689,0-1.477.64-2.215.492a9.9,9.9,0,0,1-2.117-.738,12.31,12.31,0,0,1-1.968-.984,13.3,13.3,0,0,1-1.771-1.28c-.493-.493-.542-1.33-.936-1.87-.393-.591-1.033-.985-1.328-1.575a13.955,13.955,0,0,1-.3-2.019c-.148-.689-.788-1.329-.788-1.968,0-.689.788-1.28.935-1.92a8.168,8.168,0,0,1,.2-1.919,7.7,7.7,0,0,1,.689-1.871,8.513,8.513,0,0,1,1.279-1.624,12.77,12.77,0,0,1,1.722-1.082,7.909,7.909,0,0,1,1.871-.788,10.843,10.843,0,0,1,1.87-.836c.64-.1,1.378.541,2.018.541a12.045,12.045,0,0,1,1.87.148,7.472,7.472,0,0,1,1.821.393,7.608,7.608,0,0,1,1.871.591,8.5,8.5,0,0,1,1.575,1.132c.442.443.64,1.083,1.082,1.624.444.591,1.329.936,1.575,1.625a5.967,5.967,0,0,1,.2,2.313,4.2,4.2,0,0,1-.148,1.575m-6.5-3.5c-.493-.393-1.231-.246-1.722-.443a4.608,4.608,0,0,0-1.625-.2c-.59,0-1.132-.295-1.673-.1-.492.2-1.231.2-1.674.591-.393.344-.246,1.082-.59,1.624,0,.1-.2.2-.1.2,1.033,0,1.033-.491,2.066-.491s1.036.1,2.019.1c1.033,0,1.033.295,2.066.295.985,0,.985-.295,2.018-.246.148,0,.444.148.345.049a8.179,8.179,0,0,0-1.132-1.378" transform="translate(158.484 2.615)" fill="#fff"/>
        <path id="パス_1593" data-name="パス 1593" d="M451.918,6.694a3.458,3.458,0,0,1-2.215.393,2.869,2.869,0,0,1-1.968-.738,2.367,2.367,0,0,0-1.723-.788,2.875,2.875,0,0,0-2.46,1.133c-.247.344-.15.935-.345,1.575a7.239,7.239,0,0,0-.148,1.526c0,.1-.394.049-.295.1a17.649,17.649,0,0,0,2.312-.2c1.182,0,1.182.443,2.363.443a2.379,2.379,0,0,1,1.723.886c.492.492,1.378.935,1.378,1.722a3.482,3.482,0,0,1-.935,2.166,3.384,3.384,0,0,1-2.166.836c-1.181,0-1.181-.293-2.363-.293-1.131,0-1.229-.493-2.115.293-.738.591-.444.69-.444,1.674s.542.985.542,1.969-.443.984-.443,1.968.3.985.3,1.969V25.3c0,.934-.148.934-.148,1.92a2.837,2.837,0,0,1-.738,2.017,2.92,2.92,0,0,1-2.018.738,2.762,2.762,0,0,1-1.92-.836,2.49,2.49,0,0,1-.541-1.919c0-.987-.394-.987-.394-1.971s.443-.984.443-1.968c0-.935-.493-.935-.493-1.92s-.147-.984-.147-1.968.3-.984.3-1.969.737-1.23.1-2.018c-.492-.59-.886-.246-1.673-.246a2.533,2.533,0,0,1-1.92-.492,2.979,2.979,0,0,1-1.033-1.92,2.892,2.892,0,0,1,1.131-1.87,2.416,2.416,0,0,1,1.822-.689,9.074,9.074,0,0,0,1.624-.2c.1,0,0-.1,0-.2a12.175,12.175,0,0,1,.049-2.314,11.092,11.092,0,0,1,.935-2.067,9.12,9.12,0,0,1,1.23-1.821,8.538,8.538,0,0,1,1.329-1.329,8.579,8.579,0,0,1,1.526-1.082c.542-.247,1.033-.837,1.673-.935A8.527,8.527,0,0,1,446.012,0a10.908,10.908,0,0,1,2.116.493,7.482,7.482,0,0,1,2.018.689c.591.344.935.984,1.477,1.525.492.59,1.279,1.132,1.23,1.821a3.332,3.332,0,0,1-.935,2.166" transform="translate(172.037)" fill="#fff"/>
        <path id="パス_1594" data-name="パス 1594" d="M473.77,26.646a3.2,3.2,0,0,1-1.378.64,3.3,3.3,0,0,1-1.379-.1c-.491-.3-.688-1.034-1.082-1.379-.443-.344-.935-.295-1.28-.738-.442.394-1.082.246-1.575.542a11.466,11.466,0,0,1-1.624.689c-.59.2-1.033.984-1.624,1.082-.59.049-1.279-.393-1.87-.393-.049,0-.049.295-.1.295a8.3,8.3,0,0,1-1.92-.344,12.508,12.508,0,0,1-2.018-.345,12.385,12.385,0,0,1-1.722-1.083,7.946,7.946,0,0,1-1.329-1.525,8.443,8.443,0,0,1-1.083-1.526,12.846,12.846,0,0,1-.492-1.871c-.148-.59-.69-1.132-.788-1.722-.1-.639.295-1.279.295-1.919,0-.69-.393-1.379-.393-2.019V12.914c0-.739.491-1.428.491-2.019,0-1.228-.2-1.033-.2-2.017a2.4,2.4,0,0,1,.984-1.723,2.278,2.278,0,0,1,1.674-.886,2.645,2.645,0,0,1,1.968.64,2.875,2.875,0,0,1,.935,1.969,12.151,12.151,0,0,0-.147,2.017c0,.591-.049,1.28-.049,2.019,0,.64.2,1.328.2,2.017,0,.64.2,1.329.2,2.019s-.393,1.329-.246,1.869a5.222,5.222,0,0,0,.738,1.822,3.752,3.752,0,0,0,1.379.984,4.05,4.05,0,0,0,1.624.148,4.212,4.212,0,0,0,1.722-.64c.64-.2,1.477-.049,1.92-.443a5.452,5.452,0,0,0,.639-1.723,4.644,4.644,0,0,0,.444-1.673c0-1.034-.64-1.034-.64-2.067s.689-1.034.689-2.067-.591-1.034-.591-2.068.1-1.033.1-2.066c0-.739.64-1.28,1.133-1.772a2.473,2.473,0,0,1,1.771-.887,2.786,2.786,0,0,1,2.02.64,3.292,3.292,0,0,1,1.082,2.019c0,1.033-.2,1.033-.2,2.066s-.493,1.034-.493,2.068.1,1.033.1,2.067-.147,1.033-.147,2.067c0,.345.443.64.394.985a2.873,2.873,0,0,1,.1.639,4.517,4.517,0,0,0,.739,1.673c.344.64.59,1.427.836,1.526a2.547,2.547,0,0,1,1.132,1.526c.2.689.542,1.378.2,2.018-.246.492-.739.689-1.132.984" transform="translate(179.863 2.492)" fill="#fff"/>
        <path id="パス_1595" data-name="パス 1595" d="M488.41,13.576c-.492.493-1.033,1.28-1.772,1.28a6.63,6.63,0,0,1-1.673-.295c-.836-.1-1.132-.689-1.722-.1s-.3.887-.3,1.723.542.837.542,1.673-.295.837-.295,1.674a7.767,7.767,0,0,0,.1,1.624,3.032,3.032,0,0,0,.886,1.378c.442.443.984.492,1.87.492a3.1,3.1,0,0,1,2.018.936,3.158,3.158,0,0,1,.984,2.017A3.165,3.165,0,0,1,488.067,28a2.8,2.8,0,0,1-2.018.541l-.05.247a8.728,8.728,0,0,1-2.116-.493,5.477,5.477,0,0,1-1.919-.787,5.965,5.965,0,0,1-1.575-1.379,7.819,7.819,0,0,1-1.231-1.328,8.831,8.831,0,0,1-.788-1.674,10.288,10.288,0,0,1-.245-1.772,10.745,10.745,0,0,1-.2-1.82c0-.837.246-.837.246-1.674s-.2-.836-.2-1.673.444-1.034.049-1.772c-.2-.394-.64.2-1.082.2a3.141,3.141,0,0,1-2.117-.689,3.35,3.35,0,0,1-.935-2.117,3.156,3.156,0,0,1,1.083-2.017,2.7,2.7,0,0,1,1.969-.591c.442,0,.59.246.738-.2.443-1.181-.049-1.23-.049-2.51a2.868,2.868,0,0,1,1.033-1.87,2.693,2.693,0,0,1,1.87-.886,2.867,2.867,0,0,1,2.019.788,2.726,2.726,0,0,1,.64,1.968c0,1.28-.345,1.329.344,2.411.443.689.591.493,1.427.493s.837-.344,1.673-.344a2.688,2.688,0,0,1,1.87.886,2.874,2.874,0,0,1,1.133,1.869c0,.739-.738,1.28-1.231,1.772" transform="translate(188.403 1.484)" fill="#fff"/>
        <path id="パス_1596" data-name="パス 1596" d="M511.8,26.646a3.2,3.2,0,0,1-1.377.64,3.3,3.3,0,0,1-1.379-.1c-.492-.3-.689-1.034-1.082-1.379-.443-.344-.936-.295-1.28-.738-.443.394-1.083.246-1.575.542a11.536,11.536,0,0,1-1.624.689c-.591.2-1.033.984-1.624,1.082-.591.049-1.28-.393-1.871-.393-.049,0-.049.295-.1.295a8.316,8.316,0,0,1-1.92-.344,12.537,12.537,0,0,1-2.018-.345,12.553,12.553,0,0,1-1.722-1.083,7.992,7.992,0,0,1-1.329-1.525,8.509,8.509,0,0,1-1.083-1.526,13.214,13.214,0,0,1-.492-1.871c-.148-.59-.689-1.132-.788-1.722-.1-.639.3-1.279.3-1.919,0-.69-.394-1.379-.394-2.019V12.914c0-.739.492-1.428.492-2.019,0-1.228-.2-1.033-.2-2.017a2.392,2.392,0,0,1,.984-1.723,2.276,2.276,0,0,1,1.673-.886,2.648,2.648,0,0,1,1.969.64,2.88,2.88,0,0,1,.935,1.969,12.156,12.156,0,0,0-.147,2.017c0,.591-.05,1.28-.05,2.019,0,.64.2,1.328.2,2.017,0,.64.2,1.329.2,2.019s-.394,1.329-.246,1.869a5.2,5.2,0,0,0,.738,1.822,3.747,3.747,0,0,0,1.378.984,4.055,4.055,0,0,0,1.624.148,4.219,4.219,0,0,0,1.723-.64c.639-.2,1.476-.049,1.919-.443a5.453,5.453,0,0,0,.64-1.723,4.671,4.671,0,0,0,.443-1.673c0-1.034-.639-1.034-.639-2.067s.688-1.034.688-2.067-.59-1.034-.59-2.068.1-1.033.1-2.066c0-.739.64-1.28,1.132-1.772a2.478,2.478,0,0,1,1.772-.887,2.782,2.782,0,0,1,2.018.64,3.285,3.285,0,0,1,1.082,2.019c0,1.033-.2,1.033-.2,2.066s-.492,1.034-.492,2.068.1,1.033.1,2.067-.147,1.033-.147,2.067c0,.345.442.64.393.985a2.873,2.873,0,0,1,.1.639,4.517,4.517,0,0,0,.739,1.673c.345.64.591,1.427.836,1.526a2.549,2.549,0,0,1,1.133,1.526c.2.689.541,1.378.2,2.018-.246.492-.739.689-1.133.984" transform="translate(194.984 2.492)" fill="#fff"/>
        <path id="パス_1597" data-name="パス 1597" d="M525.8,12.061c-.493.493-1.28.3-2.067.3s-1.428.738-2.165,1.131a5.98,5.98,0,0,0-1.725,1.428,4.886,4.886,0,0,0-.886,1.329,5.829,5.829,0,0,0-.787,1.428c-.147.539-.64,1.033-.591,1.575,0,.049.3.049.3.049,0,.836-.492.836-.492,1.722s.59.886.59,1.772-.492.886-.492,1.771a2.349,2.349,0,0,1-.59,1.822,2.487,2.487,0,0,1-1.871.738,2.9,2.9,0,0,1-2.066-.492,2.972,2.972,0,0,1-.64-2.068c0-.984-.2-.984-.2-1.968s-.2-.984-.2-1.969.542-.984.542-1.968-.049-.984-.049-1.969-.394-.985-.394-1.969.246-.984.246-1.969-.2-.984-.2-1.968.492-.984.492-1.92a2.255,2.255,0,0,1,.64-1.87c.493-.492,1.083-1.181,1.821-1.181a3.243,3.243,0,0,1,2.117.935,2.985,2.985,0,0,1,.541,2.116c0,.542-.295.689.1,1.083a11.557,11.557,0,0,1,1.624-1.525,9.381,9.381,0,0,1,2.116-.837,8.945,8.945,0,0,1,2.215-.493V6.943a3.239,3.239,0,0,1,2.116.935,3.245,3.245,0,0,1,.837,2.116,3.163,3.163,0,0,1-.886,2.067" transform="translate(203.524 2.31)" fill="#fff"/>
        <path id="パス_1598" data-name="パス 1598" d="M548.2,16.531c-.147.442-.689.688-1.082,1.132-.1.147-.049.2-.147.344a3.126,3.126,0,0,1-1.773.936,9.8,9.8,0,0,1-2.017.147c-.935,0-.935.049-1.821.049-.936,0-.936.295-1.822.295s-.886-.393-1.821-.393h-1.771c-.936,0-.985-.345-1.871-.1.345.442.493.984.837,1.18a6.011,6.011,0,0,0,2.018,1.034,7,7,0,0,0,2.264.049,5.271,5.271,0,0,0,2.017-.394,3.266,3.266,0,0,1,2.265.246,2.83,2.83,0,0,1,1.378,1.624,2.628,2.628,0,0,1-.2,2.019c-.3.64-.591,1.427-1.329,1.722a12.9,12.9,0,0,1-2.067.2,14.926,14.926,0,0,1-2.067-.049c-.689,0-1.477.64-2.215.492a9.9,9.9,0,0,1-2.117-.738,12.311,12.311,0,0,1-1.968-.984,13.3,13.3,0,0,1-1.771-1.28c-.493-.493-.542-1.33-.936-1.87-.393-.591-1.033-.985-1.328-1.575a13.972,13.972,0,0,1-.3-2.019c-.148-.689-.788-1.329-.788-1.968,0-.689.788-1.28.935-1.92a8.168,8.168,0,0,1,.2-1.919,7.706,7.706,0,0,1,.689-1.871,8.514,8.514,0,0,1,1.279-1.624,12.762,12.762,0,0,1,1.722-1.082,7.907,7.907,0,0,1,1.871-.788,10.844,10.844,0,0,1,1.87-.836c.64-.1,1.378.541,2.018.541a12.045,12.045,0,0,1,1.87.148,7.472,7.472,0,0,1,1.821.393,7.607,7.607,0,0,1,1.871.591,8.5,8.5,0,0,1,1.575,1.132c.442.443.64,1.083,1.082,1.624.444.591,1.329.936,1.575,1.625a5.966,5.966,0,0,1,.2,2.313,4.2,4.2,0,0,1-.148,1.575m-6.5-3.5c-.493-.393-1.231-.246-1.722-.443a4.608,4.608,0,0,0-1.625-.2c-.59,0-1.132-.295-1.673-.1-.492.2-1.231.2-1.674.591-.393.344-.246,1.082-.59,1.624,0,.1-.2.2-.1.2,1.033,0,1.033-.491,2.066-.491s1.036.1,2.019.1c1.033,0,1.033.295,2.066.295.985,0,.985-.295,2.018-.246.148,0,.444.148.345.049a8.179,8.179,0,0,0-1.132-1.378" transform="translate(209.824 2.615)" fill="#fff"/>
      </g>
    </g>
  </g>
</svg>
