<svg xmlns="http://www.w3.org/2000/svg" width="220.834" height="150.722" viewBox="0 0 220.834 150.722">
  <g id="グループ_3990" data-name="グループ 3990" transform="translate(-81.083 -271.157)">
    <g id="グループ_3989" data-name="グループ 3989">
      <path id="パス_1556" data-name="パス 1556" d="M87.092,9.259c-.707,0-.707.335-1.414.409-.744.038-1.117-.855-1.563-.3-.67.893-.447,1.191-.335,2.307.037.223.409-.112.632-.112a2.329,2.329,0,0,1,1.6.558,2.528,2.528,0,0,1,.781,1.6c0,.558-.632.967-1,1.339a1.747,1.747,0,0,1-1.377.484c-.669,0-.669.223-1.339.223s-.67-.148-1.34-.148-.67.372-1.3.372c-.67,0-.819-.632-1.34-.224a.726.726,0,0,0-.149,1.154c.521,0,.781-.484,1.451-.484.632,0,.632.074,1.3.074.632,0,.632-.111,1.265-.111a1.681,1.681,0,0,1,1.228.372A1.678,1.678,0,0,1,84.562,18a1.663,1.663,0,0,1-.409,1.191,1.714,1.714,0,0,1-1.19.558c-.633,0-.633-.372-1.3-.372-.632,0-.632.075-1.265.075-.67,0-.744-.149-1.265.261-.409.372-.521.744-.037,1.042.67.447.819.223,1.6.223.818,0,.818-.26,1.637-.26h1.6c.819,0,.819.186,1.6.186a2.056,2.056,0,0,1,1.451.67,2.124,2.124,0,0,1,.744,1.414c0,.6-.521.93-.893,1.3s-.707.893-1.3.893c-.372,0-.409-.3-.744-.112a11.684,11.684,0,0,0,.967.931,11.983,11.983,0,0,0,1,.855,2.614,2.614,0,0,1,.893,1.488,2.414,2.414,0,0,1-.707,1.526,1.94,1.94,0,0,1-1.563.819,2.424,2.424,0,0,1-1.451-.261,8.325,8.325,0,0,1-1.079-1.3,7.711,7.711,0,0,1-1-1.3A16.539,16.539,0,0,1,80.693,26.6a11.4,11.4,0,0,1-.633-1.563c-.447-.148-.744-.409-1,0-.409.67-.185.818-.185,1.6s.148.781.148,1.563.261.782.261,1.563a2.357,2.357,0,0,1-.707,1.563,2.16,2.16,0,0,1-1.563.409,1.755,1.755,0,0,1-1.3-.632,1.658,1.658,0,0,1-.633-1.339c0-.781-.335-.781-.335-1.563s.074-.781.074-1.563.409-.818,0-1.451c-.3-.446-.372-.186-.855-.075a7.413,7.413,0,0,1-.484,1.265c-.187.335-.6.632-.893,1.042a11.92,11.92,0,0,1-.968.968c-.3.334-.335.93-.707,1.228a12.139,12.139,0,0,1-1.153.744,1.857,1.857,0,0,1-1.154.3,1.86,1.86,0,0,1-1.935-2.307,2.027,2.027,0,0,1,.744-1.34,5.772,5.772,0,0,0,.893-1c.3-.335.484-.632.744-.968,0-.074.112.149.037.149-.558,0-.967-.484-1.34-.856a1.808,1.808,0,0,1-.67-1.339,1.914,1.914,0,0,1,2.009-2.01c.744,0,.744-.186,1.488-.186.707,0,.707.112,1.451.112s.744.3,1.451.3c.744,0,.892.186,1.488-.261.447-.334.372-.669-.112-.967-.744-.447-.781-.186-1.711-.186-.893,0-.893-.224-1.786-.224a1.215,1.215,0,0,1-1-.372c-.3-.3-.6-.558-.6-1,0-.484-.038-1.042.26-1.34a2.266,2.266,0,0,1,1.34-.632c.893,0,.893.521,1.786.521.93,0,1.042.223,1.823-.186A.6.6,0,0,0,75,15.473c-.744-.447-.893.3-1.786.3-.856,0-.856-.484-1.711-.484s-.856.335-1.712.335a2.468,2.468,0,0,1-1.637-.521,2.324,2.324,0,0,1-.447-1.6,2.005,2.005,0,0,1,.707-1.414,1.773,1.773,0,0,1,1.377-.447c.261,0,.484.037.521-.224.149-1.079.446-1.3-.261-2.12-.6-.67-.781.149-1.674.149C67.52,9.445,67.52,9,66.627,9c-.558,0-1.191.074-1.563-.3a2.184,2.184,0,0,1-.335-1.563,1.8,1.8,0,0,1,.6-1.34,1.883,1.883,0,0,1,1.3-.744c.707,0,1.116.67,1.526.075.409-.633-.074-.856-.261-1.6-.149-.447-.484-.893-.261-1.265a2.125,2.125,0,0,1,1.08-.967,2.039,2.039,0,0,1,1.377.3,1.768,1.768,0,0,1,.818,1.042c.186.632.186.6.372,1.191s-.409,1,.074,1.414c.447.335.782.186,1.117-.26.447-.559.037-.633.037-1.34,0-.744.261-.744.261-1.45a1.743,1.743,0,0,1,.6-1.34,1.756,1.756,0,0,1,1.3-.632,2.247,2.247,0,0,1,1.6.372,2.246,2.246,0,0,1,.372,1.6c0,.707.223.707.223,1.45,0,.707-.447.781,0,1.34.372.446.707.595,1.079.149.447-.521-.149-.744-.149-1.451,0-.67-.111-.67-.111-1.377A2.3,2.3,0,0,1,78.5.849a2.125,2.125,0,0,1,1.451-.67c.6,0,.93.447,1.3.819a1.659,1.659,0,0,1,.521,1.3c0,.707.223.707.223,1.377,0,.707-.372.856.038,1.377.3.447.446.112.855-.223.521-.372.409-.372.632-.968A12.627,12.627,0,0,1,83.93,2.6a1.583,1.583,0,0,1,.968-.856,1.614,1.614,0,0,1,1.3-.186,1.769,1.769,0,0,1,.931,1,1.6,1.6,0,0,1-.112,1.228c-.261.632-.558.632-.558,1.3,0,.224.409-.26.632-.26a2.26,2.26,0,0,1,1.451.856,1.85,1.85,0,0,1,.521,1.451,2.112,2.112,0,0,1-.409,1.526,2.15,2.15,0,0,1-1.563.372Zm-7.107.224c-.6-.409-.67-.149-1.414-.149-.707,0-.707.26-1.414.26s-.707-.372-1.451-.372c-.707,0-1.228-.521-1.563.112-.558.967-.112,1.228.521,2.158.372.558.446.409,1.116.409s.67-.409,1.34-.409.67.111,1.34.111.93.6,1.34.038c.632-.93,1.116-1.488.186-2.158" transform="translate(54.436 271.082)" fill="#fff"/>
      <path id="パス_1557" data-name="パス 1557" d="M134.477,18.736a15.449,15.449,0,0,1,.038,1.861c-.038.484-.261.967-.335,1.451s.187,1,.112,1.488-.037,1-.112,1.488-.632.893-.744,1.377c-.074.484-.26.93-.372,1.414s0,1-.149,1.488c-.112.484-.521.633-.856.93-.372.261-.632.819-1.079.819-.186,0-.335-.26-.521-.335a2.156,2.156,0,0,1-1.414-.781,2.248,2.248,0,0,1-.074-1.638c.111-.484.3-.892.409-1.339s.111-.93.186-1.377c.112-.447.037-.93.112-1.377s.074-.93.148-1.377c.037-.447.3-.893.335-1.377a12.1,12.1,0,0,0,.3-1.34,7.734,7.734,0,0,0-.186-1.377c0-.446.484-.93.409-1.3-.074-.521-.6-.819-.744-1.042a1.121,1.121,0,0,0-.967-.67c-.335-.036-.856.038-1.488,0-.484-.036-1-.222-1.526-.222h-.186c-.112.446-.3.892-.446,1.376-.112.447.149,1,.037,1.451-.112.484-.447.856-.558,1.34-.112.446-.3.892-.372,1.376-.112.447-.112.93-.224,1.414-.112.446-.521.856-.632,1.3-.075.484.223,1.041.149,1.488-.112.484-.075.967-.149,1.414-.112.483-.632.855-.707,1.339-.074.447-.112.931-.224,1.377a1.714,1.714,0,0,1-.632,1.191,2.064,2.064,0,0,1-1.265.632c-.112,0-.186-.3-.3-.335a1.9,1.9,0,0,1-1.377-.6,1.805,1.805,0,0,1-.149-1.526c.074-.484.261-.967.335-1.451s.074-.967.149-1.488c.112-.484-.223-1.042-.149-1.526.112-.484.6-.893.67-1.377.111-.484.111-1,.223-1.488s.037-1,.149-1.488.67-.856.781-1.34-.074-1.042.038-1.526c.111-.447.3-.968.409-1.451-.558.037-1.116-.038-1.637,0-.595.037-1.116.409-1.563.447v-.149a2.487,2.487,0,0,1-1.674-.3,2.472,2.472,0,0,1-.632-1.563c-.075-.558.335-.968.67-1.377s.632-.93,1.191-1c.447-.038,1,.149,1.6.111.484-.036,1.042-.149,1.6-.186.484,0,1.154.037,1.674.037.149-.446,0-1.116.149-1.563s.261-.892.409-1.34.372-.855.521-1.3.484-.819.633-1.265.409-.857.558-1.3l-.409-.149c.186-.521.818-.67,1.265-.93.484-.224,1-.6,1.526-.41a2.342,2.342,0,0,1,1.377,1.043,2.277,2.277,0,0,1-.037,1.711c-.149.447-.447.819-.6,1.265s-.223.893-.372,1.34-.186.931-.3,1.377c-.149.446-.521.967-.67,1.414.484,0,1.079-.26,1.526-.224s.855.484,1.265.558a5.5,5.5,0,0,1,1.563.261,5.276,5.276,0,0,1,1.414.781,4.207,4.207,0,0,1,1,1.265,6.427,6.427,0,0,1,.521,1.488,10.4,10.4,0,0,1,.6,1.489,11.761,11.761,0,0,1-.224,1.6m6.586,2.568a1.589,1.589,0,0,1-1,1c-.224.074-.409.484-.633.484-.446,0-.781-.409-1.116-.632a1.769,1.769,0,0,1-.744-.893c-.186-.484-.186-1-.335-1.488-.186-.447-.447-.893-.6-1.377-.186-.447-.484-.893-.633-1.34-.186-.484-.372-.93-.521-1.414-.186-.484-.409-.93-.558-1.376-.186-.484-.26-.968-.409-1.451s-.6-.856-.744-1.34-.261-.967-.409-1.451,0-1.042-.112-1.526l-.223.074a2.082,2.082,0,0,1,.26-1.637,2.122,2.122,0,0,1,1.34-.856A1.689,1.689,0,0,1,136,6.42c.484.26.894.447,1.042,1,.149.484.335.93.447,1.414.149.447.484.855.632,1.3.112.484-.037,1.042.112,1.488.149.484.67.819.819,1.265.149.484-.074,1.079.074,1.526.149.484.484.855.67,1.339.149.447.632.781.781,1.265.186.447.037,1,.224,1.451.149.447.484.856.67,1.3.186.558-.224,1.041-.409,1.526m2.158-7.665a1.6,1.6,0,0,1-.781.856c-.223.074-.409.335-.595.335-.67,0-1-.632-1.265-1.265-.186-.409-.781-.707-.967-1.227-.149-.484-.112-1.043-.261-1.451-.261-.781-.447-1.414-.447-1.414h.037a1.364,1.364,0,0,1,.3-1.116c.186-.372.261-.894.707-1a1.838,1.838,0,0,1,1.34.111,1.744,1.744,0,0,1,.707,1.08,2.881,2.881,0,0,1,.707,1.191c.149.409.186.893.335,1.34.185.521.409.93.558,1.265.149.446-.224.892-.372,1.3m4.094-1.191c-.149.409-.6.521-1,.67-.186.074-.335.484-.521.484a2.045,2.045,0,0,1-1.749-1.117c-.149-.372.112-1-.037-1.488s-.67-.818-.819-1.228a5.718,5.718,0,0,1-.223-1.414,1.55,1.55,0,0,1,.112-1.228,1.514,1.514,0,0,1,2.158-.67c.372.223.893.447,1.042.893a3.122,3.122,0,0,0,.111,1.34c.112.409.484.781.633,1.191.149.484.186.967.3,1.3a1.5,1.5,0,0,1,0,1.265" transform="translate(33.323 269.791)" fill="#fff"/>
      <path id="パス_1558" data-name="パス 1558" d="M268.484,20.3c-.037.484-.223.93-.261,1.377-.074.484.335,1.042.186,1.488-.112.484-.633.819-.819,1.265-.186.409-.037,1.041-.26,1.451-.261.409-.782.633-1.08,1a8.906,8.906,0,0,1-1,1.042,8.424,8.424,0,0,1-1.154.855,6.135,6.135,0,0,1-1.34.6c-.447.185-1,0-1.451.111-.484.112-.856.632-1.377.67-.037,0-.149-.075-.223-.075a2.253,2.253,0,0,1-1.414-.632,2.58,2.58,0,0,1-.781-1.34,2.119,2.119,0,0,1,2.009-2.456,5.851,5.851,0,0,0,1.266-.26,5.1,5.1,0,0,0,1.265-.372,4.115,4.115,0,0,0,1.08-.818,4.855,4.855,0,0,0,.707-1.228,10.675,10.675,0,0,0,.632-1.3,8.544,8.544,0,0,0,.186-1.451v-.186a5.462,5.462,0,0,0-.521-1.488,4.742,4.742,0,0,0-.744-1.34,4.7,4.7,0,0,0-.893-1.228,5.291,5.291,0,0,0-1.191-1.041,7.749,7.749,0,0,0-1.3-.186,4.755,4.755,0,0,0-1.265-.037,6.672,6.672,0,0,0-1.563.446c-.484.112-1.154-.037-1.674.224a8.252,8.252,0,0,0-1.451.819,10.14,10.14,0,0,0-1.563,1.563c-.186.744.149.819.149,1.6-.038.781-.261.781-.261,1.563-.037.781-.037.781-.037,1.563-.038.782,0,.782,0,1.563-.038.781.3.781.26,1.563,0,.781.149.819.112,1.6,0,.781-.335.744-.372,1.526a2.1,2.1,0,0,1-.484,1.526,2.132,2.132,0,0,1-1.526.447l-.037-.186c-.6,0-1.154.037-1.526-.335a2.159,2.159,0,0,1-.6-1.563c0-.819.037-.819.074-1.637.038-.856-.037-.856-.037-1.675a5.8,5.8,0,0,0-.074-1.6c-.261.372-.335.6-.521.894-.447.781-.67,1.265-.67,1.265a1.782,1.782,0,0,1-1.228.781,1.613,1.613,0,0,1-1.414-.223c-.484-.261-1.154-.484-1.3-.968-.111-.521.335-1.041.632-1.526a4.731,4.731,0,0,1,.707-1.563c.261-.409.335-1.042.707-1.6.3-.447.856-.744,1.191-1.265.261-.372.3-.856.558-1.228s.6-.67.857-1.042c.3-.372.409-.707.669-1.041.112-.447.744-.782.372-.968-.633-.335-.745.447-1.451.484-.707.074-.744-.372-1.451-.335-.67.074-.67.3-1.34.372-.074,0-.149.186-.223.186a2.5,2.5,0,0,1-1.563-.447,2.713,2.713,0,0,1-.744-1.488c-.074-.558.558-.968.893-1.377a1.7,1.7,0,0,1,1.228-.67c.781-.074.744-.447,1.526-.521s.818.186,1.6.112,1.117.372,1.711-.149c.447-.447-.111-.819-.111-1.451s-.224-.67-.224-1.3c.038-.632.409-.632.409-1.265a1.873,1.873,0,0,1,.558-1.377,1.935,1.935,0,0,1,1.414-.707,2.334,2.334,0,0,1,1.563.595,2.538,2.538,0,0,1,.447,1.6c0,.781.148.781.148,1.6-.037.819.075.819.038,1.6,0,.818-.3.781-.038,1.526.447-.261.782-.186,1.228-.372.484-.224.893-.559,1.377-.744a11.664,11.664,0,0,1,1.526-.224,11.1,11.1,0,0,1,1.526-.3,8.27,8.27,0,0,1,1.377.3,8.694,8.694,0,0,1,1.339.3c.447.111,1-.149,1.451.037.484.224.707.856,1.154,1.117a10.088,10.088,0,0,1,1.377.781,7.684,7.684,0,0,1,1.116,1.079c.335.409.335,1,.6,1.451s.893.744,1.079,1.228c.149.521-.149,1.116-.074,1.637s.67,1,.67,1.526c0,.075-.335.149-.335.261" transform="translate(-18.506 268.976)" fill="#fff"/>
      <path id="パス_1559" data-name="パス 1559" d="M321.587,22.628c-.075.521-.67.968-.856,1.451-.149.558.074,1.228-.149,1.711a12.2,12.2,0,0,1-.93,1.34,12.413,12.413,0,0,1-1.042,1.3c-.335.335-.93.335-1.3.632a7.8,7.8,0,0,1-1.117.819c-.409.223-.744.67-1.19.855-.409.149-.931.075-1.414.186a9.012,9.012,0,0,1-1.34.372,8.739,8.739,0,0,1-1.414-.112c-.037,0-.037.075-.037.075-.149,0-.261.149-.372.149a9,9,0,0,1-1.414,0c-.484-.075-.819-.632-1.266-.744-.446-.149-.967-.075-1.377-.261a9.177,9.177,0,0,1-1.191-.707,7.839,7.839,0,0,1-1-.894,7.094,7.094,0,0,1-.6-1.19,7.308,7.308,0,0,1-.186-1.3,4.51,4.51,0,0,1-.261-1.228c.037-.261-.186-.558-.149-.856a7.959,7.959,0,0,1,.484-1.191,5.4,5.4,0,0,1,.632-1.116,5.291,5.291,0,0,1,.744-1.043c.335-.3.447-.892.819-1.116a7.689,7.689,0,0,1,1.563-.521,10.667,10.667,0,0,1,1.563-.3c.521,0,1.042-.111,1.563-.111.149,0,.3.186.447.186.484.038,1.042-.409,1.525-.3.484.074.855.6,1.3.744a7.274,7.274,0,0,1,1.3.707,8.51,8.51,0,0,1,1.3.67,11.934,11.934,0,0,1,1.079.855c0-.26-.186-.372-.186-.67,0-.52.335-1.041.186-1.451-.149-.484-.67-.707-1-1.079a4.78,4.78,0,0,0-.93-1.042,5.625,5.625,0,0,0-1.265-.521,10,10,0,0,0-1.265-.446c-.409-.112-.819-.447-1.265-.559-.447-.074-.893-.223-1.34-.3-.447-.036-.93.112-1.414.075a1.887,1.887,0,0,1-1.525-1.265,1.7,1.7,0,0,1,.149-1.824c.446-.632.334-.707.744-1.3.447-.633.186-.782.632-1.415.409-.595.67-.447,1.08-1.041.447-.6.223-.744.669-1.34a14.492,14.492,0,0,1,.856-1.228c.409-.632,1.116-.371.818-1.041-.335-.67-.558-.112-1.265-.112-.744,0-.744-.037-1.451,0-.707,0-.707.186-1.414.223-.744,0-.744-.372-1.451-.372s-.707.409-1.414.409a2.133,2.133,0,0,1-1.414-.819,2.14,2.14,0,0,1-.818-1.377,2.426,2.426,0,0,1,.558-1.637c.372-.372,1.042-.335,1.637-.335.67-.038.67,0,1.377,0s.707.075,1.414.037c.707,0,.707-.075,1.414-.075.669,0,.669-.409,1.377-.446.707,0,.707.149,1.414.149.67-.038.67.186,1.377.186,0,0,.707.037,1.414.037.669,0,.669-.261,1.377-.3a2.568,2.568,0,0,1,1.191.3,2.683,2.683,0,0,1,.855.856c.186.335.038.818.038,1.191a2.587,2.587,0,0,1-.186,1.19c-.484.67-.669.521-1.116,1.154-.447.67-.558.6-1,1.265-.446.632-.409.67-.855,1.34-.484.632-.335.744-.781,1.377-.447.67-.484.632-.931,1.3-.447.632-1,.409-1.265,1.154.484.111,1.228.149,1.674.26.447.149.744.67,1.154.856a8.789,8.789,0,0,1,1.3.409,12.036,12.036,0,0,1,1.191.633,5.771,5.771,0,0,1,1.191.744A6.131,6.131,0,0,1,319.577,16a7.516,7.516,0,0,1,.818,1.079,7.671,7.671,0,0,1,.633,1.228,7.025,7.025,0,0,1,.372,1.34,8.459,8.459,0,0,1,0,1.376,12.881,12.881,0,0,1,.187,1.675Zm-7.628,2.233a3.447,3.447,0,0,0-.819-1.079,3.887,3.887,0,0,0-1.265-.447c-.409-.111-.781-.595-1.3-.67-.037,0-.111.186-.223.186v.037a6.625,6.625,0,0,0-1.228.074,4.437,4.437,0,0,0-1.117.521c-.558.372-.521.855-.632,1.451,0,.074-.037.111-.037.223,0,.521-.186,1.08.3,1.488a4.345,4.345,0,0,0,1.377.6c.41.112.93-.149,1.488-.149.112,0,.186.111.3.111a9.688,9.688,0,0,0,1.451.075c.521-.075.893-.484,1.3-.67a4.5,4.5,0,0,0,1.265-.633s.223-.074.223-.111c-.223-.484-.819-.67-1.079-1" transform="translate(-43.647 270.848)" fill="#fff"/>
      <path id="パス_1560" data-name="パス 1560" d="M360.366,42.506c-.186.558-.074,1.228-.409,1.674a4.892,4.892,0,0,1-2.493,1.674,7.348,7.348,0,0,1-1.154.707c-.409.112-.781.521-1.227.559-.447.074-.931-.3-1.377-.3-.558,0-1.153.335-1.674.223a9.836,9.836,0,0,1-1.488-.819,10.7,10.7,0,0,1-1.414-.818,5.806,5.806,0,0,1-.856-1.042,4.333,4.333,0,0,1-.632-1.154,4.949,4.949,0,0,1-.484-1.228,5.332,5.332,0,0,1-.261-1.339,5.141,5.141,0,0,1,.335-1.3c.112-.447,0-.968.224-1.34a6.336,6.336,0,0,1,.632-1.228,5.752,5.752,0,0,1,1.042-.893,6.807,6.807,0,0,1,1.414-.968,6.61,6.61,0,0,1,1.6-.67c.558-.149,1.191.223,1.749.223a8.891,8.891,0,0,1,1.414.037,7.562,7.562,0,0,1,1.377.261,5.447,5.447,0,0,1,1.154.855,4.778,4.778,0,0,1,1.116.818,5.121,5.121,0,0,1,.856,1.34,9.2,9.2,0,0,1,.781,1.45,8.027,8.027,0,0,1,.037,1.638,6.026,6.026,0,0,1-.261,1.637m-4.167-3.46c-.224-.224-.707-.075-1.191-.224-.335-.111-.632-.521-1.116-.521a3.309,3.309,0,0,0-2.122.708,2.183,2.183,0,0,0-.967,1.637c0,.669.707.967,1.191,1.377a2.8,2.8,0,0,0,1.711.855,8.534,8.534,0,0,0,1.3.075,3.424,3.424,0,0,0,1.228-.633,1.85,1.85,0,0,0,.521-1.451,2.614,2.614,0,0,0-.558-1.823" transform="translate(-61.728 257.072)" fill="#fff"/>
      <path id="パス_1568" data-name="パス 1568" d="M25.591,20.84c.134-.3.629-.621.91-1.053.313-.481.509-.971.728-1.1.415-.248.349.635,1.383.584a1.656,1.656,0,0,0,1.454-1.06c.318-.747.595-1.525.748-1.832a15.529,15.529,0,0,0,.207-1.751c.081-.538-.074-1.154-.041-1.7a3.349,3.349,0,0,0-.216-1.547,1.312,1.312,0,0,0-1-.811c-.625-.121-1.484.114-1.648-.033-.313-.277.169-1.319.579-1.831a1.914,1.914,0,0,0-.305-2.338c-.667-.39-.82-.832-.205-1.14s.438-.761.643-1.478A1.306,1.306,0,0,0,28.3,2.436c-.412-.27-1.071.055-1.419.061A5.029,5.029,0,0,0,25.013,2.3c-.558.1-1.132.524-1.764.65s-1.211.428-1.771.555c-.8.182-1.593-.1-1.917.025-.483.189-.847.818-1.443.945-.468.1-1.028.175-1.658.247-.482.055-1.044-.468-1.663-.425-.718-.1-.969.134-1.584.749a2.145,2.145,0,0,0-.289,1.623,2.415,2.415,0,0,0,.88,1.235c.409.41-.337,1.431-.439,2.046s.182.907-.331.8-.471,1.582-.368,2.3-.751,1.187-1.879,1.187-.665-.348-.665-.86a9.643,9.643,0,0,1-.164-1.749,4.646,4.646,0,0,0-.114-1.695c-.308-.922.242-1.5,1.574-1.4.71.055,1.2.226,1.345-.113a5.647,5.647,0,0,0,.188-1.384c.025-.308-.458-.515-.552-.755a1.6,1.6,0,0,0-1.409-1.175c-.82,0-.572-1.15-.162-1.662.179-.225.028-1.018-.368-1.59-.262-.379-.918-.417-1.364-.685C8.684.93,8.338.382,7.811.4c-.825.036-1.209.7-1.5,1.245A3.538,3.538,0,0,0,5.9,3.539c.1.512.141,1.3-.371,1.5-.307.122-1.194-.355-2.177-.347a8.785,8.785,0,0,0-2.023.722C.519,5.656-.03,6.144,0,6.889A3.271,3.271,0,0,0,.948,8.874a3.666,3.666,0,0,0,2.145.185,18.97,18.97,0,0,0,2.064-.7A.869.869,0,0,1,6.237,9.572a5.656,5.656,0,0,0-.373,2.07c.009.974-.15,1.976-.132,2.184a3.918,3.918,0,0,1-.4,1.692,4.62,4.62,0,0,1-1.42,1.247,4.37,4.37,0,0,1-1.871.217,3.691,3.691,0,0,0-1.43.921,1.609,1.609,0,0,0-.475,1.4A1.43,1.43,0,0,0,.9,20.367a2.13,2.13,0,0,0,1.353.193c.291-.045.938-.321,1.644-.552a8.381,8.381,0,0,1,1.779-.412c.737-.031.534.834.636,1.346a11.331,11.331,0,0,1,.3,1.537c.051.5.011,1.061.032,1.562a5.02,5.02,0,0,1-.107,1.607c-.308.717-1.8-.314-2.514.2S3.47,27.2,3.388,28.017c-.026.265.562.779,1.138,1.28a13.605,13.605,0,0,0,1.25.969c.448.3.82.78,1.254,1.01a4.463,4.463,0,0,0,1.586.524c.467.018.6-.809.868-1.507.2-.5.884-.948.989-1.513a8.3,8.3,0,0,0,.039-1.766c0-.472-.276-1.051-.321-1.606a3.694,3.694,0,0,1,.363-1.532,5.857,5.857,0,0,0-.03-1.641c-.059-.487-.733-.944-.8-1.44a6.613,6.613,0,0,1,.206-1.566,1.758,1.758,0,0,1,.71-1.483c.482-.325,1.333-.1,1.724-.3.82-.41,1.205.324,1.708.865a1.589,1.589,0,0,0,1.05.457c.528.069,1.031.557,1.3.557.168.015.2-.479.4-.411a6.515,6.515,0,0,0,2.682.178,5.808,5.808,0,0,1,1.389.112c.865.039,1.1.314,1,.507-.136.273-.449,1.949-.791,2.153s-.894-.141-1.466-.822a6.014,6.014,0,0,0-1.425-.992,1.764,1.764,0,0,0-1.511-.226c-.751.274-.268-.094-.547.074-.615.2-.672,1.4-.844,1.939-.089.278.651.988,1.305,1.453.613.436,1.251.748,1.35,1a2.515,2.515,0,0,1-.665,2.419,10.965,10.965,0,0,0-1.7.937A16.411,16.411,0,0,0,14.21,29.01a1.781,1.781,0,0,0-.181,1.67c.211.521.834.716,1.323.857a3.537,3.537,0,0,0,2.415-.484,5.827,5.827,0,0,0,1.867-1.193,17.235,17.235,0,0,0,1.25-1.881c.492-.417,1.308.142,1.591.391a13.73,13.73,0,0,1,2,.837c.681.442,1.289,1.04,1.7,1.225a4.754,4.754,0,0,0,2.221.654,3.454,3.454,0,0,0,1.174-.968,2,2,0,0,0,.483-1.273c.064-.658-.376-.827-.979-1.131a9.79,9.79,0,0,1-1.629-.893,3.328,3.328,0,0,0-1.21-.562,3.948,3.948,0,0,1-1.3-.665c-.717-.615-.542-2.064-.542-2.473a14.921,14.921,0,0,1,1.2-2.28M23.055,6.6c.283-.094.872.049,1.387-.027.6-.09,1.1-.278,1.246-.131.274.273.308.135.035.477-.134.168-.779.458-.959,1.011-.186.571-.412,1.161-.447,1.334-.068.342-.138,1.35-.685,1.35s-.545.03-.614-.311-.354-1.483-.49-2.3-.041-1.021.527-1.4M17.312,7.9c.82-.41,1.445.348,1.719.621a4.569,4.569,0,0,1,.427,1.959c0,.41-.776.847-1.323.915s-.248-1.231-.454-2.188-.87-.884-.369-1.307m5.91,8.108c-.359,0-1.1-.308-1.833-.351-.8-.047-1.594.034-1.844,0s-.791.392-1.355.438-1.151-.419-1.39-.419c-.478,0-.34-.225-.34-.926.137-.478,1.288-.029,1.834.039.328.041,1-.11,1.824-.164a8.064,8.064,0,0,0,1.726-.444c.5-.153,1.073.116,1.552.12.5,0,1.018-.289,1.506-.257s1.012.576,1.5.482c1.435-.273,1.051,1.231.847,1.573a1.38,1.38,0,0,1-1.567.183,7.009,7.009,0,0,0-2.464-.271" transform="translate(81.083 270.99)" fill="#fff"/>
      <path id="パス_1569" data-name="パス 1569" d="M209.332,27.184c-.382-.109-.981.581-2.427-.287-.892-.536-2.1-.2-2.59-.368a19.668,19.668,0,0,1-1.888-.882,14.214,14.214,0,0,0-2.024-.96c-.529-.1-1.647-.044-1.651-.7,0-.29.7-.611,1.237-1.308.678-.887,1.268-2.2,1.818-2.823.981-1.114-1.091-3.249-1.647-3.268s-.752-.962-.752-1.944a19.58,19.58,0,0,1,.321-2.021,6.1,6.1,0,0,0-.054-2.126c-.388-1.857.278-2.942.823-2.942s.545.654-.109.981-.109,1.745.109,2.29a8.152,8.152,0,0,0,1.853,1.565,19.13,19.13,0,0,1,1.855,1.489c1.237,1.187,2.945.327,3.6-1.107.349-.769-.435-2.347-1.835-2.8a6.892,6.892,0,0,1-2.271-1.6c-.541-.338.51-.567,2.042-.559a2.35,2.35,0,0,0,2.5-2.107c0-.981-.763-1.308-1.465-1.745-.358-.222.035-.058-1.467-.214-.478-.049-1.072.279-1.509.25-.5-.033-1.085-.534-2.1-.472-.552.033-1.516.062-2.491.171a17.215,17.215,0,0,1-2.512.265c-1.185-.109-.981-1.091-1-2.272S195.281.233,193.736.023s-1.7,1.078-2.072,2.4c-.194.691-.808.868-1.646,1.033-.768.151-1.956-.712-2.722,0-.689.645-1.5-.235-2.238-.181-.848.062-1.574.213-1.8.234-.367.034-1.839-.658-2.474.138-.5.625-1.824.731-1.77,2,.056,1.288.448,2.123,1.416,2.346.382.088.875-.089,1.313.051.941.3,1.369-.146,1.634-.041.624.251.179,1.576-.608,1.888a13.429,13.429,0,0,0-2.469,2.392c-.93,1.087-.287,1.655-.034,2.409.288.863,1.5.77,1.779.754A12,12,0,0,0,184.9,13.43c.323-.271.439-.365,1.2-.969,1.944-1.551,1.39-3.395.981-3.708a.646.646,0,0,1,.328-1.124,1.929,1.929,0,0,1,1.417,1.014,8.449,8.449,0,0,1-1.636,4.145c-.981.981-1.745,3.053-.558,3.718s2.788-.186,3.383-.89a10.381,10.381,0,0,0,1.1-2.044,19.579,19.579,0,0,0,.768-1.984,11.464,11.464,0,0,1,.984-3.38c.657-.981,1.851-.109,2.506,0s-.109.654,0,1.091a8.24,8.24,0,0,1-.109,2.29c-.109.545-.436.545-1.2.545s-.981,1.309-1.2,1.963,1.091,1.854,1.091,1.854l.654.872s.145.909-1.963.109a3.534,3.534,0,0,0-1.733-.019,3.768,3.768,0,0,0-2.193.782,3.3,3.3,0,0,0-1.4,1.424c-.347,1.084-1.116,1.28-1.438,1.63-.549.6-1.334.568-1.8,1.22-.271.384-.965.865-1.04,1.361A2.189,2.189,0,0,0,183.92,25a2.941,2.941,0,0,0,2.981.291c.483-.228.795-.9.945-1.054.437-.436.894-.168,1.527.328s0,.763-.218,1.09a4.532,4.532,0,0,1-1.853,1.091,6.161,6.161,0,0,1-2.727.682c-1.213-.205-2.508.572-3.38.845-1.746.545-.887,2.182-.1,3.145.4.482,1.4.093,2.376.248a2.574,2.574,0,0,0,2.191-.557,23.645,23.645,0,0,0,3.6-.763c.282-.141,1.3-1.114,2.244-1.167a2.215,2.215,0,0,0,2.2-1.26,1.132,1.132,0,0,1,1.441-.191,13.288,13.288,0,0,0,3.381.654,9.378,9.378,0,0,1,1.53.7c1.552.613,1.1.613,1.552.613a5.039,5.039,0,0,1,2.715.961c1.187.885,2.012.486,3.582.567,2.26.116,2.2-.586,2.567-2.045a2.047,2.047,0,0,0-1.149-1.99m-13.851-5.671a1.8,1.8,0,0,1-1.673.8,22.476,22.476,0,0,1-2.181-1.018s-.218-.364.145-.436c0,0,2.254.072,2.763.145s1.236,0,.946.509" transform="translate(7.387 271.156)" fill="#fff"/>
      <path id="パス_1564" data-name="パス 1564" d="M544.762,18.736A15.319,15.319,0,0,1,544.8,20.6c-.036.484-.26.967-.334,1.451s.185,1,.111,1.488-.037,1-.111,1.488-.632.893-.745,1.377c-.074.484-.26.93-.372,1.414s0,1-.149,1.488c-.112.484-.521.633-.856.93-.372.261-.632.819-1.079.819-.186,0-.335-.26-.521-.335a2.154,2.154,0,0,1-1.414-.781,2.248,2.248,0,0,1-.075-1.638c.112-.484.3-.892.41-1.339s.111-.93.185-1.377c.112-.447.038-.93.112-1.377s.073-.93.148-1.377c.038-.447.3-.893.335-1.377a12.131,12.131,0,0,0,.3-1.34,7.692,7.692,0,0,0-.187-1.377c0-.446.484-.93.41-1.3-.075-.521-.6-.819-.745-1.042a1.122,1.122,0,0,0-.968-.67c-.335-.036-.855.038-1.488,0-.483-.036-1-.222-1.526-.222h-.186c-.112.446-.3.892-.447,1.376-.111.447.149,1,.038,1.451-.112.484-.447.856-.559,1.34-.111.446-.3.892-.371,1.376-.112.447-.112.93-.224,1.414-.112.446-.521.856-.633,1.3-.074.484.224,1.041.149,1.488-.111.484-.074.967-.149,1.414-.111.483-.632.855-.706,1.339-.075.447-.112.931-.224,1.377a1.716,1.716,0,0,1-.632,1.191,2.065,2.065,0,0,1-1.265.632c-.112,0-.187-.3-.3-.335a1.9,1.9,0,0,1-1.377-.6,1.809,1.809,0,0,1-.149-1.526c.075-.484.261-.967.335-1.451s.074-.967.148-1.488c.112-.484-.222-1.042-.148-1.526.112-.484.6-.893.67-1.377.112-.484.112-1,.224-1.488s.037-1,.149-1.488.67-.856.781-1.34-.075-1.042.038-1.526c.111-.447.3-.968.409-1.451-.558.037-1.117-.038-1.637,0-.6.037-1.117.409-1.563.447v-.149a2.485,2.485,0,0,1-1.674-.3,2.469,2.469,0,0,1-.632-1.563c-.075-.558.335-.968.669-1.377s.633-.93,1.191-1c.446-.038,1,.149,1.6.111.484-.036,1.042-.149,1.6-.186.484,0,1.154.037,1.674.037.149-.446,0-1.116.149-1.563s.261-.892.409-1.34.372-.855.521-1.3.484-.819.632-1.265.409-.857.558-1.3l-.409-.149c.185-.521.818-.67,1.265-.93.484-.224,1-.6,1.526-.41a2.344,2.344,0,0,1,1.377,1.043,2.278,2.278,0,0,1-.037,1.711c-.149.447-.447.819-.6,1.265s-.223.893-.372,1.34-.186.931-.3,1.377c-.149.446-.521.967-.669,1.414.484,0,1.079-.26,1.525-.224s.856.484,1.265.558a5.5,5.5,0,0,1,1.563.261,5.29,5.29,0,0,1,1.414.781,4.2,4.2,0,0,1,1,1.265,6.4,6.4,0,0,1,.521,1.488,10.328,10.328,0,0,1,.6,1.489,11.757,11.757,0,0,1-.223,1.6m6.586,2.568a1.59,1.59,0,0,1-1,1c-.224.074-.409.484-.633.484-.446,0-.781-.409-1.116-.632a1.769,1.769,0,0,1-.744-.893c-.186-.484-.186-1-.335-1.488-.185-.447-.446-.893-.595-1.377-.187-.447-.484-.893-.633-1.34-.186-.484-.372-.93-.521-1.414-.186-.484-.409-.93-.558-1.376-.186-.484-.261-.968-.409-1.451s-.6-.856-.744-1.34-.261-.967-.41-1.451,0-1.042-.112-1.526l-.223.074a2.082,2.082,0,0,1,.26-1.637,2.122,2.122,0,0,1,1.34-.856,1.689,1.689,0,0,1,1.376.335c.484.26.893.447,1.043,1,.149.484.334.93.447,1.414.149.447.484.855.632,1.3.111.484-.038,1.042.111,1.488.149.484.67.819.819,1.265.149.484-.075,1.079.074,1.526.149.484.484.855.67,1.339.149.447.632.781.781,1.265.186.447.037,1,.224,1.451.149.447.484.856.669,1.3.186.558-.224,1.041-.409,1.526m2.159-7.665a1.6,1.6,0,0,1-.781.856c-.224.074-.409.335-.6.335-.67,0-1-.632-1.265-1.265-.186-.409-.781-.707-.968-1.227-.149-.484-.111-1.043-.26-1.451-.261-.781-.447-1.414-.447-1.414h.038a1.36,1.36,0,0,1,.3-1.116c.186-.372.261-.894.707-1a1.839,1.839,0,0,1,1.34.111,1.744,1.744,0,0,1,.707,1.08,2.885,2.885,0,0,1,.707,1.191c.149.409.187.893.335,1.34.186.521.409.93.558,1.265.149.446-.223.892-.372,1.3m4.093-1.191c-.149.409-.6.521-1,.67-.186.074-.335.484-.521.484a2.046,2.046,0,0,1-1.749-1.117c-.149-.372.112-1-.037-1.488s-.67-.818-.819-1.228a5.72,5.72,0,0,1-.223-1.414,1.552,1.552,0,0,1,.112-1.228,1.514,1.514,0,0,1,2.158-.67c.372.223.893.447,1.042.893a3.118,3.118,0,0,0,.112,1.34c.111.409.484.781.632,1.191.149.484.187.967.3,1.3a1.5,1.5,0,0,1,0,1.265" transform="translate(-366.304 317.873)" fill="#fff"/>
      <path id="パス_1565" data-name="パス 1565" d="M675.27,20.3c-.037.484-.224.93-.26,1.377-.075.484.335,1.042.186,1.488-.112.484-.632.819-.819,1.265-.186.409-.037,1.041-.261,1.451-.26.409-.781.633-1.079,1a8.873,8.873,0,0,1-1,1.042,8.386,8.386,0,0,1-1.153.855,6.138,6.138,0,0,1-1.34.6c-.447.185-1,0-1.451.111-.484.112-.855.632-1.377.67-.037,0-.149-.075-.224-.075a2.253,2.253,0,0,1-1.414-.632,2.58,2.58,0,0,1-.781-1.34,2.119,2.119,0,0,1,2.01-2.456,5.851,5.851,0,0,0,1.265-.26,5.107,5.107,0,0,0,1.266-.372,4.131,4.131,0,0,0,1.079-.818,4.854,4.854,0,0,0,.707-1.228,10.71,10.71,0,0,0,.632-1.3,8.55,8.55,0,0,0,.186-1.451v-.186a5.462,5.462,0,0,0-.52-1.488,4.761,4.761,0,0,0-.745-1.34,4.7,4.7,0,0,0-.893-1.228,5.3,5.3,0,0,0-1.191-1.041,7.748,7.748,0,0,0-1.3-.186,4.755,4.755,0,0,0-1.266-.037,6.686,6.686,0,0,0-1.563.446c-.484.112-1.152-.037-1.674.224a8.27,8.27,0,0,0-1.451.819,10.162,10.162,0,0,0-1.563,1.563c-.187.744.149.819.149,1.6-.038.781-.261.781-.261,1.563-.037.781-.037.781-.037,1.563-.038.782,0,.782,0,1.563-.038.781.3.781.26,1.563,0,.781.149.819.112,1.6,0,.781-.335.744-.372,1.526a2.1,2.1,0,0,1-.484,1.526,2.132,2.132,0,0,1-1.526.447l-.037-.186c-.6,0-1.154.037-1.526-.335a2.159,2.159,0,0,1-.6-1.563c0-.819.037-.819.075-1.637.036-.856-.038-.856-.038-1.675a5.732,5.732,0,0,0-.075-1.6c-.26.372-.335.6-.52.894-.447.781-.67,1.265-.67,1.265a1.783,1.783,0,0,1-1.228.781,1.614,1.614,0,0,1-1.414-.223c-.484-.261-1.153-.484-1.3-.968-.112-.521.335-1.041.632-1.526a4.736,4.736,0,0,1,.707-1.563c.261-.409.335-1.042.707-1.6.3-.447.855-.744,1.191-1.265.261-.372.3-.856.558-1.228s.6-.67.855-1.042c.3-.372.409-.707.67-1.041.111-.447.744-.782.372-.968-.633-.335-.745.447-1.451.484-.707.074-.744-.372-1.451-.335-.67.074-.67.3-1.34.372-.074,0-.149.186-.223.186a2.494,2.494,0,0,1-1.563-.447,2.713,2.713,0,0,1-.744-1.488c-.074-.558.558-.968.893-1.377a1.7,1.7,0,0,1,1.228-.67c.781-.074.744-.447,1.526-.521s.819.186,1.6.112,1.116.372,1.712-.149c.447-.447-.112-.819-.112-1.451s-.223-.67-.223-1.3c.036-.632.409-.632.409-1.265a1.871,1.871,0,0,1,.558-1.377,1.935,1.935,0,0,1,1.414-.707,2.334,2.334,0,0,1,1.563.595,2.537,2.537,0,0,1,.446,1.6c0,.781.148.781.148,1.6-.037.819.075.819.038,1.6,0,.818-.3.781-.038,1.526.447-.261.782-.186,1.228-.372.484-.224.894-.559,1.377-.744A11.667,11.667,0,0,1,664,10.883a11.1,11.1,0,0,1,1.526-.3,8.255,8.255,0,0,1,1.377.3,8.7,8.7,0,0,1,1.339.3c.447.111,1-.149,1.451.037.484.224.707.856,1.154,1.117a10.044,10.044,0,0,1,1.376.781,7.654,7.654,0,0,1,1.117,1.079c.335.409.335,1,.6,1.451s.893.744,1.079,1.228c.149.521-.149,1.116-.075,1.637s.669,1,.669,1.526c0,.075-.335.149-.335.261" transform="translate(-416.692 317.058)" fill="#fff"/>
      <path id="パス_1566" data-name="パス 1566" d="M721.844,22.628c-.075.521-.67.968-.856,1.451-.149.558.075,1.228-.149,1.711a12.194,12.194,0,0,1-.93,1.34,12.424,12.424,0,0,1-1.042,1.3c-.335.335-.931.335-1.3.632a7.838,7.838,0,0,1-1.116.819c-.409.223-.745.67-1.191.855-.409.149-.931.075-1.414.186a9.029,9.029,0,0,1-1.339.372,8.746,8.746,0,0,1-1.414-.112c-.037,0-.037.075-.037.075-.149,0-.261.149-.372.149a9,9,0,0,1-1.414,0c-.483-.075-.819-.632-1.265-.744-.446-.149-.967-.075-1.376-.261a9.154,9.154,0,0,1-1.191-.707,7.885,7.885,0,0,1-1-.894,7.1,7.1,0,0,1-.595-1.19,7.363,7.363,0,0,1-.186-1.3,4.529,4.529,0,0,1-.26-1.228c.037-.261-.187-.558-.149-.856a7.953,7.953,0,0,1,.484-1.191,5.432,5.432,0,0,1,.632-1.116,5.287,5.287,0,0,1,.744-1.043c.335-.3.447-.892.819-1.116a7.673,7.673,0,0,1,1.563-.521,10.668,10.668,0,0,1,1.563-.3c.521,0,1.042-.111,1.563-.111.149,0,.3.186.447.186.484.038,1.042-.409,1.526-.3.484.074.856.6,1.3.744a7.316,7.316,0,0,1,1.3.707,8.5,8.5,0,0,1,1.3.67,11.863,11.863,0,0,1,1.08.855c0-.26-.186-.372-.186-.67,0-.52.335-1.041.186-1.451-.149-.484-.67-.707-1-1.079a4.783,4.783,0,0,0-.93-1.042,5.626,5.626,0,0,0-1.265-.521,10,10,0,0,0-1.265-.446c-.41-.112-.819-.447-1.265-.559-.447-.074-.893-.223-1.34-.3-.447-.036-.93.112-1.414.075a1.887,1.887,0,0,1-1.525-1.265,1.7,1.7,0,0,1,.149-1.824c.446-.632.335-.707.744-1.3.447-.633.187-.782.632-1.415.41-.595.67-.447,1.079-1.041.447-.6.224-.744.67-1.34a14.485,14.485,0,0,1,.856-1.228c.409-.632,1.117-.371.819-1.041-.335-.67-.558-.112-1.266-.112-.744,0-.744-.037-1.451,0-.708,0-.708.186-1.414.223-.744,0-.744-.372-1.451-.372s-.708.409-1.414.409a2.128,2.128,0,0,1-1.414-.819,2.138,2.138,0,0,1-.819-1.377,2.43,2.43,0,0,1,.558-1.637c.372-.372,1.042-.335,1.637-.335.669-.038.669,0,1.377,0s.707.075,1.414.037c.707,0,.707-.075,1.414-.075.67,0,.67-.409,1.377-.446.707,0,.707.149,1.414.149.67-.038.67.186,1.377.186,0,0,.707.037,1.414.037.669,0,.669-.261,1.377-.3a2.568,2.568,0,0,1,1.191.3,2.691,2.691,0,0,1,.856.856c.186.335.036.818.036,1.191a2.578,2.578,0,0,1-.185,1.19c-.484.67-.67.521-1.117,1.154-.447.67-.558.6-1,1.265-.446.632-.409.67-.856,1.34-.484.632-.335.744-.781,1.377-.447.67-.484.632-.93,1.3-.447.632-1,.409-1.265,1.154.484.111,1.228.149,1.674.26.447.149.744.67,1.153.856a8.759,8.759,0,0,1,1.3.409,12.045,12.045,0,0,1,1.191.633,5.8,5.8,0,0,1,1.19.744A6.132,6.132,0,0,1,719.834,16a7.429,7.429,0,0,1,.818,1.079,7.654,7.654,0,0,1,.633,1.228,7.059,7.059,0,0,1,.372,1.34,8.515,8.515,0,0,1,0,1.376,12.882,12.882,0,0,1,.187,1.675Zm-7.628,2.233a3.452,3.452,0,0,0-.819-1.079,3.888,3.888,0,0,0-1.265-.447c-.409-.111-.781-.595-1.3-.67-.037,0-.111.186-.223.186v.037a6.635,6.635,0,0,0-1.228.074,4.443,4.443,0,0,0-1.116.521c-.558.372-.521.855-.632,1.451,0,.074-.037.111-.037.223,0,.521-.186,1.08.3,1.488a4.344,4.344,0,0,0,1.377.6c.409.112.93-.149,1.488-.149.112,0,.186.111.3.111a9.688,9.688,0,0,0,1.451.075c.521-.075.892-.484,1.3-.67a4.486,4.486,0,0,0,1.265-.633s.224-.074.224-.111c-.224-.484-.819-.67-1.079-1" transform="translate(-439.146 318.931)" fill="#fff"/>
      <path id="パス_1567" data-name="パス 1567" d="M757.623,42.506c-.186.558-.075,1.228-.409,1.674a4.892,4.892,0,0,1-2.493,1.674,7.4,7.4,0,0,1-1.154.707c-.409.112-.781.521-1.227.559-.446.074-.931-.3-1.377-.3-.559,0-1.154.335-1.675.223a9.813,9.813,0,0,1-1.488-.819,10.7,10.7,0,0,1-1.414-.818,5.807,5.807,0,0,1-.855-1.042,4.349,4.349,0,0,1-.632-1.154,4.953,4.953,0,0,1-.484-1.228,5.31,5.31,0,0,1-.261-1.339,5.143,5.143,0,0,1,.335-1.3c.112-.447,0-.968.224-1.34a6.363,6.363,0,0,1,.632-1.228,5.748,5.748,0,0,1,1.041-.893,6.808,6.808,0,0,1,1.414-.968,6.617,6.617,0,0,1,1.6-.67c.559-.149,1.191.223,1.749.223a8.89,8.89,0,0,1,1.414.037,7.561,7.561,0,0,1,1.377.261,5.413,5.413,0,0,1,1.153.855,4.768,4.768,0,0,1,1.117.818,5.117,5.117,0,0,1,.856,1.34,9.246,9.246,0,0,1,.781,1.45,8.06,8.06,0,0,1,.037,1.638,6.029,6.029,0,0,1-.26,1.637m-4.168-3.46c-.224-.224-.707-.075-1.191-.224-.335-.111-.633-.521-1.117-.521a3.307,3.307,0,0,0-2.12.708,2.181,2.181,0,0,0-.968,1.637c0,.669.707.967,1.191,1.377a2.8,2.8,0,0,0,1.712.855,8.519,8.519,0,0,0,1.3.075,3.425,3.425,0,0,0,1.228-.633,1.85,1.85,0,0,0,.521-1.451,2.614,2.614,0,0,0-.558-1.823" transform="translate(-455.99 305.155)" fill="#fff"/>
      <path id="パス_1570" data-name="パス 1570" d="M619.727,27.184c-.382-.109-.981.581-2.427-.287-.892-.536-2.1-.2-2.59-.368a19.539,19.539,0,0,1-1.888-.882,14.214,14.214,0,0,0-2.023-.96c-.529-.1-1.647-.044-1.651-.7,0-.29.7-.611,1.237-1.308.678-.887,1.268-2.2,1.817-2.823.981-1.114-1.091-3.249-1.647-3.268s-.752-.962-.752-1.944a19.444,19.444,0,0,1,.321-2.021,6.082,6.082,0,0,0-.055-2.126c-.388-1.857.279-2.942.824-2.942s.545.654-.109.981-.109,1.745.109,2.29a8.153,8.153,0,0,0,1.853,1.565,19.133,19.133,0,0,1,1.855,1.489c1.237,1.187,2.945.327,3.6-1.107.35-.769-.434-2.347-1.834-2.8a6.893,6.893,0,0,1-2.271-1.6c-.541-.338.51-.567,2.042-.559a2.35,2.35,0,0,0,2.5-2.107c0-.981-.763-1.308-1.465-1.745-.359-.222.035-.058-1.467-.214-.478-.049-1.072.279-1.51.25-.5-.033-1.085-.534-2.1-.472-.552.033-1.516.062-2.491.171a17.214,17.214,0,0,1-2.512.265c-1.185-.109-.981-1.091-1-2.272S605.676.233,604.131.023s-1.7,1.078-2.072,2.4c-.194.691-.808.868-1.646,1.033-.768.151-1.956-.712-2.722,0-.689.645-1.5-.235-2.238-.181-.848.062-1.574.213-1.8.234-.367.034-1.84-.658-2.474.138-.5.625-1.824.731-1.77,2,.056,1.288.448,2.123,1.415,2.346.382.088.875-.089,1.313.051.941.3,1.369-.146,1.634-.041.624.251.179,1.576-.608,1.888a13.428,13.428,0,0,0-2.469,2.392c-.93,1.087-.286,1.655-.034,2.409.288.863,1.5.77,1.779.754a12.005,12.005,0,0,0,2.86-2.026c.322-.271.439-.365,1.2-.969,1.944-1.551,1.391-3.395.982-3.708a.646.646,0,0,1,.328-1.124,1.929,1.929,0,0,1,1.417,1.014,8.455,8.455,0,0,1-1.636,4.145c-.981.981-1.745,3.053-.558,3.718s2.788-.186,3.383-.89a10.384,10.384,0,0,0,1.1-2.044,19.542,19.542,0,0,0,.768-1.984,11.468,11.468,0,0,1,.984-3.38c.657-.981,1.852-.109,2.506,0s-.109.654,0,1.091a8.263,8.263,0,0,1-.109,2.29c-.109.545-.436.545-1.2.545s-.981,1.309-1.2,1.963,1.091,1.854,1.091,1.854l.654.872s.145.909-1.963.109a3.534,3.534,0,0,0-1.733-.019,3.768,3.768,0,0,0-2.193.782,3.3,3.3,0,0,0-1.4,1.424c-.348,1.084-1.116,1.28-1.438,1.63-.55.6-1.335.568-1.8,1.22-.271.384-.965.865-1.04,1.361A2.188,2.188,0,0,0,594.315,25a2.941,2.941,0,0,0,2.981.291c.482-.228.795-.9.945-1.054.436-.436.894-.168,1.527.328s0,.763-.218,1.09a4.536,4.536,0,0,1-1.854,1.091,6.155,6.155,0,0,1-2.727.682c-1.213-.205-2.508.572-3.38.845-1.746.545-.887,2.182-.1,3.145.4.482,1.4.093,2.376.248a2.574,2.574,0,0,0,2.192-.557,23.637,23.637,0,0,0,3.6-.763c.282-.141,1.306-1.114,2.245-1.167a2.215,2.215,0,0,0,2.2-1.26,1.132,1.132,0,0,1,1.441-.191,13.287,13.287,0,0,0,3.381.654,9.407,9.407,0,0,1,1.53.7c1.552.613,1.1.613,1.552.613a5.04,5.04,0,0,1,2.715.961c1.187.885,2.012.486,3.582.567,2.26.116,2.2-.586,2.567-2.045a2.046,2.046,0,0,0-1.15-1.99m-13.851-5.671a1.8,1.8,0,0,1-1.672.8,22.468,22.468,0,0,1-2.181-1.018s-.218-.364.145-.436c0,0,2.254.072,2.763.145s1.236,0,.945.509" transform="translate(-392.285 319.238)" fill="#fff"/>
      <path id="パス_1561" data-name="パス 1561" d="M407.351,29.575c-.186.372-.261.893-.6,1.117s-.856,0-1.228,0a1.853,1.853,0,0,1-.781-.186c-.409-.186-.819-.409-1.265-.595-.409-.149-1,.149-1.451,0-.409-.186-.745-.707-1.154-.856-.447-.149-.967-.038-1.414-.149-.446-.149-.855-.409-1.265-.521-.632-.149-1.191-.3-1.674-.409a7.3,7.3,0,0,1-1.6-.6c-.558-.112-1.042-.224-1.3-.67a1.893,1.893,0,0,1-.3-1.488,1.764,1.764,0,0,1,2.307-1.414,2.206,2.206,0,0,1,1.488-.149c.372.075.707.632,1.228.781.409.112.93-.038,1.414.112.446.112.855.335,1.3.484.447.112.968.112,1.414.261.409.111.744.6,1.191.744.447.186.856.372,1.3.521.447.186.968.112,1.377.3a2.194,2.194,0,0,1,1.191,1.117,2.047,2.047,0,0,1-.186,1.6M406.9,11.231c-.335.261-.93,0-1.377,0-.186,0-.409.261-.6.224-.409-.112-.818-.6-1.377-.708-.447-.111-1.042.261-1.563.149-.484-.112-.967-.261-1.451-.372-.521-.075-.968-.559-1.414-.633s-.93.223-1.34.149c-.447-.075-.855-.224-1.228-.26a9.852,9.852,0,0,0-1.265-.112,1.937,1.937,0,0,1-1.228-1,1.544,1.544,0,0,1-.26-1.414,1.558,1.558,0,0,1,.67-1.19,1.658,1.658,0,0,1,1.377-.335,3,3,0,0,1,1.526-.186c.409.075.892.335,1.451.409.447.074.968-.112,1.488,0,.484.074.967.261,1.451.335.484.111.93.371,1.414.446.521.112,1.042.112,1.488.186.521.149.93.595,1.34.707a1.923,1.923,0,0,1,1.228.781c.261.484.67,1.079.484,1.6a2.564,2.564,0,0,1-.818,1.228m-.6,7.665c-.149.447-.074.93-.409,1.191a2.4,2.4,0,0,1-1.265.186c-.224,0-.372-.186-.6-.261-.484-.186-1.116-.074-1.712-.222-.521-.149-1.116-.075-1.674-.224s-1.042-.633-1.563-.781c-.558-.112-1.153.074-1.6,0-.818-.149-1.414-.335-1.563-.335a2.341,2.341,0,0,1-1.451-.707c-.372-.372-.223-.93-.223-1.488,0-.6-.261-1.3.112-1.675s1.079-.149,1.674-.149c.335,0,.447-.26.67-.26.224.037.484.111.819.149.335.074.67.409,1.079.484.372.074.818-.111,1.228,0,.447.111.93.037,1.414.149s.819.632,1.3.781c.447.111,1.042-.149,1.488-.037.484.148.818.67,1.265.818a2,2,0,0,1,1.266.894c.223.483-.075.967-.261,1.488" transform="translate(-311.543 316.97)" fill="#00c8ac"/>
      <path id="パス_1562" data-name="パス 1562" d="M454.738,16.4c-.186.447,0,1.116-.224,1.526-.223.447-.632.781-.855,1.228-.261.409-.335.93-.558,1.34-.26.446-.93.595-1.19,1-.261.447-.261,1-.521,1.414s-.781.632-1.042,1.042c-.3.409-.409.893-.707,1.3a13.006,13.006,0,0,1-1.488,2.53c-.3.409-.632.781-.894,1.154-.335.372-.892.558-1.19.93a1.736,1.736,0,0,1-1.414.781,1.755,1.755,0,0,1-1.266-.372,1.917,1.917,0,0,1-.818-1.377,2.523,2.523,0,0,1,.335-1.637,13.685,13.685,0,0,0,1.041-1.041c.3-.372.521-.781.857-1.191.26-.409.855-.595,1.153-1,.261-.372.41-.892.67-1.3.3-.409.67-.744.93-1.153.3-.41.335-.968.6-1.377s.521-.819.781-1.265a11.378,11.378,0,0,0,.707-1.116,2.971,2.971,0,0,0-1.414-.112c-.744,0-.744-.186-1.451-.186-.744,0-.744.3-1.488.3s-.745-.335-1.451-.335H440.9c-.744,0-.744-.074-1.451-.074-.744,0-.744.372-1.488.372-.707,0-.707.112-1.451.112s-.744-.447-1.488-.447a1.632,1.632,0,0,1-1.3-.484,1.714,1.714,0,0,1-.483-1.34,1.827,1.827,0,0,1,.371-1.414,1.842,1.842,0,0,1,1.414-.409c.781,0,.781-.335,1.526-.335.781,0,.781-.111,1.525-.111a4.515,4.515,0,0,1,1.526.335c.745,0,.745-.3,1.488-.3s.744-.036,1.526-.036c.745,0,.745.409,1.488.409.782,0,.782-.447,1.526-.447s.745.447,1.488.447c.782,0,.782-.335,1.526-.335s.745-.149,1.488-.149c.782,0,.782.111,1.526.111h1.526a2.386,2.386,0,0,1,1.86,1.08c.372.6.038,1.3-.3,1.935M452.17,8.1a1.741,1.741,0,0,1-1.265.558c-.521,0-1.042.149-1.563.149s-1.041-.074-1.525-.074c-.559,0-1.042.409-1.564.409s-1.041-.223-1.563-.223-1.041-.038-1.525-.038c-.558,0-1.116.335-1.637.335-.558,0-1.079-.335-1.6-.335-.558,0-1.079-.111-1.637-.111-.521,0-1.08,0-1.6-.038V9a2.088,2.088,0,0,1-1.414-.782,2.052,2.052,0,0,1-.6-1.451,2.081,2.081,0,0,1,.708-1.414,2.205,2.205,0,0,1,1.451-.744c.521,0,1.042.186,1.563.186s1.041.335,1.6.335c.484,0,1.042-.3,1.563-.3h1.6c.484,0,1-.037,1.525-.037.484,0,1,.223,1.526.223.484,0,1-.186,1.525-.186.484-.037,1-.149,1.525-.186.521,0,1,.186,1.526.186a2.311,2.311,0,0,1,1.6.409,2.185,2.185,0,0,1,.335,1.563,1.574,1.574,0,0,1-.558,1.3" transform="translate(-327.99 317.344)" fill="#00c8ac"/>
      <path id="パス_1563" data-name="パス 1563" d="M501.588,8.253c-.3.335-.781.521-1.116.894-.3.3-.521.781-.857,1.116-.3.335-.483.818-.818,1.153-.3.335-.632.67-.968,1s-.856.447-1.228.781c-.3.3-.409.856-.744,1.191.037.148-.3.26-.3.446,0,.781.224.633.224,1.563,0,.446.111.967.111,1.563,0,.484.149,1,.149,1.526s-.3,1.041-.3,1.563.112,1.041.112,1.563-.223,1.042-.223,1.526c0,.6.483,1.116.483,1.563,0,.931-.446.781-.446,1.563,0,.744-.074.744-.074,1.526,0,.558.149,1.228-.224,1.6a2.492,2.492,0,0,1-1.6.67,2.549,2.549,0,0,1-1.674-.6,2.6,2.6,0,0,1-.558-1.674c0-.781.224-.781.224-1.526V25.742c0-.782.111-.782.111-1.526,0-.781-.111-.781-.111-1.526,0-.781.224-.781.224-1.526V19.64a3.277,3.277,0,0,0-.224-1.563c-.372.372-.893.707-1.3,1.08s-.819.707-1.228,1.079-.819.707-1.228,1.079c-.409.335-.707.856-1.116,1.191-.41.371-.782.744-1.191,1.115a2.4,2.4,0,0,1-1.451.6c-.558,0-1-.6-1.414-1.079a1.815,1.815,0,0,1-.484-1.34,1.707,1.707,0,0,1,.707-1.265c.372-.335.781-.67,1.19-1,.372-.335.708-.744,1.079-1.079.41-.335.708-.744,1.08-1.079.372-.372.781-.707,1.153-1.042s.856-.6,1.228-.93.781-.67,1.153-1,.558-.894.931-1.228c.409-.372.93-.521,1.3-.855.372-.372.781-.708,1.154-1.042.372-.372.484-.967.856-1.3.372-.372.67-.818,1-1.154.372-.372.856-.632,1.191-1,.372-.372.892-.6,1.227-.93.372-.409.372-1.116.67-1.451l.038.038a2.3,2.3,0,0,1,3.088-.149,2.3,2.3,0,0,1,.818,1.451,2,2,0,0,1-.632,1.488" transform="translate(-348.209 317.268)" fill="#00c8ac"/>
      <path id="パス_1571" data-name="パス 1571" d="M465.092,59.822c-1.055,0-1.055.191-2.111.191s-1.055-.031-2.11-.031-1.055-.323-2.11-.323-1.055.24-2.111.24-1.056.046-2.113.046-1.055-.074-2.111-.074-1.055-.124-2.11-.124-1.055-.032-2.111-.032-1.056.194-2.112.194-1.055-.3-2.111-.3-1.055.105-2.111.105-1.056-.03-2.112-.03-1.055-.066-2.112-.066-1.056.264-2.112.264-1.056-.1-2.111-.1-1.057.243-2.113.243-1.056-.144-2.112-.144-1.056-.2-2.113-.2-1.055-.046-2.11-.046-1.056.267-2.112.267-1.055-.257-2.11-.257-1.057.033-2.113.033-1.055.191-2.111.191-1.057-.2-2.113-.2-1.056.2-2.112.2-1.056.021-2.113.021-1.057-.262-2.114-.262-1.057.03-2.114.03-1.057.1-2.114.1-1.057-.106-2.113-.106-1.057.3-2.114.3-1.057-.291-2.114-.291-1.059.391-2.118.391-1.058-.109-2.117-.109a1.232,1.232,0,0,1-1.108-1.334h.047a.957.957,0,0,1,1.061-1.051c1.055,0,1.055-.392,2.111-.392s1.055.223,2.11.223,1.055.082,2.11.082,1.055-.136,2.111-.136,1.057.235,2.113.235,1.055-.254,2.111-.254,1.055.277,2.11.277,1.055-.351,2.112-.351,1.056.214,2.112.214,1.055.135,2.111.135,1.055-.336,2.112-.336h2.112c1.056,0,1.056.124,2.112.124s1.056-.206,2.112-.206,1.056.081,2.112.081,1.056.146,2.112.146,1.056-.107,2.112-.107,1.056.272,2.113.272,1.055-.392,2.11-.392,1.056.227,2.112.227,1.055-.053,2.11-.053,1.057.2,2.113.2,1.055-.1,2.111-.1,1.057-.278,2.113-.278,1.056.371,2.112.371,1.057.043,2.113.043,1.057-.138,2.114-.138,1.057-.158,2.114-.158,1.057-.1,2.114-.1,1.057.231,2.114.231,1.057-.25,2.113-.25,1.057.383,2.114.383,1.058-.28,2.117-.28,1.058-.089,2.117-.089a1.421,1.421,0,0,1,1.228,1.43h-.21c0,.675-.343,1.225-1.018,1.225" transform="translate(-311.085 295.71)" fill="#00c8ac"/>
    </g>
    <g id="グループ_2519" data-name="グループ 2519" transform="translate(5.508 -26)">
      <g id="グループ_2518" data-name="グループ 2518" transform="translate(88.398 401.947)">
        <path id="パス_1572" data-name="パス 1572" d="M12.517,11.505c-.185.207-.207.6-.438.806-.207.185-.577.208-.83.369a8.217,8.217,0,0,1-.761.439c-.254.115-.461.369-.761.461a5.1,5.1,0,0,1-.83.277,5.725,5.725,0,0,1-.9.069,5.317,5.317,0,0,1-.876.092v.046c-.23,0-.461.116-.668.092-.3-.023-.6-.069-.876-.115s-.53-.3-.806-.369c-.277-.092-.507-.254-.783-.369a4.475,4.475,0,0,1-.738-.392,7.23,7.23,0,0,1-.669-.507c-.207-.185-.53-.277-.715-.484a4.562,4.562,0,0,1-.507-.876c-.185-.277-.622-.415-.761-.738-.115-.3.093-.738,0-1.06A6.734,6.734,0,0,1,.23,8.3,7.159,7.159,0,0,1,.207,7.31C.207,7.241,0,7.171,0,7.149c0-.322.3-.622.346-.945s.069-.622.139-.945c.092-.3.253-.576.369-.853.115-.3.115-.668.253-.945.162-.276.461-.461.645-.715.208-.253.208-.668.439-.9s.622-.254.9-.438a5.338,5.338,0,0,1,.83-.391c.3-.139.507-.438.83-.531A6.035,6.035,0,0,1,5.671.233C6.132.187,6.593.141,7.03.141c.277,0,.553.207.83.23A4.768,4.768,0,0,1,8.69.58a4.831,4.831,0,0,1,.83.115,8.282,8.282,0,0,1,.806.323c.254.115.392.414.622.575.231.185.553.231.761.415a7.914,7.914,0,0,1,.6.622l.023-.023a1.245,1.245,0,0,1,.3.922c0,.323-.253.507-.53.738-.253.253-.461.622-.807.6a1.527,1.527,0,0,1-.968-.461c-.23-.253-.3-.645-.53-.852-.253-.208-.668-.162-.945-.277A3.709,3.709,0,0,0,8,2.838a6.722,6.722,0,0,0-.968,0,6.958,6.958,0,0,0-1.014-.069,3.6,3.6,0,0,0-.9.438c-.3.138-.714.115-.968.323a3.557,3.557,0,0,0-.645.784,4.284,4.284,0,0,0-.392.945,5.971,5.971,0,0,0-.184.969c-.046.323-.277.622-.3.968,0,.046.046.092.046.115A4.658,4.658,0,0,0,2.9,8.325a2.872,2.872,0,0,0,.346.945,3.133,3.133,0,0,0,.507.9,3.314,3.314,0,0,0,.669.415c.23.161.323.553.6.645.231.092.553,0,.83.046a4.5,4.5,0,0,0,.807.138,3.19,3.19,0,0,0,.461.092c.346,0,.645-.253.968-.3a4.669,4.669,0,0,0,1.015-.138,4.158,4.158,0,0,0,.853-.553,6.674,6.674,0,0,0,.645-.761,1.491,1.491,0,0,1,1.014-.416c.323,0,.577.277.854.508a1.194,1.194,0,0,1,.369.829,1.012,1.012,0,0,1-.323.83" transform="translate(0 -0.072)" fill="#fff"/>
        <path id="パス_1573" data-name="パス 1573" d="M33.7,13.756a1.4,1.4,0,0,1-.9.484c-.369,0-.576-.369-.806-.6a1.073,1.073,0,0,1-.415-.806,5.648,5.648,0,0,1-.069-.946c0-.276-.138-.6-.138-.945,0-.3.138-.622.138-.945,0-.3-.138-.622-.138-.946,0-.3.23-.6.185-.829a2,2,0,0,0-.507-.692,1.69,1.69,0,0,0-.6-.438c-.185-.069-.438.069-.738.069a3.144,3.144,0,0,0-.829.023,1.366,1.366,0,0,0-.669.484c-.161.161-.553.207-.645.461a2.64,2.64,0,0,0-.046.761c0,.069.161.115.161.161,0,.485-.253.485-.253.946,0,.484.276.484.276.945,0,.484.046.484.046.945,0,.484-.024.484-.024.946a1.45,1.45,0,0,1-.484.922,1.478,1.478,0,0,1-.922.507,1.605,1.605,0,0,1-1.014-.415c-.23-.23-.207-.668-.207-1.014,0-.461-.139-.369-.139-.922,0-.277.162-.6.162-.945,0-.3-.046-.6-.046-.945,0-.3-.139-.622-.139-.922,0-.323.023-.622.023-.946s.023-.622.023-.945.046-.622.046-.922c0-.346.162-.669.162-.945,0-.553-.3-.461-.3-.922s.161-.461.161-.945c0-.461-.069-.461-.069-.922s.162-.461.162-.946a1.292,1.292,0,0,1,.207-.945,1.426,1.426,0,0,1,.968-.346,1.4,1.4,0,0,1,.968.323,1.419,1.419,0,0,1,.346.967c0,.415-.207.415-.207.831s.185.415.185.806c0,.415-.139.415-.139.83s-.207.507-.023.876a6.5,6.5,0,0,1,1.2-.3,5.511,5.511,0,0,1,1.06-.3c.323,0,.6.23.9.276a4.055,4.055,0,0,1,.922.092,5.5,5.5,0,0,1,.761.507,5.577,5.577,0,0,1,.691.6,3.927,3.927,0,0,1,.392.761,5.2,5.2,0,0,1,.461,1.636,4.768,4.768,0,0,1,.115.829c0,.323.185.646.185.946v.945c0,.346-.115.668-.115.945a2.082,2.082,0,0,0,.207.946,1.36,1.36,0,0,1-.53.922" transform="translate(-8.601 -0.133)" fill="#fff"/>
        <path id="パス_1574" data-name="パス 1574" d="M54.858,14.862l.161-.023a1.243,1.243,0,0,1-.438.876,1.063,1.063,0,0,1-.83.392c-.023,0-.023.207-.046.207a1.421,1.421,0,0,1-.922-.461,1.241,1.241,0,0,1-.322-.876c0-.277.207-.484-.069-.507-.346-.046-.277.185-.53.414-.207.208-.346.508-.577.646a3.983,3.983,0,0,1-.829.3,5.369,5.369,0,0,1-.807.415c-.277.046-.577-.254-.876-.254a3.492,3.492,0,0,1-.853.046,4,4,0,0,1-.9-.092,7.253,7.253,0,0,1-.715-.53,4.991,4.991,0,0,1-.668-.554,4.636,4.636,0,0,1-.553-.622c-.162-.23-.069-.577-.162-.83s-.438-.438-.484-.715.184-.553.184-.83a4.967,4.967,0,0,1-.046-.829,4.313,4.313,0,0,1,.207-.784c.092-.276.346-.438.484-.668.139-.254.116-.6.3-.807.207-.253.554-.323.784-.53s.346-.553.6-.738c.276-.161.576-.276.852-.415s.646-.023.922-.115A6.44,6.44,0,0,1,49.6,6.7a5.983,5.983,0,0,1,.922-.046,6.76,6.76,0,0,1,.922.115,4.718,4.718,0,0,1,.991.046,4.011,4.011,0,0,1,.922.392c.207.139.276.507.461.715.162.207.415.369.53.622.138.23.023.554.092.83a4.235,4.235,0,0,1,.254.761c0,.023.023.023.023.069.023.461.23.438.253.9.023.484-.207.484-.185.969.023.461,0,.461.023.922s.207.461.231.922-.207.484-.185.945M52.3,10.344c-.069-.577-.415-.645-.645-.83a1.866,1.866,0,0,0-1.13-.346c-.023,0-.023-.139-.023-.139a3.961,3.961,0,0,0-.83.208,6.774,6.774,0,0,0-.761.323,3.947,3.947,0,0,0-.645.484c-.23.162-.669.115-.853.323a2.607,2.607,0,0,0-.3.738,2.86,2.86,0,0,0,.046.761,1.533,1.533,0,0,0,.346,1.176,1.232,1.232,0,0,0,.6.346c.23.116.438.323.669.323.253,0,.438-.277.668-.369a1.6,1.6,0,0,0,.576-.392c.461-.437.669-.23,1.153-.691a1.246,1.246,0,0,1,1.2-.346c.207-.323.046-.438.024-.83a4.053,4.053,0,0,0-.092-.738" transform="translate(-15.35 -2.322)" fill="#fff"/>
        <path id="パス_1575" data-name="パス 1575" d="M76.573,11.6c0,.322.207.645.207.945,0,.346-.185.669-.185.946,0,.576.139.484.139.945h-.069a1.48,1.48,0,0,1-.3,1.015,1.485,1.485,0,0,1-1.015.23,1.35,1.35,0,0,1-.968-.276c-.23-.231-.184-.6-.184-.969,0-.461-.069-.369-.069-.945,0-.277-.161-.6-.161-.946V11.6c0-.3.046-.622.046-.945a1.884,1.884,0,0,0-.277-.784,1.711,1.711,0,0,0-.507-.645,2.171,2.171,0,0,0-.738-.484,3.318,3.318,0,0,0-.876-.139,2.129,2.129,0,0,0-.853.023c-.253.093-.392.439-.576.622-.207.185-.554.254-.645.461-.115.231,0,.531,0,.784,0,.507-.185.507-.185.991s.276.484.276.969c0,.507-.023.507-.023.99s-.253.485-.253.969c0,.369.023.668-.207.9a1.373,1.373,0,0,1-.9.461,1.325,1.325,0,0,1-.854-.507,1.13,1.13,0,0,1-.368-.853c0-.484-.207-.484-.207-.969V11.487c0-.484.23-.484.23-.991,0-.185-.185-.415-.162-.6,0-.046.139-.115.139-.208-.023-.207,0-.507-.046-.806a6.237,6.237,0,0,0-.185-.692,1.423,1.423,0,0,0-.392-.6,1.406,1.406,0,0,1-.484-.9,1.369,1.369,0,0,1,.461-.922,1.117,1.117,0,0,1,.9-.277,1.156,1.156,0,0,1,.853.277,3.469,3.469,0,0,1,.507.507,2.636,2.636,0,0,1,.346.53,4.306,4.306,0,0,1,.806-.369,5.14,5.14,0,0,1,.9-.3,4.024,4.024,0,0,1,.922-.115A7.159,7.159,0,0,1,72.608,6a4.4,4.4,0,0,1,1.729.876,4.569,4.569,0,0,1,.806.461,3.834,3.834,0,0,1,.715.646,5.737,5.737,0,0,1,.461.829,4.039,4.039,0,0,1,.139.922c.069.3.323.6.323.923s-.207.645-.207.945" transform="translate(-22.774 -1.921)" fill="#fff"/>
        <path id="パス_1576" data-name="パス 1576" d="M96.942,11.33v.9c0,.461.092.461.092.9,0,.461-.162.461-.162.9,0,.461.207.461.207.922,0,.3-.253.6-.253.9-.023.3.092.6.046.9a6.469,6.469,0,0,1-.322.853,4.605,4.605,0,0,1-.323.945c-.184.276-.553.392-.806.622a5.378,5.378,0,0,1-.784.6,6.941,6.941,0,0,1-.829.346,6.855,6.855,0,0,1-.854.369,5.953,5.953,0,0,1-.922.161s0-.092-.023-.092a4.413,4.413,0,0,1-.9-.254c-.3-.046-.692.116-.968,0-.3-.115-.438-.507-.692-.692a5.571,5.571,0,0,1-.691-.6c-.207-.23-.553-.346-.715-.622-.185-.3,0-.645.092-.945a1.029,1.029,0,0,1,.507-.692c.323-.162.6-.392.922-.323.322.092.438.438.622.738.162.3.554.438.876.6a2.183,2.183,0,0,0,.968.069c.253,0,.484.138.715.069a3.105,3.105,0,0,0,.622-.392c.53-.323.738-.392.876-.738a2.406,2.406,0,0,0,.253-.783c.023-.231-.046-.6-.046-.9a5,5,0,0,1-.968.254c-.323.069-.622.3-.945.3v-.185a4.172,4.172,0,0,1-.922-.069,6.354,6.354,0,0,1-.876-.277c-.277-.138-.669-.069-.945-.253-.253-.162-.323-.577-.553-.807-.207-.207-.623-.276-.784-.53a5.785,5.785,0,0,1-.253-.9,6.69,6.69,0,0,1-.392-.83,4.1,4.1,0,0,1,.023-.922,4.722,4.722,0,0,1,.046-.992,4.644,4.644,0,0,1,.208-1.015,4.337,4.337,0,0,1,.622-.829,4.442,4.442,0,0,1,.692-.784c.207-.162.6-.115.83-.23.253-.138.461-.392.738-.461A4.764,4.764,0,0,1,91.8,6.4a4.974,4.974,0,0,1,.852-.093,5.892,5.892,0,0,1,1.061.254,6.384,6.384,0,0,1,1.106.414A1.221,1.221,0,0,1,95.7,6.6c.346,0,.692-.069.922.162a1.279,1.279,0,0,1,.253.945v1.8c0,.461.277.461.277.923,0,.438-.207.438-.207.9m-2.421-.992c0-.438-.184-.438-.23-.876-.069-.023.046-.23-.023-.277-.253-.138-.6,0-.853-.069a3.537,3.537,0,0,0-.761-.231,3.119,3.119,0,0,0-.829.208,2.458,2.458,0,0,0-.715.438c-.23.185-.53.276-.645.507-.115.254,0,.531,0,.831,0,.253-.161.552-.046.829.116.231.392.346.6.553a2.228,2.228,0,0,0,.692.484c.3.115.553.415.83.415a2.464,2.464,0,0,0,.876-.231,2.139,2.139,0,0,0,.691-.53c.115-.115.046-.254.162-.323.069-.438.253-.415.277-.853s-.024-.439-.024-.876" transform="translate(-30.327 -2.201)" fill="#fff"/>
        <path id="パス_1577" data-name="パス 1577" d="M116.937,11.24c-.069.207-.323.322-.507.53-.046.069-.023.092-.069.161a1.46,1.46,0,0,1-.831.439,4.588,4.588,0,0,1-.945.069c-.438,0-.438.023-.853.023-.439,0-.439.138-.853.138s-.415-.184-.854-.184H111.2c-.439,0-.461-.162-.876-.046.161.207.23.461.391.552a2.815,2.815,0,0,0,.945.484,3.277,3.277,0,0,0,1.06.023,2.476,2.476,0,0,0,.945-.185,1.528,1.528,0,0,1,1.06.115,1.325,1.325,0,0,1,.645.761,1.231,1.231,0,0,1-.092.946c-.138.3-.277.668-.622.806a6.034,6.034,0,0,1-.968.092,6.99,6.99,0,0,1-.968-.023c-.323,0-.692.3-1.037.23a4.621,4.621,0,0,1-.991-.346,5.771,5.771,0,0,1-.922-.461,6.23,6.23,0,0,1-.829-.6c-.231-.231-.254-.623-.439-.876-.184-.277-.484-.461-.622-.738a6.631,6.631,0,0,1-.139-.946c-.069-.323-.368-.622-.368-.922,0-.323.368-.6.438-.9a3.79,3.79,0,0,1,.092-.9,3.606,3.606,0,0,1,.323-.876,4.013,4.013,0,0,1,.6-.761,5.946,5.946,0,0,1,.807-.507,3.7,3.7,0,0,1,.876-.369,5.062,5.062,0,0,1,.876-.391c.3-.046.645.253.945.253a5.649,5.649,0,0,1,.876.069,3.513,3.513,0,0,1,.853.184,3.549,3.549,0,0,1,.876.277,3.958,3.958,0,0,1,.738.53c.207.207.3.507.507.761.207.277.622.439.738.761a2.807,2.807,0,0,1,.092,1.083,1.964,1.964,0,0,1-.069.738M113.894,9.6c-.23-.184-.576-.115-.806-.207a2.156,2.156,0,0,0-.761-.092c-.276,0-.53-.138-.783-.046-.23.092-.577.092-.784.277-.184.161-.115.507-.276.761,0,.046-.092.092-.046.092.484,0,.484-.23.968-.23s.484.046.945.046c.484,0,.484.138.968.138.461,0,.461-.138.945-.115.069,0,.208.069.162.023a3.8,3.8,0,0,0-.53-.645" transform="translate(-37.092 -2.296)" fill="#fff"/>
        <path id="パス_1578" data-name="パス 1578" d="M144.064,3.263c0,.461-.023.461-.023.922s.023.461.023.946c0,.461.069.461.069.922,0,.484-.069.484-.069.945s.023.461.023.922c0,.484.162.484.162.945s-.23.461-.23.922v1.867c0,.484.069.484.069.945a1.354,1.354,0,0,1-.207.968c-.23.231-.622.138-.968.138a1.179,1.179,0,0,1-.9-.207,1.464,1.464,0,0,1-.53-.9c0-.484.161-.484.161-.945s.162-.461.162-.945c0-.461-.253-.461-.253-.922s-.024-.461-.024-.946c0-.461.069-.461.069-.922,0-.484.115-.484.115-.945s-.138-.461-.138-.922c0-.485.069-.485.069-.946s.046-.461.046-.922c0-.484-.23-.484-.23-.945s.23-.461.23-.922c0-.484-.092-.484-.092-.945,0-.346.276-.577.507-.806s.461-.531.807-.531.577.323.807.554.576.438.576.783c0,.484.023.484.023.945s-.253.461-.253.945" transform="translate(-48.869 -0.035)" fill="#fff"/>
        <path id="パス_1579" data-name="パス 1579" d="M160.675,11.24c-.069.207-.323.322-.507.53-.046.069-.023.092-.069.161a1.46,1.46,0,0,1-.831.439,4.591,4.591,0,0,1-.945.069c-.438,0-.438.023-.854.023-.438,0-.438.138-.852.138s-.415-.184-.854-.184h-.829c-.439,0-.461-.162-.876-.046.161.207.23.461.391.552a2.822,2.822,0,0,0,.945.484,3.277,3.277,0,0,0,1.06.023,2.476,2.476,0,0,0,.945-.185,1.528,1.528,0,0,1,1.06.115,1.325,1.325,0,0,1,.645.761,1.228,1.228,0,0,1-.092.946c-.138.3-.277.668-.622.806a6.05,6.05,0,0,1-.969.092,6.99,6.99,0,0,1-.968-.023c-.323,0-.692.3-1.037.23a4.621,4.621,0,0,1-.991-.346,5.771,5.771,0,0,1-.922-.461,6.32,6.32,0,0,1-.83-.6c-.23-.231-.253-.623-.438-.876-.184-.277-.484-.461-.622-.738a6.635,6.635,0,0,1-.139-.946c-.069-.323-.368-.622-.368-.922,0-.323.368-.6.438-.9a3.791,3.791,0,0,1,.092-.9,3.606,3.606,0,0,1,.323-.876,4.012,4.012,0,0,1,.6-.761,5.945,5.945,0,0,1,.807-.507,3.7,3.7,0,0,1,.876-.369,5.062,5.062,0,0,1,.876-.391c.3-.046.645.253.945.253a5.649,5.649,0,0,1,.876.069,3.513,3.513,0,0,1,.853.184,3.55,3.55,0,0,1,.876.277,3.958,3.958,0,0,1,.738.53c.207.207.3.507.507.761.207.277.622.439.738.761a2.807,2.807,0,0,1,.092,1.083,1.964,1.964,0,0,1-.069.738M157.632,9.6c-.23-.184-.576-.115-.806-.207a2.156,2.156,0,0,0-.761-.092c-.276,0-.53-.138-.783-.046-.23.092-.576.092-.784.277-.184.161-.115.507-.276.761,0,.046-.092.092-.046.092.484,0,.484-.23.968-.23s.484.046.945.046c.484,0,.484.138.968.138.461,0,.461-.138.944-.115.069,0,.208.069.162.023a3.8,3.8,0,0,0-.53-.645" transform="translate(-52.202 -2.296)" fill="#fff"/>
        <path id="パス_1580" data-name="パス 1580" d="M181.528,14.862l.161-.023a1.243,1.243,0,0,1-.438.876,1.063,1.063,0,0,1-.829.392c-.024,0-.024.207-.046.207a1.422,1.422,0,0,1-.922-.461,1.245,1.245,0,0,1-.323-.876c0-.277.207-.484-.069-.507-.346-.046-.277.185-.53.414-.208.208-.346.508-.577.646a3.983,3.983,0,0,1-.829.3,5.368,5.368,0,0,1-.807.415c-.277.046-.577-.254-.876-.254a3.485,3.485,0,0,1-.852.046,3.993,3.993,0,0,1-.9-.092,7.177,7.177,0,0,1-.715-.53,4.99,4.99,0,0,1-.668-.554,4.59,4.59,0,0,1-.553-.622c-.162-.23-.069-.577-.162-.83s-.438-.438-.484-.715.184-.553.184-.83a5.04,5.04,0,0,1-.046-.829,4.313,4.313,0,0,1,.207-.784c.092-.276.346-.438.484-.668.138-.254.115-.6.3-.807.208-.253.554-.323.784-.53s.346-.553.6-.738c.276-.161.576-.276.852-.415s.646-.023.922-.115a6.44,6.44,0,0,1,.876-.276,5.983,5.983,0,0,1,.922-.046,6.76,6.76,0,0,1,.922.115,4.718,4.718,0,0,1,.991.046,4.011,4.011,0,0,1,.922.392c.207.139.276.507.461.715.162.207.415.369.53.622.139.23.023.554.092.83a4.236,4.236,0,0,1,.254.761c0,.023.023.023.023.069.023.461.23.438.253.9.023.484-.207.484-.185.969.023.461,0,.461.023.922s.207.461.23.922-.207.484-.184.945m-2.559-4.518c-.069-.577-.415-.645-.645-.83a1.866,1.866,0,0,0-1.13-.346c-.023,0-.023-.139-.023-.139a3.961,3.961,0,0,0-.83.208,6.775,6.775,0,0,0-.761.323,3.947,3.947,0,0,0-.645.484c-.231.162-.669.115-.853.323a2.607,2.607,0,0,0-.3.738,2.861,2.861,0,0,0,.046.761,1.533,1.533,0,0,0,.346,1.176,1.232,1.232,0,0,0,.6.346c.23.116.438.323.668.323.254,0,.439-.277.669-.369a1.6,1.6,0,0,0,.576-.392c.461-.437.669-.23,1.153-.691a1.246,1.246,0,0,1,1.2-.346c.207-.323.046-.438.024-.83a4.054,4.054,0,0,0-.092-.738" transform="translate(-59.109 -2.322)" fill="#fff"/>
        <path id="パス_1581" data-name="パス 1581" d="M199.092,8.738c-.23.231-.6.139-.968.139s-.668.346-1.015.53a2.8,2.8,0,0,0-.806.669,2.259,2.259,0,0,0-.415.622,2.709,2.709,0,0,0-.369.669c-.069.253-.3.484-.277.738,0,.023.138.023.138.023,0,.391-.23.391-.23.806s.276.415.276.83-.23.415-.23.829a1.1,1.1,0,0,1-.276.854,1.164,1.164,0,0,1-.876.346,1.36,1.36,0,0,1-.968-.23,1.392,1.392,0,0,1-.3-.969c0-.461-.093-.461-.093-.922s-.092-.461-.092-.922.253-.461.253-.922-.023-.461-.023-.922-.185-.461-.185-.922.115-.461.115-.922-.092-.461-.092-.922.231-.461.231-.9a1.056,1.056,0,0,1,.3-.876c.23-.23.507-.553.854-.553a1.517,1.517,0,0,1,.991.438,1.4,1.4,0,0,1,.253.991c0,.254-.138.323.046.507a5.486,5.486,0,0,1,.761-.714,4.394,4.394,0,0,1,.991-.392,4.2,4.2,0,0,1,1.037-.231V6.341a1.417,1.417,0,0,1,1.383,1.429,1.485,1.485,0,0,1-.415.968" transform="translate(-66.533 -2.03)" fill="#fff"/>
        <path id="パス_1582" data-name="パス 1582" d="M219.089,11.6c0,.322.207.645.207.945,0,.346-.185.669-.185.946,0,.576.139.484.139.945h-.069a1.483,1.483,0,0,1-.3,1.015,1.488,1.488,0,0,1-1.015.23,1.35,1.35,0,0,1-.968-.276c-.23-.231-.184-.6-.184-.969,0-.461-.069-.369-.069-.945,0-.277-.162-.6-.162-.946V11.6c0-.3.046-.622.046-.945a1.893,1.893,0,0,0-.276-.784,1.724,1.724,0,0,0-.507-.645,2.184,2.184,0,0,0-.738-.484,3.323,3.323,0,0,0-.877-.139,2.125,2.125,0,0,0-.852.023c-.254.093-.393.439-.577.622-.207.185-.554.254-.645.461-.115.231,0,.531,0,.784,0,.507-.185.507-.185.991s.276.484.276.969c0,.507-.022.507-.022.99s-.254.485-.254.969c0,.369.023.668-.208.9a1.371,1.371,0,0,1-.9.461,1.325,1.325,0,0,1-.854-.507,1.129,1.129,0,0,1-.368-.853c0-.484-.208-.484-.208-.969V11.487c0-.484.23-.484.23-.991,0-.185-.185-.415-.162-.6,0-.046.139-.115.139-.208-.024-.207,0-.507-.046-.806a6.237,6.237,0,0,0-.185-.692,1.41,1.41,0,0,0-.392-.6,1.406,1.406,0,0,1-.484-.9,1.369,1.369,0,0,1,.461-.922,1.117,1.117,0,0,1,.9-.277,1.156,1.156,0,0,1,.853.277,3.434,3.434,0,0,1,.507.507,2.608,2.608,0,0,1,.346.53,4.3,4.3,0,0,1,.806-.369,5.14,5.14,0,0,1,.9-.3,4.033,4.033,0,0,1,.922-.115A7.159,7.159,0,0,1,215.123,6a4.4,4.4,0,0,1,1.73.876,4.588,4.588,0,0,1,.806.461,3.834,3.834,0,0,1,.715.646,5.8,5.8,0,0,1,.461.829,4.075,4.075,0,0,1,.138.922c.069.3.323.6.323.923s-.207.645-.207.945" transform="translate(-72.007 -1.921)" fill="#fff"/>
        <path id="パス_1583" data-name="パス 1583" d="M232.936,10.312c0,.484.046.484.046.967,0,.461.138.461.138.945s-.253.484-.253.969c0,.345.069.714-.161.945s-.577.208-.945.208a1.08,1.08,0,0,1-.83-.323c-.23-.254-.577-.485-.577-.83,0-.484.207-.439.207-.969,0-.3-.138-.645-.138-.968,0-.53.069-.484.069-.945,0-.485-.185-.485-.185-.969s.138-.484.138-.968-.023-.484-.023-.945c0-.484.138-.484.138-.968a1.218,1.218,0,0,1,.3-.9,1.314,1.314,0,0,1,.9-.415c.346,0,.553.3.783.53s.484.438.484.784c0,.484.046.415.046.968,0,.277.023.622.023.968,0,.323.046.668.046.945,0,.554-.207.484-.207.969m-.092-6.639c-.069.276-.069.576-.277.738a1.2,1.2,0,0,1-.806.161,1.427,1.427,0,0,1-.323.023c-.323-.092-.484-.369-.645-.645s-.416-.576-.346-.9c.092-.346.254-.3.346-.645a1.018,1.018,0,0,1,.6-.669,1,1,0,0,1,.853-.138,1.037,1.037,0,0,1,.668.531,1.063,1.063,0,0,1,.139.876c-.092.323-.115.323-.207.668" transform="translate(-79.562 -0.561)" fill="#fff"/>
        <path id="パス_1584" data-name="パス 1584" d="M250.57,11.6c0,.322.207.645.207.945,0,.346-.185.669-.185.946,0,.576.139.484.139.945h-.069a1.483,1.483,0,0,1-.3,1.015,1.487,1.487,0,0,1-1.015.23,1.352,1.352,0,0,1-.969-.276c-.23-.231-.184-.6-.184-.969,0-.461-.069-.369-.069-.945,0-.277-.162-.6-.162-.946V11.6c0-.3.046-.622.046-.945a1.875,1.875,0,0,0-.277-.784,1.711,1.711,0,0,0-.507-.645,2.158,2.158,0,0,0-.738-.484,3.313,3.313,0,0,0-.876-.139,2.132,2.132,0,0,0-.854.023c-.253.093-.392.439-.576.622-.207.185-.554.254-.645.461-.115.231,0,.531,0,.784,0,.507-.184.507-.184.991s.276.484.276.969c0,.507-.023.507-.023.99s-.253.485-.253.969c0,.369.023.668-.208.9a1.371,1.371,0,0,1-.9.461,1.329,1.329,0,0,1-.854-.507,1.132,1.132,0,0,1-.369-.853c0-.484-.207-.484-.207-.969V11.487c0-.484.23-.484.23-.991,0-.185-.184-.415-.161-.6,0-.046.138-.115.138-.208-.023-.207,0-.507-.046-.806a6.1,6.1,0,0,0-.185-.692,1.43,1.43,0,0,0-.391-.6,1.4,1.4,0,0,1-.484-.9,1.369,1.369,0,0,1,.461-.922,1.115,1.115,0,0,1,.9-.277,1.154,1.154,0,0,1,.852.277,3.473,3.473,0,0,1,.508.507,2.661,2.661,0,0,1,.346.53,4.306,4.306,0,0,1,.806-.369,5.159,5.159,0,0,1,.9-.3,4.029,4.029,0,0,1,.922-.115,7.152,7.152,0,0,1,.99-.024,4.473,4.473,0,0,1,.923.346,4.412,4.412,0,0,1,.806.53,4.523,4.523,0,0,1,.806.461,3.814,3.814,0,0,1,.715.646,5.736,5.736,0,0,1,.461.829,4,4,0,0,1,.139.922c.069.3.323.6.323.923s-.207.645-.207.945" transform="translate(-82.883 -1.921)" fill="#fff"/>
        <path id="パス_1585" data-name="パス 1585" d="M270.94,11.33v.9c0,.461.092.461.092.9,0,.461-.162.461-.162.9,0,.461.207.461.207.922,0,.3-.254.6-.254.9-.023.3.093.6.046.9a6.567,6.567,0,0,1-.322.853,4.605,4.605,0,0,1-.323.945c-.185.276-.553.392-.807.622a5.336,5.336,0,0,1-.783.6,6.909,6.909,0,0,1-.83.346,6.847,6.847,0,0,1-.853.369,5.962,5.962,0,0,1-.922.161s0-.092-.023-.092a4.407,4.407,0,0,1-.9-.254c-.3-.046-.692.116-.968,0-.3-.115-.438-.507-.692-.692a5.625,5.625,0,0,1-.692-.6c-.207-.23-.552-.346-.714-.622-.185-.3,0-.645.092-.945a1.029,1.029,0,0,1,.507-.692c.323-.162.6-.392.922-.323.322.092.438.438.622.738.162.3.554.438.876.6a2.181,2.181,0,0,0,.967.069c.254,0,.485.138.715.069a3.09,3.09,0,0,0,.622-.392c.53-.323.738-.392.876-.738a2.389,2.389,0,0,0,.254-.783c.023-.231-.046-.6-.046-.9a4.994,4.994,0,0,1-.969.254c-.323.069-.622.3-.945.3v-.185a4.173,4.173,0,0,1-.922-.069,6.326,6.326,0,0,1-.876-.277c-.277-.138-.669-.069-.946-.253-.253-.162-.323-.577-.552-.807-.208-.207-.623-.276-.784-.53a5.642,5.642,0,0,1-.253-.9,6.68,6.68,0,0,1-.392-.83,4.1,4.1,0,0,1,.023-.922,4.724,4.724,0,0,1,.046-.992,4.644,4.644,0,0,1,.208-1.015,4.339,4.339,0,0,1,.622-.829,4.442,4.442,0,0,1,.692-.784c.207-.162.6-.115.829-.23.254-.138.461-.392.738-.461A4.783,4.783,0,0,1,265.8,6.4a4.966,4.966,0,0,1,.852-.093,5.892,5.892,0,0,1,1.061.254,6.385,6.385,0,0,1,1.106.414,1.221,1.221,0,0,1,.876-.369c.346,0,.692-.069.922.162a1.279,1.279,0,0,1,.253.945v1.8c0,.461.277.461.277.923,0,.438-.208.438-.208.9m-2.42-.992c0-.438-.184-.438-.231-.876-.069-.023.047-.23-.023-.277-.253-.138-.6,0-.852-.069a3.538,3.538,0,0,0-.761-.231,3.113,3.113,0,0,0-.829.208,2.457,2.457,0,0,0-.715.438c-.23.185-.53.276-.645.507-.115.254,0,.531,0,.831,0,.253-.161.552-.046.829.115.231.392.346.6.553a2.226,2.226,0,0,0,.691.484c.3.115.554.415.831.415a2.464,2.464,0,0,0,.876-.231,2.139,2.139,0,0,0,.691-.53c.115-.115.046-.254.161-.323.07-.438.254-.415.277-.853s-.023-.439-.023-.876" transform="translate(-90.436 -2.201)" fill="#fff"/>
        <path id="パス_1586" data-name="パス 1586" d="M284.3,21.025c-.046.323-.253.622-.323.945a1.408,1.408,0,0,1-.53.623,1.3,1.3,0,0,1-.738.3,1.858,1.858,0,0,1-.346-.069,1.357,1.357,0,0,1-.806-.554,1.385,1.385,0,0,1-.139-1.014,4.4,4.4,0,0,0,.253-1.084,8.572,8.572,0,0,0-.069-1.106c0-.346-.023-.692-.023-.968a1.571,1.571,0,0,1,.323-1.014,1.537,1.537,0,0,1,.967-.461,1.587,1.587,0,0,1,1.015.346,1.544,1.544,0,0,1,.346.967c.023.346-.046.715-.046,1.13,0,.3.231.645.207.968s-.046.669-.092.992" transform="translate(-97.204 -5.764)" fill="#fff"/>
      </g>
      <g id="グループ_2517" data-name="グループ 2517" transform="translate(99.525 429.415)">
        <path id="パス_1587" data-name="パス 1587" d="M303.781,11.505c-.185.207-.207.6-.438.806-.207.185-.577.208-.83.369a8.144,8.144,0,0,1-.761.439c-.253.115-.461.369-.761.461a5.075,5.075,0,0,1-.829.277,5.725,5.725,0,0,1-.9.069,5.318,5.318,0,0,1-.876.092v.046c-.231,0-.461.116-.669.092-.3-.023-.6-.069-.876-.115s-.53-.3-.806-.369c-.277-.092-.507-.254-.783-.369a4.448,4.448,0,0,1-.738-.392,7.231,7.231,0,0,1-.669-.507c-.207-.185-.53-.277-.715-.484a4.6,4.6,0,0,1-.507-.876c-.184-.277-.622-.415-.761-.738-.115-.3.093-.738,0-1.06a6.74,6.74,0,0,1-.369-.945,7.062,7.062,0,0,1-.024-.991c0-.069-.207-.139-.207-.162,0-.322.3-.622.346-.945s.069-.622.138-.945c.092-.3.254-.576.369-.853.115-.3.115-.668.253-.945a9.418,9.418,0,0,1,.646-.715c.207-.253.207-.668.438-.9s.622-.254.9-.438a5.359,5.359,0,0,1,.829-.391c.3-.139.508-.438.831-.531a6.048,6.048,0,0,1,.922-.253c.461-.046.922-.092,1.36-.092.277,0,.553.207.83.23a4.746,4.746,0,0,1,.829.208,4.838,4.838,0,0,1,.831.115,8.281,8.281,0,0,1,.806.323c.253.115.392.414.622.575.231.185.554.231.762.415a8.027,8.027,0,0,1,.6.622l.023-.023a1.245,1.245,0,0,1,.3.922c0,.323-.254.507-.53.738-.253.253-.461.622-.807.6a1.527,1.527,0,0,1-.968-.461c-.23-.253-.3-.645-.53-.852-.253-.208-.668-.162-.945-.277a3.709,3.709,0,0,0-.853-.438,6.722,6.722,0,0,0-.968,0,6.961,6.961,0,0,0-1.015-.069,3.587,3.587,0,0,0-.9.438c-.3.138-.714.115-.968.323a3.559,3.559,0,0,0-.646.784,4.345,4.345,0,0,0-.391.945,5.97,5.97,0,0,0-.184.969c-.046.323-.277.622-.3.968,0,.046.046.092.046.115a4.661,4.661,0,0,0,.23,1.015,2.872,2.872,0,0,0,.346.945,3.133,3.133,0,0,0,.507.9,3.279,3.279,0,0,0,.669.415c.23.161.323.553.6.645.23.092.553,0,.83.046a4.5,4.5,0,0,0,.807.138,3.191,3.191,0,0,0,.461.092c.346,0,.645-.253.968-.3a4.658,4.658,0,0,0,1.014-.138,4.164,4.164,0,0,0,.854-.553,6.6,6.6,0,0,0,.645-.761,1.491,1.491,0,0,1,1.014-.416c.323,0,.577.277.854.508a1.2,1.2,0,0,1,.369.829,1.012,1.012,0,0,1-.323.83" transform="translate(-291.264 -0.049)" fill="#fff"/>
        <path id="パス_1588" data-name="パス 1588" d="M324.967,13.756a1.4,1.4,0,0,1-.9.484c-.369,0-.577-.369-.806-.6a1.071,1.071,0,0,1-.416-.806,5.649,5.649,0,0,1-.069-.946c0-.276-.138-.6-.138-.945,0-.3.138-.622.138-.945,0-.3-.138-.622-.138-.946,0-.3.23-.6.185-.829a2,2,0,0,0-.507-.692,1.684,1.684,0,0,0-.6-.438c-.184-.069-.438.069-.738.069a3.143,3.143,0,0,0-.829.023,1.367,1.367,0,0,0-.669.484c-.161.161-.553.207-.645.461a2.616,2.616,0,0,0-.046.761c0,.069.162.115.162.161,0,.485-.254.485-.254.946,0,.484.277.484.277.945,0,.484.046.484.046.945,0,.484-.023.484-.023.946a1.453,1.453,0,0,1-.484.922,1.481,1.481,0,0,1-.923.507,1.605,1.605,0,0,1-1.014-.415c-.23-.23-.207-.668-.207-1.014,0-.461-.139-.369-.139-.922,0-.277.162-.6.162-.945,0-.3-.046-.6-.046-.945,0-.3-.139-.622-.139-.922,0-.323.023-.622.023-.946s.024-.622.024-.945.046-.622.046-.922c0-.346.161-.669.161-.945,0-.553-.3-.461-.3-.922s.162-.461.162-.945c0-.461-.069-.461-.069-.922s.162-.461.162-.946a1.289,1.289,0,0,1,.208-.945,1.423,1.423,0,0,1,.967-.346,1.407,1.407,0,0,1,.969.323,1.422,1.422,0,0,1,.346.967c0,.415-.208.415-.208.831s.185.415.185.806c0,.415-.139.415-.139.83s-.207.507-.023.876a6.5,6.5,0,0,1,1.2-.3,5.511,5.511,0,0,1,1.06-.3c.323,0,.6.23.9.276a4.052,4.052,0,0,1,.922.092,5.458,5.458,0,0,1,.761.507,5.532,5.532,0,0,1,.691.6,3.892,3.892,0,0,1,.392.761,4.777,4.777,0,0,1,.3.806,4.9,4.9,0,0,1,.162.83,4.833,4.833,0,0,1,.115.829c0,.323.184.646.184.946v.945c0,.346-.115.668-.115.945a2.077,2.077,0,0,0,.208.946,1.359,1.359,0,0,1-.531.922" transform="translate(-299.865 -0.11)" fill="#fff"/>
        <path id="パス_1589" data-name="パス 1589" d="M346.121,14.862l.161-.023a1.243,1.243,0,0,1-.438.876,1.063,1.063,0,0,1-.829.392c-.024,0-.024.207-.047.207a1.421,1.421,0,0,1-.922-.461,1.242,1.242,0,0,1-.323-.876c0-.277.208-.484-.069-.507-.346-.046-.277.185-.531.414-.207.208-.346.508-.576.646a4,4,0,0,1-.829.3,5.376,5.376,0,0,1-.808.415c-.276.046-.576-.254-.876-.254a3.488,3.488,0,0,1-.852.046,3.993,3.993,0,0,1-.9-.092,7.176,7.176,0,0,1-.715-.53,4.99,4.99,0,0,1-.668-.554,4.547,4.547,0,0,1-.553-.622c-.162-.23-.069-.577-.162-.83s-.438-.438-.484-.715.185-.553.185-.83a5.04,5.04,0,0,1-.046-.829,4.313,4.313,0,0,1,.208-.784c.092-.276.346-.438.484-.668.138-.254.115-.6.3-.807.207-.253.554-.323.783-.53s.346-.553.6-.738c.277-.161.577-.276.853-.415s.645-.023.922-.115a6.44,6.44,0,0,1,.876-.276,5.983,5.983,0,0,1,.922-.046,6.75,6.75,0,0,1,.922.115,4.724,4.724,0,0,1,.992.046,4,4,0,0,1,.922.392c.208.139.277.507.461.715.161.207.415.369.53.622.139.23.023.554.092.83a4.133,4.133,0,0,1,.254.761c0,.023.023.023.023.069.023.461.231.438.254.9.023.484-.207.484-.185.969.023.461,0,.461.023.922s.207.461.23.922-.207.484-.184.945m-2.559-4.518c-.069-.577-.416-.645-.645-.83a1.868,1.868,0,0,0-1.13-.346c-.023,0-.023-.139-.023-.139a3.967,3.967,0,0,0-.831.208,6.824,6.824,0,0,0-.761.323,3.945,3.945,0,0,0-.645.484c-.231.162-.669.115-.854.323a2.626,2.626,0,0,0-.3.738,2.861,2.861,0,0,0,.046.761,1.533,1.533,0,0,0,.346,1.176,1.229,1.229,0,0,0,.6.346c.23.116.438.323.668.323.254,0,.438-.277.669-.369a1.6,1.6,0,0,0,.576-.392c.461-.437.668-.23,1.153-.691a1.246,1.246,0,0,1,1.2-.346c.207-.323.046-.438.024-.83a4.054,4.054,0,0,0-.092-.738" transform="translate(-306.613 -2.299)" fill="#fff"/>
        <path id="パス_1590" data-name="パス 1590" d="M367.836,11.6c0,.322.207.645.207.945,0,.346-.185.669-.185.946,0,.576.139.484.139.945h-.069a1.483,1.483,0,0,1-.3,1.015,1.487,1.487,0,0,1-1.015.23,1.352,1.352,0,0,1-.969-.276c-.23-.231-.184-.6-.184-.969,0-.461-.069-.369-.069-.945,0-.277-.162-.6-.162-.946V11.6c0-.3.046-.622.046-.945A1.876,1.876,0,0,0,365,9.874a1.711,1.711,0,0,0-.507-.645,2.158,2.158,0,0,0-.738-.484,3.313,3.313,0,0,0-.876-.139,2.132,2.132,0,0,0-.854.023c-.253.093-.392.439-.576.622-.207.185-.554.254-.645.461-.115.231,0,.531,0,.784,0,.507-.184.507-.184.991s.276.484.276.969c0,.507-.023.507-.023.99s-.253.485-.253.969c0,.369.023.668-.208.9a1.371,1.371,0,0,1-.9.461,1.328,1.328,0,0,1-.853-.507,1.132,1.132,0,0,1-.369-.853c0-.484-.207-.484-.207-.969V11.487c0-.484.23-.484.23-.991,0-.185-.184-.415-.161-.6,0-.046.138-.115.138-.208-.023-.207,0-.507-.046-.806a6.1,6.1,0,0,0-.185-.692,1.43,1.43,0,0,0-.391-.6,1.4,1.4,0,0,1-.485-.9,1.37,1.37,0,0,1,.462-.922,1.115,1.115,0,0,1,.9-.277,1.154,1.154,0,0,1,.852.277,3.471,3.471,0,0,1,.508.507,2.661,2.661,0,0,1,.346.53,4.3,4.3,0,0,1,.806-.369,5.158,5.158,0,0,1,.9-.3,4.03,4.03,0,0,1,.922-.115,7.152,7.152,0,0,1,.99-.024,4.473,4.473,0,0,1,.923.346,4.413,4.413,0,0,1,.806.53,4.523,4.523,0,0,1,.806.461,3.815,3.815,0,0,1,.715.646,5.736,5.736,0,0,1,.461.829,4,4,0,0,1,.139.922c.069.3.323.6.323.923s-.207.645-.207.945" transform="translate(-314.037 -1.898)" fill="#fff"/>
        <path id="パス_1591" data-name="パス 1591" d="M388.206,11.33v.9c0,.461.092.461.092.9,0,.461-.162.461-.162.9,0,.461.207.461.207.922,0,.3-.254.6-.254.9-.023.3.093.6.046.9a6.563,6.563,0,0,1-.322.853,4.605,4.605,0,0,1-.323.945c-.185.276-.553.392-.807.622a5.338,5.338,0,0,1-.783.6,6.909,6.909,0,0,1-.83.346,6.845,6.845,0,0,1-.853.369,5.961,5.961,0,0,1-.922.161s0-.092-.023-.092a4.406,4.406,0,0,1-.9-.254c-.3-.046-.692.116-.968,0-.3-.115-.438-.507-.692-.692a5.625,5.625,0,0,1-.692-.6c-.207-.23-.552-.346-.714-.622-.185-.3,0-.645.092-.945a1.029,1.029,0,0,1,.507-.692c.323-.162.6-.392.922-.323.322.092.438.438.622.738.162.3.554.438.876.6a2.181,2.181,0,0,0,.967.069c.254,0,.485.138.715.069a3.09,3.09,0,0,0,.622-.392c.53-.323.738-.392.876-.738a2.388,2.388,0,0,0,.254-.783c.023-.231-.046-.6-.046-.9a4.994,4.994,0,0,1-.969.254c-.323.069-.622.3-.944.3v-.185a4.172,4.172,0,0,1-.922-.069,6.325,6.325,0,0,1-.876-.277c-.277-.138-.669-.069-.946-.253-.253-.162-.323-.577-.552-.807-.208-.207-.623-.276-.784-.53a5.642,5.642,0,0,1-.253-.9,6.689,6.689,0,0,1-.392-.83,4.1,4.1,0,0,1,.023-.922,4.722,4.722,0,0,1,.046-.992,4.644,4.644,0,0,1,.208-1.015,4.337,4.337,0,0,1,.622-.829,4.443,4.443,0,0,1,.692-.784c.207-.162.6-.115.829-.23.254-.138.461-.392.738-.461a4.783,4.783,0,0,1,.831-.161,4.967,4.967,0,0,1,.852-.093,5.891,5.891,0,0,1,1.061.254,6.381,6.381,0,0,1,1.106.414,1.222,1.222,0,0,1,.876-.369c.346,0,.692-.069.922.162a1.279,1.279,0,0,1,.253.945v1.8c0,.461.277.461.277.923,0,.438-.208.438-.208.9m-2.421-.992c0-.438-.184-.438-.231-.876-.069-.023.047-.23-.023-.277-.253-.138-.6,0-.852-.069a3.537,3.537,0,0,0-.761-.231,3.113,3.113,0,0,0-.829.208,2.458,2.458,0,0,0-.715.438c-.23.185-.53.276-.645.507-.115.254,0,.531,0,.831,0,.253-.161.552-.046.829.115.231.392.346.6.553a2.226,2.226,0,0,0,.691.484c.3.115.554.415.831.415a2.464,2.464,0,0,0,.876-.231,2.138,2.138,0,0,0,.691-.53c.115-.115.046-.254.161-.323.07-.438.254-.415.277-.853s-.023-.439-.023-.876" transform="translate(-321.591 -2.178)" fill="#fff"/>
        <path id="パス_1592" data-name="パス 1592" d="M408.2,11.24c-.069.207-.323.322-.507.53-.046.069-.023.092-.069.161a1.464,1.464,0,0,1-.831.439,4.589,4.589,0,0,1-.945.069c-.438,0-.438.023-.853.023-.439,0-.439.138-.854.138s-.415-.184-.853-.184h-.829c-.439,0-.461-.162-.876-.046.162.207.231.461.392.552a2.815,2.815,0,0,0,.945.484,3.277,3.277,0,0,0,1.06.023,2.468,2.468,0,0,0,.944-.185,1.53,1.53,0,0,1,1.061.115,1.325,1.325,0,0,1,.645.761,1.231,1.231,0,0,1-.092.946c-.139.3-.277.668-.622.806a6.041,6.041,0,0,1-.968.092,6.99,6.99,0,0,1-.968-.023c-.323,0-.692.3-1.037.23a4.639,4.639,0,0,1-.992-.346,5.768,5.768,0,0,1-.922-.461,6.232,6.232,0,0,1-.829-.6c-.231-.231-.254-.623-.439-.876-.184-.277-.484-.461-.622-.738a6.534,6.534,0,0,1-.139-.946c-.069-.323-.369-.622-.369-.922,0-.323.369-.6.438-.9a3.828,3.828,0,0,1,.093-.9,3.607,3.607,0,0,1,.323-.876,3.99,3.99,0,0,1,.6-.761,5.984,5.984,0,0,1,.806-.507,3.7,3.7,0,0,1,.876-.369,5.078,5.078,0,0,1,.876-.391c.3-.046.645.253.945.253a5.641,5.641,0,0,1,.876.069,3.5,3.5,0,0,1,.853.184,3.563,3.563,0,0,1,.876.277,3.979,3.979,0,0,1,.738.53c.207.207.3.507.507.761.208.277.622.439.738.761a2.8,2.8,0,0,1,.092,1.083,1.965,1.965,0,0,1-.069.738M405.159,9.6c-.231-.184-.577-.115-.806-.207a2.158,2.158,0,0,0-.761-.092c-.276,0-.53-.138-.783-.046-.23.092-.577.092-.784.277-.184.161-.115.507-.276.761,0,.046-.093.092-.046.092.484,0,.484-.23.967-.23s.485.046.946.046c.484,0,.484.138.967.138.461,0,.461-.138.945-.115.069,0,.208.069.162.023a3.827,3.827,0,0,0-.53-.645" transform="translate(-328.356 -2.273)" fill="#fff"/>
        <path id="パス_1593" data-name="パス 1593" d="M441.714,3.135a1.62,1.62,0,0,1-1.037.184,1.344,1.344,0,0,1-.922-.346,1.108,1.108,0,0,0-.807-.369,1.346,1.346,0,0,0-1.152.531c-.116.161-.07.438-.162.738a3.388,3.388,0,0,0-.069.715c0,.046-.185.023-.138.046a8.265,8.265,0,0,0,1.083-.092c.554,0,.554.207,1.107.207a1.114,1.114,0,0,1,.807.415c.23.23.645.438.645.806a1.631,1.631,0,0,1-.438,1.015,1.585,1.585,0,0,1-1.015.391c-.553,0-.553-.137-1.107-.137-.53,0-.575-.231-.99.137-.346.277-.208.323-.208.784s.254.461.254.922-.207.461-.207.922.139.461.139.922v.922c0,.437-.069.437-.069.9a1.329,1.329,0,0,1-.346.945,1.367,1.367,0,0,1-.945.346,1.293,1.293,0,0,1-.9-.391,1.166,1.166,0,0,1-.253-.9c0-.462-.185-.462-.185-.923s.207-.461.207-.922c0-.438-.231-.438-.231-.9s-.069-.461-.069-.922.139-.461.139-.922.345-.576.046-.945c-.23-.276-.415-.115-.783-.115a1.186,1.186,0,0,1-.9-.23,1.4,1.4,0,0,1-.484-.9,1.354,1.354,0,0,1,.53-.876,1.132,1.132,0,0,1,.854-.323,4.25,4.25,0,0,0,.761-.092c.046,0,0-.046,0-.092a5.7,5.7,0,0,1,.023-1.084,5.2,5.2,0,0,1,.438-.968,4.269,4.269,0,0,1,.576-.853,4,4,0,0,1,.622-.622,4.016,4.016,0,0,1,.715-.507c.254-.116.484-.392.784-.438A3.994,3.994,0,0,1,438.947,0a5.107,5.107,0,0,1,.991.231,3.5,3.5,0,0,1,.945.323c.277.161.438.461.692.714.23.276.6.53.576.853a1.561,1.561,0,0,1-.438,1.015" transform="translate(-340.133)" fill="#fff"/>
        <path id="パス_1594" data-name="パス 1594" d="M462.414,15.812a1.5,1.5,0,0,1-.645.3,1.548,1.548,0,0,1-.646-.046c-.23-.139-.322-.484-.507-.646-.207-.161-.438-.138-.6-.346-.207.185-.507.115-.738.254a5.37,5.37,0,0,1-.761.323c-.276.092-.484.461-.761.507-.276.023-.6-.184-.876-.184-.023,0-.023.138-.046.138a3.887,3.887,0,0,1-.9-.161,5.859,5.859,0,0,1-.945-.162,5.8,5.8,0,0,1-.806-.507,3.723,3.723,0,0,1-.622-.714,3.953,3.953,0,0,1-.507-.715,6.015,6.015,0,0,1-.23-.876c-.069-.276-.323-.53-.369-.806-.046-.3.138-.6.138-.9,0-.323-.184-.646-.184-.946V9.381c0-.346.23-.669.23-.946,0-.575-.092-.484-.092-.945a1.122,1.122,0,0,1,.461-.807,1.067,1.067,0,0,1,.784-.415,1.239,1.239,0,0,1,.922.3,1.346,1.346,0,0,1,.438.922,5.693,5.693,0,0,0-.069.945c0,.277-.023.6-.023.946,0,.3.092.622.092.945,0,.3.092.622.092.946s-.184.622-.115.875a2.446,2.446,0,0,0,.346.854,1.758,1.758,0,0,0,.646.461,1.9,1.9,0,0,0,.761.069,1.972,1.972,0,0,0,.806-.3c.3-.092.692-.023.9-.207a2.554,2.554,0,0,0,.3-.807,2.174,2.174,0,0,0,.208-.783c0-.484-.3-.484-.3-.968s.323-.484.323-.968-.277-.484-.277-.969.046-.484.046-.967c0-.346.3-.6.531-.83a1.158,1.158,0,0,1,.829-.416,1.3,1.3,0,0,1,.946.3,1.542,1.542,0,0,1,.507.946c0,.484-.092.484-.092.967s-.231.484-.231.969.046.484.046.968-.069.484-.069.968c0,.162.208.3.185.461a1.346,1.346,0,0,1,.046.3,2.116,2.116,0,0,0,.346.783c.161.3.276.668.391.715a1.193,1.193,0,0,1,.53.715c.092.323.254.645.092.945-.115.23-.346.323-.53.461" transform="translate(-346.933 -2.166)" fill="#fff"/>
        <path id="パス_1595" data-name="パス 1595" d="M480.691,8.343c-.23.231-.484.6-.83.6a3.105,3.105,0,0,1-.783-.138c-.391-.046-.53-.323-.806-.046s-.139.416-.139.807.254.392.254.783-.138.392-.138.784a3.639,3.639,0,0,0,.046.761,1.42,1.42,0,0,0,.415.645c.207.207.461.23.876.23a1.452,1.452,0,0,1,.945.439,1.479,1.479,0,0,1,.461.945,1.482,1.482,0,0,1-.461.945,1.311,1.311,0,0,1-.945.253l-.024.116a4.088,4.088,0,0,1-.991-.231,2.565,2.565,0,0,1-.9-.369,2.794,2.794,0,0,1-.738-.646,3.664,3.664,0,0,1-.577-.622,4.137,4.137,0,0,1-.369-.784,4.82,4.82,0,0,1-.115-.83,5.033,5.033,0,0,1-.092-.852c0-.392.115-.392.115-.784s-.092-.391-.092-.783.208-.484.023-.83c-.092-.185-.3.092-.507.092a1.471,1.471,0,0,1-.992-.323,1.569,1.569,0,0,1-.438-.992,1.478,1.478,0,0,1,.507-.945,1.264,1.264,0,0,1,.922-.277c.207,0,.276.115.346-.092.207-.553-.023-.576-.023-1.176a1.343,1.343,0,0,1,.484-.876A1.261,1.261,0,0,1,477,3.733a1.343,1.343,0,0,1,.946.369,1.277,1.277,0,0,1,.3.922c0,.6-.162.622.161,1.129.207.323.277.231.668.231s.392-.161.783-.161a1.259,1.259,0,0,1,.876.415,1.346,1.346,0,0,1,.531.875c0,.346-.346.6-.577.83" transform="translate(-354.354 -1.29)" fill="#fff"/>
        <path id="パス_1596" data-name="パス 1596" d="M500.446,15.812a1.5,1.5,0,0,1-.645.3,1.546,1.546,0,0,1-.646-.046c-.23-.139-.323-.484-.507-.646-.207-.161-.439-.138-.6-.346-.208.185-.507.115-.738.254a5.4,5.4,0,0,1-.761.323c-.277.092-.484.461-.761.507-.277.023-.6-.184-.876-.184-.023,0-.023.138-.046.138a3.894,3.894,0,0,1-.9-.161,5.873,5.873,0,0,1-.945-.162,5.885,5.885,0,0,1-.806-.507,3.745,3.745,0,0,1-.622-.714,3.985,3.985,0,0,1-.507-.715,6.191,6.191,0,0,1-.23-.876c-.069-.276-.323-.53-.369-.806-.046-.3.139-.6.139-.9,0-.323-.185-.646-.185-.946V9.381c0-.346.23-.669.23-.946,0-.575-.092-.484-.092-.945a1.12,1.12,0,0,1,.461-.807,1.066,1.066,0,0,1,.784-.415,1.24,1.24,0,0,1,.922.3,1.349,1.349,0,0,1,.438.922,5.7,5.7,0,0,0-.069.945c0,.277-.024.6-.024.946,0,.3.092.622.092.945,0,.3.092.622.092.946s-.185.622-.115.875a2.434,2.434,0,0,0,.346.854,1.754,1.754,0,0,0,.645.461,1.9,1.9,0,0,0,.761.069,1.976,1.976,0,0,0,.807-.3c.3-.092.691-.023.9-.207a2.554,2.554,0,0,0,.3-.807,2.188,2.188,0,0,0,.207-.783c0-.484-.3-.484-.3-.968s.322-.484.322-.968-.276-.484-.276-.969.046-.484.046-.967c0-.346.3-.6.53-.83a1.161,1.161,0,0,1,.83-.416,1.3,1.3,0,0,1,.945.3,1.538,1.538,0,0,1,.507.946c0,.484-.092.484-.092.967s-.23.484-.23.969.046.484.046.968-.069.484-.069.968c0,.162.207.3.184.461a1.346,1.346,0,0,1,.046.3,2.116,2.116,0,0,0,.346.783c.162.3.277.668.391.715a1.194,1.194,0,0,1,.531.715c.092.323.253.645.092.945-.115.23-.346.323-.531.461" transform="translate(-360.072 -2.166)" fill="#fff"/>
        <path id="パス_1597" data-name="パス 1597" d="M518.424,8.738c-.231.231-.6.139-.968.139s-.669.346-1.014.53a2.8,2.8,0,0,0-.808.669,2.288,2.288,0,0,0-.415.622,2.728,2.728,0,0,0-.369.669c-.069.253-.3.484-.277.738,0,.023.139.023.139.023,0,.391-.23.391-.23.806s.276.415.276.83-.23.415-.23.829a1.1,1.1,0,0,1-.276.854,1.165,1.165,0,0,1-.876.346,1.358,1.358,0,0,1-.967-.23,1.392,1.392,0,0,1-.3-.969c0-.461-.092-.461-.092-.922s-.093-.461-.093-.922.254-.461.254-.922-.023-.461-.023-.922-.185-.461-.185-.922.115-.461.115-.922-.092-.461-.092-.922.23-.461.23-.9a1.056,1.056,0,0,1,.3-.876c.231-.23.507-.553.853-.553a1.518,1.518,0,0,1,.992.438,1.4,1.4,0,0,1,.253.991c0,.254-.138.323.047.507a5.408,5.408,0,0,1,.761-.714,4.394,4.394,0,0,1,.991-.392,4.189,4.189,0,0,1,1.037-.231V6.341a1.417,1.417,0,0,1,1.383,1.429,1.481,1.481,0,0,1-.415.968" transform="translate(-367.493 -2.007)" fill="#fff"/>
        <path id="パス_1598" data-name="パス 1598" d="M537.336,11.24c-.069.207-.323.322-.507.53-.046.069-.023.092-.069.161a1.464,1.464,0,0,1-.831.439,4.589,4.589,0,0,1-.945.069c-.438,0-.438.023-.853.023-.439,0-.439.138-.854.138s-.415-.184-.853-.184H531.6c-.439,0-.461-.162-.876-.046.162.207.231.461.392.552a2.815,2.815,0,0,0,.945.484,3.277,3.277,0,0,0,1.06.023,2.468,2.468,0,0,0,.945-.185,1.53,1.53,0,0,1,1.061.115,1.325,1.325,0,0,1,.645.761,1.231,1.231,0,0,1-.092.946c-.139.3-.277.668-.622.806a6.041,6.041,0,0,1-.968.092,6.99,6.99,0,0,1-.968-.023c-.323,0-.692.3-1.037.23a4.638,4.638,0,0,1-.992-.346,5.765,5.765,0,0,1-.922-.461,6.228,6.228,0,0,1-.829-.6c-.231-.231-.254-.623-.439-.876-.184-.277-.484-.461-.622-.738a6.559,6.559,0,0,1-.139-.946c-.069-.323-.369-.622-.369-.922,0-.323.369-.6.438-.9a3.824,3.824,0,0,1,.093-.9,3.606,3.606,0,0,1,.323-.876,3.987,3.987,0,0,1,.6-.761,5.982,5.982,0,0,1,.806-.507,3.7,3.7,0,0,1,.876-.369,5.077,5.077,0,0,1,.876-.391c.3-.046.645.253.945.253a5.642,5.642,0,0,1,.876.069,3.5,3.5,0,0,1,.853.184,3.561,3.561,0,0,1,.876.277,3.979,3.979,0,0,1,.738.53c.207.207.3.507.507.761.208.277.622.439.738.761a2.794,2.794,0,0,1,.092,1.083,1.965,1.965,0,0,1-.069.738M534.294,9.6c-.231-.184-.577-.115-.806-.207a2.158,2.158,0,0,0-.761-.092c-.276,0-.53-.138-.783-.046-.23.092-.577.092-.784.277-.184.161-.115.507-.276.761,0,.046-.093.092-.046.092.484,0,.484-.23.967-.23s.485.046.946.046c.484,0,.484.138.967.138.461,0,.461-.138.945-.115.069,0,.208.069.162.023a3.826,3.826,0,0,0-.53-.645" transform="translate(-372.967 -2.273)" fill="#fff"/>
      </g>
    </g>
  </g>
</svg>
