<svg xmlns="http://www.w3.org/2000/svg" width="280" height="227" viewBox="0 0 280 227">
  <g id="グループ_2665" data-name="グループ 2665" transform="translate(-543 -6305)">
    <rect id="長方形_2270" data-name="長方形 2270" width="280" height="227" transform="translate(543 6305)" fill="none"/>
    <g id="グループ_2663" data-name="グループ 2663" transform="translate(9)">
      <path id="パス_2169" data-name="パス 2169" d="M671.2,747.147h5.1L664.276,695.84h-5.1Z" transform="translate(-16.5 5746.091)" fill="#585858" stroke="#363636" stroke-linecap="round" stroke-linejoin="round" stroke-width="2"/>
      <path id="パス_2170" data-name="パス 2170" d="M654.368,657.772v24.008a39.2,39.2,0,0,1-.9,8.337l-12.2,56H647.1l12.2-56a39.156,39.156,0,0,0,.9-8.337V657.772Z" transform="translate(-11.871 5755.934)" fill="#585858" stroke="#363636" stroke-linecap="round" stroke-linejoin="round" stroke-width="2"/>
      <g id="グループ_2659" data-name="グループ 2659" transform="translate(626.244 6501.278)">
        <g id="グループ_2640" data-name="グループ 2640">
          <path id="パス_2057" data-name="パス 2057" d="M642.149,776.123l-2.487-.233c-1.243-.117-2.415,1.537-2.618,3.693s.643,4,1.887,4.116l2.486.233c1.244.116,2.416-1.537,2.618-3.693S643.393,776.24,642.149,776.123Z" transform="translate(-637.015 -775.884)" fill="#ff00eb" stroke="#363636" stroke-linecap="round" stroke-linejoin="round" stroke-width="2"/>
          <ellipse id="楕円形_384" data-name="楕円形 384" cx="3.921" cy="2.262" rx="3.921" ry="2.262" transform="matrix(0.093, -0.996, 0.996, 0.093, 2.15, 7.836)" fill="#ff00eb" stroke="#363636" stroke-linecap="round" stroke-linejoin="round" stroke-width="2"/>
        </g>
        <g id="グループ_2641" data-name="グループ 2641" transform="translate(3.404 0.319)">
          <path id="パス_2058" data-name="パス 2058" d="M646.74,776.554l-2.486-.234c-1.244-.116-2.416,1.537-2.618,3.693s.642,4,1.886,4.116l2.486.233c1.244.116,2.416-1.537,2.619-3.693S647.984,776.67,646.74,776.554Z" transform="translate(-641.606 -776.314)" fill="#ff00eb" stroke="#363636" stroke-linecap="round" stroke-linejoin="round" stroke-width="2"/>
          <ellipse id="楕円形_385" data-name="楕円形 385" cx="3.921" cy="2.262" rx="3.921" ry="2.262" transform="matrix(0.093, -0.996, 0.996, 0.093, 2.15, 7.836)" fill="#ff00eb" stroke="#363636" stroke-linecap="round" stroke-linejoin="round" stroke-width="2"/>
        </g>
      </g>
      <g id="グループ_2660" data-name="グループ 2660" transform="translate(651.879 6493.214)">
        <g id="グループ_2643" data-name="グループ 2643">
          <path id="パス_2059" data-name="パス 2059" d="M676.724,765.247l-2.487-.233c-1.244-.116-2.416,1.537-2.618,3.693s.643,4,1.886,4.115l2.487.233c1.244.117,2.416-1.536,2.618-3.693S677.968,765.363,676.724,765.247Z" transform="translate(-671.59 -765.008)" fill="#ff00eb" stroke="#363636" stroke-linecap="round" stroke-linejoin="round" stroke-width="2"/>
          <ellipse id="楕円形_386" data-name="楕円形 386" cx="3.921" cy="2.262" rx="3.921" ry="2.262" transform="matrix(0.093, -0.996, 0.996, 0.093, 2.15, 7.836)" fill="#ff00eb" stroke="#363636" stroke-linecap="round" stroke-linejoin="round" stroke-width="2"/>
        </g>
        <g id="グループ_2644" data-name="グループ 2644" transform="translate(3.404 0.319)">
          <path id="パス_2060" data-name="パス 2060" d="M681.315,765.677l-2.486-.233c-1.244-.116-2.416,1.537-2.618,3.693s.642,4,1.886,4.115l2.486.234c1.244.116,2.416-1.537,2.619-3.693S682.559,765.793,681.315,765.677Z" transform="translate(-676.181 -765.438)" fill="#ff00eb" stroke="#363636" stroke-linecap="round" stroke-linejoin="round" stroke-width="2"/>
          <ellipse id="楕円形_387" data-name="楕円形 387" cx="3.921" cy="2.262" rx="3.921" ry="2.262" transform="matrix(0.093, -0.996, 0.996, 0.093, 2.15, 7.836)" fill="#ff00eb" stroke="#363636" stroke-linecap="round" stroke-linejoin="round" stroke-width="2"/>
        </g>
      </g>
      <path id="パス_2171" data-name="パス 2171" d="M639.131,725.965l31.219-6.708,101.1,6.8-34.3,9.33Z" transform="translate(-11.318 5740.036)" fill="#585858" stroke="#363636" stroke-linecap="round" stroke-linejoin="round" stroke-width="2"/>
      <path id="パス_2172" data-name="パス 2172" d="M805.349,759.827h5.171l-13.755-59.635h-5.171Z" transform="translate(-50.74 5744.965)" fill="#585858" stroke="#363636" stroke-linecap="round" stroke-linejoin="round" stroke-width="2"/>
      <path id="パス_2173" data-name="パス 2173" d="M791.969,661.585h-5.831l-.062,26.709a19.509,19.509,0,0,1-.381,3.793l-13.1,65.265h5.974l13.087-65.216a19.478,19.478,0,0,0,.381-3.892Z" transform="translate(-45.828 5754.948)" fill="#585858" stroke="#363636" stroke-linecap="round" stroke-linejoin="round" stroke-width="2"/>
      <g id="グループ_2661" data-name="グループ 2661" transform="translate(723.167 6513.472)">
        <g id="グループ_2646" data-name="グループ 2646">
          <path id="パス_2064" data-name="パス 2064" d="M773.755,792.61l-2.912-.273c-1.458-.136-2.831,1.8-3.068,4.327s.753,4.684,2.21,4.822l2.913.273c1.458.136,2.831-1.8,3.067-4.327S775.213,792.748,773.755,792.61Z" transform="translate(-767.74 -792.331)" fill="#ff00eb" stroke="#363636" stroke-linecap="round" stroke-linejoin="round" stroke-width="2"/>
          <ellipse id="楕円形_388" data-name="楕円形 388" cx="4.594" cy="2.65" rx="4.594" ry="2.65" transform="matrix(0.093, -0.996, 0.996, 0.093, 2.519, 9.181)" fill="#ff00eb" stroke="#363636" stroke-linecap="round" stroke-linejoin="round" stroke-width="2"/>
        </g>
        <g id="グループ_2647" data-name="グループ 2647" transform="translate(3.988 0.374)">
          <path id="パス_2065" data-name="パス 2065" d="M779.133,793.115l-2.912-.273c-1.458-.136-2.831,1.8-3.067,4.327s.753,4.684,2.21,4.821l2.912.273c1.458.136,2.831-1.8,3.067-4.327S780.591,793.252,779.133,793.115Z" transform="translate(-773.119 -792.835)" fill="#ff00eb" stroke="#363636" stroke-linecap="round" stroke-linejoin="round" stroke-width="2"/>
          <ellipse id="楕円形_389" data-name="楕円形 389" cx="4.594" cy="2.65" rx="4.594" ry="2.65" transform="matrix(0.093, -0.996, 0.996, 0.093, 2.519, 9.181)" fill="#ff00eb" stroke="#363636" stroke-linecap="round" stroke-linejoin="round" stroke-width="2"/>
        </g>
      </g>
      <g id="グループ_2662" data-name="グループ 2662" transform="translate(752.028 6504.558)">
        <g id="グループ_2649" data-name="グループ 2649">
          <path id="パス_2066" data-name="パス 2066" d="M812.682,780.589l-2.912-.273c-1.458-.136-2.831,1.8-3.068,4.327s.753,4.684,2.21,4.821l2.913.273c1.458.136,2.831-1.8,3.067-4.326S814.14,780.725,812.682,780.589Z" transform="translate(-806.667 -780.309)" fill="#ff00eb" stroke="#363636" stroke-linecap="round" stroke-linejoin="round" stroke-width="2"/>
          <ellipse id="楕円形_390" data-name="楕円形 390" cx="4.594" cy="2.65" rx="4.594" ry="2.65" transform="matrix(0.093, -0.996, 0.996, 0.093, 2.519, 9.18)" fill="#ff00eb" stroke="#363636" stroke-linecap="round" stroke-linejoin="round" stroke-width="2"/>
        </g>
        <g id="グループ_2650" data-name="グループ 2650" transform="translate(3.988 0.374)">
          <path id="パス_2067" data-name="パス 2067" d="M818.06,781.093l-2.912-.273c-1.458-.136-2.831,1.8-3.067,4.326s.752,4.685,2.21,4.822l2.912.273c1.458.136,2.831-1.8,3.067-4.326S819.518,781.229,818.06,781.093Z" transform="translate(-812.046 -780.813)" fill="#ff00eb" stroke="#363636" stroke-linecap="round" stroke-linejoin="round" stroke-width="2"/>
          <ellipse id="楕円形_391" data-name="楕円形 391" cx="4.594" cy="2.65" rx="4.594" ry="2.65" transform="matrix(0.093, -0.996, 0.996, 0.093, 2.519, 9.18)" fill="#ff00eb" stroke="#363636" stroke-linecap="round" stroke-linejoin="round" stroke-width="2"/>
        </g>
      </g>
      <path id="パス_2174" data-name="パス 2174" d="M790.5,640.608l-3.4.53-169.593-9.786v-98.28L787.1,523.894l3.4,1.9Z" transform="translate(-5.729 5790.551)" fill="#585858" stroke="#363636" stroke-linecap="round" stroke-linejoin="round" stroke-width="2"/>
      <path id="パス_2175" data-name="パス 2175" d="M785.709,641.138l-173.594-9.256V533.15l173.594-9.256Z" transform="translate(-4.332 5790.551)" fill="#585858" stroke="#363636" stroke-linecap="round" stroke-linejoin="round" stroke-width="2"/>
      <path id="パス_2176" data-name="パス 2176" d="M782.6,637.176l-164.053-8.3V540.394L782.6,532.1Z" transform="translate(-5.998 5788.429)" fill="#cff5ef" stroke="#363636" stroke-linecap="round" stroke-linejoin="round" stroke-width="2"/>
      <path id="パス_2177" data-name="パス 2177" d="M567.451,797.8l-.5,5.4a1.672,1.672,0,0,0,.8,1.583h0a9.458,9.458,0,0,0,6.032,1.3l2.886-.348c.048-.006.1-.01.146-.011l9.505-.311a1.646,1.646,0,0,0,.412-.065l3.826-1.112a1.671,1.671,0,0,0,1.156-1.2l.863-3.492A1.672,1.672,0,0,0,591.3,797.5L578.121,794.7a1.667,1.667,0,0,0-.655-.008l-8.657,1.619A1.671,1.671,0,0,0,567.451,797.8Z" transform="translate(7.348 5720.538)" fill="#585858" stroke="#363636" stroke-linecap="round" stroke-linejoin="round" stroke-width="2"/>
      <path id="パス_2178" data-name="パス 2178" d="M585.6,800.183l-.625,6.791a2.226,2.226,0,0,0,1.266,2.177l1.243.589a8.5,8.5,0,0,0,4.543.77l10.131-1.088a19.1,19.1,0,0,0,4.676-1.111l2.117-.8a3.965,3.965,0,0,0,1.433-6.55,2.771,2.771,0,0,0-1.517-.767l-13.226-1.658Z" transform="translate(2.686 5719.535)" fill="#585858" stroke="#363636" stroke-linecap="round" stroke-linejoin="round" stroke-width="2"/>
      <path id="パス_2179" data-name="パス 2179" d="M563.484,669.892l-1.424,20.13,3.666,11.523c.458,1.77,1.114,23.285,1.114,23.285l-2.057,38.581A1.542,1.542,0,0,0,565.993,765c.7.153,1.747.407,3.311.824a17.172,17.172,0,0,0,8.824.027l2.792,1.573a12.771,12.771,0,0,0,7.9,1.548c.689-.089,7.411-1.418,9.03-2.758l-1.589-35.429c-.061-1.36.386-9.682.386-9.682a50.071,50.071,0,0,0-.053-7.027l-3.508-45.011Z" transform="translate(8.611 5753.014)" fill="#e5b1bf" stroke="#363636" stroke-linecap="round" stroke-linejoin="round" stroke-width="2"/>
      <path id="パス_2180" data-name="パス 2180" d="M596.734,572.985l-2.443-1.52-5.67-.54-4.133,11.248-1.448-4.138-3.6-2.52-2.152,9.361-.179,13.141,6.1-1.019,3.97.479-.329-7.91a16.5,16.5,0,0,0,1.891.575C596.843,592.122,596.734,572.985,596.734,572.985Z" transform="translate(4.719 5778.39)" fill="#fff" stroke="#363636" stroke-linecap="round" stroke-linejoin="round" stroke-width="2"/>
      <path id="パス_2181" data-name="パス 2181" d="M590.894,583.806c.695,2.8,2.314,2.969,2.314,2.969" transform="translate(1.154 5775.059)" fill="#ff00eb" stroke="#363636" stroke-linecap="round" stroke-linejoin="round" stroke-width="2"/>
      <path id="パス_2182" data-name="パス 2182" d="M591.337,567.536s.111,7.21-1.1,8.544c-.25.274-1.78-5.759-1.874-5.372-1.008,4.152-3.005,3.283-3.516,5.2-.72,2.7-1.88,6.84-1.88,6.84l-2.52-3.24-2.161,5.94-3.24,1.08a10.679,10.679,0,0,1-3.6-2.023c-1.188-1.23-1.147-2.895-1.978-4.638-.581-1.218-1.393.031-1.934-1.427-.661-1.776-2.6-4.042-1.541-10.443.357-2.166,1.293-7.013,5.634-9.662,4.976-3.036,9.394-3.268,14.114-1.472a17.984,17.984,0,0,1,6.814,5.968c1.363,2.2,1.131,4.9,1.229,6.225C593.949,571.336,591.337,567.536,591.337,567.536Z" transform="translate(7.674 5782.319)" fill="#585858" stroke="#363636" stroke-linecap="round" stroke-linejoin="round" stroke-width="2"/>
      <path id="パス_2183" data-name="パス 2183" d="M616.7,615.548l-15.08,15.3-6.894-14.536a4.852,4.852,0,0,0-2.329-2.371c-.2-.093-9.63-6.954-9.63-6.954l-18.362-.907-11.377,5.287a4.633,4.633,0,0,0-2.086,2.327c-1.763,4.327-5.4,16.733-7.112,21a4.7,4.7,0,0,0-.151,3.061l7.613,26.272,7.052-2.5-.71-7.867,8.812.539a88.307,88.307,0,0,0,16.9-.517l5.766-.893s1.08-9.385,1.96-18.953l5.531,8.049a5.218,5.218,0,0,0,8.241.534l18.729-20.291ZM553.686,638.6l1.8-7.167c.567,2.45,1.006,4.388,1.076,5.188l.7,15.792Z" transform="translate(13.41 5769.301)" fill="#fff" stroke="#363636" stroke-linecap="round" stroke-linejoin="round" stroke-width="2"/>
      <path id="パス_2184" data-name="パス 2184" d="M577.551,696.141l.109,3.133a21.041,21.041,0,0,0,1.914,4.7,6.625,6.625,0,0,1,.714,2.476l1.794,26.424.053,39.977" transform="translate(4.604 5746.013)" fill="none" stroke="#363636" stroke-linecap="round" stroke-linejoin="round" stroke-width="2"/>
      <path id="パス_2185" data-name="パス 2185" d="M643.865,616.147l2.882-5.464A5.088,5.088,0,0,1,648.181,609l6.312-4.762a1.083,1.083,0,0,1,1.409.089h0a1.084,1.084,0,0,1,.04,1.511l-3.549,3.844,1.764,2.346a2.741,2.741,0,0,1-.161,3.491l-4.872,5.366Z" transform="translate(-12.543 5769.677)" fill="#fff" stroke="#363636" stroke-linecap="round" stroke-linejoin="round" stroke-width="2"/>
      <line id="線_4759" data-name="線 4759" y1="2.781" x2="6.917" transform="translate(562.791 6424.094)" fill="#bdbebf" stroke="#363636" stroke-linecap="round" stroke-linejoin="round" stroke-width="2"/>
      <path id="パス_2186" data-name="パス 2186" d="M635.829,625.142s5.26,4.156,6.513,7.549" transform="translate(-10.465 5764.371)" fill="#ff00eb" stroke="#363636" stroke-linecap="round" stroke-linejoin="round" stroke-width="2"/>
      <path id="パス_2187" data-name="パス 2187" d="M554.864,683.277l.949,5.32,1.009,1.346,3.418,2.749.47-8.333-.554-2.736Z" transform="translate(10.471 5749.767)" fill="#fff" stroke="#363636" stroke-linecap="round" stroke-linejoin="round" stroke-width="2"/>
      <path id="パス_2188" data-name="パス 2188" d="M572.633,602.176l4.489.572a26.367,26.367,0,0,0,6.741-.011l4.861-.635,1.134,3.854s-8.481,2.158-14.961.68c-3.764-.858-3.4-1.587-3.4-1.587Z" transform="translate(6.172 5770.329)" fill="#fff" stroke="#363636" stroke-linecap="round" stroke-linejoin="round" stroke-width="2"/>
      <line id="線_4760" data-name="線 4760" x2="11.793" y2="17.492" transform="translate(598.377 6394.289)" fill="#bdbebf" stroke="#363636" stroke-linecap="round" stroke-linejoin="round" stroke-width="2"/>
      <line id="線_4761" data-name="線 4761" x1="0.942" y1="11.118" transform="translate(568.02 6390.559)" fill="#bdbebf" stroke="#363636" stroke-linecap="round" stroke-linejoin="round" stroke-width="2"/>
      <path id="パス_2189" data-name="パス 2189" d="M525.837,556.727s-.269,5.335,8.82,6.449a15.1,15.1,0,0,1,12.03,9.1" transform="translate(17.977 5782.061)" fill="none" stroke="#363636" stroke-linecap="round" stroke-linejoin="round" stroke-width="2"/>
      <path id="パス_2084" data-name="パス 2084" d="M552.453,547.468l2.861-9.048s2.846,2.739.8,4.624a2.635,2.635,0,0,0-.34,3.42" transform="translate(11.094 5786.794)" fill="none" stroke="#363636" stroke-linecap="round" stroke-linejoin="round" stroke-width="2"/>
      <ellipse id="楕円形_392" data-name="楕円形 392" cx="2.142" cy="2.998" rx="2.142" ry="2.998" transform="translate(557.795 6335.392) rotate(-76.34)" fill="#363636"/>
      <ellipse id="楕円形_393" data-name="楕円形 393" cx="2.998" cy="2.142" rx="2.998" ry="2.142" transform="translate(538.025 6320.717) rotate(-3.889)" fill="#363636"/>
      <ellipse id="楕円形_394" data-name="楕円形 394" cx="2.998" cy="2.142" rx="2.998" ry="2.142" transform="translate(545.979 6320.363) rotate(-3.889)" fill="#363636"/>
      <path id="パス_2085" data-name="パス 2085" d="M533.061,530.141v-9.489l-7.951,1.06V531.2" transform="translate(18.162 5791.389)" fill="none" stroke="#363636" stroke-linecap="round" stroke-linejoin="round" stroke-width="2"/>
      <g id="レイヤー_2" data-name="レイヤー 2" transform="translate(571.457 6424.24)">
        <g id="グループ_2655" data-name="グループ 2655" transform="translate(0 0)">
          <path id="パス_2086" data-name="パス 2086" d="M599.121,672.754v3.259a26.341,26.341,0,0,0,3.86-1.073L601.8,671.98a22.462,22.462,0,0,1-2.68.764Z" transform="translate(-572.43 -671.98)" fill="#363636"/>
          <path id="パス_2087" data-name="パス 2087" d="M572.316,674.257a42.38,42.38,0,0,1-8.3-1.152l-.9,3.06a44.279,44.279,0,0,0,9.194,1.29Z" transform="translate(-563.122 -672.271)" fill="#363636"/>
          <path id="パス_2088" data-name="パス 2088" d="M591.981,673.464a57.409,57.409,0,0,1-7.939.91c-2.363.115-4.489.116-6.37.05v3.193c.783.025,1.6.042,2.457.042,1.272,0,2.629-.03,4.069-.1a61.889,61.889,0,0,0,7.783-.848Z" transform="translate(-566.884 -672.364)" fill="#363636"/>
        </g>
        <path id="パス_2089" data-name="パス 2089" d="M584.734,684.275a33.054,33.054,0,0,0,7.775-.667" transform="translate(-568.71 -674.987)" fill="#ff00eb"/>
      </g>
    </g>
  </g>
</svg>
