<svg xmlns="http://www.w3.org/2000/svg" width="280" height="227" viewBox="0 0 280 227">
  <g id="グループ_2669" data-name="グループ 2669" transform="translate(-183 -6294)">
    <rect id="長方形_2272" data-name="長方形 2272" width="280" height="227" transform="translate(183 6294)" fill="none"/>
    <rect id="長方形_2259" data-name="長方形 2259" width="3.998" height="99.495" transform="translate(257.861 6394.185)" fill="#d3d3d3" stroke="#363636" stroke-linecap="round" stroke-linejoin="round" stroke-width="2"/>
    <rect id="長方形_2260" data-name="長方形 2260" width="3.998" height="5.008" transform="translate(257.861 6488.671)" fill="#363636" stroke="#363636" stroke-linecap="round" stroke-linejoin="round" stroke-width="2"/>
    <rect id="長方形_2261" data-name="長方形 2261" width="3.998" height="49.769" transform="translate(300.715 6451.422)" fill="#d3d3d3" stroke="#363636" stroke-linecap="round" stroke-linejoin="round" stroke-width="2"/>
    <rect id="長方形_2262" data-name="長方形 2262" width="3.998" height="5.008" transform="translate(300.715 6496.183)" fill="#363636" stroke="#363636" stroke-linecap="round" stroke-linejoin="round" stroke-width="2"/>
    <rect id="長方形_2263" data-name="長方形 2263" width="3.998" height="93.247" transform="translate(284.113 6379.023)" fill="#d3d3d3" stroke="#363636" stroke-linecap="round" stroke-linejoin="round" stroke-width="2"/>
    <path id="パス_2135" data-name="パス 2135" d="M243.888,638.493l-45.521,16.273a3.177,3.177,0,0,1-4.247-3.006l.065-14.2a6.371,6.371,0,0,1,4.227-5.971l43.412-15.519a3.182,3.182,0,0,1,4.254,3.011L246,635.506A3.188,3.188,0,0,1,243.888,638.493Z" transform="translate(57.1 5751.958)" fill="#e5b1bf" stroke="#363636" stroke-linecap="round" stroke-linejoin="round" stroke-width="2"/>
    <path id="パス_2136" data-name="パス 2136" d="M291.128,707.233l-40.266,15.556a6.92,6.92,0,0,1-3.131.437L200.577,718.9a1.281,1.281,0,0,1-.344-2.471l41.5-16.033.58-.081,48.471,4.448A1.281,1.281,0,0,1,291.128,707.233Z" transform="translate(55.652 5728.877)" fill="#e5b1bf" stroke="#363636" stroke-linecap="round" stroke-linejoin="round" stroke-width="2"/>
    <path id="パス_2137" data-name="パス 2137" d="M368.071,764.923l-55.3-2.884v-3.256l55.3,2.884Z" transform="translate(24.664 5712.895)" fill="#d3d3d3" stroke="#363636" stroke-linecap="round" stroke-linejoin="round" stroke-width="2"/>
    <path id="パス_2138" data-name="パス 2138" d="M327.677,774.842a5.224,5.224,0,0,0,3.912-2.784l-11.406-5.622-2.213-6.322-9.453,2.08.77,6.476-1.506-.511-.02.084c2.478,1.105,5.66,2.472,8.454,3.51C318.883,772.745,326.668,774.968,327.677,774.842Z" transform="translate(26.035 5712.531)" fill="#e57996" stroke="#363636" stroke-linecap="round" stroke-linejoin="round" stroke-width="2"/>
    <path id="パス_2139" data-name="パス 2139" d="M334.6,777.319l-3.273-2.2a5.224,5.224,0,0,1-3.911,2.784c-1.009.127-8.793-2.1-11.463-3.088-2.794-1.038-5.976-2.4-8.454-3.51l-.663,2.891a3.38,3.38,0,0,0,1.814,3.545l17,6.249c6.2,1.98,10-1.665,10.366-2.692A3.334,3.334,0,0,0,334.6,777.319Z" transform="translate(26.301 5709.473)" fill="#fff" stroke="#363636" stroke-linecap="round" stroke-linejoin="round" stroke-width="2"/>
    <line id="線_4754" data-name="線 4754" x1="4.473" y2="3.498" transform="translate(346.996 6482.274)" fill="#b3b3b3" stroke="#363636" stroke-linecap="round" stroke-linejoin="round" stroke-width="2"/>
    <path id="パス_2140" data-name="パス 2140" d="M310.457,785.166A6.283,6.283,0,0,0,315.283,782l-13.446-7.277-2.37-7.7L288.016,769.1l.629,7.815-1.786-.682-.027.1c2.926,1.441,6.686,3.228,9.995,4.6C299.989,782.245,309.239,785.272,310.457,785.166Z" transform="translate(31.756 5710.641)" fill="#e57996" stroke="#363636" stroke-linecap="round" stroke-linejoin="round" stroke-width="2"/>
    <path id="パス_2141" data-name="パス 2141" d="M318.736,788.3l-3.832-2.8a6.283,6.283,0,0,1-4.826,3.165c-1.217.105-10.467-2.921-13.63-4.235-3.309-1.375-7.069-3.162-9.995-4.6l-.929,3.442a4.061,4.061,0,0,0,2.016,4.342l20.137,8.286c7.364,2.663,12.09-1.543,12.577-2.76A4.009,4.009,0,0,0,318.736,788.3Z" transform="translate(32.135 5707.142)" fill="#fff" stroke="#363636" stroke-linecap="round" stroke-linejoin="round" stroke-width="2"/>
    <line id="線_4755" data-name="線 4755" x1="5.534" y2="3.998" transform="translate(334.219 6489.579)" fill="#b3b3b3" stroke="#363636" stroke-linecap="round" stroke-linejoin="round" stroke-width="2"/>
    <path id="パス_2142" data-name="パス 2142" d="M294.661,686.98l22.245,8.1a8.547,8.547,0,0,1,5.622,8.186l-.95,43.115c0-1.078-.046,1.646-2.581,3.465-7.338,5.264-13.307.99-13.307.99l-1.243-42.781-16.987-3.425Z" transform="translate(31.584 5732.522)" fill="#585858" stroke="#363636" stroke-linecap="round" stroke-linejoin="round" stroke-width="2"/>
    <path id="パス_2143" data-name="パス 2143" d="M283.985,691.13l-20.052-5.948-2.569-11.028-35.076,11.325-.255,8.415a12.46,12.46,0,0,0,2.782,8.234l1.386,1.706,4.424,2.514a15.691,15.691,0,0,0,6.639,2.008l27.772,1.572.576,1.293L267.823,749.5a2.442,2.442,0,0,0,1.316,2.2l4.9,2.546a12.652,12.652,0,0,0,16.044-3.69l-.445-45.933-1.065-8.436-22-1.444,3.014-9.511" transform="translate(48.377 5736.029)" fill="#585858" stroke="#363636" stroke-linecap="round" stroke-linejoin="round" stroke-width="2"/>
    <rect id="長方形_2264" data-name="長方形 2264" width="3.998" height="93.174" transform="translate(392.74 6395.204)" fill="#d3d3d3" stroke="#363636" stroke-linecap="round" stroke-linejoin="round" stroke-width="2"/>
    <rect id="長方形_2265" data-name="長方形 2265" width="3.998" height="5.008" transform="translate(392.74 6483.369)" fill="#363636" stroke="#363636" stroke-linecap="round" stroke-linejoin="round" stroke-width="2"/>
    <path id="パス_2144" data-name="パス 2144" d="M365.521,656.3l-62.089,27.948v10a2.21,2.21,0,0,0,3.127,2.015l55.63-25.422a5.708,5.708,0,0,0,3.332-5.193Z" transform="translate(27.219 5740.91)" fill="#d3d3d3" stroke="#363636" stroke-linecap="round" stroke-linejoin="round" stroke-width="2"/>
    <path id="パス_2145" data-name="パス 2145" d="M282.249,706.019,228.987,704.3a3.172,3.172,0,0,1-3.048-3.152V690.558l56.31,1.815Z" transform="translate(48.402 5731.544)" fill="#d3d3d3" stroke="#363636" stroke-linecap="round" stroke-linejoin="round" stroke-width="2"/>
    <rect id="長方形_2266" data-name="長方形 2266" width="3.998" height="93.174" transform="translate(330.008 6424.919)" fill="#d3d3d3" stroke="#363636" stroke-linecap="round" stroke-linejoin="round" stroke-width="2"/>
    <rect id="長方形_2267" data-name="長方形 2267" width="3.998" height="5.008" transform="translate(330.008 6513.085)" fill="#363636" stroke="#363636" stroke-linecap="round" stroke-linejoin="round" stroke-width="2"/>
    <path id="パス_2146" data-name="パス 2146" d="M349.076,644.7l-72.445-2.26L196.862,672.5v4.507l81.1,3.365,71.111-31.17Z" transform="translate(56.35 5744.698)" fill="#e5b1bf" stroke="#363636" stroke-linecap="round" stroke-linejoin="round" stroke-width="2"/>
    <path id="パス_2147" data-name="パス 2147" d="M278.486,675.868l-78.867-3.3a.477.477,0,0,1-.2-.906l77.741-29.185a.459.459,0,0,1,.2-.038l70.209,2.191a.477.477,0,0,1,.2.906L278.684,675.83A.459.459,0,0,1,278.486,675.868Z" transform="translate(55.725 5744.697)" fill="#e5b1bf" stroke="#363636" stroke-linecap="round" stroke-linejoin="round" stroke-width="2"/>
    <rect id="長方形_2268" data-name="長方形 2268" width="3.998" height="90.315" transform="translate(270.676 6423.144)" fill="#d3d3d3" stroke="#363636" stroke-linecap="round" stroke-linejoin="round" stroke-width="2"/>
    <rect id="長方形_2269" data-name="長方形 2269" width="3.998" height="5.008" transform="translate(270.676 6508.45)" fill="#363636" stroke="#363636" stroke-linecap="round" stroke-linejoin="round" stroke-width="2"/>
    <line id="線_4756" data-name="線 4756" y1="4.551" transform="translate(334.314 6420.368)" fill="#bdbebf" stroke="#363636" stroke-linecap="round" stroke-linejoin="round" stroke-width="2"/>
    <path id="パス_2148" data-name="パス 2148" d="M311.605,649.4l-26.239,13.3,42.091-4.794,26.239-13.3Z" transform="translate(32.156 5744.104)" fill="#fff" stroke="#363636" stroke-linecap="round" stroke-linejoin="round" stroke-width="2"/>
    <path id="パス_2149" data-name="パス 2149" d="M335.573,640.446l5.744.456a9.643,9.643,0,0,1,4.517,1.706l2.656,2.566-2.7,1.673-2.841-.775a9.014,9.014,0,0,0-3.467-.252l-6.793.826Z" transform="translate(19.219 5745.243)" fill="#fff" stroke="#363636" stroke-linecap="round" stroke-linejoin="round" stroke-width="2"/>
    <path id="パス_2150" data-name="パス 2150" d="M304.413,627.8,282.2,623.387a5.851,5.851,0,0,1-2.848-1.845l-11.327-10.759a43.337,43.337,0,0,0-10.429-7.069,12.685,12.685,0,0,0-4.124-1.4c-1.082-.218-3.1-1.693-5.254-1.592h-5.977l-11.727,2.987c-1.886.908-2.977,2.742-4.359,3.719-9.808,6.933-9.167,16.363-8.443,22.647.828,7.169,5.289,17.088,5.289,17.088a12.616,12.616,0,0,1,.177,3.431l-.239,2.785,53.04-19.452,24.734,2.206Zm-40.491,4.781-1.53-8.625,9.934,8.39,11.411,2.385Z" transform="translate(50.828 5755.754)" fill="#9ceadf" stroke="#363636" stroke-linecap="round" stroke-linejoin="round" stroke-width="2"/>
    <path id="パス_2151" data-name="パス 2151" d="M235.926,631.879l18.231,7.271a15.071,15.071,0,0,0,4.075,1l28.523,2.867-1.939,9.2a2.209,2.209,0,0,1-2.262,1.809l-27.136-1.012a15.029,15.029,0,0,1-4.35-.918l-25.3-9.868" transform="translate(48.447 5747.585)" fill="#9ceadf" stroke="#363636" stroke-linecap="round" stroke-linejoin="round" stroke-width="2"/>
    <path id="パス_2152" data-name="パス 2152" d="M243.86,616.656" transform="translate(43.502 5751.746)" fill="#ff00eb" stroke="#363636" stroke-linecap="round" stroke-linejoin="round" stroke-width="2"/>
    <path id="パス_2153" data-name="パス 2153" d="M235.2,590.868v9.147l-1.767,2.108s8.259,5.469,12.8,3.436,3.083-8.01,3.083-8.01l-3.78-2.032-.378-7.622Z" transform="translate(50.684 5758.608)" fill="#fff" stroke="#363636" stroke-linecap="round" stroke-linejoin="round" stroke-width="2"/>
    <path id="パス_2154" data-name="パス 2154" d="M230.888,575.333s8.609,6.264,17.475,6.583,12.431-8.526,12.431-8.526l2.415-7.633s-1.672-12.288-.557-13.962-4.459-15.639-4.459-15.639l-20.065-2.234-10.59,10.612-3.344,13.551Z" transform="translate(48.879 5773.362)" fill="#fff" stroke="#363636" stroke-linecap="round" stroke-linejoin="round" stroke-width="2"/>
    <path id="パス_2155" data-name="パス 2155" d="M266.357,569.17a1.773,1.773,0,0,1,1.653,1.846,1.743,1.743,0,0,1-1.639,1.856,1.861,1.861,0,0,1-.014-3.7Z" transform="translate(37.807 5763.727)" fill="#363636"/>
    <path id="パス_2156" data-name="パス 2156" d="M249.546,572.093a1.771,1.771,0,0,1,1.673,1.844,1.743,1.743,0,0,1-1.639,1.856,1.861,1.861,0,0,1-.034-3.7Z" transform="translate(42.396 5762.928)" fill="#363636"/>
    <path id="パス_2157" data-name="パス 2157" d="M258.628,580.036a1.756,1.756,0,0,0,2.59-.03" transform="translate(39.465 5760.765)" fill="none" stroke="#363636" stroke-linecap="round" stroke-linejoin="round" stroke-width="2"/>
    <path id="パス_2158" data-name="パス 2158" d="M262.331,585.91s-3.882,4.038-8.252.945" transform="translate(40.709 5759.151)" fill="none" stroke="#363636" stroke-linecap="round" stroke-linejoin="round" stroke-width="2"/>
    <path id="パス_2159" data-name="パス 2159" d="M246.478,566.814a2.51,2.51,0,0,1,3.651-.15" transform="translate(42.787 5764.608)" fill="none" stroke="#363636" stroke-linecap="round" stroke-linejoin="round" stroke-width="2"/>
    <path id="パス_2160" data-name="パス 2160" d="M263.191,564.95a2.492,2.492,0,0,1,3.594-.657" transform="translate(38.219 5765.194)" fill="none" stroke="#363636" stroke-linecap="round" stroke-linejoin="round" stroke-width="2"/>
    <path id="パス_2161" data-name="パス 2161" d="M257.78,574.337l2.115-16.75a7.461,7.461,0,0,0-1.331-5.273s-4.082-6.527-5.719-5.69L241.9,552.218l-.161-2.642s-.362-2.681-4.153,1.5L233.3,555.8a5.061,5.061,0,0,0-1.312,3.332l-.27,19.962-2.484.532L228,577.933l-1.445,2.28-2.484-1.659-1.238,2.279-3.638-12.494s-5.532-10.392-5.1-17.414c.632-7.215,1.261-18.966,18.4-22.778,0,0,6.732-1.208,9.209-.894,0,0,9.59.5,16.432,7.519,0,0,8.254,10.259,6.091,20.092A132.536,132.536,0,0,0,261.5,574.13l-1.838-1.951Z" transform="translate(51.646 5775.199)" fill="#585858" stroke="#363636" stroke-linecap="round" stroke-linejoin="round" stroke-width="2"/>
    <path id="パス_2162" data-name="パス 2162" d="M253.835,557.64s6.266-4.483,8.334-8.619" transform="translate(40.775 5769.234)" fill="none" stroke="#363636" stroke-linecap="round" stroke-linejoin="round" stroke-width="2"/>
    <path id="パス_2163" data-name="パス 2163" d="M314.916,653.3l-14.188,6.754a.3.3,0,0,0,.167.565l28.92-3.821a5.46,5.46,0,0,0,1.63-.482l13.454-6.4a.3.3,0,0,0-.168-.565l-29.725,3.927A.276.276,0,0,0,314.916,653.3Z" transform="translate(28.004 5742.811)" fill="#363636"/>
    <path id="パス_2164" data-name="パス 2164" d="M310.893,647.533l5.6-1.152a5.182,5.182,0,0,1,2.261.039l4.876,1.18,7.383,1.036c.661.1,2.157.361,2.083,1.719s-1.725,1.541-2.316,1.523l-7.266-.394-2.029,4.006-2.7,2.737a3.6,3.6,0,0,1-3.69.894l-7.7-2.528,1.945-9.225Z" transform="translate(26.135 5743.649)" fill="#fff" stroke="#363636" stroke-linecap="round" stroke-linejoin="round" stroke-width="2"/>
    <path id="パス_2165" data-name="パス 2165" d="M254.7,603.647s3.632,6.559-6.208,10.116S227.754,607,227.754,607" transform="translate(50.461 5755.302)" fill="none" stroke="#363636" stroke-linecap="round" stroke-linejoin="round" stroke-width="2"/>
    <path id="パス_2166" data-name="パス 2166" d="M258.853,612.755l1.436,3.8,2.642,17.231" transform="translate(39.24 5751.625)" fill="#ff00eb" stroke="#363636" stroke-linecap="round" stroke-linejoin="round" stroke-width="2"/>
    <line id="線_4757" data-name="線 4757" x1="1.405" y1="5.677" transform="translate(311.814 6374.032)" fill="#bdbebf" stroke="#363636" stroke-linecap="round" stroke-linejoin="round" stroke-width="2"/>
    <line id="線_4758" data-name="線 4758" y1="2.405" x2="2.669" transform="translate(304.49 6319.417)" fill="#bdbebf" stroke="#363636" stroke-linecap="round" stroke-linejoin="round" stroke-width="2"/>
    <path id="パス_2167" data-name="パス 2167" d="M281.523,805.9l-55.3-2.884v-3.256l55.3,2.884Z" transform="translate(48.324 5701.694)" fill="#d3d3d3" stroke="#363636" stroke-linecap="round" stroke-linejoin="round" stroke-width="2"/>
    <path id="パス_2168" data-name="パス 2168" d="M369.215,768.872,308.251,796.58v-3.256l60.964-27.708Z" transform="translate(25.9 5711.027)" fill="#d3d3d3" stroke="#363636" stroke-linecap="round" stroke-linejoin="round" stroke-width="2"/>
  </g>
</svg>
