<svg xmlns="http://www.w3.org/2000/svg" width="280" height="227" viewBox="0 0 280 227">
  <g id="グループ_2667" data-name="グループ 2667" transform="translate(-891 -6305)">
    <rect id="長方形_2271" data-name="長方形 2271" width="280" height="227" transform="translate(891 6305)" fill="none"/>
    <rect id="長方形_2237" data-name="長方形 2237" width="4.89" height="94.024" transform="translate(1115.314 6422.306)" fill="#d3d3d3" stroke="#363636" stroke-linecap="round" stroke-linejoin="round" stroke-width="2"/>
    <g id="グループ_2656" data-name="グループ 2656" transform="translate(1099.05 6491.886)">
      <path id="パス_2092" data-name="パス 2092" d="M1207.963,930.911v10.4l6.834,9.722c1.218,2.045,3.925,5.883,1.194,8.227l-.414.555c-4.923,3.377-10.557,1.285-13.512-3.519l-4.33-7.252c-.672-1.063-.729-4.964-.774-6.221l.166-4.937-.22-8.466Z" transform="translate(-1196.906 -929.417)" fill="#fff" stroke="#363636" stroke-linecap="round" stroke-linejoin="round" stroke-width="2"/>
      <path id="パス_2093" data-name="パス 2093" d="M1213.251,951.415s1.736,4.092-3.073,4.6a9.049,9.049,0,0,1-3.59-.285c-4.437-1.224-9.507-13.719-9.507-13.719" transform="translate(-1196.945 -932.222)" fill="none" stroke="#363636" stroke-linecap="round" stroke-linejoin="round" stroke-width="2"/>
      <line id="線_4742" data-name="線 4742" x1="9.205" y2="1.411" transform="translate(5.977 18.613)" fill="none" stroke="#363636" stroke-linecap="round" stroke-linejoin="round" stroke-width="2"/>
    </g>
    <rect id="長方形_2238" data-name="長方形 2238" width="4.89" height="94.024" transform="translate(1066.27 6422.306)" fill="#d3d3d3" stroke="#363636" stroke-linecap="round" stroke-linejoin="round" stroke-width="2"/>
    <rect id="長方形_2239" data-name="長方形 2239" width="66.195" height="4.916" transform="translate(1059.701 6467.553)" fill="#e5b1bf" stroke="#363636" stroke-linecap="round" stroke-linejoin="round" stroke-width="2"/>
    <rect id="長方形_2240" data-name="長方形 2240" width="62.55" height="21.582" rx="3.107" transform="translate(1061.015 6414.793)" fill="#e5b1bf" stroke="#363636" stroke-linecap="round" stroke-linejoin="round" stroke-width="2"/>
    <rect id="長方形_2241" data-name="長方形 2241" width="4.89" height="94.024" transform="translate(983.666 6422.306)" fill="#d3d3d3" stroke="#363636" stroke-linecap="round" stroke-linejoin="round" stroke-width="2"/>
    <rect id="長方形_2242" data-name="長方形 2242" width="4.89" height="94.024" transform="translate(934.622 6422.306)" fill="#d3d3d3" stroke="#363636" stroke-linecap="round" stroke-linejoin="round" stroke-width="2"/>
    <rect id="長方形_2243" data-name="長方形 2243" width="66.195" height="4.916" transform="translate(928.053 6467.553)" fill="#e5b1bf" stroke="#363636" stroke-linecap="round" stroke-linejoin="round" stroke-width="2"/>
    <rect id="長方形_2244" data-name="長方形 2244" width="62.55" height="21.582" rx="3.107" transform="translate(929.366 6414.793)" fill="#e5b1bf" stroke="#363636" stroke-linecap="round" stroke-linejoin="round" stroke-width="2"/>
    <path id="パス_2090" data-name="パス 2090" d="M1166.926,930.911v10.4l-6.834,9.722c-1.218,2.045-3.925,5.883-1.194,8.227l.414.555c4.923,3.377,10.558,1.285,13.512-3.519l4.33-7.252c.672-1.063.729-4.964.774-6.221l-.166-4.937.22-8.466Z" transform="translate(-90.125 5562.469)" fill="#fff" stroke="#363636" stroke-linecap="round" stroke-linejoin="round" stroke-width="2"/>
    <path id="パス_2091" data-name="パス 2091" d="M1162.724,951.415s-1.736,4.092,3.073,4.6a9.048,9.048,0,0,0,3.59-.285c4.437-1.224,9.507-13.719,9.507-13.719" transform="translate(-91.172 5559.664)" fill="none" stroke="#363636" stroke-linecap="round" stroke-linejoin="round" stroke-width="2"/>
    <line id="線_4741" data-name="線 4741" x2="9.205" y2="1.411" transform="translate(1072.675 6510.498)" fill="none" stroke="#363636" stroke-linecap="round" stroke-linejoin="round" stroke-width="2"/>
    <path id="パス_2094" data-name="パス 2094" d="M1202.987,879v-7.553h-39.926v5.931a19.93,19.93,0,0,0-2.352,7.248l1.1,45.891,17.011-.356.058-37.3.036-.02c2.274-5.224,8.213-2.467,9.022.02h0l.243,35.923,17.012.3.875-43.792C1206.091,884.213,1203.479,879.913,1202.987,879Z" transform="translate(-90.133 5575.38)" fill="#585858" stroke="#363636" stroke-linecap="round" stroke-linejoin="round" stroke-width="2"/>
    <path id="パス_2095" data-name="パス 2095" d="M1046.386,836.746l3.974-.422-3.875-6.226Z" transform="translate(-64.67 5584.591)" fill="none" stroke="#707070" stroke-width="2"/>
    <path id="パス_2096" data-name="パス 2096" d="M1048.235,822.654l-9.975-20.648a10.133,10.133,0,0,0-6.593-5.658l-21.745-5.741-13.943,3.644a2.737,2.737,0,0,1-1.312.086,2.864,2.864,0,0,1-2-1.415l-5.745-11.434a9.523,9.523,0,0,1-1.244-4.556l-.525-26.629-10.608.525.179,29.523a9.538,9.538,0,0,0,1.045,4.361l16.95,32.622.036.632,1.5,26.3,34.475-1.529.1-12.218,15.74-2.368,2.294-.585C1048.346,826.766,1048.95,824.224,1048.235,822.654Zm-17.752-3.921v-6.409l3.815,5.64Z" transform="translate(-48.67 5602.364)" fill="#d8d8d8" stroke="#363636" stroke-linecap="round" stroke-linejoin="round" stroke-width="2"/>
    <path id="パス_2097" data-name="パス 2097" d="M994.034,953.117a9.05,9.05,0,0,0,3.59-.285c4.228-1.166,9.026-12.551,9.471-13.629l-.047-1.413.221-8.466-10.177,1.495v10.4l-6.331,7.979C990.5,950.374,990.455,952.737,994.034,953.117Z" transform="translate(-52.258 5562.49)" fill="#fff" stroke="#363636" stroke-linecap="round" stroke-linejoin="round" stroke-width="2"/>
    <path id="パス_2098" data-name="パス 2098" d="M996.578,955.662a9.048,9.048,0,0,1-3.59.285c-3.579-.379-3.531-2.742-3.273-3.925l-1.384,1.744c-1.218,2.044-3.926,5.882-1.195,8.227l.415.555c4.923,3.377,10.558,1.286,13.512-3.519l4.33-7.252c.671-1.063.728-4.964.774-6.22l-.119-3.524C1005.6,943.111,1000.805,954.5,996.578,955.662Z" transform="translate(-51.209 5559.659)" fill="#fff" stroke="#363636" stroke-linecap="round" stroke-linejoin="round" stroke-width="2"/>
    <line id="線_4743" data-name="線 4743" x2="9.205" y2="1.411" transform="translate(939.829 6510.425)" fill="none" stroke="#363636" stroke-linecap="round" stroke-linejoin="round" stroke-width="2"/>
    <path id="パス_2099" data-name="パス 2099" d="M1039.3,931.448v10.395l6.833,9.723c1.218,2.044,3.926,5.883,1.195,8.227l-.415.555c-4.923,3.377-10.558,1.286-13.512-3.518l-4.33-7.253c-.672-1.063-.729-4.964-.774-6.22l.166-4.936,3.539-2.976Z" transform="translate(-60.643 5562.017)" fill="#fff" stroke="#363636" stroke-linecap="round" stroke-linejoin="round" stroke-width="2"/>
    <path id="パス_2100" data-name="パス 2100" d="M1029.538,943.537h9.98l5.309,8.3s1.736,4.091-3.072,4.6a9.05,9.05,0,0,1-3.59-.285c-4.438-1.223-8.627-12.617-8.627-12.617" transform="translate(-60.916 5559.324)" fill="#fff" stroke="#363636" stroke-linecap="round" stroke-linejoin="round" stroke-width="2"/>
    <line id="線_4744" data-name="線 4744" x1="9.205" y2="1.411" transform="translate(973.58 6510.582)" fill="none" stroke="#363636" stroke-linecap="round" stroke-linejoin="round" stroke-width="2"/>
    <path id="パス_2101" data-name="パス 2101" d="M1198.623,794.833l-22.4-5.741-13.043,3.644a2.934,2.934,0,0,1-3.407-1.329l-7.461-12.316a9.3,9.3,0,0,1-1.281-4.556l-.541-31.035-12.471.524.183,33.93a9.322,9.322,0,0,0,1.077,4.361l18.124,33.5-.393,33.064s16.268,1.729,26.607.154a48.816,48.816,0,0,1,15.319.089L1197.252,829l14.675-2.368,2.363-.585c1.519-.8,2.141-3.343,1.4-4.913l-10.278-20.648A10.358,10.358,0,0,0,1198.623,794.833Zm-1.32,22.625.1-6.649,3.992,6.226Z" transform="translate(-85.08 5603.88)" fill="#6bdfcf" stroke="#363636" stroke-linecap="round" stroke-linejoin="round" stroke-width="2"/>
    <path id="パス_2103" data-name="パス 2103" d="M1150.738,721.831l-2.88,2.794a.568.568,0,0,1-.882-.451l-.456-12.517a.568.568,0,0,0-.148-.36h0a2.474,2.474,0,0,0-2.948-.539l-.009,0a.566.566,0,0,1-.591-.047l-.1-.072a2.471,2.471,0,0,0-3.083.139l-.146.127-.409-.181a1.883,1.883,0,0,0-2.543,1.042c-.024.068.135,1.562.225,2.886a.556.556,0,0,1-.645.594c-.928-.176-2.088.234-2.151,2.044-.012.35.2,7.107.2,7.107.051.627.235,1.945.464,3.206a11.243,11.243,0,0,0,1.81,4.375l.6.87a.567.567,0,0,1,.064.122l1.127,2.98a.568.568,0,0,0,.567.366l8.153-.506a.567.567,0,0,0,.5-.386l.709-2.113a8.87,8.87,0,0,1,.56-1.935.673.673,0,0,1,.064-.116l4.978-7.308a1.867,1.867,0,0,0-.424-2.277h0A1.867,1.867,0,0,0,1150.738,721.831Z" transform="translate(-84.18 5611.303)" fill="#fff" stroke="#363636" stroke-linecap="round" stroke-linejoin="round" stroke-width="2"/>
    <line id="線_4745" data-name="線 4745" x1="0.997" y1="10.73" transform="translate(1055.364 6322.748)" fill="none" stroke="#363636" stroke-linecap="round" stroke-linejoin="round" stroke-width="2"/>
    <line id="線_4746" data-name="線 4746" x1="0.557" y1="7.112" transform="translate(1052.881 6326.357)" fill="none" stroke="#363636" stroke-linecap="round" stroke-linejoin="round" stroke-width="2"/>
    <line id="線_4747" data-name="線 4747" x1="0.514" y1="10.233" transform="translate(1058.949 6322.515)" fill="none" stroke="#363636" stroke-linecap="round" stroke-linejoin="round" stroke-width="2"/>
    <path id="パス_2104" data-name="パス 2104" d="M1162.08,770.632a2.3,2.3,0,0,1,1.624-.937,4.481,4.481,0,0,1,2.319.469l.633.025c.9-5.875,4.05-7.5,4.05-7.5a26.943,26.943,0,0,0,9.121-4.824l.474,2.056a16.367,16.367,0,0,0,5.267-2.142l3.608.628a11.449,11.449,0,0,0,3.587,5.828,13.589,13.589,0,0,1,3.212,5.14l.253-.065a5.491,5.491,0,0,1,2.591-1.092,2.328,2.328,0,0,1,2.039.812s2.071,1.4,1.512,5.577a5.275,5.275,0,0,1-5.037,4.174,17.984,17.984,0,0,1-8.586,11.207l.135,3.945,3.708,1.672a11.592,11.592,0,0,1-10.519,6.165c-8.039-.232-9.185-6.481-9.185-6.481l2.893-1.551-.11-3.1a17.932,17.932,0,0,1-9.361-10.543,5.276,5.276,0,0,1-5.332-3.808C1160.117,772.155,1162.08,770.632,1162.08,770.632Z" transform="translate(-90.146 5600.698)" fill="#fff" stroke="#363636" stroke-linecap="round" stroke-linejoin="round" stroke-width="2"/>
    <path id="パス_2105" data-name="パス 2105" d="M1180.377,754.29a26.947,26.947,0,0,1-9.121,4.824s-3.153,1.621-4.05,7.5l-.633-.025a4.482,4.482,0,0,0-2.319-.469l-.086-.573a17.612,17.612,0,0,1,5.826-19.6,19.775,19.775,0,0,1,9.419-4.073,11.886,11.886,0,0,1,10.18,3.285s4.572-.409,7.958,5.858a18.32,18.32,0,0,1,1.821,13.225l0,.406a5.491,5.491,0,0,0-2.592,1.092l-.253.065a13.588,13.588,0,0,0-3.212-5.14,11.448,11.448,0,0,1-3.587-5.828l-3.608-.628a16.365,16.365,0,0,1-5.267,2.142Z" transform="translate(-90.697 5604.276)" fill="#585858" stroke="#363636" stroke-linecap="round" stroke-linejoin="round" stroke-width="2"/>
    <path id="パス_2106" data-name="パス 2106" d="M1195.847,773.806a1.615,1.615,0,0,1-1.458,1.783,1.729,1.729,0,0,1-.13-3.434A1.615,1.615,0,0,1,1195.847,773.806Z" transform="translate(-97.277 5597.497)" fill="#363636"/>
    <path id="パス_2107" data-name="パス 2107" d="M1180.826,774.275a1.541,1.541,0,1,1-1.588-1.651A1.638,1.638,0,0,1,1180.826,774.275Z" transform="translate(-93.934 5597.393)" fill="#363636"/>
    <path id="パス_2108" data-name="パス 2108" d="M1186.3,781.9a1.715,1.715,0,0,0,2.531-.092" transform="translate(-95.836 5595.347)" fill="none" stroke="#363636" stroke-linecap="round" stroke-linejoin="round" stroke-width="2"/>
    <path id="パス_2110" data-name="パス 2110" d="M1193.851,754.009a7.86,7.86,0,0,1-2.891,2.933,16.362,16.362,0,0,1-5.267,2.142c-.235.065-.469.114-.72.16" transform="translate(-95.539 5601.538)" fill="none" stroke="#363636" stroke-linecap="round" stroke-linejoin="round" stroke-width="2"/>
    <path id="パス_2111" data-name="パス 2111" d="M1168.345,769.121c.9-5.875,4.05-7.5,4.05-7.5a26.948,26.948,0,0,0,9.121-4.824,13.13,13.13,0,0,0,3.31-3.81" transform="translate(-91.836 5601.766)" fill="none" stroke="#363636" stroke-linecap="round" stroke-linejoin="round" stroke-width="2"/>
    <path id="パス_2112" data-name="パス 2112" d="M1190.647,788.736a10.985,10.985,0,0,1-6.866.242s1.456,3.171,3.523,3.171S1190.647,788.736,1190.647,788.736Z" transform="translate(-95.273 5593.804)" fill="#ffdde6" stroke="#363636" stroke-linecap="round" stroke-linejoin="round" stroke-width="2"/>
    <path id="パス_2113" data-name="パス 2113" d="M1164.168,765.543a17.612,17.612,0,0,1,5.826-19.6,19.775,19.775,0,0,1,9.419-4.073,11.886,11.886,0,0,1,10.18,3.285s4.572-.409,7.958,5.858a18.32,18.32,0,0,1,1.821,13.225" transform="translate(-90.697 5604.276)" fill="none" stroke="#363636" stroke-linecap="round" stroke-linejoin="round" stroke-width="2"/>
    <path id="パス_2114" data-name="パス 2114" d="M1177.617,768.617a2.3,2.3,0,0,1,3.345-.121" transform="translate(-93.9 5598.461)" fill="none" stroke="#363636" stroke-linecap="round" stroke-linejoin="round" stroke-width="2"/>
    <path id="パス_2115" data-name="パス 2115" d="M1192.336,767.983a2.3,2.3,0,0,1,3.344-.12" transform="translate(-97.178 5598.603)" fill="none" stroke="#363636" stroke-linecap="round" stroke-linejoin="round" stroke-width="2"/>
    <path id="パス_2116" data-name="パス 2116" d="M1171.908,807.536s2.552,8.7,11.831,8.7c12.063,0,14.9-9.19,14.9-9.19" transform="translate(-92.629 5589.726)" fill="none" stroke="#363636" stroke-linecap="round" stroke-linejoin="round" stroke-width="2"/>
    <path id="パス_2117" data-name="パス 2117" d="M1036.124,879v-7.553H993.878v5.931c-.887,1.125,2.995,14.794,3.032,16.268l.9,36.789,8.994-.274,4.025-37.3s6.088-3.42,6.9-.933l4.546,36.855,9.116.3.882-43.792C1032.294,884.213,1036.618,879.913,1036.124,879Z" transform="translate(-52.947 5575.38)" fill="#fff" stroke="#363636" stroke-linecap="round" stroke-linejoin="round" stroke-width="2"/>
    <path id="パス_2118" data-name="パス 2118" d="M1193.288,841.189l-5.847-1.58a5.681,5.681,0,0,0-3.516.182h0a5.672,5.672,0,0,0-3.467,3.919l-.567,4.033,13,.481Z" transform="translate(-94.406 5582.517)" fill="#fff" stroke="#363636" stroke-linecap="round" stroke-linejoin="round" stroke-width="2"/>
    <line id="線_4748" data-name="線 4748" y1="0.316" x2="12.35" transform="translate(1052.952 6352.372)" fill="none" stroke="#363636" stroke-linecap="round" stroke-linejoin="round" stroke-width="2"/>
    <path id="パス_2120" data-name="パス 2120" d="M986.659,728.634l-2.88,2.794a.568.568,0,0,1-.881-.451l-.456-12.516a.571.571,0,0,0-.148-.361h0a2.474,2.474,0,0,0-2.948-.54l-.009.006a.568.568,0,0,1-.591-.047l-.1-.072a2.471,2.471,0,0,0-3.083.139l-.145.127-.409-.181a1.883,1.883,0,0,0-2.543,1.042c-.024.068.135,1.562.225,2.886a.556.556,0,0,1-.645.594c-.927-.176-2.088.234-2.151,2.044-.012.35.2,7.107.2,7.107.051.628.235,1.945.464,3.207a11.246,11.246,0,0,0,1.81,4.375l.6.87a.56.56,0,0,1,.064.122l1.127,2.98a.568.568,0,0,0,.567.366l8.153-.506a.566.566,0,0,0,.5-.386l.709-2.113a8.85,8.85,0,0,1,.56-1.935.644.644,0,0,1,.064-.117l4.978-7.308a1.867,1.867,0,0,0-.424-2.277h0A1.867,1.867,0,0,0,986.659,728.634Z" transform="translate(-47.633 5609.788)" fill="#fff" stroke="#363636" stroke-linecap="round" stroke-linejoin="round" stroke-width="2"/>
    <line id="線_4749" data-name="線 4749" x1="0.997" y1="10.73" transform="translate(927.831 6328.035)" fill="none" stroke="#363636" stroke-linecap="round" stroke-linejoin="round" stroke-width="2"/>
    <line id="線_4750" data-name="線 4750" x1="0.557" y1="7.112" transform="translate(925.349 6331.646)" fill="none" stroke="#363636" stroke-linecap="round" stroke-linejoin="round" stroke-width="2"/>
    <line id="線_4751" data-name="線 4751" x1="0.514" y1="10.233" transform="translate(931.417 6327.803)" fill="none" stroke="#363636" stroke-linecap="round" stroke-linejoin="round" stroke-width="2"/>
    <path id="パス_2121" data-name="パス 2121" d="M1026.3,841.189l-7.473-1.58a5.679,5.679,0,0,0-3.516.182h0a5.673,5.673,0,0,0-3.467,3.919l-.567,4.033,14.846.481Z" transform="translate(-56.85 5582.517)" fill="#fff" stroke="#363636" stroke-linecap="round" stroke-linejoin="round" stroke-width="2"/>
    <path id="パス_2122" data-name="パス 2122" d="M990.892,891.02s39.61,5.663,47.5.494c0,0-.87-2.43-1.549-9.548a12.517,12.517,0,0,0-2.587-6.564H994.07a8.8,8.8,0,0,0-3.754,7.237C990.316,891.944,990.892,891.02,990.892,891.02Z" transform="translate(-52.182 5574.5)" fill="#6bdfcf" stroke="#363636" stroke-linecap="round" stroke-linejoin="round" stroke-width="2"/>
    <path id="パス_2123" data-name="パス 2123" d="M1020.669,774.869a1.591,1.591,0,0,0,1.5,1.652,1.561,1.561,0,0,0,1.468-1.663,1.493,1.493,0,1,0-2.968.011Zm-18.5-8.359a18.468,18.468,0,0,0,9.226-4.3l.127-.179a13.038,13.038,0,0,0,5.435,2.12l2.085-.373c2.017,1.356,5.585,2.654,11.877,2.538,0,0,0,6.909.242,8.953,0,0,.927,9.7-1.03,12.1,0,0-2,3.645-7.983,5.8l0,1.869.011,1.282s-.715,3.808-3.938,3.994l-2.664-.058c-3.241-.142-4.168-3.881-4.168-3.881l0-.183-.029-2.965c-6.015-2.058-8.06-5.684-8.06-5.684-2.015-2.346-1.238-12.052-1.238-12.052C1002.276,773.407,1002.167,766.511,1002.167,766.511Zm8.89,6.747a1.667,1.667,0,1,0,1.5,1.652A1.588,1.588,0,0,0,1011.056,773.258Z" transform="translate(-54.766 5599.752)" fill="#fddbc1" stroke="#363636" stroke-linecap="round" stroke-linejoin="round" stroke-width="2"/>
    <path id="パス_2124" data-name="パス 2124" d="M1017.184,760.316l-2.085.373a13.035,13.035,0,0,1-5.435-2.12l-.128.179a18.467,18.467,0,0,1-9.226,4.3s.109,6.9-.1,8.973c0,0-.776,9.706,1.238,12.052,0,0,2.044,3.626,8.059,5.684l.03,2.965h-.331s-.876.371-2.2,1.028l-.09-.155a6.855,6.855,0,0,1-4.34-3.174l-.87,1.781a4.524,4.524,0,0,1-2.347-2.2l-.679,2.182c-7.94-3.754-4.242-17.425-4.242-17.425a44.656,44.656,0,0,0,1.349-11.179s0-8.723,7.366-13.318c12.525-7.833,21.313-1.018,21.313-1.018a11.261,11.261,0,0,1,6.342,4.057,18.41,18.41,0,0,1,3.37,9.914,48.891,48.891,0,0,0,1.526,11.16s3.92,13.63-3.961,17.493l-.511-1.832a6.2,6.2,0,0,1-2.576,1.929l-.832-1.411a10.026,10.026,0,0,1-2.588,2.151l-.043.114a43.218,43.218,0,0,0-4.9-1.244l0-1.869c5.979-2.154,7.983-5.8,7.983-5.8,1.957-2.393,1.03-12.1,1.03-12.1-.241-2.044-.242-8.953-.242-8.953C1022.768,762.97,1019.2,761.672,1017.184,760.316Z" transform="translate(-52.908 5603.213)" fill="#585858" stroke="#363636" stroke-linecap="round" stroke-linejoin="round" stroke-width="2"/>
    <path id="パス_2125" data-name="パス 2125" d="M1016.641,760.775a5.825,5.825,0,0,0,2.441,2.722c2.017,1.356,5.585,2.654,11.877,2.538,0,0,0,6.909.242,8.953,0,0,.344,9.7-1.538,12.1,0,0-1.5,3.645-7.474,5.8l0,1.869,4.9,1.244s-2.472,7.865-10.743,7.089c-6.691-.627-7.445-6.154-7.445-6.154l2.528-1.027-.029-2.965c-6.015-2.058-7.55-5.684-7.55-5.684-1.939-2.346-1.747-12.052-1.747-12.052.214-2.076.1-8.973.1-8.973a18.468,18.468,0,0,0,9.226-4.3s4.274,2.272,5.563,1.942S1016.641,760.775,1016.641,760.775Z" transform="translate(-54.805 5600.031)" fill="#fff" stroke="#363636" stroke-linecap="round" stroke-linejoin="round" stroke-width="2"/>
    <path id="パス_2126" data-name="パス 2126" d="M1027.531,776.408a1.588,1.588,0,0,1,1.481,1.653,1.561,1.561,0,0,1-1.468,1.663,1.667,1.667,0,0,1-.012-3.316Z" transform="translate(-60.139 5596.55)" fill="#363636"/>
    <path id="パス_2127" data-name="パス 2127" d="M1013.255,776.476a1.588,1.588,0,0,1,1.5,1.652,1.561,1.561,0,0,1-1.468,1.663,1.667,1.667,0,0,1-.031-3.314Z" transform="translate(-56.965 5596.534)" fill="#363636"/>
    <path id="パス_2128" data-name="パス 2128" d="M1019.562,784.623a1.662,1.662,0,0,0,2.452-.029" transform="translate(-58.697 5594.727)" fill="none" stroke="#363636" stroke-linecap="round" stroke-linejoin="round" stroke-width="2"/>
    <path id="パス_2129" data-name="パス 2129" d="M1023.946,791.92s-4.522,2.727-8.36.1" transform="translate(-57.811 5593.095)" fill="none" stroke="#363636" stroke-linecap="round" stroke-linejoin="round" stroke-width="2"/>
    <path id="パス_2130" data-name="パス 2130" d="M1011.233,773.809a2.378,2.378,0,0,1,3.461-.029" transform="translate(-56.84 5596.299)" fill="none" stroke="#363636" stroke-linecap="round" stroke-linejoin="round" stroke-width="2"/>
    <path id="パス_2131" data-name="パス 2131" d="M1025.915,773.742a2.361,2.361,0,0,1,3.461-.029" transform="translate(-60.111 5596.315)" fill="none" stroke="#363636" stroke-linecap="round" stroke-linejoin="round" stroke-width="2"/>
    <path id="パス_2132" data-name="パス 2132" d="M1019.191,763.691a13.037,13.037,0,0,1-5.435-2.12,7.654,7.654,0,0,1-1.806-1.6" transform="translate(-57.002 5600.211)" fill="none" stroke="#363636" stroke-linecap="round" stroke-linejoin="round" stroke-width="2"/>
    <path id="パス_2133" data-name="パス 2133" d="M1014.273,762.029" transform="translate(-57.52 5599.752)" fill="#fff" stroke="#363636" stroke-linecap="round" stroke-linejoin="round" stroke-width="2"/>
    <path id="パス_2134" data-name="パス 2134" d="M1033.417,808.06s-.645,12.6,2.117,17.307v5.8l-12.134.6.025,1.807-9.266-1.6s-5.268-.47-5.734,8.318l-9.944.172v-10.1s3.891-6.869,1.515-23.627l6.928-.734s3.274,7.581,9.65,7.409,9.71-7.347,9.71-7.347Z" transform="translate(-54.002 5589.956)" fill="#6bdfcf" stroke="#363636" stroke-linecap="round" stroke-linejoin="round" stroke-width="2"/>
    <path id="長方形_2245" data-name="長方形 2245" d="M0,0H99.209a0,0,0,0,1,0,0V8.123a5,5,0,0,1-5,5H5a5,5,0,0,1-5-5V0A0,0,0,0,1,0,0Z" transform="translate(1044.122 6436.159)" fill="#d3d3d3" stroke="#363636" stroke-linecap="round" stroke-linejoin="round" stroke-width="2"/>
    <rect id="長方形_2246" data-name="長方形 2246" width="115.178" height="5.42" transform="translate(1035.823 6430.739)" fill="#e5b1bf" stroke="#363636" stroke-linecap="round" stroke-linejoin="round" stroke-width="2"/>
    <rect id="長方形_2247" data-name="長方形 2247" width="4.149" height="84.008" transform="translate(1039.973 6436.159)" fill="#d3d3d3" stroke="#363636" stroke-linecap="round" stroke-linejoin="round" stroke-width="2"/>
    <rect id="長方形_2249" data-name="長方形 2249" width="4.149" height="6.228" transform="translate(1039.973 6513.216)" fill="#363636"/>
    <rect id="長方形_2251" data-name="長方形 2251" width="98.929" height="3.399" transform="translate(1044.272 6502.501)" fill="#d3d3d3" stroke="#363636" stroke-linecap="round" stroke-linejoin="round" stroke-width="2"/>
    <path id="長方形_2252" data-name="長方形 2252" d="M0,0H99.209a0,0,0,0,1,0,0V8.123a5,5,0,0,1-5,5H5a5,5,0,0,1-5-5V0A0,0,0,0,1,0,0Z" transform="translate(912.818 6436.159)" fill="#d3d3d3" stroke="#363636" stroke-linecap="round" stroke-linejoin="round" stroke-width="2"/>
    <rect id="長方形_2253" data-name="長方形 2253" width="115.178" height="5.42" transform="translate(904.52 6430.739)" fill="#e5b1bf" stroke="#363636" stroke-linecap="round" stroke-linejoin="round" stroke-width="2"/>
    <rect id="長方形_2254" data-name="長方形 2254" width="4.149" height="84.008" transform="translate(908.669 6436.159)" fill="#d3d3d3" stroke="#363636" stroke-linecap="round" stroke-linejoin="round" stroke-width="2"/>
    <rect id="長方形_2255" data-name="長方形 2255" width="4.149" height="84.008" transform="translate(1012.027 6436.159)" fill="#d3d3d3" stroke="#363636" stroke-linecap="round" stroke-linejoin="round" stroke-width="2"/>
    <rect id="長方形_2256" data-name="長方形 2256" width="4.149" height="6.228" transform="translate(908.669 6513.216)" fill="#363636"/>
    <rect id="長方形_2257" data-name="長方形 2257" width="4.149" height="6.228" transform="translate(1012.027 6513.216)" fill="#363636"/>
    <rect id="長方形_2258" data-name="長方形 2258" width="98.929" height="3.399" transform="translate(912.969 6502.501)" fill="#d3d3d3" stroke="#363636" stroke-linecap="round" stroke-linejoin="round" stroke-width="2"/>
    <path id="パス_2102" data-name="パス 2102" d="M1210.838,838.652l-13.666.391.115,8.271" transform="translate(-98.258 5582.686)" fill="none" stroke="#363636" stroke-linecap="round" stroke-linejoin="round" stroke-width="2"/>
    <path id="パス_2109" data-name="パス 2109" d="M1204.131,769.594a.052.052,0,0,0-.015-.036,13.586,13.586,0,0,0-3.212-5.14,11.449,11.449,0,0,1-3.587-5.828" transform="translate(-98.289 5600.519)" fill="none" stroke="#363636" stroke-linecap="round" stroke-linejoin="round" stroke-width="2"/>
    <line id="線_4752" data-name="線 4752" y2="8.063" transform="translate(1103.441 6422.676)" fill="none" stroke="#363636" stroke-linecap="round" stroke-linejoin="round" stroke-width="2"/>
    <line id="線_4753" data-name="線 4753" x2="10.08" transform="translate(1098.271 6415.267)" fill="#fff" stroke="#363636" stroke-linecap="round" stroke-linejoin="round" stroke-width="2"/>
    <rect id="長方形_2248" data-name="長方形 2248" width="4.149" height="84.008" transform="translate(1143.331 6436.159)" fill="#d3d3d3" stroke="#363636" stroke-linecap="round" stroke-linejoin="round" stroke-width="2"/>
    <rect id="長方形_2250" data-name="長方形 2250" width="4.149" height="6.228" transform="translate(1143.331 6513.216)" fill="#363636"/>
  </g>
</svg>
