<svg xmlns="http://www.w3.org/2000/svg" width="133.32" height="216.994" viewBox="0 0 133.32 216.994">
  <path id="パス_2230" data-name="パス 2230" d="M-30.209-81.243v-2.689q.1-18.721,3.568-29.788t9.877-17.842A77.27,77.27,0,0,1-1.145-144.024a72.555,72.555,0,0,0,11.325-8.636,36.842,36.842,0,0,0,7.912-10.55,29.062,29.062,0,0,0,2.9-13.084,25.779,25.779,0,0,0-3.827-14.17,26.052,26.052,0,0,0-10.291-9.309,31.194,31.194,0,0,0-14.428-3.31,31.728,31.728,0,0,0-13.911,3.155,27.137,27.137,0,0,0-10.86,9.515q-4.292,6.361-4.809,16.083H-73.959q.517-19.651,9.567-32.89a55.865,55.865,0,0,1,24-19.858A80.707,80.707,0,0,1-7.351-233.7q19.755,0,34.8,6.93a54.864,54.864,0,0,1,23.478,19.7q8.429,12.773,8.429,30.253a55.736,55.736,0,0,1-3.775,21.1,51.96,51.96,0,0,1-10.7,16.549,77.952,77.952,0,0,1-16.445,12.929,68.708,68.708,0,0,0-13.7,10.757,34.893,34.893,0,0,0-7.861,13.084A60,60,0,0,0,4.233-83.932v2.689Zm18,64.54a22.057,22.057,0,0,1-16.032-6.619,21.786,21.786,0,0,1-6.723-16.135,21.548,21.548,0,0,1,6.723-15.928,22.057,22.057,0,0,1,16.032-6.619,22.11,22.11,0,0,1,15.98,6.619,21.468,21.468,0,0,1,6.775,15.928A21.616,21.616,0,0,1,7.388-27.977,23.91,23.91,0,0,1-.887-19.754,21.707,21.707,0,0,1-12.212-16.7Z" transform="translate(73.959 233.697)" fill="#00c8ac" opacity="0.347"/>
</svg>
