<svg xmlns="http://www.w3.org/2000/svg" width="314.611" height="82.372" viewBox="0 0 314.611 82.372">
  <g id="グループ_3979" data-name="グループ 3979" transform="translate(-453.999 -3239)">
    <path id="パス_6795" data-name="パス 6795" d="M13.226-5.729V-1.5H9.435V-6.63h5.219V-12.8H12.529v4.2H9.435v-5.627H7.361V-8.6H4.437v-4.2H2.431V-6.63h4.93V-1.5H3.808V-5.729H1.751V1.479H3.808V.493h9.418v.969h2.108V-5.729Zm8.347-4.488h1.955v-1.241h3.927v1.241h2.023v-1.241H33.1v-1.836H29.478V-14.4H27.455v1.105H23.528V-14.4H21.522v1.105H17.986v1.836h3.536v1.224l-.459-.153a12.617,12.617,0,0,1-3.6,4.777,12.653,12.653,0,0,1,1.224,1.887,11.639,11.639,0,0,0,1.037-1.02V1.462h1.972V-7.31A19.9,19.9,0,0,0,23-9.741Zm5.27,5.253v1.683H24.922V-4.964ZM28.7-1.632V-6.613H23.052V-.68h1.87v-.952Zm4.488-7.939H23.052V-7.7h6.766V-.816c0,.272-.1.34-.425.357-.289,0-1.428,0-2.414-.034a7.42,7.42,0,0,1,.714,1.87,8.778,8.778,0,0,0,3.162-.323c.731-.272.952-.782.952-1.819V-7.7h1.377ZM45.985-4.1v2.941H38.913V-4.1ZM36.839,1.462h2.074V.782h7.072v.663h2.176V-6.018H36.839Zm7.4-12.971c.527.459,1.088.969,1.632,1.513-1.955.085-3.927.17-5.763.238.816-1.241,1.666-2.669,2.38-4.012l-2.329-.748a29.171,29.171,0,0,1-2.5,4.845c-.952.017-1.836.051-2.618.068l.119,2.04c3.162-.119,7.905-.306,12.393-.544a10.971,10.971,0,0,1,1.088,1.547l1.751-1.343A22.591,22.591,0,0,0,45.815-12.7ZM60.112-3.944V-5.576c.1.1.17.187.238.255a10.783,10.783,0,0,0,.782-1.224A18,18,0,0,0,62.288-3.2,8.351,8.351,0,0,1,59.3-.629a15.834,15.834,0,0,0-1.411-.9,6.871,6.871,0,0,0,.9-2.414Zm-4.879,0h1.649A5.169,5.169,0,0,1,56.236-2.4c-.493-.238-.986-.442-1.5-.646Zm9.146-5.525a18.19,18.19,0,0,1-.918,4,21.451,21.451,0,0,1-1.037-4Zm3.043,0v-1.87H62.9c.221-.9.408-1.836.544-2.788L61.4-14.4C61-11.373,60.18-8.483,58.735-6.749a11.787,11.787,0,0,1,1.377,1.173H56.066l.408-.816-.731-.153h1.088V-8.6c.663.527,1.377,1.122,1.751,1.479l1.071-1.394c-.374-.255-1.581-.969-2.4-1.428h2.788v-1.6H58.429c.408-.527.935-1.241,1.462-1.972l-1.7-.68a16.421,16.421,0,0,1-1.139,2.159l1.122.493H56.831V-14.4H54.978v2.856H53.55l1.088-.476a7.243,7.243,0,0,0-1.02-2.108l-1.462.612a9.056,9.056,0,0,1,.884,1.972H51.748v1.6H54.4A9.031,9.031,0,0,1,51.408-7.82a6.116,6.116,0,0,1,1.02,1.462,12.253,12.253,0,0,0,2.55-1.972V-6.7L54.6-6.783c-.17.374-.374.782-.578,1.207H51.561v1.632h1.615c-.425.816-.85,1.581-1.224,2.176l1.768.544.187-.323a9.8,9.8,0,0,1,.952.459,8.933,8.933,0,0,1-3.23.918,4.465,4.465,0,0,1,.8,1.666A10.43,10.43,0,0,0,56.61-.119a16.11,16.11,0,0,1,1.768,1.275l.765-.782a7.677,7.677,0,0,1,.646,1.156,11.042,11.042,0,0,0,3.587-2.788,9.227,9.227,0,0,0,2.856,2.7A7.806,7.806,0,0,1,67.626-.306a7.979,7.979,0,0,1-3.009-2.822A19.129,19.129,0,0,0,66.47-9.469Z" transform="translate(578 3260)" fill="#6a6a6a"/>
    <g id="グループ_2613" data-name="グループ 2613" transform="translate(-0.391 54)">
      <path id="パス_6796" data-name="パス 6796" d="M15.45-12.225a25.49,25.49,0,0,0-3.95-6l-2.7,1.35a25.477,25.477,0,0,1,3.725,6.2ZM10.875-7.8C9.625-7.3,8.35-6.775,7.1-6.25L6.65-19.775l-3.1.125.5,14.6c-1.25.5-2.375.9-3.325,1.225l1,3.175C4.55-1.825,8.25-3.4,11.55-4.875ZM24.45-.325A54.524,54.524,0,0,0,18.9-6.75c1.625-3.4,2.525-7.575,3.05-12.7l-3.275-.3C17.75-9.475,15.175-3.425,7.25-.425A17.479,17.479,0,0,1,9.625,2.2a17.851,17.851,0,0,0,7.6-6.075A45.867,45.867,0,0,1,21.9,2.15ZM38.3-2.05V-10.7h8.825v-3.025H38.3v-7.15H35.1V-2.05H26.15v3H48.875v-3Z" transform="translate(681.25 3258.691)" fill="#00c8ac"/>
      <path id="パス_6797" data-name="パス 6797" d="M12.056.616c6.2,0,11.44-3.476,11.44-9.46,0-4.268-2.816-7-6.468-8.008v-.22c3.432-1.364,5.412-3.916,5.412-7.436,0-5.544-4.268-8.668-10.56-8.668a14.446,14.446,0,0,0-9.768,4l3.3,3.96c1.936-1.8,3.828-2.86,6.16-2.86,2.772,0,4.356,1.5,4.356,4.048,0,2.9-1.936,4.972-7.92,4.972v4.62c7.084,0,8.976,2.024,8.976,5.192,0,2.948-2.244,4.576-5.544,4.576A10.343,10.343,0,0,1,4.18-8.008L1.144-3.916C3.432-1.32,6.908.616,12.056.616Zm26,0c6.028,0,11.4-4.18,11.4-11.44,0-7.084-4.576-10.34-10.032-10.34a8.552,8.552,0,0,0-3.916.924l.616-6.908H47.96V-32.6H30.536l-.88,15.84L32.6-14.828c1.892-1.232,2.948-1.716,4.884-1.716,3.3,0,5.5,2.112,5.5,5.9,0,3.828-2.376,5.984-5.764,5.984a10.121,10.121,0,0,1-7.172-3.3L27.06-3.828A14.84,14.84,0,0,0,38.06.616ZM55.528,9.372c5.324-1.76,8.316-5.676,8.316-10.824,0-4-1.672-6.38-4.664-6.38A3.891,3.891,0,0,0,55-4,3.8,3.8,0,0,0,59.048-.176h.4c.044,2.464-1.848,4.752-5.28,6.028ZM79.112.616c6.644,0,11-5.808,11-17.028s-4.356-16.764-11-16.764-11.044,5.5-11.044,16.764C68.068-5.192,72.468.616,79.112.616Zm0-5.06c-2.816,0-4.928-2.816-4.928-11.968,0-9.108,2.112-11.748,4.928-11.748S84-25.52,84-16.412C84-7.26,81.928-4.444,79.112-4.444ZM105.028.616c6.644,0,11-5.808,11-17.028s-4.356-16.764-11-16.764-11.044,5.5-11.044,16.764C93.984-5.192,98.384.616,105.028.616Zm0-5.06c-2.816,0-4.928-2.816-4.928-11.968,0-9.108,2.112-11.748,4.928-11.748s4.884,2.64,4.884,11.748C109.912-7.26,107.844-4.444,105.028-4.444ZM130.944.616c6.644,0,11-5.808,11-17.028s-4.356-16.764-11-16.764S119.9-27.676,119.9-16.412C119.9-5.192,124.3.616,130.944.616Zm0-5.06c-2.816,0-4.928-2.816-4.928-11.968,0-9.108,2.112-11.748,4.928-11.748s4.884,2.64,4.884,11.748C135.828-7.26,133.76-4.444,130.944-4.444ZM174.9-10.6v7.612H156.6V-10.6ZM151.228,3.784H156.6V2.024h18.3V3.74h5.632V-15.576h-29.3Zm19.14-33.572c1.364,1.188,2.816,2.508,4.224,3.916-5.06.22-10.164.44-14.916.616,2.112-3.212,4.312-6.908,6.16-10.384l-6.028-1.936a75.5,75.5,0,0,1-6.468,12.54c-2.464.044-4.752.132-6.776.176l.308,5.28c8.184-.308,20.46-.792,32.076-1.408a28.4,28.4,0,0,1,2.816,4L186.3-20.46c-2.244-3.784-7.48-8.844-11.836-12.408Z" transform="translate(492.391 3258)" fill="#00c8ac"/>
      <g id="グループ_2383" data-name="グループ 2383" transform="translate(239.609 666)">
        <path id="パス_1526" data-name="パス 1526" d="M170.8,471.832c-.1-.527-.492-.644-.867-.26a18.863,18.863,0,0,0-4.054,6.6c-1.053,3.52.224,4.767.224,4.767a2.092,2.092,0,0,0,1.657.5s1.752-.341,2.806-3.86a18.863,18.863,0,0,0,.236-7.74" transform="translate(69.285 2104.513)" fill="#c6c262"/>
        <path id="パス_1527" data-name="パス 1527" d="M135.484,407.084c-.017-.537-.384-.714-.815-.394a18.863,18.863,0,0,0-5.053,5.867c-1.6,3.307-.538,4.742-.538,4.742a2.092,2.092,0,0,0,1.556.753s1.784-.058,3.384-3.365a18.866,18.866,0,0,0,1.465-7.6" transform="translate(101.61 2161.612)" fill="#c6c262"/>
        <path id="パス_1528" data-name="パス 1528" d="M111.136,343.915c.078-.531-.251-.771-.732-.532a18.861,18.861,0,0,0-6.011,4.881c-2.16,2.971-1.369,4.572-1.369,4.572a2.092,2.092,0,0,0,1.4,1.017s1.766.259,3.926-2.713a18.864,18.864,0,0,0,2.787-7.224" transform="translate(124.326 2217.212)" fill="#c6c262"/>
        <path id="パス_1529" data-name="パス 1529" d="M105.175,275.566c.178-.507-.1-.8-.618-.661a18.862,18.862,0,0,0-6.827,3.653c-2.684,2.509-2.21,4.23-2.21,4.23a2.092,2.092,0,0,0,1.181,1.263s1.685.589,4.369-1.92a18.864,18.864,0,0,0,4.106-6.565" transform="translate(130.819 2277.367)" fill="#c6c262"/>
        <path id="パス_1530" data-name="パス 1530" d="M108.449,216.425c.282-.457.074-.807-.462-.779a18.39,18.39,0,0,0-7.273,2.056c-3.093,1.833-3,3.558-3,3.558a2.092,2.092,0,0,0,.882,1.487s1.469.906,4.562-.927a18.392,18.392,0,0,0,5.294-5.395" transform="translate(128.858 2329.437)" fill="#c6c262"/>
        <path id="パス_1531" data-name="パス 1531" d="M131.458,152.023c.325-.427.152-.8-.384-.82a18.39,18.39,0,0,0-7.438,1.342c-3.256,1.526-3.333,3.25-3.333,3.25a2.091,2.091,0,0,0,.734,1.566s1.375,1.044,4.631-.482a18.391,18.391,0,0,0,5.791-4.857" transform="translate(108.938 2386.092)" fill="#c6c262"/>
        <path id="パス_1532" data-name="パス 1532" d="M164.224,86.284c.351-.406.2-.785-.332-.842a18.391,18.391,0,0,0-7.508.872c-3.345,1.318-3.531,3.034-3.531,3.034a2.092,2.092,0,0,0,.634,1.609s1.307,1.129,4.652-.189a18.392,18.392,0,0,0,6.085-4.483" transform="translate(80.366 2444.049)" fill="#c6c262"/>
        <path id="パス_1533" data-name="パス 1533" d="M31.722,545.892c-.533.065-.677.446-.32.847,0,0,3.563,4,7.69,5.561s5.876,0,5.876,0a2.091,2.091,0,0,0,.611-1.617s-.284-2.323-4.411-3.882-9.446-.913-9.446-.913" transform="translate(187.383 2039.18)" fill="#c6c262"/>
        <path id="パス_1534" data-name="パス 1534" d="M7.157,453.045c-.533-.065-.764.271-.513.746a21.636,21.636,0,0,0,5.719,6.728c3.4,2.344,5.289,1.351,5.289,1.351a2.092,2.092,0,0,0,.98-1.424s.255-2.115-3.149-4.459a21.638,21.638,0,0,0-8.326-2.941" transform="translate(209.036 2120.744)" fill="#c6c262"/>
        <path id="パス_1535" data-name="パス 1535" d="M.722,350.875c-.494-.211-.809.046-.7.572a21.638,21.638,0,0,0,3.61,8.059c2.613,3.2,4.7,2.775,4.7,2.775a2.092,2.092,0,0,0,1.34-1.093s.836-1.959-1.777-5.161a21.638,21.638,0,0,0-7.172-5.152" transform="translate(214.781 2210.605)" fill="#c6c262"/>
        <path id="パス_1536" data-name="パス 1536" d="M9.01,248.718c-.431-.321-.8-.144-.816.392a21.638,21.638,0,0,0,1.625,8.679c1.792,3.724,3.921,3.8,3.921,3.8a2.091,2.091,0,0,0,1.558-.75s1.271-1.71-.521-5.434a21.637,21.637,0,0,0-5.768-6.686" transform="translate(207.59 2300.482)" fill="#c6c262"/>
        <path id="パス_1537" data-name="パス 1537" d="M31.623,162.8c-.377-.382-.767-.263-.866.265a19.545,19.545,0,0,0,.29,8.005c1.109,3.62,2.947,3.966,2.947,3.966a2.091,2.091,0,0,0,1.653-.507s1.329-1.316.22-4.936a19.544,19.544,0,0,0-4.244-6.794" transform="translate(188.032 2376.074)" fill="#c6c262"/>
        <path id="パス_1538" data-name="パス 1538" d="M67.032,85.261c-.292-.45-.7-.412-.9.084a18.512,18.512,0,0,0-1.261,7.5c.337,3.6,1.948,4.261,1.948,4.261a2.092,2.092,0,0,0,1.722-.161S70,96,69.663,92.4a18.511,18.511,0,0,0-2.631-7.136" transform="translate(157.798 2444.419)" fill="#c6c262"/>
        <path id="パス_1539" data-name="パス 1539" d="M110.791,11.968c-.2-.5-.606-.539-.9-.09a17.6,17.6,0,0,0-2.54,6.789c-.344,3.448,1.016,4.343,1.016,4.343a2.091,2.091,0,0,0,1.72.172s1.51-.609,1.854-4.057a17.6,17.6,0,0,0-1.149-7.157" transform="translate(120.466 2508.845)" fill="#c6c262"/>
        <path id="パス_1540" data-name="パス 1540" d="M166.1.646c.108-.526-.208-.783-.7-.572a17.6,17.6,0,0,0-5.863,4.261c-2.189,2.686-1.549,4.183-1.549,4.183a2.091,2.091,0,0,0,1.34,1.092s1.6.325,3.784-2.361A17.6,17.6,0,0,0,166.1.646" transform="translate(75.926 2519)" fill="#c6c262"/>
        <path id="パス_1541" data-name="パス 1541" d="M91.232,89.982c-.215.377-2.862,5.406-4.114,8.373a62.151,62.151,0,0,0-3.876,11.138,50.493,50.493,0,0,0-.714,15.6,45.633,45.633,0,0,0,1.8,8.951A49.077,49.077,0,0,0,88.2,143.17C89.226,145.05,99.452,159.7,99.452,159.7" transform="translate(142.356 2439.998)" fill="none" stroke="#c6c262" stroke-linecap="round" stroke-linejoin="round" stroke-width="2"/>
        <path id="パス_6798" data-name="パス 6798" d="M0,0H30V81H0Z" transform="translate(214.78 2519)" fill="none"/>
      </g>
      <g id="グループ_2384" data-name="グループ 2384" transform="translate(739.001 3185)">
        <path id="パス_1526-2" data-name="パス 1526" d="M165.769,471.832c.1-.527.492-.644.867-.26a18.863,18.863,0,0,1,4.054,6.6c1.053,3.52-.224,4.767-.224,4.767a2.092,2.092,0,0,1-1.656.5s-1.752-.341-2.806-3.86a18.863,18.863,0,0,1-.236-7.74" transform="translate(-161.078 -414.487)" fill="#c6c262"/>
        <path id="パス_1527-2" data-name="パス 1527" d="M128.735,407.084c.017-.537.384-.714.815-.394a18.863,18.863,0,0,1,5.053,5.867c1.6,3.307.538,4.742.538,4.742a2.092,2.092,0,0,1-1.556.753s-1.784-.058-3.384-3.365a18.866,18.866,0,0,1-1.465-7.6" transform="translate(-121.048 -357.388)" fill="#c6c262"/>
        <path id="パス_1528-2" data-name="パス 1528" d="M102.894,343.915c-.078-.531.251-.771.732-.532a18.861,18.861,0,0,1,6.011,4.881c2.16,2.971,1.369,4.572,1.369,4.572a2.092,2.092,0,0,1-1.4,1.017s-1.766.259-3.926-2.713a18.864,18.864,0,0,1-2.787-7.224" transform="translate(-93.576 -301.788)" fill="#c6c262"/>
        <path id="パス_1529-2" data-name="パス 1529" d="M95.541,275.566c-.178-.507.1-.8.618-.661a18.861,18.861,0,0,1,6.827,3.653c2.684,2.509,2.21,4.23,2.21,4.23a2.092,2.092,0,0,1-1.181,1.263s-1.685.589-4.369-1.92a18.864,18.864,0,0,1-4.106-6.565" transform="translate(-86.756 -241.632)" fill="#c6c262"/>
        <path id="パス_1530-2" data-name="パス 1530" d="M97.837,216.425c-.282-.457-.074-.807.462-.779a18.39,18.39,0,0,1,7.273,2.056c3.093,1.833,3,3.558,3,3.558a2.092,2.092,0,0,1-.882,1.487s-1.469.906-4.562-.927a18.392,18.392,0,0,1-5.294-5.395" transform="translate(-90.363 -189.563)" fill="#c6c262"/>
        <path id="パス_1531-2" data-name="パス 1531" d="M120.466,152.023c-.325-.427-.152-.8.384-.82a18.39,18.39,0,0,1,7.438,1.342c3.256,1.526,3.333,3.25,3.333,3.25a2.091,2.091,0,0,1-.734,1.566s-1.375,1.044-4.631-.482a18.391,18.391,0,0,1-5.791-4.857" transform="translate(-116.082 -132.908)" fill="#c6c262"/>
        <path id="パス_1532-2" data-name="パス 1532" d="M153.036,86.284c-.351-.406-.2-.785.332-.842a18.39,18.39,0,0,1,7.508.872c3.345,1.318,3.531,3.034,3.531,3.034a2.092,2.092,0,0,1-.634,1.609s-1.307,1.129-4.652-.189a18.392,18.392,0,0,1-6.085-4.483" transform="translate(-152.846 -74.951)" fill="#c6c262"/>
        <path id="パス_1533-2" data-name="パス 1533" d="M45.073,545.892c.533.065.677.446.32.847,0,0-3.563,4-7.69,5.561s-5.876,0-5.876,0a2.091,2.091,0,0,1-.611-1.617s.284-2.323,4.411-3.882,9.446-.913,9.446-.913" transform="translate(-19.398 -479.82)" fill="#c6c262"/>
        <path id="パス_1534-2" data-name="パス 1534" d="M18.022,453.045c.533-.065.764.271.513.746a21.636,21.636,0,0,1-5.719,6.728c-3.4,2.344-5.289,1.351-5.289,1.351a2.092,2.092,0,0,1-.98-1.424s-.255-2.115,3.149-4.459a21.637,21.637,0,0,1,8.326-2.941" transform="translate(10.565 -398.256)" fill="#c6c262"/>
        <path id="パス_1535-2" data-name="パス 1535" d="M9.076,350.875c.494-.211.809.046.7.572a21.638,21.638,0,0,1-3.61,8.059c-2.613,3.2-4.7,2.775-4.7,2.775a2.092,2.092,0,0,1-1.339-1.093s-.836-1.959,1.777-5.161a21.637,21.637,0,0,1,7.172-5.152" transform="translate(20.201 -308.395)" fill="#c6c262"/>
        <path id="パス_1536-2" data-name="パス 1536" d="M14.916,248.718c.431-.321.8-.144.816.392a21.638,21.638,0,0,1-1.625,8.679c-1.792,3.724-3.921,3.8-3.921,3.8a2.091,2.091,0,0,1-1.558-.75s-1.271-1.71.521-5.434a21.637,21.637,0,0,1,5.767-6.686" transform="translate(13.264 -218.518)" fill="#c6c262"/>
        <path id="パス_1537-2" data-name="パス 1537" d="M35.152,162.8c.377-.382.767-.263.866.265a19.545,19.545,0,0,1-.29,8.005c-1.109,3.62-2.947,3.966-2.947,3.966a2.091,2.091,0,0,1-1.653-.507s-1.329-1.316-.22-4.936a19.544,19.544,0,0,1,4.244-6.794" transform="translate(-10.028 -142.926)" fill="#c6c262"/>
        <path id="パス_1538-2" data-name="パス 1538" d="M67.5,85.261c.292-.45.7-.412.9.084a18.512,18.512,0,0,1,1.261,7.5c-.337,3.6-1.948,4.261-1.948,4.261A2.092,2.092,0,0,1,66,96.945S64.537,96,64.874,92.4A18.511,18.511,0,0,1,67.5,85.261" transform="translate(-47.555 -74.581)" fill="#c6c262"/>
        <path id="パス_1539-2" data-name="パス 1539" d="M108.495,11.968c.2-.5.606-.539.9-.09a17.6,17.6,0,0,1,2.54,6.789c.344,3.448-1.016,4.343-1.016,4.343a2.091,2.091,0,0,1-1.72.172s-1.51-.609-1.854-4.057a17.6,17.6,0,0,1,1.149-7.157" transform="translate(-94.972 -10.155)" fill="#c6c262"/>
        <path id="パス_1540-2" data-name="パス 1540" d="M157.924.646c-.107-.526.208-.783.7-.572a17.6,17.6,0,0,1,5.863,4.261c2.189,2.686,1.549,4.183,1.549,4.183a2.091,2.091,0,0,1-1.34,1.092s-1.6.325-3.784-2.361a17.6,17.6,0,0,1-2.989-6.6" transform="translate(-155.174)" fill="#c6c262"/>
        <path id="パス_1541-2" data-name="パス 1541" d="M90.459,89.982c.215.377,2.862,5.406,4.114,8.373a62.152,62.152,0,0,1,3.876,11.138,50.494,50.494,0,0,1,.714,15.6,45.633,45.633,0,0,1-1.8,8.951,49.079,49.079,0,0,1-3.871,9.125C92.465,145.05,82.239,159.7,82.239,159.7" transform="translate(-79.267 -79.002)" fill="none" stroke="#c6c262" stroke-linecap="round" stroke-linejoin="round" stroke-width="2"/>
        <path id="パス_6799" data-name="パス 6799" d="M0,0H30V81H0Z" transform="translate(0)" fill="none"/>
      </g>
    </g>
  </g>
</svg>
