<svg xmlns="http://www.w3.org/2000/svg" xmlns:xlink="http://www.w3.org/1999/xlink" width="146" height="54" viewBox="0 0 146 54">
  <defs>
    <clipPath id="clip-path">
      <rect id="長方形_1523" data-name="長方形 1523" width="146" height="54" fill="none"/>
    </clipPath>
  </defs>
  <g id="グループ_1743" data-name="グループ 1743" clip-path="url(#clip-path)">
    <path id="パス_1108" data-name="パス 1108" d="M141.692,53.834H4.2A4.145,4.145,0,0,1,.058,49.689V4.2A4.145,4.145,0,0,1,4.2.058h137.49A4.144,4.144,0,0,1,145.834,4.2V49.689a4.144,4.144,0,0,1-4.142,4.144" transform="translate(0.054 0.054)" fill="#fff"/>
    <path id="長方形_1521" data-name="長方形 1521" d="M2.145,0H143.63a2.146,2.146,0,0,1,2.146,2.146V51.631a2.145,2.145,0,0,1-2.145,2.145H2.145A2.145,2.145,0,0,1,0,51.631V2.145A2.145,2.145,0,0,1,2.145,0Z" transform="translate(0.112 0.112)" fill="none" stroke="#766f66" stroke-miterlimit="10" stroke-width="0.116"/>
    <path id="パス_1109" data-name="パス 1109" d="M117.207,6.115a2.652,2.652,0,0,1,2.557,2.7,2.559,2.559,0,1,1-5.111,0,2.646,2.646,0,0,1,2.555-2.7m0,6.687a3.988,3.988,0,1,0-3.986-3.988,3.982,3.982,0,0,0,3.986,3.988m-.384-5h.328c.137,0,.483,0,.483.352,0,.377-.377.377-.514.377h-.3Zm.05,1.467h.294a.362.362,0,0,1,.39.342l.122.858h1.3l-.222-1a.723.723,0,0,0-.6-.607V8.825a.838.838,0,0,0,.72-.881c0-.86-.817-.914-1.3-.914H115.63v3.435h1.244ZM103.754,17.7h-1.57V14.392h1.435c.531,0,2.454,0,2.454,1.642,0,.578-.33,1.664-2.319,1.664m-1.57-9.622h1.6c1.709,0,2.2.881,2.2,1.55,0,.462-.209,1.573-2.338,1.573h-1.454Zm10.223,8.585a3.894,3.894,0,0,0-3.657-3.843v-.091A3.77,3.77,0,0,0,112.036,9c0-1.505-.923-4.21-5.988-4.21H96.312V20.984h9.41c2.06,0,6.685-.23,6.685-4.324m-17.51.506H86.8V14.645h7.587v-3.7H86.8V8.609h7.93V4.791H80.61V20.984H94.9ZM63.791,20.984l2.545-10.548h.093l2.68,10.548h6.658L79.652,4.839H74.129L72.158,15.155h-.087L69.57,4.839H63.629L61.063,15.155h-.091L59.029,4.839H53.223l3.769,16.145ZM54.03,16.531H48.99V21h5.04Zm-9.365.058a2.977,2.977,0,0,1,3.124-3.215,5.018,5.018,0,0,1,1.2.185V8.7a4.414,4.414,0,0,0-.948-.114,3.931,3.931,0,0,0-3.65,3.028h-.1V8.862H38.841V20.984h5.824Zm-17.946.348V8.609H27.97c1.5,0,3.051.506,3.051,4.257,0,3.656-1.664,4.071-3.051,4.071Zm10.823-3.98c0-3.561-1.6-8.165-8.141-8.165H20.522V20.984H29.4c6.774,0,8.141-4.811,8.141-8.028" transform="translate(19.105 4.466)" fill="#1a1311"/>
    <path id="パス_1110" data-name="パス 1110" d="M13.616,6.85l4.777,2.672a2.952,2.952,0,0,0,.182-1.012c0-2.1-2.213-3.8-4.937-3.8S8.7,6.411,8.7,8.51A3.041,3.041,0,0,0,8.87,9.5Z" transform="translate(8.101 4.393)" fill="#1a1311"/>
    <path id="パス_1111" data-name="パス 1111" d="M17.156,9.82l3.825,2.305L13.815,20.82Z" transform="translate(12.862 9.154)" fill="#1a1311"/>
    <path id="パス_1112" data-name="パス 1112" d="M15.856,9.593l-.429-1.909,7.365,2.174L18.225,12.3l.628-1.986Z" transform="translate(14.362 7.163)" fill="#1a1311"/>
    <path id="パス_1113" data-name="パス 1113" d="M15.673,8.705,14.7,7.357,21.23,5.268l-1.624,5.143-.674-2.367Z" transform="translate(13.687 4.911)" fill="#1a1311"/>
    <path id="パス_1114" data-name="パス 1114" d="M15.017,7.988,13.646,6.539l1.8-1.845L13.476,3.471H18.7Z" transform="translate(12.546 3.236)" fill="#1a1311"/>
    <path id="パス_1115" data-name="パス 1115" d="M8.777,9.82,4.954,12.125l7.166,8.695Z" transform="translate(4.612 9.154)" fill="#1a1311"/>
    <path id="パス_1116" data-name="パス 1116" d="M10.174,9.593,10.6,7.684,3.238,9.858,7.8,12.3l-.628-1.986Z" transform="translate(3.015 7.163)" fill="#1a1311"/>
    <path id="パス_1117" data-name="パス 1117" d="M9.954,8.705l.971-1.349L4.4,5.268,6.02,10.411l.672-2.367Z" transform="translate(4.093 4.911)" fill="#1a1311"/>
    <path id="パス_1118" data-name="パス 1118" d="M9.981,7.988l1.371-1.449-1.8-1.845,1.97-1.223H6.3Z" transform="translate(5.863 3.236)" fill="#1a1311"/>
    <path id="パス_1119" data-name="パス 1119" d="M10.6,10.464l.882-2.614h2.029l.935,2.614h.029l.545-2.409L12.464,6.6,9.925,8.045l.639,2.419Z" transform="translate(9.24 6.152)" fill="#1a1311"/>
    <path id="パス_1120" data-name="パス 1120" d="M21.554,9.377,18.892,7.856l-.962,2.916H15.555l-.9-2.676H14.62l-.9,2.676H11.33l-.962-2.914L7.708,9.375s-.971,3.437,2.728,6.258a12.194,12.194,0,0,0,3.138,1.932l-.162-.491h2.443l-.162.5a11.587,11.587,0,0,0,3.12-1.938c3.673-2.852,2.742-6.256,2.742-6.256m-5.422,6.859h-3l-.322-.982h3.644Zm.6-1.822h-4.2l-.324-.982h4.845Zm.6-1.82h-5.4l-.322-.982h6.048Z" transform="translate(7.068 7.323)" fill="#1a1311"/>
    <rect id="長方形_1522" data-name="長方形 1522" width="134.356" height="16.134" transform="translate(5.71 31.705)" fill="#61a81d"/>
    <path id="パス_1121" data-name="パス 1121" d="M20.428,26.583a5.979,5.979,0,0,1-2.363.4c-3.061,0-4.665-1.778-4.665-4.1,0-2.676,2.084-4.324,4.831-4.324a5.464,5.464,0,0,1,2.3.41l-.411,1.5a4.641,4.641,0,0,0-1.813-.354,2.66,2.66,0,1,0,.017,5.3,5,5,0,0,0,1.794-.311Z" transform="translate(12.474 17.304)" fill="#fffdfe"/>
    <path id="パス_1122" data-name="パス 1122" d="M19.189,23.413c.068.711.894,1.08,1.8,1.08a5.408,5.408,0,0,0,1.792-.269l.261,1.281a6.087,6.087,0,0,1-2.313.408c-2.13,0-3.364-1.2-3.364-3.039a3.075,3.075,0,0,1,3.178-3.159,2.759,2.759,0,0,1,2.846,3,3.052,3.052,0,0,1-.075.694Zm2.4-1.308a1.1,1.1,0,0,0-1.149-1.146,1.274,1.274,0,0,0-1.274,1.146Z" transform="translate(16.167 18.378)" fill="#fffdfe"/>
    <path id="パス_1123" data-name="パス 1123" d="M21.11,21.865c0-.962-.01-1.511-.046-2.006h1.643l.066,1.171h.042a1.85,1.85,0,0,1,1.736-1.316,1.647,1.647,0,0,1,.411.037v1.781a2.484,2.484,0,0,0-.548-.062,1.235,1.235,0,0,0-1.359.962,2.6,2.6,0,0,0-.023.35v2.985H21.11Z" transform="translate(19.61 18.378)" fill="#fffdfe"/>
    <path id="パス_1124" data-name="パス 1124" d="M26.166,18.9v1.716h1.375V22.05H26.166V24c0,.723.139,1.1.765,1.1a2.417,2.417,0,0,0,.591-.06l.014,1.449a3.951,3.951,0,0,1-1.261.176,2.024,2.024,0,0,1-1.468-.558,2.543,2.543,0,0,1-.508-1.772V22.05h-.813V20.619H24.3V19.332Z" transform="translate(21.865 17.621)" fill="#fffdfe"/>
    <path id="パス_1125" data-name="パス 1125" d="M28.219,19.38a.949.949,0,0,1-1.043.937.942.942,0,1,1,1.043-.937m-1.993,1.666h1.921v5.909H26.226Z" transform="translate(24.358 17.192)" fill="#fffdfe"/>
    <path id="パス_1126" data-name="パス 1126" d="M28.487,27.087V22.611h-.776V21.179h.776v-.226c0-1.911,1.518-2.653,3.236-2.653a3.981,3.981,0,0,1,1.848.408l-.4,1.43a2.932,2.932,0,0,0-1.419-.332c-.994,0-1.365.495-1.365,1.171v.2H34.2v5.909H32.272V22.611H30.409v4.477Z" transform="translate(25.798 17.059)" fill="#fffdfe"/>
    <path id="パス_1127" data-name="パス 1127" d="M33.521,23.413c.068.711.894,1.08,1.805,1.08a5.389,5.389,0,0,0,1.79-.269l.263,1.281a6.087,6.087,0,0,1-2.313.408c-2.13,0-3.368-1.2-3.368-3.039a3.078,3.078,0,0,1,3.178-3.159,2.757,2.757,0,0,1,2.846,3,3.1,3.1,0,0,1-.071.694Zm2.408-1.308a1.1,1.1,0,0,0-1.149-1.146A1.278,1.278,0,0,0,33.5,22.105Z" transform="translate(29.51 18.378)" fill="#fffdfe"/>
    <path id="パス_1128" data-name="パス 1128" d="M41.8,18.375v6.871c0,.709.023,1.424.048,1.772h-1.72l-.077-.931h-.023a2.262,2.262,0,0,1-2.053,1.076,2.811,2.811,0,0,1-2.748-3.033,2.931,2.931,0,0,1,2.889-3.165,2.085,2.085,0,0,1,1.74.692h.023V18.375ZM39.877,23.7a1.7,1.7,0,0,0-.027-.328,1.232,1.232,0,0,0-1.23-.968,1.459,1.459,0,0,0-1.437,1.648A1.425,1.425,0,0,0,38.61,25.64a1.253,1.253,0,0,0,1.234-1,2.285,2.285,0,0,0,.033-.433Z" transform="translate(32.793 17.129)" fill="#fffdfe"/>
    <path id="パス_1129" data-name="パス 1129" d="M40.824,18.776a17.791,17.791,0,0,1,2.757-.176,4.2,4.2,0,0,1,2.578.667,2.353,2.353,0,0,1,.921,1.915,2.512,2.512,0,0,1-.763,1.915,4.142,4.142,0,0,1-2.862.891,4.347,4.347,0,0,1-.728-.054v2.875h-1.9Zm1.9,3.687a3.172,3.172,0,0,0,.724.06c1.035,0,1.722-.47,1.722-1.316,0-.763-.585-1.169-1.578-1.169a4.873,4.873,0,0,0-.869.06Z" transform="translate(38.006 17.338)" fill="#fffdfe"/>
    <path id="パス_1130" data-name="パス 1130" d="M48.361,25.768l-.114-.589H48.2a2.323,2.323,0,0,1-1.813.734A1.871,1.871,0,0,1,44.364,24.1c0-1.532,1.383-2.3,3.721-2.288v-.056c0-.263-.135-.75-1.166-.746a3.837,3.837,0,0,0-1.769.473l-.355-1.211a5.082,5.082,0,0,1,2.448-.556c2.026,0,2.754,1.13,2.754,2.581V24.31a8.439,8.439,0,0,0,.1,1.459ZM48.143,23c-1.116-.01-1.867.242-1.867.9,0,.441.307.676.782.676a1.12,1.12,0,0,0,1.052-.736,1.321,1.321,0,0,0,.033-.327Z" transform="translate(41.301 18.378)" fill="#fffdfe"/>
    <path id="パス_1131" data-name="パス 1131" d="M48.12,21.865c0-.962-.01-1.511-.046-2.006h1.645l.064,1.171h.042a1.85,1.85,0,0,1,1.736-1.316,1.647,1.647,0,0,1,.411.037v1.781a2.484,2.484,0,0,0-.548-.062,1.235,1.235,0,0,0-1.359.962,2.594,2.594,0,0,0-.023.35v2.985H48.12Z" transform="translate(44.755 18.378)" fill="#fffdfe"/>
    <path id="パス_1132" data-name="パス 1132" d="M53.177,18.9v1.716h1.375V22.05H53.177V24c0,.723.139,1.1.765,1.1a2.418,2.418,0,0,0,.591-.06l.014,1.449a3.951,3.951,0,0,1-1.261.176,2.024,2.024,0,0,1-1.468-.558,2.543,2.543,0,0,1-.508-1.772V22.05H50.5V20.619h.813V19.332Z" transform="translate(47.011 17.621)" fill="#fffdfe"/>
    <path id="パス_1133" data-name="パス 1133" d="M53.231,21.784c0-.765-.023-1.4-.05-1.924h1.668l.087.864h.041a2.3,2.3,0,0,1,1.96-1.009c1.234,0,2.292.775,2.292,2.653v3.4H57.307V22.634c0-.848-.324-1.385-1.052-1.385A1.117,1.117,0,0,0,55.21,22a1.177,1.177,0,0,0-.058.423v3.347H53.231Z" transform="translate(49.509 18.378)" fill="#fffdfe"/>
    <path id="パス_1134" data-name="パス 1134" d="M58.759,23.413c.066.711.892,1.08,1.8,1.08a5.389,5.389,0,0,0,1.79-.269l.263,1.281a6.087,6.087,0,0,1-2.313.408c-2.13,0-3.368-1.2-3.368-3.039a3.078,3.078,0,0,1,3.178-3.159,2.757,2.757,0,0,1,2.846,3,3.1,3.1,0,0,1-.071.694Zm2.406-1.308a1.1,1.1,0,0,0-1.149-1.146,1.278,1.278,0,0,0-1.278,1.146Z" transform="translate(53.003 18.378)" fill="#fffdfe"/>
    <path id="パス_1135" data-name="パス 1135" d="M60.682,21.865c0-.962-.014-1.511-.05-2.006h1.647l.062,1.171h.046a1.85,1.85,0,0,1,1.734-1.316,1.647,1.647,0,0,1,.411.037v1.781a2.48,2.48,0,0,0-.546-.062,1.233,1.233,0,0,0-1.359.962,2.594,2.594,0,0,0-.023.35v2.985H60.682Z" transform="translate(56.446 18.378)" fill="#fffdfe"/>
  </g>
</svg>
