<svg xmlns="http://www.w3.org/2000/svg" xmlns:xlink="http://www.w3.org/1999/xlink" width="142.799" height="32.089" viewBox="0 0 142.799 32.089">
  <defs>
    <clipPath id="clip-path">
      <rect id="長方形_1524" data-name="長方形 1524" width="142.799" height="32.089" fill="none"/>
    </clipPath>
  </defs>
  <g id="グループ_1745" data-name="グループ 1745" clip-path="url(#clip-path)">
    <path id="パス_1136" data-name="パス 1136" d="M43.1,4.7A16,16,0,0,0,31.763,0h-.021A16.046,16.046,0,1,0,43.1,4.7M38.56,22.852a9.627,9.627,0,1,1,0-13.615,9.628,9.628,0,0,1,0,13.615" transform="translate(14.778 -0.001)" fill="#2977be" fill-rule="evenodd"/>
    <path id="パス_1137" data-name="パス 1137" d="M60.458,4.7a16.044,16.044,0,1,0,0,22.69,16.011,16.011,0,0,0,0-22.69M55.921,22.852a9.627,9.627,0,1,1,0-13.615,9.628,9.628,0,0,1,0,13.615" transform="translate(31.111 -0.001)" fill="#2977be" fill-rule="evenodd"/>
    <path id="パス_1138" data-name="パス 1138" d="M6.418,32.01l1.605.08H32.089l-.08-1.6a4.953,4.953,0,0,0-4.734-4.734l-1.6-.082H11.231L30.486,6.418l-.082-1.6A4.852,4.852,0,0,0,25.671.08L24.068,0,0,0,.08,1.6A4.981,4.981,0,0,0,4.811,6.339l1.607.08h14.44L1.605,25.671l.08,1.6A4.907,4.907,0,0,0,6.418,32.01" transform="translate(0 0)" fill="#2977be" fill-rule="evenodd"/>
    <path id="パス_1139" data-name="パス 1139" d="M68.818,9.617a6.944,6.944,0,0,1,.784,3.22l.08,1.6V25.671l.082,1.6A4.929,4.929,0,0,0,74.5,32.01l1.6.08V14.44l.082-1.6a7,7,0,0,1,.79-3.231,6.421,6.421,0,0,1,11.105.019,7.043,7.043,0,0,1,.78,3.212l.08,1.6V25.671l.08,1.6a4.913,4.913,0,0,0,4.736,4.736l1.6.08V12.837A12.836,12.836,0,0,0,72.892,4.345,12.838,12.838,0,0,0,56.077,2.2C54.827.811,52.034,0,50.429,0V32.089l1.605-.08a4.843,4.843,0,0,0,4.732-4.734l.082-1.605V14.44l.08-1.6a7.012,7.012,0,0,1,.788-3.226,6.42,6.42,0,0,1,11.1.006" transform="translate(47.444 0)" fill="#2977be" fill-rule="evenodd"/>
  </g>
</svg>
