<svg xmlns="http://www.w3.org/2000/svg" xmlns:xlink="http://www.w3.org/1999/xlink" width="71" height="71" viewBox="0 0 71 71">
  <defs>
    <clipPath id="clip-path">
      <rect id="長方形_1525" data-name="長方形 1525" width="71" height="71" fill="none"/>
    </clipPath>
  </defs>
  <g id="グループ_1748" data-name="グループ 1748" clip-path="url(#clip-path)">
    <path id="パス_1148" data-name="パス 1148" d="M37.307,20.079A23.225,23.225,0,0,0,21.891,6.933c1.837,3.209,3.108,7.9,3.786,13.146Z" transform="translate(19.4 6.154)" fill="#0085c6"/>
    <path id="パス_1149" data-name="パス 1149" d="M6.554,21.465a23.063,23.063,0,0,0,.721,5.671H17.741a12.946,12.946,0,0,1,.025-11.341H7.275a23.369,23.369,0,0,0-.721,5.671" transform="translate(5.808 14.02)" fill="#0085c6"/>
    <path id="パス_1150" data-name="パス 1150" d="M23,6.933A23.228,23.228,0,0,0,7.578,20.079H19.21c.677-5.242,1.948-9.937,3.786-13.146" transform="translate(6.716 6.154)" fill="#0085c6"/>
    <path id="パス_1151" data-name="パス 1151" d="M26.94,17.677c-1.345-7.039-3.7-11.149-5.521-11.149s-4.178,4.11-5.523,11.149a13.057,13.057,0,0,1,11.044,0" transform="translate(14.087 5.795)" fill="#0085c6"/>
    <path id="パス_1152" data-name="パス 1152" d="M21.407,36.3c1.8,0,4.178-4.108,5.5-11.124a12.95,12.95,0,0,1-11,0c1.32,7.017,3.7,11.124,5.5,11.124" transform="translate(14.098 22.348)" fill="#0085c6"/>
    <path id="パス_1153" data-name="パス 1153" d="M36.361,21.465a23.369,23.369,0,0,0-.721-5.671H25.149a13.151,13.151,0,0,1,.025,11.341H35.615a21.951,21.951,0,0,0,.745-5.671" transform="translate(22.287 14.02)" fill="#0085c6"/>
    <path id="パス_1154" data-name="パス 1154" d="M23,36.85c-1.837-3.209-3.108-7.9-3.786-13.146H7.578A23.232,23.232,0,0,0,23,36.85" transform="translate(6.716 21.042)" fill="#0085c6"/>
    <path id="パス_1155" data-name="パス 1155" d="M37.306,23.705H25.676C25,28.945,23.727,33.64,21.89,36.849A23.222,23.222,0,0,0,37.306,23.705" transform="translate(19.399 21.043)" fill="#0085c6"/>
    <path id="パス_1156" data-name="パス 1156" d="M13.454,13.425a31.175,31.175,0,0,1,42.788-1.18l-1.7,1.7a1.678,1.678,0,0,0,.887,2.835l8.037,1.454a1.571,1.571,0,0,0,.3.026,1.678,1.678,0,0,0,1.65-1.975L63.957,8.247a1.676,1.676,0,0,0-2.833-.889L59.3,9.187A35.476,35.476,0,0,0,.618,42.107,2.163,2.163,0,0,0,2.74,43.868a2.3,2.3,0,0,0,.4-.038A2.16,2.16,0,0,0,4.864,41.3a31.24,31.24,0,0,1,8.59-27.879" transform="translate(0 0)" fill="#68a02e"/>
    <path id="パス_1157" data-name="パス 1157" d="M67.768,16.123a2.16,2.16,0,1,0-4.246.8A31.158,31.158,0,0,1,12.146,45.985l1.7-1.7a1.676,1.676,0,0,0-.887-2.835L4.927,39.995a1.677,1.677,0,0,0-1.952,1.946l1.456,8.045a1.667,1.667,0,0,0,1.149,1.3,1.693,1.693,0,0,0,.5.077,1.675,1.675,0,0,0,1.185-.493L9.09,49.043a35.476,35.476,0,0,0,58.678-32.92" transform="translate(2.614 12.749)" fill="#68a02e"/>
    <path id="パス_1158" data-name="パス 1158" d="M33.34,23.454a9.878,9.878,0,1,0-9.878,9.886,9.881,9.881,0,0,0,9.878-9.886m-4.921-1.087L23.3,27.492a1.677,1.677,0,0,1-2.375,0l-2.546-2.546a1.681,1.681,0,0,1,2.377-2.378l1.356,1.357,3.933-3.936a1.681,1.681,0,1,1,2.377,2.378" transform="translate(12.038 12.046)" fill="#68a02e"/>
  </g>
</svg>
