<svg xmlns="http://www.w3.org/2000/svg" xmlns:xlink="http://www.w3.org/1999/xlink" viewBox="0 0 660 362.97"><defs><radialGradient id="名称未設定グラデーション_3" cx="172.39" cy="-104.71" r="47.96" gradientTransform="matrix(.92 0 0 .95 -93.75 321.1)" xlink:href="#名称未設定グラデーション_4"/><radialGradient id="名称未設定グラデーション_3-2" cx="594.58" cy="-229.68" r="92.88" gradientTransform="matrix(.86 0 0 .89 -32.01 450.13)" xlink:href="#名称未設定グラデーション_4"/><linearGradient id="名称未設定グラデーション_4" x1="5.48" y1="146.07" x2="109.65" y2="211.82" gradientUnits="userSpaceOnUse"><stop offset="0" stop-color="#fff"/><stop offset="1"/></linearGradient><linearGradient id="名称未設定グラデーション_4-2" x1="371.98" y1="108.72" x2="560.87" y2="227.95" xlink:href="#名称未設定グラデーション_4"/><pattern id="新規パターンスウォッチ_3" data-name="新規パターンスウォッチ 3" width="16" height="16" patternTransform="translate(-20.29 14.86)" patternUnits="userSpaceOnUse" viewBox="0 0 16 16"><path class="cls-1" d="M0 0h16v16H0z"/><circle class="cls-2" cx="12" cy="16" r="1.5"/><circle class="cls-2" cx="4" cy="16" r="1.5"/><circle class="cls-2" cx="16" cy="8" r="1.5"/><circle class="cls-2" cx="8" cy="8" r="1.5"/><circle class="cls-2" cy="8" r="1.5"/><circle class="cls-2" cx="12" r="1.5"/><circle class="cls-2" cx="4" r="1.5"/></pattern><pattern id="新規パターンスウォッチ_4" data-name="新規パターンスウォッチ 4" width="20" height="20" patternTransform="translate(-.38 22.82)" patternUnits="userSpaceOnUse" viewBox="0 0 20 20"><path class="cls-1" d="M0 0h20v20H0z"/><circle class="cls-3" cx="15" cy="20" r="2.5"/><circle class="cls-3" cx="5" cy="20" r="2.5"/><circle class="cls-3" cx="20" cy="10" r="2.5"/><circle class="cls-3" cx="10" cy="10" r="2.5"/><circle class="cls-3" cy="10" r="2.5"/><circle class="cls-3" cx="15" r="2.5"/><circle class="cls-3" cx="5" r="2.5"/></pattern><style>.cls-1{fill:none}.cls-2{fill:#fff}.cls-3{fill:#ffe650}.cls-5{fill:#aceadc}.cls-6{fill:#fffadc}.cls-7{fill:#3e3a39}.cls-8{fill:#717071}.cls-9{fill:#231815}.cls-10{fill:#595757}.cls-15,.cls-19{font-family:YuGo-Medium-83pv-RKSJ-H,YuGothic}.cls-15{fill:#000}.cls-16{fill:#62dac4}.cls-17{opacity:.55;fill:url(#新規パターンスウォッチ_3)}.cls-18{opacity:.45;fill:url(#新規パターンスウォッチ_4)}.cls-19{font-size:15.92px}.cls-22{fill:#c4c8cb}</style></defs><g style="isolation:isolate"><g id="レイヤー_2" data-name="レイヤー 2"><g id="レイヤー_1-2" data-name="レイヤー 1"><path class="cls-5" d="M595.6 181.48a117.22 117.22 0 01-117.08 117.09V363C578.59 363 660 281.55 660 181.48z"/><path class="cls-6" d="M361.43 181.48A117.22 117.22 0 01478.52 64.4V0C378.45 0 297 81.41 297 181.48z"/><rect class="cls-7" y="143.97" width="128.98" height="81.62" rx=".85"/><path class="cls-8" d="M2.24 220.24h124.49v1.9H2.24z"/><path class="cls-9" d="M2.45 146.59h124.07v73.44H2.45z"/><path class="cls-10" d="M126.31 146.81v73H2.67v-73h123.64m.43-.43H2.24v73.86h124.5v-73.86z"/><path style="mix-blend-mode:screen" fill="url(#名称未設定グラデーション_4)" opacity=".2" d="M3.53 147.72h121.93v71.19H3.53z"/><path style="mix-blend-mode:screen" fill="url(#名称未設定グラデーション_3)" opacity=".2" d="M2.24 220.24h124.49v1.9H2.24z"/><text transform="translate(.66 246.88)" font-family="YuGo-Medium-83pv-RKSJ-H,YuGothic" font-size="12.53" letter-spacing=".05em">弊社の従来の電子黒板</text><text transform="translate(156.23 129.38)" font-size="14.85" fill="#17a593" font-family="YuGo-Bold-83pv-RKSJ-H,YuGothic" letter-spacing=".05em">使う人が主役<tspan class="cls-15" x="93.53" y="0">の</tspan><tspan class="cls-15"><tspan x="0" y="23.2">電子黒板へ進化</tspan></tspan></text><path class="cls-16" d="M595.6 181.48A117.21 117.21 0 00478.52 64.4V0C578.59 0 660 81.41 660 181.48z"/><path class="cls-17" d="M595.6 181.48a117.22 117.22 0 01-117.08 117.09V363C578.59 363 660 281.55 660 181.48z"/><path class="cls-3" d="M361.43 181.48a117.23 117.23 0 00117.09 117.09V363C378.45 363 297 281.55 297 181.48z"/><path class="cls-18" d="M361.43 181.48A117.22 117.22 0 01478.52 64.4V0C378.45 0 297 81.41 297 181.48z"/><text class="cls-19" transform="rotate(65.83 -22.467 373.501)">一</text><text class="cls-19" transform="rotate(59.63 -56.876 420.572)">人</text><text class="cls-19" transform="rotate(53.46 -98.283 477.23)">ひ</text><text class="cls-19" transform="rotate(47.32 -149.38 547.173)">と</text><text class="cls-19" transform="rotate(41.4 -212.269 635.01)">り</text><text class="cls-19" transform="rotate(35 -303.958 761.355)">を</text><text class="cls-19" transform="rotate(28.87 -425.34 924.793)">想</text><text class="cls-19" transform="rotate(22.67 -615.285 1184.509)">う</text><text class="cls-19" transform="rotate(24.05 188.019 1266.492)">常</text><text class="cls-19" transform="rotate(29.87 198.66 1046.273)">に</text><text class="cls-19" transform="rotate(35.67 205.856 897.058)">成</text><text class="cls-19" transform="rotate(41.4 211.939 791.038)">長</text><text class="cls-19" transform="rotate(47.22 215.007 706.289)">し</text><text class="cls-19" transform="rotate(52.99 218.142 640.789)">続</text><text class="cls-19" transform="matrix(.52 .86 -.86 .52 608.41 94.03)">け</text><text class="cls-19" transform="rotate(64.61 222.965 541.888)">る</text><rect class="cls-7" x="362.04" y="104.93" width="233.88" height="148" rx="1.54"/><path class="cls-8" d="M366.1 243.22h225.75v3.45H366.1z"/><path class="cls-9" d="M366.49 109.68h224.98v133.16H366.49z"/><path class="cls-10" d="M591.08 110.06v132.39H366.87V110.06h224.21m.77-.77H366.1v133.93h225.75V109.29z"/><path style="mix-blend-mode:screen" fill="url(#名称未設定グラデーション_4-2)" opacity=".2" d="M368.43 111.71h221.09V240.8H368.43z"/><path style="mix-blend-mode:screen" fill="url(#名称未設定グラデーション_3-2)" opacity=".2" d="M366.1 243.22h225.75v3.45H366.1z"/><path class="cls-2" d="M445.19 174.15H447a.23.23 0 01.23.23v12.13a.23.23 0 01-.23.23h-1.77a.23.23 0 01-.24-.23v-12.13a.23.23 0 01.2-.23zm9.09.23a.23.23 0 01.23-.23h4.15a9.11 9.11 0 011.75.16 4.8 4.8 0 011.51.58A3.2 3.2 0 01463 176a3.55 3.55 0 01.39 1.76 3.46 3.46 0 01-.76 2.29 3.2 3.2 0 01-2.07 1.11.06.06 0 000 .09l3.09 5.14a.23.23 0 01-.2.35h-2.15a.22.22 0 01-.21-.12l-2.83-5.18a.07.07 0 00-.06 0h-1.54a.06.06 0 00-.06.06v5a.23.23 0 01-.24.23h-1.77a.23.23 0 01-.23-.23zm4 5.1h1a3.07 3.07 0 00.88-.21 1.58 1.58 0 00.65-.52 1.67 1.67 0 00.25-1 1.59 1.59 0 00-.23-.89 1.51 1.51 0 00-.61-.51 3 3 0 00-.83-.22 6.58 6.58 0 00-.88-.05h-1.88a.06.06 0 00-.06.06v3.29a.06.06 0 00.06.06zm15.11-5.34H475a.24.24 0 01.22.15l5.23 12.12a.24.24 0 01-.22.33h-2.03a.22.22 0 01-.21-.14l-1.1-2.7a.08.08 0 00-.06 0h-5.38a.07.07 0 00-.06 0l-1.07 2.69a.23.23 0 01-.22.15h-2a.23.23 0 01-.21-.33l5.28-12.12a.23.23 0 01.22-.15zm2.67 7.72L474.2 177a.06.06 0 00-.11 0l-1.89 4.9a.06.06 0 00.06.08H476a.06.06 0 00.06-.12zm9.57-7.71h1.77a.23.23 0 01.24.23v12.13a.23.23 0 01-.24.23h-1.77a.23.23 0 01-.23-.23v-12.13a.23.23 0 01.23-.23zm14.75 2.02h-3.57a.23.23 0 01-.23-.23v-1.56a.23.23 0 01.23-.23h9.5a.23.23 0 01.24.23v1.56a.23.23 0 01-.24.23h-3.57a.07.07 0 00-.06.07v10.27a.23.23 0 01-.23.23h-1.77a.23.23 0 01-.24-.23v-10.27a.07.07 0 00-.06-.07zm9.69 4.33a7.32 7.32 0 01.5-2.75 6 6 0 013.48-3.45 7.26 7.26 0 012.68-.47 7.38 7.38 0 012.71.43 6 6 0 012.12 1.33 6.26 6.26 0 011.39 2.1 7.27 7.27 0 01.49 2.74 7 7 0 01-.49 2.68 6.12 6.12 0 01-3.51 3.45 7.6 7.6 0 01-2.71.5 7.26 7.26 0 01-2.68-.47 6 6 0 01-3.48-3.4 7.08 7.08 0 01-.5-2.69zm2.35-.14a5.58 5.58 0 00.31 1.86 4.55 4.55 0 00.88 1.48 4.09 4.09 0 001.37 1 4.24 4.24 0 001.77.36 4.29 4.29 0 001.78-.36 4.09 4.09 0 001.37-1 4.38 4.38 0 00.88-1.48 5.34 5.34 0 00.31-1.86 4.92 4.92 0 00-.31-1.77 4.45 4.45 0 00-.88-1.43 4 4 0 00-1.37-1 4.45 4.45 0 00-1.78-.35 4.4 4.4 0 00-1.77.35 4 4 0 00-1.37 1 4.64 4.64 0 00-.88 1.43 5.14 5.14 0 00-.31 1.77zm26.83 1.76a5.17 5.17 0 01-.39 2 4.66 4.66 0 01-1.07 1.56 4.59 4.59 0 01-1.6 1 6.11 6.11 0 01-4 0 4.64 4.64 0 01-1.61-1 4.39 4.39 0 01-1.07-1.56 5.17 5.17 0 01-.39-2v-7.74a.23.23 0 01.24-.23h1.77a.23.23 0 01.24.23v7.67a3.79 3.79 0 00.14 1 2.82 2.82 0 00.47.93 2.43 2.43 0 00.87.7 2.93 2.93 0 001.35.28 2.86 2.86 0 001.34-.28 2.38 2.38 0 00.88-.7 2.82 2.82 0 00.47-.93 3.79 3.79 0 00.14-1v-7.67a.23.23 0 01.24-.23H539a.23.23 0 01.23.23zm14.57-5.12a.24.24 0 01-.31 0 3.47 3.47 0 00-1.2-.85 3.76 3.76 0 00-1.31-.25 4.4 4.4 0 00-1.77.35 4 4 0 00-1.36 1 4.29 4.29 0 00-.88 1.43 4.92 4.92 0 00-.32 1.77 5.34 5.34 0 00.32 1.86 4.22 4.22 0 00.88 1.48 4.05 4.05 0 001.36 1 4.24 4.24 0 001.77.21 3.32 3.32 0 001.49-.37 3.77 3.77 0 001.2-1 .24.24 0 01.32-.05l1.47 1.05a.23.23 0 010 .34 4.92 4.92 0 01-1.93 1.51 6.43 6.43 0 01-2.62.53 7.29 7.29 0 01-2.68-.47 6.17 6.17 0 01-2.1-1.33 6.31 6.31 0 01-1.38-2.07 7.08 7.08 0 01-.5-2.69 7.32 7.32 0 01.5-2.75 6.18 6.18 0 011.38-2.11 6 6 0 012.1-1.34 7.29 7.29 0 012.68-.47 6.19 6.19 0 012.38.45 5.35 5.35 0 011.86 1.34.23.23 0 010 .35zm7.18-2.85h1.77a.23.23 0 01.23.23v4.72a.06.06 0 00.06.06h5.78a.06.06 0 00.06-.06v-4.72a.23.23 0 01.23-.23h1.77a.23.23 0 01.24.23v12.13a.23.23 0 01-.24.23h-1.77a.23.23 0 01-.23-.23v-5.26a.06.06 0 00-.06-.06H563a.06.06 0 00-.06.06v5.26a.23.23 0 01-.23.23H561a.23.23 0 01-.24-.23v-12.13a.23.23 0 01.24-.23zM434 173a7.61 7.61 0 00-6.81 2.41 6.69 6.69 0 00-.52-1c-1.89-3.06-5.49-3.73-8.79-2.21a9.69 9.69 0 00-5.23-4.27c-4.88-1.6-10.46.84-14.55 3.4-7.18 4.5-17.33 17.88-6.28 23.86.43.23 0-.7-.25-.86-4.73-3.25-1.92-8.28-.51-11.06a24.52 24.52 0 017.22-8.33c3.87-2.91 16.62-9.44 18.73-2.31a28.67 28.67 0 00-8.59 7.82c-1.71 2.2-4.39 6.81-2.86 8.51 1.81 2 5 1.23 7.35-.85a16.72 16.72 0 006.05-11.4 11.81 11.81 0 00-.15-2.3 7.06 7.06 0 015.36-1 2.9 2.9 0 011.91 3.25c-1.34 1.41-3.68 6.54-3.24 8.24.15.56.95.72 1.83-.31a18.24 18.24 0 003-5.8 15.39 15.39 0 014.1-3.4c2.65-1.42 5.13-.24 5.23 2.4a9.21 9.21 0 01-3.1 6.8 8 8 0 01-.84.53c-.12.09-.21.2-.14.33.3.59 1.25 1.84 1.64 1.59 4.83-3.04 6.03-12.69-.56-14.04zm-20.38 11.6a19.86 19.86 0 01-3 3 9.42 9.42 0 01-1.53 1.08c-.54.26-1 .47-1.19.28-1.15-1.37 1.81-5.24 2.74-6.56a36.35 36.35 0 014.46-5.1c.59-.56 1.3-1.2 2.08-1.81a14.11 14.11 0 01-3.55 9.07zm22.99-23.95v1.61c0 .1 0 .13-.12.13a5 5 0 01-.77 0c-.09 0-.12 0-.11-.12v-3.39a13.15 13.15 0 01-2.12 1.49.27.27 0 01-.12 0 .19.19 0 01-.16-.08 2.62 2.62 0 00-.67-.45 12.27 12.27 0 002.44-1.59 11.92 11.92 0 001.64-1.61 2.07 2.07 0 00.49-.8 7.52 7.52 0 01.86.54.13.13 0 01.06.12.23.23 0 01-.11.17 2.54 2.54 0 00-.46.42 10.75 10.75 0 01-.91 1zm6.12-3.97a.15.15 0 01.1-.06.21.21 0 01.1 0 7.83 7.83 0 011.48 1.1s.07.07.07.11a.19.19 0 01-.05.1c-.11.15-.37.46-.48.58s-.06.06-.09.06-.06 0-.1-.06a8 8 0 00-1.58-1.26c.17-.17.4-.41.55-.57zm.67 4.07a11.41 11.41 0 002.22-1.43 11.72 11.72 0 002.12-2.1 3.59 3.59 0 00.22.9.42.42 0 010 .15c0 .07 0 .13-.13.23a12.22 12.22 0 01-1.78 1.64 16.93 16.93 0 01-2.33 1.51 2.62 2.62 0 00-.52.36.21.21 0 01-.14.07s-.08 0-.13-.08a6.4 6.4 0 01-.62-.86 4.65 4.65 0 001.09-.39zm12.3-3.62a.74.74 0 00.38-.09.19.19 0 01.1 0 .24.24 0 01.13 0 3.67 3.67 0 01.52.42.26.26 0 01.1.18.21.21 0 01-.09.16.93.93 0 00-.25.33 11.13 11.13 0 01-1.53 2.39 9.87 9.87 0 01-2.35 1.92.24.24 0 01-.13 0 .27.27 0 01-.17-.08 2.13 2.13 0 00-.74-.36 8.64 8.64 0 002.57-2 7.76 7.76 0 001.43-2.19l-1.87.05a11.08 11.08 0 01-1.46 1.59.23.23 0 01-.16.08.13.13 0 01-.11-.05 2.44 2.44 0 00-.75-.33 9 9 0 002.08-2.29 3.29 3.29 0 00.46-1 3.37 3.37 0 01.9.41.14.14 0 01.08.13.15.15 0 01-.09.13.78.78 0 00-.19.21l-.25.38zm6.94.07c.13 0 .15.13.1.24a1.19 1.19 0 00-.09.53 5.78 5.78 0 01-.42 2.27 4 4 0 01-1.09 1.45.37.37 0 01-.21.1.24.24 0 01-.14-.06 2.9 2.9 0 00-.66-.33 3.79 3.79 0 001.28-1.53 5 5 0 00.33-2.19 2.14 2.14 0 00-.08-.65 7.15 7.15 0 01.98.17zm1.72 3.27a7.33 7.33 0 001.09-.72 7.55 7.55 0 001.36-1.31 2.27 2.27 0 00.24.78.38.38 0 010 .13.29.29 0 01-.11.19 8.85 8.85 0 01-1.15 1 13 13 0 01-1.37.93l-.23.16a.22.22 0 01-.15.06.29.29 0 01-.16-.06 2.1 2.1 0 01-.47-.47.35.35 0 01-.07-.16.3.3 0 010-.12c.06-.1 0-.19 0-.58v-2.42a6.05 6.05 0 00-.08-1.35 7.44 7.44 0 011 .17c.1 0 .14.07.14.13a.49.49 0 01-.06.19 2.14 2.14 0 00-.07.86zm6.86-.76a6.35 6.35 0 00-1.13.09.17.17 0 01-.18-.16 8.22 8.22 0 01-.11-.93 10.68 10.68 0 001.66.09h4.32c.12 0 .14 0 .14.1v.73c0 .23 0 .12-.14.12h-1.72zm8.22-1.63c0-.05.07-.09.14-.08a5.5 5.5 0 011.49.76c.05 0 .08.07.08.12a.16.16 0 010 .08 3.12 3.12 0 01-.34.59s-.07.08-.1.08h-.09a6.93 6.93 0 00-1.56-.84c.16-.36.28-.58.38-.71zm1.25 2.87a13.25 13.25 0 002.12-1.34 14.38 14.38 0 002.22-2.15 3.78 3.78 0 00.23.86.44.44 0 010 .15.26.26 0 01-.08.18 15.25 15.25 0 01-2 1.78 18.19 18.19 0 01-2.31 1.45 2.57 2.57 0 00-.45.26.19.19 0 01-.13.07.19.19 0 01-.15-.1 5 5 0 01-.57-.78 4 4 0 001.12-.33zm-.32-4.64c.06-.1.1-.11.19-.07a5.29 5.29 0 011.46.86.14.14 0 01.06.1.22.22 0 010 .1 3.13 3.13 0 01-.4.58.08.08 0 01-.07.05.23.23 0 01-.12-.06 7.64 7.64 0 00-1.5-1zm9.54 1.45h-1.28c-.1 0-.13 0-.15-.15s-.05-.56-.07-.78a13.55 13.55 0 001.49 0h2.76a.75.75 0 00.42-.07.18.18 0 01.12 0h.14a2.81 2.81 0 01.57.51.2.2 0 010 .13.27.27 0 01-.11.2.88.88 0 00-.17.3 9.14 9.14 0 01-1.5 2.51 8.73 8.73 0 01-2.2 1.84.44.44 0 01-.21.07.28.28 0 01-.19-.09 2.17 2.17 0 00-.72-.42 7.51 7.51 0 002.53-1.93 6.42 6.42 0 001.3-2.21zm3.77-1.82h.11a3.53 3.53 0 01.74.82.08.08 0 010 .13l-.28.21h-.13a4 4 0 00-.78-.89zm.63-.47h.12a3.2 3.2 0 01.73.79.09.09 0 010 .14l-.26.21a.09.09 0 01-.06 0h-.07a3.63 3.63 0 00-.77-.89zm4.69 1.04h-1.05c-.05 0-.1 0-.1-.09v-.5c0-.07 0-.08.1-.08h5.57c.08 0 .08 0 .08.08v.5c0 .08 0 .09-.08.09H501v.31h2.91c.07 0 .08 0 .08.08v1.58c0 .05 0 .08-.08.08h-.61c-.07 0-.08 0-.08-.08v-1.06H501v1.43c0 .05 0 .08-.09.08h-.63c-.08 0-.09 0-.09-.08v-1.43h-2.14v1.06c0 .08 0 .08-.09.08h-.6c-.07 0-.08 0-.08-.08v-1.58c0-.05 0-.08.08-.08h2.83v-.31zm3 2.58h1.21c.05 0 .09 0 .09.09v2.29c0 .05 0 .08-.09.08H501v.11c0 .21.05.24.15.27a6.07 6.07 0 001 0c.68 0 1 0 1.14-.16s.17-.19.19-.78a2.33 2.33 0 00.55.22c.2.06.2.06.19.27a1.09 1.09 0 01-.44.9 3.29 3.29 0 01-1.61.24 5.5 5.5 0 01-1.55-.13c-.24-.08-.39-.24-.39-.71v-.28h-1.42v.32c0 .07 0 .08-.09.08h-.61c-.07 0-.08 0-.08-.08v-2.68c0-.05 0-.09.08-.09h1.16zm-2.61-1.41h.43c.08 0 .09 0 .09.07v.31h-1.32c-.08 0-.09 0-.09-.06v-.31s0-.06.09-.06h.8zm0 .68h.43c.08 0 .09 0 .09.07v.3c0 .06 0 .06-.09.06h-1.23c-.08 0-.09 0-.09-.06v-.31s0-.06.09-.06h.8zm.88 1.67v-.39h-1.42v.36zm0 .93v-.4h-1.42v.4zm.75-1.32v.36h1.5v-.39zm1.5.92H501v.4h1.5zm-.17-2.9h.45c.08 0 .09 0 .09.07v.3c0 .06 0 .07-.09.07a4 4 0 00-.45 0h-.81c-.05 0-.08 0-.08-.08v-.3c0-.06 0-.06.08-.06h.84zm0 .68h.45c.08 0 .09 0 .09.07v.3s0 .06-.09.06h-1.29c-.07 0-.08 0-.08-.06v-.31c0-.06 0-.06.08-.06h.84zm5.25 1.16h-1c-.08 0-.08 0-.08-.09v-.63c0-.08 0-.08.08-.08h3c0-.35 0-.63-.06-1l.46.05a7.86 7.86 0 001.31-1.06h-3.87c-.06 0-.09 0-.09-.09v-.61c0-.07 0-.08.09-.08h4.34a.35.35 0 00.13 0h.1s.11 0 .34.25.29.31.29.4 0 .12-.13.17a1.25 1.25 0 00-.34.27 9.13 9.13 0 01-1.72 1.36v.33h2.9c.08 0 .08 0 .08.08v.63c0 .08 0 .09-.08.09h-2.92v2.1a.86.86 0 01-.33.81c-.22.17-.56.21-1.4.21-.24 0-.24 0-.29-.24a2.6 2.6 0 00-.29-.65 9.62 9.62 0 001.08.05c.24 0 .36-.11.36-.38v-1.9zm9.18 1.5h-1c-.08 0-.09 0-.09-.08v-.51c0-.08 0-.09.09-.09h3v-.48h-2.4c-.07 0-.08 0-.08-.08v-.48c0-.09 0-.09.08-.09h2.4v-.45h-2.08c-.08 0-.09 0-.09-.09v-2.68c0-.05 0-.09.09-.09h5.02c.08 0 .09 0 .09.09v2.68c0 .05 0 .09-.09.09h-2.17v.45h2.54c.08 0 .08 0 .08.09v.48c0 .07 0 .08-.08.08h-2.54v.48h3c.08 0 .08 0 .08.09v.51c0 .07 0 .08-.08.08h-1zm.53.34c.08 0 .09.05.05.13a4.14 4.14 0 01-.88 1.18h-.18l-.47-.35s-.07-.06-.07-.08v-.06a3.63 3.63 0 00.86-1c0-.08.06-.07.17 0zm1.46-4.24v-.51h-1.4v.51zm0 1.11v-.53h-1.4v.53zm-.57 4.4c-.12 0-.13 0-.14-.08a7.17 7.17 0 00-.14-1.1c0-.09 0-.1.11-.12h.48c.1 0 .11 0 .13.08a5.37 5.37 0 01.18 1.1c0 .09 0 .11-.11.12zm1.84-1.38h.16a5.34 5.34 0 01.38 1.06c0 .08 0 .1-.1.12l-.51.11c-.12 0-.14 0-.15-.06a6.66 6.66 0 00-.35-1.09c0-.08 0-.1.09-.11zm-.51-4.64v.51H521v-.51zm1.48 1.09h-1.48v.53H521zm.5 3.43h.17a5.15 5.15 0 01.84 1.07c.05.07.05.09 0 .15l-.49.27c-.1.05-.11.05-.15 0a6.14 6.14 0 00-.81-1.16c-.06-.07 0-.09.05-.13zm4.67 1.6c-.07 0-.08 0-.08-.09v-3.41a6.36 6.36 0 01-.8 1.73c-.05.07-.09.11-.12.11s-.06-.05-.09-.13a2.44 2.44 0 00-.26-.58 6.71 6.71 0 001.2-2.44h-.93c-.09 0-.09 0-.09-.09v-.55c0-.07 0-.08.09-.08h.98v-.52a6.18 6.18 0 00-.06-1.05 6.17 6.17 0 01.77.06c.08 0 .12 0 .12.07a.42.42 0 010 .16 2.11 2.11 0 00-.06.75v.53h.76c.04 0 .09 0 .09.08v.55c0 .08 0 .09-.09.09h-.72a4.78 4.78 0 00.93 1.55 1.93 1.93 0 00-.29.47c0 .08-.07.12-.1.12s-.06 0-.1-.11a5 5 0 01-.5-1c0 2 .06 3.57.06 3.7s0 .09-.09.09zm4.74-4.92a.3.3 0 00.16 0 .15.15 0 01.11 0c.06 0 .13 0 .32.22s.21.22.21.28a.23.23 0 01-.07.15c-.06.06-.07.11-.11.26a7.24 7.24 0 01-.9 2.2 4.38 4.38 0 001.49 1.06 2.36 2.36 0 00-.34.55c-.06.13-.08.18-.13.18a.28.28 0 01-.17-.08 6 6 0 01-1.31-1.11 7.07 7.07 0 01-1.31 1.13.55.55 0 01-.17.08c-.05 0-.08-.05-.14-.16a1.66 1.66 0 00-.39-.47 5.94 5.94 0 001.55-1.2 6.5 6.5 0 01-.86-2.31h-.06a16 16 0 01-.19 2 5.73 5.73 0 01-.79 2c-.06.09-.1.15-.14.15s-.1-.05-.17-.14a1.89 1.89 0 00-.42-.39 4.11 4.11 0 00.77-1.84A12.9 12.9 0 00528 158v-1.94c0-.05 0-.09.09-.09h3.81s.08 0 .08.09v.59c0 .08 0 .09-.08.09h-3.1v1.1zm-1.41.72a6.85 6.85 0 00.65 1.68 5.16 5.16 0 00.61-1.68z"/><path class="cls-16" d="M575.56 99.7l-19.45-19.45-18.2 36.64 37.65-17.19z"/><path class="cls-3" d="M381.47 254.14l19.45 19.45 18.2-36.64-37.65 17.19z"/><path class="cls-6" d="M381.47 99.7l19.45-19.45 18.2 36.64-37.65-17.19z"/><path class="cls-18" d="M381.47 99.7l19.45-19.45 18.2 36.64-37.65-17.19z"/><text class="cls-19" transform="rotate(-67.38 264.285 -185.568)">や</text><text class="cls-19" transform="rotate(-61.3 265.862 -229.593)">さ</text><text class="cls-19" transform="rotate(-56 267.76 -277.501)">し</text><text class="cls-19" transform="rotate(-50.2 270.342 -337.814)">い</text><text class="cls-19" transform="rotate(-44.18 275.161 -416.424)">操</text><text class="cls-19" transform="matrix(.78 -.62 .62 .78 379.85 62.54)">作</text><text class="cls-19" transform="rotate(-32.9 287.212 -642.215)">性</text><path class="cls-5" d="M575.56 254.14l-19.45 19.45-18.2-36.64 37.65 17.19z"/><text class="cls-19" transform="rotate(-19.65 1236.693 -1346.375)">多</text><text class="cls-19" transform="rotate(-25.88 991.981 -1012.043)">様</text><text class="cls-19" transform="rotate(-32.06 841.941 -807.295)">化</text><text class="cls-19" transform="rotate(-38.22 739.599 -667.79)">す</text><text class="cls-19" transform="rotate(-44.36 664.955 -566.178)">る</text><text class="cls-19" transform="matrix(.64 -.76 .76 .64 600.3 288.21)">I</text><text class="cls-19" transform="rotate(-53 585.78 -462.26)">T</text><text class="cls-19" transform="rotate(-59.42 544.357 -401.86)">に</text><text class="cls-19" transform="rotate(-65.63 509.706 -354.41)">対</text><text class="cls-19" transform="rotate(-71.87 480.328 -314.102)">応</text><path class="cls-17" d="M575.56 254.14l-19.45 19.45-18.2-36.64 37.65 17.19z"/><path class="cls-22" d="M239.46 165.69v42.11l25.35-21.06-25.35-21.05z"/><path class="cls-22" transform="rotate(90 202.635 186.745)" d="M192.32 144.07h20.63v85.35h-20.63z"/><path d="M111.77 194.62l-1.55-3.92a10.59 10.59 0 00-9.78-14.7 10.56 10.56 0 00-8 3.6c-3.5 3.41-6.31 1.44-7.37.42a10.58 10.58 0 00-16.41-.35c-3.72 3.56-6.66 1-7.5.13l-.24-.27a10.6 10.6 0 00-15.78 0c-3.8 3.78-6.8 1.2-7.65.29-.08-.1-.17-.19-.25-.28a10.6 10.6 0 00-18.49 7.08 10.43 10.43 0 001 4.6l-1.24 3.55a.78.78 0 00.15.77.8.8 0 00.58.26h.16l3.48-.73a10.61 10.61 0 0014.31-1.36c4.18-3.92 7.41-.57 7.85-.06a10.6 10.6 0 0015.78 0c4.51-4.22 7.91 0 7.91 0v-.07a10.6 10.6 0 0015.8 0v.05c3.78-3.55 6.79-1.13 7.65-.27a10.62 10.62 0 0014.78 1.45l3.8.79h.16a.76.76 0 00.59-.28.75.75 0 00.13-.78" fill="#f29600"/><path d="M63.39 179.34a1.54 1.54 0 001.48.79 2.31 2.31 0 001.75-.79 3.75 3.75 0 00.33-1.21 19.61 19.61 0 00-.42-6.25s-.11-1.91 3-2.24c5.07-.53 9-.59 6.9-4.28a5.81 5.81 0 00-4-2.81 4.71 4.71 0 00-4 1.14c-2 1.65-3.54 4.53-3.49 6.67 0 0 0-4.77-3.7-6.22-3.26-1.28-6.45.82-6.8 3-.24 1.58 2 1.91 3.28 2.19s5.39 0 6.54 2.42a7.53 7.53 0 010 6.46z" fill="#9cc715"/><path class="cls-2" d="M75.59 192.6a.39.39 0 01-.39-.4v-5.46a.66.66 0 00-.66-.65h-2.65a.39.39 0 01-.39-.39v-1.29a.39.39 0 01.39-.4h2.65a.67.67 0 00.66-.66v-1.43a.4.4 0 01.39-.39h1.29a.4.4 0 01.4.39v1.43a.66.66 0 00.65.66h2.61a.39.39 0 01.39.4v1.29a.39.39 0 01-.39.39h-2.61a.66.66 0 00-.66.65v5.46a.39.39 0 01-.39.4z"/><rect class="cls-2" x="78.79" y="180.78" width="1.44" height="1.81" rx=".39"/><rect class="cls-2" x="81.06" y="180.78" width="1.44" height="1.81" rx=".39"/><path class="cls-2" d="M72.42 191.22h-.07l-1.27-.22a.39.39 0 01-.31-.46l.42-2.2a.4.4 0 01.39-.32h.07l1.27.24a.42.42 0 01.25.16.4.4 0 01.06.3l-.42 2.2a.4.4 0 01-.39.32m7.67-.02a.4.4 0 01-.39-.32l-.42-2.2a.4.4 0 01.06-.3.42.42 0 01.25-.16l1.27-.24h.07a.4.4 0 01.39.32l.42 2.2a.39.39 0 01-.06.3.38.38 0 01-.25.16l-1.27.25h-.07m-55.09 0a.39.39 0 01-.39-.39v-1.29a.39.39 0 01.39-.4h5.7a.66.66 0 00.66-.65v-3.57a.66.66 0 00-.66-.66H25a.39.39 0 01-.39-.39v-1.29a.39.39 0 01.39-.4h8a.39.39 0 01.39.4v8.25a.39.39 0 01-.39.39zm71.31-8.33h3.54a.39.39 0 01.39.39v1.29a.39.39 0 01-.39.39h-3.54a.39.39 0 01-.39-.39v-1.28a.4.4 0 01.39-.4zm.74 8.73a.39.39 0 01-.39-.4v-1.29a.39.39 0 01.39-.39h3.6a1.15 1.15 0 00.9-.52l2.81-4.59a.39.39 0 01.34-.19.46.46 0 01.2.05l1.12.64a.43.43 0 01.18.24.39.39 0 010 .3l-3.51 5.76a.89.89 0 01-.68.39z"/><rect class="cls-2" x="48.7" y="181.75" width="8.33" height="2.08" rx=".39"/><path class="cls-2" d="M50.79 192a.4.4 0 01-.4-.39v-1.29a.4.4 0 01.4-.4h2.43a1.15 1.15 0 00.9-.52l.64-1.1a.44.44 0 000-.45.45.45 0 00-.41-.2h-6a.4.4 0 01-.39-.39V186a.4.4 0 01.39-.4h8.75a1.32 1.32 0 01.8.34l.11.1a.58.58 0 01.08.66l-2.89 4.94a.89.89 0 01-.68.39z"/><path class="cls-1" d="M18.54 162.48h93.28v34.73H18.54z"/></g></g></g></svg>