<svg xmlns="http://www.w3.org/2000/svg" viewBox="0 0 69.77 72.66"><defs><clipPath id="clip-path"><circle cx="34.88" cy="34.88" r="34.88" fill="none"/></clipPath><style>.cls-14,.cls-5{fill:none}.cls-5{stroke:#fff;stroke-linecap:round;stroke-linejoin:round;stroke-width:4px}.cls-6{fill:#544236}.cls-8{fill:#ffdcc0}.cls-13{fill:#fff}.cls-12{fill:#e4f7f9;opacity:.55}.cls-13{opacity:.8}.cls-14{stroke:#8c6239;stroke-miterlimit:10;stroke-width:.57px}</style></defs><g style="isolation:isolate"><g id="レイヤー_2" data-name="レイヤー 2"><g clip-path="url(#clip-path)" id="レイヤー_1-2" data-name="レイヤー 1"><circle cx="34.88" cy="34.88" r="34.88" fill="#ffe650"/><path class="cls-5" d="M43.05 32s4.52-.21 6.12 5.63.5 11.2-.65 16.13A10.38 10.38 0 0049.78 62s-4.15-.18-6-6.06-1.74-11-1.74-15.34a42.92 42.92 0 011.01-8.6zM31.72 43.3h7.02v12.03h-7.02z"/><path class="cls-5" d="M35.67 46.52h-.92c-4 0-11.64-5.21-11.64-11.63V17.13H47.3v17.76c0 6.42-7.56 11.63-11.63 11.63z"/><path class="cls-5" d="M35.21 46.52h-.46c-4 0-11.64-5.21-11.64-11.63V17.13h12.1"/><path class="cls-5" d="M50.91 24.06C50.14 15 45.25 7.27 35 7.27S19.81 15 19.05 24.06c-.29 3.39-.05 18.48 8.59 19.24-5.64-5.1-3.87-11.95-3.87-21.64 2.9 5.42 20.09 7.56 23.3 6.41V32c2.36 0 4.32-2.3 3.84-7.94zM31.45 53.68a6.39 6.39 0 007.62 0v17h-7.62z"/><path class="cls-5" d="M18 70.66h15.19l.07-9.81C32.37 58.13 32 54 31.74 49.23c0 0-11 0-12.55 5.57S18 70.66 18 70.66zm34.44 0H37.29l-.07-9.81c.89-2.72 1.29-6.9 1.52-11.62 0 0 11 0 12.55 5.57s1.15 15.86 1.15 15.86zm-5.5-40.5s1.53-2.09 3.2-1.07c1.83 1.12.65 6.78-3.2 6.78zM31 28.18l-4.77 5.93a4.33 4.33 0 002.92 1.09 3.94 3.94 0 004.13-3.71A3.69 3.69 0 0031 28.18zm-6 3.31a3.53 3.53 0 00.21 1.12l3.89-4.83a3.93 3.93 0 00-4.1 3.71z"/><path class="cls-5" d="M29.16 27.77l-3.89 4.83a3.61 3.61 0 001 1.5L31 28.18a4.52 4.52 0 00-1.84-.41zm14.04.41l-4.77 5.93a4.33 4.33 0 002.92 1.09 3.94 3.94 0 004.13-3.71 3.69 3.69 0 00-2.28-3.31zm-5.98 3.31a3.53 3.53 0 00.21 1.12l3.89-4.83a3.93 3.93 0 00-4.1 3.71z"/><path class="cls-5" d="M41.35 27.77l-3.89 4.83a3.71 3.71 0 001 1.5l4.77-5.93a4.52 4.52 0 00-1.88-.4zm-8.06 3.72c0-.73 3.93-.73 3.93 0"/><ellipse class="cls-5" cx="29.16" cy="31.49" rx="4.13" ry="3.72"/><ellipse class="cls-5" cx="41.35" cy="31.49" rx="4.13" ry="3.72"/><path class="cls-6" d="M43.05 32s4.52-.21 6.12 5.63.5 11.2-.65 16.13A10.38 10.38 0 0049.78 62s-4.15-.18-6-6.06-1.74-11-1.74-15.34a42.92 42.92 0 011.01-8.6z"/><path fill="#f4d0b8" d="M31.72 43.3h7.02v12.03h-7.02z"/><path class="cls-8" d="M35.67 46.52h-.92c-4 0-11.64-5.21-11.64-11.63V17.13H47.3v17.76c0 6.42-7.56 11.63-11.63 11.63z"/><path d="M35.21 46.52h-.46c-4 0-11.64-5.21-11.64-11.63V17.13h12.1" style="mix-blend-mode:multiply" opacity=".2" fill="#ffdcc0"/><path class="cls-6" d="M50.91 24.06C50.14 15 45.25 7.27 35 7.27S19.81 15 19.05 24.06c-.29 3.39-.05 18.48 8.59 19.24-5.64-5.1-3.87-11.95-3.87-21.64 2.9 5.42 20.09 7.56 23.3 6.41V32c2.36 0 4.32-2.3 3.84-7.94z"/><path d="M31.45 53.68a6.39 6.39 0 007.62 0v17h-7.62z" fill="#fff"/><path d="M18 70.66h15.19l.07-9.81C32.37 58.13 32 54 31.74 49.23c0 0-11 0-12.55 5.57S18 70.66 18 70.66zm34.44 0H37.29l-.07-9.81c.89-2.72 1.29-6.9 1.52-11.62 0 0 11 0 12.55 5.57s1.15 15.86 1.15 15.86z" fill="#17a593"/><path class="cls-8" d="M46.94 30.16s1.53-2.09 3.2-1.07c1.83 1.12.65 6.78-3.2 6.78z"/><path class="cls-12" d="M31 28.18l-4.77 5.93a4.33 4.33 0 002.92 1.09 3.94 3.94 0 004.13-3.71A3.69 3.69 0 0031 28.18zm-6 3.31a3.53 3.53 0 00.21 1.12l3.89-4.83a3.93 3.93 0 00-4.1 3.71z"/><path class="cls-13" d="M29.16 27.77l-3.89 4.83a3.61 3.61 0 001 1.5L31 28.18a4.52 4.52 0 00-1.84-.41z"/><path class="cls-12" d="M43.2 28.18l-4.77 5.93a4.33 4.33 0 002.92 1.09 3.94 3.94 0 004.13-3.71 3.69 3.69 0 00-2.28-3.31zm-5.98 3.31a3.53 3.53 0 00.21 1.12l3.89-4.83a3.93 3.93 0 00-4.1 3.71z"/><path class="cls-13" d="M41.35 27.77l-3.89 4.83a3.71 3.71 0 001 1.5l4.77-5.93a4.52 4.52 0 00-1.88-.4z"/><path class="cls-14" d="M33.29 31.49c0-.73 3.93-.73 3.93 0"/><ellipse class="cls-14" cx="29.16" cy="31.49" rx="4.13" ry="3.72"/><ellipse class="cls-14" cx="41.35" cy="31.49" rx="4.13" ry="3.72"/></g></g></g></svg>