<svg xmlns="http://www.w3.org/2000/svg" viewBox="0 0 69.77 73.23"><defs><clipPath id="clip-path"><circle cx="34.88" cy="34.88" r="34.88" fill="none"/></clipPath><style>.cls-5{fill:none}.cls-4{fill:#00c8ac}.cls-5{stroke:#fff;stroke-linecap:round;stroke-linejoin:round;stroke-width:4px}.cls-11{fill:#cdd1d3}</style></defs><g style="isolation:isolate"><g id="レイヤー_2" data-name="レイヤー 2"><g clip-path="url(#clip-path)" id="レイヤー_1-2" data-name="レイヤー 1"><circle class="cls-4" cx="34.88" cy="34.88" r="34.88"/><path class="cls-5" d="M21.9 26.65h26.39s7.78 30.62-11.61 30.62S20.23 40.28 21.9 26.65z"/><path class="cls-5" d="M31.75 43.87h7.02v8.53h-7.02z"/><path class="cls-5" d="M35.7 47.09h-.92c-4 0-11.63-5.21-11.63-11.63V17.7h24.18v17.76c0 6.42-7.56 11.63-11.63 11.63z"/><path class="cls-5" d="M35.24 47.09h-.46c-4 0-11.63-5.21-11.63-11.63V17.7h12.09"/><path class="cls-5" d="M51.17 24.63c-.77-9-5.66-16.79-15.93-16.79s-15.16 7.77-15.93 16.79-2.4 12.58-2.4 17.57C17.2 58.8 33.8 57.27 33.8 57.27c-15.64-4.42-11.06-23.39-10.65-28.94.48-6.45 2-8.89 2-8.89 4.71 5.73 14.31 8.94 22.17 8.94 0 8.54 5 24.47-10.65 28.89 0 0 16.6 1.53 16.89-15.07.01-4.99-1.62-8.54-2.39-17.57z"/><path class="cls-5" d="M31.24 51a7 7 0 008.38 0c-2 6.69-4.35 17.28-4.35 17.28z"/><path class="cls-5" d="M18.07 71.23h17.36v-6.68L31.77 49.8s-11 0-12.55 5.57-1.15 15.86-1.15 15.86z"/><path class="cls-5" d="M52.51 71.23H35.15v-6.68l3.66-14.75s11 0 12.55 5.57 1.15 15.86 1.15 15.86z"/><path d="M21.9 26.65h26.39s7.78 30.62-11.61 30.62S20.23 40.28 21.9 26.65z" fill="#372920"/><path fill="#f4d0b8" d="M31.75 43.87h7.02v8.53h-7.02z"/><path d="M35.7 47.09h-.92c-4 0-11.63-5.21-11.63-11.63V17.7h24.18v17.76c0 6.42-7.56 11.63-11.63 11.63z" fill="#ffdcc0"/><path d="M35.24 47.09h-.46c-4 0-11.63-5.21-11.63-11.63V17.7h12.09" style="mix-blend-mode:multiply" opacity=".2" fill="#ffdcc0"/><path d="M51.17 24.63c-.77-9-5.66-16.79-15.93-16.79s-15.16 7.77-15.93 16.79-2.4 12.58-2.4 17.57C17.2 58.8 33.8 57.27 33.8 57.27c-15.64-4.42-11.06-23.39-10.65-28.94.48-6.45 2-8.89 2-8.89 4.71 5.73 14.31 8.94 22.17 8.94 0 8.54 5 24.47-10.65 28.89 0 0 16.6 1.53 16.89-15.07.01-4.99-1.62-8.54-2.39-17.57z" fill="#544236"/><path class="cls-4" d="M31.24 51a7 7 0 008.38 0c-2 6.69-4.35 17.28-4.35 17.28z"/><path class="cls-11" d="M18.07 71.23h17.36v-6.68L31.77 49.8s-11 0-12.55 5.57-1.15 15.86-1.15 15.86z"/><path class="cls-11" d="M52.51 71.23H35.15v-6.68l3.66-14.75s11 0 12.55 5.57 1.15 15.86 1.15 15.86z"/></g></g></g></svg>