<svg xmlns="http://www.w3.org/2000/svg" viewBox="0 0 69.77 71.85"><defs><clipPath id="clip-path"><circle cx="34.88" cy="34.88" r="34.88" fill="none"/></clipPath><style>.cls-5{fill:none;stroke:#fff;stroke-linecap:round;stroke-linejoin:round;stroke-width:4px}.cls-6{fill:#544236}.cls-8,.cls-9{fill:#ffdcc0}.cls-9{opacity:.2;mix-blend-mode:multiply}</style></defs><g style="isolation:isolate"><g id="レイヤー_2" data-name="レイヤー 2"><g clip-path="url(#clip-path)" id="レイヤー_1-2" data-name="レイヤー 1"><circle cx="34.88" cy="34.88" r="34.88" fill="#00c8ac"/><path class="cls-5" d="M34.85 7.46c-11.19 0-14.68 8.77-15.34 17.8a38.81 38.81 0 00.08 5.19h15.26zm0 0c11.19 0 14.68 8.77 15.35 17.8a38 38 0 01-.09 5.19H34.85zm-4.5 35.03h9.07v12.03h-9.07z"/><path class="cls-5" d="M35.31 45.72h-.92c-4 0-11.63-5.21-11.63-11.64l.07-14.93H47l-.07 14.93c.01 6.43-7.54 11.64-11.62 11.64z"/><path class="cls-5" d="M34.85 45.72h-.46c-4 0-11.63-5.21-11.63-11.64V19.15h12.09M53.94 54c-1.52-5.56-14.52-5.56-14.52-5.56 0 .85-.09 1.69-.14 2.5a3.39 3.39 0 01-3.17 3.19h-2.18a3.4 3.4 0 01-3.43-3.19c-.06-.82-.11-1.65-.15-2.5 0 0-13 0-14.52 5.56s-1.15 15.86-1.15 15.86h40.41s.36-10.3-1.15-15.86z"/><path class="cls-5" d="M22.89 29.36s-1.53-2.09-3.2-1.07c-1.83 1.11-.66 6.77 3.2 6.77zm23.69 0s1.53-2.09 3.2-1.07c1.83 1.11.66 6.77-3.2 6.77z"/><path class="cls-5" d="M22.89 29.36s-1.53-2.09-3.2-1.07c-1.83 1.11-.66 6.77 3.2 6.77zm-1.14-2s14.81.32 21-6.21c0 0 3.1 3.75 3.82 11.76a25.09 25.09 0 001.15-16.77h-26z"/><path class="cls-5" d="M42.75 21.15s3.1 3.75 3.82 11.76a25 25 0 001.15-16.77h-5m-16.13 5.01s-3.09 3.75-3.81 11.76a25.09 25.09 0 01-1.16-16.77h5"/><path class="cls-6" d="M34.85 7.46c-11.19 0-14.68 8.77-15.34 17.8a38.81 38.81 0 00.08 5.19h15.26zm0 0c11.19 0 14.68 8.77 15.35 17.8a38 38 0 01-.09 5.19H34.85z"/><path fill="#f4d0b8" d="M30.35 42.49h9.07v12.03h-9.07z"/><path class="cls-8" d="M35.31 45.72h-.92c-4 0-11.63-5.21-11.63-11.64l.07-14.93H47l-.07 14.93c.01 6.43-7.54 11.64-11.62 11.64z"/><path class="cls-9" d="M34.85 45.72h-.46c-4 0-11.63-5.21-11.63-11.64V19.15h12.09"/><path d="M53.94 54c-1.52-5.56-14.52-5.56-14.52-5.56 0 .85-.09 1.69-.14 2.5a3.39 3.39 0 01-3.17 3.19h-2.18a3.4 3.4 0 01-3.43-3.19c-.06-.82-.11-1.65-.15-2.5 0 0-13 0-14.52 5.56s-1.15 15.86-1.15 15.86h40.41s.36-10.3-1.15-15.86z" fill="#17a593"/><path class="cls-8" d="M22.89 29.36s-1.53-2.09-3.2-1.07c-1.83 1.11-.66 6.77 3.2 6.77zm23.69 0s1.53-2.09 3.2-1.07c1.83 1.11.66 6.77-3.2 6.77z"/><path class="cls-9" d="M22.89 29.36s-1.53-2.09-3.2-1.07c-1.83 1.11-.66 6.77 3.2 6.77z"/><path class="cls-6" d="M21.75 27.36s14.81.32 21-6.21c0 0 3.1 3.75 3.82 11.76a25.09 25.09 0 001.15-16.77h-26z"/><path class="cls-6" d="M42.75 21.15s3.1 3.75 3.82 11.76a25 25 0 001.15-16.77h-5m-16.13 5.01s-3.09 3.75-3.81 11.76a25.09 25.09 0 01-1.16-16.77h5"/></g></g></g></svg>