<svg xmlns="http://www.w3.org/2000/svg" viewBox="0 0 69.77 71.77"><defs><clipPath id="clip-path"><circle cx="34.88" cy="34.88" r="34.88" fill="none"/></clipPath><style>.cls-5{fill:none;stroke:#fff;stroke-linecap:round;stroke-linejoin:round;stroke-width:4px}.cls-8,.cls-9{fill:#ffdcc0}.cls-9{opacity:.2;mix-blend-mode:multiply}</style></defs><g style="isolation:isolate"><g id="レイヤー_2" data-name="レイヤー 2"><g clip-path="url(#clip-path)" id="レイヤー_1-2" data-name="レイヤー 1"><circle cx="34.88" cy="34.88" r="34.88" fill="#ffe650"/><path class="cls-5" d="M21.9 25.19h26.39S56.07 55.8 36.68 55.8 20.23 38.81 21.9 25.19z"/><path class="cls-5" d="M31.75 42.4h7.02v12.03h-7.02z"/><path class="cls-5" d="M35.7 45.63h-.92c-4 0-11.63-5.21-11.63-11.63V16.23h24.18V34c0 6.42-7.56 11.63-11.63 11.63z"/><path class="cls-5" d="M35.24 45.63h-.46c-4 0-11.63-5.21-11.63-11.63V16.23h12.09"/><path class="cls-5" d="M51.17 23.17c-.77-9-5.66-16.79-15.93-16.79s-15.16 7.77-15.93 16.79-2.4 12.57-2.4 17.56C17.2 57.34 33.8 55.8 33.8 55.8c-15.64-4.41-11.06-24.56-10.65-30.1 0 2.8 24.18 2.84 24.18 0 0 8.55 5 25.65-10.65 30.06 0 0 16.6 1.54 16.89-15.07 0-4.95-1.63-8.5-2.4-17.52z"/><path class="cls-5" d="M31.48 52.79a6.39 6.39 0 007.62 0v17h-7.62z"/><path class="cls-5" d="M18.07 69.77h15.15l.07-9.77c-.88-2.72-1.29-6.91-1.52-11.62 0 0-11 0-12.55 5.57s-1.15 15.82-1.15 15.82zm34.4 0H37.32L37.25 60c.89-2.72 1.29-6.91 1.53-11.62 0 0 11 0 12.54 5.57s1.15 15.82 1.15 15.82zm-29.19-40.5s-1.53-2.09-3.2-1.07c-1.83 1.12-.66 6.78 3.2 6.78zm23.72 0s1.53-2.09 3.2-1.07c1.8 1.12.63 6.8-3.2 6.8z"/><path class="cls-5" d="M23.28 29.27s-1.53-2.09-3.2-1.07c-1.83 1.12-.66 6.78 3.2 6.78z"/><path d="M21.9 25.19h26.39S56.07 55.8 36.68 55.8 20.23 38.81 21.9 25.19z" fill="#372920"/><path fill="#f4d0b8" d="M31.75 42.4h7.02v12.03h-7.02z"/><path class="cls-8" d="M35.7 45.63h-.92c-4 0-11.63-5.21-11.63-11.63V16.23h24.18V34c0 6.42-7.56 11.63-11.63 11.63z"/><path class="cls-9" d="M35.24 45.63h-.46c-4 0-11.63-5.21-11.63-11.63V16.23h12.09"/><path d="M51.17 23.17c-.77-9-5.66-16.79-15.93-16.79s-15.16 7.77-15.93 16.79-2.4 12.57-2.4 17.56C17.2 57.34 33.8 55.8 33.8 55.8c-15.64-4.41-11.06-24.56-10.65-30.1 0 2.8 24.18 2.84 24.18 0 0 8.55 5 25.65-10.65 30.06 0 0 16.6 1.54 16.89-15.07 0-4.95-1.63-8.5-2.4-17.52z" fill="#544236"/><path d="M31.48 52.79a6.39 6.39 0 007.62 0v17h-7.62z" fill="#fff"/><path d="M18.07 69.77h15.15l.07-9.77c-.88-2.72-1.29-6.91-1.52-11.62 0 0-11 0-12.55 5.57s-1.15 15.82-1.15 15.82zm34.4 0H37.32L37.25 60c.89-2.72 1.29-6.91 1.53-11.62 0 0 11 0 12.54 5.57s1.15 15.82 1.15 15.82z" fill="#95e4d4"/><path class="cls-8" d="M23.28 29.27s-1.53-2.09-3.2-1.07c-1.83 1.12-.66 6.78 3.2 6.78zm23.72 0s1.53-2.09 3.2-1.07c1.8 1.12.63 6.8-3.2 6.8z"/><path class="cls-9" d="M23.28 29.27s-1.53-2.09-3.2-1.07c-1.83 1.12-.66 6.78 3.2 6.78z"/></g></g></g></svg>