<svg xmlns="http://www.w3.org/2000/svg" viewBox="0 0 69.77 72.59"><defs><clipPath id="clip-path"><circle cx="34.88" cy="34.88" r="34.88" fill="none"/></clipPath><style>.cls-13,.cls-5{fill:none}.cls-5{stroke:#fff;stroke-linecap:round;stroke-linejoin:round;stroke-width:4px}.cls-6{fill:#544236}.cls-8,.cls-9{fill:#ffdcc0}.cls-9{opacity:.2;mix-blend-mode:multiply}.cls-11{fill:#e4f7f9;opacity:.55}.cls-12{fill:#fff;opacity:.8}.cls-13{stroke:#4a575e;stroke-miterlimit:10;stroke-width:.57px}</style></defs><g style="isolation:isolate"><g id="レイヤー_2" data-name="レイヤー 2"><g clip-path="url(#clip-path)" id="レイヤー_1-2" data-name="レイヤー 1"><circle cx="34.88" cy="34.88" r="34.88" fill="#ffe650"/><path class="cls-5" d="M35.21 7.2C24 7.2 19.86 13.71 19.86 26c0 2.32.09 5.19.09 5.19h15.26zm0 0c11.19 0 15.34 6.51 15.34 18.8 0 2.32-.08 5.19-.08 5.19H35.21zm-4.5 36.03h9.07v12.03h-9.07z"/><path class="cls-5" d="M35.67 46.45h-.92c-4 0-11.64-5.2-11.64-11.63l.07-14.93h24.19l-.07 14.93c0 6.43-7.56 11.63-11.63 11.63z"/><path class="cls-5" d="M35.21 46.45h-.46c-4 0-11.64-5.2-11.64-11.63V19.89h12.1m19.08 34.84c-1.51-5.57-14.51-5.57-14.51-5.57 0 .86-.09 1.7-.15 2.51a3.37 3.37 0 01-3.17 3.19h-2.17a3.41 3.41 0 01-3.44-3.2c-.05-.81-.1-1.64-.14-2.5 0 0-13 0-14.52 5.57S15 70.59 15 70.59h40.4s.41-10.29-1.11-15.86z"/><path class="cls-5" d="M23.25 30.1s-1.53-2.1-3.2-1.1c-1.84 1.12-.66 6.78 3.2 6.78zm23.69 0s1.53-2.1 3.2-1.1c1.83 1.12.65 6.78-3.2 6.78z"/><path class="cls-5" d="M23.25 30.1s-1.53-2.1-3.2-1.1c-1.84 1.12-.66 6.78 3.2 6.78zm20.86-8.21s2.1 3.75 2.82 11.76a25.09 25.09 0 001.15-16.77h-4"/><path class="cls-5" d="M25 21.89a68.56 68.56 0 00-1.82 11.76A25.09 25.09 0 0122 16.88h3"/><path class="cls-5" d="M44.88 20.9c0 4.41-20.27 4.41-20.27 0v-4h20.27zM31 27.28l-4.77 6.25a4.23 4.23 0 002.92 1.15 4 4 0 004.13-3.91A3.9 3.9 0 0031 27.28zm-5.94 3.49a3.63 3.63 0 00.22 1.23l3.88-5.09a4 4 0 00-4.1 3.86z"/><path class="cls-5" d="M29.19 26.85L25.28 32a3.85 3.85 0 001 1.58l4.72-6.3a4.34 4.34 0 00-1.81-.43zm14.05.43l-4.78 6.25a4.24 4.24 0 002.93 1.15 4 4 0 004.13-3.91 3.91 3.91 0 00-2.28-3.49zm-5.99 3.49a3.63 3.63 0 00.22 1.23l3.88-5.09a4 4 0 00-4.1 3.86z"/><path class="cls-5" d="M41.39 26.85L37.47 32a3.85 3.85 0 001 1.58l4.78-6.25a4.41 4.41 0 00-1.86-.48zm-8.07 3.92c0-.52 3.94-.52 3.93 0"/><ellipse class="cls-5" cx="29.19" cy="30.77" rx="4.13" ry="3.91"/><ellipse class="cls-5" cx="41.39" cy="30.77" rx="4.13" ry="3.91"/><path class="cls-6" d="M35.21 7.2C24 7.2 19.86 13.71 19.86 26c0 2.32.09 5.19.09 5.19h15.26zm0 0c11.19 0 15.34 6.51 15.34 18.8 0 2.32-.08 5.19-.08 5.19H35.21z"/><path fill="#f4d0b8" d="M30.71 43.23h9.07v12.03h-9.07z"/><path class="cls-8" d="M35.67 46.45h-.92c-4 0-11.64-5.2-11.64-11.63l.07-14.93h24.19l-.07 14.93c0 6.43-7.56 11.63-11.63 11.63z"/><path class="cls-9" d="M35.21 46.45h-.46c-4 0-11.64-5.2-11.64-11.63V19.89h12.1"/><path d="M54.29 54.73c-1.51-5.57-14.51-5.57-14.51-5.57 0 .86-.09 1.7-.15 2.51a3.37 3.37 0 01-3.17 3.19h-2.17a3.41 3.41 0 01-3.44-3.2c-.05-.81-.1-1.64-.14-2.5 0 0-13 0-14.52 5.57S15 70.59 15 70.59h40.4s.41-10.29-1.11-15.86z" fill="#7c868b"/><path class="cls-8" d="M23.25 30.1s-1.53-2.1-3.2-1.1c-1.84 1.12-.66 6.78 3.2 6.78zm23.69 0s1.53-2.1 3.2-1.1c1.83 1.12.65 6.78-3.2 6.78z"/><path class="cls-9" d="M23.25 30.1s-1.53-2.1-3.2-1.1c-1.84 1.12-.66 6.78 3.2 6.78z"/><path class="cls-6" d="M44.11 21.89s2.1 3.75 2.82 11.76a25.09 25.09 0 001.15-16.77h-4M25 21.89a68.56 68.56 0 00-1.82 11.76A25.09 25.09 0 0122 16.88h3"/><path class="cls-6" d="M44.88 20.9c0 4.41-20.27 4.41-20.27 0v-4h20.27z"/><path class="cls-11" d="M31 27.28l-4.77 6.25a4.23 4.23 0 002.92 1.15 4 4 0 004.13-3.91A3.9 3.9 0 0031 27.28zm-5.94 3.49a3.63 3.63 0 00.22 1.23l3.88-5.09a4 4 0 00-4.1 3.86z"/><path class="cls-12" d="M29.19 26.85L25.28 32a3.85 3.85 0 001 1.58l4.72-6.3a4.34 4.34 0 00-1.81-.43z"/><path class="cls-11" d="M43.24 27.28l-4.78 6.25a4.24 4.24 0 002.93 1.15 4 4 0 004.13-3.91 3.91 3.91 0 00-2.28-3.49zm-5.99 3.49a3.63 3.63 0 00.22 1.23l3.88-5.09a4 4 0 00-4.1 3.86z"/><path class="cls-12" d="M41.39 26.85L37.47 32a3.85 3.85 0 001 1.58l4.78-6.25a4.41 4.41 0 00-1.86-.48z"/><path class="cls-13" d="M33.32 30.77c0-.52 3.94-.52 3.93 0"/><ellipse class="cls-13" cx="29.19" cy="30.77" rx="4.13" ry="3.91"/><ellipse class="cls-13" cx="41.39" cy="30.77" rx="4.13" ry="3.91"/></g></g></g></svg>