<svg xmlns="http://www.w3.org/2000/svg" viewBox="0 0 69.77 72.78"><defs><clipPath id="clip-path"><circle cx="34.88" cy="34.88" r="34.88" fill="none"/></clipPath><style>.cls-5{fill:none;stroke:#fff;stroke-linecap:round;stroke-linejoin:round;stroke-width:4px}.cls-6{fill:#544236}.cls-10,.cls-9{fill:#ffdcc0}.cls-10{opacity:.2;mix-blend-mode:multiply}.cls-12{fill:#17a593}.cls-13{fill:#fff}</style></defs><g style="isolation:isolate"><g id="レイヤー_2" data-name="レイヤー 2"><g clip-path="url(#clip-path)" id="レイヤー_1-2" data-name="レイヤー 1"><circle cx="34.88" cy="34.88" r="34.88" fill="#00c8ac"/><path class="cls-5" d="M35.24 46.18V7.39c-10.27 0-15.38 7.76-15.93 16.8-.24 3.92-3.61 6.87-1.33 13.55.89 2.58.05 3.69-1.15 5.68l-.21.34c-6.5 10.25-1.93 18 10.12 16.61a24.49 24.49 0 008.45-2.88zm0 0V7.39c10.27 0 15.38 7.76 15.93 16.8.24 3.92 3.61 6.87 1.33 13.55-.89 2.58 0 3.69 1.15 5.68l.21.34c6.5 10.25 1.93 18-10.12 16.61a24.49 24.49 0 01-8.45-2.88z"/><path class="cls-5" d="M35.29 52.16V32.84H21.4a13.19 13.19 0 00.78 4.9c.88 2.58.05 3.69-1.15 5.68a9.07 9.07 0 00-1.77 6.69 3.5 3.5 0 002.13 3c5.36 1.83 7.44 1.69 13.8-.94m.1-.01V32.84h13.89a13.19 13.19 0 01-.78 4.9c-.88 2.58 0 3.69 1.15 5.68 1 1.68 2.16 3.32 1.77 6.69a3.5 3.5 0 01-2.13 3c-5.36 1.83-7.44 1.69-13.8-.94"/><path class="cls-5" d="M31.7 43.42h7.02v12.03H31.7z"/><path class="cls-5" d="M35.65 46.64h-.92c-4 0-11.63-5.2-11.63-11.63l.07-14.93h24.18L47.28 35c0 6.44-7.56 11.64-11.63 11.64z"/><path class="cls-5" d="M35.19 46.64h-.46c-4 0-11.63-5.2-11.63-11.63V20.08h12.09m16.08 34.84c-1.51-5.57-12.54-5.57-12.54-5.57 0 .86-.09 1.7-.15 2.51a3.38 3.38 0 01-3.17 3.19h-.11a3.41 3.41 0 01-3.44-3.2c-.05-.81-.1-1.64-.14-2.5 0 0-11 0-12.55 5.57S18 70.78 18 70.78h34.4s.39-10.29-1.13-15.86z"/><path class="cls-5" d="M23.23 30.29S21.7 28.2 20 29.21c-1.8 1.12-.63 6.79 3.23 6.79zm23.69 0s1.53-2.09 3.2-1.08c1.88 1.12.66 6.79-3.2 6.79z"/><path class="cls-5" d="M23.23 30.29S21.7 28.2 20 29.21c-1.8 1.12-.63 6.79 3.23 6.79zm24.9-4.44c0 3.58-25.68 3.58-25.68 0v-9.09h25.68zM25.29 60.07h10v10.71H23.23a32.07 32.07 0 012.06-10.71zm20 0h-10v10.71h12.06a31.83 31.83 0 00-2.06-10.71z"/><path class="cls-5" d="M25.23 50.24v20.53h4V49.5a26.54 26.54 0 00-4 .74zm16.12-.72v21.25h4V50.28a25.25 25.25 0 00-4-.76z"/><circle class="cls-5" cx="27.24" cy="60.94" r=".8"/><circle class="cls-5" cx="43.34" cy="60.94" r=".8"/><path class="cls-6" d="M35.24 46.18V7.39c-10.27 0-15.38 7.76-15.93 16.8-.24 3.92-3.61 6.87-1.33 13.55.89 2.58.05 3.69-1.15 5.68l-.21.34c-6.5 10.25-1.93 18 10.12 16.61a24.49 24.49 0 008.45-2.88zm0 0V7.39c10.27 0 15.38 7.76 15.93 16.8.24 3.92 3.61 6.87 1.33 13.55-.89 2.58 0 3.69 1.15 5.68l.21.34c6.5 10.25 1.93 18-10.12 16.61a24.49 24.49 0 01-8.45-2.88z"/><path d="M35.29 52.16V32.84H21.4a13.19 13.19 0 00.78 4.9c.88 2.58.05 3.69-1.15 5.68a9.07 9.07 0 00-1.77 6.69 3.5 3.5 0 002.13 3c5.36 1.83 7.44 1.69 13.8-.94m.1-.01V32.84h13.89a13.19 13.19 0 01-.78 4.9c-.88 2.58 0 3.69 1.15 5.68 1 1.68 2.16 3.32 1.77 6.69a3.5 3.5 0 01-2.13 3c-5.36 1.83-7.44 1.69-13.8-.94" fill="#372920"/><path fill="#f4d0b8" d="M31.7 43.42h7.02v12.03H31.7z"/><path class="cls-9" d="M35.65 46.64h-.92c-4 0-11.63-5.2-11.63-11.63l.07-14.93h24.18L47.28 35c0 6.44-7.56 11.64-11.63 11.64z"/><path class="cls-10" d="M35.19 46.64h-.46c-4 0-11.63-5.2-11.63-11.63V20.08h12.09"/><path d="M51.27 54.92c-1.51-5.57-12.54-5.57-12.54-5.57 0 .86-.09 1.7-.15 2.51a3.38 3.38 0 01-3.17 3.19h-.11a3.41 3.41 0 01-3.44-3.2c-.05-.81-.1-1.64-.14-2.5 0 0-11 0-12.55 5.57S18 70.78 18 70.78h34.4s.39-10.29-1.13-15.86z" fill="#c4c8cb"/><path class="cls-9" d="M23.23 30.29S21.7 28.2 20 29.21c-1.8 1.12-.63 6.79 3.23 6.79zm23.69 0s1.53-2.09 3.2-1.08c1.88 1.12.66 6.79-3.2 6.79z"/><path class="cls-10" d="M23.23 30.29S21.7 28.2 20 29.21c-1.8 1.12-.63 6.79 3.23 6.79z"/><path class="cls-6" d="M48.13 25.85c0 3.58-25.68 3.58-25.68 0v-9.09h25.68z"/><path class="cls-12" d="M25.29 60.07h10v10.71H23.23a32.07 32.07 0 012.06-10.71zm20 0h-10v10.71h12.06a31.83 31.83 0 00-2.06-10.71z"/><path class="cls-12" d="M25.23 50.24v20.53h4V49.5a26.54 26.54 0 00-4 .74zm16.12-.72v21.25h4V50.28a25.25 25.25 0 00-4-.76z"/><circle class="cls-13" cx="27.24" cy="60.94" r=".8"/><circle class="cls-13" cx="43.34" cy="60.94" r=".8"/></g></g></g></svg>