<svg xmlns="http://www.w3.org/2000/svg" viewBox="0 0 69.77 74.38"><defs><clipPath id="clip-path"><circle cx="34.88" cy="34.88" r="34.88" fill="none"/></clipPath><style>.cls-5{fill:none;stroke:#fff;stroke-linecap:round;stroke-linejoin:round;stroke-width:4px}.cls-6{fill:#544236}.cls-8,.cls-9{fill:#ffdcc0}.cls-9{opacity:.2;mix-blend-mode:multiply}.cls-12{fill:#e4f7f9;opacity:.55}.cls-13{fill:#fff;opacity:.8}</style></defs><g style="isolation:isolate"><g id="レイヤー_2" data-name="レイヤー 2"><g clip-path="url(#clip-path)" id="レイヤー_1-2" data-name="レイヤー 1"><circle cx="34.88" cy="34.88" r="34.88" fill="#00c8ac"/><path class="cls-5" d="M35.21 9C24 9 19.86 15.51 19.86 27.79c0 2.32.09 5.19.09 5.19h15.26zm0 0c11.19 0 15.34 6.52 15.34 18.8 0 2.32-.08 5.19-.08 5.19H35.21zm-4.5 36.02h9.07v12.03h-9.07z"/><path class="cls-5" d="M35.67 48.25h-.92c-4 0-11.64-5.21-11.64-11.64l.07-14.93h24.19l-.07 14.93c0 6.39-7.56 11.64-11.63 11.64z"/><path class="cls-5" d="M35.21 48.25h-.46c-4 0-11.64-5.21-11.64-11.64V21.68h12.1m19.08 34.84C52.78 51 39.78 51 39.78 51c0 .85-.09 1.69-.15 2.5a3.37 3.37 0 01-3.17 3.19h-2.17a3.41 3.41 0 01-3.44-3.19c-.05-.82-.1-1.65-.14-2.5 0 0-13 0-14.52 5.56S15 72.38 15 72.38h40.4s.41-10.29-1.11-15.86z"/><path class="cls-5" d="M23.25 31.89s-1.53-2.09-3.2-1.07c-1.84 1.11-.66 6.77 3.2 6.77zm23.69 0s1.53-2.09 3.2-1.07c1.83 1.11.65 6.77-3.2 6.77z"/><path class="cls-5" d="M23.25 31.89s-1.53-2.09-3.2-1.07c-1.84 1.11-.66 6.77 3.2 6.77zm20.86-8.21s2.1 3.75 2.82 11.76a25.09 25.09 0 001.15-16.77h-4"/><path class="cls-5" d="M25 23.68a68.56 68.56 0 00-1.82 11.76A25.09 25.09 0 0122 18.67h3m5.85 34.79c-.05-.82-.1-1.65-.14-2.5 0 0-13 0-14.52 5.56S15 72.38 15 72.38h16.18V54.71a3.56 3.56 0 01-.33-1.25zm8.78 0c0-.82.1-1.65.14-2.5 0 0 13 0 14.52 5.56s1.15 15.86 1.15 15.86H39.3V54.71a3.56 3.56 0 00.33-1.25z"/><path class="cls-5" d="M46.09 23.16s-11 3.89-22 3.89v-6.6h22zM44.9 11.67a16.8 16.8 0 00-8.65-2.62 12.38 12.38 0 01-8.35-2.83 9 9 0 001.47 5.66"/><path class="cls-5" d="M36.41 10.14a26.34 26.34 0 00-5.25-.42c-2.11 0-4.18.3-5.87-.67a6 6 0 001.77 3.5m-1.43 17.92v2.42a2 2 0 00.1.6L29 29c-1.71 0-3.37.52-3.37 1.47zm5.12-1.32l-4.05 5.54A2.55 2.55 0 0028 35h2.4a2.24 2.24 0 002.33-2.14v-2.39c-.04-.67-.88-1.11-1.98-1.32z"/><path class="cls-5" d="M29 29l-3.28 4.48a2.21 2.21 0 001 1.2l4.05-5.54A8.89 8.89 0 0029 29zm8.82 1.47v2.42a2 2 0 00.11.6L41.2 29c-1.71 0-3.38.52-3.38 1.47zm5.12-1.32l-4 5.54a2.49 2.49 0 001.25.34h2.41a2.24 2.24 0 002.32-2.14v-2.42c-.04-.67-.92-1.11-1.98-1.32z"/><path class="cls-5" d="M41.2 29l-3.27 4.48a2.16 2.16 0 001 1.2l4-5.54A8.89 8.89 0 0041.2 29zm-8.51 1.47v2.42A2.24 2.24 0 0130.36 35H28a2.24 2.24 0 01-2.33-2.14v-2.39c-.04-1.95 7.02-1.95 7.02 0z"/><path class="cls-5" d="M44.88 30.47v2.42A2.24 2.24 0 0142.56 35h-2.41a2.25 2.25 0 01-2.33-2.14v-2.39c0-1.95 7.06-1.95 7.06 0zm-12.19.84c0-.93 5.13-.93 5.13 0"/><path class="cls-6" d="M35.21 9C24 9 19.86 15.51 19.86 27.79c0 2.32.09 5.19.09 5.19h15.26zm0 0c11.19 0 15.34 6.52 15.34 18.8 0 2.32-.08 5.19-.08 5.19H35.21z"/><path fill="#f4d0b8" d="M30.71 45.02h9.07v12.03h-9.07z"/><path class="cls-8" d="M35.67 48.25h-.92c-4 0-11.64-5.21-11.64-11.64l.07-14.93h24.19l-.07 14.93c0 6.39-7.56 11.64-11.63 11.64z"/><path class="cls-9" d="M35.21 48.25h-.46c-4 0-11.64-5.21-11.64-11.64V21.68h12.1"/><path d="M54.29 56.52C52.78 51 39.78 51 39.78 51c0 .85-.09 1.69-.15 2.5a3.37 3.37 0 01-3.17 3.19h-2.17a3.41 3.41 0 01-3.44-3.19c-.05-.82-.1-1.65-.14-2.5 0 0-13 0-14.52 5.56S15 72.38 15 72.38h40.4s.41-10.29-1.11-15.86z" fill="#7c868b"/><path class="cls-8" d="M23.25 31.89s-1.53-2.09-3.2-1.07c-1.84 1.11-.66 6.77 3.2 6.77zm23.69 0s1.53-2.09 3.2-1.07c1.83 1.11.65 6.77-3.2 6.77z"/><path class="cls-9" d="M23.25 31.89s-1.53-2.09-3.2-1.07c-1.84 1.11-.66 6.77 3.2 6.77z"/><path class="cls-6" d="M44.11 23.68s2.1 3.75 2.82 11.76a25.09 25.09 0 001.15-16.77h-4M25 23.68a68.56 68.56 0 00-1.82 11.76A25.09 25.09 0 0122 18.67h3"/><path d="M30.85 53.46c-.05-.82-.1-1.65-.14-2.5 0 0-13 0-14.52 5.56S15 72.38 15 72.38h16.18V54.71a3.56 3.56 0 01-.33-1.25zm8.78 0c0-.82.1-1.65.14-2.5 0 0 13 0 14.52 5.56s1.15 15.86 1.15 15.86H39.3V54.71a3.56 3.56 0 00.33-1.25z" fill="#17a593"/><path class="cls-6" d="M46.09 23.16s-11 3.89-22 3.89v-6.6h22zM44.9 11.67a16.8 16.8 0 00-8.65-2.62 12.38 12.38 0 01-8.35-2.83 9 9 0 001.47 5.66"/><path class="cls-6" d="M36.41 10.14a26.34 26.34 0 00-5.25-.42c-2.11 0-4.18.3-5.87-.67a6 6 0 001.77 3.5"/><path class="cls-12" d="M25.63 30.47v2.42a2 2 0 00.1.6L29 29c-1.71 0-3.37.52-3.37 1.47zm5.12-1.32l-4.05 5.54A2.55 2.55 0 0028 35h2.4a2.24 2.24 0 002.33-2.14v-2.39c-.04-.67-.88-1.11-1.98-1.32z"/><path class="cls-13" d="M29 29l-3.28 4.48a2.21 2.21 0 001 1.2l4.05-5.54A8.89 8.89 0 0029 29z"/><path class="cls-12" d="M37.82 30.47v2.42a2 2 0 00.11.6L41.2 29c-1.71 0-3.38.52-3.38 1.47zm5.12-1.32l-4 5.54a2.49 2.49 0 001.25.34h2.41a2.24 2.24 0 002.32-2.14v-2.42c-.04-.67-.92-1.11-1.98-1.32z"/><path class="cls-13" d="M41.2 29l-3.27 4.48a2.16 2.16 0 001 1.2l4-5.54A8.89 8.89 0 0041.2 29z"/><path d="M32.69 30.47v2.42A2.24 2.24 0 0130.36 35H28a2.24 2.24 0 01-2.33-2.14v-2.39c-.04-1.95 7.02-1.95 7.02 0zm12.19 0v2.42A2.24 2.24 0 0142.56 35h-2.41a2.25 2.25 0 01-2.33-2.14v-2.39c0-1.95 7.06-1.95 7.06 0zm-12.19.84c0-.93 5.13-.93 5.13 0" stroke="#4a575e" stroke-miterlimit="10" stroke-width=".61" fill="none"/></g></g></g></svg>