<svg xmlns="http://www.w3.org/2000/svg" viewBox="0 0 69.77 72.77"><defs><clipPath id="clip-path"><circle class="cls-1" cx="34.88" cy="34.88" r="34.88"/></clipPath><pattern id="新規パターンスウォッチ_4" data-name="新規パターンスウォッチ 4" width="20" height="20" patternTransform="matrix(.6 0 0 .6 2.23 8.55)" patternUnits="userSpaceOnUse" viewBox="0 0 20 20"><path class="cls-1" d="M0 0h20v20H0z"/><circle class="cls-2" cx="15" cy="20" r="2.5"/><circle class="cls-2" cx="5" cy="20" r="2.5"/><circle class="cls-2" cx="20" cy="10" r="2.5"/><circle class="cls-2" cx="10" cy="10" r="2.5"/><circle class="cls-2" cy="10" r="2.5"/><circle class="cls-2" cx="15" r="2.5"/><circle class="cls-2" cx="5" r="2.5"/></pattern><style>.cls-1,.cls-6{fill:none}.cls-2{fill:#ffe650}.cls-6{stroke:#fff;stroke-linecap:round;stroke-linejoin:round;stroke-width:4px}.cls-7{fill:#544236}.cls-9{fill:#ffdcc0}</style></defs><g style="isolation:isolate"><g id="レイヤー_2" data-name="レイヤー 2"><g clip-path="url(#clip-path)" id="レイヤー_1-2" data-name="レイヤー 1"><circle cx="34.88" cy="34.88" r="34.88" fill="#00c8ac"/><path class="cls-6" d="M34.75 7.38c-10.27 0-15.2 7.33-16.34 16.79a58.55 58.55 0 01-3.6 14.6c-2 4.94 15.26 6.93 20 4.8z"/><path class="cls-6" d="M34.76 7.38C45 7.38 50 14.63 51.09 24.1a59.06 59.06 0 003.61 14.67c2 4.94-15.26 6.93-20 4.8z"/><path class="cls-6" d="M31.22 43.4h7.02v16.33h-7.02z"/><path class="cls-6" d="M35.16 46.63h-.92c-4 0-11.63-5.21-11.63-11.63l.07-14.94h24.18L46.79 35c0 6.42-7.55 11.63-11.63 11.63z"/><path class="cls-6" d="M34.7 46.63h-.46c-4 0-11.63-5.21-11.63-11.63V20.06H34.7m16.09 34.85c-1.52-5.57-12.55-5.57-12.55-5.57 0 .63-1.81 5.33-2.75 7.77a.64.64 0 01-1.19 0 79.18 79.18 0 01-3.07-7.79s-11 0-12.55 5.57-1.15 15.86-1.15 15.86h34.41s.36-10.27-1.15-15.84z"/><path class="cls-6" d="M50.75 54.91c-1.51-5.57-12.55-5.57-12.55-5.57 0 .63-1.8 5.33-2.74 7.77a.65.65 0 01-1.2 0 81.11 81.11 0 01-3.06-7.79s-11 0-12.55 5.57-1.15 15.88-1.15 15.88h34.4s.37-10.29-1.15-15.86zm-3.57-24.98s-16.61-.77-22.47-7.29c-1 1.55-1.74 3.26-2.1 7.3V19.45h24.57z"/><path class="cls-6" d="M46.69 30s1.53-2.09 3.2-1.07c1.83 1.12.66 6.77-3.2 6.77z"/><path class="cls-7" d="M34.75 7.38c-10.27 0-15.2 7.33-16.34 16.79a58.55 58.55 0 01-3.6 14.6c-2 4.94 15.26 6.93 20 4.8z"/><path class="cls-7" d="M34.76 7.38C45 7.38 50 14.63 51.09 24.1a59.06 59.06 0 003.61 14.67c2 4.94-15.26 6.93-20 4.8z"/><path fill="#f4d0b8" d="M31.22 43.4h7.02v16.33h-7.02z"/><path class="cls-9" d="M35.16 46.63h-.92c-4 0-11.63-5.21-11.63-11.63l.07-14.94h24.18L46.79 35c0 6.42-7.55 11.63-11.63 11.63z"/><path d="M34.7 46.63h-.46c-4 0-11.63-5.21-11.63-11.63V20.06H34.7" style="mix-blend-mode:multiply" opacity=".2" fill="#ffdcc0"/><path class="cls-2" d="M50.79 54.91c-1.52-5.57-12.55-5.57-12.55-5.57 0 .63-1.81 5.33-2.75 7.77a.64.64 0 01-1.19 0 79.18 79.18 0 01-3.07-7.79s-11 0-12.55 5.57-1.15 15.86-1.15 15.86h34.41s.36-10.27-1.15-15.84z"/><path d="M50.75 54.91c-1.51-5.57-12.55-5.57-12.55-5.57 0 .63-1.8 5.33-2.74 7.77a.65.65 0 01-1.2 0 81.11 81.11 0 01-3.06-7.79s-11 0-12.55 5.57-1.15 15.88-1.15 15.88h34.4s.37-10.29-1.15-15.86z" style="mix-blend-mode:multiply" fill="url(#新規パターンスウォッチ_4)"/><path class="cls-7" d="M47.18 29.93s-16.61-.77-22.47-7.29c-1 1.55-1.74 3.26-2.1 7.3V19.45h24.57z"/><path class="cls-9" d="M46.69 30s1.53-2.09 3.2-1.07c1.83 1.12.66 6.77-3.2 6.77z"/></g></g></g></svg>