<svg xmlns="http://www.w3.org/2000/svg" viewBox="0 0 69.77 72.95"><defs><clipPath id="clip-path"><circle cx="34.88" cy="34.88" r="34.88" fill="none"/></clipPath><style>.cls-5{fill:none;stroke:#fff;stroke-linecap:round;stroke-linejoin:round;stroke-width:4px}.cls-6{fill:#544236}.cls-8,.cls-9{fill:#ffdcc0}.cls-9{opacity:.2;mix-blend-mode:multiply}</style></defs><g style="isolation:isolate"><g id="レイヤー_2" data-name="レイヤー 2"><g clip-path="url(#clip-path)" id="レイヤー_1-2" data-name="レイヤー 1"><circle cx="34.88" cy="34.88" r="34.88" fill="#ffe650"/><path class="cls-5" d="M35.21 8.55c-11.2 0-15.35 5.52-15.35 17.81 0 2.32.09 5.19.09 5.19h15.26zm0 0c11.19 0 15.34 5.52 15.34 17.81 0 2.32-.08 5.19-.08 5.19H35.21zm-4.5 35.03h9.07v16.93h-9.07z"/><path class="cls-5" d="M35.67 46.81h-.92c-4 0-11.64-5.21-11.64-11.63l.07-14.94h24.19l-.07 14.94c0 6.42-7.56 11.63-11.63 11.63z"/><path class="cls-5" d="M35.21 46.81h-.46c-4 0-11.64-5.21-11.64-11.63V20.24h12.1m19.08 34.85c-1.51-5.57-14.51-5.57-14.51-5.57S39.42 59 35.24 59s-4.53-9.47-4.53-9.47-13 0-14.52 5.57S15 71 15 71h40.4s.41-10.34-1.11-15.91z"/><path class="cls-5" d="M23.25 30.45s-1.53-2.09-3.2-1.07c-1.84 1.12-.66 6.78 3.2 6.78zm23.69 0s1.53-2.09 3.2-1.07c1.83 1.12.65 6.78-3.2 6.78z"/><path class="cls-5" d="M23.25 30.45s-1.53-2.09-3.2-1.07c-1.84 1.12-.66 6.78 3.2 6.78zm20.86-8.2S46.21 26 46.93 34a25.12 25.12 0 001.15-16.78h-4"/><path class="cls-5" d="M25.64 20.61A65.32 65.32 0 0023.13 34c-2.19-5.43-2.06-11.84-.46-18.41h3M44 10.35a16.76 16.76 0 00-8.65-2.62A12.32 12.32 0 0127 4.9a9 9 0 001.47 5.67"/><path class="cls-5" d="M35.52 8.82a26.34 26.34 0 00-5.25-.42c-2.11 0-4.18.3-5.87-.67a6 6 0 001.77 3.51m-2.01 8.31s7.3 8.57 22.39 8.57v-8.57z"/><path class="cls-6" d="M35.21 8.55c-11.2 0-15.35 5.52-15.35 17.81 0 2.32.09 5.19.09 5.19h15.26zm0 0c11.19 0 15.34 5.52 15.34 17.81 0 2.32-.08 5.19-.08 5.19H35.21z"/><path fill="#f4d0b8" d="M30.71 43.58h9.07v16.93h-9.07z"/><path class="cls-8" d="M35.67 46.81h-.92c-4 0-11.64-5.21-11.64-11.63l.07-14.94h24.19l-.07 14.94c0 6.42-7.56 11.63-11.63 11.63z"/><path class="cls-9" d="M35.21 46.81h-.46c-4 0-11.64-5.21-11.64-11.63V20.24h12.1"/><path d="M54.29 55.09c-1.51-5.57-14.51-5.57-14.51-5.57S39.42 59 35.24 59s-4.53-9.47-4.53-9.47-13 0-14.52 5.57S15 71 15 71h40.4s.41-10.34-1.11-15.91z" fill="#17a593"/><path class="cls-8" d="M23.25 30.45s-1.53-2.09-3.2-1.07c-1.84 1.12-.66 6.78 3.2 6.78zm23.69 0s1.53-2.09 3.2-1.07c1.83 1.12.65 6.78-3.2 6.78z"/><path class="cls-9" d="M23.25 30.45s-1.53-2.09-3.2-1.07c-1.84 1.12-.66 6.78 3.2 6.78z"/><path class="cls-6" d="M44.11 22.25S46.21 26 46.93 34a25.12 25.12 0 001.15-16.78h-4m-18.44 3.39A65.32 65.32 0 0023.13 34c-2.19-5.43-2.06-11.84-.46-18.41h3M44 10.35a16.76 16.76 0 00-8.65-2.62A12.32 12.32 0 0127 4.9a9 9 0 001.47 5.67"/><path class="cls-6" d="M35.52 8.82a26.34 26.34 0 00-5.25-.42c-2.11 0-4.18.3-5.87-.67a6 6 0 001.77 3.51m-2.01 8.31s7.3 8.57 22.39 8.57v-8.57z"/></g></g></g></svg>