<svg xmlns="http://www.w3.org/2000/svg" width="315" height="218" viewBox="0 0 315 218">
  <g id="グループ_3986" data-name="グループ 3986" transform="translate(-30 -4776)">
    <path id="パス_6884" data-name="パス 6884" d="M0,0H133V218H0Z" transform="translate(30 4776)" fill="#e4f5f2"/>
    <g id="パス_6885" data-name="パス 6885" transform="translate(30 4776)" fill="none">
      <path d="M0,0H315V218H0Z" stroke="none"/>
      <path d="M 1 1 L 1 217 L 314 217 L 314 1 L 1 1 M 0 0 L 315 0 L 315 218 L 0 218 L 0 0 Z" stroke="none" fill="#cecece"/>
    </g>
    <path id="パス_6886" data-name="パス 6886" d="M4.188-6.864a16.064,16.064,0,0,1-.66,2.784c-.576-.7-1.176-1.392-1.752-1.992L1-5.436a31.185,31.185,0,0,1,2.052,2.5A6.983,6.983,0,0,1,.384-.012,6.185,6.185,0,0,1,1.14.852a8.117,8.117,0,0,0,2.592-2.82,12.122,12.122,0,0,1,.936,1.62l.9-.756a14.669,14.669,0,0,0-1.284-2,16.269,16.269,0,0,0,1-3.612Zm7.3-.444H10.128v-2.76h-1.1v2.76H6.252V-8.16H3.936v-1.9H2.856v1.9H.672v1.032H5.88v.9H9.024V-.5c0,.2-.084.264-.288.264s-.852.012-1.572-.012A5.158,5.158,0,0,1,7.524.936,5.667,5.667,0,0,0,9.588.708c.384-.2.54-.528.54-1.212V-6.228h1.356ZM8.124-2.532a9.023,9.023,0,0,0-1.308-2.58L5.9-4.68a9.991,9.991,0,0,1,1.26,2.628Zm6.444-4.992h8.82V-8.6H18.936v-1.464H17.772V-8.6h-4.32v3.048C13.452-3.84,13.368-1.4,12.4.3a5.688,5.688,0,0,1,.948.636c1.044-1.836,1.224-4.62,1.224-6.492Zm6.252,1.98A14.934,14.934,0,0,0,18-7.3l-.756.732a14.8,14.8,0,0,1,2.772,1.848Zm-5.352,5.4a10.39,10.39,0,0,0,1-3.84l-1.02-.228a9.067,9.067,0,0,1-.972,3.624ZM18.7-.288c-.408,0-.492-.072-.492-.492v-4.4H17.112v4.4c0,1.14.288,1.5,1.416,1.5h1.56c1.056,0,1.344-.552,1.452-2.544a3.511,3.511,0,0,1-.984-.456C20.5-.588,20.436-.288,20-.288ZM20.964-4.1a13.23,13.23,0,0,1,1.584,3.96L23.64-.6a12.825,12.825,0,0,0-1.692-3.9Zm5.16-4.548v1.2c.336-.024.7-.036,1.116-.036h1.476v2.316H26.544c-.348,0-.876-.024-1.212-.06v1.26c.348-.024.888-.048,1.212-.048h2.172v2.532c0,1.08.552,1.776,2.532,1.776C32.388.288,33.624.24,34.5.18L34.572-1.1a25.911,25.911,0,0,1-3.12.168c-1.044,0-1.464-.3-1.464-.936V-4.02h3.888c.264,0,.744,0,1.056.024L34.92-5.22c-.288.024-.816.048-1.068.048H29.988V-7.488h2.988c.432,0,.732.024,1.032.036v-1.2a8.51,8.51,0,0,1-1.032.048H27.24C26.82-8.6,26.46-8.628,26.124-8.652Zm12.24-.24v1.236c.324-.024.768-.048,1.176-.048h4.044c.384,0,.816.024,1.2.048V-8.892a10.063,10.063,0,0,1-1.2.072H39.528A9.049,9.049,0,0,1,38.364-8.892ZM36.948-5.856v1.248c.336-.024.732-.036,1.092-.036h3.468a5.547,5.547,0,0,1-.72,2.832,5,5,0,0,1-2.22,1.788l1.1.816A5.868,5.868,0,0,0,42.06-1.452,7.366,7.366,0,0,0,42.8-4.644h3.1c.312,0,.72.012,1.008.024V-5.856A7.655,7.655,0,0,1,45.9-5.8H38.04A10.515,10.515,0,0,1,36.948-5.856Zm8.5-3.948-.768.324a14.323,14.323,0,0,1,.948,1.656l.792-.336A17.39,17.39,0,0,0,45.444-9.8ZM46.8-10.32,46.032-10a12.044,12.044,0,0,1,.984,1.656l.78-.348A15.292,15.292,0,0,0,46.8-10.32ZM54.18-.264l.792.66a3.73,3.73,0,0,1,.456-.3A12.626,12.626,0,0,0,59.52-3.216l-.732-1.032a8.442,8.442,0,0,1-3.264,2.76V-8.124a7.227,7.227,0,0,1,.06-.96H54.192a8.8,8.8,0,0,1,.072.96v7.1A3.461,3.461,0,0,1,54.18-.264ZM48.648-.372,49.8.4a6.742,6.742,0,0,0,2.136-3.36,26.289,26.289,0,0,0,.372-5.124,8.982,8.982,0,0,1,.06-.96H50.976a3.74,3.74,0,0,1,.1.972,20.807,20.807,0,0,1-.348,4.788A5.555,5.555,0,0,1,48.648-.372Z" transform="translate(46 4801)" fill="#0a0a0a"/>
    <path id="パス_6887" data-name="パス 6887" d="M3.036-6.192H4.368V-7.248H3.036V-9.912H1.992v2.664H.516v1.056H1.992v3.6c-.6.252-1.152.468-1.584.612L.84-.852c1.068-.48,2.436-1.1,3.7-1.716l-.252-.984c-.408.168-.84.348-1.248.528ZM7.08-.3c-.768,0-.9-.132-.9-.8V-5.04l1.344-.576v3.864H8.568V-6.06l1.392-.6c0,1.824-.024,2.94-.072,3.18s-.156.288-.312.288c-.12,0-.444,0-.7-.012a3.446,3.446,0,0,1,.252.948,3.7,3.7,0,0,0,1.152-.132c.372-.1.576-.36.636-.864.072-.468.1-2.1.1-4.332l.048-.192-.78-.3-.192.156-.216.168L8.568-7.2v-2.856H7.524v3.3L6.18-6.192V-8.928H5.124v3.18L3.876-5.22l.42.984.828-.348v3.468C5.124.324,5.544.7,7.02.7H9.768c1.308,0,1.644-.54,1.8-2.2a3.224,3.224,0,0,1-.984-.408C10.488-.6,10.368-.3,9.708-.3ZM18.216-.756V-5.22h4.332V-6.336H18.216V-9.9h-1.2V-.756h-4.38V.372h10.74V-.756Zm8.148-8.136v1.236c.324-.024.768-.048,1.176-.048h4.044c.384,0,.816.024,1.2.048V-8.892a10.063,10.063,0,0,1-1.2.072H27.528A9.049,9.049,0,0,1,26.364-8.892ZM24.948-5.856v1.248c.336-.024.732-.036,1.092-.036h3.468a5.547,5.547,0,0,1-.72,2.832,5,5,0,0,1-2.22,1.788l1.1.816A5.868,5.868,0,0,0,30.06-1.452,7.365,7.365,0,0,0,30.8-4.644h3.1c.312,0,.72.012,1.008.024V-5.856A7.655,7.655,0,0,1,33.9-5.8H26.04A10.515,10.515,0,0,1,24.948-5.856Zm8.5-3.948-.768.324a14.323,14.323,0,0,1,.948,1.656l.792-.336A17.39,17.39,0,0,0,33.444-9.8ZM34.8-10.32,34.032-10a12.044,12.044,0,0,1,.984,1.656l.78-.348A15.292,15.292,0,0,0,34.8-10.32Zm9.864,1.248-.816.348a10.69,10.69,0,0,1,1.08,1.884l.84-.36A17.481,17.481,0,0,0,44.664-9.072Zm1.608-.576-.828.348a11.662,11.662,0,0,1,1.128,1.848l.84-.372A17.577,17.577,0,0,0,46.272-9.648ZM39.5-9.276,38.82-8.232c.732.42,2.016,1.26,2.628,1.7l.72-1.032C41.592-7.968,40.248-8.856,39.5-9.276ZM37.512-.72,38.22.516A14.381,14.381,0,0,0,42.2-.96,14.445,14.445,0,0,0,46.9-5.268L46.164-6.54a12.254,12.254,0,0,1-4.6,4.452A13.178,13.178,0,0,1,37.512-.72Zm.156-5.832L37-5.52A29.793,29.793,0,0,1,39.66-3.84l.7-1.068C39.792-5.3,38.424-6.144,37.668-6.552Zm16.692-2.9-1.368-.432a5.621,5.621,0,0,1-.456,1.08A11,11,0,0,1,48.7-4.716l1.02.792a13.59,13.59,0,0,0,3.168-3.144h3.792a9.836,9.836,0,0,1-1.5,3.024c-.8-.552-1.644-1.092-2.364-1.512l-.828.852c.7.444,1.56,1.032,2.388,1.632a10.2,10.2,0,0,1-4.536,2.76l1.092.96A11.431,11.431,0,0,0,55.38-2.316c.492.4.948.768,1.284,1.08l.888-1.056c-.372-.3-.84-.66-1.344-1.02a13.74,13.74,0,0,0,1.836-3.624,6.038,6.038,0,0,1,.324-.744l-.972-.6a2.794,2.794,0,0,1-.9.132H53.6c.048-.084.084-.156.132-.24C53.868-8.628,54.12-9.1,54.36-9.456ZM65.94-.264l.792.66a3.73,3.73,0,0,1,.456-.3A12.626,12.626,0,0,0,71.28-3.216l-.732-1.032a8.442,8.442,0,0,1-3.264,2.76V-8.124a7.227,7.227,0,0,1,.06-.96H65.952a8.8,8.8,0,0,1,.072.96v7.1A3.461,3.461,0,0,1,65.94-.264ZM60.408-.372,61.56.4A6.742,6.742,0,0,0,63.7-2.964a26.289,26.289,0,0,0,.372-5.124,8.981,8.981,0,0,1,.06-.96H62.736a3.74,3.74,0,0,1,.1.972,20.807,20.807,0,0,1-.348,4.788A5.555,5.555,0,0,1,60.408-.372ZM79.32-6.852H81.3a12.075,12.075,0,0,1-1,3.5,15.1,15.1,0,0,1-1.032-3.36Zm3.972,0V-7.884h-3.66q.252-.972.432-2.016l-1.14-.18A12.093,12.093,0,0,1,77.1-4.9l.012-.372c.012-.144.012-.48.012-.48H74.676v-1.4h2.9V-8.2h-2.1v-1.86h-1.1V-8.2H72.324v1.044h1.308v2.4A6.916,6.916,0,0,1,72.072.192a4.409,4.409,0,0,1,.828.72,7.745,7.745,0,0,0,1.776-5.64h1.368C75.984-1.62,75.9-.5,75.708-.252a.349.349,0,0,1-.348.168c-.192,0-.588-.012-1.032-.036A2.552,2.552,0,0,1,74.616.888,7.132,7.132,0,0,0,75.9.864.955.955,0,0,0,76.656.42c.288-.384.36-1.668.444-5.148a10.222,10.222,0,0,1,.876.684,6.975,6.975,0,0,0,.636-1.068,14.493,14.493,0,0,0,1.044,2.88,6.672,6.672,0,0,1-2.8,2.22,4.649,4.649,0,0,1,.624.984,7.962,7.962,0,0,0,2.772-2.2A6.485,6.485,0,0,0,82.62.9a4.223,4.223,0,0,1,.768-.96A5.777,5.777,0,0,1,80.94-2.232a13.769,13.769,0,0,0,1.476-4.62Zm11.832,2.4v-1H91.788V-6.876h2.964V-7.884h-1.74A20.337,20.337,0,0,0,94.224-9.72l-1.14-.36a10.265,10.265,0,0,1-1.056,1.956l.684.24H89.748l.66-.288a6.4,6.4,0,0,0-1.068-1.872l-.948.4a6.827,6.827,0,0,1,.972,1.764H88v1.008H90.66v1.428H87.6v1h2.94c-.228.96-.924,2-2.892,2.772a3.5,3.5,0,0,1,.732.8,5.5,5.5,0,0,0,3.036-2.736A4.885,4.885,0,0,0,94.44-.84a4.146,4.146,0,0,1,.72-.936,4.221,4.221,0,0,1-3.036-2.676Zm-7.788-3.5a9.151,9.151,0,0,0-2.052-1.836l-.828.672a9.015,9.015,0,0,1,2,1.9Zm-.324,2.544H84.384V-4.38H85.92v2.82A18.09,18.09,0,0,1,84.18-.324L84.756.828c.624-.516,1.2-1,1.764-1.488A4.109,4.109,0,0,0,89.832.72C91.2.78,93.612.756,94.968.7a5.083,5.083,0,0,1,.372-1.14c-1.5.1-4.164.132-5.5.084a3.263,3.263,0,0,1-2.832-1.26Z" transform="translate(46 4850)" fill="#0a0a0a"/>
    <path id="パス_6888" data-name="パス 6888" d="M1.164,0H4.116C6.072,0,7.5-.84,7.5-2.592a2.028,2.028,0,0,0-1.74-2.1v-.06A1.964,1.964,0,0,0,7.02-6.66c0-1.6-1.308-2.184-3.12-2.184H1.164ZM2.556-5.148v-2.6H3.78c1.248,0,1.872.348,1.872,1.272,0,.828-.564,1.332-1.908,1.332Zm0,4.056V-4.1h1.4c1.4,0,2.172.444,2.172,1.44,0,1.08-.792,1.572-2.172,1.572ZM8.568-2.88h3.168V-3.9H8.568ZM16.9.156a3.488,3.488,0,0,0,2.748-1.272L18.9-1.992a2.555,2.555,0,0,1-1.956.936c-1.56,0-2.544-1.284-2.544-3.384,0-2.076,1.056-3.348,2.58-3.348A2.349,2.349,0,0,1,18.708-7l.756-.888A3.4,3.4,0,0,0,16.956-9c-2.232,0-3.984,1.728-3.984,4.608S14.676.156,16.9.156Zm6-4.956c.288-.96.564-1.932.816-2.94h.06c.264,1,.528,1.98.828,2.94l.348,1.188H22.536ZM20.04,0h1.416l.756-2.52h3.072L26.028,0H27.5L24.576-8.844H22.968ZM31.188.156C33.12.156,34.3-1,34.3-2.412A2.466,2.466,0,0,0,32.5-4.8l-1.212-.516c-.72-.288-1.428-.576-1.428-1.344,0-.7.588-1.128,1.488-1.128A2.813,2.813,0,0,1,33.288-7l.732-.888A3.783,3.783,0,0,0,31.344-9a2.625,2.625,0,0,0-2.9,2.436,2.541,2.541,0,0,0,1.8,2.316l1.224.528c.816.36,1.416.612,1.416,1.416,0,.744-.6,1.248-1.668,1.248A3.424,3.424,0,0,1,28.86-2.1l-.816.96A4.406,4.406,0,0,0,31.188.156Zm9.828-9.672h-1.4A7.633,7.633,0,0,1,39.7-8.484q0,.612-.036,1.152H37.728c-.468,0-1.008-.036-1.464-.072v1.248c.456-.036,1.02-.048,1.464-.048h1.824a7.459,7.459,0,0,1-2.2,4.716A6.4,6.4,0,0,1,35.976-.48l1.1.9c2.064-1.452,3.252-3.288,3.7-6.624h3.072a17.358,17.358,0,0,1-.564,4.848.634.634,0,0,1-.684.408,13.739,13.739,0,0,1-1.74-.144L41,.168c.612.048,1.308.084,1.956.084a1.338,1.338,0,0,0,1.392-.816c.528-1.176.684-4.608.72-5.82.012-.144.048-.408.084-.612l-.84-.408a5.456,5.456,0,0,1-.828.072H40.9c.024-.372.048-.768.06-1.176C40.968-8.8,40.992-9.24,41.016-9.516Zm6.948,4.164v1.488c.408-.036,1.128-.06,1.788-.06H56.28c.528,0,1.08.048,1.344.06V-5.352c-.3.024-.768.072-1.344.072H49.752C49.1-5.28,48.36-5.328,47.964-5.352ZM66.8-8.76l-.8.348a10.932,10.932,0,0,1,1.056,1.836l.84-.372A14.794,14.794,0,0,0,66.8-8.76Zm1.512-.624-.8.372a11.991,11.991,0,0,1,1.1,1.8l.828-.408A17.818,17.818,0,0,0,68.316-9.384ZM62.352-.936A12.717,12.717,0,0,1,62.256.6H63.72c-.048-.432-.084-1.164-.084-1.536,0-.4,0-2.052-.012-3.708a33.534,33.534,0,0,1,4.548,1.86l.528-1.3A38.873,38.873,0,0,0,63.624-6V-7.872c0-.432.06-.948.1-1.344H62.244a8.571,8.571,0,0,1,.108,1.344ZM9.888,31.228,8.5,30.736a8.448,8.448,0,0,1-.264.984,13.275,13.275,0,0,1-1.5,3.1c-.96-.732-2.292-1.656-3.3-2.292l-.792.96a34.075,34.075,0,0,1,3.312,2.364A13.042,13.042,0,0,1,1.284,39.52l1.056.948a14.982,14.982,0,0,0,4.6-3.8A26.771,26.771,0,0,1,9.7,39.376l.96-1.056a29.39,29.39,0,0,0-2.928-2.712A17.207,17.207,0,0,0,9.456,32.2,8.851,8.851,0,0,1,9.888,31.228Zm4.212.816v1.368c.384-.024.852-.036,1.284-.036h5.052c.408,0,.912.012,1.248.036V32.044a12.235,12.235,0,0,1-1.248.06H15.372C14.976,32.1,14.5,32.08,14.1,32.044Zm-1.032,5.9V39.4c.432-.036.924-.06,1.368-.06h7.056c.336,0,.8.024,1.2.06V37.948a10.063,10.063,0,0,1-1.2.072H14.436C13.992,38.02,13.512,37.984,13.068,37.948Zm19.884-3.66-.912-.444a2.431,2.431,0,0,1-.72.1H27.912a10.381,10.381,0,0,1-1.056-.06v1.248c.324-.012.708-.036,1.068-.036h3.564c-.036.672-.348,2.736-.516,3.756H26.82a9.749,9.749,0,0,1-1.08-.06v1.236c.408-.012.684-.024,1.08-.024h6.468c.288,0,.792.012,1.02.024V38.8c-.276.024-.768.048-1.044.048H32.256c.168-1.116.5-3.36.6-4.128C32.88,34.6,32.916,34.42,32.952,34.288Zm4.212.36v1.488c.408-.036,1.128-.06,1.788-.06H45.48c.528,0,1.08.048,1.344.06V34.648c-.3.024-.768.072-1.344.072H38.952C38.3,34.72,37.56,34.672,37.164,34.648ZM9.456,70.808H8.028a9.278,9.278,0,0,1,.072,1.1v2.064c0,2.1-.156,3.036-1,4a5.6,5.6,0,0,1-2.88,1.56l1,1.044a6.554,6.554,0,0,0,2.868-1.752c.888-1.008,1.32-2.028,1.32-4.776V71.912C9.408,71.48,9.432,71.12,9.456,70.808Zm-5.568.1H2.508a7.751,7.751,0,0,1,.048.888v4.02c0,.348-.036.768-.048.972h1.38c-.024-.24-.048-.66-.048-.972v-4.02C3.84,71.456,3.864,71.156,3.888,70.9Zm10.236.444v1.2c.336-.024.7-.036,1.116-.036h1.476v2.316H14.544c-.348,0-.876-.024-1.212-.06v1.26c.348-.024.888-.048,1.212-.048h2.172v2.532c0,1.08.552,1.776,2.532,1.776,1.14,0,2.376-.048,3.252-.108l.072-1.284a25.91,25.91,0,0,1-3.12.168c-1.044,0-1.464-.3-1.464-.936V75.98h3.888c.264,0,.744,0,1.056.024L22.92,74.78c-.288.024-.816.048-1.068.048H17.988V72.512h2.988c.432,0,.732.024,1.032.036v-1.2a8.51,8.51,0,0,1-1.032.048H15.24C14.82,71.4,14.46,71.372,14.124,71.348Zm11.856.3V72.98c.312-.024.924-.048,1.392-.048h5.6v5.352H27.228c-.516,0-1.044-.036-1.392-.06V79.58c.348-.024.948-.048,1.44-.048h5.688c0,.252-.012.48-.012.648H34.32c-.024-.264-.048-.852-.048-1.272V72.7c0-.312.012-.744.024-1.008-.216.012-.636.024-.96.024H27.372C26.976,71.72,26.4,71.684,25.98,71.648ZM38.8,71.06,37.92,72a26.027,26.027,0,0,1,3,2.544l.948-.972A25.181,25.181,0,0,0,38.8,71.06ZM37.56,79.088l.8,1.236a13.231,13.231,0,0,0,4.6-1.788,12.269,12.269,0,0,0,4.212-4.344l-.732-1.308a11.425,11.425,0,0,1-4.164,4.524A12.469,12.469,0,0,1,37.56,79.088Z" transform="translate(46 4899)" fill="#0a0a0a"/>
    <path id="パス_6889" data-name="パス 6889" d="M-27.06-5.724A14.541,14.541,0,0,0-23.748-9a15.706,15.706,0,0,0,3.456,3.276Zm3.912,3.612h3.492v-.972h-3.492V-4.74h3v-.888a15.029,15.029,0,0,0,1.32.84,6.543,6.543,0,0,1,.732-.984A14.2,14.2,0,0,1-23.232-10.1h-1.14A13.661,13.661,0,0,1-29.28-5.64a4.4,4.4,0,0,1,.708.9,14.16,14.16,0,0,0,1.38-.888v.888h2.868v1.656h-3.432v.972h3.432v1.74h-4.4V.636H-18.6V-.372h-4.548Zm9.1-7.236-.684,1.032c.744.42,2.028,1.272,2.64,1.716l.708-1.032C-11.952-8.04-13.308-8.928-14.052-9.348Zm-1.98,8.556.708,1.236A14.06,14.06,0,0,0-11.34-1.044a14.285,14.285,0,0,0,4.692-4.3L-7.38-6.612a12.343,12.343,0,0,1-4.6,4.452A13.178,13.178,0,0,1-16.032-.792Zm.156-5.832-.684,1.032a30.032,30.032,0,0,1,2.676,1.68l.7-1.068C-13.752-5.376-15.12-6.228-15.876-6.624ZM3.756-9.192H2.328a9.278,9.278,0,0,1,.072,1.1v2.064c0,2.1-.156,3.036-1,4a5.6,5.6,0,0,1-2.88,1.56l1,1.044A6.554,6.554,0,0,0,2.388-1.176c.888-1.008,1.32-2.028,1.32-4.776V-8.088C3.708-8.52,3.732-8.88,3.756-9.192Zm-5.568.1h-1.38a7.751,7.751,0,0,1,.048.888v4.02c0,.348-.036.768-.048.972h1.38c-.024-.24-.048-.66-.048-.972v-4.02C-1.86-8.544-1.836-8.844-1.812-9.1ZM7.464-5.352v1.488c.408-.036,1.128-.06,1.788-.06H15.78c.528,0,1.08.048,1.344.06V-5.352c-.3.024-.768.072-1.344.072H9.252C8.6-5.28,7.86-5.328,7.464-5.352Zm19.38-4.512-.78.324a13.787,13.787,0,0,1,.864,1.488l-.468-.36a3.64,3.64,0,0,1-1.044.12H20.964c-.372,0-1.068-.036-1.308-.072v1.356c.192-.012.84-.072,1.308-.072h4.4A9.873,9.873,0,0,1,23.46-3.912a13.459,13.459,0,0,1-4.932,3.5L19.5.612a15.714,15.714,0,0,0,4.62-3.444A27.678,27.678,0,0,1,27.3.66l1.056-.924A31.9,31.9,0,0,0,24.924-3.78,16.735,16.735,0,0,0,26.892-7.2a3.62,3.62,0,0,1,.348-.624l-.12-.1.684-.3A16.664,16.664,0,0,0,26.844-9.864Zm1.428-.42L27.5-9.96A13.309,13.309,0,0,1,28.476-8.3l.78-.348A15.93,15.93,0,0,0,28.272-10.284Z" transform="translate(254 4801)" fill="#0a0a0a"/>
    <path id="パス_6890" data-name="パス 6890" d="M-1.152-8.052h-4.26v-2.016H-6.564v2.016h-4.248V.972H-9.7V-6.972h3.12A5.084,5.084,0,0,1-9.54-2.244a3.982,3.982,0,0,1,.792.84A6.38,6.38,0,0,0-5.964-4.416,28.726,28.726,0,0,1-3.348-1.6l.912-.732A36,36,0,0,0-5.616-5.5a9.584,9.584,0,0,0,.192-1.476h3.168v6.54c0,.216-.072.276-.3.288S-3.6-.132-4.38-.168A4.479,4.479,0,0,1-4,.96a6.646,6.646,0,0,0,2.244-.2c.444-.18.6-.516.6-1.176ZM3.84-1.644H4.884v.732H3.84Zm1.044-3v.684H3.84v-.684Zm1.38,2.28H3.84v-.888H6.264ZM9.672-5.436a10.814,10.814,0,0,1-.924,2.568A22.056,22.056,0,0,1,8.3-5.988h3.012v-.948H10.308l.528-.42A5.879,5.879,0,0,0,9.648-8.3l-.672.492a5.924,5.924,0,0,1,1.044.876H8.256c-.012-.24-.012-.492-.024-.744h.3v-.768h2.736v-.924H8.532v-.7H7.416v.7H4.548v-.7h-1.1v.7H.744v.924h2.7v.828h1.1v-.828H7.416V-7.9H7.188c.012.324.024.648.048.96H1.416v3.012A7.394,7.394,0,0,1,.408.408a4.17,4.17,0,0,1,.864.576,8.564,8.564,0,0,0,1.164-4.9V-5.988H7.3a21.722,21.722,0,0,0,.732,4.272,8.117,8.117,0,0,1-.852.96V-.912H5.688v-.732H7.044V-3.96H5.688v-.684H7.08V-5.4H2.988V.468H3.84V-.108H6.372C6.216,0,6.048.108,5.88.2a7.846,7.846,0,0,1,.864.768A8.392,8.392,0,0,0,8.46-.576C8.916.408,9.492.936,10.152.936c.876,0,1.26-.312,1.428-2.016a3,3,0,0,1-.912-.54c-.072,1.176-.192,1.5-.42,1.512C9.912-.108,9.5-.576,9.156-1.5A12.118,12.118,0,0,0,10.74-5.232Zm-24.48,44.344V35.86h5.652v3.048Zm5.652-7.08v2.928h-5.652V31.828ZM-15.948,30.7V40.816h1.14v-.78h5.652v.732h1.188V30.7ZM5.22,33.484V32.356H.576V29.932H-.6v2.424H-5.2v1.128h3.924A11.144,11.144,0,0,1-5.616,38.2a6.443,6.443,0,0,1,.792.924A12.191,12.191,0,0,0-.6,34.492v3.192H-2.8v1.128H-.6v2.124H.576V38.812H2.724V37.684H.576v-3.2a11.647,11.647,0,0,0,4.248,4.608,5.064,5.064,0,0,1,.84-.984,10.662,10.662,0,0,1-4.4-4.62Zm5.208-3.156H7.116V31.2h3.312Zm.42,1.62H6.48v.888h4.368Zm-.42,1.668H7.044v.864h3.384Zm-3.384,2.5h3.384v-.864H7.044ZM9.528,37.8v1.728H7.98V37.8Zm.972-.9H7.02v4.032h.96V40.42H10.5Zm5.22.7v1.836H12.756V37.6ZM11.7,40.936h1.056v-.5H15.72v.456h1.092v-4.3H11.7ZM15.444,33.3v1.524H13.452c.084-.456.18-.972.276-1.524Zm1.068,1.524V32.356H13.884c.048-.36.108-.708.156-1.056h3.108v-.972H11.232V31.3h1.716c-.048.336-.108.7-.156,1.056H11.424V33.3h1.212c-.084.54-.18,1.068-.276,1.524H10.848v.984h6.708v-.984ZM-36.576,75.26h1.08V72.632h3.588v1.584h1.032V71.864H-35.5v-.612h3.852V70.4H-40.38v.852h3.8v.612h-4.536v2.352h1V72.632h3.54Zm1.632-.24h2.76v-.648h-2.76Zm0-1.848v.648h2.46v-.648Zm-4.848,1.848H-37.1v-.648h-2.688Zm.24-1.848v.648h2.436v-.648Zm.564,5.316V77.8h2.352v.684Zm2.352-2.088v.708h-2.352V76.4Zm3.624.708h-2.556V76.4h2.556Zm-2.556,1.38V77.8h2.556v.684ZM-34.68,80c-.744,0-.888-.072-.888-.492V79.28h3.648V75.62h-8.136v4.236h1.068V79.28h2.352v.228c0,1.08.408,1.356,1.884,1.356h2.628c1.212,0,1.536-.372,1.68-1.824a2.328,2.328,0,0,1-.948-.36c-.072,1.116-.192,1.32-.792,1.32Zm16.116-4.812H-23.4v-1a18,18,0,0,0,3.864-2.9l-.84-.636-.252.072h-7.548v1.092H-21.8a14.037,14.037,0,0,1-2.112,1.464h-.648v1.908h-4.848V76.3h4.848v3.264c0,.2-.072.264-.324.276-.276,0-1.176.012-2.076-.024a4.7,4.7,0,0,1,.48,1.152,8.268,8.268,0,0,0,2.412-.192c.5-.192.672-.516.672-1.2V76.3h4.836Zm3.612-1.236V72.98h2.376v.972Zm0-2.748h2.376v.948h-2.376Zm5.94.948h-2.472V71.2h2.472Zm0,1.8h-2.472V72.98h2.472Zm2.364,3.312h-4.836v-.828h3.936v-.9h-3.936v-.72H-7.9V70.328H-16.02v4.488h3.444v.72h-3.732v.9h3.732v.828H-17.3v.96H-6.648Zm-9.7,3.72a5.31,5.31,0,0,0,1.392-2.208l-1.068-.264A4.566,4.566,0,0,1-17.376,80.5Zm2.412-2.088a11.081,11.081,0,0,1,.18,1.968l1.092-.12a10.865,10.865,0,0,0-.24-1.932Zm2.376.036a12.117,12.117,0,0,1,.6,1.944l1.092-.252a9.7,9.7,0,0,0-.66-1.9Zm2.388-.06A12.793,12.793,0,0,1-7.692,80.96l1.116-.408a13.023,13.023,0,0,0-1.56-2.04ZM-1,76.424c-.228-.324-1.272-1.7-1.62-2.1v-.852h1.464V72.44H-2.616V69.932H-3.66V72.44H-5.352v1.032H-3.78A12.673,12.673,0,0,1-5.64,77.78a6.219,6.219,0,0,1,.552,1.008A11.853,11.853,0,0,0-3.66,75.74v5.2h1.044V75.644a16.957,16.957,0,0,1,.96,1.656Zm4.944-1.716a9.052,9.052,0,0,1-1.26,2.868A10.44,10.44,0,0,1,1.38,74.708Zm.564-1.056-.18.036H.5v-2H5.316V70.652H-.576v3.336c0,1.884-.132,4.464-1.488,6.264a4.117,4.117,0,0,1,.888.672A10.588,10.588,0,0,0,.48,75.092a11.678,11.678,0,0,0,1.536,3.36A6.645,6.645,0,0,1-.168,80.06a3.958,3.958,0,0,1,.672.876,8.138,8.138,0,0,0,2.184-1.62,6.979,6.979,0,0,0,2.2,1.656,4.263,4.263,0,0,1,.744-.924,6.358,6.358,0,0,1-2.244-1.584,10.993,10.993,0,0,0,1.824-4.6ZM9.8,70.568l-1.188.492c.564,1.284,1.164,2.64,1.716,3.648a3.932,3.932,0,0,0-2.04,3.12c0,1.92,1.7,2.58,4.02,2.58a22.91,22.91,0,0,0,3.816-.288l.012-1.368a17.878,17.878,0,0,1-3.876.432c-1.788,0-2.688-.552-2.688-1.488,0-.876.672-1.632,1.728-2.328,1.14-.744,2.736-1.488,3.528-1.9.384-.192.72-.372,1.032-.564l-.66-1.092a6.654,6.654,0,0,1-.96.636c-.624.348-1.812.936-2.868,1.572A28.038,28.038,0,0,1,9.8,70.568ZM21.84,77.7a10.494,10.494,0,0,1-3.1,2.472,9.321,9.321,0,0,1,.9.78,13.563,13.563,0,0,0,3.372-2.8Zm3.108.54a36.3,36.3,0,0,1,3.216,2.7l1.08-.648a38.054,38.054,0,0,0-3.312-2.628Zm-2.5-4.812h3.1v2.592h-3.1Zm4.26,2.592V73.424h2.3v-1.08h-2.3V70.028H25.548v2.316h-3.1V70.028H21.3v2.316H19.08v1.08H21.3v2.592H18.624v1.092H29.412V76.016Zm10.428-2.28v.876H35.412v-.876Zm2.8.876H38.148v-.876h1.788Zm-1.788,1.716v-.9h1.788v.9Zm-2.736,0v-.9H37.14v.9Zm0,.84H37.14v1.848h1.008V77.168h1.788v.84c0,.144-.048.192-.18.192s-.6.012-1.1-.012a3.059,3.059,0,0,1,.3.9,4.564,4.564,0,0,0,1.608-.156c.348-.156.432-.408.432-.912V72.908H39.516c-.228-.132-.5-.276-.816-.42a11.864,11.864,0,0,0,2.292-1.632l-.672-.54-.228.06H34.416v.876H39.06a9.671,9.671,0,0,1-1.32.8c-.528-.228-1.08-.444-1.548-.612l-.72.6c.612.24,1.332.552,1.98.864H34.368v6.144h1.044Zm-1.884-5.1A9.519,9.519,0,0,0,31.476,70.2l-.78.7a9.232,9.232,0,0,1,2,1.98Zm-.3,2.52H30.516V75.62H32.16v2.868a18.717,18.717,0,0,1-1.788,1.248l.528,1.1c.672-.5,1.272-1,1.848-1.488A4,4,0,0,0,36,80.732c1.392.048,3.912.024,5.292-.036a5.551,5.551,0,0,1,.36-1.092c-1.524.108-4.284.144-5.64.084a3.156,3.156,0,0,1-2.784-1.26Z" transform="translate(254 4899)" fill="#0a0a0a"/>
    <path id="パス_6891" data-name="パス 6891" d="M0,0V218" transform="translate(163 4776)" fill="none" stroke="#cecece" stroke-width="1"/>
    <path id="パス_6892" data-name="パス 6892" d="M0,0H315" transform="translate(30 4816)" fill="none" stroke="#cecece" stroke-width="1"/>
    <path id="パス_6893" data-name="パス 6893" d="M0,0H315" transform="translate(30 4874)" fill="none" stroke="#cecece" stroke-width="1"/>
    <path id="パス_6894" data-name="パス 6894" d="M0,0H315" transform="translate(30 4914)" fill="none" stroke="#cecece" stroke-width="1"/>
    <path id="パス_6895" data-name="パス 6895" d="M0,0H315" transform="translate(30 4954)" fill="none" stroke="#cecece" stroke-width="1"/>
    <path id="パス_6896" data-name="パス 6896" d="M-55.506.156c1.956,0,3.276-1.068,3.276-3.948V-8.844h-1.344V-3.7c0,1.992-.816,2.64-1.932,2.64S-57.4-1.7-57.4-3.7V-8.844h-1.392v5.052C-58.794-.912-57.462.156-55.506.156ZM-49.95,0h1.392V-4.02h3.78V0h1.392V-8.844h-1.392v3.612h-3.78V-8.844H-49.95Zm8.88,0h1.392V-3.8h3.264V-4.968h-3.264v-2.7h3.84V-8.844H-41.07Zm13.8-4.56a8,8,0,0,0,2.376,5.736l.912-.432a7.468,7.468,0,0,1-2.208-5.3,7.468,7.468,0,0,1,2.208-5.3l-.912-.432A8,8,0,0,0-27.27-4.56ZM-22.41,0h5.04V-1.14H-19.1V-8.592h-1.044a5.2,5.2,0,0,1-1.92.672v.876h1.584v5.9H-22.41Zm9.024.156c1.62,0,2.952-.912,2.952-2.46a2.2,2.2,0,0,0-1.824-2.16v-.06a2.071,2.071,0,0,0,1.524-2c0-1.416-1.116-2.232-2.7-2.232a3.68,3.68,0,0,0-2.532,1.08l.72.864a2.489,2.489,0,0,1,1.764-.84A1.2,1.2,0,0,1-12.126-6.42c0,.828-.576,1.464-2.316,1.464v1.02c1.992,0,2.616.612,2.616,1.56,0,.864-.684,1.4-1.68,1.4a2.854,2.854,0,0,1-2.088-.972l-.672.888A3.666,3.666,0,0,0-13.386.156Zm7.356,0A3.269,3.269,0,0,0-3.882-.66l-.576-.912a2.261,2.261,0,0,1-1.44.6c-1.092,0-1.86-.924-1.86-2.328s.792-2.328,1.908-2.328a1.724,1.724,0,0,1,1.176.516l.684-.9a2.834,2.834,0,0,0-1.932-.756A3.239,3.239,0,0,0-9.186-3.3,3.124,3.124,0,0,0-6.03.156ZM-2.514,0h1.38V-4.68a2.211,2.211,0,0,1,1.608-.9c.78,0,1.116.456,1.116,1.6V0H2.97V-4.152c0-1.68-.624-2.616-2.028-2.616A3.071,3.071,0,0,0-1.194-5.724l.06-1.308V-9.564h-1.38ZM9.894-5.952A1.393,1.393,0,0,0,8.5-4.56,1.393,1.393,0,0,0,9.894-3.168,1.393,1.393,0,0,0,11.286-4.56,1.393,1.393,0,0,0,9.894-5.952ZM19.47-4.284c.936,0,1.464.588,1.464,1.644,0,1.092-.612,1.74-1.38,1.74-.936,0-1.572-.744-1.716-2.34A2.059,2.059,0,0,1,19.47-4.284Zm.1,4.44a2.642,2.642,0,0,0,2.64-2.8,2.346,2.346,0,0,0-2.484-2.652A2.672,2.672,0,0,0,17.8-4.26c.06-2.52,1-3.36,2.112-3.36a1.891,1.891,0,0,1,1.392.648l.756-.84a2.966,2.966,0,0,0-2.208-.948c-1.752,0-3.336,1.368-3.336,4.752C16.518-1.176,17.886.156,19.566.156ZM23.262,0h5.7V-1.176H26.718c-.432,0-1,.036-1.44.084,1.836-1.92,3.264-3.5,3.264-5.076A2.47,2.47,0,0,0,25.878-8.76,3.466,3.466,0,0,0,23.19-7.44l.78.768a2.4,2.4,0,0,1,1.74-.984,1.4,1.4,0,0,1,1.5,1.56c0,1.344-1.488,2.88-3.948,5.292ZM33.306.156A3.269,3.269,0,0,0,35.454-.66l-.576-.912a2.261,2.261,0,0,1-1.44.6c-1.092,0-1.86-.924-1.86-2.328s.792-2.328,1.908-2.328a1.724,1.724,0,0,1,1.176.516l.684-.9a2.834,2.834,0,0,0-1.932-.756A3.239,3.239,0,0,0,30.15-3.3,3.124,3.124,0,0,0,33.306.156ZM36.822,0H38.2V-4.68a2.211,2.211,0,0,1,1.608-.9c.78,0,1.116.456,1.116,1.6V0h1.38V-4.152c0-1.68-.624-2.616-2.028-2.616a3.071,3.071,0,0,0-2.136,1.044l.06-1.308V-9.564h-1.38ZM47.058-4.56A8,8,0,0,0,44.682-10.3l-.912.432a7.468,7.468,0,0,1,2.208,5.3A7.468,7.468,0,0,1,43.77.744l.912.432A8,8,0,0,0,47.058-4.56Zm8.316,6.72h.96L59.67-9.588h-.96Zm-100.764,16a3.488,3.488,0,0,0,2.748-1.272l-.744-.876a2.555,2.555,0,0,1-1.956.936c-1.56,0-2.544-1.284-2.544-3.384,0-2.076,1.056-3.348,2.58-3.348A2.349,2.349,0,0,1-43.578,11l.756-.888A3.4,3.4,0,0,0-45.33,9c-2.232,0-3.984,1.728-3.984,4.608S-47.61,18.156-45.39,18.156Zm6-4.956c.288-.96.564-1.932.816-2.94h.06c.264,1,.528,1.98.828,2.94l.348,1.188H-39.75ZM-42.246,18h1.416l.756-2.52H-37l.744,2.52h1.476L-37.71,9.156h-1.608Zm9.612,0h1.392V10.332h2.6V9.156h-6.588v1.176h2.592Zm7.1,0h1.644l2.76-8.844h-1.416L-23.85,13.74c-.288,1.008-.492,1.872-.8,2.892h-.06c-.3-1.02-.5-1.884-.8-2.892l-1.308-4.584H-28.3Zm12.552-4.56A8,8,0,0,0-10.6,19.176l.912-.432a7.468,7.468,0,0,1-2.208-5.3,7.468,7.468,0,0,1,2.208-5.3L-10.6,7.7A8,8,0,0,0-12.978,13.44Zm8.436,4.716a3.488,3.488,0,0,0,2.748-1.272l-.744-.876a2.555,2.555,0,0,1-1.956.936c-1.56,0-2.544-1.284-2.544-3.384,0-2.076,1.056-3.348,2.58-3.348A2.349,2.349,0,0,1-2.73,11l.756-.888A3.4,3.4,0,0,0-4.482,9c-2.232,0-3.984,1.728-3.984,4.608S-6.762,18.156-4.542,18.156ZM-.366,18h5.04V16.86H2.946V9.408H1.9a5.2,5.2,0,0,1-1.92.672v.876H1.566v5.9H-.366Zm9.024.156c1.62,0,2.952-.912,2.952-2.46a2.2,2.2,0,0,0-1.824-2.16v-.06a2.071,2.071,0,0,0,1.524-2c0-1.416-1.116-2.232-2.7-2.232a3.68,3.68,0,0,0-2.532,1.08l.72.864a2.489,2.489,0,0,1,1.764-.84A1.2,1.2,0,0,1,9.918,11.58c0,.828-.576,1.464-2.316,1.464v1.02c1.992,0,2.616.612,2.616,1.56,0,.864-.684,1.4-1.68,1.4a2.854,2.854,0,0,1-2.088-.972l-.672.888A3.666,3.666,0,0,0,8.658,18.156Zm4.188-3.036h3.168V14.1H12.846Zm8.328,3.036a3.488,3.488,0,0,0,2.748-1.272l-.744-.876a2.555,2.555,0,0,1-1.956.936c-1.56,0-2.544-1.284-2.544-3.384,0-2.076,1.056-3.348,2.58-3.348A2.349,2.349,0,0,1,22.986,11l.756-.888A3.4,3.4,0,0,0,21.234,9C19,9,17.25,10.728,17.25,13.608S18.954,18.156,21.174,18.156Zm6.72-4.44c.936,0,1.464.588,1.464,1.644,0,1.092-.612,1.74-1.38,1.74-.936,0-1.572-.744-1.716-2.34A2.059,2.059,0,0,1,27.894,13.716Zm.1,4.44a2.642,2.642,0,0,0,2.64-2.8,2.346,2.346,0,0,0-2.484-2.652,2.672,2.672,0,0,0-1.92,1.032c.06-2.52,1-3.36,2.112-3.36a1.891,1.891,0,0,1,1.392.648l.756-.84a2.966,2.966,0,0,0-2.208-.948c-1.752,0-3.336,1.368-3.336,4.752C24.942,16.824,26.31,18.156,27.99,18.156Zm3.7-.156h5.7V16.824H35.142c-.432,0-1,.036-1.44.084,1.836-1.92,3.264-3.5,3.264-5.076A2.47,2.47,0,0,0,34.3,9.24a3.466,3.466,0,0,0-2.688,1.32l.78.768a2.4,2.4,0,0,1,1.74-.984,1.4,1.4,0,0,1,1.5,1.56c0,1.344-1.488,2.88-3.948,5.292Zm10.14-4.56A8,8,0,0,0,39.45,7.7l-.912.432a7.475,7.475,0,0,1,0,10.608l.912.432A8,8,0,0,0,41.826,13.44Z" transform="translate(248 4841)" fill="#0a0a0a"/>
  </g>
</svg>
