<svg xmlns="http://www.w3.org/2000/svg" width="315" height="560" viewBox="0 0 315 560">
  <g id="グループ_3983" data-name="グループ 3983" transform="translate(-30 -2319)">
    <path id="パス_6844" data-name="パス 6844" d="M0,0H101V560H0Z" transform="translate(30 2319)" fill="#e4f5f2"/>
    <g id="パス_6845" data-name="パス 6845" transform="translate(30 2319)" fill="none">
      <path d="M0,0H315V560H0Z" stroke="none"/>
      <path d="M 1 1 L 1 559 L 314 559 L 314 1 L 1 1 M 0 0 L 315 0 L 315 560 L 0 560 L 0 0 Z" stroke="none" fill="#cecece"/>
    </g>
    <path id="パス_6846" data-name="パス 6846" d="M4.188-6.864a16.064,16.064,0,0,1-.66,2.784c-.576-.7-1.176-1.392-1.752-1.992L1-5.436a31.185,31.185,0,0,1,2.052,2.5A6.983,6.983,0,0,1,.384-.012,6.185,6.185,0,0,1,1.14.852a8.117,8.117,0,0,0,2.592-2.82,12.122,12.122,0,0,1,.936,1.62l.9-.756a14.669,14.669,0,0,0-1.284-2,16.269,16.269,0,0,0,1-3.612Zm7.3-.444H10.128v-2.76h-1.1v2.76H6.252V-8.16H3.936v-1.9H2.856v1.9H.672v1.032H5.88v.9H9.024V-.5c0,.2-.084.264-.288.264s-.852.012-1.572-.012A5.158,5.158,0,0,1,7.524.936,5.667,5.667,0,0,0,9.588.708c.384-.2.54-.528.54-1.212V-6.228h1.356ZM8.124-2.532a9.023,9.023,0,0,0-1.308-2.58L5.9-4.68a9.991,9.991,0,0,1,1.26,2.628Zm6.444-4.992h8.82V-8.6H18.936v-1.464H17.772V-8.6h-4.32v3.048C13.452-3.84,13.368-1.4,12.4.3a5.688,5.688,0,0,1,.948.636c1.044-1.836,1.224-4.62,1.224-6.492Zm6.252,1.98A14.934,14.934,0,0,0,18-7.3l-.756.732a14.8,14.8,0,0,1,2.772,1.848Zm-5.352,5.4a10.39,10.39,0,0,0,1-3.84l-1.02-.228a9.067,9.067,0,0,1-.972,3.624ZM18.7-.288c-.408,0-.492-.072-.492-.492v-4.4H17.112v4.4c0,1.14.288,1.5,1.416,1.5h1.56c1.056,0,1.344-.552,1.452-2.544a3.511,3.511,0,0,1-.984-.456C20.5-.588,20.436-.288,20-.288ZM20.964-4.1a13.23,13.23,0,0,1,1.584,3.96L23.64-.6a12.825,12.825,0,0,0-1.692-3.9Zm5.16-4.548v1.2c.336-.024.7-.036,1.116-.036h1.476v2.316H26.544c-.348,0-.876-.024-1.212-.06v1.26c.348-.024.888-.048,1.212-.048h2.172v2.532c0,1.08.552,1.776,2.532,1.776C32.388.288,33.624.24,34.5.18L34.572-1.1a25.911,25.911,0,0,1-3.12.168c-1.044,0-1.464-.3-1.464-.936V-4.02h3.888c.264,0,.744,0,1.056.024L34.92-5.22c-.288.024-.816.048-1.068.048H29.988V-7.488h2.988c.432,0,.732.024,1.032.036v-1.2a8.51,8.51,0,0,1-1.032.048H27.24C26.82-8.6,26.46-8.628,26.124-8.652Zm12.24-.24v1.236c.324-.024.768-.048,1.176-.048h4.044c.384,0,.816.024,1.2.048V-8.892a10.063,10.063,0,0,1-1.2.072H39.528A9.049,9.049,0,0,1,38.364-8.892ZM36.948-5.856v1.248c.336-.024.732-.036,1.092-.036h3.468a5.547,5.547,0,0,1-.72,2.832,5,5,0,0,1-2.22,1.788l1.1.816A5.868,5.868,0,0,0,42.06-1.452,7.366,7.366,0,0,0,42.8-4.644h3.1c.312,0,.72.012,1.008.024V-5.856A7.655,7.655,0,0,1,45.9-5.8H38.04A10.515,10.515,0,0,1,36.948-5.856Zm8.5-3.948-.768.324a14.323,14.323,0,0,1,.948,1.656l.792-.336A17.39,17.39,0,0,0,45.444-9.8ZM46.8-10.32,46.032-10a12.044,12.044,0,0,1,.984,1.656l.78-.348A15.292,15.292,0,0,0,46.8-10.32ZM54.18-.264l.792.66a3.73,3.73,0,0,1,.456-.3A12.626,12.626,0,0,0,59.52-3.216l-.732-1.032a8.442,8.442,0,0,1-3.264,2.76V-8.124a7.227,7.227,0,0,1,.06-.96H54.192a8.8,8.8,0,0,1,.072.96v7.1A3.461,3.461,0,0,1,54.18-.264ZM48.648-.372,49.8.4a6.742,6.742,0,0,0,2.136-3.36,26.289,26.289,0,0,0,.372-5.124,8.982,8.982,0,0,1,.06-.96H50.976a3.74,3.74,0,0,1,.1.972,20.807,20.807,0,0,1-.348,4.788A5.555,5.555,0,0,1,48.648-.372ZM4.524,40.156c2.268,0,3.852-1.764,3.852-4.608S6.792,31,4.524,31,.684,32.7.684,35.548,2.256,40.156,4.524,40.156Zm0-1.212c-1.464,0-2.412-1.332-2.412-3.4s.948-3.336,2.412-3.336,2.424,1.26,2.424,3.336S5.988,38.944,4.524,38.944Zm8.208,1.212c1.932,0,3.108-1.152,3.108-2.568a2.466,2.466,0,0,0-1.8-2.388l-1.212-.516c-.72-.288-1.428-.576-1.428-1.344,0-.7.588-1.128,1.488-1.128A2.813,2.813,0,0,1,14.832,33l.732-.888A3.783,3.783,0,0,0,12.888,31a2.625,2.625,0,0,0-2.9,2.436,2.541,2.541,0,0,0,1.8,2.316l1.224.528c.816.36,1.416.612,1.416,1.416,0,.744-.6,1.248-1.668,1.248A3.424,3.424,0,0,1,10.4,37.9l-.816.96A4.406,4.406,0,0,0,12.732,40.156Zm-8.124,40a3.488,3.488,0,0,0,2.748-1.272l-.744-.876a2.555,2.555,0,0,1-1.956.936c-1.56,0-2.544-1.284-2.544-3.384,0-2.076,1.056-3.348,2.58-3.348A2.349,2.349,0,0,1,6.42,73l.756-.888A3.4,3.4,0,0,0,4.668,71C2.436,71,.684,72.728.684,75.608S2.388,80.156,4.608,80.156ZM8.916,80h1.392V76.652H11.64c1.92,0,3.324-.888,3.324-2.82,0-1.992-1.4-2.676-3.372-2.676H8.916Zm1.392-4.464V72.284H11.46c1.4,0,2.136.384,2.136,1.548s-.672,1.7-2.088,1.7Zm9.612,4.62c1.956,0,3.276-1.068,3.276-3.948V71.156H21.852V76.3c0,1.992-.816,2.64-1.932,2.64s-1.9-.648-1.9-2.64V71.156H16.632v5.052C16.632,79.088,17.964,80.156,19.92,80.156ZM9.888,111.228,8.5,110.736a8.448,8.448,0,0,1-.264.984,13.275,13.275,0,0,1-1.5,3.1c-.96-.732-2.292-1.656-3.3-2.292l-.792.96a34.075,34.075,0,0,1,3.312,2.364,13.042,13.042,0,0,1-4.668,3.672l1.056.948a14.982,14.982,0,0,0,4.6-3.8,26.771,26.771,0,0,1,2.76,2.712l.96-1.056a29.39,29.39,0,0,0-2.928-2.712A17.207,17.207,0,0,0,9.456,112.2,8.852,8.852,0,0,1,9.888,111.228Zm4.236.12v1.2c.336-.024.7-.036,1.116-.036h1.476v2.316H14.544c-.348,0-.876-.024-1.212-.06v1.26c.348-.024.888-.048,1.212-.048h2.172v2.532c0,1.08.552,1.776,2.532,1.776,1.14,0,2.376-.048,3.252-.108l.072-1.284a25.91,25.91,0,0,1-3.12.168c-1.044,0-1.464-.3-1.464-.936V115.98h3.888c.264,0,.744,0,1.056.024l-.012-1.224c-.288.024-.816.048-1.068.048H17.988v-2.316h2.988c.432,0,.732.024,1.032.036v-1.2a8.51,8.51,0,0,1-1.032.048H15.24C14.82,111.4,14.46,111.372,14.124,111.348Zm19.332-.54H32.028a9.278,9.278,0,0,1,.072,1.1v2.064c0,2.1-.156,3.036-1,4a5.6,5.6,0,0,1-2.88,1.56l1,1.044a6.554,6.554,0,0,0,2.868-1.752c.888-1.008,1.32-2.028,1.32-4.776v-2.136C33.408,111.48,33.432,111.12,33.456,110.808Zm-5.568.1h-1.38a7.751,7.751,0,0,1,.048.888v4.02c0,.348-.036.768-.048.972h1.38c-.024-.24-.048-.66-.048-.972v-4.02C27.84,111.456,27.864,111.156,27.888,110.9ZM9.78,151.924,9,151.348a3.64,3.64,0,0,1-1.044.12H3.5a12.84,12.84,0,0,1-1.308-.084v1.356c.192-.012.84-.072,1.308-.072h4.4A9.873,9.873,0,0,1,6,155.836a13.484,13.484,0,0,1-4.932,3.516l.972,1.02a15.753,15.753,0,0,0,4.62-3.456,26.931,26.931,0,0,1,3.18,3.5l1.056-.936a31.9,31.9,0,0,0-3.432-3.516,16.425,16.425,0,0,0,1.968-3.42A4.142,4.142,0,0,1,9.78,151.924Zm6.144,6.972a12.562,12.562,0,0,1-.1,1.536H17.3a14.06,14.06,0,0,1-.1-1.536v-3.708a31.421,31.421,0,0,1,4.536,1.872l.54-1.308a40.676,40.676,0,0,0-5.076-1.92V151.96c0-.42.048-.948.084-1.344H15.816a8.687,8.687,0,0,1,.108,1.344Zm10.6.684.888.756a2.489,2.489,0,0,1,.6-.252,14.4,14.4,0,0,0,7-4.308l-.684-1.056a13.325,13.325,0,0,1-6.384,4.032v-6.564a7.837,7.837,0,0,1,.1-1.2H26.544a7.1,7.1,0,0,1,.108,1.212v6.708A1.324,1.324,0,0,1,26.52,159.58Zm10.644-4.932v1.488c.408-.036,1.128-.06,1.788-.06H45.48c.528,0,1.08.048,1.344.06v-1.488c-.3.024-.768.072-1.344.072H38.952C38.3,154.72,37.56,154.672,37.164,154.648Zm19.26-3.72-.816.348a10.69,10.69,0,0,1,1.08,1.884l.84-.36A17.481,17.481,0,0,0,56.424,150.928Zm1.608-.576-.828.348a11.662,11.662,0,0,1,1.128,1.848l.84-.372A17.577,17.577,0,0,0,58.032,150.352Zm-6.768.372-.684,1.044c.732.42,2.016,1.26,2.628,1.7l.72-1.032C53.352,152.032,52.008,151.144,51.264,150.724Zm-1.992,8.556.708,1.236a13.782,13.782,0,0,0,8.676-5.784l-.732-1.272a12.254,12.254,0,0,1-4.6,4.452A13.178,13.178,0,0,1,49.272,159.28Zm.156-5.832-.672,1.032a29.792,29.792,0,0,1,2.664,1.68l.7-1.068C51.552,154.7,50.184,153.856,49.428,153.448ZM2.076,200h1.68l1.164-4.908c.144-.7.288-1.356.42-2.028h.048c.12.672.252,1.332.408,2.028L6.984,200H8.7l1.74-8.844H9.108l-.84,4.608c-.144.924-.3,1.872-.444,2.832h-.06c-.2-.96-.4-1.908-.6-2.832l-1.14-4.608H4.788l-1.14,4.608c-.2.936-.408,1.884-.6,2.832H3c-.156-.948-.312-1.9-.468-2.832L1.7,191.156H.276Zm9.7,0h1.38v-6.6h-1.38Zm.684-7.836a.823.823,0,1,0,0-1.644.823.823,0,1,0,0,1.644Zm2.28,4.956H17.9V196.1H14.736ZM19.62,200h1.392v-3.8h3.264v-1.164H21.012v-2.7h3.84v-1.176H19.62Zm6.672,0h1.38v-6.6h-1.38Zm.684-7.836a.823.823,0,1,0,0-1.644.823.823,0,1,0,0,1.644Z" transform="translate(46 2344)" fill="#0a0a0a"/>
    <path id="パス_6847" data-name="パス 6847" d="M4.4.156C6.36.156,7.68-.912,7.68-3.792V-8.844H6.336V-3.7c0,1.992-.816,2.64-1.932,2.64s-1.9-.648-1.9-2.64V-8.844H1.116v5.052C1.116-.912,2.448.156,4.4.156Zm7.944,0C14.28.156,15.456-1,15.456-2.412a2.466,2.466,0,0,0-1.8-2.388l-1.212-.516c-.72-.288-1.428-.576-1.428-1.344,0-.7.588-1.128,1.488-1.128A2.813,2.813,0,0,1,14.448-7l.732-.888A3.783,3.783,0,0,0,12.5-9,2.625,2.625,0,0,0,9.6-6.564a2.541,2.541,0,0,0,1.8,2.316l1.224.528c.816.36,1.416.612,1.416,1.416,0,.744-.6,1.248-1.668,1.248A3.424,3.424,0,0,1,10.02-2.1L9.2-1.14A4.406,4.406,0,0,0,12.348.156ZM17.124,0h2.952c1.956,0,3.384-.84,3.384-2.592a2.028,2.028,0,0,0-1.74-2.1v-.06A1.964,1.964,0,0,0,22.98-6.66c0-1.6-1.308-2.184-3.12-2.184H17.124Zm1.392-5.148v-2.6H19.74c1.248,0,1.872.348,1.872,1.272,0,.828-.564,1.332-1.908,1.332Zm0,4.056V-4.1h1.4c1.4,0,2.172.444,2.172,1.44,0,1.08-.792,1.572-2.172,1.572ZM1.164,160H6.3v-1.176H2.556v-7.668H1.164Zm8.388-4.8c.288-.96.564-1.932.816-2.94h.06c.264,1,.528,1.98.828,2.94l.348,1.188H9.192ZM6.7,160H8.112l.756-2.52H11.94l.744,2.52H14.16l-2.928-8.844H9.624Zm8.628,0h1.32v-4.164c0-.96-.108-1.98-.18-2.892h.06l.924,1.848L20.376,160H21.8v-8.844h-1.32v4.128c0,.96.108,2.028.18,2.94H20.6l-.924-1.872-2.928-5.2H15.324ZM8.6,196.556v1.056H3.528v-1.056Zm-5.076,3.036v-1.116H8.6v1.116Zm-1.116,1.356H3.528v-.42H8.6v.4H9.78v-5.316H2.412ZM8,191.96a11.9,11.9,0,0,1-.684,1.632l.528.132H4.176l.576-.132a5.539,5.539,0,0,0-.672-1.632Zm.444,1.764c.252-.432.54-1.032.816-1.62l-.672-.144h2.16v-1.008H6.564v-1.02H5.388v1.02H1.368v1.008h2.3l-.732.144a6.212,6.212,0,0,1,.636,1.62H.7v1h10.62v-1Zm8.988,1.788V197.1H14.868a9.235,9.235,0,0,0,.048-.972v-.612Zm3.84,1.584h-2.76v-1.584h2.76Zm1.116-2.5H13.824v1.512a5.405,5.405,0,0,1-1.476,4.128,4.414,4.414,0,0,1,.876.756,5.471,5.471,0,0,0,1.512-2.952h6.54v.612h1.116Zm.744-2.76v-.948H18.528v-.972H17.412v.972h-4.56v.948h4.56v.984H13.584v.948h9.024v-.948h-4.08v-.984ZM1.164,240H2.556v-4.02h3.78V240H7.728v-8.844H6.336v3.612H2.556v-3.612H1.164Zm8.88,0h2.364c2.64,0,4.188-1.584,4.188-4.452s-1.548-4.392-4.26-4.392H10.044Zm1.392-1.14V232.3h.8c1.9,0,2.916,1.044,2.916,3.252s-1.02,3.312-2.916,3.312Zm7,1.14H19.68v-4.368c0-.792-.108-1.932-.168-2.736h.048l.7,2.04,1.548,4.212h.864l1.536-4.212.708-2.04h.048c-.072.8-.18,1.944-.18,2.736V240h1.3v-8.844H24.468l-1.6,4.476c-.2.588-.372,1.188-.576,1.776h-.06c-.2-.588-.384-1.188-.588-1.776l-1.62-4.476h-1.6Zm9.96,0h1.392v-8.844H28.392ZM8.6,276.556v1.056H3.528v-1.056Zm-5.076,3.036v-1.116H8.6v1.116Zm-1.116,1.356H3.528v-.42H8.6v.4H9.78v-5.316H2.412ZM8,271.96a11.9,11.9,0,0,1-.684,1.632l.528.132H4.176l.576-.132a5.539,5.539,0,0,0-.672-1.632Zm.444,1.764c.252-.432.54-1.032.816-1.62l-.672-.144h2.16v-1.008H6.564v-1.02H5.388v1.02H1.368v1.008h2.3l-.732.144a6.212,6.212,0,0,1,.636,1.62H.7v1h10.62v-1Zm8.988,1.788V277.1H14.868a9.235,9.235,0,0,0,.048-.972v-.612Zm3.84,1.584h-2.76v-1.584h2.76Zm1.116-2.5H13.824v1.512a5.405,5.405,0,0,1-1.476,4.128,4.414,4.414,0,0,1,.876.756,5.471,5.471,0,0,0,1.512-2.952h6.54v.612h1.116Zm.744-2.76v-.948H18.528v-.972H17.412v.972h-4.56v.948h4.56v.984H13.584v.948h9.024v-.948h-4.08v-.984Z" transform="translate(91 2584)" fill="#0a0a0a"/>
    <path id="パス_6848" data-name="パス 6848" d="M-27.06-5.724A14.541,14.541,0,0,0-23.748-9a15.706,15.706,0,0,0,3.456,3.276Zm3.912,3.612h3.492v-.972h-3.492V-4.74h3v-.888a15.029,15.029,0,0,0,1.32.84,6.543,6.543,0,0,1,.732-.984A14.2,14.2,0,0,1-23.232-10.1h-1.14A13.661,13.661,0,0,1-29.28-5.64a4.4,4.4,0,0,1,.708.9,14.16,14.16,0,0,0,1.38-.888v.888h2.868v1.656h-3.432v.972h3.432v1.74h-4.4V.636H-18.6V-.372h-4.548Zm9.1-7.236-.684,1.032c.744.42,2.028,1.272,2.64,1.716l.708-1.032C-11.952-8.04-13.308-8.928-14.052-9.348Zm-1.98,8.556.708,1.236A14.06,14.06,0,0,0-11.34-1.044a14.285,14.285,0,0,0,4.692-4.3L-7.38-6.612a12.343,12.343,0,0,1-4.6,4.452A13.178,13.178,0,0,1-16.032-.792Zm.156-5.832-.684,1.032a30.032,30.032,0,0,1,2.676,1.68l.7-1.068C-13.752-5.376-15.12-6.228-15.876-6.624ZM3.756-9.192H2.328a9.278,9.278,0,0,1,.072,1.1v2.064c0,2.1-.156,3.036-1,4a5.6,5.6,0,0,1-2.88,1.56l1,1.044A6.554,6.554,0,0,0,2.388-1.176c.888-1.008,1.32-2.028,1.32-4.776V-8.088C3.708-8.52,3.732-8.88,3.756-9.192Zm-5.568.1h-1.38a7.751,7.751,0,0,1,.048.888v4.02c0,.348-.036.768-.048.972h1.38c-.024-.24-.048-.66-.048-.972v-4.02C-1.86-8.544-1.836-8.844-1.812-9.1ZM7.464-5.352v1.488c.408-.036,1.128-.06,1.788-.06H15.78c.528,0,1.08.048,1.344.06V-5.352c-.3.024-.768.072-1.344.072H9.252C8.6-5.28,7.86-5.328,7.464-5.352Zm19.38-4.512-.78.324a13.787,13.787,0,0,1,.864,1.488l-.468-.36a3.64,3.64,0,0,1-1.044.12H20.964c-.372,0-1.068-.036-1.308-.072v1.356c.192-.012.84-.072,1.308-.072h4.4A9.873,9.873,0,0,1,23.46-3.912a13.459,13.459,0,0,1-4.932,3.5L19.5.612a15.714,15.714,0,0,0,4.62-3.444A27.678,27.678,0,0,1,27.3.66l1.056-.924A31.9,31.9,0,0,0,24.924-3.78,16.735,16.735,0,0,0,26.892-7.2a3.62,3.62,0,0,1,.348-.624l-.12-.1.684-.3A16.664,16.664,0,0,0,26.844-9.864Zm1.428-.42L27.5-9.96A13.309,13.309,0,0,1,28.476-8.3l.78-.348A15.93,15.93,0,0,0,28.272-10.284ZM-94.41,40h1.68l1.164-4.908c.144-.7.288-1.356.42-2.028h.048c.12.672.252,1.332.408,2.028L-89.5,40h1.716l1.74-8.844h-1.332l-.84,4.608c-.144.924-.3,1.872-.444,2.832h-.06c-.2-.96-.4-1.908-.6-2.832l-1.14-4.608H-91.7l-1.14,4.608c-.2.936-.408,1.884-.6,2.832h-.048c-.156-.948-.312-1.9-.468-2.832l-.828-4.608H-96.21Zm9.7,0h1.38V33.4h-1.38Zm.684-7.836a.8.8,0,0,0,.864-.828.8.8,0,0,0-.864-.816.791.791,0,0,0-.852.816A.794.794,0,0,0-84.03,32.164ZM-81.27,40h1.38V35.32a2.211,2.211,0,0,1,1.608-.9c.78,0,1.116.456,1.116,1.6V40h1.38V35.848c0-1.68-.624-2.616-2.028-2.616A3.145,3.145,0,0,0-80,34.312h-.036l-.108-.912H-81.27Zm9.768.156a2.766,2.766,0,0,0,1.92-.9h.048l.108.744H-68.3V30.436h-1.38v2.448l.06,1.092a2.546,2.546,0,0,0-1.776-.744c-1.476,0-2.832,1.332-2.832,3.468C-74.226,38.9-73.158,40.156-71.5,40.156Zm.324-1.14c-1.032,0-1.62-.828-1.62-2.328,0-1.428.744-2.3,1.668-2.3a2.07,2.07,0,0,1,1.452.6v3.228A1.94,1.94,0,0,1-71.178,39.016Zm7.6,1.14A3.174,3.174,0,0,0-60.474,36.7a3.185,3.185,0,0,0-3.108-3.468A3.185,3.185,0,0,0-66.69,36.7,3.174,3.174,0,0,0-63.582,40.156Zm0-1.128c-1.032,0-1.68-.924-1.68-2.328s.648-2.328,1.68-2.328,1.692.936,1.692,2.328S-62.538,39.028-63.582,39.028Zm5.724.972h1.6l.8-3.252c.168-.624.288-1.236.42-1.92h.06c.144.684.264,1.284.42,1.908l.84,3.264h1.656l1.7-6.6h-1.3l-.852,3.564c-.144.648-.252,1.248-.384,1.884h-.048c-.156-.636-.288-1.236-.444-1.884L-54.33,33.4H-55.6l-.936,3.564c-.156.636-.288,1.248-.432,1.884h-.048c-.12-.636-.228-1.236-.36-1.884l-.876-3.564h-1.392Zm10.656.156c1.632,0,2.508-.9,2.508-2,0-1.248-1.02-1.656-1.944-2-.72-.264-1.368-.48-1.368-1.044,0-.456.336-.816,1.068-.816a2.466,2.466,0,0,1,1.464.576l.648-.852a3.439,3.439,0,0,0-2.136-.78c-1.464,0-2.352.828-2.352,1.932s.972,1.584,1.86,1.92c.708.276,1.452.54,1.452,1.14,0,.5-.372.888-1.164.888a2.991,2.991,0,0,1-1.872-.756l-.648.888A4.087,4.087,0,0,0-47.2,40.156Zm3.96-.156h5.04V38.86H-39.93V31.408h-1.044a5.2,5.2,0,0,1-1.92.672v.876h1.584v5.9h-1.932Zm6.84,0h5.04V38.86H-33.09V31.408h-1.044a5.2,5.2,0,0,1-1.92.672v.876h1.584v5.9H-36.4Zm9.672,0h1.392V36.652h1.332c1.92,0,3.324-.888,3.324-2.82,0-1.992-1.4-2.676-3.372-2.676H-26.73Zm1.392-4.464V32.284h1.152c1.4,0,2.136.384,2.136,1.548s-.672,1.7-2.088,1.7ZM-19.086,40h1.38V35.884c.408-1.044,1.056-1.416,1.6-1.416a1.953,1.953,0,0,1,.66.108l.252-1.2a1.642,1.642,0,0,0-.744-.144,2.281,2.281,0,0,0-1.872,1.356h-.036l-.108-1.188h-1.128Zm7.416.156A3.174,3.174,0,0,0-8.562,36.7a3.185,3.185,0,0,0-3.108-3.468A3.185,3.185,0,0,0-14.778,36.7,3.174,3.174,0,0,0-11.67,40.156Zm0-1.128c-1.032,0-1.68-.924-1.68-2.328s.648-2.328,1.68-2.328,1.692.936,1.692,2.328S-10.626,39.028-11.67,39.028ZM-6.75,40h1.38V34.5h1.332V33.4H-5.37v-.84c0-.8.288-1.188.876-1.188a1.8,1.8,0,0,1,.72.168L-3.5,30.5a3.247,3.247,0,0,0-1.164-.216c-1.476,0-2.088.936-2.088,2.292V33.4l-.9.072V34.5h.9Zm6.528.156a4,4,0,0,0,2.232-.7l-.48-.876a2.8,2.8,0,0,1-1.572.492,1.993,1.993,0,0,1-2.04-2.016H2.2a3.577,3.577,0,0,0,.072-.708c0-1.86-.948-3.12-2.7-3.12A3.208,3.208,0,0,0-3.438,36.7,3.174,3.174,0,0,0-.222,40.156ZM-2.094,36.1A1.787,1.787,0,0,1-.4,34.312c.96,0,1.476.66,1.476,1.788ZM5.6,40.156c1.632,0,2.508-.9,2.508-2,0-1.248-1.02-1.656-1.944-2-.72-.264-1.368-.48-1.368-1.044,0-.456.336-.816,1.068-.816a2.466,2.466,0,0,1,1.464.576l.648-.852a3.439,3.439,0,0,0-2.136-.78c-1.464,0-2.352.828-2.352,1.932s.972,1.584,1.86,1.92c.708.276,1.452.54,1.452,1.14,0,.5-.372.888-1.164.888a2.991,2.991,0,0,1-1.872-.756l-.648.888A4.087,4.087,0,0,0,5.6,40.156Zm5.76,0c1.632,0,2.508-.9,2.508-2,0-1.248-1.02-1.656-1.944-2-.72-.264-1.368-.48-1.368-1.044,0-.456.336-.816,1.068-.816a2.466,2.466,0,0,1,1.464.576l.648-.852a3.439,3.439,0,0,0-2.136-.78c-1.464,0-2.352.828-2.352,1.932s.972,1.584,1.86,1.92c.708.276,1.452.54,1.452,1.14,0,.5-.372.888-1.164.888a2.991,2.991,0,0,1-1.872-.756l-.648.888A4.087,4.087,0,0,0,11.358,40.156ZM15.33,40h1.38V33.4H15.33Zm.684-7.836a.823.823,0,1,0,0-1.644.823.823,0,1,0,0,1.644Zm5.4,7.992A3.174,3.174,0,0,0,24.522,36.7a3.127,3.127,0,1,0-6.216,0A3.174,3.174,0,0,0,21.414,40.156Zm0-1.128c-1.032,0-1.68-.924-1.68-2.328s.648-2.328,1.68-2.328,1.692.936,1.692,2.328S22.458,39.028,21.414,39.028ZM26.142,40h1.38V35.32a2.211,2.211,0,0,1,1.608-.9c.78,0,1.116.456,1.116,1.6V40h1.38V35.848c0-1.68-.624-2.616-2.028-2.616a3.145,3.145,0,0,0-2.184,1.08h-.036L27.27,33.4H26.142Zm9.048.156a3.281,3.281,0,0,0,2.1-.912h.048l.108.756h1.128V36.028c0-1.752-.756-2.8-2.4-2.8a5.055,5.055,0,0,0-2.664.864l.516.936a3.63,3.63,0,0,1,1.908-.672c.972,0,1.248.672,1.26,1.44-2.748.3-3.948,1.032-3.948,2.448A1.823,1.823,0,0,0,35.19,40.156Zm.42-1.092c-.588,0-1.032-.264-1.032-.912,0-.744.66-1.248,2.616-1.476V38.3A2.327,2.327,0,0,1,35.61,39.064ZM41.9,40.156a2.164,2.164,0,0,0,.744-.108L42.462,39a.959.959,0,0,1-.228.024c-.168,0-.324-.132-.324-.5V30.436H40.53v8.016C40.53,39.52,40.9,40.156,41.9,40.156Zm9.336-4.716a8,8,0,0,0,2.376,5.736l.912-.432a7.475,7.475,0,0,1,0-10.608L53.61,29.7A8,8,0,0,0,51.234,35.44Zm7.4.276c.936,0,1.464.588,1.464,1.644,0,1.092-.612,1.74-1.38,1.74-.936,0-1.572-.744-1.716-2.34A2.059,2.059,0,0,1,58.638,35.716Zm.1,4.44a2.642,2.642,0,0,0,2.64-2.8,2.346,2.346,0,0,0-2.484-2.652,2.672,2.672,0,0,0-1.92,1.032c.06-2.52,1-3.36,2.112-3.36a1.891,1.891,0,0,1,1.392.648l.756-.84a2.966,2.966,0,0,0-2.208-.948c-1.752,0-3.336,1.368-3.336,4.752C55.686,38.824,57.054,40.156,58.734,40.156Zm4.8-3.5,1.74-2.616c.252-.444.492-.852.708-1.284h.048c-.024.48-.06,1.248-.06,1.728v2.172ZM65.97,40h1.3V37.72h1.116V36.652H67.266V31.408H65.658L62.142,36.8v.924H65.97Zm6.888.156c1.488,0,2.844-1.3,2.844-3.564,0-2.028-.948-3.36-2.616-3.36a3.15,3.15,0,0,0-1.968.864l.048-1.128V30.436h-1.38V40h1.08L71,39.316h.036A2.8,2.8,0,0,0,72.858,40.156Zm-.264-1.14a2.187,2.187,0,0,1-1.428-.6V35.188a2.25,2.25,0,0,1,1.56-.8c1.1,0,1.548.852,1.548,2.232C74.274,38.164,73.554,39.016,72.594,39.016Zm4.74.984h1.38V33.4h-1.38Zm.684-7.836a.823.823,0,1,0,0-1.644.823.823,0,1,0,0,1.644ZM83,40.156a4.223,4.223,0,0,0,1.3-.24l-.252-1.02a1.968,1.968,0,0,1-.708.156c-.684,0-.96-.408-.96-1.2V34.5H84.09V33.4H82.374V31.576H81.222L81.066,33.4l-1.032.072V34.5h.96V37.84C80.994,39.232,81.51,40.156,83,40.156Zm5.316-4.716A8,8,0,0,0,85.938,29.7l-.912.432a7.475,7.475,0,0,1,0,10.608l.912.432A8,8,0,0,0,88.314,35.44ZM-33.066,80h1.392V71.156h-1.392Zm3.588,0h1.38V75.32a2.211,2.211,0,0,1,1.608-.9c.78,0,1.116.456,1.116,1.6V80h1.38V75.848c0-1.68-.624-2.616-2.028-2.616a3.145,3.145,0,0,0-2.184,1.08h-.036l-.108-.912h-1.128Zm9.708.156a4.223,4.223,0,0,0,1.3-.24l-.252-1.02a1.968,1.968,0,0,1-.708.156c-.684,0-.96-.408-.96-1.2V74.5h1.716V73.4h-1.716V71.576h-1.152L-21.7,73.4l-1.032.072V74.5h.96V77.84C-21.774,79.232-21.258,80.156-19.77,80.156Zm5.076,0a4,4,0,0,0,2.232-.7l-.48-.876a2.8,2.8,0,0,1-1.572.492,1.993,1.993,0,0,1-2.04-2.016h4.284a3.577,3.577,0,0,0,.072-.708c0-1.86-.948-3.12-2.7-3.12A3.208,3.208,0,0,0-17.91,76.7,3.174,3.174,0,0,0-14.694,80.156ZM-16.566,76.1a1.787,1.787,0,0,1,1.692-1.788c.96,0,1.476.66,1.476,1.788Zm7.272,4.056a2.164,2.164,0,0,0,.744-.108L-8.73,79a.958.958,0,0,1-.228.024c-.168,0-.324-.132-.324-.5V70.436h-1.38v8.016C-10.662,79.52-10.29,80.156-9.294,80.156Zm8.472,0a3.488,3.488,0,0,0,2.748-1.272l-.744-.876a2.555,2.555,0,0,1-1.956.936c-1.56,0-2.544-1.284-2.544-3.384,0-2.076,1.056-3.348,2.58-3.348A2.349,2.349,0,0,1,.99,73l.756-.888A3.4,3.4,0,0,0-.762,71c-2.232,0-3.984,1.728-3.984,4.608S-3.042,80.156-.822,80.156Zm6.828,0a3.482,3.482,0,0,0,0-6.924,3.482,3.482,0,0,0,0,6.924Zm0-1.128c-1.032,0-1.68-.924-1.68-2.328s.648-2.328,1.68-2.328S7.7,75.308,7.7,76.7,7.05,79.028,6.006,79.028ZM10.734,80h1.38V75.884c.408-1.044,1.056-1.416,1.6-1.416a1.953,1.953,0,0,1,.66.108l.252-1.2a1.642,1.642,0,0,0-.744-.144,2.281,2.281,0,0,0-1.872,1.356H11.97L11.862,73.4H10.734Zm7.524.156a4,4,0,0,0,2.232-.7l-.48-.876a2.8,2.8,0,0,1-1.572.492A1.993,1.993,0,0,1,16.4,77.06h4.284a3.577,3.577,0,0,0,.072-.708c0-1.86-.948-3.12-2.7-3.12A3.208,3.208,0,0,0,15.042,76.7,3.174,3.174,0,0,0,18.258,80.156ZM16.386,76.1a1.787,1.787,0,0,1,1.692-1.788c.96,0,1.476.66,1.476,1.788Zm8.6,3.9h1.38V73.4H24.99Zm.684-7.836a.823.823,0,1,0,0-1.644.823.823,0,1,0,0,1.644Zm4.932,7.992a2.855,2.855,0,0,0,2.976-2.94,2.477,2.477,0,0,0-2.688-2.676,2.519,2.519,0,0,0-1.212.3l.2-2.268h3.276V71.408H28.686l-.264,4.2.672.432a2.324,2.324,0,0,1,1.416-.5,1.582,1.582,0,0,1,1.68,1.728,1.672,1.672,0,0,1-1.752,1.764,2.826,2.826,0,0,1-2.064-.948l-.66.9A3.909,3.909,0,0,0,30.606,80.156Zm-38.8,40c1.7,0,2.856-1.008,2.856-2.316a2.49,2.49,0,0,0-1.488-2.22v-.06a2.659,2.659,0,0,0,1.164-2.016,2.267,2.267,0,0,0-2.5-2.3,2.3,2.3,0,0,0-2.52,2.256,2.443,2.443,0,0,0,1.188,2v.048a2.615,2.615,0,0,0-1.584,2.256C-11.076,119.172-9.852,120.156-8.2,120.156Zm.576-4.944c-.984-.384-1.824-.792-1.824-1.716a1.2,1.2,0,0,1,1.26-1.26,1.294,1.294,0,0,1,1.356,1.392A2.16,2.16,0,0,1-7.62,115.212Zm-.552,3.948a1.546,1.546,0,0,1-1.68-1.488,2.143,2.143,0,0,1,1.032-1.728c1.2.492,2.172.84,2.172,1.86A1.36,1.36,0,0,1-8.172,119.16Zm8.148,1a3.968,3.968,0,0,0,2.8-1.032V115.3H-.24v1.14H1.512v2.076a2.19,2.19,0,0,1-1.392.432c-1.824,0-2.8-1.284-2.8-3.384,0-2.076,1.092-3.348,2.736-3.348A2.436,2.436,0,0,1,1.9,113l.744-.888A3.523,3.523,0,0,0,.012,111c-2.34,0-4.116,1.728-4.116,4.608S-2.376,120.156-.024,120.156ZM4.788,120H7.74c1.956,0,3.384-.84,3.384-2.592a2.028,2.028,0,0,0-1.74-2.1v-.06a1.964,1.964,0,0,0,1.26-1.908c0-1.6-1.308-2.184-3.12-2.184H4.788Zm1.392-5.148v-2.6H7.4c1.248,0,1.872.348,1.872,1.272,0,.828-.564,1.332-1.908,1.332Zm0,4.056V115.9h1.4c1.4,0,2.172.444,2.172,1.44,0,1.08-.792,1.572-2.172,1.572Zm-47,41.092h5.04v-1.14h-1.728v-7.452h-1.044a5.2,5.2,0,0,1-1.92.672v.876h1.584v5.9h-1.932Zm6.336,0h5.7v-1.176h-2.244c-.432,0-1,.036-1.44.084,1.836-1.92,3.264-3.5,3.264-5.076a2.47,2.47,0,0,0-2.664-2.592,3.466,3.466,0,0,0-2.688,1.32l.78.768a2.4,2.4,0,0,1,1.74-.984,1.4,1.4,0,0,1,1.5,1.56c0,1.344-1.488,2.88-3.948,5.292Zm9.744.156c1.7,0,2.856-1.008,2.856-2.316a2.49,2.49,0,0,0-1.488-2.22v-.06a2.659,2.659,0,0,0,1.164-2.016,2.267,2.267,0,0,0-2.5-2.3,2.3,2.3,0,0,0-2.52,2.256,2.443,2.443,0,0,0,1.188,2v.048a2.615,2.615,0,0,0-1.584,2.256C-27.624,159.172-26.4,160.156-24.744,160.156Zm.576-4.944c-.984-.384-1.824-.792-1.824-1.716a1.2,1.2,0,0,1,1.26-1.26,1.294,1.294,0,0,1,1.356,1.392A2.16,2.16,0,0,1-24.168,155.212Zm-.552,3.948a1.546,1.546,0,0,1-1.68-1.488,2.143,2.143,0,0,1,1.032-1.728c1.2.492,2.172.84,2.172,1.86A1.36,1.36,0,0,1-24.72,159.16Zm8.148,1a3.968,3.968,0,0,0,2.8-1.032V155.3h-3.012v1.14h1.752v2.076a2.19,2.19,0,0,1-1.392.432c-1.824,0-2.8-1.284-2.8-3.384,0-2.076,1.092-3.348,2.736-3.348a2.436,2.436,0,0,1,1.836.792l.744-.888A3.523,3.523,0,0,0-16.536,151c-2.34,0-4.116,1.728-4.116,4.608S-18.924,160.156-16.572,160.156ZM-11.76,160h2.952c1.956,0,3.384-.84,3.384-2.592a2.028,2.028,0,0,0-1.74-2.1v-.06A1.964,1.964,0,0,0-5.9,153.34c0-1.6-1.308-2.184-3.12-2.184H-11.76Zm1.392-5.148v-2.6h1.224c1.248,0,1.872.348,1.872,1.272,0,.828-.564,1.332-1.908,1.332Zm0,4.056V155.9h1.4c1.4,0,2.172.444,2.172,1.44,0,1.08-.792,1.572-2.172,1.572Zm13.62-3.468a8,8,0,0,0,2.376,5.736l.912-.432a7.475,7.475,0,0,1,0-10.608l-.912-.432A8,8,0,0,0,3.252,155.44Zm7.512,4.716c1.932,0,3.108-1.152,3.108-2.568a2.466,2.466,0,0,0-1.8-2.388l-1.212-.516c-.72-.288-1.428-.576-1.428-1.344,0-.7.588-1.128,1.488-1.128a2.813,2.813,0,0,1,1.944.792l.732-.888A3.783,3.783,0,0,0,10.92,151a2.625,2.625,0,0,0-2.9,2.436,2.541,2.541,0,0,0,1.8,2.316l1.224.528c.816.36,1.416.612,1.416,1.416,0,.744-.6,1.248-1.668,1.248A3.424,3.424,0,0,1,8.436,157.9l-.816.96A4.406,4.406,0,0,0,10.764,160.156Zm7.092,0c1.932,0,3.108-1.152,3.108-2.568a2.466,2.466,0,0,0-1.8-2.388l-1.212-.516c-.72-.288-1.428-.576-1.428-1.344,0-.7.588-1.128,1.488-1.128a2.813,2.813,0,0,1,1.944.792l.732-.888A3.783,3.783,0,0,0,18.012,151a2.625,2.625,0,0,0-2.9,2.436,2.541,2.541,0,0,0,1.8,2.316l1.224.528c.816.36,1.416.612,1.416,1.416,0,.744-.6,1.248-1.668,1.248a3.424,3.424,0,0,1-2.352-1.044l-.816.96A4.406,4.406,0,0,0,17.856,160.156ZM22.632,160H25c2.64,0,4.188-1.584,4.188-4.452s-1.548-4.392-4.26-4.392H22.632Zm1.392-1.14V152.3h.8c1.9,0,2.916,1.044,2.916,3.252s-1.02,3.312-2.916,3.312Zm9.66-3.42a8,8,0,0,0-2.376-5.736l-.912.432a7.475,7.475,0,0,1,0,10.608l.912.432A8,8,0,0,0,33.684,155.44ZM-98.748,200h1.392v-8.844h-1.392Zm3.708,0h5.352v-1.176h-3.96v-2.856h3.24v-1.176h-3.24v-2.46h3.828v-1.176h-5.22Zm7.2,0h5.352v-1.176h-3.96v-2.856h3.24v-1.176h-3.24v-2.46h3.828v-1.176h-5.22Zm7.2,0h5.352v-1.176h-3.96v-2.856h3.24v-1.176h-3.24v-2.46h3.828v-1.176h-5.22Zm9.468.156c1.7,0,2.856-1.008,2.856-2.316a2.49,2.49,0,0,0-1.488-2.22v-.06a2.659,2.659,0,0,0,1.164-2.016,2.267,2.267,0,0,0-2.5-2.3,2.3,2.3,0,0,0-2.52,2.256,2.443,2.443,0,0,0,1.188,2v.048a2.615,2.615,0,0,0-1.584,2.256C-74.052,199.172-72.828,200.156-71.172,200.156Zm.576-4.944c-.984-.384-1.824-.792-1.824-1.716a1.2,1.2,0,0,1,1.26-1.26,1.294,1.294,0,0,1,1.356,1.392A2.16,2.16,0,0,1-70.6,195.212Zm-.552,3.948a1.546,1.546,0,0,1-1.68-1.488,2.143,2.143,0,0,1,1.032-1.728c1.2.492,2.172.84,2.172,1.86A1.36,1.36,0,0,1-71.148,199.16Zm6.8,1c1.764,0,2.856-1.6,2.856-4.488s-1.092-4.428-2.856-4.428-2.856,1.536-2.856,4.428S-66.1,200.156-64.344,200.156Zm0-1.092c-.9,0-1.536-.924-1.536-3.4s.636-3.336,1.536-3.336,1.536.864,1.536,3.336S-63.444,199.064-64.344,199.064ZM-60.4,200h5.7v-1.176H-56.94c-.432,0-1,.036-1.44.084,1.836-1.92,3.264-3.5,3.264-5.076a2.47,2.47,0,0,0-2.664-2.592,3.466,3.466,0,0,0-2.688,1.32l.78.768a2.4,2.4,0,0,1,1.74-.984,1.4,1.4,0,0,1,1.5,1.56c0,1.344-1.488,2.88-3.948,5.292Zm8.1.156a.918.918,0,0,0,.924-.96.932.932,0,0,0-.924-.984.932.932,0,0,0-.924.984A.918.918,0,0,0-52.3,200.156Zm2.82-.156h5.04v-1.14h-1.728v-7.452h-1.044a5.2,5.2,0,0,1-1.92.672v.876h1.584v5.9h-1.932Zm6.84,0h5.04v-1.14h-1.728v-7.452h-1.044a5.2,5.2,0,0,1-1.92.672v.876H-40.7v5.9h-1.932Zm8.412.156a3.281,3.281,0,0,0,2.1-.912h.048l.108.756h1.128v-3.972c0-1.752-.756-2.8-2.4-2.8a5.055,5.055,0,0,0-2.664.864l.516.936a3.63,3.63,0,0,1,1.908-.672c.972,0,1.248.672,1.26,1.44-2.748.3-3.948,1.032-3.948,2.448A1.823,1.823,0,0,0-34.224,200.156Zm.42-1.092c-.588,0-1.032-.264-1.032-.912,0-.744.66-1.248,2.616-1.476v1.62A2.327,2.327,0,0,1-33.8,199.064Zm4.02,3.1h.96l3.336-11.748h-.96Zm8.652-2c1.488,0,2.844-1.3,2.844-3.564,0-2.028-.948-3.36-2.616-3.36a3.15,3.15,0,0,0-1.968.864l.048-1.128v-2.532H-24.2V200h1.08l.132-.684h.036A2.8,2.8,0,0,0-21.132,200.156Zm-.264-1.14a2.187,2.187,0,0,1-1.428-.6v-3.228a2.25,2.25,0,0,1,1.56-.8c1.1,0,1.548.852,1.548,2.232C-19.716,198.164-20.436,199.016-21.4,199.016Zm3.84,3.144h.96l3.336-11.748h-.96Zm7.7.8c2.112,0,3.456-1.032,3.456-2.3,0-1.128-.816-1.608-2.376-1.608H-9.984c-.84,0-1.1-.252-1.1-.648a.858.858,0,0,1,.36-.7,2.294,2.294,0,0,0,.924.2,2.255,2.255,0,0,0,2.472-2.268,1.784,1.784,0,0,0-.432-1.212H-6.5V193.4h-2.34a2.752,2.752,0,0,0-.96-.168A2.378,2.378,0,0,0-12.36,195.6a2.237,2.237,0,0,0,.876,1.764v.048a1.608,1.608,0,0,0-.744,1.224,1.213,1.213,0,0,0,.6,1.092v.06a1.744,1.744,0,0,0-.96,1.44C-12.588,202.376-11.436,202.964-9.852,202.964Zm.048-5.94a1.291,1.291,0,0,1-1.248-1.428A1.253,1.253,0,0,1-9.8,194.2,1.259,1.259,0,0,1-8.556,195.6,1.291,1.291,0,0,1-9.8,197.024Zm.156,5.028c-1.092,0-1.764-.384-1.764-1.032a1.187,1.187,0,0,1,.564-.96,4.2,4.2,0,0,0,.888.1h1c.8,0,1.236.168,1.236.72C-7.728,201.488-8.5,202.052-9.648,202.052Zm4.14.108h.96l3.336-11.748h-.96ZM.072,200h1.38v-4.68a2.211,2.211,0,0,1,1.608-.9c.78,0,1.116.456,1.116,1.6V200h1.38v-4.152c0-1.68-.624-2.616-2.028-2.616a3.145,3.145,0,0,0-2.184,1.08H1.308L1.2,193.4H.072Zm6.588,2.16h.96l3.336-11.748H10Zm6.8-2a3.281,3.281,0,0,0,2.1-.912h.048l.108.756h1.128v-3.972c0-1.752-.756-2.8-2.4-2.8a5.055,5.055,0,0,0-2.664.864l.516.936a3.629,3.629,0,0,1,1.908-.672c.972,0,1.248.672,1.26,1.44-2.748.3-3.948,1.032-3.948,2.448A1.823,1.823,0,0,0,13.464,200.156Zm.42-1.092c-.588,0-1.032-.264-1.032-.912,0-.744.66-1.248,2.616-1.476v1.62A2.327,2.327,0,0,1,13.884,199.064Zm7.608,1.092a3.269,3.269,0,0,0,2.148-.816l-.576-.912a2.261,2.261,0,0,1-1.44.6c-1.092,0-1.86-.924-1.86-2.328s.792-2.328,1.908-2.328a1.724,1.724,0,0,1,1.176.516l.684-.9a2.834,2.834,0,0,0-1.932-.756,3.239,3.239,0,0,0-3.264,3.468A3.124,3.124,0,0,0,21.492,200.156Zm10.644-4.716a8,8,0,0,0,2.376,5.736l.912-.432a7.475,7.475,0,0,1,0-10.608l-.912-.432A8,8,0,0,0,32.136,195.44ZM36.492,200h5.7v-1.176H39.948c-.432,0-1,.036-1.44.084,1.836-1.92,3.264-3.5,3.264-5.076a2.47,2.47,0,0,0-2.664-2.592,3.466,3.466,0,0,0-2.688,1.32l.78.768a2.4,2.4,0,0,1,1.74-.984,1.4,1.4,0,0,1,1.5,1.56c0,1.344-1.488,2.88-3.948,5.292Zm8.1.156a.918.918,0,0,0,.924-.96.926.926,0,1,0-1.848,0A.918.918,0,0,0,44.592,200.156Zm3.42-3.5,1.74-2.616c.252-.444.492-.852.708-1.284h.048c-.024.48-.06,1.248-.06,1.728v2.172ZM50.448,200h1.3v-2.28H52.86v-1.068H51.744v-5.244H50.136L46.62,196.8v.924h3.828Zm2.916,2.16h.96l3.336-11.748H56.7Zm7.752-2a2.855,2.855,0,0,0,2.976-2.94A2.477,2.477,0,0,0,61.4,194.54a2.518,2.518,0,0,0-1.212.3l.2-2.268h3.276v-1.164H59.2l-.264,4.2.672.432a2.324,2.324,0,0,1,1.416-.5,1.582,1.582,0,0,1,1.68,1.728,1.672,1.672,0,0,1-1.752,1.764,2.826,2.826,0,0,1-2.064-.948l-.66.9A3.909,3.909,0,0,0,61.116,200.156Zm8.388,0a3.968,3.968,0,0,0,2.8-1.032V195.3H69.288v1.14H71.04v2.076a2.19,2.19,0,0,1-1.392.432c-1.824,0-2.8-1.284-2.8-3.384,0-2.076,1.092-3.348,2.736-3.348a2.436,2.436,0,0,1,1.836.792l.744-.888A3.523,3.523,0,0,0,69.54,191c-2.34,0-4.116,1.728-4.116,4.608S67.152,200.156,69.5,200.156ZM74.316,200h1.392v-4.02h3.78V200H80.88v-8.844H79.488v3.612h-3.78v-3.612H74.316Zm8.16,0h5.1v-1.1h-3.36l3.252-4.764V193.4H82.836v1.1h2.9l-3.264,4.752Zm9.264-4.56a8,8,0,0,0-2.376-5.736l-.912.432a7.475,7.475,0,0,1,0,10.608l.912.432A8,8,0,0,0,91.74,195.44ZM-37.626,240.156c1.956,0,3.276-1.068,3.276-3.948v-5.052h-1.344V236.3c0,1.992-.816,2.64-1.932,2.64s-1.9-.648-1.9-2.64v-5.148h-1.392v5.052C-40.914,239.088-39.582,240.156-37.626,240.156Zm7.944,0c1.932,0,3.108-1.152,3.108-2.568a2.466,2.466,0,0,0-1.8-2.388l-1.212-.516c-.72-.288-1.428-.576-1.428-1.344,0-.7.588-1.128,1.488-1.128a2.813,2.813,0,0,1,1.944.792l.732-.888A3.783,3.783,0,0,0-29.526,231a2.625,2.625,0,0,0-2.9,2.436,2.541,2.541,0,0,0,1.8,2.316l1.224.528c.816.36,1.416.612,1.416,1.416,0,.744-.6,1.248-1.668,1.248A3.424,3.424,0,0,1-32.01,237.9l-.816.96A4.406,4.406,0,0,0-29.682,240.156Zm4.776-.156h2.952c1.956,0,3.384-.84,3.384-2.592a2.028,2.028,0,0,0-1.74-2.1v-.06a1.964,1.964,0,0,0,1.26-1.908c0-1.6-1.308-2.184-3.12-2.184h-2.736Zm1.392-5.148v-2.6h1.224c1.248,0,1.872.348,1.872,1.272,0,.828-.564,1.332-1.908,1.332Zm0,4.056V235.9h1.4c1.4,0,2.172.444,2.172,1.44,0,1.08-.792,1.572-2.172,1.572ZM-17.538,240h5.7v-1.176h-2.244c-.432,0-1,.036-1.44.084,1.836-1.92,3.264-3.5,3.264-5.076a2.47,2.47,0,0,0-2.664-2.592,3.466,3.466,0,0,0-2.688,1.32l.78.768a2.4,2.4,0,0,1,1.74-.984,1.4,1.4,0,0,1,1.5,1.56c0,1.344-1.488,2.88-3.948,5.292Zm8.1.156a.918.918,0,0,0,.924-.96.932.932,0,0,0-.924-.984.932.932,0,0,0-.924.984A.918.918,0,0,0-9.438,240.156Zm5.208,0c1.764,0,2.856-1.6,2.856-4.488s-1.092-4.428-2.856-4.428-2.856,1.536-2.856,4.428S-5.982,240.156-4.23,240.156Zm0-1.092c-.9,0-1.536-.924-1.536-3.4s.636-3.336,1.536-3.336,1.536.864,1.536,3.336S-3.33,239.064-4.23,239.064Zm12.624.3.708-.7-3.2-3.2,3.2-3.192-.708-.708-3.192,3.2-3.192-3.2-.72.708,3.2,3.192-3.2,3.2.708.7,3.2-3.192Zm3.828.636h5.04v-1.14H15.534v-7.452H14.49a5.2,5.2,0,0,1-1.92.672v.876h1.584v5.9H12.222Zm8.952-2.268a9.3,9.3,0,0,1-2.7,2.232,7.382,7.382,0,0,1,1.02.78,14.032,14.032,0,0,0,2.832-2.592Zm8.388-.48a19.012,19.012,0,0,0-2.88-2.832l-.912.588c.36.312.744.66,1.128,1.02-1.344.036-2.688.06-3.96.084a41.326,41.326,0,0,0,4.032-3.588l-1.08-.588a27.966,27.966,0,0,1-2.808,2.76,12.738,12.738,0,0,0-1.164-.9,23.015,23.015,0,0,0,2.016-2.136l-.1-.048a42.318,42.318,0,0,0,4.764-.588l-.792-.948a59.4,59.4,0,0,1-8.736.744,4.068,4.068,0,0,1,.264,1c.984-.012,2.028-.048,3.084-.108a18.324,18.324,0,0,1-1.356,1.524c-.24-.156-.48-.3-.708-.432l-.768.708a17.132,17.132,0,0,1,2.616,1.92c-.324.252-.636.492-.936.708-.96.012-1.836.024-2.568.024l.12,1.128c1.26-.024,2.868-.06,4.6-.12v3.78h1.176v-3.816c1.068-.024,2.172-.06,3.252-.108a9.1,9.1,0,0,1,.708.888ZM25.59,238.3a19.678,19.678,0,0,1,2.844,2.424l1-.72a22.116,22.116,0,0,0-2.916-2.328Zm9.312-3.84.1,1.032,5.172-.4a6.507,6.507,0,0,1,.468.888l.936-.5A13.753,13.753,0,0,0,39.7,232.74l-.864.456c.24.3.492.636.732.972-.864.06-1.728.12-2.52.168.288-.588.588-1.284.864-1.908H41.37V231.42h-2.8v-1.488H37.446v1.488H34.854v1.008h1.8a14.2,14.2,0,0,1-.744,1.968Zm-3.84,2.34a9.069,9.069,0,0,1-.708,2.808,4.69,4.69,0,0,1,.852.42,11.111,11.111,0,0,0,.8-3.06Zm3.072-.816a4.687,4.687,0,0,1,.192.648l.816-.36a9.3,9.3,0,0,0-1.092-2.484l-.756.312c.168.3.336.636.492.972-.516.036-1.02.06-1.5.072.78-1.008,1.644-2.316,2.316-3.408l-.924-.42c-.3.612-.708,1.344-1.14,2.052a8.681,8.681,0,0,0-.576-.66c.432-.66.936-1.584,1.356-2.388l-.984-.384a13.838,13.838,0,0,1-.984,2.172c-.108-.1-.216-.192-.324-.276l-.54.732a11.319,11.319,0,0,1,1.488,1.68c-.228.336-.468.66-.684.948l-.84.024.1.984c.54-.036,1.152-.072,1.812-.108v4.872h1v-4.932Zm1.008,2.892a13.863,13.863,0,0,0-.756-2.172l-.8.264a12.835,12.835,0,0,1,.708,2.2Zm1.176-3c-.072,2.2-.3,3.54-2.16,4.284a2.83,2.83,0,0,1,.636.828c2.124-.912,2.5-2.544,2.592-5.112Zm3.5,4.008c-.216,0-.252-.048-.252-.36v-3.66H38.526v3.66c0,1.02.2,1.344,1.116,1.344h.924c.768,0,1.044-.432,1.116-2.04a3.175,3.175,0,0,1-.936-.432c-.024,1.284-.072,1.488-.288,1.488Zm-77.448,40.276c1.956,0,3.276-1.068,3.276-3.948v-5.052h-1.344V276.3c0,1.992-.816,2.64-1.932,2.64s-1.9-.648-1.9-2.64v-5.148h-1.392v5.052C-40.914,279.088-39.582,280.156-37.626,280.156Zm7.944,0c1.932,0,3.108-1.152,3.108-2.568a2.466,2.466,0,0,0-1.8-2.388l-1.212-.516c-.72-.288-1.428-.576-1.428-1.344,0-.7.588-1.128,1.488-1.128a2.813,2.813,0,0,1,1.944.792l.732-.888A3.783,3.783,0,0,0-29.526,271a2.625,2.625,0,0,0-2.9,2.436,2.541,2.541,0,0,0,1.8,2.316l1.224.528c.816.36,1.416.612,1.416,1.416,0,.744-.6,1.248-1.668,1.248A3.424,3.424,0,0,1-32.01,277.9l-.816.96A4.406,4.406,0,0,0-29.682,280.156Zm4.776-.156h2.952c1.956,0,3.384-.84,3.384-2.592a2.028,2.028,0,0,0-1.74-2.1v-.06a1.964,1.964,0,0,0,1.26-1.908c0-1.6-1.308-2.184-3.12-2.184h-2.736Zm1.392-5.148v-2.6h1.224c1.248,0,1.872.348,1.872,1.272,0,.828-.564,1.332-1.908,1.332Zm0,4.056V275.9h1.4c1.4,0,2.172.444,2.172,1.44,0,1.08-.792,1.572-2.172,1.572Zm8.664,1.248c1.62,0,2.952-.912,2.952-2.46a2.2,2.2,0,0,0-1.824-2.16v-.06a2.071,2.071,0,0,0,1.524-2c0-1.416-1.116-2.232-2.7-2.232a3.68,3.68,0,0,0-2.532,1.08l.72.864a2.489,2.489,0,0,1,1.764-.84,1.2,1.2,0,0,1,1.356,1.236c0,.828-.576,1.464-2.316,1.464v1.02c1.992,0,2.616.612,2.616,1.56,0,.864-.684,1.4-1.68,1.4a2.854,2.854,0,0,1-2.088-.972l-.672.888A3.666,3.666,0,0,0-14.85,280.156Zm5.412,0a.918.918,0,0,0,.924-.96.932.932,0,0,0-.924-.984.932.932,0,0,0-.924.984A.918.918,0,0,0-9.438,280.156Zm5.208,0c1.764,0,2.856-1.6,2.856-4.488s-1.092-4.428-2.856-4.428-2.856,1.536-2.856,4.428S-5.982,280.156-4.23,280.156Zm0-1.092c-.9,0-1.536-.924-1.536-3.4s.636-3.336,1.536-3.336,1.536.864,1.536,3.336S-3.33,279.064-4.23,279.064Zm12.624.3.708-.7-3.2-3.2,3.2-3.192-.708-.708-3.192,3.2-3.192-3.2-.72.708,3.2,3.192-3.2,3.2.708.7,3.2-3.192Zm3.828.636h5.04v-1.14H15.534v-7.452H14.49a5.2,5.2,0,0,1-1.92.672v.876h1.584v5.9H12.222Zm8.952-2.268a9.3,9.3,0,0,1-2.7,2.232,7.385,7.385,0,0,1,1.02.78,14.032,14.032,0,0,0,2.832-2.592Zm8.388-.48a19.01,19.01,0,0,0-2.88-2.832l-.912.588c.36.312.744.66,1.128,1.02-1.344.036-2.688.06-3.96.084a41.324,41.324,0,0,0,4.032-3.588l-1.08-.588a27.971,27.971,0,0,1-2.808,2.76,12.738,12.738,0,0,0-1.164-.9,23.013,23.013,0,0,0,2.016-2.136l-.1-.048a42.31,42.31,0,0,0,4.764-.588l-.792-.948a59.4,59.4,0,0,1-8.736.744,4.068,4.068,0,0,1,.264,1c.984-.012,2.028-.048,3.084-.108a18.327,18.327,0,0,1-1.356,1.524c-.24-.156-.48-.3-.708-.432l-.768.708a17.131,17.131,0,0,1,2.616,1.92c-.324.252-.636.492-.936.708-.96.012-1.836.024-2.568.024l.12,1.128c1.26-.024,2.868-.06,4.6-.12v3.78h1.176v-3.816c1.068-.024,2.172-.06,3.252-.108a9.1,9.1,0,0,1,.708.888ZM25.59,278.3a19.678,19.678,0,0,1,2.844,2.424l1-.72a22.116,22.116,0,0,0-2.916-2.328Zm9.312-3.84.1,1.032,5.172-.4a6.5,6.5,0,0,1,.468.888l.936-.5A13.753,13.753,0,0,0,39.7,272.74l-.864.456c.24.3.492.636.732.972-.864.06-1.728.12-2.52.168.288-.588.588-1.284.864-1.908H41.37V271.42h-2.8v-1.488H37.446v1.488H34.854v1.008h1.8a14.2,14.2,0,0,1-.744,1.968Zm-3.84,2.34a9.069,9.069,0,0,1-.708,2.808,4.69,4.69,0,0,1,.852.42,11.11,11.11,0,0,0,.8-3.06Zm3.072-.816a4.687,4.687,0,0,1,.192.648l.816-.36a9.3,9.3,0,0,0-1.092-2.484l-.756.312c.168.3.336.636.492.972-.516.036-1.02.06-1.5.072.78-1.008,1.644-2.316,2.316-3.408l-.924-.42c-.3.612-.708,1.344-1.14,2.052a8.675,8.675,0,0,0-.576-.66c.432-.66.936-1.584,1.356-2.388l-.984-.384a13.838,13.838,0,0,1-.984,2.172c-.108-.1-.216-.192-.324-.276l-.54.732a11.321,11.321,0,0,1,1.488,1.68c-.228.336-.468.66-.684.948l-.84.024.1.984c.54-.036,1.152-.072,1.812-.108v4.872h1v-4.932Zm1.008,2.892a13.862,13.862,0,0,0-.756-2.172l-.8.264a12.835,12.835,0,0,1,.708,2.2Zm1.176-3c-.072,2.2-.3,3.54-2.16,4.284a2.83,2.83,0,0,1,.636.828c2.124-.912,2.5-2.544,2.592-5.112Zm3.5,4.008c-.216,0-.252-.048-.252-.36v-3.66H38.526v3.66c0,1.02.2,1.344,1.116,1.344h.924c.768,0,1.044-.432,1.116-2.04a3.175,3.175,0,0,1-.936-.432c-.024,1.284-.072,1.488-.288,1.488Zm-92.208,40.276c1.956,0,3.276-1.068,3.276-3.948v-5.052h-1.344V316.3c0,1.992-.816,2.64-1.932,2.64s-1.9-.648-1.9-2.64v-5.148h-1.392v5.052C-55.674,319.088-54.342,320.156-52.386,320.156Zm7.944,0c1.932,0,3.108-1.152,3.108-2.568a2.466,2.466,0,0,0-1.8-2.388l-1.212-.516c-.72-.288-1.428-.576-1.428-1.344,0-.7.588-1.128,1.488-1.128a2.813,2.813,0,0,1,1.944.792l.732-.888A3.783,3.783,0,0,0-44.286,311a2.625,2.625,0,0,0-2.9,2.436,2.541,2.541,0,0,0,1.8,2.316l1.224.528c.816.36,1.416.612,1.416,1.416,0,.744-.6,1.248-1.668,1.248A3.424,3.424,0,0,1-46.77,317.9l-.816.96A4.406,4.406,0,0,0-44.442,320.156Zm4.776-.156h2.952c1.956,0,3.384-.84,3.384-2.592a2.028,2.028,0,0,0-1.74-2.1v-.06a1.964,1.964,0,0,0,1.26-1.908c0-1.6-1.308-2.184-3.12-2.184h-2.736Zm1.392-5.148v-2.6h1.224c1.248,0,1.872.348,1.872,1.272,0,.828-.564,1.332-1.908,1.332Zm0,4.056V315.9h1.4c1.4,0,2.172.444,2.172,1.44,0,1.08-.792,1.572-2.172,1.572Zm8.664,1.248c1.62,0,2.952-.912,2.952-2.46a2.2,2.2,0,0,0-1.824-2.16v-.06a2.071,2.071,0,0,0,1.524-2c0-1.416-1.116-2.232-2.7-2.232a3.68,3.68,0,0,0-2.532,1.08l.72.864a2.489,2.489,0,0,1,1.764-.84,1.2,1.2,0,0,1,1.356,1.236c0,.828-.576,1.464-2.316,1.464v1.02c1.992,0,2.616.612,2.616,1.56,0,.864-.684,1.4-1.68,1.4a2.854,2.854,0,0,1-2.088-.972l-.672.888A3.666,3.666,0,0,0-29.61,320.156Zm5.412,0a.918.918,0,0,0,.924-.96.932.932,0,0,0-.924-.984.932.932,0,0,0-.924.984A.918.918,0,0,0-24.2,320.156Zm2.82-.156h5.04v-1.14h-1.728v-7.452H-19.11a5.2,5.2,0,0,1-1.92.672v.876h1.584v5.9h-1.932Zm10.572.156a3.968,3.968,0,0,0,2.8-1.032V315.3h-3.012v1.14H-9.27v2.076a2.19,2.19,0,0,1-1.392.432c-1.824,0-2.8-1.284-2.8-3.384,0-2.076,1.092-3.348,2.736-3.348A2.436,2.436,0,0,1-8.886,313l.744-.888A3.523,3.523,0,0,0-10.77,311c-2.34,0-4.116,1.728-4.116,4.608S-13.158,320.156-10.806,320.156Zm7.44,0a4,4,0,0,0,2.232-.7l-.48-.876a2.8,2.8,0,0,1-1.572.492,1.993,1.993,0,0,1-2.04-2.016H-.942a3.577,3.577,0,0,0,.072-.708c0-1.86-.948-3.12-2.7-3.12A3.208,3.208,0,0,0-6.582,316.7,3.174,3.174,0,0,0-3.366,320.156ZM-5.238,316.1a1.787,1.787,0,0,1,1.692-1.788c.96,0,1.476.66,1.476,1.788Zm5.9,3.9h1.38v-4.68a2.211,2.211,0,0,1,1.608-.9c.78,0,1.116.456,1.116,1.6V320H6.15v-4.152c0-1.68-.624-2.616-2.028-2.616a3.145,3.145,0,0,0-2.184,1.08H1.9l-.108-.912H.666Zm6.972,0h5.7v-1.176H11.094c-.432,0-1,.036-1.44.084,1.836-1.92,3.264-3.5,3.264-5.076a2.47,2.47,0,0,0-2.664-2.592,3.466,3.466,0,0,0-2.688,1.32l.78.768a2.4,2.4,0,0,1,1.74-.984,1.4,1.4,0,0,1,1.5,1.56c0,1.344-1.488,2.88-3.948,5.292Zm15.516-.636.708-.7-3.2-3.2,3.2-3.192-.708-.708-3.192,3.2-3.192-3.2-.72.708,3.2,3.192-3.2,3.2.708.7,3.2-3.192Zm3.324.636h5.7v-1.176H29.934c-.432,0-1,.036-1.44.084,1.836-1.92,3.264-3.5,3.264-5.076a2.47,2.47,0,0,0-2.664-2.592,3.466,3.466,0,0,0-2.688,1.32l.78.768a2.4,2.4,0,0,1,1.74-.984,1.4,1.4,0,0,1,1.5,1.56c0,1.344-1.488,2.88-3.948,5.292Zm9.456-2.268a9.3,9.3,0,0,1-2.7,2.232,7.385,7.385,0,0,1,1.02.78,14.032,14.032,0,0,0,2.832-2.592Zm8.388-.48a19.01,19.01,0,0,0-2.88-2.832l-.912.588c.36.312.744.66,1.128,1.02-1.344.036-2.688.06-3.96.084a41.324,41.324,0,0,0,4.032-3.588l-1.08-.588a27.971,27.971,0,0,1-2.808,2.76,12.738,12.738,0,0,0-1.164-.9,23.013,23.013,0,0,0,2.016-2.136l-.1-.048a42.31,42.31,0,0,0,4.764-.588l-.792-.948a59.4,59.4,0,0,1-8.736.744,4.068,4.068,0,0,1,.264,1c.984-.012,2.028-.048,3.084-.108a18.326,18.326,0,0,1-1.356,1.524c-.24-.156-.48-.3-.708-.432l-.768.708a17.131,17.131,0,0,1,2.616,1.92c-.324.252-.636.492-.936.708-.96.012-1.836.024-2.568.024l.12,1.128c1.26-.024,2.868-.06,4.6-.12v3.78h1.176v-3.816c1.068-.024,2.172-.06,3.252-.108a9.1,9.1,0,0,1,.708.888ZM40.35,318.3a19.678,19.678,0,0,1,2.844,2.424l1-.72a22.116,22.116,0,0,0-2.916-2.328Zm9.312-3.84.1,1.032,5.172-.4a6.5,6.5,0,0,1,.468.888l.936-.5a13.753,13.753,0,0,0-1.872-2.736l-.864.456c.24.3.492.636.732.972-.864.06-1.728.12-2.52.168.288-.588.588-1.284.864-1.908H56.13V311.42h-2.8v-1.488H52.206v1.488H49.614v1.008h1.8a14.2,14.2,0,0,1-.744,1.968Zm-3.84,2.34a9.069,9.069,0,0,1-.708,2.808,4.69,4.69,0,0,1,.852.42,11.11,11.11,0,0,0,.8-3.06Zm3.072-.816a4.687,4.687,0,0,1,.192.648l.816-.36a9.3,9.3,0,0,0-1.092-2.484l-.756.312c.168.3.336.636.492.972-.516.036-1.02.06-1.5.072.78-1.008,1.644-2.316,2.316-3.408l-.924-.42c-.3.612-.708,1.344-1.14,2.052a8.675,8.675,0,0,0-.576-.66c.432-.66.936-1.584,1.356-2.388l-.984-.384a13.838,13.838,0,0,1-.984,2.172c-.108-.1-.216-.192-.324-.276l-.54.732a11.321,11.321,0,0,1,1.488,1.68c-.228.336-.468.66-.684.948l-.84.024.1.984c.54-.036,1.152-.072,1.812-.108v4.872h1v-4.932Zm1.008,2.892a13.862,13.862,0,0,0-.756-2.172l-.8.264a12.835,12.835,0,0,1,.708,2.2Zm1.176-3c-.072,2.2-.3,3.54-2.16,4.284a2.83,2.83,0,0,1,.636.828c2.124-.912,2.5-2.544,2.592-5.112Zm3.5,4.008c-.216,0-.252-.048-.252-.36v-3.66H53.286v3.66c0,1.02.2,1.344,1.116,1.344h.924c.768,0,1.044-.432,1.116-2.04a3.175,3.175,0,0,1-.936-.432c-.024,1.284-.072,1.488-.288,1.488ZM-73.71,360.156c1.956,0,3.276-1.068,3.276-3.948v-5.052h-1.344V356.3c0,1.992-.816,2.64-1.932,2.64s-1.9-.648-1.9-2.64v-5.148H-77v5.052C-77,359.088-75.666,360.156-73.71,360.156Zm7.944,0c1.932,0,3.108-1.152,3.108-2.568a2.466,2.466,0,0,0-1.8-2.388l-1.212-.516c-.72-.288-1.428-.576-1.428-1.344,0-.7.588-1.128,1.488-1.128a2.813,2.813,0,0,1,1.944.792l.732-.888A3.783,3.783,0,0,0-65.61,351a2.625,2.625,0,0,0-2.9,2.436,2.541,2.541,0,0,0,1.8,2.316l1.224.528c.816.36,1.416.612,1.416,1.416,0,.744-.6,1.248-1.668,1.248a3.424,3.424,0,0,1-2.352-1.044l-.816.96A4.406,4.406,0,0,0-65.766,360.156ZM-60.99,360h2.952c1.956,0,3.384-.84,3.384-2.592a2.028,2.028,0,0,0-1.74-2.1v-.06a1.964,1.964,0,0,0,1.26-1.908c0-1.6-1.308-2.184-3.12-2.184H-60.99Zm1.392-5.148v-2.6h1.224c1.248,0,1.872.348,1.872,1.272,0,.828-.564,1.332-1.908,1.332Zm0,4.056V355.9h1.4c1.4,0,2.172.444,2.172,1.44,0,1.08-.792,1.572-2.172,1.572Zm8.664,1.248c1.62,0,2.952-.912,2.952-2.46a2.2,2.2,0,0,0-1.824-2.16v-.06a2.071,2.071,0,0,0,1.524-2c0-1.416-1.116-2.232-2.7-2.232a3.68,3.68,0,0,0-2.532,1.08l.72.864a2.489,2.489,0,0,1,1.764-.84,1.2,1.2,0,0,1,1.356,1.236c0,.828-.576,1.464-2.316,1.464v1.02c1.992,0,2.616.612,2.616,1.56,0,.864-.684,1.4-1.68,1.4a2.854,2.854,0,0,1-2.088-.972l-.672.888A3.666,3.666,0,0,0-50.934,360.156Zm5.412,0a.918.918,0,0,0,.924-.96.932.932,0,0,0-.924-.984.932.932,0,0,0-.924.984A.918.918,0,0,0-45.522,360.156ZM-42.7,360h5.04v-1.14H-39.39v-7.452h-1.044a5.2,5.2,0,0,1-1.92.672v.876h1.584v5.9H-42.7Zm10.572.156a3.968,3.968,0,0,0,2.8-1.032V355.3h-3.012v1.14h1.752v2.076a2.19,2.19,0,0,1-1.392.432c-1.824,0-2.8-1.284-2.8-3.384,0-2.076,1.092-3.348,2.736-3.348A2.436,2.436,0,0,1-30.21,353l.744-.888A3.523,3.523,0,0,0-32.094,351c-2.34,0-4.116,1.728-4.116,4.608S-34.482,360.156-32.13,360.156Zm7.44,0a4,4,0,0,0,2.232-.7l-.48-.876a2.8,2.8,0,0,1-1.572.492,1.993,1.993,0,0,1-2.04-2.016h4.284a3.577,3.577,0,0,0,.072-.708c0-1.86-.948-3.12-2.7-3.12a3.208,3.208,0,0,0-3.012,3.468A3.174,3.174,0,0,0-24.69,360.156Zm-1.872-4.056a1.787,1.787,0,0,1,1.692-1.788c.96,0,1.476.66,1.476,1.788Zm5.9,3.9h1.38v-4.68a2.211,2.211,0,0,1,1.608-.9c.78,0,1.116.456,1.116,1.6V360h1.38v-4.152c0-1.68-.624-2.616-2.028-2.616a3.145,3.145,0,0,0-2.184,1.08h-.036l-.108-.912h-1.128Zm7.476,0h5.04v-1.14H-9.87v-7.452h-1.044a5.2,5.2,0,0,1-1.92.672v.876h1.584v5.9h-1.932Zm11.472,0H-.318v-7.668h2.6v-1.176H-4.3v1.176H-1.71Zm5.292,2.76c1.392,0,2.088-.948,2.6-2.364l2.424-7H7.266L6.21,356.8c-.168.6-.348,1.26-.516,1.86h-.06c-.2-.612-.408-1.272-.6-1.86L3.81,353.4H2.394l2.616,6.552-.132.456c-.24.708-.66,1.236-1.38,1.236a1.788,1.788,0,0,1-.48-.1l-.264,1.08A2.347,2.347,0,0,0,3.582,362.76Zm6.228-.084h1.38V360.54l-.048-1.128a2.722,2.722,0,0,0,1.74.744c1.488,0,2.844-1.3,2.844-3.564,0-2.028-.936-3.36-2.6-3.36a3.348,3.348,0,0,0-2.04.888h-.036l-.108-.72H9.81Zm2.808-3.66a2.21,2.21,0,0,1-1.428-.6v-3.228a2.273,2.273,0,0,1,1.56-.8c1.1,0,1.548.852,1.548,2.232C14.3,358.164,13.578,359.016,12.618,359.016Zm7.5,1.14a4,4,0,0,0,2.232-.7l-.48-.876a2.8,2.8,0,0,1-1.572.492,1.993,1.993,0,0,1-2.04-2.016h4.284a3.577,3.577,0,0,0,.072-.708c0-1.86-.948-3.12-2.7-3.12A3.208,3.208,0,0,0,16.9,356.7,3.174,3.174,0,0,0,20.118,360.156ZM18.246,356.1a1.787,1.787,0,0,1,1.692-1.788c.96,0,1.476.66,1.476,1.788Zm5.556,1.02H26.97V356.1H23.8Zm8.328,3.036a3.488,3.488,0,0,0,2.748-1.272l-.744-.876a2.555,2.555,0,0,1-1.956.936c-1.56,0-2.544-1.284-2.544-3.384,0-2.076,1.056-3.348,2.58-3.348a2.349,2.349,0,0,1,1.728.792l.756-.888A3.4,3.4,0,0,0,32.19,351c-2.232,0-3.984,1.728-3.984,4.608S29.91,360.156,32.13,360.156Zm12.348-.792.708-.7-3.2-3.2,3.2-3.192-.708-.708-3.192,3.2-3.192-3.2-.72.708,3.2,3.192-3.2,3.2.708.7,3.2-3.192Zm3.828.636h5.04v-1.14H51.618v-7.452H50.574a5.2,5.2,0,0,1-1.92.672v.876h1.584v5.9H48.306Zm8.952-2.268a9.3,9.3,0,0,1-2.7,2.232,7.385,7.385,0,0,1,1.02.78,14.032,14.032,0,0,0,2.832-2.592Zm8.388-.48a19.01,19.01,0,0,0-2.88-2.832l-.912.588c.36.312.744.66,1.128,1.02-1.344.036-2.688.06-3.96.084a41.324,41.324,0,0,0,4.032-3.588l-1.08-.588a27.971,27.971,0,0,1-2.808,2.76A12.738,12.738,0,0,0,58,353.8a23.013,23.013,0,0,0,2.016-2.136l-.1-.048a42.31,42.31,0,0,0,4.764-.588l-.792-.948a59.4,59.4,0,0,1-8.736.744,4.068,4.068,0,0,1,.264,1c.984-.012,2.028-.048,3.084-.108a18.326,18.326,0,0,1-1.356,1.524c-.24-.156-.48-.3-.708-.432l-.768.708a17.131,17.131,0,0,1,2.616,1.92c-.324.252-.636.492-.936.708-.96.012-1.836.024-2.568.024l.12,1.128c1.26-.024,2.868-.06,4.6-.12v3.78h1.176v-3.816c1.068-.024,2.172-.06,3.252-.108a9.1,9.1,0,0,1,.708.888ZM61.674,358.3a19.678,19.678,0,0,1,2.844,2.424l1-.72a22.116,22.116,0,0,0-2.916-2.328Zm9.312-3.84.1,1.032,5.172-.4a6.5,6.5,0,0,1,.468.888l.936-.5a13.753,13.753,0,0,0-1.872-2.736l-.864.456c.24.3.492.636.732.972-.864.06-1.728.12-2.52.168.288-.588.588-1.284.864-1.908h3.456V351.42h-2.8v-1.488H73.53v1.488H70.938v1.008h1.8a14.2,14.2,0,0,1-.744,1.968Zm-3.84,2.34a9.069,9.069,0,0,1-.708,2.808,4.69,4.69,0,0,1,.852.42,11.111,11.111,0,0,0,.8-3.06Zm3.072-.816a4.686,4.686,0,0,1,.192.648l.816-.36a9.3,9.3,0,0,0-1.092-2.484l-.756.312c.168.3.336.636.492.972-.516.036-1.02.06-1.5.072.78-1.008,1.644-2.316,2.316-3.408l-.924-.42c-.3.612-.708,1.344-1.14,2.052a8.676,8.676,0,0,0-.576-.66c.432-.66.936-1.584,1.356-2.388l-.984-.384a13.839,13.839,0,0,1-.984,2.172c-.108-.1-.216-.192-.324-.276l-.54.732a11.321,11.321,0,0,1,1.488,1.68c-.228.336-.468.66-.684.948l-.84.024.1.984c.54-.036,1.152-.072,1.812-.108v4.872h1v-4.932Zm1.008,2.892a13.862,13.862,0,0,0-.756-2.172l-.8.264a12.836,12.836,0,0,1,.708,2.2Zm1.176-3c-.072,2.2-.3,3.54-2.16,4.284a2.83,2.83,0,0,1,.636.828c2.124-.912,2.5-2.544,2.592-5.112Zm3.5,4.008c-.216,0-.252-.048-.252-.36v-3.66H74.61v3.66c0,1.02.2,1.344,1.116,1.344h.924c.768,0,1.044-.432,1.116-2.04a3.175,3.175,0,0,1-.936-.432c-.024,1.284-.072,1.488-.288,1.488ZM-14.388,400h5.04v-1.14h-1.728v-7.7H-12.12a5.194,5.194,0,0,1-1.92.684v.876h1.584v6.144h-1.932Zm8.952-2.268a9.3,9.3,0,0,1-2.7,2.232,7.385,7.385,0,0,1,1.02.78,14.032,14.032,0,0,0,2.832-2.592Zm8.388-.48a19.01,19.01,0,0,0-2.88-2.832l-.912.588c.36.312.744.66,1.128,1.02-1.344.036-2.688.06-3.96.084A41.324,41.324,0,0,0,.36,392.524l-1.08-.588a27.971,27.971,0,0,1-2.808,2.76,12.738,12.738,0,0,0-1.164-.9,23.013,23.013,0,0,0,2.016-2.136l-.1-.048a42.31,42.31,0,0,0,4.764-.588l-.792-.948a59.4,59.4,0,0,1-8.736.744,4.068,4.068,0,0,1,.264,1c.984-.012,2.028-.048,3.084-.108a18.327,18.327,0,0,1-1.356,1.524c-.24-.156-.48-.3-.708-.432l-.768.708a17.131,17.131,0,0,1,2.616,1.92c-.324.252-.636.492-.936.708-.96.012-1.836.024-2.568.024l.12,1.128c1.26-.024,2.868-.06,4.6-.12v3.78h1.176v-3.816c1.068-.024,2.172-.06,3.252-.108a9.1,9.1,0,0,1,.708.888ZM-1.02,398.3a19.678,19.678,0,0,1,2.844,2.424l1-.72A22.116,22.116,0,0,0-.1,397.672Zm9.312-3.84.1,1.032,5.172-.4a6.5,6.5,0,0,1,.468.888l.936-.5a13.753,13.753,0,0,0-1.872-2.736l-.864.456c.24.3.492.636.732.972-.864.06-1.728.12-2.52.168.288-.588.588-1.284.864-1.908H14.76V391.42h-2.8v-1.488H10.836v1.488H8.244v1.008h1.8A14.2,14.2,0,0,1,9.3,394.4Zm-3.84,2.34a9.069,9.069,0,0,1-.708,2.808,4.69,4.69,0,0,1,.852.42,11.11,11.11,0,0,0,.8-3.06Zm3.072-.816a4.687,4.687,0,0,1,.192.648l.816-.36a9.3,9.3,0,0,0-1.092-2.484l-.756.312c.168.3.336.636.492.972-.516.036-1.02.06-1.5.072.78-1.008,1.644-2.316,2.316-3.408l-.924-.42c-.3.612-.708,1.344-1.14,2.052a8.675,8.675,0,0,0-.576-.66c.432-.66.936-1.584,1.356-2.388l-.984-.384A13.838,13.838,0,0,1,4.74,392.1c-.108-.1-.216-.192-.324-.276l-.54.732a11.321,11.321,0,0,1,1.488,1.68c-.228.336-.468.66-.684.948l-.84.024.1.984c.54-.036,1.152-.072,1.812-.108v4.872h1v-4.932Zm1.008,2.892a13.862,13.862,0,0,0-.756-2.172l-.8.264a12.835,12.835,0,0,1,.708,2.2Zm1.176-3c-.072,2.2-.3,3.54-2.16,4.284a2.83,2.83,0,0,1,.636.828c2.124-.912,2.5-2.544,2.592-5.112Zm3.5,4.008c-.216,0-.252-.048-.252-.36v-3.66H11.916v3.66c0,1.02.2,1.344,1.116,1.344h.924c.768,0,1.044-.432,1.116-2.04a3.176,3.176,0,0,1-.936-.432c-.024,1.284-.072,1.488-.288,1.488ZM-14.388,440h5.04v-1.14h-1.728v-7.7H-12.12a5.194,5.194,0,0,1-1.92.684v.876h1.584v6.144h-1.932Zm8.952-2.268a9.3,9.3,0,0,1-2.7,2.232,7.385,7.385,0,0,1,1.02.78,14.032,14.032,0,0,0,2.832-2.592Zm8.388-.48a19.01,19.01,0,0,0-2.88-2.832l-.912.588c.36.312.744.66,1.128,1.02-1.344.036-2.688.06-3.96.084A41.324,41.324,0,0,0,.36,432.524l-1.08-.588a27.971,27.971,0,0,1-2.808,2.76,12.738,12.738,0,0,0-1.164-.9,23.013,23.013,0,0,0,2.016-2.136l-.1-.048a42.31,42.31,0,0,0,4.764-.588l-.792-.948a59.4,59.4,0,0,1-8.736.744,4.068,4.068,0,0,1,.264,1c.984-.012,2.028-.048,3.084-.108a18.327,18.327,0,0,1-1.356,1.524c-.24-.156-.48-.3-.708-.432l-.768.708a17.131,17.131,0,0,1,2.616,1.92c-.324.252-.636.492-.936.708-.96.012-1.836.024-2.568.024l.12,1.128c1.26-.024,2.868-.06,4.6-.12v3.78h1.176v-3.816c1.068-.024,2.172-.06,3.252-.108a9.1,9.1,0,0,1,.708.888ZM-1.02,438.3a19.678,19.678,0,0,1,2.844,2.424l1-.72A22.116,22.116,0,0,0-.1,437.672Zm9.312-3.84.1,1.032,5.172-.4a6.5,6.5,0,0,1,.468.888l.936-.5a13.753,13.753,0,0,0-1.872-2.736l-.864.456c.24.3.492.636.732.972-.864.06-1.728.12-2.52.168.288-.588.588-1.284.864-1.908H14.76V431.42h-2.8v-1.488H10.836v1.488H8.244v1.008h1.8A14.2,14.2,0,0,1,9.3,434.4Zm-3.84,2.34a9.069,9.069,0,0,1-.708,2.808,4.69,4.69,0,0,1,.852.42,11.11,11.11,0,0,0,.8-3.06Zm3.072-.816a4.687,4.687,0,0,1,.192.648l.816-.36a9.3,9.3,0,0,0-1.092-2.484l-.756.312c.168.3.336.636.492.972-.516.036-1.02.06-1.5.072.78-1.008,1.644-2.316,2.316-3.408l-.924-.42c-.3.612-.708,1.344-1.14,2.052a8.675,8.675,0,0,0-.576-.66c.432-.66.936-1.584,1.356-2.388l-.984-.384A13.838,13.838,0,0,1,4.74,432.1c-.108-.1-.216-.192-.324-.276l-.54.732a11.321,11.321,0,0,1,1.488,1.68c-.228.336-.468.66-.684.948l-.84.024.1.984c.54-.036,1.152-.072,1.812-.108v4.872h1v-4.932Zm1.008,2.892a13.862,13.862,0,0,0-.756-2.172l-.8.264a12.835,12.835,0,0,1,.708,2.2Zm1.176-3c-.072,2.2-.3,3.54-2.16,4.284a2.83,2.83,0,0,1,.636.828c2.124-.912,2.5-2.544,2.592-5.112Zm3.5,4.008c-.216,0-.252-.048-.252-.36v-3.66H11.916v3.66c0,1.02.2,1.344,1.116,1.344h.924c.768,0,1.044-.432,1.116-2.04a3.176,3.176,0,0,1-.936-.432c-.024,1.284-.072,1.488-.288,1.488ZM-14.388,480h5.04v-1.14h-1.728v-7.7H-12.12a5.194,5.194,0,0,1-1.92.684v.876h1.584v6.144h-1.932Zm8.952-2.268a9.3,9.3,0,0,1-2.7,2.232,7.385,7.385,0,0,1,1.02.78,14.032,14.032,0,0,0,2.832-2.592Zm8.388-.48a19.01,19.01,0,0,0-2.88-2.832l-.912.588c.36.312.744.66,1.128,1.02-1.344.036-2.688.06-3.96.084A41.324,41.324,0,0,0,.36,472.524l-1.08-.588a27.971,27.971,0,0,1-2.808,2.76,12.738,12.738,0,0,0-1.164-.9,23.013,23.013,0,0,0,2.016-2.136l-.1-.048a42.31,42.31,0,0,0,4.764-.588l-.792-.948a59.4,59.4,0,0,1-8.736.744,4.068,4.068,0,0,1,.264,1c.984-.012,2.028-.048,3.084-.108a18.327,18.327,0,0,1-1.356,1.524c-.24-.156-.48-.3-.708-.432l-.768.708a17.131,17.131,0,0,1,2.616,1.92c-.324.252-.636.492-.936.708-.96.012-1.836.024-2.568.024l.12,1.128c1.26-.024,2.868-.06,4.6-.12v3.78h1.176v-3.816c1.068-.024,2.172-.06,3.252-.108a9.1,9.1,0,0,1,.708.888ZM-1.02,478.3a19.678,19.678,0,0,1,2.844,2.424l1-.72A22.116,22.116,0,0,0-.1,477.672Zm9.312-3.84.1,1.032,5.172-.4a6.5,6.5,0,0,1,.468.888l.936-.5a13.753,13.753,0,0,0-1.872-2.736l-.864.456c.24.3.492.636.732.972-.864.06-1.728.12-2.52.168.288-.588.588-1.284.864-1.908H14.76V471.42h-2.8v-1.488H10.836v1.488H8.244v1.008h1.8A14.2,14.2,0,0,1,9.3,474.4Zm-3.84,2.34a9.069,9.069,0,0,1-.708,2.808,4.69,4.69,0,0,1,.852.42,11.11,11.11,0,0,0,.8-3.06Zm3.072-.816a4.687,4.687,0,0,1,.192.648l.816-.36a9.3,9.3,0,0,0-1.092-2.484l-.756.312c.168.3.336.636.492.972-.516.036-1.02.06-1.5.072.78-1.008,1.644-2.316,2.316-3.408l-.924-.42c-.3.612-.708,1.344-1.14,2.052a8.675,8.675,0,0,0-.576-.66c.432-.66.936-1.584,1.356-2.388l-.984-.384A13.838,13.838,0,0,1,4.74,472.1c-.108-.1-.216-.192-.324-.276l-.54.732a11.321,11.321,0,0,1,1.488,1.68c-.228.336-.468.66-.684.948l-.84.024.1.984c.54-.036,1.152-.072,1.812-.108v4.872h1v-4.932Zm1.008,2.892a13.862,13.862,0,0,0-.756-2.172l-.8.264a12.835,12.835,0,0,1,.708,2.2Zm1.176-3c-.072,2.2-.3,3.54-2.16,4.284a2.83,2.83,0,0,1,.636.828c2.124-.912,2.5-2.544,2.592-5.112Zm3.5,4.008c-.216,0-.252-.048-.252-.36v-3.66H11.916v3.66c0,1.02.2,1.344,1.116,1.344h.924c.768,0,1.044-.432,1.116-2.04a3.176,3.176,0,0,1-.936-.432c-.024,1.284-.072,1.488-.288,1.488ZM-14.388,520h5.04v-1.14h-1.728v-7.7H-12.12a5.194,5.194,0,0,1-1.92.684v.876h1.584v6.144h-1.932Zm8.952-2.268a9.3,9.3,0,0,1-2.7,2.232,7.38,7.38,0,0,1,1.02.78,14.034,14.034,0,0,0,2.832-2.592Zm8.388-.48a19.01,19.01,0,0,0-2.88-2.832l-.912.588c.36.312.744.66,1.128,1.02-1.344.036-2.688.06-3.96.084A41.32,41.32,0,0,0,.36,512.524l-1.08-.588a27.964,27.964,0,0,1-2.808,2.76,12.743,12.743,0,0,0-1.164-.9,23.021,23.021,0,0,0,2.016-2.136l-.1-.048a42.31,42.31,0,0,0,4.764-.588l-.792-.948a59.4,59.4,0,0,1-8.736.744,4.068,4.068,0,0,1,.264,1c.984-.012,2.028-.048,3.084-.108a18.327,18.327,0,0,1-1.356,1.524c-.24-.156-.48-.3-.708-.432l-.768.708a17.135,17.135,0,0,1,2.616,1.92c-.324.252-.636.492-.936.708-.96.012-1.836.024-2.568.024l.12,1.128c1.26-.024,2.868-.06,4.6-.12v3.78h1.176v-3.816c1.068-.024,2.172-.06,3.252-.108a9.1,9.1,0,0,1,.708.888ZM-1.02,518.3a19.676,19.676,0,0,1,2.844,2.424l1-.72A22.116,22.116,0,0,0-.1,517.672Zm9.312-3.84.1,1.032,5.172-.4a6.511,6.511,0,0,1,.468.888l.936-.5a13.754,13.754,0,0,0-1.872-2.736l-.864.456c.24.3.492.636.732.972-.864.06-1.728.12-2.52.168.288-.588.588-1.284.864-1.908H14.76V511.42h-2.8v-1.488H10.836v1.488H8.244v1.008h1.8A14.2,14.2,0,0,1,9.3,514.4Zm-3.84,2.34a9.069,9.069,0,0,1-.708,2.808,4.692,4.692,0,0,1,.852.42,11.111,11.111,0,0,0,.8-3.06Zm3.072-.816a4.686,4.686,0,0,1,.192.648l.816-.36a9.3,9.3,0,0,0-1.092-2.484l-.756.312c.168.3.336.636.492.972-.516.036-1.02.06-1.5.072.78-1.008,1.644-2.316,2.316-3.408l-.924-.42c-.3.612-.708,1.344-1.14,2.052a8.675,8.675,0,0,0-.576-.66c.432-.66.936-1.584,1.356-2.388l-.984-.384A13.838,13.838,0,0,1,4.74,512.1c-.108-.1-.216-.192-.324-.276l-.54.732a11.321,11.321,0,0,1,1.488,1.68c-.228.336-.468.66-.684.948l-.84.024.1.984c.54-.036,1.152-.072,1.812-.108v4.872h1v-4.932Zm1.008,2.892a13.861,13.861,0,0,0-.756-2.172l-.8.264a12.836,12.836,0,0,1,.708,2.2Zm1.176-3c-.072,2.2-.3,3.54-2.16,4.284a2.83,2.83,0,0,1,.636.828c2.124-.912,2.5-2.544,2.592-5.112Zm3.5,4.008c-.216,0-.252-.048-.252-.36v-3.66H11.916v3.66c0,1.02.2,1.344,1.116,1.344h.924c.768,0,1.044-.432,1.116-2.04a3.175,3.175,0,0,1-.936-.432c-.024,1.284-.072,1.488-.288,1.488Z" transform="translate(242 2344)" fill="#0a0a0a"/>
    <path id="パス_6849" data-name="パス 6849" d="M0,0V560" transform="translate(131 2319)" fill="none" stroke="#cecece" stroke-width="1"/>
    <path id="パス_6850" data-name="パス 6850" d="M0,0H315" transform="translate(30 2359)" fill="none" stroke="#cecece" stroke-width="1"/>
    <path id="パス_6851" data-name="パス 6851" d="M0,0H315" transform="translate(30 2399)" fill="none" stroke="#cecece" stroke-width="1"/>
    <path id="パス_6852" data-name="パス 6852" d="M0,0H315" transform="translate(30 2439)" fill="none" stroke="#cecece" stroke-width="1"/>
    <path id="パス_6853" data-name="パス 6853" d="M0,0H315" transform="translate(30 2479)" fill="none" stroke="#cecece" stroke-width="1"/>
    <path id="パス_6854" data-name="パス 6854" d="M0,0H315" transform="translate(30 2519)" fill="none" stroke="#cecece" stroke-width="1"/>
    <path id="パス_6855" data-name="パス 6855" d="M0,0H315" transform="translate(30 2559)" fill="none" stroke="#cecece" stroke-width="1"/>
    <path id="パス_6856" data-name="パス 6856" d="M0,0H263" transform="translate(82 2599)" fill="none" stroke="#cecece" stroke-width="1"/>
    <path id="パス_6857" data-name="パス 6857" d="M0,0H263" transform="translate(82 2639)" fill="none" stroke="#cecece" stroke-width="1"/>
    <path id="パス_6858" data-name="パス 6858" d="M0,0H263" transform="translate(82 2679)" fill="none" stroke="#cecece" stroke-width="1"/>
    <path id="パス_6859" data-name="パス 6859" d="M0,0H263" transform="translate(82 2719)" fill="none" stroke="#cecece" stroke-width="1"/>
    <path id="パス_6860" data-name="パス 6860" d="M0,0H263" transform="translate(82 2759)" fill="none" stroke="#cecece" stroke-width="1"/>
    <path id="パス_6861" data-name="パス 6861" d="M0,0H315" transform="translate(30 2799)" fill="none" stroke="#cecece" stroke-width="1"/>
    <path id="パス_6862" data-name="パス 6862" d="M0,0H263" transform="translate(82 2839)" fill="none" stroke="#cecece" stroke-width="1"/>
    <path id="パス_6863" data-name="パス 6863" d="M-9.228-9.372v1.128h2.856a13.26,13.26,0,0,0,.156,1.428l-.612-.108c-.7,3.252-2.148,5.616-4.728,6.948a8.535,8.535,0,0,1,1.032.9A10.583,10.583,0,0,0-5.916-5.4,10.181,10.181,0,0,0-1.32.9a5.638,5.638,0,0,1,.9-.948C-4.992-2.748-5.268-7.2-5.268-9.372ZM5.964-7.524v-2.52H4.788v2.52H1.008v1.14h3.72A7.7,7.7,0,0,1,.648.108a4.718,4.718,0,0,1,.864.9,8.686,8.686,0,0,0,4.4-7.392H9.672c-.2,3.924-.456,5.568-.864,5.952a.673.673,0,0,1-.552.18c-.3,0-1.032,0-1.824-.072a2.812,2.812,0,0,1,.4,1.152,14.292,14.292,0,0,0,1.908,0A1.46,1.46,0,0,0,9.84.276c.528-.612.756-2.388,1.02-7.248.012-.156.024-.552.024-.552ZM-.912,8.52H-1.98v1.944H-3.492V7.956H-4.56v2.508H-5.976V8.52H-7v2.916H-.912ZM-7.6,10.26H-8.94V8.088h-1V10.26h-1.428v1.008H-7.6ZM-9.84,15.372a19.293,19.293,0,0,0-.48-3.7l-.828.144a22.416,22.416,0,0,1,.408,3.708Zm1.284.4c.276-1.08.552-2.7.78-3.984l-1.032-.2a35.8,35.8,0,0,1-.624,4.212l.348.084c-.948.216-1.836.4-2.508.528l.252,1.092c1.14-.288,2.64-.648,4.056-1.02L-7.4,15.5ZM-.516,13.2v-.984h-6.96V13.2h2.784c-.06.336-.132.672-.2.984H-7.152v4.74h1.008V15.132h.864V18.8h.852V15.132h.912V18.78h.864V15.132h.9v2.8c0,.108-.024.144-.12.144s-.36,0-.672-.012a3.106,3.106,0,0,1,.3.888A2.3,2.3,0,0,0-1.08,18.78c.264-.144.336-.408.336-.84V14.184H-3.792c.108-.312.228-.648.348-.984Zm11.952-.012H6.6v-1a18,18,0,0,0,3.864-2.9l-.84-.636-.252.072H1.824V9.816H8.2A14.038,14.038,0,0,1,6.084,11.28H5.436v1.908H.588V14.3H5.436v3.264c0,.2-.072.264-.324.276-.276,0-1.176.012-2.076-.024a4.7,4.7,0,0,1,.48,1.152,8.268,8.268,0,0,0,2.412-.192c.5-.192.672-.516.672-1.2V14.3h4.836Z" transform="translate(58 2623)" fill="#0a0a0a"/>
    <path id="パス_6864" data-name="パス 6864" d="M-2.436-4.032V-.876H-5.5V-4.752h3.744v-4.2H-2.928v3.12H-5.5V-9.984h-1.14v4.152H-9.084V-8.94H-10.2v4.188h3.564V-.876H-9.528V-4.032h-1.128V.948h1.128V.216h7.092V.924h1.152V-4.032Zm8.4-3.492v-2.52H4.788v2.52H1.008v1.14h3.72A7.7,7.7,0,0,1,.648.108a4.718,4.718,0,0,1,.864.9,8.686,8.686,0,0,0,4.4-7.392H9.672c-.2,3.924-.456,5.568-.864,5.952a.673.673,0,0,1-.552.18c-.3,0-1.032,0-1.824-.072a2.812,2.812,0,0,1,.4,1.152,14.292,14.292,0,0,0,1.908,0A1.46,1.46,0,0,0,9.84.276c.528-.612.756-2.388,1.02-7.248.012-.156.024-.552.024-.552ZM-.912,8.52H-1.98v1.944H-3.492V7.956H-4.56v2.508H-5.976V8.52H-7v2.916H-.912ZM-7.6,10.26H-8.94V8.088h-1V10.26h-1.428v1.008H-7.6ZM-9.84,15.372a19.293,19.293,0,0,0-.48-3.7l-.828.144a22.416,22.416,0,0,1,.408,3.708Zm1.284.4c.276-1.08.552-2.7.78-3.984l-1.032-.2a35.8,35.8,0,0,1-.624,4.212l.348.084c-.948.216-1.836.4-2.508.528l.252,1.092c1.14-.288,2.64-.648,4.056-1.02L-7.4,15.5ZM-.516,13.2v-.984h-6.96V13.2h2.784c-.06.336-.132.672-.2.984H-7.152v4.74h1.008V15.132h.864V18.8h.852V15.132h.912V18.78h.864V15.132h.9v2.8c0,.108-.024.144-.12.144s-.36,0-.672-.012a3.106,3.106,0,0,1,.3.888A2.3,2.3,0,0,0-1.08,18.78c.264-.144.336-.408.336-.84V14.184H-3.792c.108-.312.228-.648.348-.984Zm11.952-.012H6.6v-1a18,18,0,0,0,3.864-2.9l-.84-.636-.252.072H1.824V9.816H8.2A14.038,14.038,0,0,1,6.084,11.28H5.436v1.908H.588V14.3H5.436v3.264c0,.2-.072.264-.324.276-.276,0-1.176.012-2.076-.024a4.7,4.7,0,0,1,.48,1.152,8.268,8.268,0,0,0,2.412-.192c.5-.192.672-.516.672-1.2V14.3h4.836Z" transform="translate(58 2834)" fill="#0a0a0a"/>
    <path id="パス_6865" data-name="パス 6865" d="M0,0V320" transform="translate(82 2559)" fill="none" stroke="#cecece" stroke-width="1"/>
  </g>
</svg>
