<svg xmlns="http://www.w3.org/2000/svg" width="510" height="228" viewBox="0 0 510 228">
  <g id="グループ_3985" data-name="グループ 3985" transform="translate(-623 -2775)">
    <g id="グループ_1858" data-name="グループ 1858" transform="translate(0 85)">
      <path id="パス_6884" data-name="パス 6884" d="M0,0H182V228H0Z" transform="translate(623 2690)" fill="#e4f5f2"/>
      <path id="パス_6885" data-name="パス 6885" d="M0,0V228" transform="translate(805 2690)" fill="none" stroke="#cecece" stroke-width="1"/>
      <g id="パス_6886" data-name="パス 6886" transform="translate(623 2690)" fill="none">
        <path d="M0,0H510V228H0Z" stroke="none"/>
        <path d="M 1 1 L 1 227 L 509 227 L 509 1 L 1 1 M 0 0 L 510 0 L 510 228 L 0 228 L 0 0 Z" stroke="none" fill="#cecece"/>
      </g>
      <path id="パス_6887" data-name="パス 6887" d="M0,0H510" transform="translate(623 2728)" fill="none" stroke="#cecece" stroke-width="1"/>
      <path id="パス_6888" data-name="パス 6888" d="M0,0H510" transform="translate(623 2766)" fill="none" stroke="#cecece" stroke-width="1"/>
      <path id="パス_6889" data-name="パス 6889" d="M0,0H510" transform="translate(623 2804)" fill="none" stroke="#cecece" stroke-width="1"/>
      <path id="パス_6890" data-name="パス 6890" d="M0,0H510" transform="translate(623 2842)" fill="none" stroke="#cecece" stroke-width="1"/>
      <path id="パス_6891" data-name="パス 6891" d="M0,0H510" transform="translate(623 2880)" fill="none" stroke="#cecece" stroke-width="1"/>
      <path id="パス_6892" data-name="パス 6892" d="M-31.57-6.678A16.965,16.965,0,0,0-27.706-10.5a18.323,18.323,0,0,0,4.032,3.822Zm4.564,4.214h4.074V-3.6h-4.074V-5.53h3.5V-6.566a17.534,17.534,0,0,0,1.54.98,7.634,7.634,0,0,1,.854-1.148A16.567,16.567,0,0,1-27.1-11.788h-1.33A15.938,15.938,0,0,1-34.16-6.58a5.131,5.131,0,0,1,.826,1.05,16.521,16.521,0,0,0,1.61-1.036V-5.53h3.346V-3.6h-4v1.134h4v2.03h-5.138V.742H-21.7V-.434h-5.306Zm10.612-8.442-.8,1.2c.868.49,2.366,1.484,3.08,2l.826-1.2C-13.944-9.38-15.526-10.416-16.394-10.906ZM-18.7-.924l.826,1.442A16.4,16.4,0,0,0-13.23-1.218,16.666,16.666,0,0,0-7.756-6.23L-8.61-7.714A14.4,14.4,0,0,1-13.972-2.52,15.374,15.374,0,0,1-18.7-.924Zm.182-6.8-.8,1.2A35.037,35.037,0,0,1-16.2-4.564l.812-1.246C-16.044-6.272-17.64-7.266-18.522-7.728Zm22.9-3H2.716A10.825,10.825,0,0,1,2.8-9.436v2.408c0,2.45-.182,3.542-1.162,4.662a6.53,6.53,0,0,1-3.36,1.82L-.56.672A7.646,7.646,0,0,0,2.786-1.372c1.036-1.176,1.54-2.366,1.54-5.572V-9.436C4.326-9.94,4.354-10.36,4.382-10.724Zm-6.5.112h-1.61a9.043,9.043,0,0,1,.056,1.036v4.69c0,.406-.042.9-.056,1.134h1.61c-.028-.28-.056-.77-.056-1.134v-4.69C-2.17-9.968-2.142-10.318-2.114-10.612ZM8.708-6.244v1.736c.476-.042,1.316-.07,2.086-.07H18.41c.616,0,1.26.056,1.568.07V-6.244c-.35.028-.9.084-1.568.084H10.794C10.038-6.16,9.17-6.216,8.708-6.244Zm22.61-5.264-.91.378a16.085,16.085,0,0,1,1.008,1.736l-.546-.42a4.247,4.247,0,0,1-1.218.14H24.458c-.434,0-1.246-.042-1.526-.084v1.582c.224-.014.98-.084,1.526-.084H29.6a11.518,11.518,0,0,1-2.226,3.7A15.7,15.7,0,0,1,21.616-.476L22.75.714A18.333,18.333,0,0,0,28.14-3.3,32.291,32.291,0,0,1,31.85.77L33.082-.308a37.212,37.212,0,0,0-4-4.1,19.525,19.525,0,0,0,2.3-3.99,4.223,4.223,0,0,1,.406-.728l-.14-.112.8-.35A19.441,19.441,0,0,0,31.318-11.508ZM32.984-12l-.9.378a15.527,15.527,0,0,1,1.134,1.932l.91-.406A18.585,18.585,0,0,0,32.984-12ZM-32.354,38h6.65V36.628H-28.28c-.5,0-1.148.042-1.68.1,2.184-2.086,3.766-4.144,3.766-6.132A2.914,2.914,0,0,0-29.3,27.5a4,4,0,0,0-3.136,1.54l.91.9a2.8,2.8,0,0,1,2.03-1.148,1.673,1.673,0,0,1,1.75,1.89c0,1.694-1.568,3.7-4.606,6.384ZM-21,38.182c2.016,0,3.332-1.792,3.332-5.376,0-3.556-1.316-5.306-3.332-5.306s-3.332,1.736-3.332,5.306S-23.016,38.182-21,38.182Zm0-1.274c-1.05,0-1.792-1.12-1.792-4.1,0-2.954.742-4.032,1.792-4.032s1.792,1.078,1.792,4.032C-19.208,35.788-19.95,36.908-21,36.908Zm7.98,1.274c2.016,0,3.332-1.792,3.332-5.376C-9.688,29.25-11,27.5-13.02,27.5s-3.332,1.736-3.332,5.306S-15.036,38.182-13.02,38.182Zm0-1.274c-1.05,0-1.792-1.12-1.792-4.1,0-2.954.742-4.032,1.792-4.032s1.792,1.078,1.792,4.032C-11.228,35.788-11.97,36.908-13.02,36.908ZM4.06,28.536V27.262H-8.106v1.274h3.542c-.112,3.486-.266,7.518-4,9.534a3.9,3.9,0,0,1,.938,1.05c2.688-1.54,3.7-4.046,4.1-6.734h4.97c-.182,3.4-.392,4.872-.8,5.222a.793.793,0,0,1-.658.168c-.378,0-1.372,0-2.366-.084a3.034,3.034,0,0,1,.448,1.274A17.769,17.769,0,0,0,.5,38.98a1.727,1.727,0,0,0,1.316-.574c.546-.6.784-2.282,1.022-6.678.014-.182.014-.6.014-.6H-3.36c.084-.868.112-1.736.14-2.59Zm12.4,8.484H7.5V29.53H6.23v9.562H7.5v-.84h8.96v.812h1.274V29.53H16.464Zm-2.324-4.7H12.488V30.79H14.14Zm0,2.576H12.488v-1.54H14.14Zm-4.424-1.54h1.638v1.54H9.716Zm0-2.562h1.638v1.526H9.716ZM5.8,27.136v1.2H11.27v1.372H8.624V35.97h6.65V29.712h-2.7V28.34h5.572v-1.2Zm17.122,9.016a11.136,11.136,0,0,1-3.3,1.862,8.743,8.743,0,0,1,.994.882,14.036,14.036,0,0,0,3.528-2.3Zm9.394-.49a16.336,16.336,0,0,0-3.3-2.45l-.91.672c.42.252.868.56,1.3.868-1.5.028-3,.056-4.424.07a34.92,34.92,0,0,0,3.738-2.534l-1.162-.63A25.8,25.8,0,0,1,24.64,33.87c-.294-.21-.63-.42-.98-.644.644-.448,1.414-1.064,2.1-1.652H32.1V30.566H26.586v-.742h4.13v-.966h-4.13v-.742h4.9V27.15h-4.9v-.91h-1.3v.91H20.608v.966h4.676v.742h-3.92v.966h3.92v.742H19.866v1.008h4.2a12.293,12.293,0,0,1-1.316,1.134l-.812-.406-.854.728a18.435,18.435,0,0,1,2.492,1.512c-.182.112-.364.21-.546.308-1.176.014-2.24.028-3.122.028l.084,1.078c1.442-.028,3.29-.056,5.306-.112v3.234h1.288V35.816c1.33-.028,2.7-.07,4.032-.112a8.59,8.59,0,0,1,.714.7ZM27.734,36.81a18.355,18.355,0,0,1,3.29,2l1.008-.742A17.393,17.393,0,0,0,28.7,36.138ZM-37.716,76h5.88V74.67h-2.016V65.682H-35.07a6.06,6.06,0,0,1-2.24.8V67.5h1.848V74.67h-2.254Zm8.876-7.112c0-1.344.7-2.142,1.582-2.142,1.12,0,1.89.924,2.044,2.954a2.449,2.449,0,0,1-1.96,1.26C-28.252,70.96-28.84,70.2-28.84,68.888Zm1.3,7.294c1.988,0,3.836-1.624,3.836-5.684,0-3.416-1.6-5-3.57-5a3.151,3.151,0,0,0-3.066,3.388c0,2.156,1.162,3.234,2.884,3.234a3.1,3.1,0,0,0,2.268-1.2c-.1,2.94-1.176,3.948-2.422,3.948a2.29,2.29,0,0,1-1.68-.77l-.882.994A3.536,3.536,0,0,0-27.538,76.182ZM-22.344,76h6.65V74.628H-18.27c-.5,0-1.148.042-1.68.1,2.184-2.086,3.766-4.144,3.766-6.132A2.914,2.914,0,0,0-19.292,65.5a4,4,0,0,0-3.136,1.54l.91.9a2.8,2.8,0,0,1,2.03-1.148,1.673,1.673,0,0,1,1.75,1.89c0,1.694-1.568,3.7-4.606,6.384Zm11.354.182c2.016,0,3.332-1.792,3.332-5.376,0-3.556-1.316-5.306-3.332-5.306s-3.332,1.736-3.332,5.306S-13.006,76.182-10.99,76.182Zm0-1.274c-1.05,0-1.792-1.12-1.792-4.1,0-2.954.742-4.032,1.792-4.032S-9.2,67.852-9.2,70.806C-9.2,73.788-9.94,74.908-10.99,74.908Zm14.728.35.826-.812L.826,70.708l3.738-3.724-.826-.826L.014,69.9-3.71,66.158l-.84.826,3.738,3.724L-4.55,74.446l.826.812L.014,71.534ZM8.2,76h5.88V74.67H12.068V65.682H10.85a6.06,6.06,0,0,1-2.24.8V67.5h1.848V74.67H8.2Zm10.766.182c2.016,0,3.332-1.792,3.332-5.376,0-3.556-1.316-5.306-3.332-5.306s-3.332,1.736-3.332,5.306S16.954,76.182,18.97,76.182Zm0-1.274c-1.05,0-1.792-1.12-1.792-4.1,0-2.954.742-4.032,1.792-4.032s1.792,1.078,1.792,4.032C20.762,73.788,20.02,74.908,18.97,74.908Zm7.994,1.274c1.988,0,3.332-1.176,3.332-2.7a3.012,3.012,0,0,0-1.736-2.73v-.07a3.2,3.2,0,0,0,1.358-2.422,2.661,2.661,0,0,0-2.912-2.73,2.691,2.691,0,0,0-2.94,2.66A2.913,2.913,0,0,0,25.452,70.6v.07A3.156,3.156,0,0,0,23.6,73.438C23.6,75.034,25.032,76.182,26.964,76.182Zm.672-5.908c-1.148-.448-2.128-.966-2.128-2.086a1.411,1.411,0,0,1,1.47-1.5,1.529,1.529,0,0,1,1.582,1.666A2.608,2.608,0,0,1,27.636,70.274Zm-.644,4.746a1.8,1.8,0,0,1-1.96-1.736,2.629,2.629,0,0,1,1.2-2.156c1.4.574,2.534,1.05,2.534,2.31A1.587,1.587,0,0,1,26.992,75.02Zm7.938,1.162c2.016,0,3.332-1.792,3.332-5.376,0-3.556-1.316-5.306-3.332-5.306S31.6,67.236,31.6,70.806,32.914,76.182,34.93,76.182Zm0-1.274c-1.05,0-1.792-1.12-1.792-4.1,0-2.954.742-4.032,1.792-4.032s1.792,1.078,1.792,4.032C36.722,73.788,35.98,74.908,34.93,74.908Zm-81.55,28.018h-1.6a10.774,10.774,0,0,1,.126,1.274c.014.336.028.756.042,1.218h-4.886a10.986,10.986,0,0,1-1.4-.1V106.8q.693-.042,1.428-.042h4.27a17.071,17.071,0,0,1-6.314,5.152l1.008,1.148a19.394,19.394,0,0,0,5.95-5.012c.028,1.708.042,3.458.042,4.508,0,.378-.14.56-.518.56a14.24,14.24,0,0,1-1.918-.154l.112,1.442c.742.042,1.554.084,2.324.084.938,0,1.414-.448,1.414-1.26-.014-1.806-.07-4.4-.112-6.468H-44.6c.35,0,.854.014,1.232.028v-1.47a11.266,11.266,0,0,1-1.3.1h-2c0-.476-.014-.882-.014-1.218A7.777,7.777,0,0,1-46.62,102.926Zm5.978,4.83v1.736c.476-.042,1.316-.07,2.086-.07h7.616c.616,0,1.26.056,1.568.07v-1.736c-.35.028-.9.084-1.568.084h-7.616C-39.312,107.84-40.18,107.784-40.642,107.756Zm17.22,4.956a14.656,14.656,0,0,1-.112,1.792h1.722a16.4,16.4,0,0,1-.112-1.792v-4.326a36.658,36.658,0,0,1,5.292,2.184l.63-1.526a47.456,47.456,0,0,0-5.922-2.24V104.62c0-.49.056-1.106.1-1.568h-1.722a10.135,10.135,0,0,1,.126,1.568Zm21.644-8.022-1.078-.7a3.567,3.567,0,0,1-.9.1h-6.79a12.556,12.556,0,0,1-1.512-.112v1.568c.35-.028.91-.056,1.512-.056h6.874a9.667,9.667,0,0,1-1.75,4.3,9.235,9.235,0,0,1-5.474,3.332l1.2,1.316a10.789,10.789,0,0,0,5.572-3.794A13.879,13.879,0,0,0-2.03,105.5,4.254,4.254,0,0,1-1.778,104.69Zm11.032.686H7.8a9.531,9.531,0,0,1,.1,1.036c.014.28.028.616.042,1.022H3.892a7.451,7.451,0,0,1-1.134-.084v1.386c.364-.028.784-.042,1.162-.042H7.35a14.133,14.133,0,0,1-5.068,4.046l.966,1.106A15.977,15.977,0,0,0,7.98,109.9c.014,1.316.028,2.632.028,3.43,0,.28-.112.434-.364.434a13.311,13.311,0,0,1-1.666-.14l.084,1.274c.588.042,1.47.084,2.086.084a1.076,1.076,0,0,0,1.19-1.078c-.014-1.372-.056-3.486-.1-5.208h1.876c.294,0,.7.014.98.028V107.35a6.835,6.835,0,0,1-1.022.084H9.212c0-.406-.014-.756-.014-1.022A6.257,6.257,0,0,1,9.254,105.376Zm6.1,2.38v1.736c.476-.042,1.316-.07,2.086-.07H25.06c.616,0,1.26.056,1.568.07v-1.736c-.35.028-.9.084-1.568.084H17.444C16.688,107.84,15.82,107.784,15.358,107.756ZM35.252,102.9H33.614a8.9,8.9,0,0,1,.1,1.2q0,.714-.042,1.344H31.416c-.546,0-1.176-.042-1.708-.084v1.456c.532-.042,1.19-.056,1.708-.056h2.128a8.7,8.7,0,0,1-2.562,5.5,7.471,7.471,0,0,1-1.61,1.176l1.288,1.05c2.408-1.694,3.794-3.836,4.312-7.728h3.584c0,1.512-.182,4.676-.658,5.656a.74.74,0,0,1-.8.476,16.028,16.028,0,0,1-2.03-.168l.168,1.47c.714.056,1.526.1,2.282.1a1.561,1.561,0,0,0,1.624-.952c.616-1.372.8-5.376.84-6.79.014-.168.056-.476.1-.714l-.98-.476a6.365,6.365,0,0,1-.966.084H35.112c.028-.434.056-.9.07-1.372C35.2,103.738,35.224,103.22,35.252,102.9Zm18.158,1.68-.91-.672a4.247,4.247,0,0,1-1.218.14H46.088a14.979,14.979,0,0,1-1.526-.1v1.582c.224-.014.98-.084,1.526-.084h5.138a11.518,11.518,0,0,1-2.226,3.7,15.731,15.731,0,0,1-5.754,4.1l1.134,1.19a18.378,18.378,0,0,0,5.39-4.032,31.419,31.419,0,0,1,3.71,4.088l1.232-1.092a37.212,37.212,0,0,0-4-4.1,19.162,19.162,0,0,0,2.3-3.99A4.833,4.833,0,0,1,53.41,104.578ZM-7.252,140.842l-1.442-.042a7.406,7.406,0,0,1-.042.742c-.028.28-.07.588-.1.938H-9.6a19.732,19.732,0,0,1-2.436-.182l.042,1.3c.6.028,1.694.1,2.352.1h.686c-.056.6-.112,1.26-.14,1.9-1.946.91-3.486,2.772-3.486,4.578a1.685,1.685,0,0,0,1.764,1.876,4.818,4.818,0,0,0,2.282-.672c.07.252.14.476.21.686l1.274-.378c-.112-.35-.238-.714-.336-1.106a11.05,11.05,0,0,0,3.038-4.41,2.314,2.314,0,0,1,1.778,2.212c0,1.61-1.372,2.94-3.976,3.234l.756,1.162c3.332-.518,4.578-2.338,4.578-4.34a3.529,3.529,0,0,0-2.758-3.36c.1-.252.21-.6.294-.784l-1.372-.336a7.37,7.37,0,0,1-.168.91,3.8,3.8,0,0,0-.406-.014,9.074,9.074,0,0,0-2.24.308c.042-.518.084-1.036.126-1.512a42.534,42.534,0,0,0,5.012-.518l-.014-1.3a25.592,25.592,0,0,1-4.844.6c.056-.336.112-.658.168-.924A5.893,5.893,0,0,1-7.252,140.842Zm-.658,5.866v-.336a6.525,6.525,0,0,1,2.226-.392h.1A9.133,9.133,0,0,1-7.7,149.172,14.836,14.836,0,0,1-7.91,146.708Zm-3.36,3.22a4.054,4.054,0,0,1,2.128-3,18.222,18.222,0,0,0,.308,3.164,3.268,3.268,0,0,1-1.694.616C-11.032,150.712-11.27,150.446-11.27,149.928ZM4.872,140.87l-1.526-.07a12.159,12.159,0,0,1-.112,1.33,36.94,36.94,0,0,0-.406,4.508,17.6,17.6,0,0,0,.154,2.268l1.372-.1A6.483,6.483,0,0,1,4.3,147.2c.126-1.848,1.68-4.368,3.388-4.368,1.33,0,2.072,1.428,2.072,3.612,0,3.472-2.3,4.606-5.362,5.082l.84,1.274c3.57-.658,6.006-2.45,6.006-6.356,0-3.01-1.414-4.886-3.318-4.886-1.694,0-3.038,1.5-3.654,2.772A27.1,27.1,0,0,1,4.872,140.87Zm-25.354,49.312c2.282,0,3.822-1.246,3.822-4.606v-5.894h-1.568v6.006c0,2.324-.952,3.08-2.254,3.08s-2.212-.756-2.212-3.08v-6.006h-1.624v5.894C-24.318,188.936-22.764,190.182-20.482,190.182Zm9.268,0c2.254,0,3.626-1.344,3.626-3a2.877,2.877,0,0,0-2.1-2.786l-1.414-.6c-.84-.336-1.666-.672-1.666-1.568,0-.812.686-1.316,1.736-1.316a3.282,3.282,0,0,1,2.268.924l.854-1.036a4.414,4.414,0,0,0-3.122-1.3c-1.96,0-3.388,1.218-3.388,2.842a2.964,2.964,0,0,0,2.1,2.7l1.428.616c.952.42,1.652.714,1.652,1.652,0,.868-.7,1.456-1.946,1.456a4,4,0,0,1-2.744-1.218l-.952,1.12A5.141,5.141,0,0,0-11.214,190.182ZM-5.642,190H-2.2c2.282,0,3.948-.98,3.948-3.024a2.366,2.366,0,0,0-2.03-2.45v-.07a2.292,2.292,0,0,0,1.47-2.226c0-1.862-1.526-2.548-3.64-2.548H-5.642Zm1.624-6.006v-3.038H-2.59c1.456,0,2.184.406,2.184,1.484,0,.966-.658,1.554-2.226,1.554Zm0,4.732v-3.514H-2.38c1.638,0,2.534.518,2.534,1.68,0,1.26-.924,1.834-2.534,1.834ZM6.1,190h6.65v-1.372H10.136c-.5,0-1.162.042-1.68.1,2.142-2.24,3.808-4.088,3.808-5.922a2.882,2.882,0,0,0-3.108-3.024,4.043,4.043,0,0,0-3.136,1.54l.91.9a2.8,2.8,0,0,1,2.03-1.148,1.632,1.632,0,0,1,1.75,1.82c0,1.568-1.736,3.36-4.606,6.174Zm9.45.182a1.071,1.071,0,0,0,1.078-1.12,1.08,1.08,0,1,0-2.156,0A1.071,1.071,0,0,0,15.554,190.182Zm6.076,0c2.058,0,3.332-1.862,3.332-5.236s-1.274-5.166-3.332-5.166-3.332,1.792-3.332,5.166S19.586,190.182,21.63,190.182Zm0-1.274c-1.05,0-1.792-1.078-1.792-3.962s.742-3.892,1.792-3.892,1.792,1.008,1.792,3.892S22.68,188.908,21.63,188.908Z" transform="translate(969 2715)" fill="#0a0a0a"/>
      <path id="パス_6893" data-name="パス 6893" d="M4.886-8.008a18.741,18.741,0,0,1-.77,3.248c-.672-.812-1.372-1.624-2.044-2.324l-.91.742A36.383,36.383,0,0,1,3.556-3.43,8.147,8.147,0,0,1,.448-.014,7.216,7.216,0,0,1,1.33.994,9.47,9.47,0,0,0,4.354-2.3,14.142,14.142,0,0,1,5.446-.406L6.5-1.288A17.113,17.113,0,0,0,5-3.626,18.98,18.98,0,0,0,6.16-7.84ZM13.4-8.526H11.816v-3.22H10.528v3.22H7.294V-9.52h-2.7v-2.212H3.332V-9.52H.784v1.2H6.86v1.05h3.668V-.588c0,.238-.1.308-.336.308S9.2-.266,8.358-.294a6.018,6.018,0,0,1,.42,1.386A6.612,6.612,0,0,0,11.186.826c.448-.238.63-.616.63-1.414V-7.266H13.4ZM9.478-2.954a10.527,10.527,0,0,0-1.526-3.01l-1.064.5a11.656,11.656,0,0,1,1.47,3.066ZM17-8.778h10.29v-1.26H22.092v-1.708H20.734v1.708h-5.04v3.556c0,2-.1,4.844-1.232,6.832a6.636,6.636,0,0,1,1.106.742C16.786-1.05,17-4.3,17-6.482Zm7.294,2.31A17.424,17.424,0,0,0,21-8.512l-.882.854A17.263,17.263,0,0,1,23.352-5.5Zm-6.244,6.3a12.122,12.122,0,0,0,1.162-4.48l-1.19-.266A10.578,10.578,0,0,1,16.884-.686Zm3.766-.168c-.476,0-.574-.084-.574-.574V-6.048H19.964V-.91c0,1.33.336,1.75,1.652,1.75h1.82C24.668.84,25,.2,25.13-2.128a4.1,4.1,0,0,1-1.148-.532c-.07,1.974-.14,2.324-.644,2.324Zm2.646-4.452a15.435,15.435,0,0,1,1.848,4.62L27.58-.7a14.962,14.962,0,0,0-1.974-4.55Zm6.02-5.306v1.4c.392-.028.812-.042,1.3-.042H33.5v2.7H30.968c-.406,0-1.022-.028-1.414-.07v1.47c.406-.028,1.036-.056,1.414-.056H33.5v2.954c0,1.26.644,2.072,2.954,2.072,1.33,0,2.772-.056,3.794-.126l.084-1.5a30.229,30.229,0,0,1-3.64.2c-1.218,0-1.708-.35-1.708-1.092V-4.69h4.536c.308,0,.868,0,1.232.028L40.74-6.09c-.336.028-.952.056-1.246.056H34.986v-2.7h3.486c.5,0,.854.028,1.2.042v-1.4a9.929,9.929,0,0,1-1.2.056H31.78C31.29-10.038,30.87-10.066,30.478-10.094Zm14.28-.28v1.442c.378-.028.9-.056,1.372-.056h4.718c.448,0,.952.028,1.4.056v-1.442a11.74,11.74,0,0,1-1.4.084H46.116A10.557,10.557,0,0,1,44.758-10.374ZM43.106-6.832v1.456c.392-.028.854-.042,1.274-.042h4.046a6.471,6.471,0,0,1-.84,3.3A5.83,5.83,0,0,1,45-.028l1.288.952A6.846,6.846,0,0,0,49.07-1.694a8.593,8.593,0,0,0,.868-3.724H53.55c.364,0,.84.014,1.176.028V-6.832a8.931,8.931,0,0,1-1.176.07H44.38A12.267,12.267,0,0,1,43.106-6.832Zm9.912-4.606-.9.378a16.71,16.71,0,0,1,1.106,1.932l.924-.392A20.288,20.288,0,0,0,53.018-11.438Zm1.582-.6-.9.378A14.051,14.051,0,0,1,54.852-9.73l.91-.406A17.84,17.84,0,0,0,54.6-12.04ZM63.21-.308l.924.77a4.352,4.352,0,0,1,.532-.35A14.731,14.731,0,0,0,69.44-3.752l-.854-1.2a9.849,9.849,0,0,1-3.808,3.22V-9.478a8.432,8.432,0,0,1,.07-1.12H63.224a10.261,10.261,0,0,1,.084,1.12V-1.19A4.038,4.038,0,0,1,63.21-.308ZM56.756-.434l1.344.9a7.865,7.865,0,0,0,2.492-3.92,30.671,30.671,0,0,0,.434-5.978,10.479,10.479,0,0,1,.07-1.12H59.472a4.363,4.363,0,0,1,.112,1.134,24.275,24.275,0,0,1-.406,5.586A6.48,6.48,0,0,1,56.756-.434ZM11.494,37.02H2.534V29.53H1.26v9.562H2.534v-.84h8.96v.812h1.274V29.53H11.494Zm-2.324-4.7H7.518V30.79H9.17Zm0,2.576H7.518v-1.54H9.17Zm-4.424-1.54H6.384v1.54H4.746Zm0-2.562H6.384v1.526H4.746ZM.826,27.136v1.2H6.3v1.372H3.654V35.97H10.3V29.712H7.6V28.34h5.572v-1.2Zm17.122,9.016a11.136,11.136,0,0,1-3.3,1.862,8.743,8.743,0,0,1,.994.882,14.036,14.036,0,0,0,3.528-2.3Zm9.394-.49a16.336,16.336,0,0,0-3.3-2.45l-.91.672c.42.252.868.56,1.3.868-1.5.028-3,.056-4.424.07a34.92,34.92,0,0,0,3.738-2.534l-1.162-.63A25.8,25.8,0,0,1,19.67,33.87c-.294-.21-.63-.42-.98-.644.644-.448,1.414-1.064,2.1-1.652h6.342V30.566H21.616v-.742h4.13v-.966h-4.13v-.742h4.9V27.15h-4.9v-.91h-1.3v.91H15.638v.966h4.676v.742h-3.92v.966h3.92v.742H14.9v1.008h4.2a12.293,12.293,0,0,1-1.316,1.134l-.812-.406-.854.728a18.435,18.435,0,0,1,2.492,1.512c-.182.112-.364.21-.546.308-1.176.014-2.24.028-3.122.028l.084,1.078c1.442-.028,3.29-.056,5.306-.112v3.234h1.288V35.816c1.33-.028,2.7-.07,4.032-.112a8.59,8.59,0,0,1,.714.7ZM22.764,36.81a18.355,18.355,0,0,1,3.29,2l1.008-.742a17.393,17.393,0,0,0-3.332-1.932ZM34.048,26.478a11.345,11.345,0,0,1-.994,1.806l.868.392c.35-.434.8-1.106,1.246-1.736Zm5.208,3.528a15.617,15.617,0,0,1-1.008,3.948,18.9,18.9,0,0,1-1.078-3.948Zm-6.2,4.634a4.377,4.377,0,0,1-.728,1.61c-.476-.238-.98-.448-1.47-.644.168-.308.336-.644.518-.966Zm8.372-4.634V28.774H37.52c.2-.756.35-1.54.49-2.338l-1.316-.2a13.685,13.685,0,0,1-2.24,6.272,7.4,7.4,0,0,1,1.036.91,9.439,9.439,0,0,0,.868-1.428,16.891,16.891,0,0,0,1.12,3.36,7.437,7.437,0,0,1-2.646,2.352,14.843,14.843,0,0,0-1.414-.882A5.725,5.725,0,0,0,34.3,34.64h1.148V33.562H31.92c.14-.294.28-.574.406-.84l-.378-.084h.7V30.72c.63.476,1.372,1.064,1.708,1.386l.7-.91c-.35-.252-1.708-1.092-2.338-1.442h2.674V28.7H32.648V26.24h-1.2V28.7h-1.4l.924-.406a6.3,6.3,0,0,0-.9-1.75l-.938.392a6.916,6.916,0,0,1,.8,1.764h-1.26v1.05h2.422a6.947,6.947,0,0,1-2.618,2,5.152,5.152,0,0,1,.686.98A9.955,9.955,0,0,0,31.444,30.9v1.624l-.336-.07c-.154.35-.322.728-.518,1.106H28.56V34.64h1.5c-.378.7-.742,1.372-1.05,1.89l1.134.35.182-.322c.378.168.742.35,1.106.532a6.838,6.838,0,0,1-2.828.938,2.739,2.739,0,0,1,.56,1.078,7.992,7.992,0,0,0,3.4-1.386A10.226,10.226,0,0,1,34.118,38.8l.462-.476a6.293,6.293,0,0,1,.49.826,9.1,9.1,0,0,0,3.108-2.506,7.532,7.532,0,0,0,2.478,2.45,4.759,4.759,0,0,1,.91-1.12,6.561,6.561,0,0,1-2.59-2.548A15.859,15.859,0,0,0,40.6,30.006ZM4.55,72.472V71.058H5.6v1.414ZM2.576,71.058H3.64v1.414H2.562c.014-.35.014-.686.014-1.008ZM4.41,66.522a11.78,11.78,0,0,1-.518,1.26H2.464c.21-.392.406-.826.588-1.26Zm.14,2.24H5.6v1.33H4.55Zm-1.974,0H3.64v1.33H2.576Zm9.31-2.73c-.07,1.428-.168,2-.322,2.17a.377.377,0,0,1-.378.126,9.982,9.982,0,0,1-1.134-.056,3.163,3.163,0,0,1,.294,1.078,9.01,9.01,0,0,0,1.414-.014,1.051,1.051,0,0,0,.8-.392c.294-.336.42-1.274.518-3.542.014-.14.014-.448.014-.448H7v1.078H8.736A3.4,3.4,0,0,1,6.678,68.79V67.782H5.012a17.973,17.973,0,0,0,.84-1.848L5.1,65.458l-.182.056H3.444c.112-.336.21-.672.308-1.008l-1.19-.266A10.125,10.125,0,0,1,.448,68.608a8.778,8.778,0,0,1,.952.77l.126-.154V71.45a9.777,9.777,0,0,1-1.036,5.1,5.128,5.128,0,0,1,.924.574,8.258,8.258,0,0,0,1.078-3.654H5.6v2.282c0,.182-.07.238-.252.252s-.756,0-1.428-.014a4.138,4.138,0,0,1,.406,1.092,4.819,4.819,0,0,0,1.862-.2c.378-.2.49-.56.49-1.12V68.916a3.557,3.557,0,0,1,.616.812,4.418,4.418,0,0,0,2.646-3.7Zm1.582,7.406H10.92V71.926H13.2v-1.12H10.92V69.462H9.688v1.344h-.98q.147-.5.252-1.008l-1.078-.224a7.93,7.93,0,0,1-1.2,3.08,5.937,5.937,0,0,1,.98.518,6.9,6.9,0,0,0,.658-1.246H9.688v1.512H6.916v1.134H9.688v2.464H10.92V74.572h2.548Zm3.71-9.128a16.269,16.269,0,0,1-2.884,5.53,10.081,10.081,0,0,1,.644,1.372,12.5,12.5,0,0,0,1.12-1.54v7.42H17.29V67.4a25.65,25.65,0,0,0,1.092-2.758Zm2.73,3.612H22.12V69.28H19.908Zm3.276-1.834a5.8,5.8,0,0,1-.672.924h-2.52q.4-.462.756-.924Zm2.478,3.192H23.31V67.922h2.352Zm.8,1.274a15.734,15.734,0,0,1-1.652,1.414,11.682,11.682,0,0,1-.588-1.792h2.688V67.012H23.926a12.367,12.367,0,0,0,.952-1.4l-.784-.56-.224.07H21.406q.21-.315.378-.63l-1.246-.224A9.611,9.611,0,0,1,17.612,67.6a3.721,3.721,0,0,1,.952.742l.154-.126v1.96h2.45a13.957,13.957,0,0,1-3.262,1.358,8.271,8.271,0,0,1,.742.882,16.228,16.228,0,0,0,2.436-1.106c.168.154.336.322.49.49a12.84,12.84,0,0,1-3.556,1.708,3.871,3.871,0,0,1,.616.854A16.44,16.44,0,0,0,22.078,72.5a5.29,5.29,0,0,1,.35.686,13.887,13.887,0,0,1-4.648,2.562,4.634,4.634,0,0,1,.7.952,17.314,17.314,0,0,0,4.2-2.422,1.7,1.7,0,0,1-.406,1.5.944.944,0,0,1-.77.252c-.266,0-.672-.014-1.092-.056a2.562,2.562,0,0,1,.294,1.106c.378.028.756.028,1.05.028a1.972,1.972,0,0,0,1.386-.476c1.106-.9,1.106-3.934-1.176-5.852.294-.2.574-.392.84-.6h.308c.63,2.786,1.736,5.138,3.6,6.356a4.313,4.313,0,0,1,.84-1.022,6.2,6.2,0,0,1-2.31-2.6,17.778,17.778,0,0,0,2.128-1.582Zm4.48-3.822H41.188V65.57h-5.1V64.254H34.734V65.57h-5.04v3.948c0,2.03-.1,4.872-1.232,6.86a5.892,5.892,0,0,1,1.064.714c1.218-2.128,1.414-5.376,1.414-7.574ZM37.674,69.2v1.232H34.65V69.2Zm1.274,2.24V69.2H41.09V68.132H38.948V67.068H37.674v1.064H34.65V67.068H33.418v1.064H31.346V69.2h2.072v2.24Zm-.588,1.778a6.452,6.452,0,0,1-2.072,1.512,6.022,6.022,0,0,1-2.03-1.512Zm1.092-1.092-.238.042H31.5v1.05h2.142l-.63.238a7.453,7.453,0,0,0,1.932,1.806,19.52,19.52,0,0,1-4,.77,3.991,3.991,0,0,1,.546,1.092,18.379,18.379,0,0,0,4.76-1.148,15.844,15.844,0,0,0,4.438,1.162,4.636,4.636,0,0,1,.756-1.12,18.408,18.408,0,0,1-3.794-.742,6.752,6.752,0,0,0,2.6-2.716ZM12.222,104.69l-1.078-.7a3.567,3.567,0,0,1-.9.1H3.458a12.556,12.556,0,0,1-1.512-.112v1.568c.35-.028.91-.056,1.512-.056h6.874a9.667,9.667,0,0,1-1.75,4.3,9.235,9.235,0,0,1-5.474,3.332l1.2,1.316a10.789,10.789,0,0,0,5.572-3.794A13.879,13.879,0,0,0,11.97,105.5,4.254,4.254,0,0,1,12.222,104.69Zm11.032.686H21.8a9.531,9.531,0,0,1,.1,1.036c.014.28.028.616.042,1.022H17.892a7.451,7.451,0,0,1-1.134-.084v1.386c.364-.028.784-.042,1.162-.042h3.43a14.133,14.133,0,0,1-5.068,4.046l.966,1.106A15.977,15.977,0,0,0,21.98,109.9c.014,1.316.028,2.632.028,3.43,0,.28-.112.434-.364.434a13.311,13.311,0,0,1-1.666-.14l.084,1.274c.588.042,1.47.084,2.086.084a1.076,1.076,0,0,0,1.19-1.078c-.014-1.372-.056-3.486-.1-5.208h1.876c.294,0,.7.014.98.028V107.35a6.835,6.835,0,0,1-1.022.084H23.212c0-.406-.014-.756-.014-1.022A6.257,6.257,0,0,1,23.254,105.376Zm6.1,2.38v1.736c.476-.042,1.316-.07,2.086-.07H39.06c.616,0,1.26.056,1.568.07v-1.736c-.35.028-.9.084-1.568.084H31.444C30.688,107.84,29.82,107.784,29.358,107.756ZM49.252,102.9H47.614a8.9,8.9,0,0,1,.1,1.2q0,.714-.042,1.344H45.416c-.546,0-1.176-.042-1.708-.084v1.456c.532-.042,1.19-.056,1.708-.056h2.128a8.7,8.7,0,0,1-2.562,5.5,7.471,7.471,0,0,1-1.61,1.176l1.288,1.05c2.408-1.694,3.794-3.836,4.312-7.728h3.584c0,1.512-.182,4.676-.658,5.656a.74.74,0,0,1-.8.476,16.028,16.028,0,0,1-2.03-.168l.168,1.47c.714.056,1.526.1,2.282.1a1.561,1.561,0,0,0,1.624-.952c.616-1.372.8-5.376.84-6.79.014-.168.056-.476.1-.714l-.98-.476a6.365,6.365,0,0,1-.966.084H49.112c.028-.434.056-.9.07-1.372C49.2,103.738,49.224,103.22,49.252,102.9Zm18.158,1.68-.91-.672a4.247,4.247,0,0,1-1.218.14H60.088a14.979,14.979,0,0,1-1.526-.1v1.582c.224-.014.98-.084,1.526-.084h5.138a11.518,11.518,0,0,1-2.226,3.7,15.731,15.731,0,0,1-5.754,4.1l1.134,1.19a18.378,18.378,0,0,0,5.39-4.032,31.42,31.42,0,0,1,3.71,4.088l1.232-1.092a37.211,37.211,0,0,0-4-4.1,19.161,19.161,0,0,0,2.3-3.99A4.832,4.832,0,0,1,67.41,104.578ZM13.146,143.152l-1.106-.91a3.594,3.594,0,0,1-1.078.126H2.87a12.132,12.132,0,0,1-1.512-.112v1.568c.294-.028.952-.084,1.512-.084h7.868a16.508,16.508,0,0,1-4,4.494c-.938-.826-1.988-1.68-2.52-2.072l-1.148.938a32.838,32.838,0,0,1,3.15,2.716,36.143,36.143,0,0,1,2.59,2.94l1.288-1.036c-.56-.672-1.47-1.652-2.3-2.478a22.38,22.38,0,0,0,4.942-5.6C12.838,143.5,12.992,143.334,13.146,143.152Zm1.918,3.626.686,1.386a28.644,28.644,0,0,0,5.166-2.17v4.872a16.223,16.223,0,0,1-.084,1.652h1.736a10.528,10.528,0,0,1-.1-1.652v-5.81a23.618,23.618,0,0,0,3.766-3.066l-1.176-1.12a17.281,17.281,0,0,1-3.892,3.332A23.118,23.118,0,0,1,15.064,146.778Zm20.4-5.67-1.624-.532a6.207,6.207,0,0,1-.518,1.26,11.881,11.881,0,0,1-4.4,4.634l1.232.924a14.62,14.62,0,0,0,3.556-3.43H38.08a10.513,10.513,0,0,1-2.128,4.13,11.217,11.217,0,0,1-5.614,3.5l1.3,1.162a12.616,12.616,0,0,0,5.6-3.878,13.856,13.856,0,0,0,2.464-4.76,4.791,4.791,0,0,1,.392-.854l-1.148-.7a3.288,3.288,0,0,1-1.05.14h-3.36c.07-.112.14-.238.2-.35C34.888,142.074,35.182,141.528,35.462,141.108Zm-34.4,43.67.686,1.386a28.644,28.644,0,0,0,5.166-2.17v4.872a16.223,16.223,0,0,1-.084,1.652H8.568a10.528,10.528,0,0,1-.1-1.652v-5.81a23.618,23.618,0,0,0,3.766-3.066l-1.176-1.12A17.281,17.281,0,0,1,7.168,182.2,23.118,23.118,0,0,1,1.064,184.778Zm16.2-5.208-1.022,1.092a30.365,30.365,0,0,1,3.5,2.968l1.106-1.134A29.379,29.379,0,0,0,17.262,179.57Zm-1.442,9.366.938,1.442a15.436,15.436,0,0,0,5.362-2.086,14.314,14.314,0,0,0,4.914-5.068L26.18,181.7a13.33,13.33,0,0,1-4.858,5.278A14.547,14.547,0,0,1,15.82,188.936Zm19.88-9.968-1.6-.5a6.558,6.558,0,0,1-.532,1.26,12.838,12.838,0,0,1-4.48,4.774l1.19.924a15.855,15.855,0,0,0,3.7-3.668H38.4a11.475,11.475,0,0,1-1.75,3.528c-.938-.644-1.918-1.274-2.758-1.764l-.966.994c.812.518,1.82,1.2,2.786,1.9a11.9,11.9,0,0,1-5.292,3.22l1.274,1.12A13.335,13.335,0,0,0,36.89,187.3c.574.462,1.106.9,1.5,1.26l1.036-1.232c-.434-.35-.98-.77-1.568-1.19A16.031,16.031,0,0,0,40,181.908a7.045,7.045,0,0,1,.378-.868l-1.134-.7a3.259,3.259,0,0,1-1.05.154H34.818c.056-.1.1-.182.154-.28C35.126,179.934,35.42,179.388,35.7,178.968Zm7.658,4.788v1.736c.476-.042,1.316-.07,2.086-.07H53.06c.616,0,1.26.056,1.568.07v-1.736c-.35.028-.9.084-1.568.084H45.444C44.688,183.84,43.82,183.784,43.358,183.756Zm24.024-3.066-1.078-.7a3.567,3.567,0,0,1-.9.1h-6.79a12.556,12.556,0,0,1-1.512-.112v1.568c.35-.028.91-.056,1.512-.056h6.874a9.668,9.668,0,0,1-1.75,4.3,9.235,9.235,0,0,1-5.474,3.332l1.2,1.316a10.789,10.789,0,0,0,5.572-3.794A13.879,13.879,0,0,0,67.13,181.5,4.254,4.254,0,0,1,67.382,180.69Zm4.592,1.918v1.4c.294-.028.77-.042,1.022-.042H75.4v4.858H72.338a9.251,9.251,0,0,1-1.064-.07v1.47a9.356,9.356,0,0,1,1.064-.056H80.08a8.511,8.511,0,0,1,.994.056v-1.47a6.907,6.907,0,0,1-.994.07H76.846v-4.858h2.59c.308,0,.7.014,1.022.042v-1.4a7.991,7.991,0,0,1-1.022.07H73A8.961,8.961,0,0,1,71.974,182.608Zm12.544,1.148v1.736c.476-.042,1.316-.07,2.086-.07H94.22c.616,0,1.26.056,1.568.07v-1.736c-.35.028-.9.084-1.568.084H86.6C85.848,183.84,84.98,183.784,84.518,183.756Zm23.352-3.178-.91-.672a4.247,4.247,0,0,1-1.218.14h-5.194a14.977,14.977,0,0,1-1.526-.1v1.582c.224-.014.98-.084,1.526-.084h5.138a11.518,11.518,0,0,1-2.226,3.7,15.731,15.731,0,0,1-5.754,4.1l1.134,1.19a18.378,18.378,0,0,0,5.39-4.032,31.419,31.419,0,0,1,3.71,4.088l1.232-1.092a37.211,37.211,0,0,0-4-4.1,19.162,19.162,0,0,0,2.3-3.99A4.831,4.831,0,0,1,107.87,180.578Z" transform="translate(641 2715)" fill="#0a0a0a"/>
    </g>
  </g>
</svg>
