<svg xmlns="http://www.w3.org/2000/svg" width="510" height="152" viewBox="0 0 510 152">
  <g id="グループ_3986" data-name="グループ 3986" transform="translate(-623 -3649)">
    <g id="グループ_1859" data-name="グループ 1859" transform="translate(0 51)">
      <path id="パス_6894" data-name="パス 6894" d="M0,0H182V152H0Z" transform="translate(623 3598)" fill="#e4f5f2"/>
      <path id="パス_6895" data-name="パス 6895" d="M0,0V152" transform="translate(805 3598)" fill="none" stroke="#cecece" stroke-width="1"/>
      <g id="パス_6896" data-name="パス 6896" transform="translate(623 3598)" fill="none">
        <path d="M0,0H510V152H0Z" stroke="none"/>
        <path d="M 1 1 L 1 151 L 509 151 L 509 1 L 1 1 M 0 0 L 510 0 L 510 152 L 0 152 L 0 0 Z" stroke="none" fill="#cecece"/>
      </g>
      <path id="パス_6897" data-name="パス 6897" d="M0,0H510" transform="translate(623 3636)" fill="none" stroke="#cecece" stroke-width="1"/>
      <path id="パス_6898" data-name="パス 6898" d="M0,0H510" transform="translate(623 3674)" fill="none" stroke="#cecece" stroke-width="1"/>
      <path id="パス_6899" data-name="パス 6899" d="M0,0H510" transform="translate(623 3712)" fill="none" stroke="#cecece" stroke-width="1"/>
      <path id="パス_6900" data-name="パス 6900" d="M-31.57-6.678A16.965,16.965,0,0,0-27.706-10.5a18.323,18.323,0,0,0,4.032,3.822Zm4.564,4.214h4.074V-3.6h-4.074V-5.53h3.5V-6.566a17.534,17.534,0,0,0,1.54.98,7.634,7.634,0,0,1,.854-1.148A16.567,16.567,0,0,1-27.1-11.788h-1.33A15.938,15.938,0,0,1-34.16-6.58a5.131,5.131,0,0,1,.826,1.05,16.521,16.521,0,0,0,1.61-1.036V-5.53h3.346V-3.6h-4v1.134h4v2.03h-5.138V.742H-21.7V-.434h-5.306Zm10.612-8.442-.8,1.2c.868.49,2.366,1.484,3.08,2l.826-1.2C-13.944-9.38-15.526-10.416-16.394-10.906ZM-18.7-.924l.826,1.442A16.4,16.4,0,0,0-13.23-1.218,16.666,16.666,0,0,0-7.756-6.23L-8.61-7.714A14.4,14.4,0,0,1-13.972-2.52,15.374,15.374,0,0,1-18.7-.924Zm.182-6.8-.8,1.2A35.037,35.037,0,0,1-16.2-4.564l.812-1.246C-16.044-6.272-17.64-7.266-18.522-7.728Zm22.9-3H2.716A10.825,10.825,0,0,1,2.8-9.436v2.408c0,2.45-.182,3.542-1.162,4.662a6.53,6.53,0,0,1-3.36,1.82L-.56.672A7.646,7.646,0,0,0,2.786-1.372c1.036-1.176,1.54-2.366,1.54-5.572V-9.436C4.326-9.94,4.354-10.36,4.382-10.724Zm-6.5.112h-1.61a9.043,9.043,0,0,1,.056,1.036v4.69c0,.406-.042.9-.056,1.134h1.61c-.028-.28-.056-.77-.056-1.134v-4.69C-2.17-9.968-2.142-10.318-2.114-10.612ZM8.708-6.244v1.736c.476-.042,1.316-.07,2.086-.07H18.41c.616,0,1.26.056,1.568.07V-6.244c-.35.028-.9.084-1.568.084H10.794C10.038-6.16,9.17-6.216,8.708-6.244Zm22.61-5.264-.91.378a16.085,16.085,0,0,1,1.008,1.736l-.546-.42a4.247,4.247,0,0,1-1.218.14H24.458c-.434,0-1.246-.042-1.526-.084v1.582c.224-.014.98-.084,1.526-.084H29.6a11.518,11.518,0,0,1-2.226,3.7A15.7,15.7,0,0,1,21.616-.476L22.75.714A18.333,18.333,0,0,0,28.14-3.3,32.291,32.291,0,0,1,31.85.77L33.082-.308a37.212,37.212,0,0,0-4-4.1,19.525,19.525,0,0,0,2.3-3.99,4.223,4.223,0,0,1,.406-.728l-.14-.112.8-.35A19.441,19.441,0,0,0,31.318-11.508ZM32.984-12l-.9.378a15.527,15.527,0,0,1,1.134,1.932l.91-.406A18.585,18.585,0,0,0,32.984-12Zm-57.9,43.32A16.965,16.965,0,0,0-21.056,27.5a18.323,18.323,0,0,0,4.032,3.822Zm4.564,4.214h4.074V34.4h-4.074V32.47h3.5V31.434a17.535,17.535,0,0,0,1.54.98,7.634,7.634,0,0,1,.854-1.148,16.567,16.567,0,0,1-5.992-5.054h-1.33A15.938,15.938,0,0,1-27.51,31.42a5.13,5.13,0,0,1,.826,1.05,16.521,16.521,0,0,0,1.61-1.036V32.47h3.346V34.4h-4v1.134h4v2.03h-5.138v1.176H-15.05V37.566h-5.306Zm11.718-3.36c-.532.154-1.064.294-1.582.434V30.188h1.526v-1.2H-10.22V26.268h-1.288v2.716h-1.834v1.2h1.834v2.786c-.77.21-1.47.364-2.03.5l.336,1.26c.518-.14,1.092-.294,1.694-.476V37.65c0,.21-.07.266-.266.266-.168.014-.742.014-1.33-.014a5.085,5.085,0,0,1,.378,1.19,4.735,4.735,0,0,0,1.96-.224c.406-.2.546-.546.546-1.218V33.884l1.75-.5Zm6.1,1.82v1.176H-6.65V34ZM-6.65,37.412V36.194h4.116v1.218Zm-1.232,1.68H-6.65v-.63h4.116v.56h1.288v-6.1H-7.882Zm2.324-8.358c-.854,0-1.022-.084-1.022-.574v-.84a28.106,28.106,0,0,0,5.124-1.372L-2.422,27A22.376,22.376,0,0,1-6.58,28.27V26.3H-7.868V30.16c0,1.372.462,1.75,2.212,1.75h3.01c1.47,0,1.862-.49,2.03-2.38a4.072,4.072,0,0,1-1.176-.476c-.1,1.428-.21,1.68-.938,1.68Zm14.07,1.932v2.352H5.474V32.666Zm1.2,3.514V31.518H4.284V37.16h1.19v-.98ZM12.7,28.62H6.636c.35-.644.714-1.414,1.022-2.128l-1.652-.266a17.9,17.9,0,0,1-.812,2.394H1.372V39.092H2.66v-9.2H11.4v7.588c0,.238-.084.308-.364.322s-1.232.014-2.156-.028a4.97,4.97,0,0,1,.448,1.33A9.112,9.112,0,0,0,12,38.882c.518-.224.7-.63.7-1.386Zm2.688,4.228a17.753,17.753,0,0,0,.658-3.808l-.952-.14a15.889,15.889,0,0,1-.7,3.612Zm8.526,4.55V34.22h2.716V33H23.912V30.37h3.024V29.138H23.912V26.31h-1.3v2.828H21.14a18.858,18.858,0,0,0,.42-2.044l-1.274-.21a16.479,16.479,0,0,1-.924,3.724,12.548,12.548,0,0,0-.91-2.1l-.826.336v-2.59h-1.3V39.092h1.3V29.054a12.739,12.739,0,0,1,.84,2.2l.784-.378a6.223,6.223,0,0,1-.518.966,7.575,7.575,0,0,1,1.162.6,12.591,12.591,0,0,0,.9-2.072h1.82V33H19.768V34.22H22.61V37.4H18.718V38.63H27.3V37.4ZM-7.252,64.842-8.694,64.8a7.406,7.406,0,0,1-.042.742c-.028.28-.07.588-.1.938H-9.6A19.73,19.73,0,0,1-12.04,66.3L-12,67.6c.6.028,1.694.1,2.352.1h.686c-.056.6-.112,1.26-.14,1.9-1.946.91-3.486,2.772-3.486,4.578a1.685,1.685,0,0,0,1.764,1.876,4.818,4.818,0,0,0,2.282-.672c.07.252.14.476.21.686l1.274-.378c-.112-.35-.238-.714-.336-1.106a11.05,11.05,0,0,0,3.038-4.41,2.314,2.314,0,0,1,1.778,2.212c0,1.61-1.372,2.94-3.976,3.234l.756,1.162c3.332-.518,4.578-2.338,4.578-4.34a3.529,3.529,0,0,0-2.758-3.36c.1-.252.21-.6.294-.784l-1.372-.336a7.37,7.37,0,0,1-.168.91,3.8,3.8,0,0,0-.406-.014,9.074,9.074,0,0,0-2.24.308c.042-.518.084-1.036.126-1.512a42.534,42.534,0,0,0,5.012-.518l-.014-1.3a25.592,25.592,0,0,1-4.844.6c.056-.336.112-.658.168-.924A5.893,5.893,0,0,1-7.252,64.842Zm-.658,5.866v-.336a6.525,6.525,0,0,1,2.226-.392h.1A9.133,9.133,0,0,1-7.7,73.172,14.835,14.835,0,0,1-7.91,70.708Zm-3.36,3.22a4.054,4.054,0,0,1,2.128-3A18.222,18.222,0,0,0-8.834,74.1a3.269,3.269,0,0,1-1.694.616C-11.032,74.712-11.27,74.446-11.27,73.928ZM4.872,64.87,3.346,64.8a12.159,12.159,0,0,1-.112,1.33,36.941,36.941,0,0,0-.406,4.508,17.6,17.6,0,0,0,.154,2.268l1.372-.1A6.483,6.483,0,0,1,4.3,71.2c.126-1.848,1.68-4.368,3.388-4.368,1.33,0,2.072,1.428,2.072,3.612,0,3.472-2.3,4.606-5.362,5.082l.84,1.274c3.57-.658,6.006-2.45,6.006-6.356,0-3.01-1.414-4.886-3.318-4.886-1.694,0-3.038,1.5-3.654,2.772A27.1,27.1,0,0,1,4.872,64.87Zm-25.354,49.312c2.282,0,3.822-1.246,3.822-4.606v-5.894h-1.568v6.006c0,2.324-.952,3.08-2.254,3.08s-2.212-.756-2.212-3.08v-6.006h-1.624v5.894C-24.318,112.936-22.764,114.182-20.482,114.182Zm9.268,0c2.254,0,3.626-1.344,3.626-3a2.877,2.877,0,0,0-2.1-2.786l-1.414-.6c-.84-.336-1.666-.672-1.666-1.568,0-.812.686-1.316,1.736-1.316a3.282,3.282,0,0,1,2.268.924l.854-1.036a4.414,4.414,0,0,0-3.122-1.3c-1.96,0-3.388,1.218-3.388,2.842a2.964,2.964,0,0,0,2.1,2.7l1.428.616c.952.42,1.652.714,1.652,1.652,0,.868-.7,1.456-1.946,1.456a4,4,0,0,1-2.744-1.218l-.952,1.12A5.141,5.141,0,0,0-11.214,114.182ZM-5.642,114H-2.2c2.282,0,3.948-.98,3.948-3.024a2.366,2.366,0,0,0-2.03-2.45v-.07a2.292,2.292,0,0,0,1.47-2.226c0-1.862-1.526-2.548-3.64-2.548H-5.642Zm1.624-6.006v-3.038H-2.59c1.456,0,2.184.406,2.184,1.484,0,.966-.658,1.554-2.226,1.554Zm0,4.732v-3.514H-2.38c1.638,0,2.534.518,2.534,1.68,0,1.26-.924,1.834-2.534,1.834ZM6.1,114h6.65v-1.372H10.136c-.5,0-1.162.042-1.68.1,2.142-2.24,3.808-4.088,3.808-5.922a2.882,2.882,0,0,0-3.108-3.024,4.043,4.043,0,0,0-3.136,1.54l.91.9a2.8,2.8,0,0,1,2.03-1.148,1.632,1.632,0,0,1,1.75,1.82c0,1.568-1.736,3.36-4.606,6.174Zm9.45.182a1.071,1.071,0,0,0,1.078-1.12,1.08,1.08,0,1,0-2.156,0A1.071,1.071,0,0,0,15.554,114.182Zm6.076,0c2.058,0,3.332-1.862,3.332-5.236s-1.274-5.166-3.332-5.166-3.332,1.792-3.332,5.166S19.586,114.182,21.63,114.182Zm0-1.274c-1.05,0-1.792-1.078-1.792-3.962s.742-3.892,1.792-3.892,1.792,1.008,1.792,3.892S22.68,112.908,21.63,112.908Z" transform="translate(969 3623)" fill="#0a0a0a"/>
      <path id="パス_6901" data-name="パス 6901" d="M4.886-8.008a18.741,18.741,0,0,1-.77,3.248c-.672-.812-1.372-1.624-2.044-2.324l-.91.742A36.383,36.383,0,0,1,3.556-3.43,8.147,8.147,0,0,1,.448-.014,7.216,7.216,0,0,1,1.33.994,9.47,9.47,0,0,0,4.354-2.3,14.142,14.142,0,0,1,5.446-.406L6.5-1.288A17.113,17.113,0,0,0,5-3.626,18.98,18.98,0,0,0,6.16-7.84ZM13.4-8.526H11.816v-3.22H10.528v3.22H7.294V-9.52h-2.7v-2.212H3.332V-9.52H.784v1.2H6.86v1.05h3.668V-.588c0,.238-.1.308-.336.308S9.2-.266,8.358-.294a6.018,6.018,0,0,1,.42,1.386A6.612,6.612,0,0,0,11.186.826c.448-.238.63-.616.63-1.414V-7.266H13.4ZM9.478-2.954a10.527,10.527,0,0,0-1.526-3.01l-1.064.5a11.656,11.656,0,0,1,1.47,3.066ZM17-8.778h10.29v-1.26H22.092v-1.708H20.734v1.708h-5.04v3.556c0,2-.1,4.844-1.232,6.832a6.636,6.636,0,0,1,1.106.742C16.786-1.05,17-4.3,17-6.482Zm7.294,2.31A17.424,17.424,0,0,0,21-8.512l-.882.854A17.263,17.263,0,0,1,23.352-5.5Zm-6.244,6.3a12.122,12.122,0,0,0,1.162-4.48l-1.19-.266A10.578,10.578,0,0,1,16.884-.686Zm3.766-.168c-.476,0-.574-.084-.574-.574V-6.048H19.964V-.91c0,1.33.336,1.75,1.652,1.75h1.82C24.668.84,25,.2,25.13-2.128a4.1,4.1,0,0,1-1.148-.532c-.07,1.974-.14,2.324-.644,2.324Zm2.646-4.452a15.435,15.435,0,0,1,1.848,4.62L27.58-.7a14.962,14.962,0,0,0-1.974-4.55Zm6.02-5.306v1.4c.392-.028.812-.042,1.3-.042H33.5v2.7H30.968c-.406,0-1.022-.028-1.414-.07v1.47c.406-.028,1.036-.056,1.414-.056H33.5v2.954c0,1.26.644,2.072,2.954,2.072,1.33,0,2.772-.056,3.794-.126l.084-1.5a30.229,30.229,0,0,1-3.64.2c-1.218,0-1.708-.35-1.708-1.092V-4.69h4.536c.308,0,.868,0,1.232.028L40.74-6.09c-.336.028-.952.056-1.246.056H34.986v-2.7h3.486c.5,0,.854.028,1.2.042v-1.4a9.929,9.929,0,0,1-1.2.056H31.78C31.29-10.038,30.87-10.066,30.478-10.094Zm14.28-.28v1.442c.378-.028.9-.056,1.372-.056h4.718c.448,0,.952.028,1.4.056v-1.442a11.74,11.74,0,0,1-1.4.084H46.116A10.557,10.557,0,0,1,44.758-10.374ZM43.106-6.832v1.456c.392-.028.854-.042,1.274-.042h4.046a6.471,6.471,0,0,1-.84,3.3A5.83,5.83,0,0,1,45-.028l1.288.952A6.846,6.846,0,0,0,49.07-1.694a8.593,8.593,0,0,0,.868-3.724H53.55c.364,0,.84.014,1.176.028V-6.832a8.931,8.931,0,0,1-1.176.07H44.38A12.267,12.267,0,0,1,43.106-6.832Zm9.912-4.606-.9.378a16.71,16.71,0,0,1,1.106,1.932l.924-.392A20.288,20.288,0,0,0,53.018-11.438Zm1.582-.6-.9.378A14.051,14.051,0,0,1,54.852-9.73l.91-.406A17.84,17.84,0,0,0,54.6-12.04ZM63.21-.308l.924.77a4.352,4.352,0,0,1,.532-.35A14.731,14.731,0,0,0,69.44-3.752l-.854-1.2a9.849,9.849,0,0,1-3.808,3.22V-9.478a8.432,8.432,0,0,1,.07-1.12H63.224a10.261,10.261,0,0,1,.084,1.12V-1.19A4.038,4.038,0,0,1,63.21-.308ZM56.756-.434l1.344.9a7.865,7.865,0,0,0,2.492-3.92,30.671,30.671,0,0,0,.434-5.978,10.479,10.479,0,0,1,.07-1.12H59.472a4.363,4.363,0,0,1,.112,1.134,24.275,24.275,0,0,1-.406,5.586A6.48,6.48,0,0,1,56.756-.434ZM5.362,32.176c-.532.154-1.064.294-1.582.434V30.188H5.306v-1.2H3.78V26.268H2.492v2.716H.658v1.2H2.492v2.786c-.77.21-1.47.364-2.03.5L.8,34.738c.518-.14,1.092-.294,1.694-.476V37.65c0,.21-.07.266-.266.266-.168.014-.742.014-1.33-.014a5.085,5.085,0,0,1,.378,1.19,4.735,4.735,0,0,0,1.96-.224c.406-.2.546-.546.546-1.218V33.884l1.75-.5Zm6.1,1.82v1.176H7.35V34ZM7.35,37.412V36.194h4.116v1.218Zm-1.232,1.68H7.35v-.63h4.116v.56h1.288v-6.1H6.118Zm2.324-8.358c-.854,0-1.022-.084-1.022-.574v-.84a28.106,28.106,0,0,0,5.124-1.372L11.578,27A22.376,22.376,0,0,1,7.42,28.27V26.3H6.132V30.16c0,1.372.462,1.75,2.212,1.75h3.01c1.47,0,1.862-.49,2.03-2.38a4.072,4.072,0,0,1-1.176-.476c-.1,1.428-.21,1.68-.938,1.68Zm14.07,1.932v2.352H19.474V32.666Zm1.2,3.514V31.518H18.284V37.16h1.19v-.98ZM26.7,28.62H20.636c.35-.644.714-1.414,1.022-2.128l-1.652-.266a17.9,17.9,0,0,1-.812,2.394H15.372V39.092H16.66v-9.2H25.4v7.588c0,.238-.084.308-.364.322s-1.232.014-2.156-.028a4.97,4.97,0,0,1,.448,1.33A9.112,9.112,0,0,0,26,38.882c.518-.224.7-.63.7-1.386Zm2.688,4.228a17.753,17.753,0,0,0,.658-3.808l-.952-.14a15.889,15.889,0,0,1-.7,3.612Zm8.526,4.55V34.22h2.716V33H37.912V30.37h3.024V29.138H37.912V26.31h-1.3v2.828H35.14a18.858,18.858,0,0,0,.42-2.044l-1.274-.21a16.479,16.479,0,0,1-.924,3.724,12.548,12.548,0,0,0-.91-2.1l-.826.336v-2.59h-1.3V39.092h1.3V29.054a12.739,12.739,0,0,1,.84,2.2l.784-.378a6.223,6.223,0,0,1-.518.966,7.576,7.576,0,0,1,1.162.6,12.591,12.591,0,0,0,.9-2.072h1.82V33H33.768V34.22H36.61V37.4H32.718V38.63H41.3V37.4ZM4,65.234,3.486,66.55a46,46,0,0,1,7.42,1.708l.574-1.372A50.93,50.93,0,0,0,4,65.234Zm-.63,3.738L2.856,70.3A45.593,45.593,0,0,1,10,72.024l.546-1.358A52.5,52.5,0,0,0,3.374,68.972Zm-.742,4.046-.56,1.372a46.075,46.075,0,0,1,8.4,2.086l.616-1.372A53.354,53.354,0,0,0,2.632,73.018Zm21.812-3.682-1.064-.518a2.836,2.836,0,0,1-.84.112H18.564a12.112,12.112,0,0,1-1.232-.07v1.456c.378-.014.826-.042,1.246-.042h4.158c-.042.784-.406,3.192-.6,4.382H17.29a11.375,11.375,0,0,1-1.26-.07v1.442c.476-.014.8-.028,1.26-.028h7.546c.336,0,.924.014,1.19.028V74.6c-.322.028-.9.056-1.218.056H23.632c.2-1.3.588-3.92.7-4.816C24.36,69.7,24.4,69.49,24.444,69.336Zm4.914.42v1.736c.476-.042,1.316-.07,2.086-.07H39.06c.616,0,1.26.056,1.568.07V69.756c-.35.028-.9.084-1.568.084H31.444C30.688,69.84,29.82,69.784,29.358,69.756Zm17.22,4.956a14.656,14.656,0,0,1-.112,1.792h1.722a16.4,16.4,0,0,1-.112-1.792V70.386a36.658,36.658,0,0,1,5.292,2.184L54,71.044a47.456,47.456,0,0,0-5.922-2.24V66.62c0-.49.056-1.106.1-1.568H46.452a10.135,10.135,0,0,1,.126,1.568ZM67.41,66.578l-.91-.672a4.247,4.247,0,0,1-1.218.14H60.088a14.979,14.979,0,0,1-1.526-.1V67.53c.224-.014.98-.084,1.526-.084h5.138A11.518,11.518,0,0,1,63,71.142a15.731,15.731,0,0,1-5.754,4.1l1.134,1.19A18.378,18.378,0,0,0,63.77,72.4a31.42,31.42,0,0,1,3.71,4.088L68.712,75.4a37.211,37.211,0,0,0-4-4.1,19.161,19.161,0,0,0,2.3-3.99A4.832,4.832,0,0,1,67.41,66.578Zm3.654,4.2.686,1.386a28.644,28.644,0,0,0,5.166-2.17v4.872a16.223,16.223,0,0,1-.084,1.652h1.736a10.528,10.528,0,0,1-.1-1.652v-5.81a23.617,23.617,0,0,0,3.766-3.066L81.06,64.87A17.281,17.281,0,0,1,77.168,68.2,23.118,23.118,0,0,1,71.064,70.778ZM90.9,67.824l-1.316.434a25.6,25.6,0,0,1,1.12,3.08l1.316-.476C91.84,70.246,91.154,68.412,90.9,67.824Zm5.11.9-1.54-.49a9.717,9.717,0,0,1-1.862,4.788,9.54,9.54,0,0,1-4.592,2.954l1.162,1.19a10.849,10.849,0,0,0,4.606-3.388,11.223,11.223,0,0,0,1.96-4.228C95.8,69.322,95.886,69.07,96.012,68.72Zm-8.372-.168-1.316.476A28.591,28.591,0,0,1,87.6,72.22l1.33-.49C88.662,70.96,87.962,69.2,87.64,68.552Zm12.6-2.422.35,1.288c1.022-.014,2.548-.056,3.934-.182v2.3h-4.088a11.179,11.179,0,0,1-1.26-.07V70.9c.35-.028.84-.042,1.274-.042h4.032a5.567,5.567,0,0,1-3.528,4.858l1.386.952a6.814,6.814,0,0,0,3.6-5.81h3.78c.364,0,.812.014,1.148.042V69.476c-.308.028-.882.056-1.176.056h-3.724V67.054a25.563,25.563,0,0,0,2.59-.518c.224-.056.532-.126.91-.224l-.91-1.232a15.9,15.9,0,0,1-3.57.826A30.8,30.8,0,0,1,100.24,66.13ZM1.064,108.778l.686,1.386a28.644,28.644,0,0,0,5.166-2.17v4.872a16.223,16.223,0,0,1-.084,1.652H8.568a10.528,10.528,0,0,1-.1-1.652v-5.81a23.617,23.617,0,0,0,3.766-3.066l-1.176-1.12A17.282,17.282,0,0,1,7.168,106.2,23.118,23.118,0,0,1,1.064,108.778Zm16.2-5.208-1.022,1.092a30.365,30.365,0,0,1,3.5,2.968l1.106-1.134A29.377,29.377,0,0,0,17.262,103.57Zm-1.442,9.366.938,1.442a15.436,15.436,0,0,0,5.362-2.086,14.314,14.314,0,0,0,4.914-5.068L26.18,105.7a13.33,13.33,0,0,1-4.858,5.278A14.547,14.547,0,0,1,15.82,112.936Zm19.88-9.968-1.6-.5a6.557,6.557,0,0,1-.532,1.26,12.838,12.838,0,0,1-4.48,4.774l1.19.924a15.855,15.855,0,0,0,3.7-3.668H38.4a11.475,11.475,0,0,1-1.75,3.528c-.938-.644-1.918-1.274-2.758-1.764l-.966.994c.812.518,1.82,1.2,2.786,1.9a11.9,11.9,0,0,1-5.292,3.22l1.274,1.12A13.336,13.336,0,0,0,36.89,111.3c.574.462,1.106.9,1.5,1.26l1.036-1.232c-.434-.35-.98-.77-1.568-1.19A16.031,16.031,0,0,0,40,105.908a7.044,7.044,0,0,1,.378-.868l-1.134-.7a3.259,3.259,0,0,1-1.05.154H34.818c.056-.1.1-.182.154-.28C35.126,103.934,35.42,103.388,35.7,102.968Zm7.658,4.788v1.736c.476-.042,1.316-.07,2.086-.07H53.06c.616,0,1.26.056,1.568.07v-1.736c-.35.028-.9.084-1.568.084H45.444C44.688,107.84,43.82,107.784,43.358,107.756Zm24.024-3.066-1.078-.7a3.567,3.567,0,0,1-.9.1h-6.79a12.556,12.556,0,0,1-1.512-.112v1.568c.35-.028.91-.056,1.512-.056h6.874a9.668,9.668,0,0,1-1.75,4.3,9.235,9.235,0,0,1-5.474,3.332l1.2,1.316a10.789,10.789,0,0,0,5.572-3.794A13.879,13.879,0,0,0,67.13,105.5,4.254,4.254,0,0,1,67.382,104.69Zm4.592,1.918v1.4c.294-.028.77-.042,1.022-.042H75.4v4.858H72.338a9.253,9.253,0,0,1-1.064-.07v1.47a9.354,9.354,0,0,1,1.064-.056H80.08a8.51,8.51,0,0,1,.994.056v-1.47a6.908,6.908,0,0,1-.994.07H76.846v-4.858h2.59c.308,0,.7.014,1.022.042v-1.4a7.989,7.989,0,0,1-1.022.07H73A8.959,8.959,0,0,1,71.974,106.608Zm12.544,1.148v1.736c.476-.042,1.316-.07,2.086-.07H94.22c.616,0,1.26.056,1.568.07v-1.736c-.35.028-.9.084-1.568.084H86.6C85.848,107.84,84.98,107.784,84.518,107.756Zm23.352-3.178-.91-.672a4.247,4.247,0,0,1-1.218.14h-5.194a14.979,14.979,0,0,1-1.526-.1v1.582c.224-.014.98-.084,1.526-.084h5.138a11.518,11.518,0,0,1-2.226,3.7,15.731,15.731,0,0,1-5.754,4.1l1.134,1.19a18.378,18.378,0,0,0,5.39-4.032,31.42,31.42,0,0,1,3.71,4.088l1.232-1.092a37.211,37.211,0,0,0-4-4.1,19.161,19.161,0,0,0,2.3-3.99A4.832,4.832,0,0,1,107.87,104.578Z" transform="translate(641 3623)" fill="#0a0a0a"/>
    </g>
  </g>
</svg>
