<svg xmlns="http://www.w3.org/2000/svg" width="510" height="533" viewBox="0 0 510 533">
  <g id="グループ_3984" data-name="グループ 3984" transform="translate(-623 -1806)">
    <path id="パス_6861" data-name="パス 6861" d="M0,0H182V532H0Z" transform="translate(623 1806)" fill="#e4f5f2"/>
    <path id="パス_6862" data-name="パス 6862" d="M0,0V532" transform="translate(805 1806)" fill="none" stroke="#cecece" stroke-width="1"/>
    <g id="パス_6863" data-name="パス 6863" transform="translate(623 1806)" fill="none">
      <path d="M0,0H510V533H0Z" stroke="none"/>
      <path d="M 1 1 L 1 532 L 509 532 L 509 1 L 1 1 M 0 0 L 510 0 L 510 533 L 0 533 L 0 0 Z" stroke="none" fill="#cecece"/>
    </g>
    <path id="パス_6864" data-name="パス 6864" d="M0,0H510" transform="translate(623 1844)" fill="none" stroke="#cecece" stroke-width="1"/>
    <path id="パス_6865" data-name="パス 6865" d="M0,0H510" transform="translate(623 1882)" fill="none" stroke="#cecece" stroke-width="1"/>
    <path id="パス_6866" data-name="パス 6866" d="M0,0H510" transform="translate(623 1920)" fill="none" stroke="#cecece" stroke-width="1"/>
    <path id="パス_6867" data-name="パス 6867" d="M0,0H510" transform="translate(623 1958)" fill="none" stroke="#cecece" stroke-width="1"/>
    <path id="パス_6868" data-name="パス 6868" d="M0,0H510" transform="translate(623 1996)" fill="none" stroke="#cecece" stroke-width="1"/>
    <path id="パス_6869" data-name="パス 6869" d="M0,0H510" transform="translate(623 2034)" fill="none" stroke="#cecece" stroke-width="1"/>
    <path id="パス_6870" data-name="パス 6870" d="M0,0H328" transform="translate(805 2072)" fill="none" stroke="#cecece" stroke-width="1"/>
    <path id="パス_6871" data-name="パス 6871" d="M0,0H328" transform="translate(805 2110)" fill="none" stroke="#cecece" stroke-width="1"/>
    <path id="パス_6872" data-name="パス 6872" d="M0,0H328" transform="translate(805 2148)" fill="none" stroke="#cecece" stroke-width="1"/>
    <path id="パス_6873" data-name="パス 6873" d="M0,0H420" transform="translate(713 2186)" fill="none" stroke="#cecece" stroke-width="1"/>
    <path id="パス_6874" data-name="パス 6874" d="M0,0H420" transform="translate(713 2224)" fill="none" stroke="#cecece" stroke-width="1"/>
    <path id="パス_6875" data-name="パス 6875" d="M0,0H510" transform="translate(623 2262)" fill="none" stroke="#cecece" stroke-width="1"/>
    <path id="パス_6876" data-name="パス 6876" d="M0,0H420" transform="translate(713 2300)" fill="none" stroke="#cecece" stroke-width="1"/>
    <path id="パス_6877" data-name="パス 6877" d="M-31.57-6.678A16.965,16.965,0,0,0-27.706-10.5a18.323,18.323,0,0,0,4.032,3.822Zm4.564,4.214h4.074V-3.6h-4.074V-5.53h3.5V-6.566a17.534,17.534,0,0,0,1.54.98,7.634,7.634,0,0,1,.854-1.148A16.567,16.567,0,0,1-27.1-11.788h-1.33A15.938,15.938,0,0,1-34.16-6.58a5.131,5.131,0,0,1,.826,1.05,16.521,16.521,0,0,0,1.61-1.036V-5.53h3.346V-3.6h-4v1.134h4v2.03h-5.138V.742H-21.7V-.434h-5.306Zm10.612-8.442-.8,1.2c.868.49,2.366,1.484,3.08,2l.826-1.2C-13.944-9.38-15.526-10.416-16.394-10.906ZM-18.7-.924l.826,1.442A16.4,16.4,0,0,0-13.23-1.218,16.666,16.666,0,0,0-7.756-6.23L-8.61-7.714A14.4,14.4,0,0,1-13.972-2.52,15.374,15.374,0,0,1-18.7-.924Zm.182-6.8-.8,1.2A35.037,35.037,0,0,1-16.2-4.564l.812-1.246C-16.044-6.272-17.64-7.266-18.522-7.728Zm22.9-3H2.716A10.825,10.825,0,0,1,2.8-9.436v2.408c0,2.45-.182,3.542-1.162,4.662a6.53,6.53,0,0,1-3.36,1.82L-.56.672A7.646,7.646,0,0,0,2.786-1.372c1.036-1.176,1.54-2.366,1.54-5.572V-9.436C4.326-9.94,4.354-10.36,4.382-10.724Zm-6.5.112h-1.61a9.043,9.043,0,0,1,.056,1.036v4.69c0,.406-.042.9-.056,1.134h1.61c-.028-.28-.056-.77-.056-1.134v-4.69C-2.17-9.968-2.142-10.318-2.114-10.612ZM8.708-6.244v1.736c.476-.042,1.316-.07,2.086-.07H18.41c.616,0,1.26.056,1.568.07V-6.244c-.35.028-.9.084-1.568.084H10.794C10.038-6.16,9.17-6.216,8.708-6.244Zm22.61-5.264-.91.378a16.085,16.085,0,0,1,1.008,1.736l-.546-.42a4.247,4.247,0,0,1-1.218.14H24.458c-.434,0-1.246-.042-1.526-.084v1.582c.224-.014.98-.084,1.526-.084H29.6a11.518,11.518,0,0,1-2.226,3.7A15.7,15.7,0,0,1,21.616-.476L22.75.714A18.333,18.333,0,0,0,28.14-3.3,32.291,32.291,0,0,1,31.85.77L33.082-.308a37.212,37.212,0,0,0-4-4.1,19.525,19.525,0,0,0,2.3-3.99,4.223,4.223,0,0,1,.406-.728l-.14-.112.8-.35A19.441,19.441,0,0,0,31.318-11.508ZM32.984-12l-.9.378a15.527,15.527,0,0,1,1.134,1.932l.91-.406A18.585,18.585,0,0,0,32.984-12ZM-110.145,38h1.96l1.358-5.726c.168-.812.336-1.582.49-2.366h.056c.14.784.294,1.554.476,2.366L-104.419,38h2l2.03-10.318h-1.554l-.98,5.376c-.168,1.078-.35,2.184-.518,3.3h-.07c-.238-1.12-.462-2.226-.7-3.3l-1.33-5.376h-1.442l-1.33,5.376c-.238,1.092-.476,2.2-.7,3.3h-.056c-.182-1.106-.364-2.212-.546-3.3l-.966-5.376h-1.666Zm11.312,0h1.61V30.3h-1.61Zm.8-9.142a.937.937,0,0,0,1.008-.966.934.934,0,0,0-1.008-.952.923.923,0,0,0-.994.952A.926.926,0,0,0-98.035,28.858ZM-94.815,38h1.61V32.54a2.58,2.58,0,0,1,1.876-1.05c.91,0,1.3.532,1.3,1.862V38h1.61V33.156c0-1.96-.728-3.052-2.366-3.052a3.669,3.669,0,0,0-2.548,1.26h-.042L-93.5,30.3h-1.316Zm11.4.182a3.227,3.227,0,0,0,2.24-1.05h.056L-81,38h1.316V26.842h-1.61V29.7l.07,1.274a2.971,2.971,0,0,0-2.072-.868c-1.722,0-3.3,1.554-3.3,4.046C-86.6,36.712-85.351,38.182-83.419,38.182Zm.378-1.33c-1.2,0-1.89-.966-1.89-2.716,0-1.666.868-2.688,1.946-2.688a2.415,2.415,0,0,1,1.694.7v3.766A2.263,2.263,0,0,1-83.041,36.852Zm8.862,1.33a3.7,3.7,0,0,0,3.626-4.032A3.716,3.716,0,0,0-74.179,30.1a3.716,3.716,0,0,0-3.626,4.046A3.7,3.7,0,0,0-74.179,38.182Zm0-1.316c-1.2,0-1.96-1.078-1.96-2.716s.756-2.716,1.96-2.716,1.974,1.092,1.974,2.716S-72.961,36.866-74.179,36.866ZM-67.5,38h1.862l.938-3.794c.2-.728.336-1.442.49-2.24h.07c.168.8.308,1.5.49,2.226l.98,3.808h1.932l1.988-7.7h-1.512l-.994,4.158c-.168.756-.294,1.456-.448,2.2h-.056c-.182-.742-.336-1.442-.518-2.2L-63.385,30.3h-1.484l-1.092,4.158c-.182.742-.336,1.456-.5,2.2h-.056c-.14-.742-.266-1.442-.42-2.2L-67.963,30.3h-1.624Zm12.432.182c1.9,0,2.926-1.05,2.926-2.338,0-1.456-1.19-1.932-2.268-2.338-.84-.308-1.6-.56-1.6-1.218,0-.532.392-.952,1.246-.952a2.877,2.877,0,0,1,1.708.672l.756-.994a4.012,4.012,0,0,0-2.492-.91c-1.708,0-2.744.966-2.744,2.254s1.134,1.848,2.17,2.24c.826.322,1.694.63,1.694,1.33,0,.588-.434,1.036-1.358,1.036a3.489,3.489,0,0,1-2.184-.882l-.756,1.036A4.769,4.769,0,0,0-55.069,38.182Zm4.62-.182h5.88V36.67h-2.016V27.976H-47.8a6.066,6.066,0,0,1-2.24.784v1.022H-48.2V36.67h-2.254Zm7.98,0h5.88V36.67h-2.016V27.976h-1.218a6.066,6.066,0,0,1-2.24.784v1.022h1.848V36.67h-2.254Zm11.284,0h1.624V34.094h1.554c2.24,0,3.878-1.036,3.878-3.29,0-2.324-1.638-3.122-3.934-3.122h-3.122Zm1.624-5.208V29h1.344c1.638,0,2.492.448,2.492,1.806s-.784,1.988-2.436,1.988ZM-22.267,38h1.61V33.2c.476-1.218,1.232-1.652,1.862-1.652a2.278,2.278,0,0,1,.77.126l.294-1.4A1.915,1.915,0,0,0-18.6,30.1a2.662,2.662,0,0,0-2.184,1.582h-.042l-.126-1.386h-1.316Zm8.652.182A3.7,3.7,0,0,0-9.989,34.15,3.716,3.716,0,0,0-13.615,30.1a3.716,3.716,0,0,0-3.626,4.046A3.7,3.7,0,0,0-13.615,38.182Zm0-1.316c-1.2,0-1.96-1.078-1.96-2.716s.756-2.716,1.96-2.716,1.974,1.092,1.974,2.716S-12.4,36.866-13.615,36.866ZM-7.875,38h1.61V31.588h1.554V30.3H-6.265v-.98c0-.938.336-1.386,1.022-1.386a2.1,2.1,0,0,1,.84.2l.322-1.218a3.788,3.788,0,0,0-1.358-.252c-1.722,0-2.436,1.092-2.436,2.674V30.3l-1.05.084v1.2h1.05Zm7.616.182a4.671,4.671,0,0,0,2.6-.812l-.56-1.022a3.269,3.269,0,0,1-1.834.574,2.325,2.325,0,0,1-2.38-2.352h5a4.174,4.174,0,0,0,.084-.826c0-2.17-1.106-3.64-3.15-3.64A3.743,3.743,0,0,0-4.011,34.15,3.7,3.7,0,0,0-.259,38.182ZM-2.443,33.45A2.085,2.085,0,0,1-.469,31.364c1.12,0,1.722.77,1.722,2.086Zm8.974,4.732c1.9,0,2.926-1.05,2.926-2.338,0-1.456-1.19-1.932-2.268-2.338-.84-.308-1.6-.56-1.6-1.218,0-.532.392-.952,1.246-.952a2.877,2.877,0,0,1,1.708.672l.756-.994a4.012,4.012,0,0,0-2.492-.91c-1.708,0-2.744.966-2.744,2.254S5.2,34.206,6.237,34.6c.826.322,1.694.63,1.694,1.33,0,.588-.434,1.036-1.358,1.036a3.489,3.489,0,0,1-2.184-.882l-.756,1.036A4.768,4.768,0,0,0,6.531,38.182Zm6.72,0c1.9,0,2.926-1.05,2.926-2.338,0-1.456-1.19-1.932-2.268-2.338-.84-.308-1.6-.56-1.6-1.218,0-.532.392-.952,1.246-.952a2.877,2.877,0,0,1,1.708.672l.756-.994a4.012,4.012,0,0,0-2.492-.91c-1.708,0-2.744.966-2.744,2.254s1.134,1.848,2.17,2.24c.826.322,1.694.63,1.694,1.33,0,.588-.434,1.036-1.358,1.036a3.489,3.489,0,0,1-2.184-.882l-.756,1.036A4.768,4.768,0,0,0,13.251,38.182ZM17.885,38h1.61V30.3h-1.61Zm.8-9.142a.96.96,0,1,0,0-1.918.96.96,0,1,0,0,1.918Zm6.3,9.324a3.7,3.7,0,0,0,3.626-4.032,3.648,3.648,0,1,0-7.252,0A3.7,3.7,0,0,0,24.983,38.182Zm0-1.316c-1.2,0-1.96-1.078-1.96-2.716s.756-2.716,1.96-2.716,1.974,1.092,1.974,2.716S26.2,36.866,24.983,36.866ZM30.5,38h1.61V32.54a2.58,2.58,0,0,1,1.876-1.05c.91,0,1.3.532,1.3,1.862V38H36.9V33.156c0-1.96-.728-3.052-2.366-3.052a3.669,3.669,0,0,0-2.548,1.26h-.042L31.815,30.3H30.5Zm10.556.182a3.828,3.828,0,0,0,2.45-1.064h.056l.126.882H45V33.366c0-2.044-.882-3.262-2.8-3.262A5.9,5.9,0,0,0,39.1,31.112l.6,1.092a4.234,4.234,0,0,1,2.226-.784c1.134,0,1.456.784,1.47,1.68-3.206.35-4.606,1.2-4.606,2.856A2.127,2.127,0,0,0,41.055,38.182Zm.49-1.274c-.686,0-1.2-.308-1.2-1.064,0-.868.77-1.456,3.052-1.722v1.89A2.714,2.714,0,0,1,41.545,36.908Zm7.336,1.274a2.525,2.525,0,0,0,.868-.126l-.21-1.218a1.118,1.118,0,0,1-.266.028c-.2,0-.378-.154-.378-.588V26.842h-1.61v9.352C47.285,37.44,47.719,38.182,48.881,38.182Zm10.892-5.5a9.327,9.327,0,0,0,2.772,6.692l1.064-.5a8.72,8.72,0,0,1,0-12.376l-1.064-.5A9.327,9.327,0,0,0,59.773,32.68ZM68.411,33c1.092,0,1.708.686,1.708,1.918,0,1.274-.714,2.03-1.61,2.03-1.092,0-1.834-.868-2-2.73A2.4,2.4,0,0,1,68.411,33Zm.112,5.18A3.083,3.083,0,0,0,71.6,34.92c0-2.072-1.176-3.094-2.9-3.094a3.117,3.117,0,0,0-2.24,1.2c.07-2.94,1.162-3.92,2.464-3.92a2.206,2.206,0,0,1,1.624.756l.882-.98a3.46,3.46,0,0,0-2.576-1.106c-2.044,0-3.892,1.6-3.892,5.544C64.967,36.628,66.563,38.182,68.523,38.182Zm5.6-4.088,2.03-3.052c.294-.518.574-.994.826-1.5h.056c-.028.56-.07,1.456-.07,2.016v2.534ZM76.965,38h1.512V35.34h1.3V34.094h-1.3V27.976H76.6l-4.1,6.286V35.34h4.466ZM85,38.182c1.736,0,3.318-1.512,3.318-4.158,0-2.366-1.106-3.92-3.052-3.92a3.675,3.675,0,0,0-2.3,1.008l.056-1.316V26.842h-1.61V38h1.26l.154-.8h.042A3.264,3.264,0,0,0,85,38.182Zm-.308-1.33a2.551,2.551,0,0,1-1.666-.7V32.386a2.625,2.625,0,0,1,1.82-.938c1.288,0,1.806.994,1.806,2.6C86.653,35.858,85.813,36.852,84.693,36.852ZM90.223,38h1.61V30.3h-1.61Zm.8-9.142a.96.96,0,1,0,0-1.918.96.96,0,1,0,0,1.918Zm5.81,9.324a4.927,4.927,0,0,0,1.512-.28l-.294-1.19a2.3,2.3,0,0,1-.826.182c-.8,0-1.12-.476-1.12-1.4V31.588h2V30.3h-2V28.172H94.759L94.577,30.3l-1.2.084v1.2h1.12V35.48C94.493,37.1,95.1,38.182,96.831,38.182Zm6.2-5.5a9.327,9.327,0,0,0-2.772-6.692l-1.064.5a8.72,8.72,0,0,1,0,12.376l1.064.5A9.327,9.327,0,0,0,103.033,32.68ZM-38.577,76h1.624V65.682h-1.624Zm4.186,0h1.61V70.54a2.58,2.58,0,0,1,1.876-1.05c.91,0,1.3.532,1.3,1.862V76h1.61V71.156c0-1.96-.728-3.052-2.366-3.052a3.669,3.669,0,0,0-2.548,1.26h-.042l-.126-1.064h-1.316Zm11.326.182a4.927,4.927,0,0,0,1.512-.28l-.294-1.19a2.3,2.3,0,0,1-.826.182c-.8,0-1.12-.476-1.12-1.4V69.588h2V68.3h-2V66.172h-1.344l-.182,2.128-1.2.084v1.2h1.12V73.48C-25.4,75.1-24.8,76.182-23.065,76.182Zm5.922,0a4.671,4.671,0,0,0,2.6-.812l-.56-1.022a3.269,3.269,0,0,1-1.834.574,2.325,2.325,0,0,1-2.38-2.352h5a4.174,4.174,0,0,0,.084-.826c0-2.17-1.106-3.64-3.15-3.64A3.743,3.743,0,0,0-20.9,72.15,3.7,3.7,0,0,0-17.143,76.182Zm-2.184-4.732a2.085,2.085,0,0,1,1.974-2.086c1.12,0,1.722.77,1.722,2.086Zm8.484,4.732a2.525,2.525,0,0,0,.868-.126l-.21-1.218a1.118,1.118,0,0,1-.266.028c-.2,0-.378-.154-.378-.588V64.842h-1.61v9.352C-12.439,75.44-12.005,76.182-10.843,76.182Zm9.884,0A4.069,4.069,0,0,0,2.247,74.7l-.868-1.022A2.981,2.981,0,0,1-.9,74.768c-1.82,0-2.968-1.5-2.968-3.948,0-2.422,1.232-3.906,3.01-3.906a2.741,2.741,0,0,1,2.016.924L2.037,66.8A3.971,3.971,0,0,0-.889,65.5c-2.6,0-4.648,2.016-4.648,5.376S-3.549,76.182-.959,76.182Zm7.966,0a4.063,4.063,0,0,0,0-8.078,4.063,4.063,0,0,0,0,8.078Zm0-1.316c-1.2,0-1.96-1.078-1.96-2.716s.756-2.716,1.96-2.716,1.974,1.092,1.974,2.716S8.225,74.866,7.007,74.866ZM12.523,76h1.61V71.2c.476-1.218,1.232-1.652,1.862-1.652a2.278,2.278,0,0,1,.77.126l.294-1.4a1.915,1.915,0,0,0-.868-.168,2.662,2.662,0,0,0-2.184,1.582h-.042L13.839,68.3H12.523Zm8.778.182a4.671,4.671,0,0,0,2.6-.812l-.56-1.022a3.269,3.269,0,0,1-1.834.574,2.325,2.325,0,0,1-2.38-2.352h5a4.173,4.173,0,0,0,.084-.826c0-2.17-1.106-3.64-3.15-3.64a3.743,3.743,0,0,0-3.514,4.046A3.7,3.7,0,0,0,21.3,76.182ZM19.117,71.45a2.085,2.085,0,0,1,1.974-2.086c1.12,0,1.722.77,1.722,2.086ZM29.155,76h1.61V68.3h-1.61Zm.8-9.142a.96.96,0,1,0,0-1.918.96.96,0,1,0,0,1.918Zm5.754,9.324a3.331,3.331,0,0,0,3.472-3.43,2.89,2.89,0,0,0-3.136-3.122,2.938,2.938,0,0,0-1.414.35l.238-2.646h3.822V65.976H33.467l-.308,4.9.784.5a2.711,2.711,0,0,1,1.652-.588,1.846,1.846,0,0,1,1.96,2.016,1.951,1.951,0,0,1-2.044,2.058A3.3,3.3,0,0,1,33.1,73.76l-.77,1.05A4.56,4.56,0,0,0,35.707,76.182Zm-45.269,38c1.988,0,3.332-1.176,3.332-2.7a2.905,2.905,0,0,0-1.736-2.59v-.07a3.1,3.1,0,0,0,1.358-2.352A2.644,2.644,0,0,0-9.52,103.78a2.678,2.678,0,0,0-2.94,2.632,2.85,2.85,0,0,0,1.386,2.338v.056a3.05,3.05,0,0,0-1.848,2.632C-12.922,113.034-11.494,114.182-9.562,114.182Zm.672-5.768c-1.148-.448-2.128-.924-2.128-2a1.4,1.4,0,0,1,1.47-1.47,1.51,1.51,0,0,1,1.582,1.624A2.52,2.52,0,0,1-8.89,108.414Zm-.644,4.606a1.8,1.8,0,0,1-1.96-1.736,2.5,2.5,0,0,1,1.2-2.016c1.4.574,2.534.98,2.534,2.17A1.587,1.587,0,0,1-9.534,113.02Zm9.506,1.162a4.629,4.629,0,0,0,3.262-1.2v-4.466H-.28v1.33H1.764v2.422a2.555,2.555,0,0,1-1.624.5c-2.128,0-3.262-1.5-3.262-3.948,0-2.422,1.274-3.906,3.192-3.906a2.842,2.842,0,0,1,2.142.924L3.08,104.8a4.111,4.111,0,0,0-3.066-1.3c-2.73,0-4.8,2.016-4.8,5.376S-2.772,114.182-.028,114.182ZM5.586,114H9.03c2.282,0,3.948-.98,3.948-3.024a2.366,2.366,0,0,0-2.03-2.45v-.07a2.292,2.292,0,0,0,1.47-2.226c0-1.862-1.526-2.548-3.64-2.548H5.586Zm1.624-6.006v-3.038H8.638c1.456,0,2.184.406,2.184,1.484,0,.966-.658,1.554-2.226,1.554Zm0,4.732v-3.514H8.848c1.638,0,2.534.518,2.534,1.68,0,1.26-.924,1.834-2.534,1.834ZM-47.628,152h5.88v-1.33h-2.016v-8.694h-1.218a6.066,6.066,0,0,1-2.24.784v1.022h1.848v6.888h-2.254Zm7.392,0h6.65v-1.372H-36.2c-.5,0-1.162.042-1.68.1,2.142-2.24,3.808-4.088,3.808-5.922a2.882,2.882,0,0,0-3.108-3.024,4.043,4.043,0,0,0-3.136,1.54l.91.9a2.8,2.8,0,0,1,2.03-1.148,1.632,1.632,0,0,1,1.75,1.82c0,1.568-1.736,3.36-4.606,6.174Zm11.368.182c1.988,0,3.332-1.176,3.332-2.7a2.905,2.905,0,0,0-1.736-2.59v-.07a3.1,3.1,0,0,0,1.358-2.352,2.644,2.644,0,0,0-2.912-2.688,2.678,2.678,0,0,0-2.94,2.632,2.85,2.85,0,0,0,1.386,2.338v.056a3.05,3.05,0,0,0-1.848,2.632C-32.228,151.034-30.8,152.182-28.868,152.182Zm.672-5.768c-1.148-.448-2.128-.924-2.128-2a1.4,1.4,0,0,1,1.47-1.47,1.51,1.51,0,0,1,1.582,1.624A2.52,2.52,0,0,1-28.2,146.414Zm-.644,4.606a1.8,1.8,0,0,1-1.96-1.736,2.5,2.5,0,0,1,1.2-2.016c1.4.574,2.534.98,2.534,2.17A1.587,1.587,0,0,1-28.84,151.02Zm9.506,1.162a4.629,4.629,0,0,0,3.262-1.2v-4.466h-3.514v1.33h2.044v2.422a2.555,2.555,0,0,1-1.624.5c-2.128,0-3.262-1.5-3.262-3.948,0-2.422,1.274-3.906,3.192-3.906a2.842,2.842,0,0,1,2.142.924l.868-1.036a4.111,4.111,0,0,0-3.066-1.3c-2.73,0-4.8,2.016-4.8,5.376S-22.078,152.182-19.334,152.182ZM-13.72,152h3.444c2.282,0,3.948-.98,3.948-3.024a2.366,2.366,0,0,0-2.03-2.45v-.07a2.292,2.292,0,0,0,1.47-2.226c0-1.862-1.526-2.548-3.64-2.548H-13.72Zm1.624-6.006v-3.038h1.428c1.456,0,2.184.406,2.184,1.484,0,.966-.658,1.554-2.226,1.554Zm0,4.732v-3.514h1.638c1.638,0,2.534.518,2.534,1.68,0,1.26-.924,1.834-2.534,1.834Zm15.89-4.046a9.327,9.327,0,0,0,2.772,6.692l1.064-.5a8.72,8.72,0,0,1,0-12.376l-1.064-.5A9.327,9.327,0,0,0,3.794,146.68Zm8.764,5.5c2.254,0,3.626-1.344,3.626-3a2.877,2.877,0,0,0-2.1-2.786l-1.414-.6c-.84-.336-1.666-.672-1.666-1.568,0-.812.686-1.316,1.736-1.316a3.282,3.282,0,0,1,2.268.924l.854-1.036a4.414,4.414,0,0,0-3.122-1.3c-1.96,0-3.388,1.218-3.388,2.842a2.964,2.964,0,0,0,2.1,2.7l1.428.616c.952.42,1.652.714,1.652,1.652,0,.868-.7,1.456-1.946,1.456a4,4,0,0,1-2.744-1.218l-.952,1.12A5.141,5.141,0,0,0,12.558,152.182Zm8.274,0c2.254,0,3.626-1.344,3.626-3a2.877,2.877,0,0,0-2.1-2.786l-1.414-.6c-.84-.336-1.666-.672-1.666-1.568,0-.812.686-1.316,1.736-1.316a3.282,3.282,0,0,1,2.268.924l.854-1.036a4.414,4.414,0,0,0-3.122-1.3c-1.96,0-3.388,1.218-3.388,2.842a2.964,2.964,0,0,0,2.1,2.7l1.428.616c.952.42,1.652.714,1.652,1.652,0,.868-.7,1.456-1.946,1.456a4,4,0,0,1-2.744-1.218l-.952,1.12A5.141,5.141,0,0,0,20.832,152.182ZM26.4,152h2.758c3.08,0,4.886-1.848,4.886-5.194s-1.806-5.124-4.97-5.124H26.4Zm1.624-1.33v-7.658h.938c2.212,0,3.4,1.218,3.4,3.794s-1.19,3.864-3.4,3.864Zm11.27-3.99a9.327,9.327,0,0,0-2.772-6.692l-1.064.5a8.72,8.72,0,0,1,0,12.376l1.064.5A9.327,9.327,0,0,0,39.3,146.68ZM-115.206,190h1.624V179.682h-1.624Zm4.326,0h6.244v-1.372h-4.62V185.3h3.78v-1.372h-3.78v-2.87h4.466v-1.372h-6.09Zm8.4,0h6.244v-1.372h-4.62V185.3h3.78v-1.372h-3.78v-2.87h4.466v-1.372h-6.09Zm8.4,0h6.244v-1.372h-4.62V185.3h3.78v-1.372h-3.78v-2.87h4.466v-1.372h-6.09Zm11.046.182c1.988,0,3.332-1.176,3.332-2.7a2.905,2.905,0,0,0-1.736-2.59v-.07a3.1,3.1,0,0,0,1.358-2.352,2.644,2.644,0,0,0-2.912-2.688,2.678,2.678,0,0,0-2.94,2.632,2.85,2.85,0,0,0,1.386,2.338v.056a3.05,3.05,0,0,0-1.848,2.632C-86.394,189.034-84.966,190.182-83.034,190.182Zm.672-5.768c-1.148-.448-2.128-.924-2.128-2a1.4,1.4,0,0,1,1.47-1.47,1.51,1.51,0,0,1,1.582,1.624A2.52,2.52,0,0,1-82.362,184.414Zm-.644,4.606a1.8,1.8,0,0,1-1.96-1.736,2.5,2.5,0,0,1,1.2-2.016c1.4.574,2.534.98,2.534,2.17A1.587,1.587,0,0,1-83.006,189.02Zm7.938,1.162c2.058,0,3.332-1.862,3.332-5.236s-1.274-5.166-3.332-5.166-3.332,1.792-3.332,5.166S-77.112,190.182-75.068,190.182Zm0-1.274c-1.05,0-1.792-1.078-1.792-3.962s.742-3.892,1.792-3.892,1.792,1.008,1.792,3.892S-74.018,188.908-75.068,188.908ZM-70.462,190h6.65v-1.372H-66.43c-.5,0-1.162.042-1.68.1,2.142-2.24,3.808-4.088,3.808-5.922a2.882,2.882,0,0,0-3.108-3.024,4.043,4.043,0,0,0-3.136,1.54l.91.9a2.8,2.8,0,0,1,2.03-1.148,1.632,1.632,0,0,1,1.75,1.82c0,1.568-1.736,3.36-4.606,6.174Zm9.45.182a1.071,1.071,0,0,0,1.078-1.12,1.087,1.087,0,0,0-1.078-1.148,1.087,1.087,0,0,0-1.078,1.148A1.071,1.071,0,0,0-61.012,190.182Zm3.29-.182h5.88v-1.33h-2.016v-8.694h-1.218a6.066,6.066,0,0,1-2.24.784v1.022h1.848v6.888h-2.254Zm7.98,0h5.88v-1.33h-2.016v-8.694H-47.1a6.066,6.066,0,0,1-2.24.784v1.022h1.848v6.888h-2.254Zm9.814.182a3.828,3.828,0,0,0,2.45-1.064h.056l.126.882h1.316v-4.634c0-2.044-.882-3.262-2.8-3.262a5.9,5.9,0,0,0-3.108,1.008l.6,1.092a4.234,4.234,0,0,1,2.226-.784c1.134,0,1.456.784,1.47,1.68-3.206.35-4.606,1.2-4.606,2.856A2.127,2.127,0,0,0-39.928,190.182Zm.49-1.274c-.686,0-1.2-.308-1.2-1.064,0-.868.77-1.456,3.052-1.722v1.89A2.714,2.714,0,0,1-39.438,188.908Zm4.69,3.612h1.12l3.892-13.706h-1.12Zm10.094-2.338c1.736,0,3.318-1.512,3.318-4.158,0-2.366-1.106-3.92-3.052-3.92a3.675,3.675,0,0,0-2.3,1.008l.056-1.316v-2.954h-1.61V190h1.26l.154-.8h.042A3.264,3.264,0,0,0-24.654,190.182Zm-.308-1.33a2.551,2.551,0,0,1-1.666-.7v-3.766a2.625,2.625,0,0,1,1.82-.938c1.288,0,1.806.994,1.806,2.6C-23,187.858-23.842,188.852-24.962,188.852Zm4.48,3.668h1.12l3.892-13.706h-1.12Zm8.988.938c2.464,0,4.032-1.2,4.032-2.688,0-1.316-.952-1.876-2.772-1.876h-1.414c-.98,0-1.288-.294-1.288-.756a1,1,0,0,1,.42-.812,2.677,2.677,0,0,0,1.078.238,2.631,2.631,0,0,0,2.884-2.646,2.082,2.082,0,0,0-.5-1.414h1.47v-1.2h-2.73a3.211,3.211,0,0,0-1.12-.2,2.774,2.774,0,0,0-2.982,2.758A2.61,2.61,0,0,0-13.4,186.92v.056a1.876,1.876,0,0,0-.868,1.428,1.416,1.416,0,0,0,.7,1.274v.07a2.034,2.034,0,0,0-1.12,1.68C-14.686,192.772-13.342,193.458-11.494,193.458Zm.056-6.93a1.506,1.506,0,0,1-1.456-1.666,1.461,1.461,0,0,1,1.456-1.624,1.469,1.469,0,0,1,1.456,1.624A1.506,1.506,0,0,1-11.438,186.528Zm.182,5.866c-1.274,0-2.058-.448-2.058-1.2a1.385,1.385,0,0,1,.658-1.12,4.9,4.9,0,0,0,1.036.112h1.162c.938,0,1.442.2,1.442.84C-9.016,191.736-9.912,192.394-11.256,192.394Zm4.83.126h1.12l3.892-13.706h-1.12ZM.084,190h1.61v-5.46a2.58,2.58,0,0,1,1.876-1.05c.91,0,1.3.532,1.3,1.862V190h1.61v-4.844c0-1.96-.728-3.052-2.366-3.052a3.669,3.669,0,0,0-2.548,1.26H1.526L1.4,182.3H.084Zm7.686,2.52H8.89l3.892-13.706h-1.12Zm7.938-2.338a3.828,3.828,0,0,0,2.45-1.064h.056l.126.882h1.316v-4.634c0-2.044-.882-3.262-2.8-3.262a5.9,5.9,0,0,0-3.108,1.008l.6,1.092a4.234,4.234,0,0,1,2.226-.784c1.134,0,1.456.784,1.47,1.68-3.206.35-4.606,1.2-4.606,2.856A2.127,2.127,0,0,0,15.708,190.182Zm.49-1.274c-.686,0-1.2-.308-1.2-1.064,0-.868.77-1.456,3.052-1.722v1.89A2.714,2.714,0,0,1,16.2,188.908Zm8.876,1.274a3.814,3.814,0,0,0,2.506-.952l-.672-1.064a2.638,2.638,0,0,1-1.68.7c-1.274,0-2.17-1.078-2.17-2.716s.924-2.716,2.226-2.716a2.011,2.011,0,0,1,1.372.6l.8-1.05A3.306,3.306,0,0,0,25.2,182.1a3.779,3.779,0,0,0-3.808,4.046C21.392,188.712,22.988,190.182,25.074,190.182Zm12.418-5.5a9.327,9.327,0,0,0,2.772,6.692l1.064-.5a8.72,8.72,0,0,1,0-12.376l-1.064-.5A9.327,9.327,0,0,0,37.492,184.68ZM42.574,190h6.65v-1.372H46.606c-.5,0-1.162.042-1.68.1,2.142-2.24,3.808-4.088,3.808-5.922a2.882,2.882,0,0,0-3.108-3.024,4.043,4.043,0,0,0-3.136,1.54l.91.9a2.8,2.8,0,0,1,2.03-1.148,1.632,1.632,0,0,1,1.75,1.82c0,1.568-1.736,3.36-4.606,6.174Zm9.45.182a1.071,1.071,0,0,0,1.078-1.12,1.08,1.08,0,1,0-2.156,0A1.071,1.071,0,0,0,52.024,190.182Zm3.99-4.088,2.03-3.052c.294-.518.574-.994.826-1.5h.056c-.028.56-.07,1.456-.07,2.016v2.534ZM58.856,190h1.512v-2.66h1.3v-1.246h-1.3v-6.118H58.492l-4.1,6.286v1.078h4.466Zm3.4,2.52h1.12l3.892-13.706H66.15Zm9.044-2.338a3.331,3.331,0,0,0,3.472-3.43,2.89,2.89,0,0,0-3.136-3.122,2.938,2.938,0,0,0-1.414.35l.238-2.646h3.822v-1.358H69.062l-.308,4.9.784.5a2.711,2.711,0,0,1,1.652-.588,1.846,1.846,0,0,1,1.96,2.016,1.951,1.951,0,0,1-2.044,2.058A3.3,3.3,0,0,1,68.7,187.76l-.77,1.05A4.56,4.56,0,0,0,71.3,190.182Zm9.786,0a4.629,4.629,0,0,0,3.262-1.2v-4.466H80.836v1.33H82.88v2.422a2.555,2.555,0,0,1-1.624.5c-2.128,0-3.262-1.5-3.262-3.948,0-2.422,1.274-3.906,3.192-3.906a2.842,2.842,0,0,1,2.142.924L84.2,180.8a4.111,4.111,0,0,0-3.066-1.3c-2.73,0-4.8,2.016-4.8,5.376S78.344,190.182,81.088,190.182ZM86.7,190h1.624v-4.69h4.41V190H94.36V179.682H92.736V183.9h-4.41v-4.214H86.7Zm9.52,0h5.95v-1.288h-3.92l3.794-5.558V182.3h-5.4v1.288h3.388l-3.808,5.544Zm10.808-5.32a9.327,9.327,0,0,0-2.772-6.692l-1.064.5a8.72,8.72,0,0,1,0,12.376l1.064.5A9.327,9.327,0,0,0,107.03,184.68ZM-43.9,228.182c2.282,0,3.822-1.246,3.822-4.606v-5.894h-1.568v6.006c0,2.324-.952,3.08-2.254,3.08s-2.212-.756-2.212-3.08v-6.006h-1.624v5.894C-47.733,226.936-46.179,228.182-43.9,228.182Zm9.268,0c2.254,0,3.626-1.344,3.626-3a2.877,2.877,0,0,0-2.1-2.786l-1.414-.6c-.84-.336-1.666-.672-1.666-1.568,0-.812.686-1.316,1.736-1.316a3.282,3.282,0,0,1,2.268.924l.854-1.036a4.414,4.414,0,0,0-3.122-1.3c-1.96,0-3.388,1.218-3.388,2.842a2.964,2.964,0,0,0,2.1,2.7l1.428.616c.952.42,1.652.714,1.652,1.652,0,.868-.7,1.456-1.946,1.456a4,4,0,0,1-2.744-1.218l-.952,1.12A5.141,5.141,0,0,0-34.629,228.182Zm5.572-.182h3.444c2.282,0,3.948-.98,3.948-3.024a2.366,2.366,0,0,0-2.03-2.45v-.07a2.292,2.292,0,0,0,1.47-2.226c0-1.862-1.526-2.548-3.64-2.548h-3.192Zm1.624-6.006v-3.038H-26c1.456,0,2.184.406,2.184,1.484,0,.966-.658,1.554-2.226,1.554Zm0,4.732v-3.514h1.638c1.638,0,2.534.518,2.534,1.68,0,1.26-.924,1.834-2.534,1.834ZM-20.461,228h6.65v-1.372h-2.618c-.5,0-1.162.042-1.68.1,2.142-2.24,3.808-4.088,3.808-5.922a2.882,2.882,0,0,0-3.108-3.024,4.043,4.043,0,0,0-3.136,1.54l.91.9a2.8,2.8,0,0,1,2.03-1.148,1.632,1.632,0,0,1,1.75,1.82c0,1.568-1.736,3.36-4.606,6.174Zm9.45.182a1.071,1.071,0,0,0,1.078-1.12,1.087,1.087,0,0,0-1.078-1.148,1.087,1.087,0,0,0-1.078,1.148A1.071,1.071,0,0,0-11.011,228.182Zm6.076,0c2.058,0,3.332-1.862,3.332-5.236s-1.274-5.166-3.332-5.166-3.332,1.792-3.332,5.166S-6.979,228.182-4.935,228.182Zm0-1.274c-1.05,0-1.792-1.078-1.792-3.962s.742-3.892,1.792-3.892,1.792,1.008,1.792,3.892S-3.885,226.908-4.935,226.908Zm14.728.35.826-.812-3.738-3.738,3.738-3.724-.826-.826L6.069,221.9l-3.724-3.738-.84.826,3.738,3.724-3.738,3.738.826.812,3.738-3.724Zm4.466.742h5.88v-1.33H18.123v-8.694H16.905a6.066,6.066,0,0,1-2.24.784v1.022h1.848v6.888H14.259ZM24.7,225.354a10.849,10.849,0,0,1-3.15,2.6,8.614,8.614,0,0,1,1.19.91,16.371,16.371,0,0,0,3.3-3.024Zm9.786-.56a22.179,22.179,0,0,0-3.36-3.3l-1.064.686c.42.364.868.77,1.316,1.19-1.568.042-3.136.07-4.62.1a48.215,48.215,0,0,0,4.7-4.186l-1.26-.686a32.627,32.627,0,0,1-3.276,3.22,14.863,14.863,0,0,0-1.358-1.05,26.851,26.851,0,0,0,2.352-2.492l-.112-.056a49.369,49.369,0,0,0,5.558-.686l-.924-1.106a69.292,69.292,0,0,1-10.192.868,4.746,4.746,0,0,1,.308,1.162c1.148-.014,2.366-.056,3.6-.126a21.382,21.382,0,0,1-1.582,1.778c-.28-.182-.56-.35-.826-.5l-.9.826a19.986,19.986,0,0,1,3.052,2.24c-.378.294-.742.574-1.092.826-1.12.014-2.142.028-3,.028l.14,1.316c1.47-.028,3.346-.07,5.362-.14v4.41h1.372v-4.452c1.246-.028,2.534-.07,3.794-.126a10.613,10.613,0,0,1,.826,1.036Zm-4.634,1.218a22.958,22.958,0,0,1,3.318,2.828l1.162-.84a25.8,25.8,0,0,0-3.4-2.716Zm10.864-4.48.112,1.2,6.034-.462a7.591,7.591,0,0,1,.546,1.036l1.092-.588a16.045,16.045,0,0,0-2.184-3.192l-1.008.532c.28.35.574.742.854,1.134-1.008.07-2.016.14-2.94.2.336-.686.686-1.5,1.008-2.226h4.032V217.99H45v-1.736H43.687v1.736H40.663v1.176h2.1a16.568,16.568,0,0,1-.868,2.3Zm-4.48,2.73a10.58,10.58,0,0,1-.826,3.276,5.472,5.472,0,0,1,.994.49,12.963,12.963,0,0,0,.938-3.57Zm3.584-.952a5.467,5.467,0,0,1,.224.756l.952-.42a10.853,10.853,0,0,0-1.274-2.9l-.882.364c.2.35.392.742.574,1.134-.6.042-1.19.07-1.75.084.91-1.176,1.918-2.7,2.7-3.976l-1.078-.49c-.35.714-.826,1.568-1.33,2.394a10.124,10.124,0,0,0-.672-.77c.5-.77,1.092-1.848,1.582-2.786l-1.148-.448a16.143,16.143,0,0,1-1.148,2.534c-.126-.112-.252-.224-.378-.322l-.63.854a13.206,13.206,0,0,1,1.736,1.96c-.266.392-.546.77-.8,1.106l-.98.028.112,1.148c.63-.042,1.344-.084,2.114-.126v5.684h1.162v-5.754ZM41,226.684a16.174,16.174,0,0,0-.882-2.534l-.938.308a14.974,14.974,0,0,1,.826,2.562Zm1.372-3.5c-.084,2.562-.35,4.13-2.52,5a3.3,3.3,0,0,1,.742.966c2.478-1.064,2.912-2.968,3.024-5.964Zm4.088,4.676c-.252,0-.294-.056-.294-.42v-4.27H44.947v4.27c0,1.19.238,1.568,1.3,1.568h1.078c.9,0,1.218-.5,1.3-2.38a3.7,3.7,0,0,1-1.092-.5c-.028,1.5-.084,1.736-.336,1.736ZM-43.9,266.182c2.282,0,3.822-1.246,3.822-4.606v-5.894h-1.568v6.006c0,2.324-.952,3.08-2.254,3.08s-2.212-.756-2.212-3.08v-6.006h-1.624v5.894C-47.733,264.936-46.179,266.182-43.9,266.182Zm9.268,0c2.254,0,3.626-1.344,3.626-3a2.877,2.877,0,0,0-2.1-2.786l-1.414-.6c-.84-.336-1.666-.672-1.666-1.568,0-.812.686-1.316,1.736-1.316a3.282,3.282,0,0,1,2.268.924l.854-1.036a4.414,4.414,0,0,0-3.122-1.3c-1.96,0-3.388,1.218-3.388,2.842a2.964,2.964,0,0,0,2.1,2.7l1.428.616c.952.42,1.652.714,1.652,1.652,0,.868-.7,1.456-1.946,1.456a4,4,0,0,1-2.744-1.218l-.952,1.12A5.141,5.141,0,0,0-34.629,266.182Zm5.572-.182h3.444c2.282,0,3.948-.98,3.948-3.024a2.366,2.366,0,0,0-2.03-2.45v-.07a2.292,2.292,0,0,0,1.47-2.226c0-1.862-1.526-2.548-3.64-2.548h-3.192Zm1.624-6.006v-3.038H-26c1.456,0,2.184.406,2.184,1.484,0,.966-.658,1.554-2.226,1.554Zm0,4.732v-3.514h1.638c1.638,0,2.534.518,2.534,1.68,0,1.26-.924,1.834-2.534,1.834Zm10.108,1.456c1.89,0,3.444-1.064,3.444-2.87a2.572,2.572,0,0,0-2.128-2.52v-.07a2.416,2.416,0,0,0,1.778-2.338c0-1.652-1.3-2.6-3.15-2.6a4.293,4.293,0,0,0-2.954,1.26l.84,1.008a2.9,2.9,0,0,1,2.058-.98,1.4,1.4,0,0,1,1.582,1.442c0,.966-.672,1.708-2.7,1.708v1.19c2.324,0,3.052.714,3.052,1.82,0,1.008-.8,1.638-1.96,1.638a3.33,3.33,0,0,1-2.436-1.134l-.784,1.036A4.277,4.277,0,0,0-17.325,266.182Zm6.314,0a1.071,1.071,0,0,0,1.078-1.12,1.087,1.087,0,0,0-1.078-1.148,1.087,1.087,0,0,0-1.078,1.148A1.071,1.071,0,0,0-11.011,266.182Zm6.076,0c2.058,0,3.332-1.862,3.332-5.236s-1.274-5.166-3.332-5.166-3.332,1.792-3.332,5.166S-6.979,266.182-4.935,266.182Zm0-1.274c-1.05,0-1.792-1.078-1.792-3.962s.742-3.892,1.792-3.892,1.792,1.008,1.792,3.892S-3.885,264.908-4.935,264.908Zm14.728.35.826-.812-3.738-3.738,3.738-3.724-.826-.826L6.069,259.9l-3.724-3.738-.84.826,3.738,3.724-3.738,3.738.826.812,3.738-3.724Zm4.466.742h5.88v-1.33H18.123v-8.694H16.905a6.066,6.066,0,0,1-2.24.784v1.022h1.848v6.888H14.259ZM24.7,263.354a10.849,10.849,0,0,1-3.15,2.6,8.611,8.611,0,0,1,1.19.91,16.371,16.371,0,0,0,3.3-3.024Zm9.786-.56a22.181,22.181,0,0,0-3.36-3.3l-1.064.686c.42.364.868.77,1.316,1.19-1.568.042-3.136.07-4.62.1a48.213,48.213,0,0,0,4.7-4.186l-1.26-.686a32.63,32.63,0,0,1-3.276,3.22,14.863,14.863,0,0,0-1.358-1.05,26.847,26.847,0,0,0,2.352-2.492l-.112-.056a49.366,49.366,0,0,0,5.558-.686l-.924-1.106a69.292,69.292,0,0,1-10.192.868,4.746,4.746,0,0,1,.308,1.162c1.148-.014,2.366-.056,3.6-.126a21.38,21.38,0,0,1-1.582,1.778c-.28-.182-.56-.35-.826-.5l-.9.826a19.986,19.986,0,0,1,3.052,2.24c-.378.294-.742.574-1.092.826-1.12.014-2.142.028-3,.028l.14,1.316c1.47-.028,3.346-.07,5.362-.14v4.41h1.372v-4.452c1.246-.028,2.534-.07,3.794-.126a10.613,10.613,0,0,1,.826,1.036Zm-4.634,1.218a22.957,22.957,0,0,1,3.318,2.828l1.162-.84a25.8,25.8,0,0,0-3.4-2.716Zm10.864-4.48.112,1.2,6.034-.462a7.592,7.592,0,0,1,.546,1.036l1.092-.588a16.045,16.045,0,0,0-2.184-3.192l-1.008.532c.28.35.574.742.854,1.134-1.008.07-2.016.14-2.94.2.336-.686.686-1.5,1.008-2.226h4.032V255.99H45v-1.736H43.687v1.736H40.663v1.176h2.1a16.566,16.566,0,0,1-.868,2.3Zm-4.48,2.73a10.58,10.58,0,0,1-.826,3.276,5.47,5.47,0,0,1,.994.49,12.963,12.963,0,0,0,.938-3.57Zm3.584-.952a5.468,5.468,0,0,1,.224.756l.952-.42a10.854,10.854,0,0,0-1.274-2.9l-.882.364c.2.35.392.742.574,1.134-.6.042-1.19.07-1.75.084.91-1.176,1.918-2.7,2.7-3.976l-1.078-.49c-.35.714-.826,1.568-1.33,2.394a10.121,10.121,0,0,0-.672-.77c.5-.77,1.092-1.848,1.582-2.786l-1.148-.448a16.143,16.143,0,0,1-1.148,2.534c-.126-.112-.252-.224-.378-.322l-.63.854a13.206,13.206,0,0,1,1.736,1.96c-.266.392-.546.77-.8,1.106l-.98.028.112,1.148c.63-.042,1.344-.084,2.114-.126v5.684h1.162v-5.754ZM41,264.684a16.174,16.174,0,0,0-.882-2.534l-.938.308a14.974,14.974,0,0,1,.826,2.562Zm1.372-3.5c-.084,2.562-.35,4.13-2.52,5a3.3,3.3,0,0,1,.742.966c2.478-1.064,2.912-2.968,3.024-5.964Zm4.088,4.676c-.252,0-.294-.056-.294-.42v-4.27H44.947v4.27c0,1.19.238,1.568,1.3,1.568h1.078c.9,0,1.218-.5,1.3-2.38a3.7,3.7,0,0,1-1.092-.5c-.028,1.5-.084,1.736-.336,1.736ZM-61.117,304.182c2.282,0,3.822-1.246,3.822-4.606v-5.894h-1.568v6.006c0,2.324-.952,3.08-2.254,3.08s-2.212-.756-2.212-3.08v-6.006h-1.624v5.894C-64.953,302.936-63.4,304.182-61.117,304.182Zm9.268,0c2.254,0,3.626-1.344,3.626-3a2.877,2.877,0,0,0-2.1-2.786l-1.414-.6c-.84-.336-1.666-.672-1.666-1.568,0-.812.686-1.316,1.736-1.316a3.282,3.282,0,0,1,2.268.924l.854-1.036a4.414,4.414,0,0,0-3.122-1.3c-1.96,0-3.388,1.218-3.388,2.842a2.964,2.964,0,0,0,2.1,2.7l1.428.616c.952.42,1.652.714,1.652,1.652,0,.868-.7,1.456-1.946,1.456a4,4,0,0,1-2.744-1.218l-.952,1.12A5.141,5.141,0,0,0-51.849,304.182Zm5.572-.182h3.444c2.282,0,3.948-.98,3.948-3.024a2.366,2.366,0,0,0-2.03-2.45v-.07a2.292,2.292,0,0,0,1.47-2.226c0-1.862-1.526-2.548-3.64-2.548h-3.192Zm1.624-6.006v-3.038h1.428c1.456,0,2.184.406,2.184,1.484,0,.966-.658,1.554-2.226,1.554Zm0,4.732v-3.514h1.638c1.638,0,2.534.518,2.534,1.68,0,1.26-.924,1.834-2.534,1.834Zm10.108,1.456c1.89,0,3.444-1.064,3.444-2.87a2.572,2.572,0,0,0-2.128-2.52v-.07a2.416,2.416,0,0,0,1.778-2.338c0-1.652-1.3-2.6-3.15-2.6a4.293,4.293,0,0,0-2.954,1.26l.84,1.008a2.9,2.9,0,0,1,2.058-.98,1.4,1.4,0,0,1,1.582,1.442c0,.966-.672,1.708-2.7,1.708v1.19c2.324,0,3.052.714,3.052,1.82,0,1.008-.8,1.638-1.96,1.638a3.33,3.33,0,0,1-2.436-1.134l-.784,1.036A4.277,4.277,0,0,0-34.545,304.182Zm6.314,0a1.071,1.071,0,0,0,1.078-1.12,1.087,1.087,0,0,0-1.078-1.148,1.087,1.087,0,0,0-1.078,1.148A1.071,1.071,0,0,0-28.231,304.182Zm3.29-.182h5.88v-1.33h-2.016v-8.694H-22.3a6.067,6.067,0,0,1-2.24.784v1.022h1.848v6.888h-2.254Zm12.334.182a4.629,4.629,0,0,0,3.262-1.2v-4.466h-3.514v1.33h2.044v2.422a2.555,2.555,0,0,1-1.624.5c-2.128,0-3.262-1.5-3.262-3.948,0-2.422,1.274-3.906,3.192-3.906a2.842,2.842,0,0,1,2.142.924L-9.5,294.8a4.111,4.111,0,0,0-3.066-1.3c-2.73,0-4.8,2.016-4.8,5.376S-15.351,304.182-12.607,304.182Zm8.68,0a4.671,4.671,0,0,0,2.6-.812l-.56-1.022a3.269,3.269,0,0,1-1.834.574A2.325,2.325,0,0,1-6.1,300.57h5a4.174,4.174,0,0,0,.084-.826c0-2.17-1.106-3.64-3.15-3.64a3.743,3.743,0,0,0-3.514,4.046A3.7,3.7,0,0,0-3.927,304.182Zm-2.184-4.732a2.084,2.084,0,0,1,1.974-2.086c1.12,0,1.722.77,1.722,2.086ZM.777,304h1.61v-5.46a2.58,2.58,0,0,1,1.876-1.05c.91,0,1.3.532,1.3,1.862V304h1.61v-4.844c0-1.96-.728-3.052-2.366-3.052a3.669,3.669,0,0,0-2.548,1.26H2.219L2.093,296.3H.777Zm8.134,0h6.65v-1.372H12.943c-.5,0-1.162.042-1.68.1,2.142-2.24,3.808-4.088,3.808-5.922a2.882,2.882,0,0,0-3.108-3.024,4.043,4.043,0,0,0-3.136,1.54l.91.9a2.8,2.8,0,0,1,2.03-1.148,1.632,1.632,0,0,1,1.75,1.82c0,1.568-1.736,3.36-4.606,6.174Zm18.1-.742.826-.812L24.1,298.708l3.738-3.724-.826-.826L23.289,297.9l-3.724-3.738-.84.826,3.738,3.724-3.738,3.738.826.812,3.738-3.724Zm3.878.742h6.65v-1.372H34.923c-.5,0-1.162.042-1.68.1,2.142-2.24,3.808-4.088,3.808-5.922a2.882,2.882,0,0,0-3.108-3.024,4.043,4.043,0,0,0-3.136,1.54l.91.9a2.8,2.8,0,0,1,2.03-1.148,1.632,1.632,0,0,1,1.75,1.82c0,1.568-1.736,3.36-4.606,6.174Zm11.032-2.646a10.849,10.849,0,0,1-3.15,2.6,8.611,8.611,0,0,1,1.19.91,16.371,16.371,0,0,0,3.3-3.024Zm9.786-.56a22.181,22.181,0,0,0-3.36-3.3l-1.064.686c.42.364.868.77,1.316,1.19-1.568.042-3.136.07-4.62.1a48.213,48.213,0,0,0,4.7-4.186l-1.26-.686a32.63,32.63,0,0,1-3.276,3.22,14.864,14.864,0,0,0-1.358-1.05,26.847,26.847,0,0,0,2.352-2.492l-.112-.056a49.37,49.37,0,0,0,5.558-.686l-.924-1.106a69.3,69.3,0,0,1-10.192.868,4.746,4.746,0,0,1,.308,1.162c1.148-.014,2.366-.056,3.6-.126A21.38,21.38,0,0,1,41.8,296.1c-.28-.182-.56-.35-.826-.5l-.9.826a19.987,19.987,0,0,1,3.052,2.24c-.378.294-.742.574-1.092.826-1.12.014-2.142.028-3,.028l.14,1.316c1.47-.028,3.346-.07,5.362-.14v4.41h1.372v-4.452c1.246-.028,2.534-.07,3.794-.126a10.613,10.613,0,0,1,.826,1.036Zm-4.634,1.218a22.957,22.957,0,0,1,3.318,2.828l1.162-.84a25.8,25.8,0,0,0-3.4-2.716Zm10.864-4.48.112,1.2,6.034-.462a7.592,7.592,0,0,1,.546,1.036l1.092-.588a16.046,16.046,0,0,0-2.184-3.192l-1.008.532c.28.35.574.742.854,1.134-1.008.07-2.016.14-2.94.2.336-.686.686-1.5,1.008-2.226h4.032V293.99H62.223v-1.736H60.907v1.736H57.883v1.176h2.1a16.566,16.566,0,0,1-.868,2.3Zm-4.48,2.73a10.58,10.58,0,0,1-.826,3.276,5.47,5.47,0,0,1,.994.49,12.963,12.963,0,0,0,.938-3.57Zm3.584-.952a5.468,5.468,0,0,1,.224.756l.952-.42a10.854,10.854,0,0,0-1.274-2.9l-.882.364c.2.35.392.742.574,1.134-.6.042-1.19.07-1.75.084.91-1.176,1.918-2.7,2.7-3.976l-1.078-.49c-.35.714-.826,1.568-1.33,2.394a10.121,10.121,0,0,0-.672-.77c.5-.77,1.092-1.848,1.582-2.786l-1.148-.448a16.143,16.143,0,0,1-1.148,2.534c-.126-.112-.252-.224-.378-.322l-.63.854a13.206,13.206,0,0,1,1.736,1.96c-.266.392-.546.77-.8,1.106l-.98.028.112,1.148c.63-.042,1.344-.084,2.114-.126v5.684h1.162v-5.754Zm1.176,3.374a16.174,16.174,0,0,0-.882-2.534l-.938.308a14.974,14.974,0,0,1,.826,2.562Zm1.372-3.5c-.084,2.562-.35,4.13-2.52,5a3.3,3.3,0,0,1,.742.966c2.478-1.064,2.912-2.968,3.024-5.964Zm4.088,4.676c-.252,0-.294-.056-.294-.42v-4.27H62.167v4.27c0,1.19.238,1.568,1.3,1.568h1.078c.9,0,1.218-.5,1.3-2.38a3.7,3.7,0,0,1-1.092-.5c-.028,1.5-.084,1.736-.336,1.736ZM-86,342.182c2.282,0,3.822-1.246,3.822-4.606v-5.894h-1.568v6.006c0,2.324-.952,3.08-2.254,3.08s-2.212-.756-2.212-3.08v-6.006h-1.624v5.894C-89.831,340.936-88.277,342.182-86,342.182Zm9.268,0c2.254,0,3.626-1.344,3.626-3a2.877,2.877,0,0,0-2.1-2.786l-1.414-.6c-.84-.336-1.666-.672-1.666-1.568,0-.812.686-1.316,1.736-1.316a3.282,3.282,0,0,1,2.268.924l.854-1.036a4.414,4.414,0,0,0-3.122-1.3c-1.96,0-3.388,1.218-3.388,2.842a2.964,2.964,0,0,0,2.1,2.7l1.428.616c.952.42,1.652.714,1.652,1.652,0,.868-.7,1.456-1.946,1.456a4,4,0,0,1-2.744-1.218l-.952,1.12A5.141,5.141,0,0,0-76.727,342.182Zm5.572-.182h3.444c2.282,0,3.948-.98,3.948-3.024a2.366,2.366,0,0,0-2.03-2.45v-.07a2.292,2.292,0,0,0,1.47-2.226c0-1.862-1.526-2.548-3.64-2.548h-3.192Zm1.624-6.006v-3.038H-68.1c1.456,0,2.184.406,2.184,1.484,0,.966-.658,1.554-2.226,1.554Zm0,4.732v-3.514h1.638c1.638,0,2.534.518,2.534,1.68,0,1.26-.924,1.834-2.534,1.834Zm10.108,1.456c1.89,0,3.444-1.064,3.444-2.87a2.572,2.572,0,0,0-2.128-2.52v-.07a2.416,2.416,0,0,0,1.778-2.338c0-1.652-1.3-2.6-3.15-2.6a4.293,4.293,0,0,0-2.954,1.26l.84,1.008a2.9,2.9,0,0,1,2.058-.98,1.4,1.4,0,0,1,1.582,1.442c0,.966-.672,1.708-2.7,1.708v1.19c2.324,0,3.052.714,3.052,1.82,0,1.008-.8,1.638-1.96,1.638A3.33,3.33,0,0,1-62,339.732l-.784,1.036A4.277,4.277,0,0,0-59.423,342.182Zm6.314,0a1.071,1.071,0,0,0,1.078-1.12,1.087,1.087,0,0,0-1.078-1.148,1.087,1.087,0,0,0-1.078,1.148A1.071,1.071,0,0,0-53.109,342.182Zm3.29-.182h5.88v-1.33h-2.016v-8.694h-1.218a6.067,6.067,0,0,1-2.24.784v1.022h1.848v6.888h-2.254Zm12.334.182a4.629,4.629,0,0,0,3.262-1.2v-4.466h-3.514v1.33h2.044v2.422a2.555,2.555,0,0,1-1.624.5c-2.128,0-3.262-1.5-3.262-3.948,0-2.422,1.274-3.906,3.192-3.906a2.842,2.842,0,0,1,2.142.924l.868-1.036a4.111,4.111,0,0,0-3.066-1.3c-2.73,0-4.8,2.016-4.8,5.376S-40.229,342.182-37.485,342.182Zm8.68,0a4.671,4.671,0,0,0,2.6-.812l-.56-1.022a3.269,3.269,0,0,1-1.834.574,2.325,2.325,0,0,1-2.38-2.352h5a4.174,4.174,0,0,0,.084-.826c0-2.17-1.106-3.64-3.15-3.64a3.743,3.743,0,0,0-3.514,4.046A3.7,3.7,0,0,0-28.805,342.182Zm-2.184-4.732a2.085,2.085,0,0,1,1.974-2.086c1.12,0,1.722.77,1.722,2.086ZM-24.1,342h1.61v-5.46a2.58,2.58,0,0,1,1.876-1.05c.91,0,1.3.532,1.3,1.862V342h1.61v-4.844c0-1.96-.728-3.052-2.366-3.052a3.669,3.669,0,0,0-2.548,1.26h-.042l-.126-1.064H-24.1Zm8.722,0H-9.5v-1.33h-2.016v-8.694h-1.218a6.067,6.067,0,0,1-2.24.784v1.022h1.848v6.888h-2.254Zm13.384,0H-.371v-8.946H2.667v-1.372H-5.019v1.372h3.024Zm6.174,3.22c1.624,0,2.436-1.106,3.038-2.758l2.828-8.162H8.477l-1.232,3.962c-.2.7-.406,1.47-.6,2.17h-.07c-.238-.714-.476-1.484-.7-2.17L4.445,334.3H2.793l3.052,7.644-.154.532c-.28.826-.77,1.442-1.61,1.442a2.086,2.086,0,0,1-.56-.112l-.308,1.26A2.738,2.738,0,0,0,4.179,345.22Zm7.266-.1h1.61V342.63L13,341.314a3.175,3.175,0,0,0,2.03.868c1.736,0,3.318-1.512,3.318-4.158,0-2.366-1.092-3.92-3.038-3.92a3.906,3.906,0,0,0-2.38,1.036h-.042l-.126-.84H11.445Zm3.276-4.27a2.578,2.578,0,0,1-1.666-.7v-3.766a2.652,2.652,0,0,1,1.82-.938c1.288,0,1.806.994,1.806,2.6C16.681,339.858,15.841,340.852,14.721,340.852Zm8.75,1.33a4.671,4.671,0,0,0,2.6-.812l-.56-1.022a3.269,3.269,0,0,1-1.834.574,2.325,2.325,0,0,1-2.38-2.352h5a4.174,4.174,0,0,0,.084-.826c0-2.17-1.106-3.64-3.15-3.64a3.743,3.743,0,0,0-3.514,4.046A3.7,3.7,0,0,0,23.471,342.182Zm-2.184-4.732a2.085,2.085,0,0,1,1.974-2.086c1.12,0,1.722.77,1.722,2.086Zm6.482,1.19h3.7v-1.19h-3.7Zm9.716,3.542a4.069,4.069,0,0,0,3.206-1.484l-.868-1.022a2.981,2.981,0,0,1-2.282,1.092c-1.82,0-2.968-1.5-2.968-3.948,0-2.422,1.232-3.906,3.01-3.906a2.741,2.741,0,0,1,2.016.924l.882-1.036a3.971,3.971,0,0,0-2.926-1.3c-2.6,0-4.648,2.016-4.648,5.376S34.9,342.182,37.485,342.182Zm14.406-.924.826-.812-3.738-3.738,3.738-3.724-.826-.826L48.167,335.9l-3.724-3.738-.84.826,3.738,3.724L43.6,340.446l.826.812,3.738-3.724Zm4.466.742h5.88v-1.33H60.221v-8.694H59a6.067,6.067,0,0,1-2.24.784v1.022h1.848v6.888H56.357ZM66.8,339.354a10.849,10.849,0,0,1-3.15,2.6,8.611,8.611,0,0,1,1.19.91,16.371,16.371,0,0,0,3.3-3.024Zm9.786-.56a22.181,22.181,0,0,0-3.36-3.3l-1.064.686c.42.364.868.77,1.316,1.19-1.568.042-3.136.07-4.62.1a48.213,48.213,0,0,0,4.7-4.186l-1.26-.686a32.629,32.629,0,0,1-3.276,3.22,14.863,14.863,0,0,0-1.358-1.05,26.847,26.847,0,0,0,2.352-2.492l-.112-.056a49.37,49.37,0,0,0,5.558-.686l-.924-1.106a69.3,69.3,0,0,1-10.192.868,4.746,4.746,0,0,1,.308,1.162c1.148-.014,2.366-.056,3.6-.126a21.38,21.38,0,0,1-1.582,1.778c-.28-.182-.56-.35-.826-.5l-.9.826a19.987,19.987,0,0,1,3.052,2.24c-.378.294-.742.574-1.092.826-1.12.014-2.142.028-3,.028l.14,1.316c1.47-.028,3.346-.07,5.362-.14v4.41h1.372v-4.452c1.246-.028,2.534-.07,3.794-.126a10.614,10.614,0,0,1,.826,1.036Zm-4.634,1.218a22.957,22.957,0,0,1,3.318,2.828l1.162-.84a25.8,25.8,0,0,0-3.4-2.716Zm10.864-4.48.112,1.2,6.034-.462a7.592,7.592,0,0,1,.546,1.036l1.092-.588a16.045,16.045,0,0,0-2.184-3.192l-1.008.532c.28.35.574.742.854,1.134-1.008.07-2.016.14-2.94.2.336-.686.686-1.5,1.008-2.226h4.032V331.99H87.1v-1.736H85.785v1.736H82.761v1.176h2.1a16.567,16.567,0,0,1-.868,2.3Zm-4.48,2.73a10.58,10.58,0,0,1-.826,3.276,5.47,5.47,0,0,1,.994.49,12.963,12.963,0,0,0,.938-3.57Zm3.584-.952a5.468,5.468,0,0,1,.224.756l.952-.42a10.854,10.854,0,0,0-1.274-2.9l-.882.364c.2.35.392.742.574,1.134-.6.042-1.19.07-1.75.084.91-1.176,1.918-2.7,2.7-3.976l-1.078-.49c-.35.714-.826,1.568-1.33,2.394a10.121,10.121,0,0,0-.672-.77c.5-.77,1.092-1.848,1.582-2.786l-1.148-.448a16.144,16.144,0,0,1-1.148,2.534c-.126-.112-.252-.224-.378-.322l-.63.854a13.206,13.206,0,0,1,1.736,1.96c-.266.392-.546.77-.8,1.106l-.98.028.112,1.148c.63-.042,1.344-.084,2.114-.126v5.684h1.162v-5.754Zm1.176,3.374a16.174,16.174,0,0,0-.882-2.534l-.938.308a14.973,14.973,0,0,1,.826,2.562Zm1.372-3.5c-.084,2.562-.35,4.13-2.52,5a3.3,3.3,0,0,1,.742.966c2.478-1.064,2.912-2.968,3.024-5.964Zm4.088,4.676c-.252,0-.294-.056-.294-.42v-4.27H87.045v4.27c0,1.19.238,1.568,1.3,1.568h1.078c.9,0,1.218-.5,1.3-2.38a3.7,3.7,0,0,1-1.092-.5c-.028,1.5-.084,1.736-.336,1.736ZM-16.786,380h5.88v-1.33h-2.016v-8.988H-14.14a6.06,6.06,0,0,1-2.24.8V371.5h1.848v7.168h-2.254Zm10.444-2.646a10.849,10.849,0,0,1-3.15,2.6,8.611,8.611,0,0,1,1.19.91A16.371,16.371,0,0,0-5,377.844Zm9.786-.56a22.181,22.181,0,0,0-3.36-3.3l-1.064.686c.42.364.868.77,1.316,1.19-1.568.042-3.136.07-4.62.1a48.213,48.213,0,0,0,4.7-4.186l-1.26-.686a32.63,32.63,0,0,1-3.276,3.22,14.864,14.864,0,0,0-1.358-1.05,26.847,26.847,0,0,0,2.352-2.492l-.112-.056a49.37,49.37,0,0,0,5.558-.686L1.4,368.422a69.3,69.3,0,0,1-10.192.868,4.746,4.746,0,0,1,.308,1.162c1.148-.014,2.366-.056,3.6-.126A21.38,21.38,0,0,1-6.468,372.1c-.28-.182-.56-.35-.826-.5l-.9.826a19.987,19.987,0,0,1,3.052,2.24c-.378.294-.742.574-1.092.826-1.12.014-2.142.028-3,.028l.14,1.316c1.47-.028,3.346-.07,5.362-.14v4.41h1.372v-4.452c1.246-.028,2.534-.07,3.794-.126a10.613,10.613,0,0,1,.826,1.036Zm-4.634,1.218a22.957,22.957,0,0,1,3.318,2.828L3.29,380a25.8,25.8,0,0,0-3.4-2.716Zm10.864-4.48.112,1.2,6.034-.462a7.591,7.591,0,0,1,.546,1.036l1.092-.588a16.045,16.045,0,0,0-2.184-3.192l-1.008.532c.28.35.574.742.854,1.134-1.008.07-2.016.14-2.94.2.336-.686.686-1.5,1.008-2.226H17.22V369.99H13.958v-1.736H12.642v1.736H9.618v1.176h2.1a16.567,16.567,0,0,1-.868,2.3Zm-4.48,2.73a10.58,10.58,0,0,1-.826,3.276,5.47,5.47,0,0,1,.994.49,12.963,12.963,0,0,0,.938-3.57Zm3.584-.952a5.468,5.468,0,0,1,.224.756l.952-.42a10.854,10.854,0,0,0-1.274-2.9l-.882.364c.2.35.392.742.574,1.134-.6.042-1.19.07-1.75.084.91-1.176,1.918-2.7,2.7-3.976l-1.078-.49c-.35.714-.826,1.568-1.33,2.394a10.121,10.121,0,0,0-.672-.77c.5-.77,1.092-1.848,1.582-2.786l-1.148-.448a16.143,16.143,0,0,1-1.148,2.534c-.126-.112-.252-.224-.378-.322l-.63.854a13.206,13.206,0,0,1,1.736,1.96c-.266.392-.546.77-.8,1.106l-.98.028.112,1.148c.63-.042,1.344-.084,2.114-.126v5.684H7.868v-5.754Zm1.176,3.374a16.174,16.174,0,0,0-.882-2.534l-.938.308a14.974,14.974,0,0,1,.826,2.562Zm1.372-3.5c-.084,2.562-.35,4.13-2.52,5a3.3,3.3,0,0,1,.742.966c2.478-1.064,2.912-2.968,3.024-5.964Zm4.088,4.676c-.252,0-.294-.056-.294-.42v-4.27H13.9v4.27c0,1.19.238,1.568,1.3,1.568h1.078c.9,0,1.218-.5,1.3-2.38a3.7,3.7,0,0,1-1.092-.5c-.028,1.5-.084,1.736-.336,1.736ZM-16.786,418h5.88v-1.33h-2.016v-8.988H-14.14a6.06,6.06,0,0,1-2.24.8V409.5h1.848v7.168h-2.254Zm10.444-2.646a10.849,10.849,0,0,1-3.15,2.6,8.611,8.611,0,0,1,1.19.91A16.371,16.371,0,0,0-5,415.844Zm9.786-.56a22.181,22.181,0,0,0-3.36-3.3l-1.064.686c.42.364.868.77,1.316,1.19-1.568.042-3.136.07-4.62.1a48.213,48.213,0,0,0,4.7-4.186l-1.26-.686a32.63,32.63,0,0,1-3.276,3.22,14.864,14.864,0,0,0-1.358-1.05,26.847,26.847,0,0,0,2.352-2.492l-.112-.056a49.37,49.37,0,0,0,5.558-.686L1.4,406.422a69.3,69.3,0,0,1-10.192.868,4.746,4.746,0,0,1,.308,1.162c1.148-.014,2.366-.056,3.6-.126A21.38,21.38,0,0,1-6.468,410.1c-.28-.182-.56-.35-.826-.5l-.9.826a19.987,19.987,0,0,1,3.052,2.24c-.378.294-.742.574-1.092.826-1.12.014-2.142.028-3,.028l.14,1.316c1.47-.028,3.346-.07,5.362-.14v4.41h1.372v-4.452c1.246-.028,2.534-.07,3.794-.126a10.613,10.613,0,0,1,.826,1.036Zm-4.634,1.218a22.957,22.957,0,0,1,3.318,2.828L3.29,418a25.8,25.8,0,0,0-3.4-2.716Zm10.864-4.48.112,1.2,6.034-.462a7.591,7.591,0,0,1,.546,1.036l1.092-.588a16.045,16.045,0,0,0-2.184-3.192l-1.008.532c.28.35.574.742.854,1.134-1.008.07-2.016.14-2.94.2.336-.686.686-1.5,1.008-2.226H17.22V407.99H13.958v-1.736H12.642v1.736H9.618v1.176h2.1a16.567,16.567,0,0,1-.868,2.3Zm-4.48,2.73a10.58,10.58,0,0,1-.826,3.276,5.47,5.47,0,0,1,.994.49,12.963,12.963,0,0,0,.938-3.57Zm3.584-.952a5.468,5.468,0,0,1,.224.756l.952-.42a10.854,10.854,0,0,0-1.274-2.9l-.882.364c.2.35.392.742.574,1.134-.6.042-1.19.07-1.75.084.91-1.176,1.918-2.7,2.7-3.976l-1.078-.49c-.35.714-.826,1.568-1.33,2.394a10.121,10.121,0,0,0-.672-.77c.5-.77,1.092-1.848,1.582-2.786l-1.148-.448a16.143,16.143,0,0,1-1.148,2.534c-.126-.112-.252-.224-.378-.322l-.63.854a13.206,13.206,0,0,1,1.736,1.96c-.266.392-.546.77-.8,1.106l-.98.028.112,1.148c.63-.042,1.344-.084,2.114-.126v5.684H7.868v-5.754Zm1.176,3.374a16.174,16.174,0,0,0-.882-2.534l-.938.308a14.974,14.974,0,0,1,.826,2.562Zm1.372-3.5c-.084,2.562-.35,4.13-2.52,5a3.3,3.3,0,0,1,.742.966c2.478-1.064,2.912-2.968,3.024-5.964Zm4.088,4.676c-.252,0-.294-.056-.294-.42v-4.27H13.9v4.27c0,1.19.238,1.568,1.3,1.568h1.078c.9,0,1.218-.5,1.3-2.38a3.7,3.7,0,0,1-1.092-.5c-.028,1.5-.084,1.736-.336,1.736ZM-16.786,456h5.88v-1.33h-2.016v-8.988H-14.14a6.06,6.06,0,0,1-2.24.8V447.5h1.848v7.168h-2.254Zm10.444-2.646a10.849,10.849,0,0,1-3.15,2.6,8.611,8.611,0,0,1,1.19.91A16.371,16.371,0,0,0-5,453.844Zm9.786-.56a22.181,22.181,0,0,0-3.36-3.3l-1.064.686c.42.364.868.77,1.316,1.19-1.568.042-3.136.07-4.62.1a48.213,48.213,0,0,0,4.7-4.186l-1.26-.686a32.63,32.63,0,0,1-3.276,3.22,14.864,14.864,0,0,0-1.358-1.05,26.847,26.847,0,0,0,2.352-2.492l-.112-.056a49.37,49.37,0,0,0,5.558-.686L1.4,444.422a69.3,69.3,0,0,1-10.192.868,4.746,4.746,0,0,1,.308,1.162c1.148-.014,2.366-.056,3.6-.126A21.38,21.38,0,0,1-6.468,448.1c-.28-.182-.56-.35-.826-.5l-.9.826a19.987,19.987,0,0,1,3.052,2.24c-.378.294-.742.574-1.092.826-1.12.014-2.142.028-3,.028l.14,1.316c1.47-.028,3.346-.07,5.362-.14v4.41h1.372v-4.452c1.246-.028,2.534-.07,3.794-.126a10.613,10.613,0,0,1,.826,1.036Zm-4.634,1.218a22.957,22.957,0,0,1,3.318,2.828L3.29,456a25.8,25.8,0,0,0-3.4-2.716Zm10.864-4.48.112,1.2,6.034-.462a7.591,7.591,0,0,1,.546,1.036l1.092-.588a16.045,16.045,0,0,0-2.184-3.192l-1.008.532c.28.35.574.742.854,1.134-1.008.07-2.016.14-2.94.2.336-.686.686-1.5,1.008-2.226H17.22V445.99H13.958v-1.736H12.642v1.736H9.618v1.176h2.1a16.567,16.567,0,0,1-.868,2.3Zm-4.48,2.73a10.58,10.58,0,0,1-.826,3.276,5.47,5.47,0,0,1,.994.49,12.963,12.963,0,0,0,.938-3.57Zm3.584-.952a5.468,5.468,0,0,1,.224.756l.952-.42a10.854,10.854,0,0,0-1.274-2.9l-.882.364c.2.35.392.742.574,1.134-.6.042-1.19.07-1.75.084.91-1.176,1.918-2.7,2.7-3.976l-1.078-.49c-.35.714-.826,1.568-1.33,2.394a10.121,10.121,0,0,0-.672-.77c.5-.77,1.092-1.848,1.582-2.786l-1.148-.448a16.143,16.143,0,0,1-1.148,2.534c-.126-.112-.252-.224-.378-.322l-.63.854a13.206,13.206,0,0,1,1.736,1.96c-.266.392-.546.77-.8,1.106l-.98.028.112,1.148c.63-.042,1.344-.084,2.114-.126v5.684H7.868v-5.754Zm1.176,3.374a16.174,16.174,0,0,0-.882-2.534l-.938.308a14.974,14.974,0,0,1,.826,2.562Zm1.372-3.5c-.084,2.562-.35,4.13-2.52,5a3.3,3.3,0,0,1,.742.966c2.478-1.064,2.912-2.968,3.024-5.964Zm4.088,4.676c-.252,0-.294-.056-.294-.42v-4.27H13.9v4.27c0,1.19.238,1.568,1.3,1.568h1.078c.9,0,1.218-.5,1.3-2.38a3.7,3.7,0,0,1-1.092-.5c-.028,1.5-.084,1.736-.336,1.736ZM-16.786,494h5.88v-1.33h-2.016v-8.988H-14.14a6.06,6.06,0,0,1-2.24.8V485.5h1.848v7.168h-2.254Zm10.444-2.646a10.849,10.849,0,0,1-3.15,2.6,8.611,8.611,0,0,1,1.19.91A16.371,16.371,0,0,0-5,491.844Zm9.786-.56a22.181,22.181,0,0,0-3.36-3.3l-1.064.686c.42.364.868.77,1.316,1.19-1.568.042-3.136.07-4.62.1a48.213,48.213,0,0,0,4.7-4.186l-1.26-.686a32.63,32.63,0,0,1-3.276,3.22,14.864,14.864,0,0,0-1.358-1.05,26.847,26.847,0,0,0,2.352-2.492l-.112-.056a49.37,49.37,0,0,0,5.558-.686L1.4,482.422a69.3,69.3,0,0,1-10.192.868,4.746,4.746,0,0,1,.308,1.162c1.148-.014,2.366-.056,3.6-.126A21.38,21.38,0,0,1-6.468,486.1c-.28-.182-.56-.35-.826-.5l-.9.826a19.987,19.987,0,0,1,3.052,2.24c-.378.294-.742.574-1.092.826-1.12.014-2.142.028-3,.028l.14,1.316c1.47-.028,3.346-.07,5.362-.14v4.41h1.372v-4.452c1.246-.028,2.534-.07,3.794-.126a10.613,10.613,0,0,1,.826,1.036Zm-4.634,1.218a22.957,22.957,0,0,1,3.318,2.828L3.29,494a25.8,25.8,0,0,0-3.4-2.716Zm10.864-4.48.112,1.2,6.034-.462a7.591,7.591,0,0,1,.546,1.036l1.092-.588a16.045,16.045,0,0,0-2.184-3.192l-1.008.532c.28.35.574.742.854,1.134-1.008.07-2.016.14-2.94.2.336-.686.686-1.5,1.008-2.226H17.22V483.99H13.958v-1.736H12.642v1.736H9.618v1.176h2.1a16.567,16.567,0,0,1-.868,2.3Zm-4.48,2.73a10.58,10.58,0,0,1-.826,3.276,5.47,5.47,0,0,1,.994.49,12.963,12.963,0,0,0,.938-3.57Zm3.584-.952a5.468,5.468,0,0,1,.224.756l.952-.42a10.854,10.854,0,0,0-1.274-2.9l-.882.364c.2.35.392.742.574,1.134-.6.042-1.19.07-1.75.084.91-1.176,1.918-2.7,2.7-3.976l-1.078-.49c-.35.714-.826,1.568-1.33,2.394a10.121,10.121,0,0,0-.672-.77c.5-.77,1.092-1.848,1.582-2.786l-1.148-.448a16.143,16.143,0,0,1-1.148,2.534c-.126-.112-.252-.224-.378-.322l-.63.854a13.206,13.206,0,0,1,1.736,1.96c-.266.392-.546.77-.8,1.106l-.98.028.112,1.148c.63-.042,1.344-.084,2.114-.126v5.684H7.868v-5.754Zm1.176,3.374a16.174,16.174,0,0,0-.882-2.534l-.938.308a14.974,14.974,0,0,1,.826,2.562Zm1.372-3.5c-.084,2.562-.35,4.13-2.52,5a3.3,3.3,0,0,1,.742.966c2.478-1.064,2.912-2.968,3.024-5.964Zm4.088,4.676c-.252,0-.294-.056-.294-.42v-4.27H13.9v4.27c0,1.19.238,1.568,1.3,1.568h1.078c.9,0,1.218-.5,1.3-2.38a3.7,3.7,0,0,1-1.092-.5c-.028,1.5-.084,1.736-.336,1.736Z" transform="translate(969 1831)" fill="#0a0a0a"/>
    <path id="パス_6878" data-name="パス 6878" d="M4.886-8.008a18.741,18.741,0,0,1-.77,3.248c-.672-.812-1.372-1.624-2.044-2.324l-.91.742A36.383,36.383,0,0,1,3.556-3.43,8.147,8.147,0,0,1,.448-.014,7.216,7.216,0,0,1,1.33.994,9.47,9.47,0,0,0,4.354-2.3,14.142,14.142,0,0,1,5.446-.406L6.5-1.288A17.113,17.113,0,0,0,5-3.626,18.98,18.98,0,0,0,6.16-7.84ZM13.4-8.526H11.816v-3.22H10.528v3.22H7.294V-9.52h-2.7v-2.212H3.332V-9.52H.784v1.2H6.86v1.05h3.668V-.588c0,.238-.1.308-.336.308S9.2-.266,8.358-.294a6.018,6.018,0,0,1,.42,1.386A6.612,6.612,0,0,0,11.186.826c.448-.238.63-.616.63-1.414V-7.266H13.4ZM9.478-2.954a10.527,10.527,0,0,0-1.526-3.01l-1.064.5a11.656,11.656,0,0,1,1.47,3.066ZM17-8.778h10.29v-1.26H22.092v-1.708H20.734v1.708h-5.04v3.556c0,2-.1,4.844-1.232,6.832a6.636,6.636,0,0,1,1.106.742C16.786-1.05,17-4.3,17-6.482Zm7.294,2.31A17.424,17.424,0,0,0,21-8.512l-.882.854A17.263,17.263,0,0,1,23.352-5.5Zm-6.244,6.3a12.122,12.122,0,0,0,1.162-4.48l-1.19-.266A10.578,10.578,0,0,1,16.884-.686Zm3.766-.168c-.476,0-.574-.084-.574-.574V-6.048H19.964V-.91c0,1.33.336,1.75,1.652,1.75h1.82C24.668.84,25,.2,25.13-2.128a4.1,4.1,0,0,1-1.148-.532c-.07,1.974-.14,2.324-.644,2.324Zm2.646-4.452a15.435,15.435,0,0,1,1.848,4.62L27.58-.7a14.962,14.962,0,0,0-1.974-4.55Zm6.02-5.306v1.4c.392-.028.812-.042,1.3-.042H33.5v2.7H30.968c-.406,0-1.022-.028-1.414-.07v1.47c.406-.028,1.036-.056,1.414-.056H33.5v2.954c0,1.26.644,2.072,2.954,2.072,1.33,0,2.772-.056,3.794-.126l.084-1.5a30.229,30.229,0,0,1-3.64.2c-1.218,0-1.708-.35-1.708-1.092V-4.69h4.536c.308,0,.868,0,1.232.028L40.74-6.09c-.336.028-.952.056-1.246.056H34.986v-2.7h3.486c.5,0,.854.028,1.2.042v-1.4a9.929,9.929,0,0,1-1.2.056H31.78C31.29-10.038,30.87-10.066,30.478-10.094Zm14.28-.28v1.442c.378-.028.9-.056,1.372-.056h4.718c.448,0,.952.028,1.4.056v-1.442a11.74,11.74,0,0,1-1.4.084H46.116A10.557,10.557,0,0,1,44.758-10.374ZM43.106-6.832v1.456c.392-.028.854-.042,1.274-.042h4.046a6.471,6.471,0,0,1-.84,3.3A5.83,5.83,0,0,1,45-.028l1.288.952A6.846,6.846,0,0,0,49.07-1.694a8.593,8.593,0,0,0,.868-3.724H53.55c.364,0,.84.014,1.176.028V-6.832a8.931,8.931,0,0,1-1.176.07H44.38A12.267,12.267,0,0,1,43.106-6.832Zm9.912-4.606-.9.378a16.71,16.71,0,0,1,1.106,1.932l.924-.392A20.288,20.288,0,0,0,53.018-11.438Zm1.582-.6-.9.378A14.051,14.051,0,0,1,54.852-9.73l.91-.406A17.84,17.84,0,0,0,54.6-12.04ZM63.21-.308l.924.77a4.352,4.352,0,0,1,.532-.35A14.731,14.731,0,0,0,69.44-3.752l-.854-1.2a9.849,9.849,0,0,1-3.808,3.22V-9.478a8.432,8.432,0,0,1,.07-1.12H63.224a10.261,10.261,0,0,1,.084,1.12V-1.19A4.038,4.038,0,0,1,63.21-.308ZM56.756-.434l1.344.9a7.865,7.865,0,0,0,2.492-3.92,30.671,30.671,0,0,0,.434-5.978,10.479,10.479,0,0,1,.07-1.12H59.472a4.363,4.363,0,0,1,.112,1.134,24.275,24.275,0,0,1-.406,5.586A6.48,6.48,0,0,1,56.756-.434ZM5.278,38.182c2.646,0,4.494-2.058,4.494-5.376S7.924,27.5,5.278,27.5.8,29.488.8,32.806,2.632,38.182,5.278,38.182Zm0-1.414c-1.708,0-2.814-1.554-2.814-3.962s1.106-3.892,2.814-3.892,2.828,1.47,2.828,3.892S6.986,36.768,5.278,36.768Zm9.576,1.414c2.254,0,3.626-1.344,3.626-3a2.877,2.877,0,0,0-2.1-2.786l-1.414-.6c-.84-.336-1.666-.672-1.666-1.568,0-.812.686-1.316,1.736-1.316a3.282,3.282,0,0,1,2.268.924l.854-1.036a4.414,4.414,0,0,0-3.122-1.3c-1.96,0-3.388,1.218-3.388,2.842a2.964,2.964,0,0,0,2.1,2.7l1.428.616c.952.42,1.652.714,1.652,1.652,0,.868-.7,1.456-1.946,1.456a4,4,0,0,1-2.744-1.218l-.952,1.12A5.141,5.141,0,0,0,14.854,38.182Zm-9.478,38A4.069,4.069,0,0,0,8.582,74.7l-.868-1.022a2.981,2.981,0,0,1-2.282,1.092c-1.82,0-2.968-1.5-2.968-3.948,0-2.422,1.232-3.906,3.01-3.906a2.741,2.741,0,0,1,2.016.924L8.372,66.8a3.971,3.971,0,0,0-2.926-1.3C2.842,65.5.8,67.516.8,70.876S2.786,76.182,5.376,76.182ZM10.4,76h1.624V72.094H13.58c2.24,0,3.878-1.036,3.878-3.29,0-2.324-1.638-3.122-3.934-3.122H10.4Zm1.624-5.208V67H13.37c1.638,0,2.492.448,2.492,1.806s-.784,1.988-2.436,1.988Zm11.214,5.39c2.282,0,3.822-1.246,3.822-4.606V65.682H25.494v6.006c0,2.324-.952,3.08-2.254,3.08s-2.212-.756-2.212-3.08V65.682H19.4v5.894C19.4,74.936,20.958,76.182,23.24,76.182Zm-11.7,27.584-1.624-.574A9.856,9.856,0,0,1,9.6,104.34a15.487,15.487,0,0,1-1.75,3.612C6.734,107.1,5.18,106.02,4,105.278L3.08,106.4a39.754,39.754,0,0,1,3.864,2.758A15.216,15.216,0,0,1,1.5,113.44l1.232,1.106a17.478,17.478,0,0,0,5.362-4.438,31.233,31.233,0,0,1,3.22,3.164l1.12-1.232a34.289,34.289,0,0,0-3.416-3.164,20.075,20.075,0,0,0,2.016-3.976A10.326,10.326,0,0,1,11.536,103.766Zm4.942.14v1.4c.392-.028.812-.042,1.3-.042H19.5v2.7H16.968c-.406,0-1.022-.028-1.414-.07v1.47c.406-.028,1.036-.056,1.414-.056H19.5v2.954c0,1.26.644,2.072,2.954,2.072,1.33,0,2.772-.056,3.794-.126l.084-1.5a30.229,30.229,0,0,1-3.64.2c-1.218,0-1.708-.35-1.708-1.092V109.31h4.536c.308,0,.868,0,1.232.028l-.014-1.428c-.336.028-.952.056-1.246.056H20.986v-2.7h3.486c.5,0,.854.028,1.2.042v-1.4a9.929,9.929,0,0,1-1.2.056H17.78C17.29,103.962,16.87,103.934,16.478,103.906Zm22.554-.63H37.366a10.825,10.825,0,0,1,.084,1.288v2.408c0,2.45-.182,3.542-1.162,4.662a6.53,6.53,0,0,1-3.36,1.82l1.162,1.218a7.646,7.646,0,0,0,3.346-2.044c1.036-1.176,1.54-2.366,1.54-5.572v-2.492C38.976,104.06,39,103.64,39.032,103.276Zm-6.5.112h-1.61a9.043,9.043,0,0,1,.056,1.036v4.69c0,.406-.042.9-.056,1.134h1.61c-.028-.28-.056-.77-.056-1.134v-4.69C32.48,104.032,32.508,103.682,32.536,103.388ZM11.41,142.578l-.91-.672a4.247,4.247,0,0,1-1.218.14H4.088a14.977,14.977,0,0,1-1.526-.1v1.582c.224-.014.98-.084,1.526-.084H9.226A11.518,11.518,0,0,1,7,147.142a15.731,15.731,0,0,1-5.754,4.1l1.134,1.19A18.378,18.378,0,0,0,7.77,148.4a31.419,31.419,0,0,1,3.71,4.088l1.232-1.092a37.212,37.212,0,0,0-4-4.1,19.162,19.162,0,0,0,2.3-3.99A4.832,4.832,0,0,1,11.41,142.578Zm7.168,8.134a14.656,14.656,0,0,1-.112,1.792h1.722a16.4,16.4,0,0,1-.112-1.792v-4.326a36.657,36.657,0,0,1,5.292,2.184l.63-1.526a47.455,47.455,0,0,0-5.922-2.24V142.62c0-.49.056-1.106.1-1.568H18.452a10.135,10.135,0,0,1,.126,1.568Zm12.362.8,1.036.882a2.9,2.9,0,0,1,.7-.294,16.8,16.8,0,0,0,8.162-5.026l-.8-1.232a15.546,15.546,0,0,1-7.448,4.7v-7.658a9.143,9.143,0,0,1,.112-1.4H30.968a8.285,8.285,0,0,1,.126,1.414v7.826A1.545,1.545,0,0,1,30.94,151.51Zm12.418-5.754v1.736c.476-.042,1.316-.07,2.086-.07H53.06c.616,0,1.26.056,1.568.07v-1.736c-.35.028-.9.084-1.568.084H45.444C44.688,145.84,43.82,145.784,43.358,145.756Zm22.47-4.34-.952.406a12.471,12.471,0,0,1,1.26,2.2l.98-.42A20.4,20.4,0,0,0,65.828,141.416Zm1.876-.672-.966.406a13.6,13.6,0,0,1,1.316,2.156l.98-.434A20.505,20.505,0,0,0,67.7,140.744Zm-7.9.434-.8,1.218c.854.49,2.352,1.47,3.066,1.988l.84-1.2C62.244,142.7,60.676,141.668,59.808,141.178Zm-2.324,9.982.826,1.442a16.079,16.079,0,0,0,10.122-6.748l-.854-1.484a14.3,14.3,0,0,1-5.362,5.194A15.374,15.374,0,0,1,57.484,151.16Zm.182-6.8-.784,1.2a34.758,34.758,0,0,1,3.108,1.96l.812-1.246C60.144,145.812,58.548,144.832,57.666,144.356ZM2.422,190h1.96l1.358-5.726c.168-.812.336-1.582.49-2.366h.056c.14.784.294,1.554.476,2.366L8.148,190h2l2.03-10.318H10.626l-.98,5.376c-.168,1.078-.35,2.184-.518,3.3h-.07c-.238-1.12-.462-2.226-.7-3.3l-1.33-5.376H5.586l-1.33,5.376c-.238,1.092-.476,2.2-.7,3.3H3.5c-.182-1.106-.364-2.212-.546-3.3l-.966-5.376H.322Zm11.312,0h1.61v-7.7h-1.61Zm.8-9.142a.96.96,0,1,0,0-1.918.96.96,0,1,0,0,1.918Zm2.66,5.782h3.7v-1.19h-3.7Zm5.7,3.36h1.624v-4.438h3.808V184.2H24.514v-3.15h4.48v-1.372h-6.1Zm7.784,0h1.61v-7.7h-1.61Zm.8-9.142a.96.96,0,1,0,0-1.918.96.96,0,1,0,0,1.918Z" transform="translate(641 1831)" fill="#0a0a0a"/>
    <path id="パス_6879" data-name="パス 6879" d="M3.234-10.934v1.316H6.566a15.47,15.47,0,0,0,.182,1.666l-.714-.126C5.222-4.284,3.528-1.526.518.028a9.957,9.957,0,0,1,1.2,1.05A12.347,12.347,0,0,0,7.1-6.3,11.878,11.878,0,0,0,12.46,1.05,6.578,6.578,0,0,1,13.51-.056C8.176-3.206,7.854-8.4,7.854-10.934ZM20.958-8.778v-2.94H19.586v2.94h-4.41v1.33h4.34A8.986,8.986,0,0,1,14.756.126a5.5,5.5,0,0,1,1.008,1.05A10.134,10.134,0,0,0,20.9-7.448h4.382c-.238,4.578-.532,6.5-1.008,6.944a.786.786,0,0,1-.644.21c-.35,0-1.2,0-2.128-.084A3.28,3.28,0,0,1,21.966.966a16.674,16.674,0,0,0,2.226,0A1.7,1.7,0,0,0,25.48.322c.616-.714.882-2.786,1.19-8.456.014-.182.028-.644.028-.644ZM40.936-11.06H39.69v2.268H37.926v-2.926H36.68v2.926H35.028V-11.06h-1.19v3.4h7.1Zm-7.8,2.03H31.57v-2.534H30.408V-9.03H28.742v1.176h4.4ZM30.52-3.066a22.509,22.509,0,0,0-.56-4.312l-.966.168a26.152,26.152,0,0,1,.476,4.326Zm1.5.462c.322-1.26.644-3.15.91-4.648l-1.2-.238A41.768,41.768,0,0,1,31-2.576l.406.1c-1.106.252-2.142.462-2.926.616L28.77-.588c1.33-.336,3.08-.756,4.732-1.19l-.14-1.134Zm9.38-3V-6.748h-8.12V-5.6h3.248c-.07.392-.154.784-.238,1.148H33.656v5.53h1.176V-3.346H35.84V.938h.994V-3.346H37.9V.91h1.008V-3.346h1.05V-.084c0,.126-.028.168-.14.168s-.42,0-.784-.014a3.624,3.624,0,0,1,.35,1.036A2.678,2.678,0,0,0,40.74.91c.308-.168.392-.476.392-.98V-4.452H37.576c.126-.364.266-.756.406-1.148Zm13.944-.014H49.7V-6.776a21,21,0,0,0,4.508-3.388l-.98-.742-.294.084H44.128v1.274h7.434A16.377,16.377,0,0,1,49.1-7.84h-.756v2.226H42.686v1.3h5.656V-.5c0,.238-.084.308-.378.322-.322,0-1.372.014-2.422-.028a5.488,5.488,0,0,1,.56,1.344A9.645,9.645,0,0,0,48.916.91c.588-.224.784-.6.784-1.4V-4.312h5.642Z" transform="translate(641 2154)" fill="#0a0a0a"/>
    <path id="パス_6880" data-name="パス 6880" d="M11.158-4.7v3.682H7.588V-5.544h4.368v-4.9H10.584V-6.8h-3v-4.844H6.258V-6.8H3.4V-10.43H2.1v4.886H6.258v4.522H2.884V-4.7H1.568v5.81H2.884V.252h8.274v.826H12.5V-4.7Zm9.8-4.074v-2.94H19.586v2.94h-4.41v1.33h4.34A8.986,8.986,0,0,1,14.756.126a5.5,5.5,0,0,1,1.008,1.05A10.134,10.134,0,0,0,20.9-7.448h4.382c-.238,4.578-.532,6.5-1.008,6.944a.786.786,0,0,1-.644.21c-.35,0-1.2,0-2.128-.084A3.28,3.28,0,0,1,21.966.966a16.674,16.674,0,0,0,2.226,0A1.7,1.7,0,0,0,25.48.322c.616-.714.882-2.786,1.19-8.456.014-.182.028-.644.028-.644ZM40.936-11.06H39.69v2.268H37.926v-2.926H36.68v2.926H35.028V-11.06h-1.19v3.4h7.1Zm-7.8,2.03H31.57v-2.534H30.408V-9.03H28.742v1.176h4.4ZM30.52-3.066a22.509,22.509,0,0,0-.56-4.312l-.966.168a26.152,26.152,0,0,1,.476,4.326Zm1.5.462c.322-1.26.644-3.15.91-4.648l-1.2-.238A41.768,41.768,0,0,1,31-2.576l.406.1c-1.106.252-2.142.462-2.926.616L28.77-.588c1.33-.336,3.08-.756,4.732-1.19l-.14-1.134Zm9.38-3V-6.748h-8.12V-5.6h3.248c-.07.392-.154.784-.238,1.148H33.656v5.53h1.176V-3.346H35.84V.938h.994V-3.346H37.9V.91h1.008V-3.346h1.05V-.084c0,.126-.028.168-.14.168s-.42,0-.784-.014a3.624,3.624,0,0,1,.35,1.036A2.678,2.678,0,0,0,40.74.91c.308-.168.392-.476.392-.98V-4.452H37.576c.126-.364.266-.756.406-1.148Zm13.944-.014H49.7V-6.776a21,21,0,0,0,4.508-3.388l-.98-.742-.294.084H44.128v1.274h7.434A16.377,16.377,0,0,1,49.1-7.84h-.756v2.226H42.686v1.3h5.656V-.5c0,.238-.084.308-.378.322-.322,0-1.372.014-2.422-.028a5.488,5.488,0,0,1,.56,1.344A9.645,9.645,0,0,0,48.916.91c.588-.224.784-.6.784-1.4V-4.312h5.642Z" transform="translate(641 2306)" fill="#0a0a0a"/>
    <path id="パス_6881" data-name="パス 6881" d="M1.358,0H7.35V-1.372H2.982v-8.946H1.358Zm9.786-5.6c.336-1.12.658-2.254.952-3.43h.07c.308,1.162.616,2.31.966,3.43l.406,1.386H10.724ZM7.812,0H9.464l.882-2.94H13.93L14.8,0H16.52L13.1-10.318H11.228ZM17.878,0h1.54V-4.858c0-1.12-.126-2.31-.21-3.374h.07l1.078,2.156L23.772,0h1.666V-10.318H23.9V-5.5c0,1.12.126,2.366.21,3.43h-.07L22.96-4.256l-3.416-6.062H17.878Zm-7.84,33.982v1.232H4.116V33.982ZM4.116,37.524v-1.3h5.922v1.3Zm-1.3,1.582h1.3v-.49h5.922v.462H11.41v-6.2h-8.6ZM9.338,28.62a13.88,13.88,0,0,1-.8,1.9l.616.154H4.872l.672-.154a6.462,6.462,0,0,0-.784-1.9Zm.518,2.058c.294-.5.63-1.2.952-1.89l-.784-.168h2.52V27.444H7.658v-1.19H6.286v1.19H1.6V28.62H4.284l-.854.168a7.247,7.247,0,0,1,.742,1.89H.812V31.84H13.2V30.678Zm10.486,2.086v1.848h-3a10.774,10.774,0,0,0,.056-1.134v-.714Zm4.48,1.848H21.6V32.764h3.22Zm1.3-2.912h-10v1.764a6.306,6.306,0,0,1-1.722,4.816,5.15,5.15,0,0,1,1.022.882,6.383,6.383,0,0,0,1.764-3.444h7.63v.714h1.3Zm.868-3.22V27.374H21.616V26.24h-1.3v1.134h-5.32V28.48h5.32v1.148H15.848v1.106H26.376V29.628h-4.76V28.48ZM1.358,76H2.982V71.31h4.41V76H9.016V65.682H7.392V69.9H2.982V65.682H1.358Zm10.36,0h2.758c3.08,0,4.886-1.848,4.886-5.194s-1.806-5.124-4.97-5.124H11.718Zm1.624-1.33V67.012h.938c2.212,0,3.4,1.218,3.4,3.794s-1.19,3.864-3.4,3.864ZM21.5,76H22.96V70.9c0-.924-.126-2.254-.2-3.192h.056l.812,2.38,1.806,4.914h1.008l1.792-4.914.826-2.38h.056c-.084.938-.21,2.268-.21,3.192V76h1.512V65.682H28.546L26.684,70.9c-.238.686-.434,1.386-.672,2.072h-.07c-.238-.686-.448-1.386-.686-2.072l-1.89-5.222H21.5Zm11.62,0h1.624V65.682H33.124ZM10.038,109.982v1.232H4.116v-1.232Zm-5.922,3.542v-1.3h5.922v1.3Zm-1.3,1.582h1.3v-.49h5.922v.462H11.41v-6.2h-8.6ZM9.338,104.62a13.881,13.881,0,0,1-.8,1.9l.616.154H4.872l.672-.154a6.462,6.462,0,0,0-.784-1.9Zm.518,2.058c.294-.5.63-1.2.952-1.89l-.784-.168h2.52v-1.176H7.658v-1.19H6.286v1.19H1.6v1.176H4.284l-.854.168a7.247,7.247,0,0,1,.742,1.89H.812v1.162H13.2v-1.162Zm10.486,2.086v1.848h-3a10.774,10.774,0,0,0,.056-1.134v-.714Zm4.48,1.848H21.6v-1.848h3.22Zm1.3-2.912h-10v1.764a6.306,6.306,0,0,1-1.722,4.816,5.15,5.15,0,0,1,1.022.882,6.383,6.383,0,0,0,1.764-3.444h7.63v.714h1.3Zm.868-3.22v-1.106H21.616V102.24h-1.3v1.134h-5.32v1.106h5.32v1.148H15.848v1.106H26.376v-1.106h-4.76V104.48Z" transform="translate(731 2211)" fill="#0a0a0a"/>
    <path id="パス_6882" data-name="パス 6882" d="M5.138.182C7.42.182,8.96-1.064,8.96-4.424v-5.894H7.392v6.006c0,2.324-.952,3.08-2.254,3.08s-2.212-.756-2.212-3.08v-6.006H1.3v5.894C1.3-1.064,2.856.182,5.138.182Zm9.268,0c2.254,0,3.626-1.344,3.626-3a2.877,2.877,0,0,0-2.1-2.786l-1.414-.6c-.84-.336-1.666-.672-1.666-1.568,0-.812.686-1.316,1.736-1.316a3.282,3.282,0,0,1,2.268.924L17.71-9.2a4.414,4.414,0,0,0-3.122-1.3c-1.96,0-3.388,1.218-3.388,2.842a2.964,2.964,0,0,0,2.1,2.7l1.428.616c.952.42,1.652.714,1.652,1.652,0,.868-.7,1.456-1.946,1.456A4,4,0,0,1,11.69-2.45l-.952,1.12A5.141,5.141,0,0,0,14.406.182ZM19.978,0h3.444C25.7,0,27.37-.98,27.37-3.024a2.366,2.366,0,0,0-2.03-2.45v-.07A2.292,2.292,0,0,0,26.81-7.77c0-1.862-1.526-2.548-3.64-2.548H19.978ZM21.6-6.006V-9.044H23.03c1.456,0,2.184.406,2.184,1.484,0,.966-.658,1.554-2.226,1.554Zm0,4.732V-4.788H23.24c1.638,0,2.534.518,2.534,1.68,0,1.26-.924,1.834-2.534,1.834Z" transform="translate(731 2116)" fill="#0a0a0a"/>
    <path id="パス_6883" data-name="パス 6883" d="M0,0V304" transform="translate(713 2034)" fill="none" stroke="#cecece" stroke-width="1"/>
  </g>
</svg>
