<svg xmlns="http://www.w3.org/2000/svg" width="315" height="240" viewBox="0 0 315 240">
  <g id="グループ_3984" data-name="グループ 3984" transform="translate(-30 -3376)">
    <path id="パス_6866" data-name="パス 6866" d="M0,0H133V240H0Z" transform="translate(30 3376)" fill="#e4f5f2"/>
    <g id="パス_6867" data-name="パス 6867" transform="translate(30 3376)" fill="none">
      <path d="M0,0H315V240H0Z" stroke="none"/>
      <path d="M 1 1 L 1 239 L 314 239 L 314 1 L 1 1 M 0 0 L 315 0 L 315 240 L 0 240 L 0 0 Z" stroke="none" fill="#cecece"/>
    </g>
    <path id="パス_6868" data-name="パス 6868" d="M4.188-6.864a16.064,16.064,0,0,1-.66,2.784c-.576-.7-1.176-1.392-1.752-1.992L1-5.436a31.185,31.185,0,0,1,2.052,2.5A6.983,6.983,0,0,1,.384-.012,6.185,6.185,0,0,1,1.14.852a8.117,8.117,0,0,0,2.592-2.82,12.122,12.122,0,0,1,.936,1.62l.9-.756a14.669,14.669,0,0,0-1.284-2,16.269,16.269,0,0,0,1-3.612Zm7.3-.444H10.128v-2.76h-1.1v2.76H6.252V-8.16H3.936v-1.9H2.856v1.9H.672v1.032H5.88v.9H9.024V-.5c0,.2-.084.264-.288.264s-.852.012-1.572-.012A5.158,5.158,0,0,1,7.524.936,5.667,5.667,0,0,0,9.588.708c.384-.2.54-.528.54-1.212V-6.228h1.356ZM8.124-2.532a9.023,9.023,0,0,0-1.308-2.58L5.9-4.68a9.991,9.991,0,0,1,1.26,2.628Zm6.444-4.992h8.82V-8.6H18.936v-1.464H17.772V-8.6h-4.32v3.048C13.452-3.84,13.368-1.4,12.4.3a5.688,5.688,0,0,1,.948.636c1.044-1.836,1.224-4.62,1.224-6.492Zm6.252,1.98A14.934,14.934,0,0,0,18-7.3l-.756.732a14.8,14.8,0,0,1,2.772,1.848Zm-5.352,5.4a10.39,10.39,0,0,0,1-3.84l-1.02-.228a9.067,9.067,0,0,1-.972,3.624ZM18.7-.288c-.408,0-.492-.072-.492-.492v-4.4H17.112v4.4c0,1.14.288,1.5,1.416,1.5h1.56c1.056,0,1.344-.552,1.452-2.544a3.511,3.511,0,0,1-.984-.456C20.5-.588,20.436-.288,20-.288ZM20.964-4.1a13.23,13.23,0,0,1,1.584,3.96L23.64-.6a12.825,12.825,0,0,0-1.692-3.9Zm5.16-4.548v1.2c.336-.024.7-.036,1.116-.036h1.476v2.316H26.544c-.348,0-.876-.024-1.212-.06v1.26c.348-.024.888-.048,1.212-.048h2.172v2.532c0,1.08.552,1.776,2.532,1.776C32.388.288,33.624.24,34.5.18L34.572-1.1a25.911,25.911,0,0,1-3.12.168c-1.044,0-1.464-.3-1.464-.936V-4.02h3.888c.264,0,.744,0,1.056.024L34.92-5.22c-.288.024-.816.048-1.068.048H29.988V-7.488h2.988c.432,0,.732.024,1.032.036v-1.2a8.51,8.51,0,0,1-1.032.048H27.24C26.82-8.6,26.46-8.628,26.124-8.652Zm12.24-.24v1.236c.324-.024.768-.048,1.176-.048h4.044c.384,0,.816.024,1.2.048V-8.892a10.063,10.063,0,0,1-1.2.072H39.528A9.049,9.049,0,0,1,38.364-8.892ZM36.948-5.856v1.248c.336-.024.732-.036,1.092-.036h3.468a5.547,5.547,0,0,1-.72,2.832,5,5,0,0,1-2.22,1.788l1.1.816A5.868,5.868,0,0,0,42.06-1.452,7.366,7.366,0,0,0,42.8-4.644h3.1c.312,0,.72.012,1.008.024V-5.856A7.655,7.655,0,0,1,45.9-5.8H38.04A10.515,10.515,0,0,1,36.948-5.856Zm8.5-3.948-.768.324a14.323,14.323,0,0,1,.948,1.656l.792-.336A17.39,17.39,0,0,0,45.444-9.8ZM46.8-10.32,46.032-10a12.044,12.044,0,0,1,.984,1.656l.78-.348A15.292,15.292,0,0,0,46.8-10.32ZM54.18-.264l.792.66a3.73,3.73,0,0,1,.456-.3A12.626,12.626,0,0,0,59.52-3.216l-.732-1.032a8.442,8.442,0,0,1-3.264,2.76V-8.124a7.227,7.227,0,0,1,.06-.96H54.192a8.8,8.8,0,0,1,.072.96v7.1A3.461,3.461,0,0,1,54.18-.264ZM48.648-.372,49.8.4a6.742,6.742,0,0,0,2.136-3.36,26.289,26.289,0,0,0,.372-5.124,8.982,8.982,0,0,1,.06-.96H50.976a3.74,3.74,0,0,1,.1.972,20.807,20.807,0,0,1-.348,4.788A5.555,5.555,0,0,1,48.648-.372ZM9.852,39.16H2.172V32.74H1.08v8.2H2.172v-.72h7.68v.7h1.092V32.74H9.852ZM7.86,35.128H6.444V33.82H7.86Zm0,2.208H6.444v-1.32H7.86Zm-3.792-1.32h1.4v1.32h-1.4Zm0-2.2h1.4v1.308h-1.4ZM.708,30.688V31.72H5.4V32.9H3.132V38.26h5.7V32.9H6.516V31.72h4.776V30.688Zm14.676,7.728a9.545,9.545,0,0,1-2.832,1.6,7.494,7.494,0,0,1,.852.756A12.031,12.031,0,0,0,16.428,38.8ZM23.436,38A14,14,0,0,0,20.6,35.9l-.78.576c.36.216.744.48,1.116.744-1.284.024-2.568.048-3.792.06a29.932,29.932,0,0,0,3.2-2.172l-1-.54a22.11,22.11,0,0,1-2.5,1.9c-.252-.18-.54-.36-.84-.552.552-.384,1.212-.912,1.8-1.416h5.436v-.864H18.528v-.636h3.54v-.828h-3.54v-.636h4.2V30.7h-4.2v-.78H17.412v.78H13.4v.828h4.008v.636h-3.36v.828h3.36v.636H12.768v.864h3.6a10.537,10.537,0,0,1-1.128.972l-.7-.348-.732.624a15.8,15.8,0,0,1,2.136,1.3c-.156.1-.312.18-.468.264-1.008.012-1.92.024-2.676.024l.072.924c1.236-.024,2.82-.048,4.548-.1v2.772h1.1v-2.8c1.14-.024,2.316-.06,3.456-.1a7.362,7.362,0,0,1,.612.6Zm-3.924.984a15.733,15.733,0,0,1,2.82,1.716l.864-.636A14.908,14.908,0,0,0,20.34,38.4Zm9.672-8.856a9.724,9.724,0,0,1-.852,1.548l.744.336c.3-.372.684-.948,1.068-1.488Zm4.464,3.024a13.386,13.386,0,0,1-.864,3.384,16.2,16.2,0,0,1-.924-3.384ZM28.332,37.12a3.752,3.752,0,0,1-.624,1.38c-.408-.2-.84-.384-1.26-.552.144-.264.288-.552.444-.828Zm7.176-3.972V32.092H32.16c.168-.648.3-1.32.42-2l-1.128-.168a11.73,11.73,0,0,1-1.92,5.376,6.346,6.346,0,0,1,.888.78,8.091,8.091,0,0,0,.744-1.224,14.478,14.478,0,0,0,.96,2.88,6.375,6.375,0,0,1-2.268,2.016,12.723,12.723,0,0,0-1.212-.756A4.907,4.907,0,0,0,29.4,37.12h.984V36.2H27.36c.12-.252.24-.492.348-.72l-.324-.072h.6V33.76c.54.408,1.176.912,1.464,1.188l.6-.78c-.3-.216-1.464-.936-2-1.236h2.292v-.9H27.984V29.92H26.952v2.112h-1.2l.792-.348a5.4,5.4,0,0,0-.768-1.5l-.8.336a5.928,5.928,0,0,1,.684,1.512h-1.08v.9h2.076a5.955,5.955,0,0,1-2.244,1.716,4.416,4.416,0,0,1,.588.84,8.533,8.533,0,0,0,1.956-1.572v1.392l-.288-.06c-.132.3-.276.624-.444.948H24.48v.924h1.284c-.324.6-.636,1.176-.9,1.62l.972.3.156-.276c.324.144.636.3.948.456a5.861,5.861,0,0,1-2.424.8,2.348,2.348,0,0,1,.48.924,6.85,6.85,0,0,0,2.916-1.188,8.765,8.765,0,0,1,1.332.924l.4-.408a5.393,5.393,0,0,1,.42.708,7.8,7.8,0,0,0,2.664-2.148,6.456,6.456,0,0,0,2.124,2.1,4.079,4.079,0,0,1,.78-.96,5.624,5.624,0,0,1-2.22-2.184A13.593,13.593,0,0,0,34.8,33.148ZM3.9,76.976V75.764h.9v1.212ZM2.208,75.764H3.12v1.212H2.2c.012-.3.012-.588.012-.864ZM3.78,71.876a10.1,10.1,0,0,1-.444,1.08H2.112c.18-.336.348-.708.5-1.08ZM3.9,73.8h.9v1.14H3.9Zm-1.692,0H3.12v1.14H2.208Zm7.98-2.34c-.06,1.224-.144,1.716-.276,1.86a.323.323,0,0,1-.324.108,8.557,8.557,0,0,1-.972-.048,2.711,2.711,0,0,1,.252.924,7.724,7.724,0,0,0,1.212-.012.9.9,0,0,0,.684-.336c.252-.288.36-1.092.444-3.036.012-.12.012-.384.012-.384H6v.924H7.488A2.911,2.911,0,0,1,5.724,73.82v-.864H4.3a15.406,15.406,0,0,0,.72-1.584l-.648-.408-.156.048H2.952c.1-.288.18-.576.264-.864L2.2,69.92A8.679,8.679,0,0,1,.384,73.664a7.524,7.524,0,0,1,.816.66l.108-.132V76.1A8.38,8.38,0,0,1,.42,80.468a4.4,4.4,0,0,1,.792.492,7.078,7.078,0,0,0,.924-3.132H4.8v1.956c0,.156-.06.2-.216.216s-.648,0-1.224-.012a3.547,3.547,0,0,1,.348.936,4.13,4.13,0,0,0,1.6-.168c.324-.168.42-.48.42-.96V73.928a3.049,3.049,0,0,1,.528.7A3.787,3.787,0,0,0,8.52,71.456ZM11.544,77.8H9.36v-1.3h1.956v-.96H9.36V74.4H8.3v1.152h-.84q.126-.432.216-.864l-.924-.192a6.8,6.8,0,0,1-1.032,2.64,5.088,5.088,0,0,1,.84.444,5.912,5.912,0,0,0,.564-1.068H8.3v1.3H5.928v.972H8.3v2.112H9.36V78.776h2.184Zm3.18-7.824a13.945,13.945,0,0,1-2.472,4.74A8.641,8.641,0,0,1,12.8,75.9a10.71,10.71,0,0,0,.96-1.32v6.36H14.82v-8.3a21.986,21.986,0,0,0,.936-2.364Zm2.34,3.1h1.9V74.24h-1.9ZM19.872,71.5a4.973,4.973,0,0,1-.576.792h-2.16q.342-.4.648-.792ZM22,74.24H19.98V73.076H22Zm.684,1.092a13.485,13.485,0,0,1-1.416,1.212,10.013,10.013,0,0,1-.5-1.536h2.3V72.3H20.508a10.6,10.6,0,0,0,.816-1.2l-.672-.48-.192.06H18.348q.18-.27.324-.54L17.6,69.944A8.238,8.238,0,0,1,15.1,72.8a3.189,3.189,0,0,1,.816.636l.132-.108v1.68h2.1a11.963,11.963,0,0,1-2.8,1.164,7.089,7.089,0,0,1,.636.756,13.91,13.91,0,0,0,2.088-.948c.144.132.288.276.42.42a11.005,11.005,0,0,1-3.048,1.464,3.318,3.318,0,0,1,.528.732A14.091,14.091,0,0,0,18.924,77a4.534,4.534,0,0,1,.3.588,11.9,11.9,0,0,1-3.984,2.2,3.972,3.972,0,0,1,.6.816,14.841,14.841,0,0,0,3.6-2.076,1.459,1.459,0,0,1-.348,1.284.809.809,0,0,1-.66.216c-.228,0-.576-.012-.936-.048a2.2,2.2,0,0,1,.252.948c.324.024.648.024.9.024a1.69,1.69,0,0,0,1.188-.408c.948-.768.948-3.372-1.008-5.016.252-.168.492-.336.72-.516h.264c.54,2.388,1.488,4.4,3.084,5.448a3.7,3.7,0,0,1,.72-.876,5.316,5.316,0,0,1-1.98-2.232,15.239,15.239,0,0,0,1.824-1.356Zm3.84-3.276H35.3v-1H30.936V69.932H29.772V71.06h-4.32v3.384c0,1.74-.084,4.176-1.056,5.88a5.051,5.051,0,0,1,.912.612c1.044-1.824,1.212-4.608,1.212-6.492Zm5.772,2.112v1.056H29.7V74.168Zm1.092,1.92v-1.92H35.22v-.912H33.384v-.912H32.292v.912H29.7v-.912H28.644v.912H26.868v.912h1.776v1.92Zm-.5,1.524a5.531,5.531,0,0,1-1.776,1.3,5.162,5.162,0,0,1-1.74-1.3Zm.936-.936-.2.036H27v.9h1.836l-.54.2a6.388,6.388,0,0,0,1.656,1.548,16.731,16.731,0,0,1-3.432.66,3.421,3.421,0,0,1,.468.936,15.753,15.753,0,0,0,4.08-.984,13.58,13.58,0,0,0,3.8,1,3.973,3.973,0,0,1,.648-.96,15.778,15.778,0,0,1-3.252-.636A5.788,5.788,0,0,0,34.5,77.048ZM10.476,112.02l-.924-.6a3.058,3.058,0,0,1-.768.084H2.964a10.761,10.761,0,0,1-1.3-.1v1.344c.3-.024.78-.048,1.3-.048H8.856a8.286,8.286,0,0,1-1.5,3.684,7.916,7.916,0,0,1-4.692,2.856L3.7,120.372a9.247,9.247,0,0,0,4.776-3.252,11.9,11.9,0,0,0,1.788-4.4A3.646,3.646,0,0,1,10.476,112.02Zm9.456.588H18.684a8.169,8.169,0,0,1,.084.888c.012.24.024.528.036.876H15.336a6.387,6.387,0,0,1-.972-.072v1.188c.312-.024.672-.036,1-.036H18.3a12.114,12.114,0,0,1-4.344,3.468l.828.948a13.694,13.694,0,0,0,4.056-3.384c.012,1.128.024,2.256.024,2.94,0,.24-.1.372-.312.372a11.41,11.41,0,0,1-1.428-.12l.072,1.092c.5.036,1.26.072,1.788.072a.922.922,0,0,0,1.02-.924c-.012-1.176-.048-2.988-.084-4.464h1.608c.252,0,.6.012.84.024V114.3a5.859,5.859,0,0,1-.876.072H19.9c0-.348-.012-.648-.012-.876A5.363,5.363,0,0,1,19.932,112.608Zm5.232,2.04v1.488c.408-.036,1.128-.06,1.788-.06H33.48c.528,0,1.08.048,1.344.06v-1.488c-.3.024-.768.072-1.344.072H26.952C26.3,114.72,25.56,114.672,25.164,114.648Zm17.052-4.164h-1.4a7.632,7.632,0,0,1,.084,1.032q0,.612-.036,1.152H38.928c-.468,0-1.008-.036-1.464-.072v1.248c.456-.036,1.02-.048,1.464-.048h1.824a7.459,7.459,0,0,1-2.2,4.716,6.4,6.4,0,0,1-1.38,1.008l1.1.9c2.064-1.452,3.252-3.288,3.7-6.624h3.072a17.358,17.358,0,0,1-.564,4.848.634.634,0,0,1-.684.408,13.739,13.739,0,0,1-1.74-.144l.144,1.26c.612.048,1.308.084,1.956.084a1.338,1.338,0,0,0,1.392-.816c.528-1.176.684-4.608.72-5.82.012-.144.048-.408.084-.612l-.84-.408a5.456,5.456,0,0,1-.828.072H42.1c.024-.372.048-.768.06-1.176C42.168,111.2,42.192,110.76,42.216,110.484Zm15.564,1.44-.78-.576a3.64,3.64,0,0,1-1.044.12H51.5a12.84,12.84,0,0,1-1.308-.084v1.356c.192-.012.84-.072,1.308-.072h4.4A9.873,9.873,0,0,1,54,115.836a13.484,13.484,0,0,1-4.932,3.516l.972,1.02a15.753,15.753,0,0,0,4.62-3.456,26.93,26.93,0,0,1,3.18,3.5l1.056-.936a31.9,31.9,0,0,0-3.432-3.516,16.424,16.424,0,0,0,1.968-3.42A4.142,4.142,0,0,1,57.78,111.924ZM11.268,152.416l-.948-.78a3.081,3.081,0,0,1-.924.108H2.46a10.4,10.4,0,0,1-1.3-.1v1.344c.252-.024.816-.072,1.3-.072H9.2a14.15,14.15,0,0,1-3.432,3.852c-.8-.708-1.7-1.44-2.16-1.776l-.984.8a28.146,28.146,0,0,1,2.7,2.328,30.977,30.977,0,0,1,2.22,2.52l1.1-.888c-.48-.576-1.26-1.416-1.968-2.124a19.183,19.183,0,0,0,4.236-4.8C11,152.716,11.136,152.572,11.268,152.416Zm1.644,3.108.588,1.188a24.553,24.553,0,0,0,4.428-1.86v4.176a13.906,13.906,0,0,1-.072,1.416h1.488a9.024,9.024,0,0,1-.084-1.416v-4.98a20.243,20.243,0,0,0,3.228-2.628l-1.008-.96a14.812,14.812,0,0,1-3.336,2.856A19.815,19.815,0,0,1,12.912,155.524Zm17.484-4.86L29,150.208a5.32,5.32,0,0,1-.444,1.08,10.184,10.184,0,0,1-3.768,3.972l1.056.792a12.532,12.532,0,0,0,3.048-2.94H32.64a9.011,9.011,0,0,1-1.824,3.54,9.615,9.615,0,0,1-4.812,3l1.116,1a10.813,10.813,0,0,0,4.8-3.324,11.877,11.877,0,0,0,2.112-4.08,4.107,4.107,0,0,1,.336-.732l-.984-.6a2.818,2.818,0,0,1-.9.12H29.6c.06-.1.12-.2.168-.3C29.9,151.492,30.156,151.024,30.4,150.664ZM.912,195.524l.588,1.188a24.553,24.553,0,0,0,4.428-1.86v4.176a13.906,13.906,0,0,1-.072,1.416H7.344a9.024,9.024,0,0,1-.084-1.416v-4.98a20.243,20.243,0,0,0,3.228-2.628l-1.008-.96a14.812,14.812,0,0,1-3.336,2.856A19.815,19.815,0,0,1,.912,195.524ZM14.8,191.06,13.92,192a26.028,26.028,0,0,1,3,2.544l.948-.972A25.181,25.181,0,0,0,14.8,191.06Zm-1.236,8.028.8,1.236a13.231,13.231,0,0,0,4.6-1.788,12.269,12.269,0,0,0,4.212-4.344l-.732-1.308a11.425,11.425,0,0,1-4.164,4.524A12.469,12.469,0,0,1,13.56,199.088Zm17.04-8.544-1.368-.432a5.621,5.621,0,0,1-.456,1.08,11,11,0,0,1-3.84,4.092l1.02.792a13.59,13.59,0,0,0,3.168-3.144h3.792a9.836,9.836,0,0,1-1.5,3.024c-.8-.552-1.644-1.092-2.364-1.512l-.828.852c.7.444,1.56,1.032,2.388,1.632a10.2,10.2,0,0,1-4.536,2.76l1.092.96a11.43,11.43,0,0,0,4.452-2.964c.492.4.948.768,1.284,1.08l.888-1.056c-.372-.3-.84-.66-1.344-1.02a13.74,13.74,0,0,0,1.836-3.624,6.038,6.038,0,0,1,.324-.744l-.972-.6a2.794,2.794,0,0,1-.9.132H29.844c.048-.084.084-.156.132-.24C30.108,191.372,30.36,190.9,30.6,190.544Zm6.564,4.1v1.488c.408-.036,1.128-.06,1.788-.06H45.48c.528,0,1.08.048,1.344.06v-1.488c-.3.024-.768.072-1.344.072H38.952C38.3,194.72,37.56,194.672,37.164,194.648Zm20.592-2.628-.924-.6a3.057,3.057,0,0,1-.768.084h-5.82a10.764,10.764,0,0,1-1.3-.1v1.344c.3-.024.78-.048,1.3-.048h5.892a8.286,8.286,0,0,1-1.5,3.684,7.916,7.916,0,0,1-4.692,2.856l1.032,1.128a9.247,9.247,0,0,0,4.776-3.252,11.9,11.9,0,0,0,1.788-4.4A3.646,3.646,0,0,1,57.756,192.02Zm3.936,1.644v1.2c.252-.024.66-.036.876-.036h2.064v4.164H62a7.932,7.932,0,0,1-.912-.06v1.26a8.019,8.019,0,0,1,.912-.048H68.64a7.3,7.3,0,0,1,.852.048v-1.26a5.922,5.922,0,0,1-.852.06H65.868v-4.164h2.22c.264,0,.6.012.876.036v-1.2a6.848,6.848,0,0,1-.876.06h-5.52A7.681,7.681,0,0,1,61.692,193.664Zm10.752.984v1.488c.408-.036,1.128-.06,1.788-.06H80.76c.528,0,1.08.048,1.344.06v-1.488c-.3.024-.768.072-1.344.072H74.232C73.584,194.72,72.84,194.672,72.444,194.648Zm20.016-2.724-.78-.576a3.64,3.64,0,0,1-1.044.12H86.184a12.84,12.84,0,0,1-1.308-.084v1.356c.192-.012.84-.072,1.308-.072h4.4a9.873,9.873,0,0,1-1.908,3.168,13.484,13.484,0,0,1-4.932,3.516l.972,1.02a15.753,15.753,0,0,0,4.62-3.456,26.931,26.931,0,0,1,3.18,3.5l1.056-.936a31.9,31.9,0,0,0-3.432-3.516,16.424,16.424,0,0,0,1.968-3.42A4.142,4.142,0,0,1,92.46,191.924Z" transform="translate(46 3401)" fill="#0a0a0a"/>
    <path id="パス_6869" data-name="パス 6869" d="M-27.06-5.724A14.541,14.541,0,0,0-23.748-9a15.706,15.706,0,0,0,3.456,3.276Zm3.912,3.612h3.492v-.972h-3.492V-4.74h3v-.888a15.029,15.029,0,0,0,1.32.84,6.543,6.543,0,0,1,.732-.984A14.2,14.2,0,0,1-23.232-10.1h-1.14A13.661,13.661,0,0,1-29.28-5.64a4.4,4.4,0,0,1,.708.9,14.16,14.16,0,0,0,1.38-.888v.888h2.868v1.656h-3.432v.972h3.432v1.74h-4.4V.636H-18.6V-.372h-4.548Zm9.1-7.236-.684,1.032c.744.42,2.028,1.272,2.64,1.716l.708-1.032C-11.952-8.04-13.308-8.928-14.052-9.348Zm-1.98,8.556.708,1.236A14.06,14.06,0,0,0-11.34-1.044a14.285,14.285,0,0,0,4.692-4.3L-7.38-6.612a12.343,12.343,0,0,1-4.6,4.452A13.178,13.178,0,0,1-16.032-.792Zm.156-5.832-.684,1.032a30.032,30.032,0,0,1,2.676,1.68l.7-1.068C-13.752-5.376-15.12-6.228-15.876-6.624ZM3.756-9.192H2.328a9.278,9.278,0,0,1,.072,1.1v2.064c0,2.1-.156,3.036-1,4a5.6,5.6,0,0,1-2.88,1.56l1,1.044A6.554,6.554,0,0,0,2.388-1.176c.888-1.008,1.32-2.028,1.32-4.776V-8.088C3.708-8.52,3.732-8.88,3.756-9.192Zm-5.568.1h-1.38a7.751,7.751,0,0,1,.048.888v4.02c0,.348-.036.768-.048.972h1.38c-.024-.24-.048-.66-.048-.972v-4.02C-1.86-8.544-1.836-8.844-1.812-9.1ZM7.464-5.352v1.488c.408-.036,1.128-.06,1.788-.06H15.78c.528,0,1.08.048,1.344.06V-5.352c-.3.024-.768.072-1.344.072H9.252C8.6-5.28,7.86-5.328,7.464-5.352Zm19.38-4.512-.78.324a13.787,13.787,0,0,1,.864,1.488l-.468-.36a3.64,3.64,0,0,1-1.044.12H20.964c-.372,0-1.068-.036-1.308-.072v1.356c.192-.012.84-.072,1.308-.072h4.4A9.873,9.873,0,0,1,23.46-3.912a13.459,13.459,0,0,1-4.932,3.5L19.5.612a15.714,15.714,0,0,0,4.62-3.444A27.678,27.678,0,0,1,27.3.66l1.056-.924A31.9,31.9,0,0,0,24.924-3.78,16.735,16.735,0,0,0,26.892-7.2a3.62,3.62,0,0,1,.348-.624l-.12-.1.684-.3A16.664,16.664,0,0,0,26.844-9.864Zm1.428-.42L27.5-9.96A13.309,13.309,0,0,1,28.476-8.3l.78-.348A15.93,15.93,0,0,0,28.272-10.284ZM-27.732,40h5.7V38.824H-24.24c-.432,0-.984.036-1.44.084,1.872-1.788,3.228-3.552,3.228-5.256A2.5,2.5,0,0,0-25.116,31,3.429,3.429,0,0,0-27.8,32.32l.78.768a2.4,2.4,0,0,1,1.74-.984,1.434,1.434,0,0,1,1.5,1.62c0,1.452-1.344,3.168-3.948,5.472Zm9.732.156c1.728,0,2.856-1.536,2.856-4.608C-15.144,32.5-16.272,31-18,31s-2.856,1.488-2.856,4.548S-19.728,40.156-18,40.156Zm0-1.092c-.9,0-1.536-.96-1.536-3.516,0-2.532.636-3.456,1.536-3.456s1.536.924,1.536,3.456C-16.464,38.1-17.1,39.064-18,39.064Zm6.84,1.092c1.728,0,2.856-1.536,2.856-4.608C-8.3,32.5-9.432,31-11.16,31s-2.856,1.488-2.856,4.548S-12.888,40.156-11.16,40.156Zm0-1.092c-.9,0-1.536-.96-1.536-3.516,0-2.532.636-3.456,1.536-3.456s1.536.924,1.536,3.456C-9.624,38.1-10.26,39.064-11.16,39.064ZM3.48,31.888V30.8H-6.948v1.092h3.036c-.1,2.988-.228,6.444-3.432,8.172a3.342,3.342,0,0,1,.8.9c2.3-1.32,3.168-3.468,3.516-5.772h4.26C1.08,38.1.9,39.364.552,39.664a.68.68,0,0,1-.564.144c-.324,0-1.176,0-2.028-.072a2.6,2.6,0,0,1,.384,1.092,15.231,15.231,0,0,0,2.088.012,1.481,1.481,0,0,0,1.128-.492c.468-.516.672-1.956.876-5.724.012-.156.012-.516.012-.516H-2.88c.072-.744.1-1.488.12-2.22ZM14.112,39.16H6.432V32.74H5.34v8.2H6.432v-.72h7.68v.7H15.2V32.74H14.112ZM12.12,35.128H10.7V33.82H12.12Zm0,2.208H10.7v-1.32H12.12Zm-3.792-1.32h1.4v1.32h-1.4Zm0-2.2h1.4v1.308h-1.4Zm-3.36-3.132V31.72H9.66V32.9H7.392V38.26h5.7V32.9H10.776V31.72h4.776V30.688Zm14.676,7.728a9.545,9.545,0,0,1-2.832,1.6,7.493,7.493,0,0,1,.852.756A12.031,12.031,0,0,0,20.688,38.8ZM27.7,38a14,14,0,0,0-2.832-2.1l-.78.576c.36.216.744.48,1.116.744-1.284.024-2.568.048-3.792.06a29.932,29.932,0,0,0,3.2-2.172l-1-.54a22.11,22.11,0,0,1-2.5,1.9c-.252-.18-.54-.36-.84-.552.552-.384,1.212-.912,1.8-1.416h5.436v-.864H22.788v-.636h3.54v-.828h-3.54v-.636h4.2V30.7h-4.2v-.78H21.672v.78H17.664v.828h4.008v.636h-3.36v.828h3.36v.636H17.028v.864h3.6a10.537,10.537,0,0,1-1.128.972l-.7-.348-.732.624a15.8,15.8,0,0,1,2.136,1.3c-.156.1-.312.18-.468.264-1.008.012-1.92.024-2.676.024l.072.924c1.236-.024,2.82-.048,4.548-.1v2.772h1.1v-2.8c1.14-.024,2.316-.06,3.456-.1a7.362,7.362,0,0,1,.612.6Zm-3.924.984a15.733,15.733,0,0,1,2.82,1.716l.864-.636A14.908,14.908,0,0,0,24.6,38.4ZM-32.328,80h5.04V78.86h-1.728v-7.7H-30.06a5.194,5.194,0,0,1-1.92.684v.876H-30.4V78.86h-1.932Zm7.608-6.1c0-1.152.6-1.836,1.356-1.836.96,0,1.62.792,1.752,2.532a2.1,2.1,0,0,1-1.68,1.08C-24.216,75.68-24.72,75.032-24.72,73.9Zm1.116,6.252c1.7,0,3.288-1.392,3.288-4.872,0-2.928-1.368-4.284-3.06-4.284A2.7,2.7,0,0,0-26,73.9c0,1.848,1,2.772,2.472,2.772a2.655,2.655,0,0,0,1.944-1.032c-.084,2.52-1.008,3.384-2.076,3.384a1.963,1.963,0,0,1-1.44-.66l-.756.852A3.031,3.031,0,0,0-23.6,80.156ZM-19.152,80h5.7V78.824H-15.66c-.432,0-.984.036-1.44.084,1.872-1.788,3.228-3.552,3.228-5.256A2.5,2.5,0,0,0-16.536,71a3.429,3.429,0,0,0-2.688,1.32l.78.768A2.4,2.4,0,0,1-16.7,72.1a1.434,1.434,0,0,1,1.5,1.62c0,1.452-1.344,3.168-3.948,5.472Zm9.732.156c1.728,0,2.856-1.536,2.856-4.608C-6.564,72.5-7.692,71-9.42,71s-2.856,1.488-2.856,4.548S-11.148,80.156-9.42,80.156Zm0-1.092c-.9,0-1.536-.96-1.536-3.516,0-2.532.636-3.456,1.536-3.456s1.536.924,1.536,3.456C-7.884,78.1-8.52,79.064-9.42,79.064Zm12.624.3.708-.7-3.2-3.2,3.2-3.192L3.2,71.564l-3.192,3.2-3.192-3.2-.72.708,3.2,3.192-3.2,3.2.708.7,3.2-3.192ZM7.032,80h5.04V78.86H10.344v-7.7H9.3a5.194,5.194,0,0,1-1.92.684v.876H8.964V78.86H7.032Zm9.228.156c1.728,0,2.856-1.536,2.856-4.608C19.116,72.5,17.988,71,16.26,71S13.4,72.488,13.4,75.548,14.532,80.156,16.26,80.156Zm0-1.092c-.9,0-1.536-.96-1.536-3.516,0-2.532.636-3.456,1.536-3.456s1.536.924,1.536,3.456C17.8,78.1,17.16,79.064,16.26,79.064Zm6.852,1.092c1.7,0,2.856-1.008,2.856-2.316A2.581,2.581,0,0,0,24.48,75.5v-.06a2.744,2.744,0,0,0,1.164-2.076,2.28,2.28,0,0,0-2.5-2.34,2.307,2.307,0,0,0-2.52,2.28,2.5,2.5,0,0,0,1.188,2.064v.06A2.705,2.705,0,0,0,20.232,77.8C20.232,79.172,21.456,80.156,23.112,80.156Zm.576-5.064c-.984-.384-1.824-.828-1.824-1.788a1.209,1.209,0,0,1,1.26-1.284,1.311,1.311,0,0,1,1.356,1.428A2.236,2.236,0,0,1,23.688,75.092Zm-.552,4.068a1.546,1.546,0,0,1-1.68-1.488,2.253,2.253,0,0,1,1.032-1.848c1.2.492,2.172.9,2.172,1.98A1.36,1.36,0,0,1,23.136,79.16Zm6.8,1c1.728,0,2.856-1.536,2.856-4.608C32.8,72.5,31.668,71,29.94,71s-2.856,1.488-2.856,4.548S28.212,80.156,29.94,80.156Zm0-1.092c-.9,0-1.536-.96-1.536-3.516,0-2.532.636-3.456,1.536-3.456s1.536.924,1.536,3.456C31.476,78.1,30.84,79.064,29.94,79.064Zm-69.9,31.444h-1.368a9.234,9.234,0,0,1,.108,1.092c.012.288.024.648.036,1.044h-4.188a9.416,9.416,0,0,1-1.2-.084v1.272q.594-.036,1.224-.036h3.66a14.632,14.632,0,0,1-5.412,4.416l.864.984a16.624,16.624,0,0,0,5.1-4.3c.024,1.464.036,2.964.036,3.864,0,.324-.12.48-.444.48a12.206,12.206,0,0,1-1.644-.132l.1,1.236c.636.036,1.332.072,1.992.072.8,0,1.212-.384,1.212-1.08-.012-1.548-.06-3.768-.1-5.544h1.752c.3,0,.732.012,1.056.024v-1.26a9.656,9.656,0,0,1-1.116.084h-1.716c0-.408-.012-.756-.012-1.044A6.666,6.666,0,0,1-39.96,110.508Zm5.124,4.14v1.488c.408-.036,1.128-.06,1.788-.06h6.528c.528,0,1.08.048,1.344.06v-1.488c-.3.024-.768.072-1.344.072h-6.528C-33.7,114.72-34.44,114.672-34.836,114.648Zm14.76,4.248a12.562,12.562,0,0,1-.1,1.536H-18.7a14.06,14.06,0,0,1-.1-1.536v-3.708a31.421,31.421,0,0,1,4.536,1.872l.54-1.308a40.676,40.676,0,0,0-5.076-1.92V111.96c0-.42.048-.948.084-1.344h-1.476a8.687,8.687,0,0,1,.108,1.344Zm18.552-6.876-.924-.6a3.058,3.058,0,0,1-.768.084h-5.82a10.761,10.761,0,0,1-1.3-.1v1.344c.3-.024.78-.048,1.3-.048h5.892a8.286,8.286,0,0,1-1.5,3.684,7.916,7.916,0,0,1-4.692,2.856l1.032,1.128a9.247,9.247,0,0,0,4.776-3.252,11.9,11.9,0,0,0,1.788-4.4A3.646,3.646,0,0,1-1.524,112.02Zm9.456.588H6.684a8.17,8.17,0,0,1,.084.888c.012.24.024.528.036.876H3.336a6.387,6.387,0,0,1-.972-.072v1.188c.312-.024.672-.036,1-.036H6.3a12.114,12.114,0,0,1-4.344,3.468l.828.948a13.694,13.694,0,0,0,4.056-3.384c.012,1.128.024,2.256.024,2.94,0,.24-.1.372-.312.372a11.41,11.41,0,0,1-1.428-.12l.072,1.092c.5.036,1.26.072,1.788.072A.922.922,0,0,0,8,119.916c-.012-1.176-.048-2.988-.084-4.464H9.528c.252,0,.6.012.84.024V114.3a5.859,5.859,0,0,1-.876.072H7.9c0-.348-.012-.648-.012-.876A5.363,5.363,0,0,1,7.932,112.608Zm5.232,2.04v1.488c.408-.036,1.128-.06,1.788-.06H21.48c.528,0,1.08.048,1.344.06v-1.488c-.3.024-.768.072-1.344.072H14.952C14.3,114.72,13.56,114.672,13.164,114.648Zm17.052-4.164h-1.4a7.632,7.632,0,0,1,.084,1.032q0,.612-.036,1.152H26.928c-.468,0-1.008-.036-1.464-.072v1.248c.456-.036,1.02-.048,1.464-.048h1.824a7.459,7.459,0,0,1-2.2,4.716,6.4,6.4,0,0,1-1.38,1.008l1.1.9c2.064-1.452,3.252-3.288,3.7-6.624h3.072a17.358,17.358,0,0,1-.564,4.848.634.634,0,0,1-.684.408,13.739,13.739,0,0,1-1.74-.144l.144,1.26c.612.048,1.308.084,1.956.084a1.338,1.338,0,0,0,1.392-.816c.528-1.176.684-4.608.72-5.82.012-.144.048-.408.084-.612l-.84-.408a5.456,5.456,0,0,1-.828.072H30.1c.024-.372.048-.768.06-1.176C30.168,111.2,30.192,110.76,30.216,110.484Zm15.564,1.44-.78-.576a3.64,3.64,0,0,1-1.044.12H39.5a12.84,12.84,0,0,1-1.308-.084v1.356c.192-.012.84-.072,1.308-.072h4.4A9.873,9.873,0,0,1,42,115.836a13.484,13.484,0,0,1-4.932,3.516l.972,1.02a15.753,15.753,0,0,0,4.62-3.456,26.93,26.93,0,0,1,3.18,3.5l1.056-.936a31.9,31.9,0,0,0-3.432-3.516,16.424,16.424,0,0,0,1.968-3.42A4.142,4.142,0,0,1,45.78,111.924Zm-52,38.512-1.236-.036a6.348,6.348,0,0,1-.036.636c-.024.24-.06.5-.084.8h-.66a16.915,16.915,0,0,1-2.088-.156l.036,1.116c.516.024,1.452.084,2.016.084h.588c-.048.516-.1,1.08-.12,1.632a4.846,4.846,0,0,0-2.988,3.924,1.444,1.444,0,0,0,1.512,1.608,4.13,4.13,0,0,0,1.956-.576c.06.216.12.408.18.588l1.092-.324c-.1-.3-.2-.612-.288-.948a9.471,9.471,0,0,0,2.6-3.78,1.983,1.983,0,0,1,1.524,1.9c0,1.38-1.176,2.52-3.408,2.772l.648,1c2.856-.444,3.924-2,3.924-3.72a3.025,3.025,0,0,0-2.364-2.88c.084-.216.18-.516.252-.672l-1.176-.288a6.317,6.317,0,0,1-.144.78,3.26,3.26,0,0,0-.348-.012,7.777,7.777,0,0,0-1.92.264c.036-.444.072-.888.108-1.3a36.458,36.458,0,0,0,4.3-.444l-.012-1.116A21.935,21.935,0,0,1-6.5,151.8c.048-.288.1-.564.144-.792A5.051,5.051,0,0,1-6.216,150.436Zm-.564,5.028v-.288a5.593,5.593,0,0,1,1.908-.336h.084A7.828,7.828,0,0,1-6.6,157.576,12.716,12.716,0,0,1-6.78,155.464Zm-2.88,2.76a3.475,3.475,0,0,1,1.824-2.568,15.618,15.618,0,0,0,.264,2.712,2.8,2.8,0,0,1-1.452.528C-9.456,158.9-9.66,158.668-9.66,158.224ZM4.176,150.46l-1.308-.06a10.422,10.422,0,0,1-.1,1.14,31.664,31.664,0,0,0-.348,3.864,15.084,15.084,0,0,0,.132,1.944l1.176-.084a5.557,5.557,0,0,1-.048-1.38c.108-1.584,1.44-3.744,2.9-3.744,1.14,0,1.776,1.224,1.776,3.1,0,2.976-1.968,3.948-4.6,4.356l.72,1.092c3.06-.564,5.148-2.1,5.148-5.448,0-2.58-1.212-4.188-2.844-4.188a3.874,3.874,0,0,0-3.132,2.376A23.225,23.225,0,0,1,4.176,150.46Zm-21.732,49.7c1.956,0,3.276-1.068,3.276-3.948v-5.052h-1.344V196.3c0,1.992-.816,2.64-1.932,2.64s-1.9-.648-1.9-2.64v-5.148h-1.392v5.052C-20.844,199.088-19.512,200.156-17.556,200.156Zm7.944,0c1.932,0,3.108-1.152,3.108-2.568A2.466,2.466,0,0,0-8.3,195.2l-1.212-.516c-.72-.288-1.428-.576-1.428-1.344,0-.7.588-1.128,1.488-1.128A2.813,2.813,0,0,1-7.512,193l.732-.888A3.783,3.783,0,0,0-9.456,191a2.625,2.625,0,0,0-2.9,2.436,2.541,2.541,0,0,0,1.8,2.316l1.224.528c.816.36,1.416.612,1.416,1.416,0,.744-.6,1.248-1.668,1.248A3.424,3.424,0,0,1-11.94,197.9l-.816.96A4.406,4.406,0,0,0-9.612,200.156ZM-4.836,200h2.952c1.956,0,3.384-.84,3.384-2.592a2.028,2.028,0,0,0-1.74-2.1v-.06a1.964,1.964,0,0,0,1.26-1.908c0-1.6-1.308-2.184-3.12-2.184H-4.836Zm1.392-5.148v-2.6H-2.22c1.248,0,1.872.348,1.872,1.272,0,.828-.564,1.332-1.908,1.332Zm0,4.056V195.9h1.4c1.4,0,2.172.444,2.172,1.44,0,1.08-.792,1.572-2.172,1.572ZM5.232,200h5.7v-1.176H8.688c-.432,0-1,.036-1.44.084,1.836-1.92,3.264-3.5,3.264-5.076a2.47,2.47,0,0,0-2.664-2.592,3.466,3.466,0,0,0-2.688,1.32l.78.768a2.4,2.4,0,0,1,1.74-.984,1.4,1.4,0,0,1,1.5,1.56c0,1.344-1.488,2.88-3.948,5.292Zm8.1.156a.918.918,0,0,0,.924-.96.926.926,0,1,0-1.848,0A.918.918,0,0,0,13.332,200.156Zm5.208,0c1.764,0,2.856-1.6,2.856-4.488S20.3,191.24,18.54,191.24s-2.856,1.536-2.856,4.428S16.788,200.156,18.54,200.156Zm0-1.092c-.9,0-1.536-.924-1.536-3.4s.636-3.336,1.536-3.336,1.536.864,1.536,3.336S19.44,199.064,18.54,199.064Z" transform="translate(254 3401)" fill="#0a0a0a"/>
    <path id="パス_6870" data-name="パス 6870" d="M0,0V240" transform="translate(163 3376)" fill="none" stroke="#cecece" stroke-width="1"/>
    <path id="パス_6871" data-name="パス 6871" d="M0,0H315" transform="translate(30 3416)" fill="none" stroke="#cecece" stroke-width="1"/>
    <path id="パス_6872" data-name="パス 6872" d="M0,0H315" transform="translate(30 3456)" fill="none" stroke="#cecece" stroke-width="1"/>
    <path id="パス_6873" data-name="パス 6873" d="M0,0H315" transform="translate(30 3496)" fill="none" stroke="#cecece" stroke-width="1"/>
    <path id="パス_6874" data-name="パス 6874" d="M0,0H315" transform="translate(30 3536)" fill="none" stroke="#cecece" stroke-width="1"/>
    <path id="パス_6875" data-name="パス 6875" d="M0,0H315" transform="translate(30 3576)" fill="none" stroke="#cecece" stroke-width="1"/>
  </g>
</svg>
