<svg xmlns="http://www.w3.org/2000/svg" width="315" height="160" viewBox="0 0 315 160">
  <g id="グループ_3985" data-name="グループ 3985" transform="translate(-30 -4112)">
    <path id="パス_6876" data-name="パス 6876" d="M0,0H133V160H0Z" transform="translate(30 4112)" fill="#e4f5f2"/>
    <g id="パス_6877" data-name="パス 6877" transform="translate(30 4112)" fill="none">
      <path d="M0,0H315V160H0Z" stroke="none"/>
      <path d="M 1 1 L 1 159 L 314 159 L 314 1 L 1 1 M 0 0 L 315 0 L 315 160 L 0 160 L 0 0 Z" stroke="none" fill="#cecece"/>
    </g>
    <path id="パス_6878" data-name="パス 6878" d="M4.188-6.864a16.064,16.064,0,0,1-.66,2.784c-.576-.7-1.176-1.392-1.752-1.992L1-5.436a31.185,31.185,0,0,1,2.052,2.5A6.983,6.983,0,0,1,.384-.012,6.185,6.185,0,0,1,1.14.852a8.117,8.117,0,0,0,2.592-2.82,12.122,12.122,0,0,1,.936,1.62l.9-.756a14.669,14.669,0,0,0-1.284-2,16.269,16.269,0,0,0,1-3.612Zm7.3-.444H10.128v-2.76h-1.1v2.76H6.252V-8.16H3.936v-1.9H2.856v1.9H.672v1.032H5.88v.9H9.024V-.5c0,.2-.084.264-.288.264s-.852.012-1.572-.012A5.158,5.158,0,0,1,7.524.936,5.667,5.667,0,0,0,9.588.708c.384-.2.54-.528.54-1.212V-6.228h1.356ZM8.124-2.532a9.023,9.023,0,0,0-1.308-2.58L5.9-4.68a9.991,9.991,0,0,1,1.26,2.628Zm6.444-4.992h8.82V-8.6H18.936v-1.464H17.772V-8.6h-4.32v3.048C13.452-3.84,13.368-1.4,12.4.3a5.688,5.688,0,0,1,.948.636c1.044-1.836,1.224-4.62,1.224-6.492Zm6.252,1.98A14.934,14.934,0,0,0,18-7.3l-.756.732a14.8,14.8,0,0,1,2.772,1.848Zm-5.352,5.4a10.39,10.39,0,0,0,1-3.84l-1.02-.228a9.067,9.067,0,0,1-.972,3.624ZM18.7-.288c-.408,0-.492-.072-.492-.492v-4.4H17.112v4.4c0,1.14.288,1.5,1.416,1.5h1.56c1.056,0,1.344-.552,1.452-2.544a3.511,3.511,0,0,1-.984-.456C20.5-.588,20.436-.288,20-.288ZM20.964-4.1a13.23,13.23,0,0,1,1.584,3.96L23.64-.6a12.825,12.825,0,0,0-1.692-3.9Zm5.16-4.548v1.2c.336-.024.7-.036,1.116-.036h1.476v2.316H26.544c-.348,0-.876-.024-1.212-.06v1.26c.348-.024.888-.048,1.212-.048h2.172v2.532c0,1.08.552,1.776,2.532,1.776C32.388.288,33.624.24,34.5.18L34.572-1.1a25.911,25.911,0,0,1-3.12.168c-1.044,0-1.464-.3-1.464-.936V-4.02h3.888c.264,0,.744,0,1.056.024L34.92-5.22c-.288.024-.816.048-1.068.048H29.988V-7.488h2.988c.432,0,.732.024,1.032.036v-1.2a8.51,8.51,0,0,1-1.032.048H27.24C26.82-8.6,26.46-8.628,26.124-8.652Zm12.24-.24v1.236c.324-.024.768-.048,1.176-.048h4.044c.384,0,.816.024,1.2.048V-8.892a10.063,10.063,0,0,1-1.2.072H39.528A9.049,9.049,0,0,1,38.364-8.892ZM36.948-5.856v1.248c.336-.024.732-.036,1.092-.036h3.468a5.547,5.547,0,0,1-.72,2.832,5,5,0,0,1-2.22,1.788l1.1.816A5.868,5.868,0,0,0,42.06-1.452,7.366,7.366,0,0,0,42.8-4.644h3.1c.312,0,.72.012,1.008.024V-5.856A7.655,7.655,0,0,1,45.9-5.8H38.04A10.515,10.515,0,0,1,36.948-5.856Zm8.5-3.948-.768.324a14.323,14.323,0,0,1,.948,1.656l.792-.336A17.39,17.39,0,0,0,45.444-9.8ZM46.8-10.32,46.032-10a12.044,12.044,0,0,1,.984,1.656l.78-.348A15.292,15.292,0,0,0,46.8-10.32ZM54.18-.264l.792.66a3.73,3.73,0,0,1,.456-.3A12.626,12.626,0,0,0,59.52-3.216l-.732-1.032a8.442,8.442,0,0,1-3.264,2.76V-8.124a7.227,7.227,0,0,1,.06-.96H54.192a8.8,8.8,0,0,1,.072.96v7.1A3.461,3.461,0,0,1,54.18-.264ZM48.648-.372,49.8.4a6.742,6.742,0,0,0,2.136-3.36,26.289,26.289,0,0,0,.372-5.124,8.982,8.982,0,0,1,.06-.96H50.976a3.74,3.74,0,0,1,.1.972,20.807,20.807,0,0,1-.348,4.788A5.555,5.555,0,0,1,48.648-.372ZM4.6,35.008c-.456.132-.912.252-1.356.372V33.3H4.548V32.272H3.24V29.944h-1.1v2.328H.564V33.3H2.136v2.388c-.66.18-1.26.312-1.74.432L.684,37.2c.444-.12.936-.252,1.452-.408v2.9c0,.18-.06.228-.228.228-.144.012-.636.012-1.14-.012a4.358,4.358,0,0,1,.324,1.02,4.059,4.059,0,0,0,1.68-.192c.348-.168.468-.468.468-1.044V36.472l1.5-.432Zm5.232,1.56v1.008H6.3V36.568ZM6.3,39.5V38.452H9.828V39.5Zm-1.056,1.44H6.3V40.4H9.828v.48h1.1V35.644H5.244Zm1.992-7.164c-.732,0-.876-.072-.876-.492v-.72a24.091,24.091,0,0,0,4.392-1.176l-.828-.816A19.18,19.18,0,0,1,6.36,31.66V29.968h-1.1V33.28c0,1.176.4,1.5,1.9,1.5h2.58c1.26,0,1.6-.42,1.74-2.04a3.49,3.49,0,0,1-1.008-.408c-.084,1.224-.18,1.44-.8,1.44ZM19.3,35.428v2.016h-2.6V35.428Zm1.032,3.012v-4H15.672V39.28h1.02v-.84Zm2.556-6.48h-5.2c.3-.552.612-1.212.876-1.824l-1.416-.228a15.341,15.341,0,0,1-.7,2.052H13.176v8.976h1.1V33.052h7.488v6.5c0,.2-.072.264-.312.276s-1.056.012-1.848-.024a4.26,4.26,0,0,1,.384,1.14,7.81,7.81,0,0,0,2.292-.192c.444-.192.6-.54.6-1.188Zm2.3,3.624a15.217,15.217,0,0,0,.564-3.264l-.816-.12a13.619,13.619,0,0,1-.6,3.1Zm7.308,3.9V36.76h2.328V35.716H32.5V33.46h2.592V32.4H32.5V29.98H31.38V32.4H30.12a16.164,16.164,0,0,0,.36-1.752l-1.092-.18a14.125,14.125,0,0,1-.792,3.192,10.755,10.755,0,0,0-.78-1.8l-.708.288v-2.22H25.992v11h1.116v-8.6a10.919,10.919,0,0,1,.72,1.884l.672-.324a5.334,5.334,0,0,1-.444.828,6.493,6.493,0,0,1,1,.516,10.792,10.792,0,0,0,.768-1.776h1.56v2.256H28.944V36.76H31.38v2.724H28.044V40.54H35.4V39.484ZM3.432,70.772,2.988,71.9a39.426,39.426,0,0,1,6.36,1.464l.492-1.176A43.654,43.654,0,0,0,3.432,70.772Zm-.54,3.2-.444,1.14a39.08,39.08,0,0,1,6.12,1.476l.468-1.164A45,45,0,0,0,2.892,73.976Zm-.636,3.468-.48,1.176a39.493,39.493,0,0,1,7.2,1.788L9.5,79.232A45.73,45.73,0,0,0,2.256,77.444Zm18.7-3.156-.912-.444a2.431,2.431,0,0,1-.72.1H15.912a10.381,10.381,0,0,1-1.056-.06v1.248c.324-.012.708-.036,1.068-.036h3.564c-.036.672-.348,2.736-.516,3.756H14.82a9.751,9.751,0,0,1-1.08-.06v1.236c.408-.012.684-.024,1.08-.024h6.468c.288,0,.792.012,1.02.024V78.8c-.276.024-.768.048-1.044.048H20.256c.168-1.116.5-3.36.6-4.128C20.88,74.6,20.916,74.42,20.952,74.288Zm4.212.36v1.488c.408-.036,1.128-.06,1.788-.06H33.48c.528,0,1.08.048,1.344.06V74.648c-.3.024-.768.072-1.344.072H26.952C26.3,74.72,25.56,74.672,25.164,74.648ZM39.924,78.9a12.562,12.562,0,0,1-.1,1.536H41.3a14.06,14.06,0,0,1-.1-1.536V75.188a31.421,31.421,0,0,1,4.536,1.872l.54-1.308a40.676,40.676,0,0,0-5.076-1.92V71.96c0-.42.048-.948.084-1.344H39.816a8.687,8.687,0,0,1,.108,1.344ZM57.78,71.924,57,71.348a3.64,3.64,0,0,1-1.044.12H51.5a12.84,12.84,0,0,1-1.308-.084V72.74c.192-.012.84-.072,1.308-.072h4.4A9.873,9.873,0,0,1,54,75.836a13.484,13.484,0,0,1-4.932,3.516l.972,1.02a15.753,15.753,0,0,0,4.62-3.456,26.93,26.93,0,0,1,3.18,3.5l1.056-.936a31.9,31.9,0,0,0-3.432-3.516,16.424,16.424,0,0,0,1.968-3.42A4.142,4.142,0,0,1,57.78,71.924Zm3.132,3.6.588,1.188a24.551,24.551,0,0,0,4.428-1.86v4.176a13.907,13.907,0,0,1-.072,1.416h1.488a9.023,9.023,0,0,1-.084-1.416v-4.98a20.243,20.243,0,0,0,3.228-2.628l-1.008-.96a14.813,14.813,0,0,1-3.336,2.856A19.816,19.816,0,0,1,60.912,75.524Zm17-2.532-1.128.372a21.946,21.946,0,0,1,.96,2.64l1.128-.408C78.72,75.068,78.132,73.5,77.916,72.992Zm4.38.768-1.32-.42a8.329,8.329,0,0,1-1.6,4.1,8.177,8.177,0,0,1-3.936,2.532l1,1.02a9.3,9.3,0,0,0,3.948-2.9,9.619,9.619,0,0,0,1.68-3.624C82.116,74.276,82.188,74.06,82.3,73.76Zm-7.176-.144-1.128.408a24.508,24.508,0,0,1,1.092,2.736l1.14-.42C76,75.68,75.4,74.168,75.12,73.616Zm10.8-2.076.3,1.1c.876-.012,2.184-.048,3.372-.156v1.968h-3.5a9.581,9.581,0,0,1-1.08-.06v1.236c.3-.024.72-.036,1.092-.036h3.456a4.772,4.772,0,0,1-3.024,4.164l1.188.816A5.84,5.84,0,0,0,90.8,75.6h3.24c.312,0,.7.012.984.036V74.408c-.264.024-.756.048-1.008.048H90.828V72.332a21.914,21.914,0,0,0,2.22-.444c.192-.048.456-.108.78-.192l-.78-1.056a13.63,13.63,0,0,1-3.06.708A26.4,26.4,0,0,1,85.92,71.54ZM.912,115.524l.588,1.188a24.551,24.551,0,0,0,4.428-1.86v4.176a13.906,13.906,0,0,1-.072,1.416H7.344a9.024,9.024,0,0,1-.084-1.416v-4.98a20.243,20.243,0,0,0,3.228-2.628l-1.008-.96a14.813,14.813,0,0,1-3.336,2.856A19.816,19.816,0,0,1,.912,115.524ZM14.8,111.06,13.92,112a26.027,26.027,0,0,1,3,2.544l.948-.972A25.181,25.181,0,0,0,14.8,111.06Zm-1.236,8.028.8,1.236a13.231,13.231,0,0,0,4.6-1.788,12.269,12.269,0,0,0,4.212-4.344l-.732-1.308a11.425,11.425,0,0,1-4.164,4.524A12.469,12.469,0,0,1,13.56,119.088Zm17.04-8.544-1.368-.432a5.621,5.621,0,0,1-.456,1.08,11,11,0,0,1-3.84,4.092l1.02.792a13.59,13.59,0,0,0,3.168-3.144h3.792a9.836,9.836,0,0,1-1.5,3.024c-.8-.552-1.644-1.092-2.364-1.512l-.828.852c.7.444,1.56,1.032,2.388,1.632a10.2,10.2,0,0,1-4.536,2.76l1.092.96a11.431,11.431,0,0,0,4.452-2.964c.492.4.948.768,1.284,1.08l.888-1.056c-.372-.3-.84-.66-1.344-1.02a13.741,13.741,0,0,0,1.836-3.624,6.038,6.038,0,0,1,.324-.744l-.972-.6a2.794,2.794,0,0,1-.9.132H29.844c.048-.084.084-.156.132-.24C30.108,111.372,30.36,110.9,30.6,110.544Zm6.564,4.1v1.488c.408-.036,1.128-.06,1.788-.06H45.48c.528,0,1.08.048,1.344.06v-1.488c-.3.024-.768.072-1.344.072H38.952C38.3,114.72,37.56,114.672,37.164,114.648Zm20.592-2.628-.924-.6a3.058,3.058,0,0,1-.768.084h-5.82a10.761,10.761,0,0,1-1.3-.1v1.344c.3-.024.78-.048,1.3-.048h5.892a8.286,8.286,0,0,1-1.5,3.684,7.916,7.916,0,0,1-4.692,2.856l1.032,1.128a9.247,9.247,0,0,0,4.776-3.252,11.9,11.9,0,0,0,1.788-4.4A3.646,3.646,0,0,1,57.756,112.02Zm3.936,1.644v1.2c.252-.024.66-.036.876-.036h2.064v4.164H62a7.93,7.93,0,0,1-.912-.06v1.26a8.017,8.017,0,0,1,.912-.048H68.64a7.293,7.293,0,0,1,.852.048v-1.26a5.921,5.921,0,0,1-.852.06H65.868v-4.164h2.22c.264,0,.6.012.876.036v-1.2a6.848,6.848,0,0,1-.876.06h-5.52A7.681,7.681,0,0,1,61.692,113.664Zm10.752.984v1.488c.408-.036,1.128-.06,1.788-.06H80.76c.528,0,1.08.048,1.344.06v-1.488c-.3.024-.768.072-1.344.072H74.232C73.584,114.72,72.84,114.672,72.444,114.648Zm20.016-2.724-.78-.576a3.64,3.64,0,0,1-1.044.12H86.184a12.84,12.84,0,0,1-1.308-.084v1.356c.192-.012.84-.072,1.308-.072h4.4a9.873,9.873,0,0,1-1.908,3.168,13.484,13.484,0,0,1-4.932,3.516l.972,1.02a15.753,15.753,0,0,0,4.62-3.456,26.93,26.93,0,0,1,3.18,3.5l1.056-.936a31.9,31.9,0,0,0-3.432-3.516,16.424,16.424,0,0,0,1.968-3.42A4.142,4.142,0,0,1,92.46,111.924Z" transform="translate(46 4137)" fill="#0a0a0a"/>
    <path id="パス_6879" data-name="パス 6879" d="M-27.06-5.724A14.541,14.541,0,0,0-23.748-9a15.706,15.706,0,0,0,3.456,3.276Zm3.912,3.612h3.492v-.972h-3.492V-4.74h3v-.888a15.029,15.029,0,0,0,1.32.84,6.543,6.543,0,0,1,.732-.984A14.2,14.2,0,0,1-23.232-10.1h-1.14A13.661,13.661,0,0,1-29.28-5.64a4.4,4.4,0,0,1,.708.9,14.16,14.16,0,0,0,1.38-.888v.888h2.868v1.656h-3.432v.972h3.432v1.74h-4.4V.636H-18.6V-.372h-4.548Zm9.1-7.236-.684,1.032c.744.42,2.028,1.272,2.64,1.716l.708-1.032C-11.952-8.04-13.308-8.928-14.052-9.348Zm-1.98,8.556.708,1.236A14.06,14.06,0,0,0-11.34-1.044a14.285,14.285,0,0,0,4.692-4.3L-7.38-6.612a12.343,12.343,0,0,1-4.6,4.452A13.178,13.178,0,0,1-16.032-.792Zm.156-5.832-.684,1.032a30.032,30.032,0,0,1,2.676,1.68l.7-1.068C-13.752-5.376-15.12-6.228-15.876-6.624ZM3.756-9.192H2.328a9.278,9.278,0,0,1,.072,1.1v2.064c0,2.1-.156,3.036-1,4a5.6,5.6,0,0,1-2.88,1.56l1,1.044A6.554,6.554,0,0,0,2.388-1.176c.888-1.008,1.32-2.028,1.32-4.776V-8.088C3.708-8.52,3.732-8.88,3.756-9.192Zm-5.568.1h-1.38a7.751,7.751,0,0,1,.048.888v4.02c0,.348-.036.768-.048.972h1.38c-.024-.24-.048-.66-.048-.972v-4.02C-1.86-8.544-1.836-8.844-1.812-9.1ZM7.464-5.352v1.488c.408-.036,1.128-.06,1.788-.06H15.78c.528,0,1.08.048,1.344.06V-5.352c-.3.024-.768.072-1.344.072H9.252C8.6-5.28,7.86-5.328,7.464-5.352Zm19.38-4.512-.78.324a13.787,13.787,0,0,1,.864,1.488l-.468-.36a3.64,3.64,0,0,1-1.044.12H20.964c-.372,0-1.068-.036-1.308-.072v1.356c.192-.012.84-.072,1.308-.072h4.4A9.873,9.873,0,0,1,23.46-3.912a13.459,13.459,0,0,1-4.932,3.5L19.5.612a15.714,15.714,0,0,0,4.62-3.444A27.678,27.678,0,0,1,27.3.66l1.056-.924A31.9,31.9,0,0,0,24.924-3.78,16.735,16.735,0,0,0,26.892-7.2a3.62,3.62,0,0,1,.348-.624l-.12-.1.684-.3A16.664,16.664,0,0,0,26.844-9.864Zm1.428-.42L27.5-9.96A13.309,13.309,0,0,1,28.476-8.3l.78-.348A15.93,15.93,0,0,0,28.272-10.284ZM-21.36,34.276A14.541,14.541,0,0,0-18.048,31a15.706,15.706,0,0,0,3.456,3.276Zm3.912,3.612h3.492v-.972h-3.492V35.26h3v-.888a15.03,15.03,0,0,0,1.32.84,6.543,6.543,0,0,1,.732-.984A14.2,14.2,0,0,1-17.532,29.9h-1.14A13.661,13.661,0,0,1-23.58,34.36a4.4,4.4,0,0,1,.708.9,14.161,14.161,0,0,0,1.38-.888v.888h2.868v1.656h-3.432v.972h3.432v1.74h-4.4v1.008H-12.9V39.628h-4.548ZM-7.4,35.008c-.456.132-.912.252-1.356.372V33.3h1.308V32.272H-8.76V29.944h-1.1v2.328h-1.572V33.3h1.572v2.388c-.66.18-1.26.312-1.74.432l.288,1.08c.444-.12.936-.252,1.452-.408v2.9c0,.18-.06.228-.228.228-.144.012-.636.012-1.14-.012a4.358,4.358,0,0,1,.324,1.02,4.059,4.059,0,0,0,1.68-.192c.348-.168.468-.468.468-1.044V36.472l1.5-.432Zm5.232,1.56v1.008H-5.7V36.568ZM-5.7,39.5V38.452h3.528V39.5Zm-1.056,1.44H-5.7V40.4h3.528v.48h1.1V35.644H-6.756Zm1.992-7.164c-.732,0-.876-.072-.876-.492v-.72a24.091,24.091,0,0,0,4.392-1.176l-.828-.816A19.18,19.18,0,0,1-5.64,31.66V29.968h-1.1V33.28c0,1.176.4,1.5,1.9,1.5h2.58c1.26,0,1.6-.42,1.74-2.04a3.49,3.49,0,0,1-1.008-.408c-.084,1.224-.18,1.44-.8,1.44ZM7.3,35.428v2.016h-2.6V35.428ZM8.328,38.44v-4H3.672V39.28h1.02v-.84Zm2.556-6.48h-5.2c.3-.552.612-1.212.876-1.824l-1.416-.228a15.341,15.341,0,0,1-.7,2.052H1.176v8.976h1.1V33.052H9.768v6.5c0,.2-.072.264-.312.276s-1.056.012-1.848-.024a4.26,4.26,0,0,1,.384,1.14,7.81,7.81,0,0,0,2.292-.192c.444-.192.6-.54.6-1.188Zm2.3,3.624a15.217,15.217,0,0,0,.564-3.264l-.816-.12a13.619,13.619,0,0,1-.6,3.1Zm7.308,3.9V36.76h2.328V35.716H20.5V33.46h2.592V32.4H20.5V29.98H19.38V32.4H18.12a16.164,16.164,0,0,0,.36-1.752l-1.092-.18a14.125,14.125,0,0,1-.792,3.192,10.755,10.755,0,0,0-.78-1.8l-.708.288v-2.22H13.992v11h1.116v-8.6a10.919,10.919,0,0,1,.72,1.884l.672-.324a5.334,5.334,0,0,1-.444.828,6.493,6.493,0,0,1,1,.516,10.792,10.792,0,0,0,.768-1.776h1.56v2.256H16.944V36.76H19.38v2.724H16.044V40.54H23.4V39.484ZM-6.216,70.436-7.452,70.4a6.348,6.348,0,0,1-.036.636c-.024.24-.06.5-.084.8h-.66a16.913,16.913,0,0,1-2.088-.156l.036,1.116c.516.024,1.452.084,2.016.084h.588c-.048.516-.1,1.08-.12,1.632a4.846,4.846,0,0,0-2.988,3.924,1.444,1.444,0,0,0,1.512,1.608,4.13,4.13,0,0,0,1.956-.576c.06.216.12.408.18.588l1.092-.324c-.1-.3-.2-.612-.288-.948a9.471,9.471,0,0,0,2.6-3.78,1.983,1.983,0,0,1,1.524,1.9c0,1.38-1.176,2.52-3.408,2.772l.648,1c2.856-.444,3.924-2,3.924-3.72a3.025,3.025,0,0,0-2.364-2.88c.084-.216.18-.516.252-.672l-1.176-.288a6.316,6.316,0,0,1-.144.78,3.258,3.258,0,0,0-.348-.012,7.777,7.777,0,0,0-1.92.264c.036-.444.072-.888.108-1.3a36.456,36.456,0,0,0,4.3-.444l-.012-1.116A21.936,21.936,0,0,1-6.5,71.8c.048-.288.1-.564.144-.792A5.051,5.051,0,0,1-6.216,70.436Zm-.564,5.028v-.288a5.593,5.593,0,0,1,1.908-.336h.084A7.828,7.828,0,0,1-6.6,77.576,12.716,12.716,0,0,1-6.78,75.464Zm-2.88,2.76a3.475,3.475,0,0,1,1.824-2.568,15.619,15.619,0,0,0,.264,2.712,2.8,2.8,0,0,1-1.452.528C-9.456,78.9-9.66,78.668-9.66,78.224ZM4.176,70.46,2.868,70.4a10.422,10.422,0,0,1-.1,1.14A31.663,31.663,0,0,0,2.424,75.4a15.084,15.084,0,0,0,.132,1.944l1.176-.084a5.557,5.557,0,0,1-.048-1.38c.108-1.584,1.44-3.744,2.9-3.744,1.14,0,1.776,1.224,1.776,3.1,0,2.976-1.968,3.948-4.6,4.356l.72,1.092c3.06-.564,5.148-2.1,5.148-5.448,0-2.58-1.212-4.188-2.844-4.188A3.874,3.874,0,0,0,3.66,73.424,23.225,23.225,0,0,1,4.176,70.46Zm-21.732,49.7c1.956,0,3.276-1.068,3.276-3.948v-5.052h-1.344V116.3c0,1.992-.816,2.64-1.932,2.64s-1.9-.648-1.9-2.64v-5.148h-1.392v5.052C-20.844,119.088-19.512,120.156-17.556,120.156Zm7.944,0c1.932,0,3.108-1.152,3.108-2.568A2.466,2.466,0,0,0-8.3,115.2l-1.212-.516c-.72-.288-1.428-.576-1.428-1.344,0-.7.588-1.128,1.488-1.128A2.813,2.813,0,0,1-7.512,113l.732-.888A3.783,3.783,0,0,0-9.456,111a2.625,2.625,0,0,0-2.9,2.436,2.541,2.541,0,0,0,1.8,2.316l1.224.528c.816.36,1.416.612,1.416,1.416,0,.744-.6,1.248-1.668,1.248A3.424,3.424,0,0,1-11.94,117.9l-.816.96A4.406,4.406,0,0,0-9.612,120.156ZM-4.836,120h2.952c1.956,0,3.384-.84,3.384-2.592a2.028,2.028,0,0,0-1.74-2.1v-.06a1.964,1.964,0,0,0,1.26-1.908c0-1.6-1.308-2.184-3.12-2.184H-4.836Zm1.392-5.148v-2.6H-2.22c1.248,0,1.872.348,1.872,1.272,0,.828-.564,1.332-1.908,1.332Zm0,4.056V115.9h1.4c1.4,0,2.172.444,2.172,1.44,0,1.08-.792,1.572-2.172,1.572ZM5.232,120h5.7v-1.176H8.688c-.432,0-1,.036-1.44.084,1.836-1.92,3.264-3.5,3.264-5.076a2.47,2.47,0,0,0-2.664-2.592,3.466,3.466,0,0,0-2.688,1.32l.78.768a2.4,2.4,0,0,1,1.74-.984,1.4,1.4,0,0,1,1.5,1.56c0,1.344-1.488,2.88-3.948,5.292Zm8.1.156a.918.918,0,0,0,.924-.96.926.926,0,1,0-1.848,0A.918.918,0,0,0,13.332,120.156Zm5.208,0c1.764,0,2.856-1.6,2.856-4.488S20.3,111.24,18.54,111.24s-2.856,1.536-2.856,4.428S16.788,120.156,18.54,120.156Zm0-1.092c-.9,0-1.536-.924-1.536-3.4s.636-3.336,1.536-3.336,1.536.864,1.536,3.336S19.44,119.064,18.54,119.064Z" transform="translate(254 4137)" fill="#0a0a0a"/>
    <path id="パス_6880" data-name="パス 6880" d="M0,0V160" transform="translate(163 4112)" fill="none" stroke="#cecece" stroke-width="1"/>
    <path id="パス_6881" data-name="パス 6881" d="M0,0H315" transform="translate(30 4152)" fill="none" stroke="#cecece" stroke-width="1"/>
    <path id="パス_6882" data-name="パス 6882" d="M0,0H315" transform="translate(30 4192)" fill="none" stroke="#cecece" stroke-width="1"/>
    <path id="パス_6883" data-name="パス 6883" d="M0,0H315" transform="translate(30 4232)" fill="none" stroke="#cecece" stroke-width="1"/>
  </g>
</svg>
