<svg xmlns="http://www.w3.org/2000/svg" width="510" height="190" viewBox="0 0 510 190">
  <g id="グループ_3987" data-name="グループ 3987" transform="translate(-623 -4465)">
    <g id="グループ_1860" data-name="グループ 1860" transform="translate(0 -9)">
      <path id="パス_6902" data-name="パス 6902" d="M0,0H182V190H0Z" transform="translate(623 4474)" fill="#e4f5f2"/>
      <path id="パス_6903" data-name="パス 6903" d="M0,0V190" transform="translate(805 4474)" fill="none" stroke="#cecece" stroke-width="1"/>
      <g id="パス_6904" data-name="パス 6904" transform="translate(623 4474)" fill="none">
        <path d="M0,0H510V190H0Z" stroke="none"/>
        <path d="M 1 1 L 1 189 L 509 189 L 509 1 L 1 1 M 0 0 L 510 0 L 510 190 L 0 190 L 0 0 Z" stroke="none" fill="#cecece"/>
      </g>
      <path id="パス_6905" data-name="パス 6905" d="M0,0H510" transform="translate(623 4512)" fill="none" stroke="#cecece" stroke-width="1"/>
      <path id="パス_6906" data-name="パス 6906" d="M0,0H510" transform="translate(623 4550)" fill="none" stroke="#cecece" stroke-width="1"/>
      <path id="パス_6907" data-name="パス 6907" d="M0,0H510" transform="translate(623 4588)" fill="none" stroke="#cecece" stroke-width="1"/>
      <path id="パス_6908" data-name="パス 6908" d="M0,0H510" transform="translate(623 4626)" fill="none" stroke="#cecece" stroke-width="1"/>
      <path id="パス_6909" data-name="パス 6909" d="M-31.57-6.678A16.965,16.965,0,0,0-27.706-10.5a18.323,18.323,0,0,0,4.032,3.822Zm4.564,4.214h4.074V-3.6h-4.074V-5.53h3.5V-6.566a17.534,17.534,0,0,0,1.54.98,7.634,7.634,0,0,1,.854-1.148A16.567,16.567,0,0,1-27.1-11.788h-1.33A15.938,15.938,0,0,1-34.16-6.58a5.131,5.131,0,0,1,.826,1.05,16.521,16.521,0,0,0,1.61-1.036V-5.53h3.346V-3.6h-4v1.134h4v2.03h-5.138V.742H-21.7V-.434h-5.306Zm10.612-8.442-.8,1.2c.868.49,2.366,1.484,3.08,2l.826-1.2C-13.944-9.38-15.526-10.416-16.394-10.906ZM-18.7-.924l.826,1.442A16.4,16.4,0,0,0-13.23-1.218,16.666,16.666,0,0,0-7.756-6.23L-8.61-7.714A14.4,14.4,0,0,1-13.972-2.52,15.374,15.374,0,0,1-18.7-.924Zm.182-6.8-.8,1.2A35.037,35.037,0,0,1-16.2-4.564l.812-1.246C-16.044-6.272-17.64-7.266-18.522-7.728Zm22.9-3H2.716A10.825,10.825,0,0,1,2.8-9.436v2.408c0,2.45-.182,3.542-1.162,4.662a6.53,6.53,0,0,1-3.36,1.82L-.56.672A7.646,7.646,0,0,0,2.786-1.372c1.036-1.176,1.54-2.366,1.54-5.572V-9.436C4.326-9.94,4.354-10.36,4.382-10.724Zm-6.5.112h-1.61a9.043,9.043,0,0,1,.056,1.036v4.69c0,.406-.042.9-.056,1.134h1.61c-.028-.28-.056-.77-.056-1.134v-4.69C-2.17-9.968-2.142-10.318-2.114-10.612ZM8.708-6.244v1.736c.476-.042,1.316-.07,2.086-.07H18.41c.616,0,1.26.056,1.568.07V-6.244c-.35.028-.9.084-1.568.084H10.794C10.038-6.16,9.17-6.216,8.708-6.244Zm22.61-5.264-.91.378a16.085,16.085,0,0,1,1.008,1.736l-.546-.42a4.247,4.247,0,0,1-1.218.14H24.458c-.434,0-1.246-.042-1.526-.084v1.582c.224-.014.98-.084,1.526-.084H29.6a11.518,11.518,0,0,1-2.226,3.7A15.7,15.7,0,0,1,21.616-.476L22.75.714A18.333,18.333,0,0,0,28.14-3.3,32.291,32.291,0,0,1,31.85.77L33.082-.308a37.212,37.212,0,0,0-4-4.1,19.525,19.525,0,0,0,2.3-3.99,4.223,4.223,0,0,1,.406-.728l-.14-.112.8-.35A19.441,19.441,0,0,0,31.318-11.508ZM32.984-12l-.9.378a15.527,15.527,0,0,1,1.134,1.932l.91-.406A18.585,18.585,0,0,0,32.984-12Zm-155.995,50.18c2.282,0,3.822-1.246,3.822-4.606V27.682h-1.568v6.006c0,2.324-.952,3.08-2.254,3.08s-2.212-.756-2.212-3.08V27.682h-1.624v5.894C-126.847,36.936-125.293,38.182-123.011,38.182Zm6.482-.182h1.624V33.31h4.41V38h1.624V27.682H-110.5V31.9h-4.41V27.682h-1.624Zm10.36,0h1.624V33.562h3.808V32.2h-3.808v-3.15h4.48V27.682h-6.1Zm16.1-5.32A9.327,9.327,0,0,0-87.3,39.372l1.064-.5a8.713,8.713,0,0,1-2.576-6.188,8.713,8.713,0,0,1,2.576-6.188l-1.064-.5A9.327,9.327,0,0,0-90.069,32.68ZM-84.4,38h5.88V36.67h-2.016V27.976h-1.218a6.066,6.066,0,0,1-2.24.784v1.022h1.848V36.67H-84.4Zm10.528.182c1.89,0,3.444-1.064,3.444-2.87a2.572,2.572,0,0,0-2.128-2.52v-.07a2.416,2.416,0,0,0,1.778-2.338c0-1.652-1.3-2.6-3.15-2.6a4.293,4.293,0,0,0-2.954,1.26l.84,1.008a2.9,2.9,0,0,1,2.058-.98A1.4,1.4,0,0,1-72.4,30.51c0,.966-.672,1.708-2.7,1.708v1.19c2.324,0,3.052.714,3.052,1.82,0,1.008-.8,1.638-1.96,1.638a3.33,3.33,0,0,1-2.436-1.134l-.784,1.036A4.277,4.277,0,0,0-73.871,38.182Zm8.582,0a3.814,3.814,0,0,0,2.506-.952l-.672-1.064a2.638,2.638,0,0,1-1.68.7c-1.274,0-2.17-1.078-2.17-2.716s.924-2.716,2.226-2.716a2.011,2.011,0,0,1,1.372.6l.8-1.05a3.306,3.306,0,0,0-2.254-.882,3.779,3.779,0,0,0-3.808,4.046C-68.971,36.712-67.375,38.182-65.289,38.182Zm4.1-.182h1.61V32.54A2.58,2.58,0,0,1-57.7,31.49c.91,0,1.3.532,1.3,1.862V38h1.61V33.156c0-1.96-.728-3.052-2.366-3.052a3.583,3.583,0,0,0-2.492,1.218l.07-1.526V26.842h-1.61Zm14.476-6.944a1.625,1.625,0,0,0-1.624,1.624A1.625,1.625,0,0,0-46.711,34.3a1.625,1.625,0,0,0,1.624-1.624A1.625,1.625,0,0,0-46.711,31.056ZM-35.539,33c1.092,0,1.708.686,1.708,1.918,0,1.274-.714,2.03-1.61,2.03-1.092,0-1.834-.868-2-2.73A2.4,2.4,0,0,1-35.539,33Zm.112,5.18a3.083,3.083,0,0,0,3.08-3.262c0-2.072-1.176-3.094-2.9-3.094a3.117,3.117,0,0,0-2.24,1.2c.07-2.94,1.162-3.92,2.464-3.92a2.206,2.206,0,0,1,1.624.756l.882-.98a3.46,3.46,0,0,0-2.576-1.106c-2.044,0-3.892,1.6-3.892,5.544C-38.983,36.628-37.387,38.182-35.427,38.182ZM-31.115,38h6.65V36.628h-2.618c-.5,0-1.162.042-1.68.1,2.142-2.24,3.808-4.088,3.808-5.922a2.882,2.882,0,0,0-3.108-3.024A4.043,4.043,0,0,0-31.2,29.32l.91.9a2.8,2.8,0,0,1,2.03-1.148,1.632,1.632,0,0,1,1.75,1.82c0,1.568-1.736,3.36-4.606,6.174Zm11.718.182a3.814,3.814,0,0,0,2.506-.952l-.672-1.064a2.638,2.638,0,0,1-1.68.7c-1.274,0-2.17-1.078-2.17-2.716s.924-2.716,2.226-2.716a2.011,2.011,0,0,1,1.372.6l.8-1.05a3.306,3.306,0,0,0-2.254-.882,3.779,3.779,0,0,0-3.808,4.046C-23.079,36.712-21.483,38.182-19.4,38.182Zm4.1-.182h1.61V32.54a2.58,2.58,0,0,1,1.876-1.05c.91,0,1.3.532,1.3,1.862V38H-8.9V33.156c0-1.96-.728-3.052-2.366-3.052a3.583,3.583,0,0,0-2.492,1.218l.07-1.526V26.842h-1.61Zm11.942-5.32a9.327,9.327,0,0,0-2.772-6.692l-1.064.5A8.713,8.713,0,0,1-4.613,32.68a8.713,8.713,0,0,1-2.576,6.188l1.064.5A9.327,9.327,0,0,0-3.353,32.68Zm9.7,7.84h1.12l3.892-13.706h-1.12Zm10.514-2.338A4.069,4.069,0,0,0,20.069,36.7L19.2,35.676a2.981,2.981,0,0,1-2.282,1.092c-1.82,0-2.968-1.5-2.968-3.948,0-2.422,1.232-3.906,3.01-3.906a2.741,2.741,0,0,1,2.016.924l.882-1.036a3.971,3.971,0,0,0-2.926-1.3c-2.6,0-4.648,2.016-4.648,5.376S14.273,38.182,16.863,38.182Zm7-5.782c.336-1.12.658-2.254.952-3.43h.07c.308,1.162.616,2.31.966,3.43l.406,1.386H23.443ZM20.531,38h1.652l.882-2.94h3.584L27.517,38h1.722L25.823,27.682H23.947Zm11.214,0h1.624V29.054h3.038V27.682H28.721v1.372h3.024Zm8.288,0h1.918l3.22-10.318H43.519L41.993,33.03c-.336,1.176-.574,2.184-.938,3.374h-.07c-.35-1.19-.588-2.2-.938-3.374l-1.526-5.348H36.8Zm14.644-5.32a9.327,9.327,0,0,0,2.772,6.692l1.064-.5a8.72,8.72,0,0,1,0-12.376l-1.064-.5A9.327,9.327,0,0,0,54.677,32.68Zm9.842,5.5A4.069,4.069,0,0,0,67.725,36.7l-.868-1.022a2.981,2.981,0,0,1-2.282,1.092c-1.82,0-2.968-1.5-2.968-3.948,0-2.422,1.232-3.906,3.01-3.906a2.741,2.741,0,0,1,2.016.924l.882-1.036a3.971,3.971,0,0,0-2.926-1.3c-2.6,0-4.648,2.016-4.648,5.376S61.929,38.182,64.519,38.182ZM69.391,38h5.88V36.67H73.255V27.976H72.037a6.066,6.066,0,0,1-2.24.784v1.022h1.848V36.67H69.391Zm10.528.182c1.89,0,3.444-1.064,3.444-2.87a2.572,2.572,0,0,0-2.128-2.52v-.07a2.416,2.416,0,0,0,1.778-2.338c0-1.652-1.3-2.6-3.15-2.6a4.293,4.293,0,0,0-2.954,1.26l.84,1.008a2.9,2.9,0,0,1,2.058-.98,1.4,1.4,0,0,1,1.582,1.442c0,.966-.672,1.708-2.7,1.708v1.19c2.324,0,3.052.714,3.052,1.82,0,1.008-.8,1.638-1.96,1.638a3.33,3.33,0,0,1-2.436-1.134l-.784,1.036A4.277,4.277,0,0,0,79.919,38.182Zm4.886-3.542h3.7V33.45h-3.7Zm9.716,3.542A4.069,4.069,0,0,0,97.727,36.7l-.868-1.022a2.981,2.981,0,0,1-2.282,1.092c-1.82,0-2.968-1.5-2.968-3.948,0-2.422,1.232-3.906,3.01-3.906a2.741,2.741,0,0,1,2.016.924l.882-1.036a3.971,3.971,0,0,0-2.926-1.3c-2.6,0-4.648,2.016-4.648,5.376S91.931,38.182,94.521,38.182Zm7.84-5.18c1.092,0,1.708.686,1.708,1.918,0,1.274-.714,2.03-1.61,2.03-1.092,0-1.834-.868-2-2.73A2.4,2.4,0,0,1,102.361,33Zm.112,5.18a3.083,3.083,0,0,0,3.08-3.262c0-2.072-1.176-3.094-2.9-3.094a3.117,3.117,0,0,0-2.24,1.2c.07-2.94,1.162-3.92,2.464-3.92a2.206,2.206,0,0,1,1.624.756l.882-.98a3.46,3.46,0,0,0-2.576-1.106c-2.044,0-3.892,1.6-3.892,5.544C98.917,36.628,100.513,38.182,102.473,38.182ZM106.785,38h6.65V36.628h-2.618c-.5,0-1.162.042-1.68.1,2.142-2.24,3.808-4.088,3.808-5.922a2.882,2.882,0,0,0-3.108-3.024,4.043,4.043,0,0,0-3.136,1.54l.91.9a2.8,2.8,0,0,1,2.03-1.148,1.632,1.632,0,0,1,1.75,1.82c0,1.568-1.736,3.36-4.606,6.174Zm11.83-5.32a9.327,9.327,0,0,0-2.772-6.692l-1.064.5a8.72,8.72,0,0,1,0,12.376l1.064.5A9.327,9.327,0,0,0,118.615,32.68ZM-1.344,66.606h-4.97V64.254H-7.658v2.352h-4.956V77.134h1.3V67.866h3.64a5.931,5.931,0,0,1-3.458,5.516,4.646,4.646,0,0,1,.924.98,7.444,7.444,0,0,0,3.248-3.514,33.513,33.513,0,0,1,3.052,3.29l1.064-.854a42,42,0,0,0-3.71-3.7,11.181,11.181,0,0,0,.224-1.722h3.7V75.5c0,.252-.084.322-.35.336S-4.2,75.846-5.11,75.8a5.226,5.226,0,0,1,.448,1.316,7.753,7.753,0,0,0,2.618-.238c.518-.21.7-.6.7-1.372ZM4.48,74.082H5.7v.854H4.48Zm1.218-3.5v.8H4.48v-.8Zm1.61,2.66H4.48V72.206H7.308Zm3.976-3.584a12.616,12.616,0,0,1-1.078,3,25.732,25.732,0,0,1-.518-3.64H13.2V67.908H12.026l.616-.49a6.859,6.859,0,0,0-1.386-1.106l-.784.574a6.911,6.911,0,0,1,1.218,1.022H9.632c-.014-.28-.014-.574-.028-.868h.35v-.9h3.192V65.066H9.954v-.812h-1.3v.812H5.306v-.812H4.018v.812H.868v1.078h3.15v.966H5.306v-.966H8.652v.644H8.386c.014.378.028.756.056,1.12H1.652v3.514c0,1.568-.112,3.612-1.176,5.054a4.865,4.865,0,0,1,1.008.672c1.162-1.554,1.358-3.962,1.358-5.712V69.014h5.67A25.343,25.343,0,0,0,9.366,74a9.47,9.47,0,0,1-.994,1.12v-.182H6.636v-.854H8.218v-2.7H6.636v-.8H8.26V69.7H3.486v6.846H4.48v-.672H7.434c-.182.126-.378.252-.574.364a9.153,9.153,0,0,1,1.008.9,9.791,9.791,0,0,0,2-1.806c.532,1.148,1.2,1.764,1.974,1.764,1.022,0,1.47-.364,1.666-2.352a3.5,3.5,0,0,1-1.064-.63c-.084,1.372-.224,1.75-.49,1.764-.392,0-.868-.546-1.274-1.624A14.138,14.138,0,0,0,12.53,69.9Zm-28.56,43.068V109.17h6.594v3.556Zm6.594-8.26v3.416h-6.594v-3.416Zm-7.924-1.316v11.8h1.33v-.91h6.594v.854H-9.3V103.15ZM6.09,106.4v-1.316H.672v-2.828H-.7v2.828H-6.062V106.4h4.578a13,13,0,0,1-5.068,5.5,7.517,7.517,0,0,1,.924,1.078,14.222,14.222,0,0,0,4.928-5.4V111.3H-3.262v1.316H-.7v2.478H.672v-2.478H3.178V111.3H.672V107.56a13.589,13.589,0,0,0,4.956,5.376,5.908,5.908,0,0,1,.98-1.148A12.439,12.439,0,0,1,1.47,106.4Zm6.076-3.682H8.3v1.022h3.864Zm.49,1.89H7.56v1.036h5.1Zm-.49,1.946H8.218v1.008h3.948Zm-3.948,2.912h3.948v-1.008H8.218Zm2.9,1.974v2.016H9.31v-2.016Zm1.134-1.05H8.19v4.7H9.31v-.6h2.94Zm6.09.812v2.142H14.882V111.2Zm-4.69,3.892h1.232V114.5H18.34v.532h1.274v-5.012H13.65Zm4.368-8.9v1.778H15.694c.1-.532.21-1.134.322-1.778Zm1.246,1.778v-2.884H16.2c.056-.42.126-.826.182-1.232h3.626v-1.134H13.1v1.134h2c-.056.392-.126.812-.182,1.232h-1.6v1.106h1.414c-.1.63-.21,1.246-.322,1.778H12.656v1.148h7.826v-1.148Zm-61.936,38.5h1.26V143.4h4.186v1.848h1.2v-2.744h-5.39v-.714h4.494V140.8H-47.11v.994h4.438v.714h-5.292v2.744H-46.8V143.4h4.13Zm1.9-.28h3.22v-.756h-3.22Zm0-2.156v.756h2.87v-.756Zm-5.656,2.156h3.136v-.756h-3.136Zm.28-2.156v.756H-43.3v-.756Zm.658,6.2v-.8h2.744v.8Zm2.744-2.436v.826h-2.744V147.8Zm4.228.826H-41.5V147.8h2.982Zm-2.982,1.61v-.8h2.982v.8ZM-40.46,152c-.868,0-1.036-.084-1.036-.574v-.266h4.256v-4.27h-9.492v4.942h1.246v-.672h2.744v.266c0,1.26.476,1.582,2.2,1.582h3.066c1.414,0,1.792-.434,1.96-2.128a2.717,2.717,0,0,1-1.106-.42c-.084,1.3-.224,1.54-.924,1.54Zm18.8-5.614H-27.3v-1.162a21,21,0,0,0,4.508-3.388l-.98-.742-.294.084h-8.806v1.274h7.434A16.377,16.377,0,0,1-27.9,144.16h-.756v2.226h-5.656v1.3h5.656V151.5c0,.238-.084.308-.378.322-.322,0-1.372.014-2.422-.028a5.488,5.488,0,0,1,.56,1.344,9.646,9.646,0,0,0,2.814-.224c.588-.224.784-.6.784-1.4v-3.822h5.642Zm4.214-1.442V143.81h2.772v1.134Zm0-3.206h2.772v1.106h-2.772Zm6.93,1.106H-13.4v-1.106h2.884Zm0,2.1H-13.4V143.81h2.884Zm2.758,3.864H-13.4v-.966h4.592v-1.05H-13.4v-.84h4.186v-5.236H-18.69v5.236h4.018v.84h-4.354v1.05h4.354v.966h-5.516v1.12H-7.756Zm-11.312,4.34a6.2,6.2,0,0,0,1.624-2.576l-1.246-.308a5.327,5.327,0,0,1-1.582,2.324Zm2.814-2.436a12.928,12.928,0,0,1,.21,2.3l1.274-.14a12.676,12.676,0,0,0-.28-2.254Zm2.772.042a14.136,14.136,0,0,1,.7,2.268l1.274-.294a11.317,11.317,0,0,0-.77-2.212Zm2.786-.07a14.925,14.925,0,0,1,1.722,2.436l1.3-.476a15.194,15.194,0,0,0-1.82-2.38Zm9.534-2.856c-.266-.378-1.484-1.988-1.89-2.45v-.994h1.708v-1.2H-3.052v-2.926H-4.27v2.926H-6.244v1.2H-4.41a14.786,14.786,0,0,1-2.17,5.026,7.255,7.255,0,0,1,.644,1.176A13.829,13.829,0,0,0-4.27,147.03v6.062h1.218v-6.174a19.781,19.781,0,0,1,1.12,1.932Zm5.768-2a10.56,10.56,0,0,1-1.47,3.346,12.181,12.181,0,0,1-1.526-3.346Zm.658-1.232-.21.042H.588V142.3H6.2v-1.2H-.672v3.892c0,2.2-.154,5.208-1.736,7.308a4.8,4.8,0,0,1,1.036.784C.056,151.216.462,148.5.56,146.274a13.624,13.624,0,0,0,1.792,3.92A7.752,7.752,0,0,1-.2,152.07a4.618,4.618,0,0,1,.784,1.022,9.495,9.495,0,0,0,2.548-1.89A8.142,8.142,0,0,0,5.7,153.134a4.973,4.973,0,0,1,.868-1.078,7.418,7.418,0,0,1-2.618-1.848,12.825,12.825,0,0,0,2.128-5.362Zm6.174-3.6-1.386.574c.658,1.5,1.358,3.08,2,4.256-1.428,1.008-2.38,2.156-2.38,3.64,0,2.24,1.988,3.01,4.69,3.01a26.728,26.728,0,0,0,4.452-.336l.014-1.6a20.858,20.858,0,0,1-4.522.5c-2.086,0-3.136-.644-3.136-1.736,0-1.022.784-1.9,2.016-2.716,1.33-.868,3.192-1.736,4.116-2.212.448-.224.84-.434,1.2-.658l-.77-1.274a7.763,7.763,0,0,1-1.12.742c-.728.406-2.114,1.092-3.346,1.834A32.71,32.71,0,0,1,11.438,141Zm14.042,8.316a12.243,12.243,0,0,1-3.612,2.884,10.872,10.872,0,0,1,1.05.91,15.823,15.823,0,0,0,3.934-3.262Zm3.626.63a42.349,42.349,0,0,1,3.752,3.15l1.26-.756a44.394,44.394,0,0,0-3.864-3.066Zm-2.912-5.614h3.612v3.024H26.194Zm4.97,3.024v-3.024h2.688v-1.26H31.164v-2.7H29.806v2.7H26.194v-2.7H24.85v2.7H22.26v1.26h2.59v3.024H21.728v1.274H34.314v-1.274Zm12.166-2.66v1.022H41.314v-1.022Zm3.262,1.022H44.506v-1.022h2.086Zm-2.086,2v-1.05h2.086v1.05Zm-3.192,0v-1.05H43.33v1.05Zm0,.98H43.33v2.156h1.176V148.7h2.086v.98c0,.168-.056.224-.21.224s-.7.014-1.288-.014a3.569,3.569,0,0,1,.35,1.05,5.324,5.324,0,0,0,1.876-.182c.406-.182.5-.476.5-1.064v-5.964H46.1c-.266-.154-.588-.322-.952-.49a13.841,13.841,0,0,0,2.674-1.9l-.784-.63-.266.07H40.152v1.022H45.57a11.283,11.283,0,0,1-1.54.938c-.616-.266-1.26-.518-1.806-.714l-.84.7c.714.28,1.554.644,2.31,1.008H40.1v7.168h1.218Zm-2.2-5.95a11.105,11.105,0,0,0-2.394-2.184l-.91.812a10.772,10.772,0,0,1,2.338,2.31Zm-.35,2.94H35.6v1.2H37.52v3.346a21.835,21.835,0,0,1-2.086,1.456l.616,1.288c.784-.588,1.484-1.162,2.156-1.736A4.665,4.665,0,0,0,42,152.854c1.624.056,4.564.028,6.174-.042a6.476,6.476,0,0,1,.42-1.274c-1.778.126-5,.168-6.58.1-1.54-.07-2.646-.49-3.248-1.47Z" transform="translate(969 4499)" fill="#0a0a0a"/>
      <path id="パス_6910" data-name="パス 6910" d="M4.886-8.008a18.741,18.741,0,0,1-.77,3.248c-.672-.812-1.372-1.624-2.044-2.324l-.91.742A36.383,36.383,0,0,1,3.556-3.43,8.147,8.147,0,0,1,.448-.014,7.216,7.216,0,0,1,1.33.994,9.47,9.47,0,0,0,4.354-2.3,14.142,14.142,0,0,1,5.446-.406L6.5-1.288A17.113,17.113,0,0,0,5-3.626,18.98,18.98,0,0,0,6.16-7.84ZM13.4-8.526H11.816v-3.22H10.528v3.22H7.294V-9.52h-2.7v-2.212H3.332V-9.52H.784v1.2H6.86v1.05h3.668V-.588c0,.238-.1.308-.336.308S9.2-.266,8.358-.294a6.018,6.018,0,0,1,.42,1.386A6.612,6.612,0,0,0,11.186.826c.448-.238.63-.616.63-1.414V-7.266H13.4ZM9.478-2.954a10.527,10.527,0,0,0-1.526-3.01l-1.064.5a11.656,11.656,0,0,1,1.47,3.066ZM17-8.778h10.29v-1.26H22.092v-1.708H20.734v1.708h-5.04v3.556c0,2-.1,4.844-1.232,6.832a6.636,6.636,0,0,1,1.106.742C16.786-1.05,17-4.3,17-6.482Zm7.294,2.31A17.424,17.424,0,0,0,21-8.512l-.882.854A17.263,17.263,0,0,1,23.352-5.5Zm-6.244,6.3a12.122,12.122,0,0,0,1.162-4.48l-1.19-.266A10.578,10.578,0,0,1,16.884-.686Zm3.766-.168c-.476,0-.574-.084-.574-.574V-6.048H19.964V-.91c0,1.33.336,1.75,1.652,1.75h1.82C24.668.84,25,.2,25.13-2.128a4.1,4.1,0,0,1-1.148-.532c-.07,1.974-.14,2.324-.644,2.324Zm2.646-4.452a15.435,15.435,0,0,1,1.848,4.62L27.58-.7a14.962,14.962,0,0,0-1.974-4.55Zm6.02-5.306v1.4c.392-.028.812-.042,1.3-.042H33.5v2.7H30.968c-.406,0-1.022-.028-1.414-.07v1.47c.406-.028,1.036-.056,1.414-.056H33.5v2.954c0,1.26.644,2.072,2.954,2.072,1.33,0,2.772-.056,3.794-.126l.084-1.5a30.229,30.229,0,0,1-3.64.2c-1.218,0-1.708-.35-1.708-1.092V-4.69h4.536c.308,0,.868,0,1.232.028L40.74-6.09c-.336.028-.952.056-1.246.056H34.986v-2.7h3.486c.5,0,.854.028,1.2.042v-1.4a9.929,9.929,0,0,1-1.2.056H31.78C31.29-10.038,30.87-10.066,30.478-10.094Zm14.28-.28v1.442c.378-.028.9-.056,1.372-.056h4.718c.448,0,.952.028,1.4.056v-1.442a11.74,11.74,0,0,1-1.4.084H46.116A10.557,10.557,0,0,1,44.758-10.374ZM43.106-6.832v1.456c.392-.028.854-.042,1.274-.042h4.046a6.471,6.471,0,0,1-.84,3.3A5.83,5.83,0,0,1,45-.028l1.288.952A6.846,6.846,0,0,0,49.07-1.694a8.593,8.593,0,0,0,.868-3.724H53.55c.364,0,.84.014,1.176.028V-6.832a8.931,8.931,0,0,1-1.176.07H44.38A12.267,12.267,0,0,1,43.106-6.832Zm9.912-4.606-.9.378a16.71,16.71,0,0,1,1.106,1.932l.924-.392A20.288,20.288,0,0,0,53.018-11.438Zm1.582-.6-.9.378A14.051,14.051,0,0,1,54.852-9.73l.91-.406A17.84,17.84,0,0,0,54.6-12.04ZM63.21-.308l.924.77a4.352,4.352,0,0,1,.532-.35A14.731,14.731,0,0,0,69.44-3.752l-.854-1.2a9.849,9.849,0,0,1-3.808,3.22V-9.478a8.432,8.432,0,0,1,.07-1.12H63.224a10.261,10.261,0,0,1,.084,1.12V-1.19A4.038,4.038,0,0,1,63.21-.308ZM56.756-.434l1.344.9a7.865,7.865,0,0,0,2.492-3.92,30.671,30.671,0,0,0,.434-5.978,10.479,10.479,0,0,1,.07-1.12H59.472a4.363,4.363,0,0,1,.112,1.134,24.275,24.275,0,0,1-.406,5.586A6.48,6.48,0,0,1,56.756-.434ZM3.542,30.776H5.1V29.544H3.542V26.436H2.324v3.108H.6v1.232H2.324v4.2c-.7.294-1.344.546-1.848.714l.5,1.316c1.246-.56,2.842-1.288,4.312-2L5,33.856c-.476.2-.98.406-1.456.616ZM8.26,37.65c-.9,0-1.05-.154-1.05-.938V32.12l1.568-.672v4.508H10V30.93l1.624-.7c0,2.128-.028,3.43-.084,3.71s-.182.336-.364.336c-.14,0-.518,0-.812-.014a4.021,4.021,0,0,1,.294,1.106A4.314,4.314,0,0,0,12,35.214c.434-.112.672-.42.742-1.008.084-.546.112-2.45.112-5.054l.056-.224-.91-.35-.224.182-.252.2L10,29.6V26.268H8.778v3.85l-1.568.658V27.584H5.978v3.71l-1.456.616.49,1.148.966-.406V36.7c0,1.68.49,2.114,2.212,2.114H11.4c1.526,0,1.918-.63,2.1-2.562a3.761,3.761,0,0,1-1.148-.476c-.112,1.526-.252,1.876-1.022,1.876Zm12.992-.532V31.91h5.054v-1.3H21.252V26.45h-1.4V37.118h-5.11v1.316h12.53V37.118Zm9.506-9.492v1.442c.378-.028.9-.056,1.372-.056h4.718c.448,0,.952.028,1.4.056V27.626a11.74,11.74,0,0,1-1.4.084H32.116A10.557,10.557,0,0,1,30.758,27.626Zm-1.652,3.542v1.456c.392-.028.854-.042,1.274-.042h4.046a6.471,6.471,0,0,1-.84,3.3A5.83,5.83,0,0,1,31,37.972l1.288.952a6.846,6.846,0,0,0,2.786-2.618,8.593,8.593,0,0,0,.868-3.724H39.55c.364,0,.84.014,1.176.028V31.168a8.931,8.931,0,0,1-1.176.07H30.38A12.268,12.268,0,0,1,29.106,31.168Zm9.912-4.606-.9.378a16.711,16.711,0,0,1,1.106,1.932l.924-.392A20.288,20.288,0,0,0,39.018,26.562Zm1.582-.6-.9.378a14.051,14.051,0,0,1,1.148,1.932l.91-.406A17.841,17.841,0,0,0,40.6,25.96Zm11.508,1.456-.952.406a12.471,12.471,0,0,1,1.26,2.2l.98-.42A20.4,20.4,0,0,0,52.108,27.416Zm1.876-.672-.966.406a13.605,13.605,0,0,1,1.316,2.156l.98-.434A20.506,20.506,0,0,0,53.984,26.744Zm-7.9.434-.8,1.218c.854.49,2.352,1.47,3.066,1.988l.84-1.2C48.524,28.7,46.956,27.668,46.088,27.178ZM43.764,37.16,44.59,38.6a16.079,16.079,0,0,0,10.122-6.748l-.854-1.484A14.3,14.3,0,0,1,48.5,35.564,15.374,15.374,0,0,1,43.764,37.16Zm.182-6.8-.784,1.2a34.758,34.758,0,0,1,3.108,1.96l.812-1.246C46.424,31.812,44.828,30.832,43.946,30.356ZM63.42,26.968l-1.6-.5a6.558,6.558,0,0,1-.532,1.26,12.838,12.838,0,0,1-4.48,4.774l1.19.924a15.855,15.855,0,0,0,3.7-3.668h4.424a11.475,11.475,0,0,1-1.75,3.528c-.938-.644-1.918-1.274-2.758-1.764l-.966.994c.812.518,1.82,1.2,2.786,1.9a11.9,11.9,0,0,1-5.292,3.22l1.274,1.12A13.336,13.336,0,0,0,64.61,35.3c.574.462,1.106.9,1.5,1.26l1.036-1.232c-.434-.35-.98-.77-1.568-1.19a16.031,16.031,0,0,0,2.142-4.228,7.044,7.044,0,0,1,.378-.868l-1.134-.7a3.259,3.259,0,0,1-1.05.154H62.538c.056-.1.1-.182.154-.28C62.846,27.934,63.14,27.388,63.42,26.968ZM76.93,37.692l.924.77a4.351,4.351,0,0,1,.532-.35,14.731,14.731,0,0,0,4.774-3.864l-.854-1.2a9.849,9.849,0,0,1-3.808,3.22V28.522a8.432,8.432,0,0,1,.07-1.12H76.944a10.261,10.261,0,0,1,.084,1.12V36.81A4.038,4.038,0,0,1,76.93,37.692Zm-6.454-.126,1.344.9a7.865,7.865,0,0,0,2.492-3.92,30.671,30.671,0,0,0,.434-5.978,10.479,10.479,0,0,1,.07-1.12H73.192a4.363,4.363,0,0,1,.112,1.134,24.275,24.275,0,0,1-.406,5.586A6.48,6.48,0,0,1,70.476,37.566Zm22.064-7.56h2.31a14.088,14.088,0,0,1-1.162,4.088,17.613,17.613,0,0,1-1.2-3.92Zm4.634,0V28.8H92.9q.294-1.134.5-2.352l-1.33-.21a14.108,14.108,0,0,1-2.128,6.048l.014-.434c.014-.168.014-.56.014-.56H87.122V29.656H90.51V28.438H88.06v-2.17H86.772v2.17H84.378v1.218H85.9v2.8a8.069,8.069,0,0,1-1.82,5.768,5.144,5.144,0,0,1,.966.84c1.806-1.946,2.072-4.3,2.072-6.58h1.6c-.07,3.626-.168,4.928-.392,5.222a.407.407,0,0,1-.406.2c-.224,0-.686-.014-1.2-.042a2.978,2.978,0,0,1,.336,1.176,8.321,8.321,0,0,0,1.5-.028,1.114,1.114,0,0,0,.882-.518c.336-.448.42-1.946.518-6.006a11.924,11.924,0,0,1,1.022.8,8.138,8.138,0,0,0,.742-1.246,16.909,16.909,0,0,0,1.218,3.36,7.785,7.785,0,0,1-3.262,2.59,5.424,5.424,0,0,1,.728,1.148,9.289,9.289,0,0,0,3.234-2.562A7.566,7.566,0,0,0,96.39,39.05a4.927,4.927,0,0,1,.9-1.12A6.74,6.74,0,0,1,94.43,35.4a16.063,16.063,0,0,0,1.722-5.39Zm13.8,2.8V31.644h-3.892V29.978h3.458V28.8h-2.03a23.727,23.727,0,0,0,1.414-2.142l-1.33-.42a11.976,11.976,0,0,1-1.232,2.282l.8.28h-3.458l.77-.336a7.466,7.466,0,0,0-1.246-2.184l-1.106.462a7.966,7.966,0,0,1,1.134,2.058h-1.6v1.176h3.108v1.666H102.2v1.162h3.43c-.266,1.12-1.078,2.338-3.374,3.234a4.089,4.089,0,0,1,.854.938,6.411,6.411,0,0,0,3.542-3.192,5.7,5.7,0,0,0,3.528,3.234,4.837,4.837,0,0,1,.84-1.092,4.925,4.925,0,0,1-3.542-3.122Zm-9.086-4.088A10.676,10.676,0,0,0,99.5,26.576l-.966.784a10.518,10.518,0,0,1,2.338,2.212Zm-.378,2.968H98.448v1.2h1.792v3.29a21.1,21.1,0,0,1-2.03,1.442l.672,1.344c.728-.6,1.4-1.162,2.058-1.736a4.794,4.794,0,0,0,3.864,1.61c1.6.07,4.41.042,5.992-.028a5.93,5.93,0,0,1,.434-1.33c-1.75.112-4.858.154-6.412.1a3.807,3.807,0,0,1-3.3-1.47ZM1.358,76H4.8c2.282,0,3.948-.98,3.948-3.024a2.366,2.366,0,0,0-2.03-2.45v-.07A2.292,2.292,0,0,0,8.19,68.23c0-1.862-1.526-2.548-3.64-2.548H1.358Zm1.624-6.006V66.956H4.41c1.456,0,2.184.406,2.184,1.484,0,.966-.658,1.554-2.226,1.554Zm0,4.732V71.212H4.62c1.638,0,2.534.518,2.534,1.68,0,1.26-.924,1.834-2.534,1.834ZM10,72.64h3.7V71.45H10Zm9.716,3.542A4.069,4.069,0,0,0,22.918,74.7l-.868-1.022a2.981,2.981,0,0,1-2.282,1.092c-1.82,0-2.968-1.5-2.968-3.948,0-2.422,1.232-3.906,3.01-3.906a2.741,2.741,0,0,1,2.016.924l.882-1.036a3.971,3.971,0,0,0-2.926-1.3c-2.6,0-4.648,2.016-4.648,5.376S17.122,76.182,19.712,76.182Zm7-5.782c.336-1.12.658-2.254.952-3.43h.07c.308,1.162.616,2.31.966,3.43l.406,1.386H26.292ZM23.38,76h1.652l.882-2.94H29.5L30.366,76h1.722L28.672,65.682H26.8Zm13.006.182c2.254,0,3.626-1.344,3.626-3a2.877,2.877,0,0,0-2.1-2.786L36.5,69.8c-.84-.336-1.666-.672-1.666-1.568,0-.812.686-1.316,1.736-1.316a3.282,3.282,0,0,1,2.268.924L39.69,66.8a4.414,4.414,0,0,0-3.122-1.3c-1.96,0-3.388,1.218-3.388,2.842a2.964,2.964,0,0,0,2.1,2.7l1.428.616c.952.42,1.652.714,1.652,1.652,0,.868-.7,1.456-1.946,1.456A4,4,0,0,1,33.67,73.55l-.952,1.12A5.141,5.141,0,0,0,36.386,76.182ZM47.852,64.9H46.214a8.9,8.9,0,0,1,.1,1.2q0,.714-.042,1.344H44.016c-.546,0-1.176-.042-1.708-.084v1.456c.532-.042,1.19-.056,1.708-.056h2.128a8.7,8.7,0,0,1-2.562,5.5,7.471,7.471,0,0,1-1.61,1.176l1.288,1.05c2.408-1.694,3.794-3.836,4.312-7.728h3.584c0,1.512-.182,4.676-.658,5.656a.74.74,0,0,1-.8.476,16.028,16.028,0,0,1-2.03-.168l.168,1.47c.714.056,1.526.1,2.282.1a1.561,1.561,0,0,0,1.624-.952c.616-1.372.8-5.376.84-6.79.014-.168.056-.476.1-.714l-.98-.476a6.365,6.365,0,0,1-.966.084H47.712c.028-.434.056-.9.07-1.372C47.8,65.738,47.824,65.22,47.852,64.9Zm8.106,4.858v1.736c.476-.042,1.316-.07,2.086-.07H65.66c.616,0,1.26.056,1.568.07V69.756c-.35.028-.9.084-1.568.084H58.044C57.288,69.84,56.42,69.784,55.958,69.756Zm21.98-3.976L77,66.186a12.755,12.755,0,0,1,1.232,2.142l.98-.434A17.259,17.259,0,0,0,77.938,65.78Zm1.764-.728-.938.434a13.991,13.991,0,0,1,1.288,2.1l.966-.476A20.785,20.785,0,0,0,79.7,65.052Zm-6.958,9.856a14.835,14.835,0,0,1-.112,1.792H74.34c-.056-.5-.1-1.358-.1-1.792,0-.462,0-2.394-.014-4.326a39.122,39.122,0,0,1,5.306,2.17l.616-1.512A45.352,45.352,0,0,0,74.228,69V66.816c0-.5.07-1.106.112-1.568H72.618a10,10,0,0,1,.126,1.568ZM11.536,103.766l-1.624-.574A9.856,9.856,0,0,1,9.6,104.34a15.487,15.487,0,0,1-1.75,3.612C6.734,107.1,5.18,106.02,4,105.278L3.08,106.4a39.754,39.754,0,0,1,3.864,2.758A15.216,15.216,0,0,1,1.5,113.44l1.232,1.106a17.478,17.478,0,0,0,5.362-4.438,31.233,31.233,0,0,1,3.22,3.164l1.12-1.232a34.289,34.289,0,0,0-3.416-3.164,20.075,20.075,0,0,0,2.016-3.976A10.326,10.326,0,0,1,11.536,103.766Zm4.914.952v1.6c.448-.028.994-.042,1.5-.042h5.894c.476,0,1.064.014,1.456.042v-1.6a14.275,14.275,0,0,1-1.456.07H17.934C17.472,104.788,16.912,104.76,16.45,104.718Zm-1.2,6.888V113.3c.5-.042,1.078-.07,1.6-.07h8.232c.392,0,.938.028,1.4.07v-1.694a11.74,11.74,0,0,1-1.4.084H16.842C16.324,111.69,15.764,111.648,15.246,111.606Zm23.2-4.27-1.064-.518a2.836,2.836,0,0,1-.84.112H32.564a12.112,12.112,0,0,1-1.232-.07v1.456c.378-.014.826-.042,1.246-.042h4.158c-.042.784-.406,3.192-.6,4.382H31.29a11.375,11.375,0,0,1-1.26-.07v1.442c.476-.014.8-.028,1.26-.028h7.546c.336,0,.924.014,1.19.028V112.6c-.322.028-.9.056-1.218.056H37.632c.2-1.3.588-3.92.7-4.816C38.36,107.7,38.4,107.49,38.444,107.336Zm4.914.42v1.736c.476-.042,1.316-.07,2.086-.07H53.06c.616,0,1.26.056,1.568.07v-1.736c-.35.028-.9.084-1.568.084H45.444C44.688,107.84,43.82,107.784,43.358,107.756Zm-32.326,33.52H9.366a10.825,10.825,0,0,1,.084,1.288v2.408c0,2.45-.182,3.542-1.162,4.662a6.53,6.53,0,0,1-3.36,1.82l1.162,1.218a7.646,7.646,0,0,0,3.346-2.044c1.036-1.176,1.54-2.366,1.54-5.572v-2.492C10.976,142.06,11,141.64,11.032,141.276Zm-6.5.112H2.926a9.043,9.043,0,0,1,.056,1.036v4.69c0,.406-.042.9-.056,1.134h1.61c-.028-.28-.056-.77-.056-1.134v-4.69C4.48,142.032,4.508,141.682,4.536,141.388Zm11.942.518v1.4c.392-.028.812-.042,1.3-.042H19.5v2.7H16.968c-.406,0-1.022-.028-1.414-.07v1.47c.406-.028,1.036-.056,1.414-.056H19.5v2.954c0,1.26.644,2.072,2.954,2.072,1.33,0,2.772-.056,3.794-.126l.084-1.5a30.229,30.229,0,0,1-3.64.2c-1.218,0-1.708-.35-1.708-1.092V147.31h4.536c.308,0,.868,0,1.232.028l-.014-1.428c-.336.028-.952.056-1.246.056H20.986v-2.7h3.486c.5,0,.854.028,1.2.042v-1.4a9.93,9.93,0,0,1-1.2.056H17.78C17.29,141.962,16.87,141.934,16.478,141.906Zm13.832.35v1.554c.364-.028,1.078-.056,1.624-.056h6.538V150H31.766c-.6,0-1.218-.042-1.624-.07v1.582c.406-.028,1.106-.056,1.68-.056h6.636c0,.294-.014.56-.014.756h1.6c-.028-.308-.056-.994-.056-1.484v-7.238c0-.364.014-.868.028-1.176-.252.014-.742.028-1.12.028H31.934C31.472,142.34,30.8,142.3,30.31,142.256Zm14.952-.686-1.022,1.092a30.365,30.365,0,0,1,3.5,2.968l1.106-1.134A29.379,29.379,0,0,0,45.262,141.57Zm-1.442,9.366.938,1.442a15.436,15.436,0,0,0,5.362-2.086,14.314,14.314,0,0,0,4.914-5.068L54.18,143.7a13.33,13.33,0,0,1-4.858,5.278A14.547,14.547,0,0,1,43.82,150.936Z" transform="translate(641 4499)" fill="#0a0a0a"/>
    </g>
  </g>
</svg>
