<svg xmlns="http://www.w3.org/2000/svg" width="510" height="98" viewBox="0 0 510 98">
  <g id="グループ_3988" data-name="グループ 3988" transform="translate(-623 -5348)">
    <g id="グループ_1861" data-name="グループ 1861" transform="translate(0 50)">
      <path id="パス_6911" data-name="パス 6911" d="M0,0H182V98H0Z" transform="translate(623 5298)" fill="#e4f5f2"/>
      <path id="パス_6912" data-name="パス 6912" d="M0,0V98" transform="translate(805 5298)" fill="none" stroke="#cecece" stroke-width="1"/>
      <g id="パス_6913" data-name="パス 6913" transform="translate(623 5298)" fill="none">
        <path d="M0,0H510V98H0Z" stroke="none"/>
        <path d="M 1 1 L 1 97 L 509 97 L 509 1 L 1 1 M 0 0 L 510 0 L 510 98 L 0 98 L 0 0 Z" stroke="none" fill="#cecece"/>
      </g>
      <path id="パス_6914" data-name="パス 6914" d="M0,0H510" transform="translate(623 5336)" fill="none" stroke="#cecece" stroke-width="1"/>
      <path id="パス_6915" data-name="パス 6915" d="M-31.6,0h1.722l1.316-2.562c.252-.532.518-1.05.8-1.68h.056c.322.63.588,1.148.854,1.68L-25.494,0h1.806l-2.968-5.236,2.772-5.082h-1.708L-26.81-7.9c-.238.476-.434.938-.7,1.554h-.07c-.308-.616-.532-1.078-.784-1.554l-1.246-2.422h-1.806l2.772,5Zm12.376-10.906-.8,1.2c.868.49,2.366,1.484,3.08,2l.826-1.2C-16.772-9.38-18.354-10.416-19.222-10.906Zm-2.31,9.982.826,1.442a16.4,16.4,0,0,0,4.648-1.736A16.666,16.666,0,0,0-10.584-6.23l-.854-1.484A14.4,14.4,0,0,1-16.8-2.52,15.374,15.374,0,0,1-21.532-.924Zm.182-6.8-.8,1.2a35.037,35.037,0,0,1,3.122,1.96l.812-1.246C-18.872-6.272-20.468-7.266-21.35-7.728Zm22.9-3H-.112A10.825,10.825,0,0,1-.028-9.436v2.408c0,2.45-.182,3.542-1.162,4.662A6.53,6.53,0,0,1-4.55-.546L-3.388.672A7.646,7.646,0,0,0-.042-1.372C.994-2.548,1.5-3.738,1.5-6.944V-9.436C1.5-9.94,1.526-10.36,1.554-10.724Zm-6.5.112h-1.61A9.043,9.043,0,0,1-6.5-9.576v4.69c0,.406-.042.9-.056,1.134h1.61C-4.97-4.032-5-4.522-5-4.886v-4.69C-5-9.968-4.97-10.318-4.942-10.612ZM5.88-6.244v1.736c.476-.042,1.316-.07,2.086-.07h7.616c.616,0,1.26.056,1.568.07V-6.244c-.35.028-.9.084-1.568.084H7.966C7.21-6.16,6.342-6.216,5.88-6.244Zm22.61-5.264-.91.378a16.086,16.086,0,0,1,1.008,1.736l-.546-.42a4.247,4.247,0,0,1-1.218.14H21.63c-.434,0-1.246-.042-1.526-.084v1.582c.224-.014.98-.084,1.526-.084h5.138a11.518,11.518,0,0,1-2.226,3.7A15.7,15.7,0,0,1,18.788-.476L19.922.714A18.333,18.333,0,0,0,25.312-3.3,32.291,32.291,0,0,1,29.022.77L30.254-.308a37.212,37.212,0,0,0-4-4.1,19.525,19.525,0,0,0,2.3-3.99,4.223,4.223,0,0,1,.406-.728l-.14-.112.8-.35A19.441,19.441,0,0,0,28.49-11.508ZM30.156-12l-.9.378a15.527,15.527,0,0,1,1.134,1.932l.91-.406A18.586,18.586,0,0,0,30.156-12Z" transform="translate(969 5323)" fill="#0a0a0a"/>
      <path id="パス_6916" data-name="パス 6916" d="M-77.672-5.53h1.26V-8.6h4.186v1.848h1.2V-9.492h-5.39v-.714h4.494V-11.2H-82.11v.994h4.438v.714h-5.292v2.744H-81.8V-8.6h4.13Zm1.9-.28h3.22v-.756h-3.22Zm0-2.156v.756h2.87v-.756ZM-81.424-5.81h3.136v-.756h-3.136Zm.28-2.156v.756H-78.3v-.756Zm.658,6.2v-.8h2.744v.8ZM-77.742-4.2v.826h-2.744V-4.2Zm4.228.826H-76.5V-4.2h2.982ZM-76.5-1.764v-.8h2.982v.8ZM-75.46,0C-76.328,0-76.5-.084-76.5-.574V-.84h4.256V-5.11h-9.492V-.168h1.246V-.84h2.744v.266c0,1.26.476,1.582,2.2,1.582h3.066c1.414,0,1.792-.434,1.96-2.128a2.717,2.717,0,0,1-1.106-.42c-.084,1.3-.224,1.54-.924,1.54Zm18.8-5.614H-62.3V-6.776a21,21,0,0,0,4.508-3.388l-.98-.742-.294.084h-8.806v1.274h7.434A16.377,16.377,0,0,1-62.9-7.84h-.756v2.226h-5.656v1.3h5.656V-.5c0,.238-.084.308-.378.322-.322,0-1.372.014-2.422-.028a5.488,5.488,0,0,1,.56,1.344A9.645,9.645,0,0,0-63.084.91c.588-.224.784-.6.784-1.4V-4.312h5.642Zm4.214-1.442V-8.19h2.772v1.134Zm0-3.206h2.772v1.106h-2.772Zm6.93,1.106H-48.4v-1.106h2.884Zm0,2.1H-48.4V-8.19h2.884Zm2.758,3.864H-48.4v-.966h4.592v-1.05H-48.4v-.84h4.186v-5.236H-53.69v5.236h4.018v.84h-4.354v1.05h4.354v.966h-5.516v1.12h12.432Zm-11.312,4.34a6.2,6.2,0,0,0,1.624-2.576l-1.246-.308A5.327,5.327,0,0,1-55.272.588Zm2.814-2.436a12.928,12.928,0,0,1,.21,2.3l1.274-.14a12.676,12.676,0,0,0-.28-2.254Zm2.772.042a14.136,14.136,0,0,1,.7,2.268l1.274-.294a11.317,11.317,0,0,0-.77-2.212Zm2.786-.07A14.925,14.925,0,0,1-43.974,1.12l1.3-.476a15.194,15.194,0,0,0-1.82-2.38Zm9.534-2.856c-.266-.378-1.484-1.988-1.89-2.45v-.994h1.708v-1.2h-1.708v-2.926H-39.27V-8.82h-1.974v1.2h1.834A14.786,14.786,0,0,1-41.58-2.59a7.255,7.255,0,0,1,.644,1.176A13.829,13.829,0,0,0-39.27-4.97V1.092h1.218V-5.082a19.783,19.783,0,0,1,1.12,1.932Zm5.768-2a10.56,10.56,0,0,1-1.47,3.346A12.181,12.181,0,0,1-33.39-6.174Zm.658-1.232-.21.042h-4.466V-9.7H-28.8v-1.2h-6.874v3.892c0,2.2-.154,5.208-1.736,7.308a4.8,4.8,0,0,1,1.036.784c1.428-1.862,1.834-4.578,1.932-6.8a13.624,13.624,0,0,0,1.792,3.92A7.752,7.752,0,0,1-35.2.07a4.617,4.617,0,0,1,.784,1.022A9.495,9.495,0,0,0-31.864-.8,8.142,8.142,0,0,0-29.3,1.134,4.973,4.973,0,0,1-28.434.056a7.418,7.418,0,0,1-2.618-1.848,12.825,12.825,0,0,0,2.128-5.362Zm14.56,2.492a5.182,5.182,0,0,0-5.488-5.278,6.068,6.068,0,0,0-6.258,5.824c0,2.338,1.274,3.878,2.66,3.878s2.548-1.582,3.388-4.438a27.877,27.877,0,0,0,.84-3.934,3.722,3.722,0,0,1,3.388,3.906A4.027,4.027,0,0,1-20.034-.98a8.653,8.653,0,0,1-1.246.2l.826,1.316C-17.052.042-15.176-1.974-15.176-4.914Zm-10.332.406a4.68,4.68,0,0,1,3.99-4.326,22.289,22.289,0,0,1-.77,3.612c-.644,2.156-1.3,3.066-1.932,3.066C-24.822-2.156-25.508-2.9-25.508-4.508Zm13.426-5.236c.028.364.028.854.028,1.218v6.874c0,.56-.028,1.68-.042,1.806h1.526c-.014-.07-.014-.406-.014-.784h7.252c-.014.392-.014.714-.028.784h1.526c0-.112-.028-1.316-.028-1.806V-8.526c0-.392,0-.826.028-1.2-.462.014-.966.014-1.288.014h-7.6C-11.074-9.716-11.522-9.716-12.082-9.744ZM-10.6-8.316h7.266V-2.03H-10.6Zm17.5.14-1.316.434a25.6,25.6,0,0,1,1.12,3.08l1.316-.476C7.84-5.754,7.154-7.588,6.9-8.176Zm5.11.9-1.54-.49A9.717,9.717,0,0,1,8.61-2.982,9.54,9.54,0,0,1,4.018-.028L5.18,1.162A10.849,10.849,0,0,0,9.786-2.226a11.223,11.223,0,0,0,1.96-4.228C11.8-6.678,11.886-6.93,12.012-7.28ZM3.64-7.448l-1.316.476A28.593,28.593,0,0,1,3.6-3.78l1.33-.49C4.662-5.04,3.962-6.8,3.64-7.448Zm18.1-3.444-1.624-.532a6.206,6.206,0,0,1-.518,1.26A11.881,11.881,0,0,1,15.2-5.53l1.232.924a14.62,14.62,0,0,0,3.556-3.43H24.36a10.513,10.513,0,0,1-2.128,4.13,11.217,11.217,0,0,1-5.614,3.5L17.92.756a12.616,12.616,0,0,0,5.6-3.878,13.856,13.856,0,0,0,2.464-4.76,4.791,4.791,0,0,1,.392-.854l-1.148-.7a3.288,3.288,0,0,1-1.05.14h-3.36c.07-.112.14-.238.2-.35C21.168-9.926,21.462-10.472,21.742-10.892Zm12.866-.252-1.456-.112A6.972,6.972,0,0,1,32.83-9.59c-.28.014-.56.014-.826.014A18.1,18.1,0,0,1,29.6-9.73v1.316c.784.056,1.75.084,2.338.084h.406a14.067,14.067,0,0,1-3.164,4.088l1.2.9a15.227,15.227,0,0,1,1.274-1.5,3.568,3.568,0,0,1,2.324-1.008,1.127,1.127,0,0,1,1.148.7c-1.624.826-3.3,1.918-3.3,3.64S33.446.714,35.532.714A35.651,35.651,0,0,0,39.424.462l.042-1.414a23.84,23.84,0,0,1-3.892.364c-1.414,0-2.324-.2-2.324-1.148,0-.826.756-1.47,1.96-2.128-.014.686-.028,1.484-.056,1.974h1.33c-.014-.672-.028-1.792-.042-2.59.98-.448,1.89-.812,2.6-1.092.42-.168,1.022-.392,1.428-.518L39.9-7.378c-.448.224-.854.406-1.33.616-.658.308-1.372.6-2.24,1.008a1.843,1.843,0,0,0-1.876-1.19,4.112,4.112,0,0,0-1.792.42A11.234,11.234,0,0,0,33.74-8.372a43.257,43.257,0,0,0,4.606-.364v-1.3a32.276,32.276,0,0,1-4.116.406C34.412-10.234,34.524-10.752,34.608-11.144ZM46.55-3.528V-4.942H47.6v1.414ZM44.576-4.942H45.64v1.414H44.562c.014-.35.014-.686.014-1.008ZM46.41-9.478a11.78,11.78,0,0,1-.518,1.26H44.464c.21-.392.406-.826.588-1.26Zm.14,2.24H47.6v1.33H46.55Zm-1.974,0H45.64v1.33H44.576Zm9.31-2.73c-.07,1.428-.168,2-.322,2.17a.377.377,0,0,1-.378.126,9.982,9.982,0,0,1-1.134-.056,3.163,3.163,0,0,1,.294,1.078,9.01,9.01,0,0,0,1.414-.014,1.051,1.051,0,0,0,.8-.392c.294-.336.42-1.274.518-3.542.014-.14.014-.448.014-.448H49v1.078h1.736A3.4,3.4,0,0,1,48.678-7.21V-8.218H47.012a17.974,17.974,0,0,0,.84-1.848l-.756-.476-.182.056h-1.47c.112-.336.21-.672.308-1.008l-1.19-.266a10.125,10.125,0,0,1-2.114,4.368,8.778,8.778,0,0,1,.952.77l.126-.154V-4.55A9.777,9.777,0,0,1,42.49.546a5.128,5.128,0,0,1,.924.574,8.258,8.258,0,0,0,1.078-3.654H47.6V-.252c0,.182-.07.238-.252.252s-.756,0-1.428-.014a4.138,4.138,0,0,1,.406,1.092,4.819,4.819,0,0,0,1.862-.2c.378-.2.49-.56.49-1.12V-7.084a3.557,3.557,0,0,1,.616.812,4.418,4.418,0,0,0,2.646-3.7Zm1.582,7.406H52.92V-4.074H55.2v-1.12H52.92V-6.538H51.688v1.344h-.98q.147-.5.252-1.008l-1.078-.224a7.93,7.93,0,0,1-1.2,3.08,5.937,5.937,0,0,1,.98.518,6.9,6.9,0,0,0,.658-1.246h1.372v1.512H48.916v1.134h2.772V1.036H52.92V-1.428h2.548ZM60.424-11.2l-.2.042h-3.08V1.106H58.3V-9.982h1.5c-.266.952-.63,2.2-.98,3.136a3.84,3.84,0,0,1,1.134,2.618c0,.406-.056.742-.252.882a.754.754,0,0,1-.434.126,4.219,4.219,0,0,1-.714-.014,2.542,2.542,0,0,1,.308,1.12,6.639,6.639,0,0,0,.924-.014,1.884,1.884,0,0,0,.756-.28,1.938,1.938,0,0,0,.574-1.666,4.238,4.238,0,0,0-1.162-2.912c.448-1.092.938-2.548,1.33-3.724Zm1.862,7.868A7.387,7.387,0,0,1,60.48-.462a8.417,8.417,0,0,1,.938.742,9.594,9.594,0,0,0,2-3.346Zm.238-4.4a12.6,12.6,0,0,0,2.534-2.828,13.54,13.54,0,0,0,2.66,2.828ZM68.852-3.99V-5.11H65.7V-6.636h2.1V-7.658a13.008,13.008,0,0,0,1.092.77,7.112,7.112,0,0,1,.7-1.106,11.9,11.9,0,0,1-4-3.724H64.428A10.51,10.51,0,0,1,60.62-7.882a4.129,4.129,0,0,1,.658,1.05,9.124,9.124,0,0,0,1.148-.826v1.022H64.47V-5.11H61.544v1.12H64.47V-.322c0,.168-.056.224-.224.224s-.742.014-1.33-.014a4.2,4.2,0,0,1,.42,1.218A4.564,4.564,0,0,0,65.184.882c.406-.21.518-.56.518-1.19V-3.99ZM66.486-2.912A16.123,16.123,0,0,1,68.278.224l1.078-.546a15,15,0,0,0-1.89-3.052Zm10.122-8.232-1.456-.112A6.972,6.972,0,0,1,74.83-9.59c-.28.014-.56.014-.826.014A18.1,18.1,0,0,1,71.6-9.73v1.316c.784.056,1.75.084,2.338.084h.406a14.066,14.066,0,0,1-3.164,4.088l1.2.9a15.228,15.228,0,0,1,1.274-1.5,3.568,3.568,0,0,1,2.324-1.008,1.127,1.127,0,0,1,1.148.7c-1.624.826-3.3,1.918-3.3,3.64S75.446.714,77.532.714A35.651,35.651,0,0,0,81.424.462l.042-1.414a23.84,23.84,0,0,1-3.892.364c-1.414,0-2.324-.2-2.324-1.148,0-.826.756-1.47,1.96-2.128-.014.686-.028,1.484-.056,1.974h1.33c-.014-.672-.028-1.792-.042-2.59.98-.448,1.89-.812,2.6-1.092.42-.168,1.022-.392,1.428-.518L81.9-7.378c-.448.224-.854.406-1.33.616-.658.308-1.372.6-2.24,1.008a1.843,1.843,0,0,0-1.876-1.19,4.112,4.112,0,0,0-1.792.42A11.234,11.234,0,0,0,75.74-8.372a43.257,43.257,0,0,0,4.606-.364v-1.3a32.277,32.277,0,0,1-4.116.406C76.412-10.234,76.524-10.752,76.608-11.144ZM-88.62,11.228h-1.61c.028.14.07.574.112,1.022.014.168.014.406.028.714-2,.028-4.606.1-6.188.126l.042,1.344c1.736-.112,4.032-.2,6.16-.224,0,.406.014.826.014,1.19a2.8,2.8,0,0,0-.784-.1,2.528,2.528,0,0,0-2.6,2.52A2.338,2.338,0,0,0-91.1,20.258a2.193,2.193,0,0,0,.98-.21,5.379,5.379,0,0,1-3.612,2.058l1.19,1.176c3.318-.966,4.312-3.164,4.312-5.026a3.448,3.448,0,0,0-.49-1.862c0-.63,0-1.442-.014-2.2,2.03,0,3.36.028,4.186.07l.028-1.316h-4.2c0-.28,0-.532.014-.7A8.158,8.158,0,0,1-88.62,11.228Zm-3.514,6.566a1.261,1.261,0,0,1,1.274-1.316,1.154,1.154,0,0,1,1.092.672c.182,1.316-.364,1.89-1.092,1.89A1.228,1.228,0,0,1-92.134,17.794ZM-78.3,20.846a.931.931,0,0,1,1.022-.8,1.72,1.72,0,0,1,1.652,1.736,7.461,7.461,0,0,1-.994.056C-77.616,21.84-78.3,21.462-78.3,20.846Zm-2.044-8.918.042,1.442c.322-.042.686-.07,1.036-.084.728-.042,3.15-.154,3.892-.182-.7.616-2.324,1.96-3.108,2.6-.826.686-2.576,2.156-3.668,3.052L-81.13,19.8c1.652-1.764,2.968-2.814,5.208-2.814,1.75,0,3.038.952,3.038,2.268a2.274,2.274,0,0,1-1.484,2.2A2.763,2.763,0,0,0-77.28,19a2.128,2.128,0,0,0-2.31,1.974c0,1.274,1.288,2.128,3.22,2.128,3.15,0,4.928-1.6,4.928-3.822,0-1.96-1.736-3.4-4.074-3.4a5.8,5.8,0,0,0-1.68.238c.994-.812,2.716-2.268,3.43-2.8.294-.224.588-.42.882-.6l-.77-1.008a4.174,4.174,0,0,1-.9.126c-.756.07-3.948.154-4.676.154A10.169,10.169,0,0,1-80.346,11.928Zm18.76,7.1-1.3-.126a8.227,8.227,0,0,0-.238,1.75c0,1.386,1.232,2.128,3.514,2.128a21.617,21.617,0,0,0,2.772-.2l.042-1.414a15.821,15.821,0,0,1-2.8.28c-1.792,0-2.17-.574-2.17-1.2A5.14,5.14,0,0,1-61.586,19.026Zm-1.6-7.714-1.68-.126a5.727,5.727,0,0,1-.056,1.26c-.028.266-.1.63-.168,1.05-.49.042-.966.056-1.4.056a13.193,13.193,0,0,1-1.708-.112l.028,1.372c.5.042,1.022.056,1.666.056.35,0,.728-.014,1.134-.028-.112.462-.224.924-.336,1.358a32.381,32.381,0,0,1-2.38,6.272l1.526.518a42.292,42.292,0,0,0,2.212-6.44c.154-.588.308-1.232.448-1.834a25.085,25.085,0,0,0,2.814-.476V12.852a24.565,24.565,0,0,1-2.534.49c.07-.308.126-.588.168-.826C-63.392,12.236-63.266,11.662-63.182,11.312Zm1.106,4.256v1.3a23.561,23.561,0,0,1,2.646-.154,17.692,17.692,0,0,1,2.38.182l.042-1.344a23.729,23.729,0,0,0-2.45-.112C-60.354,15.442-61.32,15.5-62.076,15.568Zm16.058-4.074-1.526-.14a5.77,5.77,0,0,1-.1,1.19c-.042.28-.1.56-.168.854a7.393,7.393,0,0,0-3.43.938c-.112-.35-.21-.686-.294-.994-.1-.406-.21-.868-.294-1.274l-1.456.448a8.776,8.776,0,0,1,.518,1.358c.126.392.252.812.392,1.218a5.976,5.976,0,0,0-2.114,4.368c0,1.722.966,2.646,2.072,2.646a3.673,3.673,0,0,0,2.758-1.638c.182.238.378.462.588.7l1.106-.9a7.51,7.51,0,0,1-.812-.924A17.692,17.692,0,0,0-46.8,14.714a3.248,3.248,0,0,1,2.646,3.332c0,1.974-1.442,3.528-4.438,3.794l.84,1.26c2.954-.434,5.012-2.128,5.012-5A4.492,4.492,0,0,0-46.48,13.5c.07-.252.126-.5.182-.756C-46.228,12.432-46.116,11.858-46.018,11.494ZM-53.2,19.362a4.607,4.607,0,0,1,1.288-3A15.8,15.8,0,0,0-50.6,19.11a2.435,2.435,0,0,1,.154.252c-.574.756-1.218,1.33-1.834,1.33C-52.85,20.692-53.2,20.174-53.2,19.362Zm3.444-1.414a15.838,15.838,0,0,1-1.078-2.422,6.052,6.052,0,0,1,2.688-.882,17.223,17.223,0,0,1-1.484,3.514Zm21.014-.462a5.182,5.182,0,0,0-5.488-5.278,6.068,6.068,0,0,0-6.258,5.824c0,2.338,1.274,3.878,2.66,3.878s2.548-1.582,3.388-4.438a27.877,27.877,0,0,0,.84-3.934,3.722,3.722,0,0,1,3.388,3.906A4.027,4.027,0,0,1-33.6,21.42a8.653,8.653,0,0,1-1.246.2l.826,1.316C-30.618,22.442-28.742,20.426-28.742,17.486Zm-10.332.406a4.68,4.68,0,0,1,3.99-4.326,22.289,22.289,0,0,1-.77,3.612c-.644,2.156-1.3,3.066-1.932,3.066C-38.388,20.244-39.074,19.5-39.074,17.892ZM-21.63,22.12a11.592,11.592,0,0,0-2.142-1.876l-.98.7a10.562,10.562,0,0,1,2.086,1.974Zm-2.618-5.8h3v.952h-3Zm0-1.834h3v.966h-3Zm7.364,0v.966h-3.094V14.49Zm0,2.786h-3.094v-.952h3.094Zm2.576,1.862H-17.4V18.2h1.792V13.58h-4.368v-.8h5.348V11.676h-5.348V10.668h-1.274v1.008h-5.222v1.106h5.222v.8h-4.214V18.2h6.79v.938H-26.81v1.106h8.134v1.9c0,.2-.07.252-.294.266s-1.106,0-1.946-.028a4.919,4.919,0,0,1,.42,1.148,9.1,9.1,0,0,0,2.45-.182c.5-.182.644-.5.644-1.162V20.244h3.094Zm8.5-1.022V16.044h3.388v2.072Zm-4.4,0c.042-.518.056-1.036.056-1.512v-.56h3.038v2.072Zm3.094-5.264v1.974H-10.15V12.852Zm4.69,1.974H-5.81V12.852h3.388Zm1.3-3.22H-11.438V16.59c0,1.974-.14,4.452-1.666,6.146a4.309,4.309,0,0,1,1.022.854,8.031,8.031,0,0,0,1.75-4.242h3.22v4h1.3v-4h3.388v2.506c0,.266-.1.35-.35.35s-1.19.014-2.086-.028a5.379,5.379,0,0,1,.434,1.26,7.664,7.664,0,0,0,2.618-.224c.5-.2.686-.588.686-1.344ZM5.572,22.582c2.282,0,3.822-1.246,3.822-4.606V12.082H7.826v6.006c0,2.324-.952,3.08-2.254,3.08s-2.212-.756-2.212-3.08V12.082H1.736v5.894C1.736,21.336,3.29,22.582,5.572,22.582Zm9.268,0c2.254,0,3.626-1.344,3.626-3a2.877,2.877,0,0,0-2.1-2.786l-1.414-.6c-.84-.336-1.666-.672-1.666-1.568,0-.812.686-1.316,1.736-1.316a3.282,3.282,0,0,1,2.268.924l.854-1.036a4.414,4.414,0,0,0-3.122-1.3c-1.96,0-3.388,1.218-3.388,2.842a2.964,2.964,0,0,0,2.1,2.7l1.428.616c.952.42,1.652.714,1.652,1.652,0,.868-.7,1.456-1.946,1.456a4,4,0,0,1-2.744-1.218l-.952,1.12A5.141,5.141,0,0,0,14.84,22.582Zm5.572-.182h3.444c2.282,0,3.948-.98,3.948-3.024a2.366,2.366,0,0,0-2.03-2.45v-.07a2.292,2.292,0,0,0,1.47-2.226c0-1.862-1.526-2.548-3.64-2.548H20.412Zm1.624-6.006V13.356h1.428c1.456,0,2.184.406,2.184,1.484,0,.966-.658,1.554-2.226,1.554Zm0,4.732V17.612h1.638c1.638,0,2.534.518,2.534,1.68,0,1.26-.924,1.834-2.534,1.834ZM32.9,22.4h1.624V19.292l1.582-1.946L39.018,22.4h1.806L37.1,16.072l3.192-3.99H38.486l-3.92,4.886h-.042V12.082H32.9Zm9.282,0h6.244V21.028h-4.62V17.7h3.78V16.324h-3.78v-2.87h4.466V12.082h-6.09Zm10.094,0H53.9V18.494l3.108-6.412H55.314l-1.2,2.744c-.308.77-.644,1.484-.98,2.268h-.056c-.35-.784-.644-1.5-.966-2.268l-1.19-2.744H49.182l3.094,6.412Zm5.74-9.38.14,1.526c1.568-.336,4.83-.672,6.244-.812a5.616,5.616,0,0,0-2.38,4.55c0,3.08,2.87,4.55,5.614,4.69l.5-1.5c-2.31-.1-4.69-.952-4.69-3.5a4.642,4.642,0,0,1,3.094-4.214,13.491,13.491,0,0,1,2.73-.2V12.152c-.966.028-2.366.112-3.864.238-2.576.224-5.068.462-6.09.56C59.038,12.978,58.548,13.006,58.016,13.02Zm9.24,2.1-.84.364a13.238,13.238,0,0,1,1.12,1.96l.868-.392A19.545,19.545,0,0,0,67.256,15.12Zm1.554-.6-.84.378a13.138,13.138,0,0,1,1.176,1.932L70,16.422A20.224,20.224,0,0,0,68.81,14.518Zm11.1-3.29H78.3c.028.14.07.574.112,1.022.014.168.014.406.028.714-2,.028-4.606.1-6.188.126l.042,1.344c1.736-.112,4.032-.2,6.16-.224,0,.406.014.826.014,1.19a2.8,2.8,0,0,0-.784-.1,2.528,2.528,0,0,0-2.6,2.52,2.338,2.338,0,0,0,2.352,2.436,2.193,2.193,0,0,0,.98-.21A5.379,5.379,0,0,1,74.8,22.106l1.19,1.176c3.318-.966,4.312-3.164,4.312-5.026a3.448,3.448,0,0,0-.49-1.862c0-.63,0-1.442-.014-2.2,2.03,0,3.36.028,4.186.07l.028-1.316h-4.2c0-.28,0-.532.014-.7A8.158,8.158,0,0,1,79.912,11.228ZM76.4,17.794a1.261,1.261,0,0,1,1.274-1.316,1.154,1.154,0,0,1,1.092.672c.182,1.316-.364,1.89-1.092,1.89A1.228,1.228,0,0,1,76.4,17.794Zm9.884,1.162a2.191,2.191,0,1,0,0,4.382,2.191,2.191,0,0,0,0-4.382Zm0,3.542a1.344,1.344,0,1,1,1.344-1.344A1.344,1.344,0,0,1,86.282,22.5Z" transform="translate(969 5361)" fill="#0a0a0a"/>
      <path id="パス_6917" data-name="パス 6917" d="M4.886-8.008a18.741,18.741,0,0,1-.77,3.248c-.672-.812-1.372-1.624-2.044-2.324l-.91.742A36.383,36.383,0,0,1,3.556-3.43,8.147,8.147,0,0,1,.448-.014,7.216,7.216,0,0,1,1.33.994,9.47,9.47,0,0,0,4.354-2.3,14.142,14.142,0,0,1,5.446-.406L6.5-1.288A17.113,17.113,0,0,0,5-3.626,18.98,18.98,0,0,0,6.16-7.84ZM13.4-8.526H11.816v-3.22H10.528v3.22H7.294V-9.52h-2.7v-2.212H3.332V-9.52H.784v1.2H6.86v1.05h3.668V-.588c0,.238-.1.308-.336.308S9.2-.266,8.358-.294a6.018,6.018,0,0,1,.42,1.386A6.612,6.612,0,0,0,11.186.826c.448-.238.63-.616.63-1.414V-7.266H13.4ZM9.478-2.954a10.527,10.527,0,0,0-1.526-3.01l-1.064.5a11.656,11.656,0,0,1,1.47,3.066ZM17-8.778h10.29v-1.26H22.092v-1.708H20.734v1.708h-5.04v3.556c0,2-.1,4.844-1.232,6.832a6.636,6.636,0,0,1,1.106.742C16.786-1.05,17-4.3,17-6.482Zm7.294,2.31A17.424,17.424,0,0,0,21-8.512l-.882.854A17.263,17.263,0,0,1,23.352-5.5Zm-6.244,6.3a12.122,12.122,0,0,0,1.162-4.48l-1.19-.266A10.578,10.578,0,0,1,16.884-.686Zm3.766-.168c-.476,0-.574-.084-.574-.574V-6.048H19.964V-.91c0,1.33.336,1.75,1.652,1.75h1.82C24.668.84,25,.2,25.13-2.128a4.1,4.1,0,0,1-1.148-.532c-.07,1.974-.14,2.324-.644,2.324Zm2.646-4.452a15.435,15.435,0,0,1,1.848,4.62L27.58-.7a14.962,14.962,0,0,0-1.974-4.55Zm6.02-5.306v1.4c.392-.028.812-.042,1.3-.042H33.5v2.7H30.968c-.406,0-1.022-.028-1.414-.07v1.47c.406-.028,1.036-.056,1.414-.056H33.5v2.954c0,1.26.644,2.072,2.954,2.072,1.33,0,2.772-.056,3.794-.126l.084-1.5a30.229,30.229,0,0,1-3.64.2c-1.218,0-1.708-.35-1.708-1.092V-4.69h4.536c.308,0,.868,0,1.232.028L40.74-6.09c-.336.028-.952.056-1.246.056H34.986v-2.7h3.486c.5,0,.854.028,1.2.042v-1.4a9.929,9.929,0,0,1-1.2.056H31.78C31.29-10.038,30.87-10.066,30.478-10.094Zm14.28-.28v1.442c.378-.028.9-.056,1.372-.056h4.718c.448,0,.952.028,1.4.056v-1.442a11.74,11.74,0,0,1-1.4.084H46.116A10.557,10.557,0,0,1,44.758-10.374ZM43.106-6.832v1.456c.392-.028.854-.042,1.274-.042h4.046a6.471,6.471,0,0,1-.84,3.3A5.83,5.83,0,0,1,45-.028l1.288.952A6.846,6.846,0,0,0,49.07-1.694a8.593,8.593,0,0,0,.868-3.724H53.55c.364,0,.84.014,1.176.028V-6.832a8.931,8.931,0,0,1-1.176.07H44.38A12.267,12.267,0,0,1,43.106-6.832Zm9.912-4.606-.9.378a16.71,16.71,0,0,1,1.106,1.932l.924-.392A20.288,20.288,0,0,0,53.018-11.438Zm1.582-.6-.9.378A14.051,14.051,0,0,1,54.852-9.73l.91-.406A17.84,17.84,0,0,0,54.6-12.04ZM63.21-.308l.924.77a4.352,4.352,0,0,1,.532-.35A14.731,14.731,0,0,0,69.44-3.752l-.854-1.2a9.849,9.849,0,0,1-3.808,3.22V-9.478a8.432,8.432,0,0,1,.07-1.12H63.224a10.261,10.261,0,0,1,.084,1.12V-1.19A4.038,4.038,0,0,1,63.21-.308ZM56.756-.434l1.344.9a7.865,7.865,0,0,0,2.492-3.92,30.671,30.671,0,0,0,.434-5.978,10.479,10.479,0,0,1,.07-1.12H59.472a4.363,4.363,0,0,1,.112,1.134,24.275,24.275,0,0,1-.406,5.586A6.48,6.48,0,0,1,56.756-.434Z" transform="translate(641 5323)" fill="#0a0a0a"/>
      <path id="パス_6918" data-name="パス 6918" d="M4.732-6.552l.182.994c.826-.07,1.736-.168,2.7-.28a3.439,3.439,0,0,1,.1.462l.812-.336a7.3,7.3,0,0,0-.714-2.044l-.756.266c.1.238.21.5.294.77l-1.078.07c.686-.924,1.442-2.114,2.044-3.122l-.924-.434c-.21.448-.49.966-.8,1.5-.14-.154-.308-.336-.49-.5.35-.56.756-1.344,1.134-2.03l-.994-.392a20.2,20.2,0,0,1-.784,1.89c-.1-.084-.182-.154-.28-.224l-.518.714A9.685,9.685,0,0,1,6.1-7.882c-.308.476-.6.924-.9,1.3Zm4.9-.182.2.966,1.26-.14-.588.546a7.3,7.3,0,0,1,.938.686H9.856A37.456,37.456,0,0,1,9.492-9.2,10.174,10.174,0,0,1,10.85-7.882c-.266.406-.532.8-.784,1.12Zm1.82,3.206a6.661,6.661,0,0,1-.98,1.54,12.74,12.74,0,0,1-.434-1.652h3.3V-4.676h-1.12l.294-.28a6.669,6.669,0,0,0-1.3-.952c.448-.056.924-.1,1.414-.154a5.445,5.445,0,0,1,.14.56l.8-.364a7.3,7.3,0,0,0-.8-2.044l-.756.308c.112.21.21.448.308.686l-1.19.084c.644-.868,1.358-1.988,1.932-2.94l-.924-.434c-.21.448-.49.966-.8,1.5a5.448,5.448,0,0,0-.49-.518c.336-.56.756-1.344,1.148-2.03l-1.008-.378a14.9,14.9,0,0,1-.784,1.876c-.1-.07-.182-.14-.28-.21l-.448.616c-.014-.77-.028-1.568-.014-2.38H8.316a53.28,53.28,0,0,0,.42,7.056H5.012C4.732-5.166,3.92-6.5,3.57-7v-.6H4.956v-1.19H3.57v-2.954H2.394v2.954H.742V-7.6h1.54A16.421,16.421,0,0,1,.448-2.59,7.353,7.353,0,0,1,1.05-1.5,14.028,14.028,0,0,0,2.394-4.8V1.092H3.57V-5.516c.336.658.686,1.414.854,1.848L4.9-4.34v.7h.938c-.14,1.54-.5,3-1.75,3.864a2.99,2.99,0,0,1,.77.854A4.906,4.906,0,0,0,6.692-1.834,12.673,12.673,0,0,1,8.022-.742l.686-.9A13.268,13.268,0,0,0,6.916-2.954c.028-.224.056-.448.084-.686H8.9a12.676,12.676,0,0,0,.7,2.492A8.537,8.537,0,0,1,7.1.252a5.432,5.432,0,0,1,.7.84A10.307,10.307,0,0,0,10.08-.182a2.341,2.341,0,0,0,1.974,1.3c.98,0,1.344-.448,1.54-2.016a3.014,3.014,0,0,1-.868-.574c-.07,1.176-.21,1.484-.588,1.484-.448,0-.854-.322-1.2-.924a7.613,7.613,0,0,0,1.61-2.212ZM25.69-5.6c1.19,0,1.568-.462,1.708-2.212a3.356,3.356,0,0,1-1.176-.476c-.056,1.3-.14,1.526-.644,1.526h-1.9c-.588,0-.686-.084-.686-.546V-8.47A30.862,30.862,0,0,0,26.74-9.828l-.84-.938a23.079,23.079,0,0,1-2.912,1.232v-2.184h-1.3v4.424c0,1.33.364,1.694,1.834,1.694ZM16.618-2.646V-3.71h2.576v1.064ZM19.194-5.7V-4.7H16.618V-5.7ZM20.482-6.79H15.4V1.078h1.218v-2.73h2.576v1.33c0,.168-.042.224-.224.224s-.77.014-1.358-.014a5,5,0,0,1,.434,1.176,5,5,0,0,0,1.9-.21c.406-.21.532-.546.532-1.162Zm-1.89-3.584a14.364,14.364,0,0,1,.8,1.288L17-8.974c.392-.77.812-1.666,1.162-2.506L16.8-11.788a18.691,18.691,0,0,1-1.162,2.87c-.392.014-.742.028-1.064.042l.112,1.246c1.428-.084,3.36-.21,5.278-.322.126.294.238.56.308.784l1.162-.476a12.8,12.8,0,0,0-1.75-3.15ZM23.7-.154c-.616,0-.728-.084-.728-.56V-2.1A19.739,19.739,0,0,0,26.88-3.626l-.84-.952a15.793,15.793,0,0,1-3.066,1.4V-5.25H21.686V-.7c0,1.3.378,1.68,1.848,1.68h2.254c1.232,0,1.6-.5,1.75-2.408a4.266,4.266,0,0,1-1.162-.49c-.056,1.5-.154,1.764-.7,1.764Z" transform="translate(641 5372)" fill="#0a0a0a"/>
    </g>
  </g>
</svg>
