<svg xmlns="http://www.w3.org/2000/svg" width="510" height="275" viewBox="0 0 510 275">
  <g id="グループ_3982" data-name="グループ 3982" transform="translate(-623 -247)">
    <path id="パス_6805" data-name="パス 6805" d="M0,0H510V40H0Z" transform="translate(623 442)" fill="#e4f5f2"/>
    <path id="パス_6806" data-name="パス 6806" d="M0,0V80" transform="translate(725 442)" fill="none" stroke="#cecece" stroke-width="1"/>
    <path id="パス_6807" data-name="パス 6807" d="M0,0V80" transform="translate(827 442)" fill="none" stroke="#cecece" stroke-width="1"/>
    <path id="パス_6808" data-name="パス 6808" d="M0,0V80" transform="translate(929 442)" fill="none" stroke="#cecece" stroke-width="1"/>
    <path id="パス_6809" data-name="パス 6809" d="M0,0V80" transform="translate(1031 442)" fill="none" stroke="#cecece" stroke-width="1"/>
    <path id="パス_6810" data-name="パス 6810" d="M0,0H510" transform="translate(623 482)" fill="none" stroke="#cecece" stroke-width="1"/>
    <path id="パス_6811" data-name="パス 6811" d="M1.358,0H2.814V-5.1c0-.924-.126-2.254-.2-3.192h.056l.812,2.38L5.292-.994H6.3L8.092-5.908l.826-2.38h.056c-.084.938-.21,2.268-.21,3.192V0h1.512V-10.318H8.4L6.538-5.1C6.3-4.41,6.1-3.71,5.866-3.024H5.8C5.558-3.71,5.348-4.41,5.11-5.1L3.22-10.318H1.358ZM15.792-5C16.884-5,17.5-4.312,17.5-3.08c0,1.274-.714,2.03-1.61,2.03-1.092,0-1.834-.868-2-2.73A2.4,2.4,0,0,1,15.792-5ZM15.9.182a3.083,3.083,0,0,0,3.08-3.262c0-2.072-1.176-3.094-2.9-3.094a3.117,3.117,0,0,0-2.24,1.2c.07-2.94,1.162-3.92,2.464-3.92a2.206,2.206,0,0,1,1.624.756l.882-.98A3.46,3.46,0,0,0,16.24-10.22c-2.044,0-3.892,1.6-3.892,5.544C12.348-1.372,13.944.182,15.9.182Zm7.448,0a3.331,3.331,0,0,0,3.472-3.43A2.89,2.89,0,0,0,23.688-6.37a2.938,2.938,0,0,0-1.414.35l.238-2.646h3.822v-1.358H21.112l-.308,4.9.784.5a2.711,2.711,0,0,1,1.652-.588A1.846,1.846,0,0,1,25.2-3.192a1.951,1.951,0,0,1-2.044,2.058A3.3,3.3,0,0,1,20.748-2.24l-.77,1.05A4.56,4.56,0,0,0,23.352.182Zm9.6,0A4.069,4.069,0,0,0,36.162-1.3l-.868-1.022a2.981,2.981,0,0,1-2.282,1.092c-1.82,0-2.968-1.5-2.968-3.948,0-2.422,1.232-3.906,3.01-3.906a2.741,2.741,0,0,1,2.016.924L35.952-9.2a3.971,3.971,0,0,0-2.926-1.3c-2.6,0-4.648,2.016-4.648,5.376S30.366.182,32.956.182ZM37.982,0h6.244V-1.372h-4.62V-4.7h3.78V-6.076h-3.78v-2.87h4.466v-1.372h-6.09ZM45.64,0h6.65V-1.372H49.672c-.5,0-1.162.042-1.68.1C50.134-3.514,51.8-5.362,51.8-7.2a2.882,2.882,0,0,0-3.108-3.024,4.043,4.043,0,0,0-3.136,1.54l.91.9A2.8,2.8,0,0,1,48.5-8.932a1.632,1.632,0,0,1,1.75,1.82c0,1.568-1.736,3.36-4.606,6.174Zm7.588,0H54.95l1.316-2.562c.252-.532.518-1.05.8-1.68h.056c.322.63.588,1.148.854,1.68L59.332,0h1.806L58.17-5.236l2.772-5.082H59.234L58.016-7.9c-.238.476-.434.938-.7,1.554h-.07c-.308-.616-.532-1.078-.784-1.554l-1.246-2.422H53.41l2.772,5Z" transform="translate(643 507)" fill="#0a0a0a"/>
    <path id="パス_6812" data-name="パス 6812" d="M-14.756,0h5.88V-1.33h-2.016v-8.988H-12.11a6.06,6.06,0,0,1-2.24.8V-8.5H-12.5V-1.33h-2.254Zm10.78.182c1.988,0,3.332-1.176,3.332-2.7A3.012,3.012,0,0,0-2.38-5.25v-.07A3.2,3.2,0,0,0-1.022-7.742a2.661,2.661,0,0,0-2.912-2.73,2.691,2.691,0,0,0-2.94,2.66A2.913,2.913,0,0,0-5.488-5.4v.07A3.156,3.156,0,0,0-7.336-2.562C-7.336-.966-5.908.182-3.976.182ZM-3.3-5.726c-1.148-.448-2.128-.966-2.128-2.086a1.411,1.411,0,0,1,1.47-1.5A1.529,1.529,0,0,1-2.38-7.644,2.608,2.608,0,0,1-3.3-5.726ZM-3.948-.98a1.8,1.8,0,0,1-1.96-1.736A2.629,2.629,0,0,1-4.7-4.872c1.4.574,2.534,1.05,2.534,2.31A1.587,1.587,0,0,1-3.948-.98ZM2.1-7.112c0-1.344.7-2.142,1.582-2.142,1.12,0,1.89.924,2.044,2.954a2.449,2.449,0,0,1-1.96,1.26C2.688-5.04,2.1-5.8,2.1-7.112ZM3.4.182C5.39.182,7.238-1.442,7.238-5.5c0-3.416-1.6-5-3.57-5A3.151,3.151,0,0,0,.6-7.112c0,2.156,1.162,3.234,2.884,3.234a3.1,3.1,0,0,0,2.268-1.2c-.1,2.94-1.176,3.948-2.422,3.948a2.29,2.29,0,0,1-1.68-.77L.77-.91A3.536,3.536,0,0,0,3.4.182Zm8.33,0A3.4,3.4,0,0,0,15.2-3.388a2.963,2.963,0,0,0-3.136-3.276,2.946,2.946,0,0,0-1.414.364l.238-2.646h3.822v-1.372H9.492l-.308,4.9.784.518a2.711,2.711,0,0,1,1.652-.588,1.911,1.911,0,0,1,1.96,2.156,2.014,2.014,0,0,1-2.044,2.2A3.3,3.3,0,0,1,9.128-2.24l-.77,1.05A4.56,4.56,0,0,0,11.732.182Z" transform="translate(776 507)" fill="#0a0a0a"/>
    <path id="パス_6813" data-name="パス 6813" d="M-14.756,0h5.88V-1.33h-2.016v-8.988H-12.11a6.06,6.06,0,0,1-2.24.8V-8.5H-12.5V-1.33h-2.254Zm8.68-4.018,2.03-3.108c.294-.532.574-1.064.826-1.6h.056c-.028.574-.07,1.442-.07,2v2.7ZM-3.234,0h1.512V-2.772h1.3V-4.018h-1.3v-6.3H-3.6L-7.7-3.85v1.078h4.466ZM3.752.182a3.4,3.4,0,0,0,3.472-3.57A2.963,2.963,0,0,0,4.088-6.664,2.946,2.946,0,0,0,2.674-6.3l.238-2.646H6.734v-1.372H1.512L1.2-5.418l.784.518A2.711,2.711,0,0,1,3.64-5.488,1.911,1.911,0,0,1,5.6-3.332a2.014,2.014,0,0,1-2.044,2.2A3.3,3.3,0,0,1,1.148-2.24L.378-1.19A4.56,4.56,0,0,0,3.752.182ZM8.6,0h6.65V-1.372H12.67c-.5,0-1.148.042-1.68.1,2.184-2.086,3.766-4.144,3.766-6.132A2.914,2.914,0,0,0,11.648-10.5,4,4,0,0,0,8.512-8.96l.91.9a2.8,2.8,0,0,1,2.03-1.148,1.673,1.673,0,0,1,1.75,1.89c0,1.694-1.568,3.7-4.606,6.384Z" transform="translate(878 507)" fill="#0a0a0a"/>
    <path id="パス_6814" data-name="パス 6814" d="M-14.756,0h5.88V-1.33h-2.016v-8.988H-12.11a6.06,6.06,0,0,1-2.24.8V-8.5H-12.5V-1.33h-2.254ZM-3.794-5.264c1.106,0,1.708.742,1.708,2.058,0,1.344-.714,2.156-1.61,2.156-1.106,0-1.848-.966-2.016-3.01A2.417,2.417,0,0,1-3.794-5.264ZM-3.682.182A3.153,3.153,0,0,0-.6-3.206c0-2.17-1.162-3.234-2.9-3.234A3.1,3.1,0,0,0-5.74-5.25c.07-2.94,1.162-3.934,2.478-3.934a2.214,2.214,0,0,1,1.61.77l.882-.98A3.46,3.46,0,0,0-3.346-10.5c-2.03,0-3.892,1.582-3.892,5.544C-7.238-1.456-5.642.182-3.682.182Zm7.434,0a3.4,3.4,0,0,0,3.472-3.57A2.963,2.963,0,0,0,4.088-6.664,2.946,2.946,0,0,0,2.674-6.3l.238-2.646H6.734v-1.372H1.512L1.2-5.418l.784.518A2.711,2.711,0,0,1,3.64-5.488,1.911,1.911,0,0,1,5.6-3.332a2.014,2.014,0,0,1-2.044,2.2A3.3,3.3,0,0,1,1.148-2.24L.378-1.19A4.56,4.56,0,0,0,3.752.182Zm8.414-5.446c1.106,0,1.708.742,1.708,2.058,0,1.344-.714,2.156-1.61,2.156-1.106,0-1.848-.966-2.016-3.01A2.417,2.417,0,0,1,12.166-5.264ZM12.278.182a3.153,3.153,0,0,0,3.08-3.388c0-2.17-1.162-3.234-2.9-3.234a3.1,3.1,0,0,0-2.24,1.19c.07-2.94,1.162-3.934,2.478-3.934a2.214,2.214,0,0,1,1.61.77l.882-.98A3.46,3.46,0,0,0,12.614-10.5c-2.03,0-3.892,1.582-3.892,5.544C8.722-1.456,10.318.182,12.278.182Z" transform="translate(980 507)" fill="#0a0a0a"/>
    <path id="パス_6815" data-name="パス 6815" d="M-14.756,0h5.88V-1.33h-2.016v-8.988H-12.11a6.06,6.06,0,0,1-2.24.8V-8.5H-12.5V-1.33h-2.254Zm7.392,0h6.65V-1.372H-3.29c-.5,0-1.148.042-1.68.1C-2.786-3.36-1.2-5.418-1.2-7.406A2.914,2.914,0,0,0-4.312-10.5,4,4,0,0,0-7.448-8.96l.91.9a2.8,2.8,0,0,1,2.03-1.148,1.673,1.673,0,0,1,1.75,1.89c0,1.694-1.568,3.7-4.606,6.384ZM1.2,0h5.88V-1.33H5.068v-8.988H3.85a6.06,6.06,0,0,1-2.24.8V-8.5H3.458V-1.33H1.2ZM11.732.182c1.89,0,3.444-1.092,3.444-2.954a2.609,2.609,0,0,0-2.128-2.576v-.07A2.491,2.491,0,0,0,14.826-7.84c0-1.694-1.3-2.66-3.15-2.66A4.343,4.343,0,0,0,8.722-9.254l.84,1.008a3,3,0,0,1,2.058-.966A1.432,1.432,0,0,1,13.2-7.728c0,1.036-.672,1.806-2.7,1.806v1.19c2.324,0,3.052.742,3.052,1.876a1.733,1.733,0,0,1-1.96,1.722A3.33,3.33,0,0,1,9.156-2.268L8.372-1.232A4.277,4.277,0,0,0,11.732.182Z" transform="translate(1078 507)" fill="#0a0a0a"/>
    <path id="パス_6816" data-name="パス 6816" d="M-30.856-4.7V-5.95h2.968V-4.7Zm2.968-2.282h-2.968V-8.218h2.968Zm4.452,0h-3.122V-8.218h3.122Zm0,2.282h-3.122V-5.95h3.122Zm2.492,2.2h-5.614V-3.612h4.452v-5.7h-1.316c.448-.588.938-1.3,1.372-1.988l-1.428-.448A13.288,13.288,0,0,1-24.892-9.31h-2.324l.9-.364a10.288,10.288,0,0,0-1.19-2.114l-1.162.448a10.234,10.234,0,0,1,1.078,2.03h-2.8l.784-.378a10.838,10.838,0,0,0-1.4-1.946l-1.134.5A10.043,10.043,0,0,1-30.9-9.31H-32.13v5.7h4.242v1.106H-33.4v1.218h5.516V1.106h1.33V-1.288h5.614Zm5.474-6.608v1.232h8.456V-9.114H-10.7v-2.464h-1.316v2.464Zm3.3,7.532a34.807,34.807,0,0,0-1.064-5.5l-1.176.21A33.909,33.909,0,0,1-13.454-1.3Zm-4.242-10.136A14.881,14.881,0,0,1-19.88-6.4a14.018,14.018,0,0,1,.714,1.33,15.921,15.921,0,0,0,1.372-1.6V1.064h1.232v-9.59a20.7,20.7,0,0,0,1.372-2.8ZM-9.814-.756A55.971,55.971,0,0,0-8.106-6.944l-1.4-.238A46.365,46.365,0,0,1-11.074-.756h-4.7V.476h9.086V-.756ZM.812-7.448A1.145,1.145,0,0,0,1.988-8.61,1.157,1.157,0,0,0,.812-9.786,1.157,1.157,0,0,0-.364-8.61,1.145,1.145,0,0,0,.812-7.448Zm0,6.776A1.142,1.142,0,0,0,1.988-1.82,1.148,1.148,0,0,0,.812-3,1.148,1.148,0,0,0-.364-1.82,1.142,1.142,0,0,0,.812-.672ZM9.03,0h1.61V-5.46a2.547,2.547,0,0,1,1.722-1.05c.882,0,1.288.532,1.288,1.862V0h1.61V-5.46A2.571,2.571,0,0,1,17-6.51c.868,0,1.288.532,1.288,1.862V0h1.61V-4.844c0-1.96-.756-3.052-2.366-3.052a3.548,3.548,0,0,0-2.506,1.414A2.055,2.055,0,0,0,12.894-7.9a3.354,3.354,0,0,0-2.38,1.274h-.042L10.346-7.7H9.03ZM22.218,0h1.61V-5.46A2.547,2.547,0,0,1,25.55-6.51c.882,0,1.288.532,1.288,1.862V0h1.61V-5.46a2.571,2.571,0,0,1,1.736-1.05c.868,0,1.288.532,1.288,1.862V0h1.61V-4.844c0-1.96-.756-3.052-2.366-3.052A3.548,3.548,0,0,0,28.21-6.482,2.055,2.055,0,0,0,26.082-7.9,3.354,3.354,0,0,0,23.7-6.622H23.66L23.534-7.7H22.218Z" transform="translate(674 468)" fill="#0a0a0a"/>
    <path id="パス_6817" data-name="パス 6817" d="M-10.752-9.632h-6.5v-.8h6.5Zm0,1.638h-6.5v-.812h6.5Zm1.3-3.318h-9.044v4.186H-9.45Zm-.42,7.644A6.6,6.6,0,0,1-11.144-1.9,6.17,6.17,0,0,1-12.32-3.668Zm-7.924,2.646v-.91h2.2v.7Zm0-2.674h2.2v.826h-2.2ZM-15.6-5.4v.784h-2.2V-5.4Zm6.51.686-.224.042h-4.606v1.008h1.26l-.756.21A8.577,8.577,0,0,0-12-1.176,8.057,8.057,0,0,1-14.35,0V-5.4h6.468V-6.468H-20.146V-5.4H-19V-.91c-.462.042-.9.084-1.274.112l.1,1.134C-18.9.21-17.248.028-15.6-.154V1.092h1.246V.1a4.078,4.078,0,0,1,.644.952,9.669,9.669,0,0,0,2.59-1.4A7.757,7.757,0,0,0-8.33,1.092,3.857,3.857,0,0,1-7.56.084a7.779,7.779,0,0,1-2.674-1.2A7.953,7.953,0,0,0-8.288-4.41ZM1.484-1.036h-3v-1.19h3ZM5.558-5.012H-5.46V1.106h1.274V-3.92H4.256V-.378c0,.182-.07.238-.294.238a11.553,11.553,0,0,1-1.316.014V-3.15H-2.646v3.7h1.134V-.126H2.226a4.7,4.7,0,0,1,.406,1.2,6.978,6.978,0,0,0,2.31-.21c.476-.21.616-.574.616-1.232ZM2.45-6.664H-2.506V-7.8H2.45Zm-6.216-2.03v2.926H3.766V-8.694ZM.588-10.5v-1.26H-.742v1.26H-6.048v1.134H6.034V-10.5Zm17.78,4.144H15.26v-.952h3.108Zm0,1.876H15.26v-.952h3.108Zm0,1.89H15.26v-.98h3.108ZM14.056-8.26v6.622h5.558V-8.26h-2.87c.042-.308.084-.658.14-1.008h3.43v-1.12H17c.042-.434.084-.882.112-1.288l-1.288-.07c-.028.42-.056.882-.1,1.358h-3.7v1.12h3.6c-.028.35-.07.7-.112,1.008Zm-3.472-3.43A15.561,15.561,0,0,1,7.266-6.3,10.13,10.13,0,0,1,7.98-4.984a16.248,16.248,0,0,0,1.2-1.456V1.078h1.232v-9.45A22.6,22.6,0,0,0,11.8-11.326ZM20.4-.714h-7.42v-6.8h-1.2v8.61h1.2V.42H20.4Z" transform="translate(776 468)" fill="#0a0a0a"/>
    <path id="パス_6818" data-name="パス 6818" d="M-23.506-.98h-8.96V-8.47H-33.74V1.092h1.274V.252h8.96v.812h1.274V-8.47h-1.274Zm-2.324-4.7h-1.652V-7.21h1.652Zm0,2.576h-1.652v-1.54h1.652Zm-4.424-1.54h1.638v1.54h-1.638Zm0-2.562h1.638v1.526h-1.638Zm-3.92-3.654v1.2H-28.7v1.372h-2.646V-2.03h6.65V-8.288h-2.7V-9.66h5.572v-1.2ZM-9.772-.812h-1.834v-6.1h1.834Zm-8.526-6.1h1.75v6.1H-18.3ZM-12.782-5.6h-2.6V-6.916h2.6Zm-2.6,3.4h2.6V-.812h-2.6Zm2.6-1.036h-2.6v-1.33h2.6Zm5-6.412v-1.232H-20.16v1.232h5.222c-.084.5-.2,1.064-.308,1.54h-4.312V1.12h1.26V.392h8.526V1.12h1.33V-8.106H-13.9c.14-.476.308-1.022.476-1.54ZM.644-4.634V-8.022h3.64v3.388Zm-4.984,0V-8.022H-.714v3.388ZM.644-9.3v-2.436H-.714V-9.3H-5.642v6.762h1.3V-3.36H-.714V1.092H.644V-3.36h3.64V-2.6H5.642V-9.3ZM16.9-6.678a14.969,14.969,0,0,1,2.45,5.124l1.3-.63a14.831,14.831,0,0,0-2.576-5.1Zm-8.036-.1a10.712,10.712,0,0,1-1.5,4.956l1.2.7a12.345,12.345,0,0,0,1.568-5.4ZM11.34-10.7a21.077,21.077,0,0,1,4.7,2.506L16.9-9.338A22.453,22.453,0,0,0,12.18-11.69ZM11.256-7.84v6.8c0,1.526.448,1.96,2.058,1.96H15.82c1.582,0,1.946-.77,2.114-3.4a3.487,3.487,0,0,1-1.2-.56c-.112,2.3-.238,2.772-1.008,2.772H13.454c-.714,0-.854-.112-.854-.77v-6.8ZM32.368-6.356H29.26v-.952h3.108Zm0,1.876H29.26v-.952h3.108Zm0,1.89H29.26v-.98h3.108ZM28.056-8.26v6.622h5.558V-8.26h-2.87c.042-.308.084-.658.14-1.008h3.43v-1.12H31c.042-.434.084-.882.112-1.288l-1.288-.07c-.028.42-.056.882-.1,1.358h-3.7v1.12h3.6c-.028.35-.07.7-.112,1.008Zm-3.472-3.43A15.561,15.561,0,0,1,21.266-6.3a10.13,10.13,0,0,1,.714,1.316,16.248,16.248,0,0,0,1.2-1.456V1.078h1.232v-9.45A22.6,22.6,0,0,0,25.8-11.326ZM34.4-.714h-7.42v-6.8h-1.2v8.61h1.2V.42H34.4Z" transform="translate(878 468)" fill="#0a0a0a"/>
    <path id="パス_6819" data-name="パス 6819" d="M-10.752-9.632h-6.5v-.8h6.5Zm0,1.638h-6.5v-.812h6.5Zm1.3-3.318h-9.044v4.186H-9.45Zm-.42,7.644A6.6,6.6,0,0,1-11.144-1.9,6.17,6.17,0,0,1-12.32-3.668Zm-7.924,2.646v-.91h2.2v.7Zm0-2.674h2.2v.826h-2.2ZM-15.6-5.4v.784h-2.2V-5.4Zm6.51.686-.224.042h-4.606v1.008h1.26l-.756.21A8.577,8.577,0,0,0-12-1.176,8.057,8.057,0,0,1-14.35,0V-5.4h6.468V-6.468H-20.146V-5.4H-19V-.91c-.462.042-.9.084-1.274.112l.1,1.134C-18.9.21-17.248.028-15.6-.154V1.092h1.246V.1a4.078,4.078,0,0,1,.644.952,9.669,9.669,0,0,0,2.59-1.4A7.757,7.757,0,0,0-8.33,1.092,3.857,3.857,0,0,1-7.56.084a7.779,7.779,0,0,1-2.674-1.2A7.953,7.953,0,0,0-8.288-4.41Zm5.67-6.972A15.561,15.561,0,0,1-6.734-6.3,10.13,10.13,0,0,1-6.02-4.984a16.248,16.248,0,0,0,1.2-1.456V1.078h1.232v-9.45A22.6,22.6,0,0,0-2.2-11.326ZM-2.366.784H3.4V-.378H-2.366Zm1.75-7.756V-9.1c.812-.1,1.652-.21,2.492-.336.028.84.07,1.666.14,2.464ZM6.412-5.8V-6.972H3.3c-.07-.868-.112-1.764-.126-2.7a24.2,24.2,0,0,0,2.632-.644l-.994-.994a31.7,31.7,0,0,1-5.824,1.176l-.882-.28v8.008l-.924.14.28,1.218C-1.162-1.274.644-1.61,2.352-1.9L2.3-3.08C1.3-2.912.308-2.744-.616-2.6V-5.8H2.142C2.59-2.17,3.542.6,5.124.6,6.09.6,6.51.1,6.692-1.89A3.543,3.543,0,0,1,5.67-2.576c-.056,1.33-.168,1.9-.434,1.9-.7,0-1.428-2.156-1.806-5.124Zm11.956-.56H15.26v-.952h3.108Zm0,1.876H15.26v-.952h3.108Zm0,1.89H15.26v-.98h3.108ZM14.056-8.26v6.622h5.558V-8.26h-2.87c.042-.308.084-.658.14-1.008h3.43v-1.12H17c.042-.434.084-.882.112-1.288l-1.288-.07c-.028.42-.056.882-.1,1.358h-3.7v1.12h3.6c-.028.35-.07.7-.112,1.008Zm-3.472-3.43A15.561,15.561,0,0,1,7.266-6.3,10.13,10.13,0,0,1,7.98-4.984a16.248,16.248,0,0,0,1.2-1.456V1.078h1.232v-9.45A22.6,22.6,0,0,0,11.8-11.326ZM20.4-.714h-7.42v-6.8h-1.2v8.61h1.2V.42H20.4Z" transform="translate(980 468)" fill="#0a0a0a"/>
    <path id="パス_6820" data-name="パス 6820" d="M-23.506-.98h-8.96V-8.47H-33.74V1.092h1.274V.252h8.96v.812h1.274V-8.47h-1.274Zm-2.324-4.7h-1.652V-7.21h1.652Zm0,2.576h-1.652v-1.54h1.652Zm-4.424-1.54h1.638v1.54h-1.638Zm0-2.562h1.638v1.526h-1.638Zm-3.92-3.654v1.2H-28.7v1.372h-2.646V-2.03h6.65V-8.288h-2.7V-9.66h5.572v-1.2ZM-9.772-.812h-1.834v-6.1h1.834Zm-8.526-6.1h1.75v6.1H-18.3ZM-12.782-5.6h-2.6V-6.916h2.6Zm-2.6,3.4h2.6V-.812h-2.6Zm2.6-1.036h-2.6v-1.33h2.6Zm5-6.412v-1.232H-20.16v1.232h5.222c-.084.5-.2,1.064-.308,1.54h-4.312V1.12h1.26V.392h8.526V1.12h1.33V-8.106H-13.9c.14-.476.308-1.022.476-1.54ZM.644-4.634V-8.022h3.64v3.388Zm-4.984,0V-8.022H-.714v3.388ZM.644-9.3v-2.436H-.714V-9.3H-5.642v6.762h1.3V-3.36H-.714V1.092H.644V-3.36h3.64V-2.6H5.642V-9.3ZM16.9-6.678a14.969,14.969,0,0,1,2.45,5.124l1.3-.63a14.831,14.831,0,0,0-2.576-5.1Zm-8.036-.1a10.712,10.712,0,0,1-1.5,4.956l1.2.7a12.345,12.345,0,0,0,1.568-5.4ZM11.34-10.7a21.077,21.077,0,0,1,4.7,2.506L16.9-9.338A22.453,22.453,0,0,0,12.18-11.69ZM11.256-7.84v6.8c0,1.526.448,1.96,2.058,1.96H15.82c1.582,0,1.946-.77,2.114-3.4a3.487,3.487,0,0,1-1.2-.56c-.112,2.3-.238,2.772-1.008,2.772H13.454c-.714,0-.854-.112-.854-.77v-6.8ZM32.368-6.356H29.26v-.952h3.108Zm0,1.876H29.26v-.952h3.108Zm0,1.89H29.26v-.98h3.108ZM28.056-8.26v6.622h5.558V-8.26h-2.87c.042-.308.084-.658.14-1.008h3.43v-1.12H31c.042-.434.084-.882.112-1.288l-1.288-.07c-.028.42-.056.882-.1,1.358h-3.7v1.12h3.6c-.028.35-.07.7-.112,1.008Zm-3.472-3.43A15.561,15.561,0,0,1,21.266-6.3a10.13,10.13,0,0,1,.714,1.316,16.248,16.248,0,0,0,1.2-1.456V1.078h1.232v-9.45A22.6,22.6,0,0,0,25.8-11.326ZM34.4-.714h-7.42v-6.8h-1.2v8.61h1.2V.42H34.4Z" transform="translate(1078 468)" fill="#0a0a0a"/>
    <g id="パス_6821" data-name="パス 6821" transform="translate(623 442)" fill="none">
      <path d="M0,0H510V80H0Z" stroke="none"/>
      <path d="M 1 1 L 1 79 L 509 79 L 509 1 L 1 1 M 0 0 L 510 0 L 510 80 L 0 80 L 0 0 Z" stroke="none" fill="#cecece"/>
    </g>
    <path id="パス_6822" data-name="パス 6822" d="M0,0H182V175H0Z" transform="translate(623 247)" fill="#e4f5f2"/>
    <path id="パス_6823" data-name="パス 6823" d="M0,0V174" transform="translate(805 248)" fill="none" stroke="#cecece" stroke-width="1"/>
    <path id="パス_6824" data-name="パス 6824" d="M0,0H510" transform="translate(623 308)" fill="none" stroke="#cecece" stroke-width="1"/>
    <path id="パス_6825" data-name="パス 6825" d="M0,0H510" transform="translate(623 346)" fill="none" stroke="#cecece" stroke-width="1"/>
    <path id="パス_6826" data-name="パス 6826" d="M0,0H510" transform="translate(623 384)" fill="none" stroke="#cecece" stroke-width="1"/>
    <path id="パス_6827" data-name="パス 6827" d="M6.65-6.412v2.8H3.43v-2.8ZM7.938-2.38V-7.644H2.17v6.356H3.43V-2.38Zm5.292-8.4H.8v1.3h9.408v8.82c0,.294-.1.378-.406.392-.336,0-1.5.014-2.562-.042a5.792,5.792,0,0,1,.546,1.4A9.5,9.5,0,0,0,10.766.84c.588-.2.8-.63.8-1.47V-9.478H13.23Zm7.322,1.54h1.624v2.786c0,.154-.042.2-.21.2s-.756.014-1.344-.014a5.138,5.138,0,0,1,.35,1.148,5.517,5.517,0,0,0,1.946-.182c.448-.182.518-.518.518-1.106V-9.24h3.7v-1.2H21.658v-1.3h-1.33v1.3h-5.4v1.2h4.4a3.919,3.919,0,0,1-2.086,3.766,4.752,4.752,0,0,1,.952.882,4.92,4.92,0,0,0,2.366-4.62Zm3.486,1.148a15.069,15.069,0,0,1,2.268,2.73l1.106-.658a15.086,15.086,0,0,0-2.38-2.66ZM16.87-8.624A6.2,6.2,0,0,1,14.658-6.23a6.533,6.533,0,0,1,.9.77A8.654,8.654,0,0,0,18.1-8.288Zm2.184,5.25H23.3A7.369,7.369,0,0,1,21.084-1.68,6.456,6.456,0,0,1,19.04-3.36Zm5.32-1.106-.224.056h-4c.224-.252.434-.518.63-.784L19.4-5.46a9.073,9.073,0,0,1-4.41,3.052,3.72,3.72,0,0,1,.826.966A13.991,13.991,0,0,0,18.1-2.674a7.983,7.983,0,0,0,1.652,1.568A21.776,21.776,0,0,1,14.6-.028a3.775,3.775,0,0,1,.63,1.162A21.107,21.107,0,0,0,21.014-.35a15.948,15.948,0,0,0,5.7,1.456,5.718,5.718,0,0,1,.77-1.218,18.423,18.423,0,0,1-5.068-.966,8.006,8.006,0,0,0,2.814-2.828ZM33.7-5.264v.756h-1.19v-.756Zm0,2.31h-1.19v-.784H33.7Zm-3.5,0v-.784h1.19v.784Zm0-2.31h1.19v.756H30.2Zm1.19-2.478H28.854v.966h2.534v.686H29.162v3.962h2.226V-1.4h-2.7v.98h2.7V1.092h1.12V-.42h2.73V-1.4h-2.73v-.728h2.268V-6.09H32.508v-.686H35.07v-.966H32.508v-.686h-1.12ZM37.2-9.618a8.329,8.329,0,0,1,.882,1.4l1.162-.364a6.2,6.2,0,0,0-.658-1.036H41.3v-1.106H36.946a7,7,0,0,0,.392-.8l-1.26-.308A6.667,6.667,0,0,1,34.8-9.786v-.938H31.4a8.073,8.073,0,0,0,.378-.784l-1.218-.322a7.638,7.638,0,0,1-2.072,2.9,8.39,8.39,0,0,1,1.078.7,9.019,9.019,0,0,0,1.148-1.386h.476a7.721,7.721,0,0,1,.546,1.19l1.148-.322a5.344,5.344,0,0,0-.42-.868H34.65a5.005,5.005,0,0,1-.714.63,8.177,8.177,0,0,1,1.134.644,8.626,8.626,0,0,0,1.162-1.274Zm.364,9.394c-.63,0-.728-.112-.728-.686V-6.762h2.7v2.884c0,.168-.056.21-.224.224-.21,0-.812,0-1.47-.014a4.978,4.978,0,0,1,.434,1.2,5.111,5.111,0,0,0,1.96-.224c.434-.21.546-.56.546-1.162V-7.91H35.6V-.9c0,1.47.42,1.848,1.82,1.848H39.76c1.246,0,1.61-.574,1.75-2.464A3.334,3.334,0,0,1,40.39-2c-.07,1.484-.182,1.778-.742,1.778Zm10.5-4.886c.014-.224.014-.448.014-.686v-.9h1.946V-5.11Zm4.816,0H51.184V-6.692h1.638V-7.756H51.184v-1.61H50.022v1.61H48.076v-1.61H46.97v1.61H45.29v1.064h1.68v.882c0,.238,0,.476-.014.7H45.164v1.092h1.624A3.4,3.4,0,0,1,45.22-1.9a3.842,3.842,0,0,1,.812.84A4.055,4.055,0,0,0,47.95-4.018h2.072V-1.3h1.162V-4.018h1.694Zm-8.4,4.4v-9.2h9.016v9.2Zm-1.3-10.4V1.134h1.3V.5h9.016v.63h1.358v-12.25ZM10.094,29.278V30.9h1.19V29.278h1.932v-.994H8.61a3.045,3.045,0,0,0,.014-.35v-.252a22.9,22.9,0,0,0,3.962-.6l-.84-.784a22.61,22.61,0,0,1-3.332.546l-.938-.224v1.26a2.588,2.588,0,0,1-1.344,2.38,2.992,2.992,0,0,1,.8.882A3.626,3.626,0,0,0,8.4,29.278ZM3.766,35.172H10.36v.84H3.766Zm0-1.61H10.36v.826H3.766Zm0-1.582H10.36v.8H3.766Zm-1.26,4.844h9.156v-5.67H2.506ZM4.3,29.278v1.6H5.446v-1.6h1.5v-.994H2.912a2.373,2.373,0,0,0,.014-.308v-.294a21.182,21.182,0,0,0,3.7-.616l-.826-.8a19.149,19.149,0,0,1-3.108.574l-.91-.252v1.344A3.694,3.694,0,0,1,.616,30.86a3.48,3.48,0,0,1,.868.826,4.427,4.427,0,0,0,1.3-2.408Zm.518,7.588A15.307,15.307,0,0,1,.742,38.182a9.147,9.147,0,0,1,.98.966,18.546,18.546,0,0,0,4.284-1.736Zm3.192.686a28.3,28.3,0,0,1,3.752,1.582l1.5-.616a44.223,44.223,0,0,0-4.186-1.624Zm16.156-9.52h-6.4V27.4h6.4Zm0,1.33h-6.4v-.644h6.4Zm1.316-2.674H16.506v3.388H25.48Zm1.792,3.92H14.77v.952h12.5ZM17.486,34.85v-.658h2.87v.658Zm0-2.016h2.87v.644h-2.87Zm7.1.644H21.616v-.644h2.968Zm0,1.372H21.616v-.658h2.968Zm-2.968,2.926V37.1h4.522v-.882H21.616v-.63h4.242v-3.5h-9.6v3.5h4.1v.63H15.9V37.1h4.452v.672H14.714v.994H27.328v-.994ZM6.552,75.846c0,.126-.042.168-.154.168s-.378,0-.7-.014V68.958h.854ZM.714,66.214H3.5c-.126.546-.294,1.134-.448,1.624H1.078V77.05H2.142V68.958H3.08V76.07h.9V68.958h.84V76.07h.812a4.047,4.047,0,0,1,.308.966,2.667,2.667,0,0,0,1.316-.21c.294-.168.378-.476.378-.966V67.838H4.242c.182-.49.364-1.064.546-1.624H7.9V64.968H.714ZM13.426,67.32h-1.05v-3H11.13v3H8.022v1.218H11.13v7.056c0,.224-.084.294-.294.294s-.84.014-1.512-.014a5.709,5.709,0,0,1,.42,1.218A4.739,4.739,0,0,0,11.8,76.84c.406-.2.574-.546.574-1.246V68.538h1.05Zm-2.912,5.5A10.943,10.943,0,0,0,9.24,69.77l-1.064.364a11.553,11.553,0,0,1,1.2,3.122Zm7.434-5.18h1.274V66.466h3.542v1.176h1.288V66.466h3.122v-1.19H24.052V64.254H22.764v1.022H19.222V64.254H17.948v1.022H14.91v1.19h3.038Zm-.378-.084a10.858,10.858,0,0,1-3.122,3.99,9.752,9.752,0,0,1,.826,1.2A11.1,11.1,0,0,0,16.422,71.6v5.5h1.26v-7.14A15.919,15.919,0,0,0,18.8,67.95Zm4.788,4.06v1.848H20.272V71.618Zm1.19,2.926v-3.99h-4.48v4.8h1.2v-.812Zm3.724-6.328h-8.3v1.218h5.754v6.118c0,.224-.084.28-.35.294-.238.014-1.134.014-2.03-.028a4.82,4.82,0,0,1,.462,1.218,8.219,8.219,0,0,0,2.52-.21c.518-.182.686-.532.686-1.26V69.434h1.26Zm4.242,3.7v-.854h2.772v.854Zm0-2.548h2.772v.868H31.514Zm7.014,0v.868h-2.94v-.868Zm0,2.548h-2.94v-.854h2.94Zm-2.94,3.724v-.994h4.788V73.62H35.588v-.8h4.27V68.468h-4.27v-.714h5.586V66.718H35.588v-.924c1.582-.112,3.08-.266,4.284-.476L39.214,64.3a75.91,75.91,0,0,1-9.324.728,4.063,4.063,0,0,1,.266,1.022c1.3-.028,2.73-.07,4.13-.154v.826H28.84v1.036h5.446v.714H30.24v4.354h4.046v.8h-4.48v1.022h4.48v.994H28.77v1.05h12.5v-1.05Z" transform="translate(641 332)" fill="#0a0a0a"/>
    <path id="パス_6828" data-name="パス 6828" d="M-16.086-4.018l2.03-3.108c.294-.532.574-1.064.826-1.6h.056c-.028.574-.07,1.442-.07,2v2.7ZM-13.244,0h1.512V-2.772h1.3V-4.018h-1.3v-6.3h-1.876l-4.1,6.468v1.078h4.466ZM-1.512-10.052H.364v2.184c0,.84.084,1.106.308,1.3a1.282,1.282,0,0,0,.854.28h.728a1.6,1.6,0,0,0,.7-.14.807.807,0,0,0,.448-.5,6.262,6.262,0,0,0,.154-1.4,3.541,3.541,0,0,1-.966-.518,9.568,9.568,0,0,1-.056,1.162.49.49,0,0,1-.14.322.585.585,0,0,1-.252.042H1.834a.362.362,0,0,1-.2-.056c-.056-.056-.056-.2-.056-.462V-11.2H-2.7v1.974A2.739,2.739,0,0,1-4.13-6.566a4.054,4.054,0,0,1,.882.882A3.794,3.794,0,0,0-1.512-9.2ZM-3.654-3.038c-1.176.182-2.394.364-3.5.532V-4.34h3.136V-5.558H-7.154V-7.014H-4.13v-1.2H-7.154V-9.6a19.139,19.139,0,0,0,3.64-1.2l-1.092-.924A14.493,14.493,0,0,1-7.77-10.556l-.616-.182v8.414l-1.148.168.21,1.26.938-.154V1.078h1.232V-1.246c1.134-.182,2.352-.392,3.542-.588Zm4.844-1.4A6.84,6.84,0,0,1-.35-2.24a6.966,6.966,0,0,1-1.414-2.2ZM2.016-5.67l-.224.056H-3.472v1.176h1.316l-.784.224A9.336,9.336,0,0,0-1.316-1.442,9.733,9.733,0,0,1-4.564-.014a4.211,4.211,0,0,1,.7,1.148A11,11,0,0,0-.378-.532,8.389,8.389,0,0,0,2.7,1.078,5.624,5.624,0,0,1,3.542-.07,8.371,8.371,0,0,1,.616-1.4,8.933,8.933,0,0,0,2.842-5.334Zm6.3-5.544-.2.056H5.152V1.106H6.314V-10h1.4c-.252.938-.588,2.2-.91,3.15A4.048,4.048,0,0,1,7.868-4.228a1.205,1.205,0,0,1-.252.9.765.765,0,0,1-.406.112,5.781,5.781,0,0,1-.672-.014,2.542,2.542,0,0,1,.308,1.12,5.928,5.928,0,0,0,.882-.028,1.685,1.685,0,0,0,.714-.266A1.936,1.936,0,0,0,9-4.074,4.34,4.34,0,0,0,7.91-6.986c.42-1.106.9-2.562,1.26-3.738ZM12.936-7.6l-2.086.448V-8.932h1.988v-1.05H10.85v-1.582H9.688v4.648q-.483.084-.882.168l.336,1.092c1.12-.28,2.534-.616,3.892-.966ZM15.47-2.66H11.13V-3.766h4.34ZM11.13-.476V-1.652h4.34V-.476ZM12.32-6.2a12.4,12.4,0,0,1-.364,1.358H9.912V1.064H11.13V.6h4.34v.406h1.274V-4.844H13.216c.126-.35.266-.728.406-1.106Zm2.618-.742c-.336,0-.392-.056-.392-.434V-8.652a15.538,15.538,0,0,0,2.716-1.26l-.882-.84a10.237,10.237,0,0,1-1.834,1.078v-1.89H13.37v4.2c0,1.162.266,1.5,1.386,1.5H16.17c.9,0,1.218-.392,1.33-1.89A3.094,3.094,0,0,1,16.45-8.2c-.042,1.078-.1,1.26-.406,1.26ZM-77.7,34.262a10.58,10.58,0,0,1-.826,3.276,5.472,5.472,0,0,1,.994.49,12.963,12.963,0,0,0,.938-3.57Zm3.066.252A15.118,15.118,0,0,1-73.78,37.2l1.036-.364a15.268,15.268,0,0,0-.91-2.646Zm-.308-3.388a12.044,12.044,0,0,1,.588,1.12l-1.862.07A43.945,43.945,0,0,0-73.43,28.34l-1.106-.476A26.09,26.09,0,0,1-75.95,30.3a8.157,8.157,0,0,0-.686-.812c.5-.756,1.092-1.862,1.6-2.814l-1.176-.42a16.144,16.144,0,0,1-1.148,2.534l-.378-.336-.63.868a15.066,15.066,0,0,1,1.764,1.96c-.28.392-.546.756-.812,1.092l-.98.028.112,1.148c.644-.042,1.386-.084,2.184-.126v5.7h1.162V33.352l1.036-.07a7.053,7.053,0,0,1,.252.784l.994-.476A11.831,11.831,0,0,0-74,30.72Zm9.184-2.436h-4.956a18.536,18.536,0,0,0,.77-2.142l-1.33-.308A11.714,11.714,0,0,1-73.7,31.028a9.732,9.732,0,0,1,1.148.784,10.883,10.883,0,0,0,1.232-1.876h4.27c-.182,5.138-.406,7.21-.854,7.658a.671.671,0,0,1-.6.238c-.336,0-1.176-.014-2.086-.084a2.932,2.932,0,0,1,.434,1.3A13.382,13.382,0,0,0-68,39.036a1.5,1.5,0,0,0,1.232-.644c.588-.714.77-2.9,1.008-9.072Zm-3.15,6.272a13.208,13.208,0,0,0-1.89-3.15l-1.05.518a13.755,13.755,0,0,1,1.792,3.22ZM-64.288,38h6.65V36.628h-2.576c-.5,0-1.148.042-1.68.1,2.184-2.086,3.766-4.144,3.766-6.132A2.914,2.914,0,0,0-61.236,27.5a4,4,0,0,0-3.136,1.54l.91.9a2.8,2.8,0,0,1,2.03-1.148,1.673,1.673,0,0,1,1.75,1.89c0,1.694-1.568,3.7-4.606,6.384Zm9.268-4.018,2.03-3.108c.294-.532.574-1.064.826-1.6h.056c-.028.574-.07,1.442-.07,2v2.7ZM-52.178,38h1.512V35.228h1.3V33.982h-1.3v-6.3h-1.876l-4.1,6.468v1.078h4.466Zm4.452,0h1.582V36l1.288-1.484L-42.77,38h1.75l-2.9-4.564,2.6-3.136h-1.792l-2.982,3.724h-.056V26.842h-1.582ZM-37.2,41.458c2.464,0,4.032-1.2,4.032-2.688,0-1.316-.952-1.876-2.772-1.876h-1.414c-.98,0-1.288-.294-1.288-.756a1,1,0,0,1,.42-.812,2.677,2.677,0,0,0,1.078.238,2.631,2.631,0,0,0,2.884-2.646,2.082,2.082,0,0,0-.5-1.414h1.47V30.3h-2.73a3.211,3.211,0,0,0-1.12-.2,2.774,2.774,0,0,0-2.982,2.758A2.61,2.61,0,0,0-39.1,34.92v.056A1.876,1.876,0,0,0-39.97,36.4a1.416,1.416,0,0,0,.7,1.274v.07a2.034,2.034,0,0,0-1.12,1.68C-40.39,40.772-39.046,41.458-37.2,41.458Zm.056-6.93A1.506,1.506,0,0,1-38.6,32.862a1.461,1.461,0,0,1,1.456-1.624,1.469,1.469,0,0,1,1.456,1.624A1.506,1.506,0,0,1-37.142,34.528Zm.182,5.866c-1.274,0-2.058-.448-2.058-1.2a1.385,1.385,0,0,1,.658-1.12,4.895,4.895,0,0,0,1.036.112h1.162c.938,0,1.442.2,1.442.84C-34.72,39.736-35.616,40.394-36.96,40.394Zm7.322.126h1.12l3.892-13.706h-1.12ZM-17.626,30.4h1.358v-1.19h-1.358V26.254H-18.8v2.954h-1.652V30.4h1.54a16.421,16.421,0,0,1-1.834,5.012,6.548,6.548,0,0,1,.6,1.12A13.528,13.528,0,0,0-18.8,33.254v5.838h1.176v-6.3c.35.672.714,1.442.9,1.89l.63-.924c-.21-.378-1.148-1.9-1.526-2.436Zm2.828,6.86V27.906h5.4v6.916a10.845,10.845,0,0,1-1.9-3.444h1.582V30.314h-1.792V28.34h-1.064v1.974h-1.834v1.064H-12.7a9.375,9.375,0,0,1-2.016,3.5,6.076,6.076,0,0,1,.518.994,8.627,8.627,0,0,0,1.624-2.632v3.584h1.064V33a11.73,11.73,0,0,0,1.5,2.674,5.286,5.286,0,0,1,.616-.644v2.226ZM-15.96,26.786V39.162H-14.8v-.8h5.4v.672h1.2V26.786ZM-1.6,37.748c-1.484,0-1.75-.126-1.75-.7v-2.31h4.7v-4.4H-4.06c.294-.406.588-.84.854-1.288h7.1c-.112,3.626-.238,4.956-.49,5.278a.527.527,0,0,1-.49.21c-.252,0-.826-.014-1.47-.07A3.285,3.285,0,0,1,1.806,35.7a11.4,11.4,0,0,0,1.764-.028,1.247,1.247,0,0,0,.98-.532c.406-.518.546-2.184.672-6.734.014-.2.014-.588.014-.588H-2.52c.21-.406.406-.826.574-1.246l-1.372-.392a12.6,12.6,0,0,1-3.43,4.984,9.462,9.462,0,0,1,1.148.924,13.009,13.009,0,0,0,1.288-1.428v.826H.056v2.072h-4.7v3.5c0,1.526.686,1.89,3.08,1.89H3.29c2.072,0,2.548-.49,2.786-2.534a4.011,4.011,0,0,1-1.26-.462c-.126,1.526-.336,1.792-1.554,1.792Zm12.348-9.436v2.814H9.072V28.312Zm-1.68,6.916V32.274h1.68v2.954Zm2.912-8.092H7.868v10.43h1.2V36.39h2.912Zm1.008,8.022a10.384,10.384,0,0,1,1.694,2.394l1.106-.672a10.311,10.311,0,0,0-1.75-2.324Zm7.266-3.5V30.51h-3.4V28.97H19.74V27.836H16.856v-1.6h-1.3v1.6h-2.8V28.97h2.8v1.54H12.222v1.148H17.36v1.4h-5.1v1.148h5.1v3.416c0,.2-.07.252-.294.266s-.98,0-1.764-.028a4.847,4.847,0,0,1,.42,1.218,6.884,6.884,0,0,0,2.3-.21c.462-.2.616-.546.616-1.218V34.206h1.5V33.058h-1.5v-1.4ZM27.8,30.552A1.145,1.145,0,0,0,28.98,29.39a1.176,1.176,0,1,0-2.352,0A1.145,1.145,0,0,0,27.8,30.552Zm0,6.776a1.162,1.162,0,1,0-1.176-1.148A1.142,1.142,0,0,0,27.8,37.328ZM35.42,38h6.65V36.628H39.494c-.5,0-1.148.042-1.68.1C40,34.64,41.58,32.582,41.58,30.594A2.914,2.914,0,0,0,38.472,27.5a4,4,0,0,0-3.136,1.54l.91.9a2.8,2.8,0,0,1,2.03-1.148,1.673,1.673,0,0,1,1.75,1.89c0,1.694-1.568,3.7-4.606,6.384Zm9.464-7.112c0-1.344.7-2.142,1.582-2.142,1.12,0,1.89.924,2.044,2.954a2.449,2.449,0,0,1-1.96,1.26C45.472,32.96,44.884,32.2,44.884,30.888Zm1.3,7.294c1.988,0,3.836-1.624,3.836-5.684,0-3.416-1.6-5-3.57-5a3.151,3.151,0,0,0-3.066,3.388c0,2.156,1.162,3.234,2.884,3.234a3.1,3.1,0,0,0,2.268-1.2c-.1,2.94-1.176,3.948-2.422,3.948a2.29,2.29,0,0,1-1.68-.77l-.882.994A3.536,3.536,0,0,0,46.186,38.182Zm6.664,0a1.071,1.071,0,0,0,1.078-1.12,1.08,1.08,0,1,0-2.156,0A1.071,1.071,0,0,0,52.85,38.182Zm3.99-4.2,2.03-3.108c.294-.532.574-1.064.826-1.6h.056c-.028.574-.07,1.442-.07,2v2.7ZM59.682,38h1.512V35.228h1.3V33.982h-1.3v-6.3H59.318l-4.1,6.468v1.078h4.466Zm4.452,0h1.582V36L67,34.514,69.09,38h1.75l-2.9-4.564,2.6-3.136H68.754l-2.982,3.724h-.056V26.842H64.134Zm10.528,3.458c2.464,0,4.032-1.2,4.032-2.688,0-1.316-.952-1.876-2.772-1.876H74.508c-.98,0-1.288-.294-1.288-.756a1,1,0,0,1,.42-.812,2.677,2.677,0,0,0,1.078.238A2.631,2.631,0,0,0,77.6,32.918a2.082,2.082,0,0,0-.5-1.414h1.47V30.3h-2.73a3.211,3.211,0,0,0-1.12-.2,2.774,2.774,0,0,0-2.982,2.758,2.61,2.61,0,0,0,1.022,2.058v.056A1.876,1.876,0,0,0,71.89,36.4a1.416,1.416,0,0,0,.7,1.274v.07a2.034,2.034,0,0,0-1.12,1.68C71.47,40.772,72.814,41.458,74.662,41.458Zm.056-6.93a1.506,1.506,0,0,1-1.456-1.666,1.465,1.465,0,1,1,2.912,0A1.506,1.506,0,0,1,74.718,34.528Zm.182,5.866c-1.274,0-2.058-.448-2.058-1.2a1.385,1.385,0,0,1,.658-1.12,4.895,4.895,0,0,0,1.036.112H75.7c.938,0,1.442.2,1.442.84C77.14,39.736,76.244,40.394,74.9,40.394ZM-55.405,71c1.092,0,1.708.686,1.708,1.918,0,1.274-.714,2.03-1.61,2.03-1.092,0-1.834-.868-2-2.73A2.4,2.4,0,0,1-55.405,71Zm.112,5.18a3.083,3.083,0,0,0,3.08-3.262c0-2.072-1.176-3.094-2.9-3.094a3.117,3.117,0,0,0-2.24,1.2c.07-2.94,1.162-3.92,2.464-3.92a2.206,2.206,0,0,1,1.624.756l.882-.98a3.46,3.46,0,0,0-2.576-1.106c-2.044,0-3.892,1.6-3.892,5.544C-58.849,74.628-57.253,76.182-55.293,76.182Zm7.686,0c2.058,0,3.332-1.862,3.332-5.236s-1.274-5.166-3.332-5.166-3.332,1.792-3.332,5.166S-49.651,76.182-47.607,76.182Zm0-1.274c-1.05,0-1.792-1.078-1.792-3.962s.742-3.892,1.792-3.892,1.792,1.008,1.792,3.892S-46.557,74.908-47.607,74.908ZM-42.4,76h1.582V74l1.288-1.484L-37.443,76h1.75l-2.9-4.564,2.6-3.136h-1.792l-2.982,3.724h-.056V64.842H-42.4Zm10.528,3.458c2.464,0,4.032-1.2,4.032-2.688,0-1.316-.952-1.876-2.772-1.876h-1.414c-.98,0-1.288-.294-1.288-.756a1,1,0,0,1,.42-.812,2.677,2.677,0,0,0,1.078.238,2.631,2.631,0,0,0,2.884-2.646,2.082,2.082,0,0,0-.5-1.414h1.47V68.3H-30.7a3.211,3.211,0,0,0-1.12-.2A2.774,2.774,0,0,0-34.8,70.862a2.61,2.61,0,0,0,1.022,2.058v.056a1.876,1.876,0,0,0-.868,1.428,1.416,1.416,0,0,0,.7,1.274v.07a2.034,2.034,0,0,0-1.12,1.68C-35.063,78.772-33.719,79.458-31.871,79.458Zm.056-6.93a1.506,1.506,0,0,1-1.456-1.666,1.461,1.461,0,0,1,1.456-1.624,1.469,1.469,0,0,1,1.456,1.624A1.506,1.506,0,0,1-31.815,72.528Zm.182,5.866c-1.274,0-2.058-.448-2.058-1.2a1.385,1.385,0,0,1,.658-1.12A4.895,4.895,0,0,0-32,76.182h1.162c.938,0,1.442.2,1.442.84C-29.393,77.736-30.289,78.394-31.633,78.394Zm10.472.392,1.008-.448a13.072,13.072,0,0,1-1.764-6.72,13.144,13.144,0,0,1,1.764-6.72l-1.008-.434a13.193,13.193,0,0,0-2.072,7.154A13.205,13.205,0,0,0-21.161,78.786Zm6.356-7.672c-.182-.406-1.078-2-1.386-2.492V68.1H-14.9V66.9h-1.288V64.268h-1.12V66.9h-1.54v1.2h1.512a15.922,15.922,0,0,1-1.722,5.012,10.609,10.609,0,0,1,.574,1.288,14.972,14.972,0,0,0,1.176-3.122v5.81h1.12V70.358c.266.616.532,1.288.658,1.708Zm1.33.126c.014-.462.028-.924.028-1.344V69.07H-12.1v2.17Zm1.372-5.25v1.96h-1.344V65.99Zm1.064-1.092H-14.5v5c0,2.016-.126,4.62-1.288,6.454a3.6,3.6,0,0,1,.826.77,10.45,10.45,0,0,0,1.4-4.746H-12.1v3.374c0,.168-.07.238-.21.238s-.56,0-1.078-.014a3.828,3.828,0,0,1,.364,1.134,2.932,2.932,0,0,0,1.54-.238c.336-.2.448-.546.448-1.092Zm1.918,6.342V69.07h1.47v2.17Zm1.47-5.25v1.96h-1.47V65.99ZM-6.545,64.9h-3.64V70.61c0,1.82-.07,4.13-.91,5.712a3.842,3.842,0,0,1,.84.812,11.721,11.721,0,0,0,1.092-4.76h1.512v3.36c0,.182-.056.238-.224.252-.126,0-.574,0-1.092-.014a4.152,4.152,0,0,1,.35,1.12,3.432,3.432,0,0,0,1.624-.224c.336-.2.448-.546.448-1.106Zm6.874,6.93c-.266-.378-1.484-1.988-1.89-2.45v-.994H.147v-1.2H-1.561V64.254H-2.779V67.18H-4.753v1.2h1.834a14.786,14.786,0,0,1-2.17,5.026,7.255,7.255,0,0,1,.644,1.176A13.829,13.829,0,0,0-2.779,71.03v6.062h1.218V70.918A19.783,19.783,0,0,1-.441,72.85Zm5.768-2a10.56,10.56,0,0,1-1.47,3.346A12.181,12.181,0,0,1,3.1,69.826Zm.658-1.232-.21.042H2.079V66.3H7.693v-1.2H.819v3.892c0,2.2-.154,5.208-1.736,7.308a4.8,4.8,0,0,1,1.036.784c1.428-1.862,1.834-4.578,1.932-6.8a13.624,13.624,0,0,0,1.792,3.92A7.752,7.752,0,0,1,1.295,76.07a4.617,4.617,0,0,1,.784,1.022A9.5,9.5,0,0,0,4.627,75.2a8.142,8.142,0,0,0,2.562,1.932,4.973,4.973,0,0,1,.868-1.078,7.418,7.418,0,0,1-2.618-1.848,12.825,12.825,0,0,0,2.128-5.362Zm8.736-.042a1.145,1.145,0,0,0,1.176-1.162,1.176,1.176,0,1,0-2.352,0A1.145,1.145,0,0,0,15.491,68.552Zm0,6.776a1.162,1.162,0,1,0-1.176-1.148A1.142,1.142,0,0,0,15.491,75.328ZM23.107,76h6.65V74.628H27.181c-.5,0-1.148.042-1.68.1,2.184-2.086,3.766-4.144,3.766-6.132A2.914,2.914,0,0,0,26.159,65.5a4,4,0,0,0-3.136,1.54l.91.9a2.8,2.8,0,0,1,2.03-1.148,1.673,1.673,0,0,1,1.75,1.89c0,1.694-1.568,3.7-4.606,6.384Zm11.116.182a3.4,3.4,0,0,0,3.472-3.57,3.1,3.1,0,0,0-4.55-2.912l.238-2.646h3.822V65.682H31.983l-.308,4.9.784.518a2.711,2.711,0,0,1,1.652-.588,1.911,1.911,0,0,1,1.96,2.156,2.014,2.014,0,0,1-2.044,2.2,3.3,3.3,0,0,1-2.408-1.106l-.77,1.05A4.56,4.56,0,0,0,34.223,76.182ZM39.669,76h1.582V74l1.288-1.484L44.625,76h1.75l-2.9-4.564,2.6-3.136H44.289l-2.982,3.724h-.056V64.842H39.669ZM50.2,79.458c2.464,0,4.032-1.2,4.032-2.688,0-1.316-.952-1.876-2.772-1.876H50.043c-.98,0-1.288-.294-1.288-.756a1,1,0,0,1,.42-.812,2.677,2.677,0,0,0,1.078.238,2.631,2.631,0,0,0,2.884-2.646,2.082,2.082,0,0,0-.5-1.414H54.1V68.3h-2.73a3.211,3.211,0,0,0-1.12-.2,2.774,2.774,0,0,0-2.982,2.758,2.61,2.61,0,0,0,1.022,2.058v.056a1.876,1.876,0,0,0-.868,1.428,1.416,1.416,0,0,0,.7,1.274v.07A2.034,2.034,0,0,0,47,77.428C47,78.772,48.349,79.458,50.2,79.458Zm.056-6.93A1.506,1.506,0,0,1,48.8,70.862a1.465,1.465,0,1,1,2.912,0A1.506,1.506,0,0,1,50.253,72.528Zm.182,5.866c-1.274,0-2.058-.448-2.058-1.2a1.385,1.385,0,0,1,.658-1.12,4.895,4.895,0,0,0,1.036.112h1.162c.938,0,1.442.2,1.442.84C52.675,77.736,51.779,78.394,50.435,78.394Zm5.824.392a13.334,13.334,0,0,0,0-14.322l-1.008.434a13.682,13.682,0,0,1,0,13.44Z" transform="translate(964.5 332)" fill="#0a0a0a"/>
    <path id="パス_6829" data-name="パス 6829" d="M6.342-8.442a15.424,15.424,0,0,1-1.036,3.43A19.572,19.572,0,0,0,2.968-6.65a14.356,14.356,0,0,0,.938-1.792Zm4.326-3.29H9.324v5.054a11.174,11.174,0,0,1-1.2-1.75l-.5.2c.07-.378.14-.784.21-1.19l-.868-.294-.238.042H4.41a18.393,18.393,0,0,0,.574-1.82L3.7-11.76A12.711,12.711,0,0,1,.378-5.544,9.836,9.836,0,0,1,1.47-4.69,11.453,11.453,0,0,0,2.3-5.656,17.689,17.689,0,0,1,4.7-3.836,9.784,9.784,0,0,1,.728.042a4.589,4.589,0,0,1,1.05.966C4.34-.448,6.37-3.164,7.406-7.35A15.76,15.76,0,0,0,9.324-4.83V1.064h1.344v-4.62A11.676,11.676,0,0,0,12.824-2.1a4.811,4.811,0,0,1,.924-1.12,12.212,12.212,0,0,1-3.08-2.058Zm14.98.21a11.612,11.612,0,0,1-3.7,2.926,4.524,4.524,0,0,1,.938.924,14.3,14.3,0,0,0,3.99-3.36ZM26-7.714A12.009,12.009,0,0,1,22.12-4.578a5.239,5.239,0,0,1,.924.924A15.24,15.24,0,0,0,27.188-7.21ZM17.542-6.356V-9.7H19.5v3.346ZM22.2-5.138V-6.356H20.776V-9.7h1.232v-1.2H14.826v1.2h1.5v3.346H14.6v1.218H16.31A7.943,7.943,0,0,1,14.49.322a4.476,4.476,0,0,1,.966.882c1.652-1.778,2.016-4.046,2.072-6.342H19.5V1.106h1.274V-5.138ZM26.278-3.99A10.447,10.447,0,0,1,21.406.042a4.978,4.978,0,0,1,.924,1.05A12.394,12.394,0,0,0,27.51-3.5ZM30.254-5.7a15.211,15.211,0,0,1,2.464,3.5l1.19-.742A14.565,14.565,0,0,0,31.36-6.37Zm11-3.178H38.052v-2.87h-1.4v2.87H28.77v1.3h7.882v6.86c0,.322-.112.434-.448.434-.378.014-1.568.014-2.8-.028a6.109,6.109,0,0,1,.588,1.456A11.244,11.244,0,0,0,37.184.882c.616-.224.868-.63.868-1.582V-7.574h3.206Zm5.474-1.372a10.643,10.643,0,0,0-2.7-1.428l-.714.966a11,11,0,0,1,2.66,1.526Zm-.77,3.626A12.213,12.213,0,0,0,43.218-7.91L42.546-6.9a10.8,10.8,0,0,1,2.7,1.386Zm-.49,2.268A39.743,39.743,0,0,1,42.994.084l1.12.826a47.038,47.038,0,0,0,2.338-4.424ZM55.552.434a16.741,16.741,0,0,0-2.618-4.018L51.814-3a18.318,18.318,0,0,1,1.3,1.82c-1.456.084-2.926.168-4.242.238.574-1.148,1.19-2.59,1.666-3.864h4.746V-6.034h-3.85V-8.358h3.192V-9.59H51.436v-2.156H50.092V-9.59H47.04v1.232h3.052v2.324H46.34V-4.8h2.646A27.565,27.565,0,0,1,47.474-.868l-1.12.056L46.536.5c1.9-.14,4.648-.322,7.266-.532a9.918,9.918,0,0,1,.532,1.148Z" transform="translate(641 274)" fill="#0a0a0a"/>
    <path id="パス_6830" data-name="パス 6830" d="M2.844,2.388,3.708,2A11.2,11.2,0,0,1,2.2-3.756a11.266,11.266,0,0,1,1.512-5.76l-.864-.372A11.308,11.308,0,0,0,1.068-3.756,11.319,11.319,0,0,0,2.844,2.388ZM9.108-7.836H7.524v-2.22H6.576v2.22H5.028v6.324h.84v-5.34h.708v7.8h.948v-7.8h.768V-2.7c0,.108-.024.132-.108.132h-.54a2.465,2.465,0,0,1,.276.936,1.343,1.343,0,0,0,.912-.2c.228-.156.276-.468.276-.84ZM11.964-3.3v1.044H10.512V-3.3ZM14.5-2.256H12.912V-3.3H14.5ZM12.912-.324V-1.38H14.5V-.324Zm-2.4,0V-1.38h1.452V-.324Zm-1,1.26h1V.552H14.5v.36h1.032v-5.1H9.516Zm4.56-6.756H11V-6.984h3.072ZM10.044-7.836V-4.98h5.028V-7.836ZM9.48-9.492v.912h6.156v-.912ZM25.464-.636l.708-.7-3.2-3.2,3.2-3.192-.708-.708-3.192,3.2-3.192-3.2-.72.708,3.2,3.192-3.2,3.2.708.7,3.2-3.192ZM35.532-.888H32.964v-1.02h2.568ZM39.024-4.3H29.58V.948h1.092V-3.36h7.236V-.324c0,.156-.06.2-.252.2a9.9,9.9,0,0,1-1.128.012V-2.7H31.992V.468h.972V-.108h3.2A4.027,4.027,0,0,1,36.516.924,5.981,5.981,0,0,0,38.5.744c.408-.18.528-.492.528-1.056ZM36.36-5.712H32.112v-.972H36.36Zm-5.328-1.74v2.508h6.456V-7.452ZM34.764-9v-1.08h-1.14V-9H29.076v.972H39.432V-9Zm11.688.492c.084.24.192.552.312.924a24.759,24.759,0,0,1-4.692-.156L42.1-6.528a31.555,31.555,0,0,0,5.088.036A16.513,16.513,0,0,0,48.492-4c-.408-.048-1.26-.12-1.9-.168l-.084,1a28.776,28.776,0,0,1,3.024.36l.6-.864a5.685,5.685,0,0,1-.576-.708,13.371,13.371,0,0,1-1.236-2.232,20.681,20.681,0,0,0,2.34-.468l-.144-1.2a14.826,14.826,0,0,1-2.592.576,13.05,13.05,0,0,1-.516-1.98l-1.3.156C46.248-9.168,46.368-8.772,46.452-8.508Zm-2.28,4.7-1.188-.264a4.71,4.71,0,0,0-.6,2.1c0,1.668,1.488,2.544,3.84,2.556A16.39,16.39,0,0,0,49.38.324l.06-1.2A15.174,15.174,0,0,1,46.3-.588c-1.728-.012-2.7-.48-2.7-1.56A3.037,3.037,0,0,1,44.172-3.8ZM61.464-.636l.708-.7-3.2-3.2,3.2-3.192-.708-.708-3.192,3.2-3.192-3.2-.72.708,3.2,3.192-3.2,3.2.708.7,3.2-3.192ZM71.8-7.812a6.9,6.9,0,0,1-.744,1.236l.6.3c.276-.312.612-.756.936-1.188Zm-2,3.96h.852v-1.14a13.082,13.082,0,0,1,1.62,1.236l.528-.552a14.141,14.141,0,0,0-1.74-1.236h1.764v-.72H70.644v-1.62h-.852v1.62h-1.14l.672-.348a3.861,3.861,0,0,0-.768-1.152l-.66.324a4.1,4.1,0,0,1,.732,1.176h-1v.72h1.512a5.366,5.366,0,0,1-1.776,1.32,3.632,3.632,0,0,1,.576.636A6.607,6.607,0,0,0,69.792-5.2Zm-2.652.888v-5.2h6.192v5.2H70.6c.048-.228.084-.468.12-.708H69.552c-.036.252-.072.48-.12.708Zm8.4.96v-.96H74.424V-9.036H70.608c.12-.276.252-.588.4-.912l-1.212-.132c-.084.3-.216.7-.348,1.044H66.1v6.072H64.968V-2h4.116c-.552,1.02-1.7,1.668-4.368,2a3.465,3.465,0,0,1,.528.936c3.1-.456,4.416-1.368,5.028-2.8C71.136-.168,72.624.66,75.144.96a3.74,3.74,0,0,1,.684-1.044C73.6-.264,72.144-.816,71.364-2ZM87.36-9.372H81.54V-8.3h5.82Zm-7.932-.708A10.858,10.858,0,0,1,76.692-7.5a5.1,5.1,0,0,1,.636.9A15.837,15.837,0,0,0,80.5-9.636ZM79.9-7.512a12.737,12.737,0,0,1-3.324,3.6,6.186,6.186,0,0,1,.768.948,15.883,15.883,0,0,0,1.188-1.08V.972h1.116V-5.28a16.193,16.193,0,0,0,1.308-1.836ZM87.7-6.1h-6.66v1.068h3.792V-.42c0,.168-.072.228-.3.228S83.508-.18,82.74-.2A4.477,4.477,0,0,1,83.1.912a7.5,7.5,0,0,0,2.268-.18c.456-.18.6-.5.6-1.14v-4.62H87.7ZM94.164-8.34l.036.108a24.42,24.42,0,0,1-3.864-.156L90.408-7.3a28.442,28.442,0,0,0,4.092.1c.084.252.168.528.276.84.06.168.132.348.2.528A28.042,28.042,0,0,1,90.108-5.9l.06,1.116a38.306,38.306,0,0,0,5.256,0,12.371,12.371,0,0,0,.816,1.512c-.372-.036-1.092-.108-1.668-.168l-.1.912a26.5,26.5,0,0,1,2.712.372l.6-.888a3.131,3.131,0,0,1-.492-.564,11.291,11.291,0,0,1-.744-1.308,19.543,19.543,0,0,0,2.076-.4l-.192-1.128a13.213,13.213,0,0,1-2.352.5c-.084-.228-.168-.444-.24-.648s-.156-.456-.24-.708a16.6,16.6,0,0,0,2.3-.468l-.156-1.092a13.188,13.188,0,0,1-2.424.54,11.172,11.172,0,0,1-.252-1.356l-1.284.144C93.936-9.132,94.056-8.724,94.164-8.34ZM92.1-3.24l-1.176-.228a3.63,3.63,0,0,0-.5,1.8C90.444-.048,91.836.66,94.212.66A18.946,18.946,0,0,0,97.068.444l.06-1.212A14.176,14.176,0,0,1,94.2-.5c-1.752,0-2.616-.444-2.616-1.392A2.3,2.3,0,0,1,92.1-3.24Zm9.576,5.628a11.226,11.226,0,0,0,1.788-6.144,11.216,11.216,0,0,0-1.788-6.132l-.864.372a11.266,11.266,0,0,1,1.512,5.76A11.2,11.2,0,0,1,100.812,2ZM113.22-7.08a.907.907,0,0,0,.9-.9.907.907,0,0,0-.9-.9.907.907,0,0,0-.9.9A.907.907,0,0,0,113.22-7.08Zm0,2.172-3.96-3.96-.348.348,3.96,3.96L108.9-.588l.348.348,3.972-3.972,3.96,3.96.348-.348-3.96-3.96,3.96-3.96-.348-.348Zm-2.52.348a.907.907,0,0,0-.9-.9.907.907,0,0,0-.9.9.907.907,0,0,0,.9.9A.907.907,0,0,0,110.7-4.56Zm5.04,0a.907.907,0,0,0,.9.9.907.907,0,0,0,.9-.9.907.907,0,0,0-.9-.9A.907.907,0,0,0,115.74-4.56Zm-2.52,2.52a.907.907,0,0,0-.9.9.907.907,0,0,0,.9.9.907.907,0,0,0,.9-.9A.907.907,0,0,0,113.22-2.04ZM120.264,0h1.38V-4.68a2.183,2.183,0,0,1,1.476-.9c.756,0,1.1.456,1.1,1.6V0h1.38V-4.68a2.2,2.2,0,0,1,1.488-.9c.744,0,1.1.456,1.1,1.6V0h1.38V-4.152c0-1.68-.648-2.616-2.028-2.616A3.041,3.041,0,0,0,125.4-5.556a1.762,1.762,0,0,0-1.824-1.212,2.875,2.875,0,0,0-2.04,1.092H121.5l-.108-.924h-1.128Zm11.3,0h1.38V-4.68a2.183,2.183,0,0,1,1.476-.9c.756,0,1.1.456,1.1,1.6V0h1.38V-4.68a2.2,2.2,0,0,1,1.488-.9c.744,0,1.1.456,1.1,1.6V0h1.38V-4.152c0-1.68-.648-2.616-2.028-2.616A3.041,3.041,0,0,0,136.7-5.556a1.762,1.762,0,0,0-1.824-1.212,2.875,2.875,0,0,0-2.04,1.092H132.8L132.7-6.6h-1.128Z" transform="translate(641 294)" fill="#0a0a0a"/>
    <path id="パス_6831" data-name="パス 6831" d="M-56.686,0h5.88V-1.33h-2.016v-8.988H-54.04a6.06,6.06,0,0,1-2.24.8V-8.5h1.848V-1.33h-2.254Zm7.98,0h5.88V-1.33h-2.016v-8.988H-46.06a6.06,6.06,0,0,1-2.24.8V-8.5h1.848V-1.33h-2.254Zm8.876-7.112c0-1.344.7-2.142,1.582-2.142,1.12,0,1.89.924,2.044,2.954a2.449,2.449,0,0,1-1.96,1.26C-39.242-5.04-39.83-5.8-39.83-7.112Zm1.3,7.294c1.988,0,3.836-1.624,3.836-5.684,0-3.416-1.6-5-3.57-5a3.151,3.151,0,0,0-3.066,3.388c0,2.156,1.162,3.234,2.884,3.234a3.1,3.1,0,0,0,2.268-1.2c-.1,2.94-1.176,3.948-2.422,3.948a2.29,2.29,0,0,1-1.68-.77l-.882.994A3.536,3.536,0,0,0-38.528.182Zm8.582,0c1.988,0,3.332-1.176,3.332-2.7A3.012,3.012,0,0,0-28.35-5.25v-.07a3.2,3.2,0,0,0,1.358-2.422,2.661,2.661,0,0,0-2.912-2.73,2.691,2.691,0,0,0-2.94,2.66A2.913,2.913,0,0,0-31.458-5.4v.07a3.156,3.156,0,0,0-1.848,2.772C-33.306-.966-31.878.182-29.946.182Zm.672-5.908c-1.148-.448-2.128-.966-2.128-2.086a1.411,1.411,0,0,1,1.47-1.5A1.529,1.529,0,0,1-28.35-7.644,2.608,2.608,0,0,1-29.274-5.726ZM-29.918-.98a1.8,1.8,0,0,1-1.96-1.736,2.629,2.629,0,0,1,1.2-2.156c1.4.574,2.534,1.05,2.534,2.31A1.587,1.587,0,0,1-29.918-.98Zm14.686.238.826-.812-3.738-3.738,3.738-3.724-.826-.826L-18.956-6.1-22.68-9.842l-.84.826,3.738,3.724L-23.52-1.554l.826.812,3.738-3.724ZM-10.766,0h5.88V-1.33H-6.9v-8.988H-8.12a6.06,6.06,0,0,1-2.24.8V-8.5h1.848V-1.33h-2.254ZM-.238.182a3.4,3.4,0,0,0,3.472-3.57A2.963,2.963,0,0,0,.1-6.664,2.946,2.946,0,0,0-1.316-6.3l.238-2.646H2.744v-1.372H-2.478l-.308,4.9L-2-4.9A2.711,2.711,0,0,1-.35-5.488,1.911,1.911,0,0,1,1.61-3.332a2.014,2.014,0,0,1-2.044,2.2A3.3,3.3,0,0,1-2.842-2.24l-.77,1.05A4.56,4.56,0,0,0-.238.182ZM8.176-5.264c1.106,0,1.708.742,1.708,2.058,0,1.344-.714,2.156-1.61,2.156-1.106,0-1.848-.966-2.016-3.01A2.417,2.417,0,0,1,8.176-5.264ZM8.288.182a3.153,3.153,0,0,0,3.08-3.388c0-2.17-1.162-3.234-2.9-3.234A3.1,3.1,0,0,0,6.23-5.25C6.3-8.19,7.392-9.184,8.708-9.184a2.214,2.214,0,0,1,1.61.77l.882-.98A3.46,3.46,0,0,0,8.624-10.5c-2.03,0-3.892,1.582-3.892,5.544C4.732-1.456,6.328.182,8.288.182Zm7.434,0a3.4,3.4,0,0,0,3.472-3.57,2.963,2.963,0,0,0-3.136-3.276,2.946,2.946,0,0,0-1.414.364l.238-2.646H18.7v-1.372H13.482l-.308,4.9.784.518a2.711,2.711,0,0,1,1.652-.588,1.911,1.911,0,0,1,1.96,2.156,2.014,2.014,0,0,1-2.044,2.2A3.3,3.3,0,0,1,13.118-2.24l-.77,1.05A4.56,4.56,0,0,0,15.722.182ZM30.688-.742l.826-.812L27.776-5.292l3.738-3.724-.826-.826L26.964-6.1,23.24-9.842l-.84.826,3.738,3.724L22.4-1.554l.826.812,3.738-3.724Zm7.266.924c1.988,0,3.332-1.176,3.332-2.7A3.012,3.012,0,0,0,39.55-5.25v-.07a3.2,3.2,0,0,0,1.358-2.422A2.661,2.661,0,0,0,38-10.472a2.691,2.691,0,0,0-2.94,2.66A2.913,2.913,0,0,0,36.442-5.4v.07a3.156,3.156,0,0,0-1.848,2.772C34.594-.966,36.022.182,37.954.182Zm.672-5.908C37.478-6.174,36.5-6.692,36.5-7.812a1.411,1.411,0,0,1,1.47-1.5A1.529,1.529,0,0,1,39.55-7.644,2.608,2.608,0,0,1,38.626-5.726ZM37.982-.98a1.8,1.8,0,0,1-1.96-1.736,2.629,2.629,0,0,1,1.2-2.156c1.4.574,2.534,1.05,2.534,2.31A1.587,1.587,0,0,1,37.982-.98ZM45.92.182c2.016,0,3.332-1.792,3.332-5.376,0-3.556-1.316-5.306-3.332-5.306s-3.332,1.736-3.332,5.306S43.9.182,45.92.182Zm0-1.274c-1.05,0-1.792-1.12-1.792-4.1,0-2.954.742-4.032,1.792-4.032s1.792,1.078,1.792,4.032C47.712-2.212,46.97-1.092,45.92-1.092ZM53.9.182c2.016,0,3.332-1.792,3.332-5.376,0-3.556-1.316-5.306-3.332-5.306s-3.332,1.736-3.332,5.306S51.884.182,53.9.182Zm0-1.274c-1.05,0-1.792-1.12-1.792-4.1,0-2.954.742-4.032,1.792-4.032s1.792,1.078,1.792,4.032C55.692-2.212,54.95-1.092,53.9-1.092ZM-78.33,13.4h1.358v-1.19H-78.33V9.254h-1.176v2.954h-1.652V13.4h1.54a16.421,16.421,0,0,1-1.834,5.012,6.548,6.548,0,0,1,.6,1.12,13.528,13.528,0,0,0,1.344-3.276v5.838h1.176v-6.3c.35.672.714,1.442.9,1.89l.63-.924c-.21-.378-1.148-1.9-1.526-2.436Zm2.828,6.86V10.906h5.4v6.916A10.845,10.845,0,0,1-72,14.378h1.582V13.314h-1.792V11.34h-1.064v1.974H-75.11v1.064H-73.4a9.375,9.375,0,0,1-2.016,3.5,6.076,6.076,0,0,1,.518.994,8.627,8.627,0,0,0,1.624-2.632v3.584h1.064V16a11.73,11.73,0,0,0,1.5,2.674,5.286,5.286,0,0,1,.616-.644v2.226ZM-76.664,9.786V22.162H-75.5v-.8h5.4v.672h1.2V9.786ZM-62.3,20.748c-1.484,0-1.75-.126-1.75-.7v-2.31h4.7v-4.4h-5.418c.294-.406.588-.84.854-1.288h7.1c-.112,3.626-.238,4.956-.49,5.278a.527.527,0,0,1-.49.21c-.252,0-.826-.014-1.47-.07A3.285,3.285,0,0,1-58.9,18.7a11.4,11.4,0,0,0,1.764-.028,1.247,1.247,0,0,0,.98-.532c.406-.518.546-2.184.672-6.734.014-.2.014-.588.014-.588h-7.756c.21-.406.406-.826.574-1.246l-1.372-.392a12.6,12.6,0,0,1-3.43,4.984,9.462,9.462,0,0,1,1.148.924,13.01,13.01,0,0,0,1.288-1.428v.826h4.368v2.072h-4.7v3.5c0,1.526.686,1.89,3.08,1.89h4.858c2.072,0,2.548-.49,2.786-2.534a4.011,4.011,0,0,1-1.26-.462c-.126,1.526-.336,1.792-1.554,1.792Zm12.348-9.436v2.814h-1.68V11.312Zm-1.68,6.916V15.274h1.68v2.954Zm2.912-8.092h-4.116v10.43h1.2V19.39h2.912Zm1.008,8.022a10.384,10.384,0,0,1,1.694,2.394l1.106-.672a10.31,10.31,0,0,0-1.75-2.324Zm7.266-3.5V13.51h-3.4V11.97h2.884V10.836h-2.884V9.24h-1.3v1.6h-2.8V11.97h2.8v1.54h-3.332v1.148h5.138v1.4h-5.1v1.148h5.1v3.416c0,.2-.07.252-.294.266s-.98,0-1.764-.028a4.847,4.847,0,0,1,.42,1.218,6.884,6.884,0,0,0,2.3-.21c.462-.2.616-.546.616-1.218V17.206h1.5V16.058h-1.5v-1.4Zm7.546-1.106a1.145,1.145,0,0,0,1.176-1.162A1.157,1.157,0,0,0-32.9,11.214a1.157,1.157,0,0,0-1.176,1.176A1.145,1.145,0,0,0-32.9,13.552Zm0,6.776a1.142,1.142,0,0,0,1.176-1.148A1.148,1.148,0,0,0-32.9,18a1.148,1.148,0,0,0-1.176,1.176A1.142,1.142,0,0,0-32.9,20.328Zm8.2.672h5.88V19.67h-2.016V10.682H-22.05a6.06,6.06,0,0,1-2.24.8V12.5h1.848V19.67H-24.7Zm10.962-5.264c1.106,0,1.708.742,1.708,2.058,0,1.344-.714,2.156-1.61,2.156-1.106,0-1.848-.966-2.016-3.01A2.417,2.417,0,0,1-13.734,15.736Zm.112,5.446a3.153,3.153,0,0,0,3.08-3.388c0-2.17-1.162-3.234-2.9-3.234a3.1,3.1,0,0,0-2.24,1.19c.07-2.94,1.162-3.934,2.478-3.934a2.214,2.214,0,0,1,1.61.77l.882-.98A3.46,3.46,0,0,0-13.286,10.5c-2.03,0-3.892,1.582-3.892,5.544C-17.178,19.544-15.582,21.182-13.622,21.182Zm7.434,0a3.4,3.4,0,0,0,3.472-3.57,2.963,2.963,0,0,0-3.136-3.276,2.946,2.946,0,0,0-1.414.364l.238-2.646h3.822V10.682H-8.428l-.308,4.9.784.518A2.711,2.711,0,0,1-6.3,15.512a1.911,1.911,0,0,1,1.96,2.156,2.014,2.014,0,0,1-2.044,2.2A3.3,3.3,0,0,1-8.792,18.76l-.77,1.05A4.56,4.56,0,0,0-6.188,21.182Zm8.218,0c2.016,0,3.332-1.792,3.332-5.376,0-3.556-1.316-5.306-3.332-5.306S-1.3,12.236-1.3,15.806.014,21.182,2.03,21.182Zm0-1.274c-1.05,0-1.792-1.12-1.792-4.1,0-2.954.742-4.032,1.792-4.032s1.792,1.078,1.792,4.032C3.822,18.788,3.08,19.908,2.03,19.908Zm14.728.35.826-.812-3.738-3.738,3.738-3.724-.826-.826L13.034,14.9,9.31,11.158l-.84.826,3.738,3.724L8.47,19.446l.826.812,3.738-3.724Zm7.266.924c1.988,0,3.332-1.176,3.332-2.7a3.012,3.012,0,0,0-1.736-2.73v-.07a3.2,3.2,0,0,0,1.358-2.422,2.661,2.661,0,0,0-2.912-2.73,2.691,2.691,0,0,0-2.94,2.66A2.913,2.913,0,0,0,22.512,15.6v.07a3.156,3.156,0,0,0-1.848,2.772C20.664,20.034,22.092,21.182,24.024,21.182Zm.672-5.908c-1.148-.448-2.128-.966-2.128-2.086a1.411,1.411,0,0,1,1.47-1.5,1.529,1.529,0,0,1,1.582,1.666A2.608,2.608,0,0,1,24.7,15.274Zm-.644,4.746a1.8,1.8,0,0,1-1.96-1.736,2.629,2.629,0,0,1,1.2-2.156c1.4.574,2.534,1.05,2.534,2.31A1.587,1.587,0,0,1,24.052,20.02Zm7.7,1.162c1.89,0,3.444-1.092,3.444-2.954a2.609,2.609,0,0,0-2.128-2.576v-.07a2.491,2.491,0,0,0,1.778-2.422c0-1.694-1.3-2.66-3.15-2.66a4.343,4.343,0,0,0-2.954,1.246l.84,1.008a3,3,0,0,1,2.058-.966,1.432,1.432,0,0,1,1.582,1.484c0,1.036-.672,1.806-2.7,1.806v1.19c2.324,0,3.052.742,3.052,1.876a1.733,1.733,0,0,1-1.96,1.722,3.33,3.33,0,0,1-2.436-1.134l-.784,1.036A4.277,4.277,0,0,0,31.752,21.182Zm8.218,0c2.016,0,3.332-1.792,3.332-5.376,0-3.556-1.316-5.306-3.332-5.306s-3.332,1.736-3.332,5.306S37.954,21.182,39.97,21.182Zm0-1.274c-1.05,0-1.792-1.12-1.792-4.1,0-2.954.742-4.032,1.792-4.032s1.792,1.078,1.792,4.032C41.762,18.788,41.02,19.908,39.97,19.908Zm14.728.35.826-.812-3.738-3.738,3.738-3.724-.826-.826L50.974,14.9,47.25,11.158l-.84.826,3.738,3.724L46.41,19.446l.826.812,3.738-3.724ZM59.164,21h5.88V19.67H63.028V10.682H61.81a6.06,6.06,0,0,1-2.24.8V12.5h1.848V19.67H59.164Zm10.78.182c1.988,0,3.332-1.176,3.332-2.7a3.012,3.012,0,0,0-1.736-2.73v-.07A3.2,3.2,0,0,0,72.9,13.258a2.661,2.661,0,0,0-2.912-2.73,2.691,2.691,0,0,0-2.94,2.66A2.913,2.913,0,0,0,68.432,15.6v.07a3.156,3.156,0,0,0-1.848,2.772C66.584,20.034,68.012,21.182,69.944,21.182Zm.672-5.908c-1.148-.448-2.128-.966-2.128-2.086a1.411,1.411,0,0,1,1.47-1.5,1.529,1.529,0,0,1,1.582,1.666A2.608,2.608,0,0,1,70.616,15.274Zm-.644,4.746a1.8,1.8,0,0,1-1.96-1.736,2.629,2.629,0,0,1,1.2-2.156c1.4.574,2.534,1.05,2.534,2.31A1.587,1.587,0,0,1,69.972,20.02Zm7.938,1.162c2.016,0,3.332-1.792,3.332-5.376,0-3.556-1.316-5.306-3.332-5.306s-3.332,1.736-3.332,5.306S75.894,21.182,77.91,21.182Zm0-1.274c-1.05,0-1.792-1.12-1.792-4.1,0-2.954.742-4.032,1.792-4.032S79.7,12.852,79.7,15.806C79.7,18.788,78.96,19.908,77.91,19.908Z" transform="translate(968.5 273)" fill="#0a0a0a"/>
    <g id="パス_6832" data-name="パス 6832" transform="translate(623 247)" fill="none">
      <path d="M0,0H510V175H0Z" stroke="none"/>
      <path d="M 1 1 L 1 174 L 509 174 L 509 1 L 1 1 M 0 0 L 510 0 L 510 175 L 0 175 L 0 0 Z" stroke="none" fill="#cecece"/>
    </g>
  </g>
</svg>
