<svg xmlns="http://www.w3.org/2000/svg" width="315" height="416" viewBox="0 0 315 416">
  <g id="グループ_2078" data-name="グループ 2078" transform="translate(-30 -452)">
    <path id="パス_6804" data-name="パス 6804" d="M0,0H133V200H0Z" transform="translate(30 452)" fill="#e4f5f2"/>
    <path id="パス_6805" data-name="パス 6805" d="M0,0H133V200H0Z" transform="translate(30 668)" fill="#e4f5f2"/>
    <g id="パス_6806" data-name="パス 6806" transform="translate(30 452)" fill="none">
      <path d="M0,0H315V200H0Z" stroke="none"/>
      <path d="M 1 1 L 1 199 L 314 199 L 314 1 L 1 1 M 0 0 L 315 0 L 315 200 L 0 200 L 0 0 Z" stroke="none" fill="#cecece"/>
    </g>
    <g id="パス_6807" data-name="パス 6807" transform="translate(30 668)" fill="none">
      <path d="M0,0H315V200H0Z" stroke="none"/>
      <path d="M 1 1 L 1 199 L 314 199 L 314 1 L 1 1 M 0 0 L 315 0 L 315 200 L 0 200 L 0 0 Z" stroke="none" fill="#cecece"/>
    </g>
    <path id="パス_6808" data-name="パス 6808" d="M5.436-7.236A13.22,13.22,0,0,1,4.548-4.3a16.776,16.776,0,0,0-2-1.4,12.305,12.305,0,0,0,.8-1.536Zm3.708-2.82H7.992v4.332a9.578,9.578,0,0,1-1.032-1.5l-.432.168c.06-.324.12-.672.18-1.02l-.744-.252-.2.036H3.78a15.765,15.765,0,0,0,.492-1.56l-1.1-.228A10.9,10.9,0,0,1,.324-4.752a8.431,8.431,0,0,1,.936.732,9.817,9.817,0,0,0,.708-.828,15.162,15.162,0,0,1,2.064,1.56A8.386,8.386,0,0,1,.624.036a3.933,3.933,0,0,1,.9.828C3.72-.384,5.46-2.712,6.348-6.3A13.508,13.508,0,0,0,7.992-4.14V.912H9.144v-3.96A10.008,10.008,0,0,0,10.992-1.8a4.124,4.124,0,0,1,.792-.96,10.467,10.467,0,0,1-2.64-1.764Zm12.84.18a9.953,9.953,0,0,1-3.168,2.508,3.878,3.878,0,0,1,.8.792,12.255,12.255,0,0,0,3.42-2.88Zm.3,3.264A10.293,10.293,0,0,1,18.96-3.924a4.491,4.491,0,0,1,.792.792A13.063,13.063,0,0,0,23.3-6.18ZM15.036-5.448V-8.316h1.68v2.868Zm4,1.044V-5.448H17.808V-8.316h1.056V-9.348H12.708v1.032h1.284v2.868H12.516V-4.4H13.98A6.808,6.808,0,0,1,12.42.276a3.836,3.836,0,0,1,.828.756A7.849,7.849,0,0,0,15.024-4.4h1.692V.948h1.092V-4.4Zm3.492.984A8.955,8.955,0,0,1,18.348.036a4.267,4.267,0,0,1,.792.9A10.623,10.623,0,0,0,23.58-3Zm3.408-1.464a13.038,13.038,0,0,1,2.112,3l1.02-.636A12.484,12.484,0,0,0,26.88-5.46Zm9.432-2.724H32.616v-2.46h-1.2v2.46H24.66v1.116h6.756v5.88c0,.276-.1.372-.384.372-.324.012-1.344.012-2.4-.024a5.236,5.236,0,0,1,.5,1.248A9.638,9.638,0,0,0,31.872.756c.528-.192.744-.54.744-1.356V-6.492h2.748Zm4.692-1.176a9.123,9.123,0,0,0-2.316-1.224l-.612.828a9.424,9.424,0,0,1,2.28,1.308ZM39.4-5.676a10.469,10.469,0,0,0-2.352-1.1l-.576.864a9.259,9.259,0,0,1,2.316,1.188Zm-.42,1.944a34.066,34.066,0,0,1-2.124,3.8l.96.708a40.318,40.318,0,0,0,2-3.792Zm8.64,4.1a14.349,14.349,0,0,0-2.244-3.444l-.96.5a15.7,15.7,0,0,1,1.116,1.56c-1.248.072-2.508.144-3.636.2.492-.984,1.02-2.22,1.428-3.312h4.068V-5.172h-3.3V-7.164h2.736V-8.22H44.088v-1.848H42.936V-8.22H40.32v1.056h2.616v1.992H39.72v1.056h2.268a23.627,23.627,0,0,1-1.3,3.372l-.96.048L39.888.432c1.632-.12,3.984-.276,6.228-.456a8.5,8.5,0,0,1,.456.984Z" transform="translate(46 478)" fill="#0a0a0a"/>
    <path id="パス_6809" data-name="パス 6809" d="M5.7-5.5v2.4H2.94V-5.5ZM6.8-2.04V-6.552H1.86V-1.1H2.94V-2.04Zm4.536-7.2H.684v1.116H8.748v7.56c0,.252-.084.324-.348.336-.288,0-1.284.012-2.2-.036a4.964,4.964,0,0,1,.468,1.2A8.143,8.143,0,0,0,9.228.72c.5-.168.684-.54.684-1.26V-8.124H11.34Zm6.276,1.32h1.392v2.388c0,.132-.036.168-.18.168s-.648.012-1.152-.012a4.4,4.4,0,0,1,.3.984,4.729,4.729,0,0,0,1.668-.156c.384-.156.444-.444.444-.948V-7.92h3.168V-8.952H18.564v-1.116h-1.14v1.116H12.792V-7.92H16.56a3.359,3.359,0,0,1-1.788,3.228,4.073,4.073,0,0,1,.816.756A4.217,4.217,0,0,0,17.616-7.9Zm2.988.984A12.916,12.916,0,0,1,22.548-4.6L23.5-5.16a12.931,12.931,0,0,0-2.04-2.28ZM14.46-7.392a5.314,5.314,0,0,1-1.9,2.052,5.6,5.6,0,0,1,.768.66A7.418,7.418,0,0,0,15.516-7.1Zm1.872,4.5h3.636a6.316,6.316,0,0,1-1.9,1.452A5.534,5.534,0,0,1,16.32-2.88Zm4.56-.948-.192.048H17.268c.192-.216.372-.444.54-.672L16.632-4.68a7.777,7.777,0,0,1-3.78,2.616,3.189,3.189,0,0,1,.708.828,11.993,11.993,0,0,0,1.956-1.056A6.843,6.843,0,0,0,16.932-.948a18.665,18.665,0,0,1-4.416.924,3.236,3.236,0,0,1,.54,1A18.092,18.092,0,0,0,18.012-.3,13.67,13.67,0,0,0,22.9.948,4.9,4.9,0,0,1,23.556-.1a15.791,15.791,0,0,1-4.344-.828,6.862,6.862,0,0,0,2.412-2.424Zm7.992-.672v.648h-1.02v-.648Zm0,1.98h-1.02V-3.2h1.02Zm-3,0V-3.2H26.9v.672Zm0-1.98H26.9v.648h-1.02ZM26.9-6.636H24.732v.828H26.9v.588H25v3.4H26.9V-1.2H24.588v.84H26.9v1.3h.96V-.36H30.2V-1.2h-2.34v-.624h1.944v-3.4H27.864v-.588h2.2v-.828h-2.2v-.588H26.9Zm4.98-1.608a7.139,7.139,0,0,1,.756,1.2l1-.312a5.314,5.314,0,0,0-.564-.888H35.4v-.948H31.668A6,6,0,0,0,32-9.876l-1.08-.264a5.715,5.715,0,0,1-1.092,1.752v-.8H26.916a6.92,6.92,0,0,0,.324-.672L26.2-10.14A6.547,6.547,0,0,1,24.42-7.656a7.191,7.191,0,0,1,.924.6,7.73,7.73,0,0,0,.984-1.188h.408a6.618,6.618,0,0,1,.468,1.02l.984-.276a4.58,4.58,0,0,0-.36-.744H29.7a4.29,4.29,0,0,1-.612.54,7.009,7.009,0,0,1,.972.552,7.394,7.394,0,0,0,1-1.092ZM32.2-.192c-.54,0-.624-.1-.624-.588V-5.8h2.316v2.472c0,.144-.048.18-.192.192-.18,0-.7,0-1.26-.012a4.267,4.267,0,0,1,.372,1.032,4.381,4.381,0,0,0,1.68-.192c.372-.18.468-.48.468-1V-6.78h-4.44V-.768c0,1.26.36,1.584,1.56,1.584h2c1.068,0,1.38-.492,1.5-2.112a2.857,2.857,0,0,1-.96-.42c-.06,1.272-.156,1.524-.636,1.524Zm9-4.188c.012-.192.012-.384.012-.588v-.768h1.668V-4.38Zm4.128,0H43.872V-5.736h1.4v-.912h-1.4v-1.38h-1v1.38H41.208v-1.38H40.26v1.38H38.82v.912h1.44v.756c0,.2,0,.408-.012.6H38.712v.936H40.1A2.914,2.914,0,0,1,38.76-1.632a3.293,3.293,0,0,1,.7.72A3.475,3.475,0,0,0,41.1-3.444h1.776v2.328h1V-3.444h1.452Zm-7.2,3.768V-8.5h7.728V-.612ZM37.008-9.528V.972h1.116V.432h7.728v.54h1.164v-10.5ZM8.652,32.524v1.392h1.02V32.524h1.656v-.852H7.38a2.61,2.61,0,0,0,.012-.3v-.216a19.632,19.632,0,0,0,3.4-.516l-.72-.672a19.38,19.38,0,0,1-2.856.468l-.8-.192v1.08a2.219,2.219,0,0,1-1.152,2.04,2.565,2.565,0,0,1,.684.756,3.108,3.108,0,0,0,1.26-1.6ZM3.228,37.576H8.88v.72H3.228Zm0-1.38H8.88V36.9H3.228Zm0-1.356H8.88v.684H3.228Zm-1.08,4.152H10v-4.86H2.148Zm1.536-6.468v1.368h.984V32.524H5.952v-.852H2.5a2.034,2.034,0,0,0,.012-.264v-.252a18.156,18.156,0,0,0,3.168-.528l-.708-.684a16.414,16.414,0,0,1-2.664.492l-.78-.216v1.152a3.166,3.166,0,0,1-1,2.508,2.983,2.983,0,0,1,.744.708,3.8,3.8,0,0,0,1.116-2.064Zm.444,6.5A13.12,13.12,0,0,1,.636,40.156a7.841,7.841,0,0,1,.84.828A15.9,15.9,0,0,0,5.148,39.5Zm2.736.588a24.254,24.254,0,0,1,3.216,1.356l1.284-.528a37.907,37.907,0,0,0-3.588-1.392Zm13.848-8.16H15.228v-.54h5.484Zm0,1.14H15.228v-.552h5.484ZM21.84,30.3H14.148v2.9H21.84Zm1.536,3.36H12.66v.816H23.376ZM14.988,37.3v-.564h2.46V37.3Zm0-1.728h2.46v.552h-2.46Zm6.084.552H18.528v-.552h2.544Zm0,1.176H18.528v-.564h2.544Zm-2.544,2.508v-.576H22.4v-.756H18.528v-.54h3.636v-3H13.932v3h3.516v.54H13.632v.756h3.816v.576H12.612v.852H23.424v-.852ZM5.616,79.868c0,.108-.036.144-.132.144s-.324,0-.6-.012V73.964h.732Zm-5-8.256H3c-.108.468-.252.972-.384,1.392H.924v7.9h.912V73.964h.8v6.1h.768v-6.1h.72v6.1h.7a3.469,3.469,0,0,1,.264.828,2.287,2.287,0,0,0,1.128-.18c.252-.144.324-.408.324-.828V73h-2.9c.156-.42.312-.912.468-1.392H6.768V70.544H.612Zm10.9.948h-.9V69.992H9.54V72.56H6.876V73.6H9.54v6.048c0,.192-.072.252-.252.252s-.72.012-1.3-.012a4.894,4.894,0,0,1,.36,1.044,4.062,4.062,0,0,0,1.764-.216c.348-.168.492-.468.492-1.068V73.6h.9Zm-2.5,4.716A9.379,9.379,0,0,0,7.92,74.66l-.912.312A9.9,9.9,0,0,1,8.04,77.648Zm6.372-4.44h1.092V71.828h3.036v1.008h1.1V71.828h2.676v-1.02H20.616v-.876h-1.1v.876H16.476v-.876H15.384v.876h-2.6v1.02h2.6Zm-.324-.072a9.307,9.307,0,0,1-2.676,3.42,8.358,8.358,0,0,1,.708,1.032,9.516,9.516,0,0,0,.984-.984v4.716h1.08v-6.12a13.645,13.645,0,0,0,.96-1.728Zm4.1,3.48v1.584H17.376V76.244Zm1.02,2.508v-3.42h-3.84v4.116h1.032v-.7Zm3.192-5.424H16.26v1.044h4.932v5.244c0,.192-.072.24-.3.252-.2.012-.972.012-1.74-.024a4.132,4.132,0,0,1,.4,1.044,7.045,7.045,0,0,0,2.16-.18c.444-.156.588-.456.588-1.08V74.372h1.08ZM27.012,76.5v-.732h2.376V76.5Zm0-2.184h2.376v.744H27.012Zm6.012,0v.744H30.5v-.744Zm0,2.184H30.5v-.732h2.52ZM30.5,79.688v-.852h4.1V77.96H30.5v-.684h3.66V73.544H30.5v-.612h4.788v-.888H30.5v-.792c1.356-.1,2.64-.228,3.672-.408l-.564-.876a65.067,65.067,0,0,1-7.992.624,3.483,3.483,0,0,1,.228.876c1.116-.024,2.34-.06,3.54-.132v.708H24.72v.888h4.668v.612H25.92v3.732h3.468v.684h-3.84v.876h3.84v.852H24.66v.9H35.376v-.9Z" transform="translate(46 557)" fill="#0a0a0a"/>
    <path id="パス_6810" data-name="パス 6810" d="M10.74-9.96H9.684v5.2c0,.156-.048.2-.24.2-.168.012-.756.012-1.368-.012a3.984,3.984,0,0,1,.336,1.008,5.417,5.417,0,0,0,1.824-.18c.4-.168.5-.444.5-1.008Zm-2.232.576H7.488v4.008h1.02ZM3.288-7.152V-8.616H4.56v1.464ZM6.612-.492V-1.764H10.14v-1.02H6.612V-3.936H5.6v-2.22H6.852v-1H5.6V-8.616h.984V-9.6H1.212v.984H2.256v1.464H.8v1H2.16A2.856,2.856,0,0,1,.648-4.2a4.994,4.994,0,0,1,.732.78A3.688,3.688,0,0,0,3.216-6.156H4.56V-3.72h.9v.936H1.86v1.02h3.6V-.492H.636V.54H11.364V-.492Zm8.2-3.192a12.109,12.109,0,0,0,2.6-1.9v1.692h1.1v-1.74a11,11,0,0,0,2.712,1.944ZM18.5-.3v-.9h2.28v.9Zm-3.168-.9h2.112v.9H15.336Zm2.112-.768H15.336v-.84h2.112Zm3.336,0H18.5v-.84h2.28ZM17.412-6.792H15.8l.492-.192a5.76,5.76,0,0,0-.84-1.416c.648-.036,1.308-.072,1.956-.12Zm5.868.936v-.936H20.712c.312-.432.684-1.032,1.032-1.6l-1.212-.324a12,12,0,0,1-.9,1.8l.384.12h-1.5V-8.616a33.7,33.7,0,0,0,3.756-.528l-.72-.8a55.7,55.7,0,0,1-8.124.744,3.528,3.528,0,0,1,.228.864c.456-.012.924-.024,1.392-.048l-.636.24A7.226,7.226,0,0,1,15.2-6.792h-2.46v.936h3.564a11.928,11.928,0,0,1-3.876,2.064,4.3,4.3,0,0,1,.708.864c.36-.132.744-.288,1.116-.468V.96h1.08v-.4h5.448V.912H21.9V-3.36c.324.144.66.264.984.372a4.279,4.279,0,0,1,.732-.936,12.073,12.073,0,0,1-4.008-1.932ZM32.7-7.08a.907.907,0,0,0,.9-.9.907.907,0,0,0-.9-.9.907.907,0,0,0-.9.9A.907.907,0,0,0,32.7-7.08Zm0,2.172-3.96-3.96-.348.348,3.96,3.96L28.38-.588l.348.348L32.7-4.212l3.96,3.96L37.008-.6l-3.96-3.96,3.96-3.96-.348-.348Zm-2.52.348a.907.907,0,0,0-.9-.9.907.907,0,0,0-.9.9.907.907,0,0,0,.9.9A.907.907,0,0,0,30.18-4.56Zm5.04,0a.907.907,0,0,0,.9.9.907.907,0,0,0,.9-.9.907.907,0,0,0-.9-.9A.907.907,0,0,0,35.22-4.56ZM32.7-2.04a.907.907,0,0,0-.9.9.907.907,0,0,0,.9.9.907.907,0,0,0,.9-.9A.907.907,0,0,0,32.7-2.04ZM39.744,0h1.38V-4.68a2.183,2.183,0,0,1,1.476-.9c.756,0,1.1.456,1.1,1.6V0h1.38V-4.68a2.2,2.2,0,0,1,1.488-.9c.744,0,1.1.456,1.1,1.6V0h1.38V-4.152c0-1.68-.648-2.616-2.028-2.616A3.041,3.041,0,0,0,44.88-5.556a1.762,1.762,0,0,0-1.824-1.212,2.875,2.875,0,0,0-2.04,1.092H40.98L40.872-6.6H39.744Zm11.3,0h1.38V-4.68a2.183,2.183,0,0,1,1.476-.9c.756,0,1.1.456,1.1,1.6V0h1.38V-4.68a2.2,2.2,0,0,1,1.488-.9c.744,0,1.1.456,1.1,1.6V0h1.38V-4.152c0-1.68-.648-2.616-2.028-2.616a3.041,3.041,0,0,0-2.148,1.212A1.762,1.762,0,0,0,54.36-6.768a2.875,2.875,0,0,0-2.04,1.092h-.036L52.176-6.6H51.048ZM8.784,31.744H3.216V31.06H8.784Zm0,1.4H3.216v-.7H8.784ZM9.9,30.3H2.148v3.588H9.9Zm-.36,6.552a5.655,5.655,0,0,1-1.092,1.512A5.289,5.289,0,0,1,7.44,36.856ZM2.748,39.124v-.78H4.632v.6Zm0-2.292H4.632v.708H2.748Zm1.884-1.464v.672H2.748v-.672Zm5.58.588-.192.036H6.072v.864h1.08l-.648.18a7.352,7.352,0,0,0,1.212,1.956A6.906,6.906,0,0,1,5.7,40V35.368h5.544v-.912H.732v.912h.984V39.22c-.4.036-.768.072-1.092.1l.084.972c1.092-.108,2.508-.264,3.924-.42v1.068H5.7v-.852a3.5,3.5,0,0,1,.552.816,8.288,8.288,0,0,0,2.22-1.2,6.649,6.649,0,0,0,2.388,1.236,3.306,3.306,0,0,1,.66-.864A6.668,6.668,0,0,1,9.228,39.04,6.817,6.817,0,0,0,10.9,36.22Zm9.06,3.156H16.7v-1.02h2.568ZM22.764,35.7H13.32v5.244h1.092V36.64h7.236v3.036c0,.156-.06.2-.252.2a9.9,9.9,0,0,1-1.128.012V37.3H15.732v3.168H16.7v-.576h3.2a4.027,4.027,0,0,1,.348,1.032,5.981,5.981,0,0,0,1.98-.18c.408-.18.528-.492.528-1.056ZM20.1,34.288H15.852v-.972H20.1Zm-5.328-1.74v2.508h6.456V32.548ZM18.5,31V29.92h-1.14V31H12.816v.972H23.172V31Zm15.24,3.552H31.08v-.816h2.664Zm0,1.608H31.08v-.816h2.664Zm0,1.62H31.08v-.84h2.664Zm-3.7-4.86V38.6h4.764V32.92h-2.46c.036-.264.072-.564.12-.864h2.94V31.1H32.568c.036-.372.072-.756.1-1.1l-1.1-.06c-.024.36-.048.756-.084,1.164H28.308v.96h3.084c-.024.3-.06.6-.1.864Zm-2.976-2.94a13.338,13.338,0,0,1-2.844,4.62,8.683,8.683,0,0,1,.612,1.128,13.927,13.927,0,0,0,1.032-1.248v6.444h1.056v-8.1a19.369,19.369,0,0,0,1.188-2.532Zm8.412,9.408h-6.36V33.556H28.092v7.38h1.032V40.36h6.36ZM9.852,79.16H2.172V72.74H1.08v8.2H2.172v-.72h7.68v.7h1.092V72.74H9.852ZM7.86,75.128H6.444V73.82H7.86Zm0,2.208H6.444v-1.32H7.86Zm-3.792-1.32h1.4v1.32h-1.4Zm0-2.2h1.4v1.308h-1.4ZM.708,70.688V71.72H5.4V72.9H3.132V78.26h5.7V72.9H6.516V71.72h4.776V70.688ZM21.624,79.3H20.052V74.072h1.572Zm-7.308-5.232h1.5V79.3h-1.5ZM19.044,75.2H16.812V74.072h2.232Zm-2.232,2.916h2.232V79.3H16.812Zm2.232-.888H16.812v-1.14h2.232Zm4.284-5.5V70.676H12.72v1.056H17.2c-.072.432-.168.912-.264,1.32h-3.7V80.96h1.08v-.624h7.308v.624h1.14V73.052h-4.68c.12-.408.264-.876.408-1.32Zm7.224,4.3v-2.9h3.12v2.9Zm-4.272,0v-2.9h3.108v2.9Zm4.272-4V69.944H29.388v2.088H25.164v5.8H26.28V77.12h3.108v3.816h1.164V77.12h3.12v.648h1.164V72.032Zm13.932,2.244a12.831,12.831,0,0,1,2.1,4.392l1.116-.54a12.712,12.712,0,0,0-2.208-4.368ZM37.6,74.192a9.182,9.182,0,0,1-1.284,4.248l1.032.6a10.582,10.582,0,0,0,1.344-4.632Zm2.124-3.36a18.067,18.067,0,0,1,4.032,2.148L44.484,72A19.245,19.245,0,0,0,40.44,69.98Zm-.072,2.448v5.832c0,1.308.384,1.68,1.764,1.68H43.56c1.356,0,1.668-.66,1.812-2.916a2.989,2.989,0,0,1-1.032-.48c-.1,1.968-.2,2.376-.864,2.376H41.532c-.612,0-.732-.1-.732-.66V73.28Zm18.1,1.272H55.08v-.816h2.664Zm0,1.608H55.08v-.816h2.664Zm0,1.62H55.08v-.84h2.664Zm-3.7-4.86V78.6h4.764V72.92h-2.46c.036-.264.072-.564.12-.864h2.94V71.1H56.568c.036-.372.072-.756.1-1.1l-1.1-.06c-.024.36-.048.756-.084,1.164H52.308v.96h3.084c-.024.3-.06.6-.1.864Zm-2.976-2.94a13.338,13.338,0,0,1-2.844,4.62,8.683,8.683,0,0,1,.612,1.128,13.927,13.927,0,0,0,1.032-1.248v6.444h1.056v-8.1a19.369,19.369,0,0,0,1.188-2.532Zm8.412,9.408h-6.36V73.556H52.092v7.38h1.032V80.36h6.36Zm-50.7,32.356H3.216v-.684H8.784Zm0,1.4H3.216v-.7H8.784ZM9.9,110.3H2.148v3.588H9.9Zm-.36,6.552a5.655,5.655,0,0,1-1.092,1.512,5.289,5.289,0,0,1-1.008-1.512Zm-6.792,2.268v-.78H4.632v.6Zm0-2.292H4.632v.708H2.748Zm1.884-1.464v.672H2.748v-.672Zm5.58.588-.192.036H6.072v.864h1.08l-.648.18a7.352,7.352,0,0,0,1.212,1.956A6.906,6.906,0,0,1,5.7,120v-4.632h5.544v-.912H.732v.912h.984v3.852c-.4.036-.768.072-1.092.1l.084.972c1.092-.108,2.508-.264,3.924-.42v1.068H5.7v-.852a3.5,3.5,0,0,1,.552.816,8.288,8.288,0,0,0,2.22-1.2,6.649,6.649,0,0,0,2.388,1.236,3.306,3.306,0,0,1,.66-.864,6.668,6.668,0,0,1-2.292-1.032,6.817,6.817,0,0,0,1.668-2.82Zm4.86-5.976a13.338,13.338,0,0,1-2.844,4.62,8.683,8.683,0,0,1,.612,1.128,13.927,13.927,0,0,0,1.032-1.248v6.444h1.056v-8.1a19.369,19.369,0,0,0,1.188-2.532Zm.9,10.692h4.944v-1H15.972Zm1.5-6.648V112.2c.7-.084,1.416-.18,2.136-.288.024.72.06,1.428.12,2.112Zm6.024,1.008v-1.008H20.832c-.06-.744-.1-1.512-.108-2.316a20.74,20.74,0,0,0,2.256-.552l-.852-.852a27.168,27.168,0,0,1-4.992,1.008l-.756-.24v6.864l-.792.12.24,1.044c1.176-.192,2.724-.48,4.188-.732l-.048-1.008c-.852.144-1.7.288-2.5.408v-2.736h2.364c.384,3.108,1.2,5.484,2.556,5.484.828,0,1.188-.432,1.344-2.136a3.037,3.037,0,0,1-.876-.588c-.048,1.14-.144,1.632-.372,1.632-.6,0-1.224-1.848-1.548-4.392Zm10.248-.48H31.08v-.816h2.664Zm0,1.608H31.08v-.816h2.664Zm0,1.62H31.08v-.84h2.664Zm-3.7-4.86V118.6h4.764V112.92h-2.46c.036-.264.072-.564.12-.864h2.94v-.96H32.568c.036-.372.072-.756.1-1.1l-1.1-.06c-.024.36-.048.756-.084,1.164H28.308v.96h3.084c-.024.3-.06.6-.1.864Zm-2.976-2.94a13.338,13.338,0,0,1-2.844,4.62,8.683,8.683,0,0,1,.612,1.128,13.927,13.927,0,0,0,1.032-1.248v6.444h1.056v-8.1a19.369,19.369,0,0,0,1.188-2.532Zm8.412,9.408h-6.36v-5.832H28.092v7.38h1.032v-.576h6.36ZM9.852,159.16H2.172v-6.42H1.08v8.2H2.172v-.72h7.68v.7h1.092V152.74H9.852ZM7.86,155.128H6.444V153.82H7.86Zm0,2.208H6.444v-1.32H7.86Zm-3.792-1.32h1.4v1.32h-1.4Zm0-2.2h1.4v1.308h-1.4Zm-3.36-3.132v1.032H5.4V152.9H3.132v5.364h5.7V152.9H6.516V151.72h4.776v-1.032ZM21.624,159.3H20.052v-5.232h1.572Zm-7.308-5.232h1.5V159.3h-1.5Zm4.728,1.128H16.812v-1.128h2.232Zm-2.232,2.916h2.232V159.3H16.812Zm2.232-.888H16.812v-1.14h2.232Zm4.284-5.5v-1.056H12.72v1.056H17.2c-.072.432-.168.912-.264,1.32h-3.7v7.908h1.08v-.624h7.308v.624h1.14v-7.908h-4.68c.12-.408.264-.876.408-1.32Zm7.224,4.3v-2.9h3.12v2.9Zm-4.272,0v-2.9h3.108v2.9Zm4.272-4v-2.088H29.388v2.088H25.164v5.8H26.28v-.708h3.108v3.816h1.164V157.12h3.12v.648h1.164v-5.736Zm13.932,2.244a12.831,12.831,0,0,1,2.1,4.392l1.116-.54a12.712,12.712,0,0,0-2.208-4.368Zm-6.888-.084a9.182,9.182,0,0,1-1.284,4.248l1.032.6a10.582,10.582,0,0,0,1.344-4.632Zm2.124-3.36a18.066,18.066,0,0,1,4.032,2.148l.732-.984a19.245,19.245,0,0,0-4.044-2.016Zm-.072,2.448v5.832c0,1.308.384,1.68,1.764,1.68H43.56c1.356,0,1.668-.66,1.812-2.916a2.989,2.989,0,0,1-1.032-.48c-.1,1.968-.2,2.376-.864,2.376H41.532c-.612,0-.732-.1-.732-.66V153.28Zm18.1,1.272H55.08v-.816h2.664Zm0,1.608H55.08v-.816h2.664Zm0,1.62H55.08v-.84h2.664Zm-3.7-4.86V158.6h4.764V152.92h-2.46c.036-.264.072-.564.12-.864h2.94v-.96H56.568c.036-.372.072-.756.1-1.1l-1.1-.06c-.024.36-.048.756-.084,1.164H52.308v.96h3.084c-.024.3-.06.6-.1.864Zm-2.976-2.94a13.338,13.338,0,0,1-2.844,4.62,8.683,8.683,0,0,1,.612,1.128,13.925,13.925,0,0,0,1.032-1.248v6.444h1.056v-8.1a19.37,19.37,0,0,0,1.188-2.532Zm8.412,9.408h-6.36v-5.832H52.092v7.38h1.032v-.576h6.36Z" transform="translate(46 693)" fill="#0a0a0a"/>
    <path id="パス_6811" data-name="パス 6811" d="M2.607,2.189,3.4,1.837a10.271,10.271,0,0,1-1.386-5.28A10.327,10.327,0,0,1,3.4-8.723l-.792-.341A10.366,10.366,0,0,0,.979-3.443,10.376,10.376,0,0,0,2.607,2.189ZM8.349-7.183H6.9V-9.218H6.028v2.035H4.609v5.8h.77v-4.9h.649V.869H6.9v-7.15h.7v3.806c0,.1-.022.121-.1.121H7.007A2.26,2.26,0,0,1,7.26-1.5,1.231,1.231,0,0,0,8.1-1.683c.209-.143.253-.429.253-.77Zm2.618,4.158v.957H9.636v-.957Zm2.321.957H11.836v-.957h1.452ZM11.836-.3v-.968h1.452V-.3Zm-2.2,0v-.968h1.331V-.3ZM8.723.858h.913V.506h3.652v.33h.946V-3.839H8.723ZM12.9-5.335H10.087V-6.4H12.9Zm-3.7-1.848v2.618h4.609V-7.183ZM8.69-8.7v.836h5.643V-8.7ZM23.342-.583l.649-.638L21.054-4.158l2.937-2.926-.649-.649L20.416-4.8,17.49-7.733l-.66.649,2.937,2.926L16.83-1.221l.649.638,2.937-2.926Zm9.229-.231H30.217v-.935h2.354Zm3.2-3.124H27.115V.869h1V-3.08h6.633V-.3c0,.143-.055.187-.231.187A9.077,9.077,0,0,1,33.484-.1V-2.475H29.326v2.9h.891V-.1h2.937a3.691,3.691,0,0,1,.319.946A5.483,5.483,0,0,0,35.288.682c.374-.165.484-.451.484-.968Zm-2.442-1.3H29.436v-.891H33.33Zm-4.884-1.6v2.3h5.918v-2.3ZM31.867-8.25v-.99H30.822v.99H26.653v.891h9.493V-8.25ZM42.581-7.8c.077.22.176.506.286.847a22.7,22.7,0,0,1-4.3-.143l.022,1.111a28.925,28.925,0,0,0,4.664.033,15.137,15.137,0,0,0,1.2,2.288c-.374-.044-1.155-.11-1.738-.154l-.077.913a26.378,26.378,0,0,1,2.772.33l.55-.792a5.211,5.211,0,0,1-.528-.649A12.257,12.257,0,0,1,44.3-6.061a18.959,18.959,0,0,0,2.145-.429l-.132-1.1a13.591,13.591,0,0,1-2.376.528,11.963,11.963,0,0,1-.473-1.815l-1.188.143C42.394-8.4,42.5-8.041,42.581-7.8Zm-2.09,4.312L39.4-3.729a4.318,4.318,0,0,0-.55,1.925c0,1.529,1.364,2.332,3.52,2.343A15.024,15.024,0,0,0,45.265.3L45.32-.8a13.91,13.91,0,0,1-2.882.264c-1.584-.011-2.475-.44-2.475-1.43A2.784,2.784,0,0,1,40.491-3.487Zm15.851,2.9.649-.638L54.054-4.158l2.937-2.926-.649-.649L53.416-4.8,50.49-7.733l-.66.649,2.937,2.926L49.83-1.221l.649.638,2.937-2.926Zm9.471-6.578a6.324,6.324,0,0,1-.682,1.133l.55.275c.253-.286.561-.693.858-1.089Zm-1.837,3.63h.781V-4.576a11.991,11.991,0,0,1,1.485,1.133l.484-.506a12.963,12.963,0,0,0-1.6-1.133h1.617v-.66H64.757V-7.227h-.781v1.485H62.931l.616-.319a3.539,3.539,0,0,0-.7-1.056l-.6.3a3.756,3.756,0,0,1,.671,1.078H62v.66h1.386a4.918,4.918,0,0,1-1.628,1.21,3.33,3.33,0,0,1,.528.583,6.056,6.056,0,0,0,1.694-1.474Zm-2.431.814V-7.48h5.676v4.763H64.713c.044-.209.077-.429.11-.649H63.756c-.033.231-.066.44-.11.649Zm7.7.88v-.88H68.222V-8.283h-3.5c.11-.253.231-.539.363-.836L63.976-9.24c-.077.275-.2.638-.319.957H60.588v5.566H59.554v.88h3.773c-.506.935-1.562,1.529-4,1.837a3.176,3.176,0,0,1,.484.858C62.645.44,63.855-.4,64.416-1.705,65.208-.154,66.572.605,68.882.88a3.428,3.428,0,0,1,.627-.957c-2.046-.165-3.377-.671-4.092-1.76ZM80.08-8.591H74.745v.979H80.08ZM72.809-9.24A9.954,9.954,0,0,1,70.3-6.875a4.677,4.677,0,0,1,.583.825,14.517,14.517,0,0,0,2.9-2.783Zm.429,2.354a11.675,11.675,0,0,1-3.047,3.3,5.67,5.67,0,0,1,.7.869,14.558,14.558,0,0,0,1.089-.99v4.6h1.023V-4.84a14.843,14.843,0,0,0,1.2-1.683Zm7.15,1.3H74.283v.979h3.476V-.385c0,.154-.066.209-.275.209s-.935.011-1.639-.011a4.1,4.1,0,0,1,.33,1.023A6.874,6.874,0,0,0,78.254.671c.418-.165.55-.462.55-1.045V-4.609h1.584Zm5.929-2.057.033.1a22.385,22.385,0,0,1-3.542-.143l.066,1a26.072,26.072,0,0,0,3.751.088c.077.231.154.484.253.77.055.154.121.319.187.484A25.705,25.705,0,0,1,82.6-5.412l.055,1.023a35.114,35.114,0,0,0,4.818,0A11.34,11.34,0,0,0,88.22-3c-.341-.033-1-.1-1.529-.154l-.088.836a24.287,24.287,0,0,1,2.486.341l.55-.814a2.871,2.871,0,0,1-.451-.517,10.351,10.351,0,0,1-.682-1.2,17.914,17.914,0,0,0,1.9-.363l-.176-1.034a12.111,12.111,0,0,1-2.156.462c-.077-.209-.154-.407-.22-.594s-.143-.418-.22-.649a15.213,15.213,0,0,0,2.112-.429l-.143-1a12.089,12.089,0,0,1-2.222.495,10.24,10.24,0,0,1-.231-1.243l-1.177.132C86.108-8.371,86.218-8,86.317-7.645ZM84.425-2.97l-1.078-.209a3.328,3.328,0,0,0-.462,1.65c.022,1.485,1.3,2.134,3.476,2.134a17.367,17.367,0,0,0,2.618-.2L89.034-.7a12.994,12.994,0,0,1-2.684.242c-1.606,0-2.4-.407-2.4-1.276A2.112,2.112,0,0,1,84.425-2.97ZM93.2,2.189a10.291,10.291,0,0,0,1.639-5.632A10.281,10.281,0,0,0,93.2-9.064l-.792.341A10.327,10.327,0,0,1,93.8-3.443a10.271,10.271,0,0,1-1.386,5.28ZM7.975,11.51a.825.825,0,1,0-.825-.825A.831.831,0,0,0,7.975,11.51Zm0,1.991-3.63-3.63-.319.319,3.63,3.63L4.015,17.461l.319.319,3.641-3.641,3.63,3.63.319-.319-3.63-3.63,3.63-3.63L11.6,9.871Zm-2.31.319a.825.825,0,1,0-.825.825A.831.831,0,0,0,5.665,13.82Zm4.62,0a.825.825,0,1,0,.825-.825A.831.831,0,0,0,10.285,13.82Zm-2.31,2.31a.825.825,0,1,0,.825.825A.831.831,0,0,0,7.975,16.13ZM14.432,18H15.7V13.71a2,2,0,0,1,1.353-.825c.693,0,1.012.418,1.012,1.463V18h1.265V13.71a2.02,2.02,0,0,1,1.364-.825c.682,0,1.012.418,1.012,1.463V18h1.265V14.194c0-1.54-.594-2.4-1.859-2.4a2.787,2.787,0,0,0-1.969,1.111A1.615,1.615,0,0,0,17.468,11.8a2.635,2.635,0,0,0-1.87,1h-.033l-.1-.847H14.432Zm10.362,0h1.265V13.71a2,2,0,0,1,1.353-.825c.693,0,1.012.418,1.012,1.463V18h1.265V13.71a2.02,2.02,0,0,1,1.364-.825c.682,0,1.012.418,1.012,1.463V18H33.33V14.194c0-1.54-.594-2.4-1.859-2.4A2.787,2.787,0,0,0,29.5,12.907,1.615,1.615,0,0,0,27.83,11.8a2.635,2.635,0,0,0-1.87,1h-.033l-.1-.847H24.794Z" transform="translate(46 498)" fill="#0a0a0a"/>
    <path id="パス_6812" data-name="パス 6812" d="M-48.588,0h5.04V-1.14h-1.728v-7.7H-46.32a5.194,5.194,0,0,1-1.92.684v.876h1.584V-1.14h-1.932Zm6.84,0h5.04V-1.14h-1.728v-7.7H-39.48a5.194,5.194,0,0,1-1.92.684v.876h1.584V-1.14h-1.932Zm7.608-6.1c0-1.152.6-1.836,1.356-1.836.96,0,1.62.792,1.752,2.532a2.1,2.1,0,0,1-1.68,1.08C-33.636-4.32-34.14-4.968-34.14-6.1ZM-33.024.156c1.7,0,3.288-1.392,3.288-4.872C-29.736-7.644-31.1-9-32.8-9a2.7,2.7,0,0,0-2.628,2.9c0,1.848,1,2.772,2.472,2.772a2.655,2.655,0,0,0,1.944-1.032c-.084,2.52-1.008,3.384-2.076,3.384a1.963,1.963,0,0,1-1.44-.66l-.756.852A3.031,3.031,0,0,0-33.024.156Zm7.356,0c1.7,0,2.856-1.008,2.856-2.316A2.581,2.581,0,0,0-24.3-4.5v-.06a2.744,2.744,0,0,0,1.164-2.076,2.28,2.28,0,0,0-2.5-2.34,2.307,2.307,0,0,0-2.52,2.28,2.5,2.5,0,0,0,1.188,2.064v.06A2.705,2.705,0,0,0-28.548-2.2C-28.548-.828-27.324.156-25.668.156Zm.576-5.064c-.984-.384-1.824-.828-1.824-1.788a1.209,1.209,0,0,1,1.26-1.284A1.311,1.311,0,0,1-24.3-6.552,2.236,2.236,0,0,1-25.092-4.908ZM-25.644-.84a1.546,1.546,0,0,1-1.68-1.488,2.253,2.253,0,0,1,1.032-1.848c1.2.492,2.172.9,2.172,1.98A1.36,1.36,0,0,1-25.644-.84Zm12.588.2.708-.7-3.2-3.2,3.2-3.192-.708-.708-3.192,3.2-3.192-3.2-.72.708,3.2,3.192-3.2,3.2.708.7,3.2-3.192ZM-9.228,0h5.04V-1.14H-5.916v-7.7H-6.96a5.194,5.194,0,0,1-1.92.684v.876H-7.3V-1.14H-9.228ZM-.2.156A2.914,2.914,0,0,0,2.772-2.9,2.54,2.54,0,0,0,.084-5.712,2.525,2.525,0,0,0-1.128-5.4l.2-2.268H2.352V-8.844H-2.124l-.264,4.2.672.444A2.324,2.324,0,0,1-.3-4.7,1.638,1.638,0,0,1,1.38-2.856,1.726,1.726,0,0,1-.372-.972,2.826,2.826,0,0,1-2.436-1.92l-.66.9A3.909,3.909,0,0,0-.2.156ZM7.008-4.512c.948,0,1.464.636,1.464,1.764C8.472-1.6,7.86-.9,7.092-.9c-.948,0-1.584-.828-1.728-2.58A2.072,2.072,0,0,1,7.008-4.512ZM7.1.156a2.7,2.7,0,0,0,2.64-2.9c0-1.86-1-2.772-2.484-2.772A2.655,2.655,0,0,0,5.34-4.5c.06-2.52,1-3.372,2.124-3.372a1.9,1.9,0,0,1,1.38.66l.756-.84A2.966,2.966,0,0,0,7.392-9C5.652-9,4.056-7.644,4.056-4.248,4.056-1.248,5.424.156,7.1.156Zm6.372,0A2.914,2.914,0,0,0,16.452-2.9a2.54,2.54,0,0,0-2.688-2.808,2.525,2.525,0,0,0-1.212.312l.2-2.268h3.276V-8.844H11.556l-.264,4.2.672.444a2.324,2.324,0,0,1,1.416-.5,1.638,1.638,0,0,1,1.68,1.848A1.726,1.726,0,0,1,13.308-.972a2.826,2.826,0,0,1-2.064-.948l-.66.9A3.909,3.909,0,0,0,13.476.156ZM26.3-.636l.708-.7-3.2-3.2,3.2-3.192L26.3-8.436l-3.192,3.2-3.192-3.2-.72.708,3.2,3.192-3.2,3.2.708.7,3.2-3.192Zm6.228.792c1.7,0,2.856-1.008,2.856-2.316A2.581,2.581,0,0,0,33.9-4.5v-.06a2.744,2.744,0,0,0,1.164-2.076,2.28,2.28,0,0,0-2.5-2.34,2.307,2.307,0,0,0-2.52,2.28,2.5,2.5,0,0,0,1.188,2.064v.06A2.705,2.705,0,0,0,29.652-2.2C29.652-.828,30.876.156,32.532.156Zm.576-5.064c-.984-.384-1.824-.828-1.824-1.788a1.209,1.209,0,0,1,1.26-1.284A1.311,1.311,0,0,1,33.9-6.552,2.236,2.236,0,0,1,33.108-4.908ZM32.556-.84a1.546,1.546,0,0,1-1.68-1.488,2.253,2.253,0,0,1,1.032-1.848c1.2.492,2.172.9,2.172,1.98A1.36,1.36,0,0,1,32.556-.84Zm6.8,1c1.728,0,2.856-1.536,2.856-4.608C42.216-7.5,41.088-9,39.36-9S36.5-7.512,36.5-4.452,37.632.156,39.36.156Zm0-1.092c-.9,0-1.536-.96-1.536-3.516,0-2.532.636-3.456,1.536-3.456S40.9-6.984,40.9-4.452C40.9-1.9,40.26-.936,39.36-.936ZM46.2.156c1.728,0,2.856-1.536,2.856-4.608C49.056-7.5,47.928-9,46.2-9s-2.856,1.488-2.856,4.548S44.472.156,46.2.156Zm0-1.092c-.9,0-1.536-.96-1.536-3.516,0-2.532.636-3.456,1.536-3.456s1.536.924,1.536,3.456C47.736-1.9,47.1-.936,46.2-.936ZM-67.14,11.484h1.164v-1.02H-67.14V7.932h-1.008v2.532h-1.416v1.02h1.32a14.076,14.076,0,0,1-1.572,4.3,5.613,5.613,0,0,1,.516.96,11.6,11.6,0,0,0,1.152-2.808v5h1.008v-5.4c.3.576.612,1.236.768,1.62l.54-.792c-.18-.324-.984-1.632-1.308-2.088Zm2.424,5.88V9.348h4.632v5.928a9.3,9.3,0,0,1-1.632-2.952h1.356v-.912H-61.9V9.72h-.912v1.692H-64.38v.912h1.464a8.035,8.035,0,0,1-1.728,3,5.208,5.208,0,0,1,.444.852,7.4,7.4,0,0,0,1.392-2.256v3.072h.912V13.716a10.054,10.054,0,0,0,1.284,2.292,4.531,4.531,0,0,1,.528-.552v1.908Zm-1-8.976V19h1v-.684h4.632v.576h1.032V8.388Zm12.312,9.4c-1.272,0-1.5-.108-1.5-.6V15.2h4.032V11.436h-4.644c.252-.348.5-.72.732-1.1H-48.7c-.1,3.108-.2,4.248-.42,4.524a.451.451,0,0,1-.42.18c-.216,0-.708-.012-1.26-.06a2.816,2.816,0,0,1,.312,1.056,9.769,9.769,0,0,0,1.512-.024,1.069,1.069,0,0,0,.84-.456c.348-.444.468-1.872.576-5.772.012-.168.012-.5.012-.5h-6.648c.18-.348.348-.708.492-1.068l-1.176-.336a10.8,10.8,0,0,1-2.94,4.272,8.11,8.11,0,0,1,.984.792,11.15,11.15,0,0,0,1.1-1.224v.708h3.744V14.2h-4.032v3c0,1.308.588,1.62,2.64,1.62h4.164c1.776,0,2.184-.42,2.388-2.172a3.438,3.438,0,0,1-1.08-.4c-.108,1.308-.288,1.536-1.332,1.536ZM-42.816,9.7v2.412h-1.44V9.7Zm-1.44,5.928V13.092h1.44v2.532Zm2.5-6.936h-3.528v8.94h1.032V16.62h2.5Zm.864,6.876a8.9,8.9,0,0,1,1.452,2.052l.948-.576A8.838,8.838,0,0,0-40,15.048Zm6.228-3V11.58h-2.916V10.26h2.472V9.288h-2.472V7.92H-38.7V9.288h-2.4v.972h2.4v1.32h-2.856v.984h4.4v1.2H-41.52v.984h4.368v2.928c0,.168-.06.216-.252.228s-.84,0-1.512-.024a4.155,4.155,0,0,1,.36,1.044,5.9,5.9,0,0,0,1.968-.18c.4-.168.528-.468.528-1.044V14.748h1.284v-.984H-36.06v-1.2Zm6.468-.948a.981.981,0,0,0,1.008-1A.991.991,0,0,0-28.2,9.612a.991.991,0,0,0-1.008,1.008A.981.981,0,0,0-28.2,11.616Zm0,5.808a.979.979,0,0,0,1.008-.984A.984.984,0,0,0-28.2,15.432a.984.984,0,0,0-1.008,1.008A.979.979,0,0,0-28.2,17.424Zm7.032.576h5.04V16.86h-1.728v-7.7H-18.9a5.194,5.194,0,0,1-1.92.684v.876h1.584V16.86h-1.932Zm9.4-4.512c.948,0,1.464.636,1.464,1.764,0,1.152-.612,1.848-1.38,1.848-.948,0-1.584-.828-1.728-2.58A2.072,2.072,0,0,1-11.772,13.488Zm.1,4.668a2.7,2.7,0,0,0,2.64-2.9c0-1.86-1-2.772-2.484-2.772a2.655,2.655,0,0,0-1.92,1.02c.06-2.52,1-3.372,2.124-3.372a1.9,1.9,0,0,1,1.38.66l.756-.84A2.966,2.966,0,0,0-11.388,9c-1.74,0-3.336,1.356-3.336,4.752C-14.724,16.752-13.356,18.156-11.676,18.156Zm6.372,0A2.914,2.914,0,0,0-2.328,15.1a2.54,2.54,0,0,0-2.688-2.808,2.525,2.525,0,0,0-1.212.312l.2-2.268h3.276V9.156H-7.224l-.264,4.2.672.444A2.324,2.324,0,0,1-5.4,13.3a1.638,1.638,0,0,1,1.68,1.848,1.726,1.726,0,0,1-1.752,1.884,2.826,2.826,0,0,1-2.064-.948l-.66.9A3.909,3.909,0,0,0-5.3,18.156Zm7.044,0c1.728,0,2.856-1.536,2.856-4.608C4.6,10.5,3.468,9,1.74,9s-2.856,1.488-2.856,4.548S.012,18.156,1.74,18.156Zm0-1.092C.84,17.064.2,16.1.2,13.548c0-2.532.636-3.456,1.536-3.456s1.536.924,1.536,3.456C3.276,16.1,2.64,17.064,1.74,17.064Zm12.624.3.708-.7-3.2-3.2,3.2-3.192-.708-.708-3.192,3.2L7.98,9.564l-.72.708,3.2,3.192-3.2,3.2.708.7,3.2-3.192Zm6.228.792c1.7,0,2.856-1.008,2.856-2.316A2.581,2.581,0,0,0,21.96,13.5v-.06a2.744,2.744,0,0,0,1.164-2.076,2.28,2.28,0,0,0-2.5-2.34,2.307,2.307,0,0,0-2.52,2.28A2.5,2.5,0,0,0,19.3,13.368v.06A2.705,2.705,0,0,0,17.712,15.8C17.712,17.172,18.936,18.156,20.592,18.156Zm.576-5.064c-.984-.384-1.824-.828-1.824-1.788A1.209,1.209,0,0,1,20.6,10.02a1.311,1.311,0,0,1,1.356,1.428A2.236,2.236,0,0,1,21.168,13.092Zm-.552,4.068a1.546,1.546,0,0,1-1.68-1.488,2.253,2.253,0,0,1,1.032-1.848c1.2.492,2.172.9,2.172,1.98A1.36,1.36,0,0,1,20.616,17.16Zm6.6,1c1.62,0,2.952-.936,2.952-2.532a2.236,2.236,0,0,0-1.824-2.208v-.06a2.135,2.135,0,0,0,1.524-2.076c0-1.452-1.116-2.28-2.7-2.28a3.722,3.722,0,0,0-2.532,1.068l.72.864A2.572,2.572,0,0,1,27.12,10.1a1.227,1.227,0,0,1,1.356,1.272c0,.888-.576,1.548-2.316,1.548v1.02c1.992,0,2.616.636,2.616,1.608a1.485,1.485,0,0,1-1.68,1.476,2.854,2.854,0,0,1-2.088-.972l-.672.888A3.666,3.666,0,0,0,27.216,18.156Zm7.044,0c1.728,0,2.856-1.536,2.856-4.608C37.116,10.5,35.988,9,34.26,9S31.4,10.488,31.4,13.548,32.532,18.156,34.26,18.156Zm0-1.092c-.9,0-1.536-.96-1.536-3.516,0-2.532.636-3.456,1.536-3.456s1.536.924,1.536,3.456C35.8,16.1,35.16,17.064,34.26,17.064Zm12.624.3.708-.7-3.2-3.2,3.2-3.192-.708-.708-3.192,3.2L40.5,9.564l-.72.708,3.2,3.192-3.2,3.2.708.7,3.2-3.192ZM50.712,18h5.04V16.86H54.024v-7.7H52.98a5.194,5.194,0,0,1-1.92.684v.876h1.584V16.86H50.712Zm9.24.156c1.7,0,2.856-1.008,2.856-2.316A2.581,2.581,0,0,0,61.32,13.5v-.06a2.744,2.744,0,0,0,1.164-2.076,2.28,2.28,0,0,0-2.5-2.34,2.307,2.307,0,0,0-2.52,2.28,2.5,2.5,0,0,0,1.188,2.064v.06A2.705,2.705,0,0,0,57.072,15.8C57.072,17.172,58.3,18.156,59.952,18.156Zm.576-5.064c-.984-.384-1.824-.828-1.824-1.788a1.209,1.209,0,0,1,1.26-1.284,1.311,1.311,0,0,1,1.356,1.428A2.236,2.236,0,0,1,60.528,13.092Zm-.552,4.068a1.546,1.546,0,0,1-1.68-1.488,2.253,2.253,0,0,1,1.032-1.848c1.2.492,2.172.9,2.172,1.98A1.36,1.36,0,0,1,59.976,17.16Zm6.8,1c1.728,0,2.856-1.536,2.856-4.608C69.636,10.5,68.508,9,66.78,9s-2.856,1.488-2.856,4.548S65.052,18.156,66.78,18.156Zm0-1.092c-.9,0-1.536-.96-1.536-3.516,0-2.532.636-3.456,1.536-3.456s1.536.924,1.536,3.456C68.316,16.1,67.68,17.064,66.78,17.064Z" transform="translate(254 488)" fill="#0a0a0a"/>
    <path id="パス_6813" data-name="パス 6813" d="M-13.788-3.444l1.74-2.664c.252-.456.492-.912.708-1.368h.048c-.024.492-.06,1.236-.06,1.716v2.316ZM-11.352,0h1.3V-2.376H-8.94V-3.444h-1.116v-5.4h-1.608L-15.18-3.3v.924h3.828ZM-1.3-8.616H.312v1.872c0,.72.072.948.264,1.116a1.1,1.1,0,0,0,.732.24h.624a1.375,1.375,0,0,0,.6-.12.692.692,0,0,0,.384-.432,5.368,5.368,0,0,0,.132-1.2,3.035,3.035,0,0,1-.828-.444,8.2,8.2,0,0,1-.048,1,.42.42,0,0,1-.12.276.5.5,0,0,1-.216.036H1.572A.311.311,0,0,1,1.4-6.324c-.048-.048-.048-.168-.048-.4V-9.6H-2.316v1.692A2.348,2.348,0,0,1-3.54-5.628a3.475,3.475,0,0,1,.756.756A3.252,3.252,0,0,0-1.3-7.884ZM-3.132-2.6c-1.008.156-2.052.312-3,.456V-3.72h2.688V-4.764H-6.132V-6.012H-3.54V-7.044H-6.132V-8.232a16.4,16.4,0,0,0,3.12-1.032l-.936-.792A12.423,12.423,0,0,1-6.66-9.048L-7.188-9.2v7.212l-.984.144.18,1.08.8-.132V.924h1.056V-1.068c.972-.156,2.016-.336,3.036-.5ZM1.02-3.8A5.863,5.863,0,0,1-.3-1.92,5.971,5.971,0,0,1-1.512-3.8ZM1.728-4.86l-.192.048H-2.976V-3.8h1.128l-.672.192A8,8,0,0,0-1.128-1.236,8.343,8.343,0,0,1-3.912-.012a3.61,3.61,0,0,1,.6.984A9.43,9.43,0,0,0-.324-.456,7.191,7.191,0,0,0,2.316.924a4.82,4.82,0,0,1,.72-.984A7.175,7.175,0,0,1,.528-1.2,7.657,7.657,0,0,0,2.436-4.572Zm5.4-4.752-.168.048H4.416V.948h1V-8.568h1.2c-.216.8-.5,1.884-.78,2.7a3.47,3.47,0,0,1,.912,2.244,1.033,1.033,0,0,1-.216.768.656.656,0,0,1-.348.1A4.955,4.955,0,0,1,5.6-2.772a2.179,2.179,0,0,1,.264.96,5.081,5.081,0,0,0,.756-.024,1.444,1.444,0,0,0,.612-.228,1.659,1.659,0,0,0,.48-1.428,3.72,3.72,0,0,0-.936-2.5c.36-.948.768-2.2,1.08-3.2Zm3.96,3.1L9.3-6.132V-7.656H11v-.9H9.3V-9.912h-1v3.984q-.414.072-.756.144l.288.936c.96-.24,2.172-.528,3.336-.828ZM13.26-2.28H9.54v-.948h3.72ZM9.54-.408V-1.416h3.72V-.408Zm1.02-4.908a10.626,10.626,0,0,1-.312,1.164H8.5V.912H9.54v-.4h3.72V.864h1.092V-4.152H11.328c.108-.3.228-.624.348-.948ZM12.8-5.952c-.288,0-.336-.048-.336-.372V-7.416A13.319,13.319,0,0,0,14.8-8.5l-.756-.72a8.774,8.774,0,0,1-1.572.924v-1.62H11.46v3.6c0,1,.228,1.284,1.188,1.284H13.86c.768,0,1.044-.336,1.14-1.62a2.652,2.652,0,0,1-.9-.384c-.036.924-.084,1.08-.348,1.08ZM-66.6,36.8a9.069,9.069,0,0,1-.708,2.808,4.69,4.69,0,0,1,.852.42,11.111,11.111,0,0,0,.8-3.06Zm2.628.216a12.958,12.958,0,0,1,.732,2.3l.888-.312a13.086,13.086,0,0,0-.78-2.268Zm-.264-2.9a10.322,10.322,0,0,1,.5.96l-1.6.06A37.666,37.666,0,0,0-62.94,31.72l-.948-.408A22.363,22.363,0,0,1-65.1,33.4a6.991,6.991,0,0,0-.588-.7c.432-.648.936-1.6,1.368-2.412l-1.008-.36a13.838,13.838,0,0,1-.984,2.172l-.324-.288-.54.744a12.914,12.914,0,0,1,1.512,1.68c-.24.336-.468.648-.7.936l-.84.024.1.984c.552-.036,1.188-.072,1.872-.108V40.96h1V36.016l.888-.06a6.045,6.045,0,0,1,.216.672l.852-.408a10.141,10.141,0,0,0-1.152-2.46Zm7.872-2.088h-4.248a15.889,15.889,0,0,0,.66-1.836l-1.14-.264a10.041,10.041,0,0,1-2.076,4.1,8.342,8.342,0,0,1,.984.672,9.328,9.328,0,0,0,1.056-1.608h3.66c-.156,4.4-.348,6.18-.732,6.564a.575.575,0,0,1-.516.2c-.288,0-1.008-.012-1.788-.072a2.513,2.513,0,0,1,.372,1.116,11.47,11.47,0,0,0,1.848-.012,1.281,1.281,0,0,0,1.056-.552c.5-.612.66-2.484.864-7.776Zm-2.7,5.376a11.321,11.321,0,0,0-1.62-2.7l-.9.444a11.79,11.79,0,0,1,1.536,2.76ZM-55.1,40h5.7V38.824h-2.208c-.432,0-.984.036-1.44.084,1.872-1.788,3.228-3.552,3.228-5.256A2.5,2.5,0,0,0-52.488,31a3.429,3.429,0,0,0-2.688,1.32l.78.768a2.4,2.4,0,0,1,1.74-.984,1.434,1.434,0,0,1,1.5,1.62c0,1.452-1.344,3.168-3.948,5.472Zm7.944-3.444,1.74-2.664c.252-.456.492-.912.708-1.368h.048c-.024.492-.06,1.236-.06,1.716v2.316ZM-44.724,40h1.3V37.624h1.116V36.556h-1.116v-5.4h-1.608L-48.552,36.7v.924h3.828Zm3.816,0h1.356V38.284l1.1-1.272L-36.66,40h1.5l-2.484-3.912,2.232-2.688h-1.536L-39.5,36.592h-.048V30.436h-1.356Zm9.024,2.964c2.112,0,3.456-1.032,3.456-2.3,0-1.128-.816-1.608-2.376-1.608h-1.212c-.84,0-1.1-.252-1.1-.648a.858.858,0,0,1,.36-.7,2.294,2.294,0,0,0,.924.2,2.255,2.255,0,0,0,2.472-2.268,1.784,1.784,0,0,0-.432-1.212h1.26V33.4h-2.34a2.752,2.752,0,0,0-.96-.168A2.378,2.378,0,0,0-34.392,35.6a2.237,2.237,0,0,0,.876,1.764v.048a1.608,1.608,0,0,0-.744,1.224,1.213,1.213,0,0,0,.6,1.092v.06a1.744,1.744,0,0,0-.96,1.44C-34.62,42.376-33.468,42.964-31.884,42.964Zm.048-5.94A1.291,1.291,0,0,1-33.084,35.6,1.253,1.253,0,0,1-31.836,34.2,1.259,1.259,0,0,1-30.588,35.6,1.291,1.291,0,0,1-31.836,37.024Zm.156,5.028c-1.092,0-1.764-.384-1.764-1.032a1.187,1.187,0,0,1,.564-.96,4.2,4.2,0,0,0,.888.1h1c.8,0,1.236.168,1.236.72C-29.76,41.488-30.528,42.052-31.68,42.052Zm6.276.108h.96l3.336-11.748h-.96Zm10.3-8.676h1.164v-1.02h-1.164V29.932h-1.008v2.532h-1.416v1.02h1.32a14.075,14.075,0,0,1-1.572,4.3,5.612,5.612,0,0,1,.516.96,11.6,11.6,0,0,0,1.152-2.808v5h1.008v-5.4c.3.576.612,1.236.768,1.62l.54-.792c-.18-.324-.984-1.632-1.308-2.088Zm2.424,5.88V31.348h4.632v5.928a9.3,9.3,0,0,1-1.632-2.952h1.356v-.912H-9.864V31.72h-.912v1.692h-1.572v.912h1.464a8.035,8.035,0,0,1-1.728,3,5.208,5.208,0,0,1,.444.852,7.394,7.394,0,0,0,1.392-2.256v3.072h.912V35.716A10.054,10.054,0,0,0-8.58,38.008a4.531,4.531,0,0,1,.528-.552v1.908Zm-1-8.976V41h1v-.684h4.632v.576H-7.02v-10.5Zm12.312,9.4c-1.272,0-1.5-.108-1.5-.6V37.2H1.164V33.436H-3.48c.252-.348.5-.72.732-1.1H3.336c-.1,3.108-.2,4.248-.42,4.524a.451.451,0,0,1-.42.18c-.216,0-.708-.012-1.26-.06a2.816,2.816,0,0,1,.312,1.056,9.769,9.769,0,0,0,1.512-.024,1.069,1.069,0,0,0,.84-.456c.348-.444.468-1.872.576-5.772.012-.168.012-.5.012-.5H-2.16c.18-.348.348-.708.492-1.068l-1.176-.336a10.8,10.8,0,0,1-2.94,4.272,8.11,8.11,0,0,1,.984.792,11.151,11.151,0,0,0,1.1-1.224v.708H.048V36.2H-3.984v3c0,1.308.588,1.62,2.64,1.62H2.82c1.776,0,2.184-.42,2.388-2.172a3.438,3.438,0,0,1-1.08-.4C4.02,39.556,3.84,39.784,2.8,39.784ZM9.216,31.7v2.412H7.776V31.7Zm-1.44,5.928V35.092h1.44v2.532Zm2.5-6.936H6.744v8.94H7.776V38.62h2.5Zm.864,6.876a8.9,8.9,0,0,1,1.452,2.052l.948-.576a8.838,8.838,0,0,0-1.5-1.992Zm6.228-3V33.58H14.448V32.26H16.92v-.972H14.448V29.92H13.332v1.368h-2.4v.972h2.4v1.32H10.476v.984h4.4v1.2H10.512v.984H14.88v2.928c0,.168-.06.216-.252.228s-.84,0-1.512-.024a4.154,4.154,0,0,1,.36,1.044,5.9,5.9,0,0,0,1.968-.18c.4-.168.528-.468.528-1.044V36.748h1.284v-.984H15.972v-1.2Zm6.468-.948a.981.981,0,0,0,1.008-1,1.008,1.008,0,1,0-2.016,0A.981.981,0,0,0,23.832,33.616Zm0,5.808a1,1,0,1,0-1.008-.984A.979.979,0,0,0,23.832,39.424ZM30.36,40h5.7V38.824H33.852c-.432,0-.984.036-1.44.084,1.872-1.788,3.228-3.552,3.228-5.256A2.5,2.5,0,0,0,32.976,31a3.429,3.429,0,0,0-2.688,1.32l.78.768a2.4,2.4,0,0,1,1.74-.984,1.434,1.434,0,0,1,1.5,1.62c0,1.452-1.344,3.168-3.948,5.472Zm8.112-6.1c0-1.152.6-1.836,1.356-1.836.96,0,1.62.792,1.752,2.532a2.1,2.1,0,0,1-1.68,1.08C38.976,35.68,38.472,35.032,38.472,33.9Zm1.116,6.252c1.7,0,3.288-1.392,3.288-4.872,0-2.928-1.368-4.284-3.06-4.284a2.7,2.7,0,0,0-2.628,2.9c0,1.848,1,2.772,2.472,2.772A2.655,2.655,0,0,0,41.6,35.644c-.084,2.52-1.008,3.384-2.076,3.384a1.963,1.963,0,0,1-1.44-.66l-.756.852A3.031,3.031,0,0,0,39.588,40.156Zm5.712,0a.918.918,0,0,0,.924-.96.926.926,0,1,0-1.848,0A.918.918,0,0,0,45.3,40.156Zm3.42-3.6,1.74-2.664c.252-.456.492-.912.708-1.368h.048c-.024.492-.06,1.236-.06,1.716v2.316ZM51.156,40h1.3V37.624h1.116V36.556H52.452v-5.4H50.844L47.328,36.7v.924h3.828Zm3.816,0h1.356V38.284l1.1-1.272L59.22,40h1.5l-2.484-3.912L60.468,33.4H58.932l-2.556,3.192h-.048V30.436H54.972ZM64,42.964c2.112,0,3.456-1.032,3.456-2.3,0-1.128-.816-1.608-2.376-1.608H63.864c-.84,0-1.1-.252-1.1-.648a.858.858,0,0,1,.36-.7,2.294,2.294,0,0,0,.924.2,2.255,2.255,0,0,0,2.472-2.268,1.784,1.784,0,0,0-.432-1.212h1.26V33.4H65a2.752,2.752,0,0,0-.96-.168A2.378,2.378,0,0,0,61.488,35.6a2.237,2.237,0,0,0,.876,1.764v.048a1.608,1.608,0,0,0-.744,1.224,1.213,1.213,0,0,0,.6,1.092v.06a1.744,1.744,0,0,0-.96,1.44C61.26,42.376,62.412,42.964,64,42.964Zm.048-5.94A1.291,1.291,0,0,1,62.8,35.6a1.255,1.255,0,1,1,2.5,0A1.291,1.291,0,0,1,64.044,37.024Zm.156,5.028c-1.092,0-1.764-.384-1.764-1.032A1.187,1.187,0,0,1,63,40.06a4.2,4.2,0,0,0,.888.1h1c.8,0,1.236.168,1.236.72C66.12,41.488,65.352,42.052,64.2,42.052ZM-47.49,75.716c.936,0,1.464.588,1.464,1.644,0,1.092-.612,1.74-1.38,1.74-.936,0-1.572-.744-1.716-2.34A2.059,2.059,0,0,1-47.49,75.716Zm.1,4.44a2.642,2.642,0,0,0,2.64-2.8,2.346,2.346,0,0,0-2.484-2.652,2.672,2.672,0,0,0-1.92,1.032c.06-2.52,1-3.36,2.112-3.36a1.891,1.891,0,0,1,1.392.648l.756-.84a2.966,2.966,0,0,0-2.208-.948c-1.752,0-3.336,1.368-3.336,4.752C-50.442,78.824-49.074,80.156-47.394,80.156Zm6.588,0c1.764,0,2.856-1.6,2.856-4.488s-1.092-4.428-2.856-4.428-2.856,1.536-2.856,4.428S-42.558,80.156-40.806,80.156Zm0-1.092c-.9,0-1.536-.924-1.536-3.4s.636-3.336,1.536-3.336,1.536.864,1.536,3.336S-39.906,79.064-40.806,79.064Zm4.464.936h1.356V78.284l1.1-1.272L-32.094,80h1.5l-2.484-3.912,2.232-2.688h-1.536l-2.556,3.192h-.048V70.436h-1.356Zm9.024,2.964c2.112,0,3.456-1.032,3.456-2.3,0-1.128-.816-1.608-2.376-1.608H-27.45c-.84,0-1.1-.252-1.1-.648a.858.858,0,0,1,.36-.7,2.294,2.294,0,0,0,.924.2A2.255,2.255,0,0,0-24.8,75.644a1.784,1.784,0,0,0-.432-1.212h1.26V73.4h-2.34a2.752,2.752,0,0,0-.96-.168A2.378,2.378,0,0,0-29.826,75.6a2.237,2.237,0,0,0,.876,1.764v.048a1.608,1.608,0,0,0-.744,1.224,1.213,1.213,0,0,0,.6,1.092v.06a1.744,1.744,0,0,0-.96,1.44C-30.054,82.376-28.9,82.964-27.318,82.964Zm.048-5.94A1.291,1.291,0,0,1-28.518,75.6,1.253,1.253,0,0,1-27.27,74.2,1.259,1.259,0,0,1-26.022,75.6,1.291,1.291,0,0,1-27.27,77.024Zm.156,5.028c-1.092,0-1.764-.384-1.764-1.032a1.187,1.187,0,0,1,.564-.96,4.2,4.2,0,0,0,.888.1h1c.8,0,1.236.168,1.236.72C-25.194,81.488-25.962,82.052-27.114,82.052Zm8.976.336.864-.384a11.2,11.2,0,0,1-1.512-5.76,11.266,11.266,0,0,1,1.512-5.76l-.864-.372a11.308,11.308,0,0,0-1.776,6.132A11.319,11.319,0,0,0-18.138,82.388Zm5.448-6.576c-.156-.348-.924-1.716-1.188-2.136v-.444h1.1V72.2h-1.1V69.944h-.96V72.2h-1.32v1.032h1.3a13.647,13.647,0,0,1-1.476,4.3,9.093,9.093,0,0,1,.492,1.1,12.833,12.833,0,0,0,1.008-2.676v4.98h.96V75.164c.228.528.456,1.1.564,1.464Zm1.14.108c.012-.4.024-.792.024-1.152V74.06h1.152v1.86Zm1.176-4.5V73.1h-1.152V71.42Zm.912-.936h-2.964v4.284c0,1.728-.108,3.96-1.1,5.532a3.088,3.088,0,0,1,.708.66,8.957,8.957,0,0,0,1.2-4.068h1.248v2.892c0,.144-.06.2-.18.2s-.48,0-.924-.012a3.281,3.281,0,0,1,.312.972,2.514,2.514,0,0,0,1.32-.2c.288-.168.384-.468.384-.936Zm1.644,5.436V74.06h1.26v1.86Zm1.26-4.5V73.1h-1.26V71.42Zm.948-.936H-8.73v4.9a11.163,11.163,0,0,1-.78,4.9,3.293,3.293,0,0,1,.72.7,10.047,10.047,0,0,0,.936-4.08h1.3v2.88c0,.156-.048.2-.192.216-.108,0-.492,0-.936-.012a3.559,3.559,0,0,1,.3.96,2.942,2.942,0,0,0,1.392-.192c.288-.168.384-.468.384-.948Zm5.892,5.94c-.228-.324-1.272-1.7-1.62-2.1v-.852H.126V72.44H-1.338V69.932H-2.382V72.44H-4.074v1.032H-2.5a12.673,12.673,0,0,1-1.86,4.308,6.219,6.219,0,0,1,.552,1.008A11.853,11.853,0,0,0-2.382,75.74v5.2h1.044V75.644A16.957,16.957,0,0,1-.378,77.3Zm4.944-1.716a9.052,9.052,0,0,1-1.26,2.868,10.44,10.44,0,0,1-1.308-2.868Zm.564-1.056-.18.036H1.782v-2H6.594V70.652H.7v3.336c0,1.884-.132,4.464-1.488,6.264a4.117,4.117,0,0,1,.888.672,10.588,10.588,0,0,0,1.656-5.832,11.678,11.678,0,0,0,1.536,3.36A6.645,6.645,0,0,1,1.11,80.06a3.958,3.958,0,0,1,.672.876,8.138,8.138,0,0,0,2.184-1.62,6.979,6.979,0,0,0,2.2,1.656,4.263,4.263,0,0,1,.744-.924,6.358,6.358,0,0,1-2.244-1.584,10.993,10.993,0,0,0,1.824-4.6Zm7.488-.036a.981.981,0,0,0,1.008-1,1.008,1.008,0,1,0-2.016,0A.981.981,0,0,0,13.278,73.616Zm0,5.808a1,1,0,1,0-1.008-.984A.979.979,0,0,0,13.278,79.424ZM19.806,80h5.7V78.824H23.3c-.432,0-.984.036-1.44.084,1.872-1.788,3.228-3.552,3.228-5.256A2.5,2.5,0,0,0,22.422,71a3.429,3.429,0,0,0-2.688,1.32l.78.768a2.4,2.4,0,0,1,1.74-.984,1.434,1.434,0,0,1,1.5,1.62c0,1.452-1.344,3.168-3.948,5.472Zm9.528.156A2.914,2.914,0,0,0,32.31,77.1a2.655,2.655,0,0,0-3.9-2.5l.2-2.268H31.89V71.156H27.414l-.264,4.2.672.444a2.324,2.324,0,0,1,1.416-.5,1.638,1.638,0,0,1,1.68,1.848,1.726,1.726,0,0,1-1.752,1.884A2.826,2.826,0,0,1,27.1,78.08l-.66.9A3.909,3.909,0,0,0,29.334,80.156ZM34,80h1.356V78.284l1.1-1.272L38.25,80h1.5l-2.484-3.912L39.5,73.4H37.962l-2.556,3.192h-.048V70.436H34Zm9.024,2.964c2.112,0,3.456-1.032,3.456-2.3,0-1.128-.816-1.608-2.376-1.608H42.894c-.84,0-1.1-.252-1.1-.648a.858.858,0,0,1,.36-.7,2.294,2.294,0,0,0,.924.2,2.255,2.255,0,0,0,2.472-2.268,1.784,1.784,0,0,0-.432-1.212h1.26V73.4h-2.34a2.752,2.752,0,0,0-.96-.168A2.378,2.378,0,0,0,40.518,75.6a2.237,2.237,0,0,0,.876,1.764v.048a1.608,1.608,0,0,0-.744,1.224,1.213,1.213,0,0,0,.6,1.092v.06a1.744,1.744,0,0,0-.96,1.44C40.29,82.376,41.442,82.964,43.026,82.964Zm.048-5.94A1.291,1.291,0,0,1,41.826,75.6a1.255,1.255,0,1,1,2.5,0A1.291,1.291,0,0,1,43.074,77.024Zm.156,5.028c-1.092,0-1.764-.384-1.764-1.032a1.187,1.187,0,0,1,.564-.96,4.2,4.2,0,0,0,.888.1h1c.8,0,1.236.168,1.236.72C45.15,81.488,44.382,82.052,43.23,82.052Zm4.992.336a11.43,11.43,0,0,0,0-12.276l-.864.372a11.727,11.727,0,0,1,0,11.52Z" transform="translate(254 557)" fill="#0a0a0a"/>
    <path id="パス_6814" data-name="パス 6814" d="M-25.128,0h1.248V-4.368c0-.792-.108-1.932-.168-2.736H-24l.7,2.04,1.548,4.212h.864l1.536-4.212.708-2.04h.048c-.072.8-.18,1.944-.18,2.736V0h1.3V-8.844h-1.608l-1.6,4.476c-.2.588-.372,1.188-.576,1.776h-.06c-.2-.588-.384-1.188-.588-1.776l-1.62-4.476h-1.6Zm12.372-4.284c.936,0,1.464.588,1.464,1.644,0,1.092-.612,1.74-1.38,1.74-.936,0-1.572-.744-1.716-2.34A2.059,2.059,0,0,1-12.756-4.284Zm.1,4.44a2.642,2.642,0,0,0,2.64-2.8A2.346,2.346,0,0,0-12.5-5.292a2.672,2.672,0,0,0-1.92,1.032c.06-2.52,1-3.36,2.112-3.36a1.891,1.891,0,0,1,1.392.648l.756-.84a2.966,2.966,0,0,0-2.208-.948c-1.752,0-3.336,1.368-3.336,4.752C-15.708-1.176-14.34.156-12.66.156Zm6.384,0A2.855,2.855,0,0,0-3.3-2.784,2.477,2.477,0,0,0-5.988-5.46a2.518,2.518,0,0,0-1.212.3L-7-7.428H-3.72V-8.592H-8.2l-.264,4.2.672.432a2.324,2.324,0,0,1,1.416-.5,1.582,1.582,0,0,1,1.68,1.728A1.672,1.672,0,0,1-6.444-.972,2.826,2.826,0,0,1-8.508-1.92l-.66.9A3.909,3.909,0,0,0-6.276.156Zm8.232,0A3.488,3.488,0,0,0,4.7-1.116L3.96-1.992A2.555,2.555,0,0,1,2-1.056C.444-1.056-.54-2.34-.54-4.44c0-2.076,1.056-3.348,2.58-3.348A2.349,2.349,0,0,1,3.768-7l.756-.888A3.4,3.4,0,0,0,2.016-9C-.216-9-1.968-7.272-1.968-4.392S-.264.156,1.956.156ZM6.264,0h5.352V-1.176H7.656V-4.032H10.9V-5.208H7.656v-2.46h3.828V-8.844H6.264Zm6.564,0h5.7V-1.176H16.284c-.432,0-1,.036-1.44.084,1.836-1.92,3.264-3.5,3.264-5.076A2.47,2.47,0,0,0,15.444-8.76a3.466,3.466,0,0,0-2.688,1.32l.78.768a2.4,2.4,0,0,1,1.74-.984,1.4,1.4,0,0,1,1.5,1.56c0,1.344-1.488,2.88-3.948,5.292Zm6.5,0h1.476l1.128-2.2c.216-.456.444-.9.684-1.44h.048c.276.54.5.984.732,1.44L24.564,0h1.548L23.568-4.488l2.376-4.356H24.48L23.436-6.768c-.2.408-.372.8-.6,1.332h-.06c-.264-.528-.456-.924-.672-1.332L21.036-8.844H19.488L21.864-4.56Zm-31.98,40h5.04V38.86H-9.336v-7.7H-10.38a5.194,5.194,0,0,1-1.92.684v.876h1.584V38.86h-1.932Zm9.24.156c1.7,0,2.856-1.008,2.856-2.316A2.581,2.581,0,0,0-2.04,35.5v-.06A2.744,2.744,0,0,0-.876,33.364a2.28,2.28,0,0,0-2.5-2.34,2.307,2.307,0,0,0-2.52,2.28A2.5,2.5,0,0,0-4.7,35.368v.06A2.705,2.705,0,0,0-6.288,37.8C-6.288,39.172-5.064,40.156-3.408,40.156Zm.576-5.064c-.984-.384-1.824-.828-1.824-1.788A1.209,1.209,0,0,1-3.4,32.02,1.311,1.311,0,0,1-2.04,33.448,2.236,2.236,0,0,1-2.832,35.092Zm-.552,4.068a1.546,1.546,0,0,1-1.68-1.488,2.253,2.253,0,0,1,1.032-1.848c1.2.492,2.172.9,2.172,1.98A1.36,1.36,0,0,1-3.384,39.16ZM1.8,33.9c0-1.152.6-1.836,1.356-1.836.96,0,1.62.792,1.752,2.532a2.1,2.1,0,0,1-1.68,1.08C2.3,35.68,1.8,35.032,1.8,33.9Zm1.116,6.252c1.7,0,3.288-1.392,3.288-4.872C6.2,32.356,4.836,31,3.144,31A2.7,2.7,0,0,0,.516,33.9c0,1.848,1,2.772,2.472,2.772a2.655,2.655,0,0,0,1.944-1.032c-.084,2.52-1.008,3.384-2.076,3.384a1.963,1.963,0,0,1-1.44-.66L.66,39.22A3.031,3.031,0,0,0,2.916,40.156Zm7.14,0a2.914,2.914,0,0,0,2.976-3.06,2.54,2.54,0,0,0-2.688-2.808,2.525,2.525,0,0,0-1.212.312l.2-2.268h3.276V31.156H8.136l-.264,4.2.672.444a2.324,2.324,0,0,1,1.416-.5,1.638,1.638,0,0,1,1.68,1.848,1.726,1.726,0,0,1-1.752,1.884,2.826,2.826,0,0,1-2.064-.948l-.66.9A3.909,3.909,0,0,0,10.056,40.156ZM-12.648,80h5.04V78.86H-9.336v-7.7H-10.38a5.194,5.194,0,0,1-1.92.684v.876h1.584V78.86h-1.932Zm7.44-3.444,1.74-2.664c.252-.456.492-.912.708-1.368h.048c-.024.492-.06,1.236-.06,1.716v2.316ZM-2.772,80h1.3V77.624H-.36V76.556H-1.476v-5.4H-3.084L-6.6,76.7v.924h3.828Zm5.988.156A2.914,2.914,0,0,0,6.192,77.1,2.54,2.54,0,0,0,3.5,74.288a2.525,2.525,0,0,0-1.212.312l.2-2.268H5.772V71.156H1.3l-.264,4.2L1.7,75.8a2.324,2.324,0,0,1,1.416-.5A1.638,1.638,0,0,1,4.8,77.144a1.726,1.726,0,0,1-1.752,1.884A2.826,2.826,0,0,1,.984,78.08l-.66.9A3.909,3.909,0,0,0,3.216,80.156ZM7.368,80h5.7V78.824H10.86c-.432,0-.984.036-1.44.084,1.872-1.788,3.228-3.552,3.228-5.256A2.5,2.5,0,0,0,9.984,71,3.429,3.429,0,0,0,7.3,72.32l.78.768a2.4,2.4,0,0,1,1.74-.984,1.434,1.434,0,0,1,1.5,1.62c0,1.452-1.344,3.168-3.948,5.472Zm-20.016,40h5.04v-1.14H-9.336v-7.7H-10.38a5.194,5.194,0,0,1-1.92.684v.876h1.584v6.144h-1.932Zm9.4-4.512c.948,0,1.464.636,1.464,1.764,0,1.152-.612,1.848-1.38,1.848-.948,0-1.584-.828-1.728-2.58A2.072,2.072,0,0,1-3.252,115.488Zm.1,4.668a2.7,2.7,0,0,0,2.64-2.9c0-1.86-1-2.772-2.484-2.772a2.655,2.655,0,0,0-1.92,1.02c.06-2.52,1-3.372,2.124-3.372a1.9,1.9,0,0,1,1.38.66l.756-.84A2.966,2.966,0,0,0-2.868,111c-1.74,0-3.336,1.356-3.336,4.752C-6.2,118.752-4.836,120.156-3.156,120.156Zm6.372,0a2.914,2.914,0,0,0,2.976-3.06A2.54,2.54,0,0,0,3.5,114.288a2.525,2.525,0,0,0-1.212.312l.2-2.268H5.772v-1.176H1.3l-.264,4.2.672.444a2.324,2.324,0,0,1,1.416-.5,1.638,1.638,0,0,1,1.68,1.848,1.726,1.726,0,0,1-1.752,1.884,2.826,2.826,0,0,1-2.064-.948l-.66.9A3.909,3.909,0,0,0,3.216,120.156Zm7.212-4.668c.948,0,1.464.636,1.464,1.764,0,1.152-.612,1.848-1.38,1.848-.948,0-1.584-.828-1.728-2.58A2.072,2.072,0,0,1,10.428,115.488Zm.1,4.668a2.7,2.7,0,0,0,2.64-2.9c0-1.86-1-2.772-2.484-2.772a2.655,2.655,0,0,0-1.92,1.02c.06-2.52,1-3.372,2.124-3.372a1.9,1.9,0,0,1,1.38.66l.756-.84A2.966,2.966,0,0,0,10.812,111c-1.74,0-3.336,1.356-3.336,4.752C7.476,118.752,8.844,120.156,10.524,120.156ZM-12.648,160h5.04v-1.14H-9.336v-7.7H-10.38a5.194,5.194,0,0,1-1.92.684v.876h1.584v6.144h-1.932Zm6.336,0h5.7v-1.176H-2.82c-.432,0-.984.036-1.44.084,1.872-1.788,3.228-3.552,3.228-5.256A2.5,2.5,0,0,0-3.7,151a3.429,3.429,0,0,0-2.688,1.32l.78.768a2.4,2.4,0,0,1,1.74-.984,1.434,1.434,0,0,1,1.5,1.62c0,1.452-1.344,3.168-3.948,5.472Zm7.344,0h5.04v-1.14H4.344v-7.7H3.3a5.194,5.194,0,0,1-1.92.684v.876H2.964v6.144H1.032Zm9.024.156c1.62,0,2.952-.936,2.952-2.532a2.236,2.236,0,0,0-1.824-2.208v-.06a2.135,2.135,0,0,0,1.524-2.076c0-1.452-1.116-2.28-2.7-2.28a3.722,3.722,0,0,0-2.532,1.068l.72.864A2.572,2.572,0,0,1,9.96,152.1a1.227,1.227,0,0,1,1.356,1.272c0,.888-.576,1.548-2.316,1.548v1.02c1.992,0,2.616.636,2.616,1.608a1.485,1.485,0,0,1-1.68,1.476,2.854,2.854,0,0,1-2.088-.972l-.672.888A3.666,3.666,0,0,0,10.056,160.156Z" transform="translate(254 693)" fill="#0a0a0a"/>
    <path id="パス_6815" data-name="パス 6815" d="M0,0V200" transform="translate(163 452)" fill="none" stroke="#cecece" stroke-width="1"/>
    <path id="パス_6816" data-name="パス 6816" d="M0,0V200" transform="translate(163 668)" fill="none" stroke="#cecece" stroke-width="1"/>
    <path id="パス_6817" data-name="パス 6817" d="M0,0H315" transform="translate(30 532)" fill="none" stroke="#cecece" stroke-width="1"/>
    <path id="パス_6818" data-name="パス 6818" d="M0,0H315" transform="translate(30 572)" fill="none" stroke="#cecece" stroke-width="1"/>
    <path id="パス_6819" data-name="パス 6819" d="M0,0H315" transform="translate(30 708)" fill="none" stroke="#cecece" stroke-width="1"/>
    <path id="パス_6820" data-name="パス 6820" d="M0,0H315" transform="translate(30 612)" fill="none" stroke="#cecece" stroke-width="1"/>
    <path id="パス_6821" data-name="パス 6821" d="M0,0H315" transform="translate(30 748)" fill="none" stroke="#cecece" stroke-width="1"/>
    <path id="パス_6822" data-name="パス 6822" d="M0,0H315" transform="translate(30 788)" fill="none" stroke="#cecece" stroke-width="1"/>
    <path id="パス_6823" data-name="パス 6823" d="M0,0H315" transform="translate(30 828)" fill="none" stroke="#cecece" stroke-width="1"/>
  </g>
</svg>
