<svg xmlns="http://www.w3.org/2000/svg" xmlns:xlink="http://www.w3.org/1999/xlink" width="292" height="233" viewBox="0 0 292 233">
  <defs>
    <clipPath id="clip-path">
      <rect id="長方形_2122" data-name="長方形 2122" width="52.5" height="56" fill="none" stroke="#00c8ac" stroke-width="1"/>
    </clipPath>
  </defs>
  <g id="グループ_4486" data-name="グループ 4486" transform="translate(-537 -2156)">
    <path id="パス_8721" data-name="パス 8721" d="M0,0H292V233H0Z" transform="translate(537 2156)" fill="#edfaf9"/>
    <path id="パス_8722" data-name="パス 8722" d="M4.32-13.376a17.1,17.1,0,0,1-3.9,6.128,8.807,8.807,0,0,1,.832,1.5A17.086,17.086,0,0,0,2.736-7.52V1.232H4.144V-9.68a28.83,28.83,0,0,0,1.568-3.248Zm3.216,2h5.392V-8.8H7.536Zm7.712,6.992V-5.728h-4.32V-7.472h3.488v-5.216H6.144v5.216h3.3v1.744H5.024v1.344H8.656A11.731,11.731,0,0,1,4.512-.576,6.561,6.561,0,0,1,5.536.608a13.019,13.019,0,0,0,3.9-3.872V1.28h1.488V-3.344A13.734,13.734,0,0,0,14.64.64,6.65,6.65,0,0,1,15.68-.544a11.892,11.892,0,0,1-3.952-3.84ZM21.9-12.9H17.488v1.168H21.9ZM20.7-2.928v2.3H18.64v-2.3Zm1.3-1.2H17.36V1.248h1.28V.56H22ZM17.392-5.184H21.9V-6.336H17.392ZM21.9-8.512H17.392V-7.36H21.9ZM16.64-9.552h5.824v-1.184H16.64ZM28.048-.688v-4.9h2.976V-6.992H28.048V-11.12H31.12v-1.408H22.976v1.408h3.616V-.688H24.976v-7.76H23.6v7.76H22.48V.72h8.912V-.688Zm7.44-4.56h2.5v1.376h-2.5Zm2.5-4.864v1.2h-2.5v-1.2Zm-2.5,2.368h2.5v1.328h-2.5Zm4.96,3.872H39.36v-6.24h1.152v-1.3H39.36v-1.84H37.984v1.84h-2.5v-1.84H34.144v1.84h-1.3v1.3h1.3v6.24H32.656v1.3h7.792Zm-5.7,1.552A7.9,7.9,0,0,1,32.608.4a7.586,7.586,0,0,1,1.184.88A11.189,11.189,0,0,0,36.16-1.936Zm2.3.576A16.556,16.556,0,0,1,38.72.688l1.2-.72a15.277,15.277,0,0,0-1.728-2.336Zm5.488-3.664c.032-.512.032-1.024.032-1.488v-.848h2.816v2.336Zm2.848-5.9v2.256H42.576v-2.256Zm1.44-1.344H41.168V-6.9c0,2.288-.112,5.28-1.376,7.36a5.229,5.229,0,0,1,1.184.864,12.719,12.719,0,0,0,1.472-5.392h2.944V-.512c0,.256-.1.32-.336.336-.208,0-1.008.016-1.76-.016a5.1,5.1,0,0,1,.432,1.408A5.557,5.557,0,0,0,46.16.944c.5-.224.672-.656.672-1.44Zm7.1.992v1.1H50.912v-1.1ZM50.912-8.32V-9.5h3.024V-8.32Zm4.432,1.1v-5.568h-5.9V1.264h1.472v-8.48Zm2.688-1.072V-9.5h3.12v1.216Zm3.12-3.376v1.1h-3.12v-1.1ZM54.336-1.328V-2.656h3.248v1.328Zm3.248-3.664v1.248H54.336V-4.992Zm5.072-7.792H56.608v5.6h4.544V-.608c0,.272-.08.352-.368.368-.256,0-1.024.016-1.808-.016V-6.112h-6v6.7h1.36v-.8h4.32a6.665,6.665,0,0,1,.464,1.456A8.1,8.1,0,0,0,61.9.992c.576-.256.752-.736.752-1.584ZM72.736-5.3V-9.168H76.9V-5.3Zm-5.7,0V-9.168h4.144V-5.3Zm5.7-5.328v-2.784H71.184v2.784H65.552V-2.9H67.04V-3.84h4.144V1.248h1.552V-3.84H76.9v.864h1.552v-7.648Zm21.92,5.008a5.922,5.922,0,0,0-6.272-6.032,6.935,6.935,0,0,0-7.152,6.656c0,2.672,1.456,4.432,3.04,4.432s2.912-1.808,3.872-5.072a31.86,31.86,0,0,0,.96-4.5,4.254,4.254,0,0,1,3.872,4.464A4.6,4.6,0,0,1,89.1-1.12,9.889,9.889,0,0,1,87.68-.9l.944,1.5C92.512.048,94.656-2.256,94.656-5.616Zm-11.808.464a5.348,5.348,0,0,1,4.56-4.944,25.472,25.472,0,0,1-.88,4.128c-.736,2.464-1.488,3.5-2.208,3.5C83.632-2.464,82.848-3.312,82.848-5.152Zm16.768-8.192a18.594,18.594,0,0,1-3.3,6.32,11.658,11.658,0,0,1,.752,1.568,15.854,15.854,0,0,0,1.28-1.776v8.48H99.76V-9.84c.464-1.024.88-2.08,1.232-3.12Zm2.608,4.352c.3.224.688.528.88.7a11.337,11.337,0,0,0,1.184-1.264,8.943,8.943,0,0,0,1.472,1.568,12.475,12.475,0,0,1-3.536,1.408Zm6.144-1.552a6.958,6.958,0,0,1-1.584,1.84,7.4,7.4,0,0,1-1.792-1.824l.016-.016Zm2.8,0v-1.2H105.7a11.521,11.521,0,0,0,.624-1.36l-1.36-.336a10.437,10.437,0,0,1-2.736,4.08v-2.128h-1.3V-1.376h1.3V-6.448a6.882,6.882,0,0,1,.784,1.056,13.968,13.968,0,0,0,3.856-1.776,12.484,12.484,0,0,0,4,1.648,7.021,7.021,0,0,1,.816-1.216,12.4,12.4,0,0,1-3.744-1.248,8.942,8.942,0,0,0,1.984-2.56Zm-2.56,5.84a10.906,10.906,0,0,1-5.12,2.384,5.893,5.893,0,0,1,.736.96,11.648,11.648,0,0,0,5.488-2.9Zm-1.52-1.488a9.726,9.726,0,0,1-3.776,1.872,5.144,5.144,0,0,1,.816.864,10.676,10.676,0,0,0,4.08-2.272Zm2.864,3.264c-1.392,1.568-4.224,2.5-7.312,2.944a4.909,4.909,0,0,1,.768,1.168c3.312-.592,6.224-1.7,7.824-3.584Zm7.76-.48c-.544.192-1.12.368-1.664.544V-6.48h1.52V-7.856h-1.52V-11.04h1.776v-1.376h-5.088v1.376h1.888v3.184H112.9V-6.48h1.728v4.064c-.768.24-1.472.432-2.048.592l.352,1.52c1.44-.464,3.3-1.088,5.04-1.7Zm2.16-5.1h2.1v1.744h-2.1Zm0-2.928h2.1v1.728h-2.1Zm5.408,1.728h-2.048V-11.44h2.048Zm0,2.944h-2.048V-8.512h2.048Zm-1.92,6.16v-1.9h3.552V-3.856H123.36V-5.5H126.7v-7.2h-8.192v7.2h3.328v1.648h-3.472v1.344h3.472v1.9H117.2V.752h10.224V-.608ZM135.328-2c0-.688.752-1.152,1.824-1.152a5.156,5.156,0,0,1,1.488.224V-2.5c0,1.008-.368,1.616-1.552,1.616C136.064-.88,135.328-1.248,135.328-2Zm4.8-10.416H138.32a7.875,7.875,0,0,1,.1,1.024V-9.5c-.448.016-.88.032-1.328.032a26.049,26.049,0,0,1-2.768-.144l.016,1.5c.928.064,1.808.112,2.736.112.448,0,.9-.016,1.344-.032.032,1.248.1,2.624.16,3.744a8.515,8.515,0,0,0-1.3-.1c-2.144,0-3.408,1.088-3.408,2.56,0,1.536,1.264,2.432,3.424,2.432,2.224,0,2.928-1.264,2.928-2.736v-.08a15.212,15.212,0,0,1,2.224,1.776l.864-1.344A10.556,10.556,0,0,0,140.16-3.84c-.048-1.232-.16-2.672-.176-4.272.928-.064,1.824-.176,2.656-.3V-9.968a24.748,24.748,0,0,1-2.656.368c.016-.736.032-1.424.048-1.824C140.048-11.744,140.08-12.1,140.128-12.416Zm-7.856.144-1.744-.16c-.016.416-.08.928-.128,1.328a49.1,49.1,0,0,0-.7,6.7A18.726,18.726,0,0,0,130.32.688l1.424-.112c-.016-.192-.032-.432-.048-.592a4.13,4.13,0,0,1,.08-.736c.176-.816.72-2.448,1.152-3.664l-.8-.624c-.256.592-.608,1.392-.832,2.048a10.408,10.408,0,0,1-.128-1.712,42.3,42.3,0,0,1,.784-6.336C132.016-11.328,132.176-11.984,132.272-12.272Z" transform="translate(611 2319)" fill="#363636"/>
    <path id="パス_8723" data-name="パス 8723" d="M-22.456-18.144H-5.6v3.5h3.556v-6.58H-12.32v-2.492h-3.528v2.492h-10v6.58h3.388Zm12.4,7.952a11.109,11.109,0,0,1-2.94,5.18C-14.84-5.684-16.66-6.3-18.368-6.776c.588-1.092,1.2-2.24,1.792-3.416Zm8.512,0v-3.136H-15.008c.588-1.176,1.148-2.324,1.652-3.416l-3.5-.728c-.56,1.288-1.232,2.716-1.96,4.144h-7.616v3.136h6.02c-1.2,2.268-2.38,4.4-3.388,6.02l3.472.952.532-.924c1.176.392,2.38.84,3.612,1.288A29.35,29.35,0,0,1-25.816-.588a13.6,13.6,0,0,1,1.9,3.024c4.7-.672,8.512-1.764,11.48-3.752A48.087,48.087,0,0,1-5.32,2.38L-2.66-.336a51.462,51.462,0,0,0-7-3.388,16.991,16.991,0,0,0,3.472-6.468Zm20.916-3.136a29.823,29.823,0,0,1,4.76,10.22l3.388-1.68a29.927,29.927,0,0,0-5.068-10.08ZM3.36-13.748C3-10.024,2.184-6.412.532-4L3.64-2.212c1.848-2.744,2.576-7.028,3-10.864Zm5.1-7.28a37.415,37.415,0,0,1,9.352,5.208l2.184-2.94a41.385,41.385,0,0,0-9.38-4.872Zm-.084,5.292v13.3c0,3.5.98,4.592,4.536,4.592h4.564c3.36,0,4.256-1.652,4.62-6.86A10.166,10.166,0,0,1,18.984-6.16c-.2,4.4-.42,5.264-1.792,5.264H13.356c-1.316,0-1.512-.2-1.512-1.54v-13.3Z" transform="translate(683 2276)" fill="#00c8ac"/>
    <g id="グループ_4224" data-name="グループ 4224" transform="translate(-37 138)">
      <path id="パス_8724" data-name="パス 8724" d="M4.22-16.88A22.65,22.65,0,0,1,.26-9.16,18.7,18.7,0,0,1,1.4-6.6,15.989,15.989,0,0,0,2.66-8.28v10H4.92V-12.44c.56-1.24,1.06-2.54,1.48-3.78ZM8.1-11.36a11.428,11.428,0,0,1,1.18.96,11.021,11.021,0,0,0,1.16-1.2,13.257,13.257,0,0,0,1.48,1.54A15.2,15.2,0,0,1,8.1-8.58Zm7.02-1.66a7.792,7.792,0,0,1-1.6,1.84,9.4,9.4,0,0,1-1.92-1.84Zm3.98,0v-1.92H12.6a14.076,14.076,0,0,0,.64-1.5l-2.14-.5a12.159,12.159,0,0,1-3,4.66V-14.4H6.04V-1.6H8.1V-8.12A8.733,8.733,0,0,1,9.14-6.68,17.245,17.245,0,0,0,13.7-8.74a15.1,15.1,0,0,0,4.76,1.9,9.586,9.586,0,0,1,1.28-1.9,15.513,15.513,0,0,1-4.36-1.34,10.844,10.844,0,0,0,2.22-2.94ZM15.76-5.94C14.44-4.62,11.84-3.62,9.34-3.1A7.261,7.261,0,0,1,10.5-1.62a14.568,14.568,0,0,0,6.96-3.62ZM13.8-7.76A12,12,0,0,1,9.2-5.6a6.177,6.177,0,0,1,1.26,1.36,12.938,12.938,0,0,0,5.08-2.8Zm3.4,4.08C15.48-1.8,12.02-.72,8.34-.22a8.29,8.29,0,0,1,1.2,1.88c4.08-.74,7.62-2.08,9.7-4.52Zm9.98-.82c-.64.22-1.3.42-1.96.62v-4h1.8v-2.18h-1.8v-3.52h2.14V-15.8h-6.6v2.22h2.2v3.52H20.94v2.18h2.02v4.7c-.92.26-1.74.48-2.44.66L21.06-.1c1.92-.62,4.32-1.38,6.52-2.16Zm3.08-6.04h2.06v1.72H30.26Zm0-3.54h2.06v1.68H30.26ZM36.3-12.4H34.32v-1.68H36.3Zm0,3.58H34.32v-1.72H36.3ZM34.54-1.04v-1.9h4.24V-5.08H34.54V-6.8h4.02v-9.3H28.12v9.3h4v1.72H27.98v2.14h4.14v1.9H26.6V1.12H39.46V-1.04ZM58.96-13.58a18.065,18.065,0,0,0-2.88-3.22L54.3-15.7a17.016,17.016,0,0,1,2.74,3.36ZM45.7-16.78a20.9,20.9,0,0,1-5.46,7.8,15.275,15.275,0,0,1,1.32,2.42A18.846,18.846,0,0,0,43.64-8.8V1.7h2.48V-12.36a31.775,31.775,0,0,0,1.86-3.68ZM59.26-9.6l-.34-2.24-5.7.74c-.14-1.7-.22-3.58-.26-5.54H50.54c.06,2.1.18,4.06.32,5.86l-4.04.54.34,2.3,3.94-.54c.72,6.1,2.3,9.86,5.68,10.18,1.12.06,2.2-.86,2.7-4.72a8.183,8.183,0,0,1-1.94-1.36c-.16,2.22-.4,3.22-.86,3.18-1.6-.2-2.66-3.16-3.22-7.6Z" transform="translate(661 2218)" fill="#363636"/>
      <path id="パス_8725" data-name="パス 8725" d="M11.12-8.28v-5.04h5v5.04ZM4.04-13.32H8.76v5.04H4.04Zm14.48-2.36H1.64V1.72h2.4V-5.92H16.12v4.84c0,.34-.14.46-.52.48-.4,0-1.7.02-2.84-.06a9.721,9.721,0,0,1,.86,2.38,9.24,9.24,0,0,0,3.78-.44C18.24.9,18.52.24,18.52-1.06Z" transform="translate(749 2218)" fill="#363636"/>
      <path id="パス_8726" data-name="パス 8726" d="M6-7.08a.907.907,0,0,0,.9-.9.907.907,0,0,0-.9-.9.907.907,0,0,0-.9.9A.907.907,0,0,0,6-7.08ZM6-4.908,2.04-8.868l-.348.348,3.96,3.96L1.68-.588l.348.348L6-4.212,9.96-.252,10.308-.6,6.348-4.56l3.96-3.96L9.96-8.868ZM3.48-4.56a.907.907,0,0,0-.9-.9.907.907,0,0,0-.9.9.907.907,0,0,0,.9.9A.907.907,0,0,0,3.48-4.56Zm5.04,0a.907.907,0,0,0,.9.9.907.907,0,0,0,.9-.9.907.907,0,0,0-.9-.9A.907.907,0,0,0,8.52-4.56ZM6-2.04a.907.907,0,0,0-.9.9.907.907,0,0,0,.9.9.907.907,0,0,0,.9-.9A.907.907,0,0,0,6-2.04Z" transform="translate(767 2202)" fill="#363636"/>
      <path id="パス_8727" data-name="パス 8727" d="M11.011.511c5.852,0,9.386-4.454,9.4-12.125.011-7.614-3.568-11.977-9.4-11.977s-9.386,4.352-9.4,11.977C1.591-3.966,5.148.5,11.011.511Zm0-4.079c-2.67,0-4.4-2.682-4.386-8.045.011-5.284,1.727-7.943,4.386-7.943s4.375,2.659,4.375,7.943C15.4-6.25,13.67-3.568,11.011-3.568Z" transform="translate(724 2219)" fill="#363636"/>
    </g>
    <g id="グループ_4228" data-name="グループ 4228" transform="translate(657 2180)">
      <g id="グループ_2542" data-name="グループ 2542" transform="translate(0 0)" clip-path="url(#clip-path)">
        <path id="パス_1677" data-name="パス 1677" d="M40.455,49.962v-28.1a10.443,10.443,0,1,0-7.979,0v28.1a3.99,3.99,0,1,0,7.979,0ZM32.141,14.378V9.317l4.324-2.53,4.323,2.53v5.061l-4.323,2.53Z" transform="translate(3.871 0.246)" fill="none" stroke="#00c8ac" stroke-miterlimit="10" stroke-width="3"/>
        <path id="パス_1678" data-name="パス 1678" d="M15.932,49.962v-28.1A10.61,10.61,0,0,0,12.242,1.5a10.285,10.285,0,0,0-4.531.914l7.32,7.42-1.144,4.326L9.619,15.322,2.334,7.939A10.658,10.658,0,0,0,7.953,21.865v28.1a3.99,3.99,0,1,0,7.979,0Z" transform="translate(0.223 0.246)" fill="none" stroke="#00c8ac" stroke-miterlimit="10" stroke-width="3"/>
      </g>
    </g>
  </g>
</svg>
