<svg xmlns="http://www.w3.org/2000/svg" xmlns:xlink="http://www.w3.org/1999/xlink" width="253" height="229" viewBox="0 0 253 229">
  <defs>
    <clipPath id="clip-path">
      <rect id="長方形_2122" data-name="長方形 2122" width="45" height="48" fill="none" stroke="#00c8ac" stroke-width="1"/>
    </clipPath>
  </defs>
  <g id="グループ_4489" data-name="グループ 4489" transform="translate(-61 -3351)">
    <path id="パス_8739" data-name="パス 8739" d="M0,0H253V229H0Z" transform="translate(61 3351)" fill="#edfaf9"/>
    <path id="パス_8740" data-name="パス 8740" d="M4.05-12.54A16.029,16.029,0,0,1,.39-6.8a8.256,8.256,0,0,1,.78,1.41A16.018,16.018,0,0,0,2.565-7.05V1.155h1.32V-9.075a27.028,27.028,0,0,0,1.47-3.045Zm3.015,1.875H12.12V-8.25H7.065ZM14.3-4.11V-5.37h-4.05V-7.005h3.27V-11.9H5.76v4.89H8.85V-5.37H4.71v1.26h3.4A11,11,0,0,1,4.23-.54,6.151,6.151,0,0,1,5.19.57,12.205,12.205,0,0,0,8.85-3.06V1.2h1.4V-3.135A12.876,12.876,0,0,0,13.725.6,6.234,6.234,0,0,1,14.7-.51,11.149,11.149,0,0,1,11-4.11Zm6.24-7.98H16.4V-11h4.14ZM19.41-2.745v2.16H17.475v-2.16ZM20.625-3.87h-4.35V1.17h1.2V.525h3.15Zm-4.32-.99h4.23V-5.94h-4.23Zm4.23-3.12h-4.23V-6.9h4.23ZM15.6-8.955h5.46v-1.11H15.6ZM26.3-.645v-4.59h2.79v-1.32H26.3v-3.87h2.88v-1.32H21.54v1.32h3.39v9.78H23.415V-7.92h-1.29V-.645h-1.05V.675H29.43V-.645ZM33.27-4.92h2.34v1.29H33.27Zm2.34-4.56v1.125H33.27V-9.48ZM33.27-7.26h2.34v1.245H33.27Zm4.65,3.63H36.9V-9.48h1.08V-10.7H36.9V-12.42H35.61V-10.7H33.27V-12.42H32.01V-10.7H30.8V-9.48H32.01v5.85H30.615v1.215h7.3ZM32.58-2.175A7.408,7.408,0,0,1,30.57.375a7.112,7.112,0,0,1,1.11.825A10.49,10.49,0,0,0,33.9-1.815Zm2.16.54A15.521,15.521,0,0,1,36.3.645L37.425-.03a14.322,14.322,0,0,0-1.62-2.19ZM39.885-5.07c.03-.48.03-.96.03-1.395v-.8h2.64v2.19Zm2.67-5.535V-8.49h-2.64v-2.115Zm1.35-1.26H38.6v5.4c0,2.145-.1,4.95-1.29,6.9a4.9,4.9,0,0,1,1.11.81A11.924,11.924,0,0,0,39.8-3.81h2.76V-.48c0,.24-.09.3-.315.315-.2,0-.945.015-1.65-.015A4.786,4.786,0,0,1,41,1.14a5.21,5.21,0,0,0,2.28-.255c.465-.21.63-.615.63-1.35Zm6.66.93V-9.9H47.73v-1.035ZM47.73-7.8V-8.91h2.835V-7.8Zm4.155,1.035v-5.22H46.35V1.185h1.38v-7.95Zm2.52-1V-8.91H57.33v1.14Zm2.925-3.165V-9.9H54.4v-1.035Zm-6.39,9.69V-2.49h3.045v1.245ZM53.985-4.68v1.17H50.94V-4.68Zm4.755-7.305H53.07v5.25h4.26V-.57c0,.255-.075.33-.345.345-.24,0-.96.015-1.695-.015V-5.73H49.665V.555H50.94V-.2h4.05a6.248,6.248,0,0,1,.435,1.365,7.593,7.593,0,0,0,2.61-.24c.54-.24.705-.69.705-1.485Zm9.45,7.02V-8.6h3.9v3.63Zm-5.34,0V-8.6h3.885v3.63Zm5.34-5v-2.61H66.735v2.61h-5.28v7.245H62.85V-3.6h3.885V1.17H68.19V-3.6h3.9v.81h1.455V-9.96Zm20.55,4.7a5.552,5.552,0,0,0-5.88-5.655,6.5,6.5,0,0,0-6.705,6.24c0,2.505,1.365,4.155,2.85,4.155s2.73-1.7,3.63-4.755a29.87,29.87,0,0,0,.9-4.215,3.988,3.988,0,0,1,3.63,4.185,4.314,4.314,0,0,1-3.63,4.26A9.271,9.271,0,0,1,82.2-.84L83.085.57C86.73.045,88.74-2.115,88.74-5.265ZM77.67-4.83a5.014,5.014,0,0,1,4.275-4.635A23.881,23.881,0,0,1,81.12-5.6c-.69,2.31-1.4,3.285-2.07,3.285C78.4-2.31,77.67-3.105,77.67-4.83Zm15.72-7.68A17.432,17.432,0,0,1,90.3-6.585a10.929,10.929,0,0,1,.7,1.47,14.862,14.862,0,0,0,1.2-1.665V1.17h1.32v-10.4c.435-.96.825-1.95,1.155-2.925Zm2.445,4.08c.285.21.645.495.825.66a10.627,10.627,0,0,0,1.11-1.185,8.384,8.384,0,0,0,1.38,1.47,11.7,11.7,0,0,1-3.315,1.32Zm5.76-1.455A6.523,6.523,0,0,1,100.11-8.16a6.942,6.942,0,0,1-1.68-1.71l.015-.015Zm2.625,0V-11.01H99.09a10.8,10.8,0,0,0,.585-1.275L98.4-12.6a9.785,9.785,0,0,1-2.565,3.825V-10.77H94.62v9.48h1.215V-6.045a6.452,6.452,0,0,1,.735.99,13.1,13.1,0,0,0,3.615-1.665,11.7,11.7,0,0,0,3.75,1.545,6.582,6.582,0,0,1,.765-1.14,11.627,11.627,0,0,1-3.51-1.17,8.383,8.383,0,0,0,1.86-2.4Zm-2.4,5.475a10.224,10.224,0,0,1-4.8,2.235,5.526,5.526,0,0,1,.69.9,10.92,10.92,0,0,0,5.145-2.715Zm-1.425-1.4a9.118,9.118,0,0,1-3.54,1.755,4.822,4.822,0,0,1,.765.81,10.009,10.009,0,0,0,3.825-2.13Zm2.685,3.06c-1.305,1.47-3.96,2.34-6.855,2.76a4.6,4.6,0,0,1,.72,1.1c3.105-.555,5.835-1.59,7.335-3.36Zm7.275-.45c-.51.18-1.05.345-1.56.51v-3.39h1.425v-1.29h-1.425V-10.35h1.665v-1.29h-4.77v1.29h1.77v2.985h-1.62v1.29h1.62v3.81c-.72.225-1.38.4-1.92.555l.33,1.425c1.35-.435,3.09-1.02,4.725-1.59ZM112.38-7.98h1.965v1.635H112.38Zm0-2.745h1.965v1.62H112.38Zm5.07,1.62h-1.92v-1.62h1.92Zm0,2.76h-1.92V-7.98h1.92ZM115.65-.57V-2.355h3.33v-1.26h-3.33V-5.16h3.135v-6.75h-7.68v6.75h3.12v1.545H110.97v1.26h3.255V-.57h-4.35V.705h9.585V-.57Zm11.22-1.3c0-.645.7-1.08,1.71-1.08a4.834,4.834,0,0,1,1.4.21v.4c0,.945-.345,1.515-1.455,1.515C127.56-.825,126.87-1.17,126.87-1.875Zm4.5-9.765h-1.695a7.381,7.381,0,0,1,.09.96v1.77c-.42.015-.825.03-1.245.03a24.421,24.421,0,0,1-2.6-.135l.015,1.41c.87.06,1.695.105,2.565.105.42,0,.84-.015,1.26-.03.03,1.17.09,2.46.15,3.51a7.983,7.983,0,0,0-1.215-.09c-2.01,0-3.195,1.02-3.195,2.4,0,1.44,1.185,2.28,3.21,2.28C130.8.57,131.46-.615,131.46-2V-2.07a14.263,14.263,0,0,1,2.085,1.665l.81-1.26A9.9,9.9,0,0,0,131.4-3.6c-.045-1.155-.15-2.5-.165-4.005.87-.06,1.71-.165,2.49-.285V-9.345a23.2,23.2,0,0,1-2.49.345c.015-.69.03-1.335.045-1.71C131.295-11.01,131.325-11.34,131.37-11.64ZM124-11.505l-1.635-.15c-.015.39-.075.87-.12,1.245a46.025,46.025,0,0,0-.66,6.285,17.556,17.556,0,0,0,.585,4.77L123.51.54c-.015-.18-.03-.405-.045-.555a3.872,3.872,0,0,1,.075-.69c.165-.765.675-2.295,1.08-3.435l-.75-.585c-.24.555-.57,1.305-.78,1.92a9.758,9.758,0,0,1-.12-1.6,39.654,39.654,0,0,1,.735-5.94C123.765-10.62,123.915-11.235,124-11.505Z" transform="translate(120 3509)" fill="#363636"/>
    <path id="パス_8741" data-name="パス 8741" d="M-20.852-16.848H-5.2v3.25h3.3v-6.11H-11.44v-2.314h-3.276v2.314H-24v6.11h3.146ZM-9.334-9.464a10.315,10.315,0,0,1-2.73,4.81c-1.716-.624-3.406-1.2-4.992-1.638.546-1.014,1.118-2.08,1.664-3.172Zm7.9,0v-2.912H-13.936c.546-1.092,1.066-2.158,1.534-3.172l-3.25-.676c-.52,1.2-1.144,2.522-1.82,3.848h-7.072v2.912h5.59c-1.118,2.106-2.21,4.082-3.146,5.59l3.224.884.494-.858c1.092.364,2.21.78,3.354,1.2A27.253,27.253,0,0,1-23.972-.546,12.626,12.626,0,0,1-22.2,2.262c4.368-.624,7.9-1.638,10.66-3.484A44.652,44.652,0,0,1-4.94,2.21L-2.47-.312a47.787,47.787,0,0,0-6.5-3.146A15.777,15.777,0,0,0-5.746-9.464Zm19.422-2.912a27.693,27.693,0,0,1,4.42,9.49l3.146-1.56a27.789,27.789,0,0,0-4.706-9.36ZM3.12-12.766C2.782-9.308,2.028-5.954.494-3.718L3.38-2.054C5.1-4.6,5.772-8.58,6.162-12.142Zm4.732-6.76a34.743,34.743,0,0,1,8.684,4.836l2.028-2.73a38.429,38.429,0,0,0-8.71-4.524Zm-.078,4.914v12.35C7.774.988,8.684,2,11.986,2h4.238c3.12,0,3.952-1.534,4.29-6.37A9.44,9.44,0,0,1,17.628-5.72c-.182,4.082-.39,4.888-1.664,4.888H12.4c-1.222,0-1.4-.182-1.4-1.43v-12.35Z" transform="translate(188 3469)" fill="#00c8ac"/>
    <g id="グループ_4224" data-name="グループ 4224" transform="translate(-532 1329)">
      <path id="パス_8742" data-name="パス 8742" d="M4.22-16.88A22.65,22.65,0,0,1,.26-9.16,18.7,18.7,0,0,1,1.4-6.6,15.989,15.989,0,0,0,2.66-8.28v10H4.92V-12.44c.56-1.24,1.06-2.54,1.48-3.78ZM8.1-11.36a11.428,11.428,0,0,1,1.18.96,11.021,11.021,0,0,0,1.16-1.2,13.257,13.257,0,0,0,1.48,1.54A15.2,15.2,0,0,1,8.1-8.58Zm7.02-1.66a7.792,7.792,0,0,1-1.6,1.84,9.4,9.4,0,0,1-1.92-1.84Zm3.98,0v-1.92H12.6a14.076,14.076,0,0,0,.64-1.5l-2.14-.5a12.159,12.159,0,0,1-3,4.66V-14.4H6.04V-1.6H8.1V-8.12A8.733,8.733,0,0,1,9.14-6.68,17.245,17.245,0,0,0,13.7-8.74a15.1,15.1,0,0,0,4.76,1.9,9.586,9.586,0,0,1,1.28-1.9,15.513,15.513,0,0,1-4.36-1.34,10.844,10.844,0,0,0,2.22-2.94ZM15.76-5.94C14.44-4.62,11.84-3.62,9.34-3.1A7.261,7.261,0,0,1,10.5-1.62a14.568,14.568,0,0,0,6.96-3.62ZM13.8-7.76A12,12,0,0,1,9.2-5.6a6.177,6.177,0,0,1,1.26,1.36,12.938,12.938,0,0,0,5.08-2.8Zm3.4,4.08C15.48-1.8,12.02-.72,8.34-.22a8.29,8.29,0,0,1,1.2,1.88c4.08-.74,7.62-2.08,9.7-4.52Zm9.98-.82c-.64.22-1.3.42-1.96.62v-4h1.8v-2.18h-1.8v-3.52h2.14V-15.8h-6.6v2.22h2.2v3.52H20.94v2.18h2.02v4.7c-.92.26-1.74.48-2.44.66L21.06-.1c1.92-.62,4.32-1.38,6.52-2.16Zm3.08-6.04h2.06v1.72H30.26Zm0-3.54h2.06v1.68H30.26ZM36.3-12.4H34.32v-1.68H36.3Zm0,3.58H34.32v-1.72H36.3ZM34.54-1.04v-1.9h4.24V-5.08H34.54V-6.8h4.02v-9.3H28.12v9.3h4v1.72H27.98v2.14h4.14v1.9H26.6V1.12H39.46V-1.04ZM58.96-13.58a18.065,18.065,0,0,0-2.88-3.22L54.3-15.7a17.016,17.016,0,0,1,2.74,3.36ZM45.7-16.78a20.9,20.9,0,0,1-5.46,7.8,15.275,15.275,0,0,1,1.32,2.42A18.846,18.846,0,0,0,43.64-8.8V1.7h2.48V-12.36a31.775,31.775,0,0,0,1.86-3.68ZM59.26-9.6l-.34-2.24-5.7.74c-.14-1.7-.22-3.58-.26-5.54H50.54c.06,2.1.18,4.06.32,5.86l-4.04.54.34,2.3,3.94-.54c.72,6.1,2.3,9.86,5.68,10.18,1.12.06,2.2-.86,2.7-4.72a8.183,8.183,0,0,1-1.94-1.36c-.16,2.22-.4,3.22-.86,3.18-1.6-.2-2.66-3.16-3.22-7.6Z" transform="translate(661 2218)" fill="#363636"/>
      <path id="パス_8743" data-name="パス 8743" d="M11.12-8.28v-5.04h5v5.04ZM4.04-13.32H8.76v5.04H4.04Zm14.48-2.36H1.64V1.72h2.4V-5.92H16.12v4.84c0,.34-.14.46-.52.48-.4,0-1.7.02-2.84-.06a9.721,9.721,0,0,1,.86,2.38,9.24,9.24,0,0,0,3.78-.44C18.24.9,18.52.24,18.52-1.06Z" transform="translate(749 2218)" fill="#363636"/>
      <path id="パス_8744" data-name="パス 8744" d="M6-7.08a.907.907,0,0,0,.9-.9.907.907,0,0,0-.9-.9.907.907,0,0,0-.9.9A.907.907,0,0,0,6-7.08ZM6-4.908,2.04-8.868l-.348.348,3.96,3.96L1.68-.588l.348.348L6-4.212,9.96-.252,10.308-.6,6.348-4.56l3.96-3.96L9.96-8.868ZM3.48-4.56a.907.907,0,0,0-.9-.9.907.907,0,0,0-.9.9.907.907,0,0,0,.9.9A.907.907,0,0,0,3.48-4.56Zm5.04,0a.907.907,0,0,0,.9.9.907.907,0,0,0,.9-.9.907.907,0,0,0-.9-.9A.907.907,0,0,0,8.52-4.56ZM6-2.04a.907.907,0,0,0-.9.9.907.907,0,0,0,.9.9.907.907,0,0,0,.9-.9A.907.907,0,0,0,6-2.04Z" transform="translate(767 2202)" fill="#363636"/>
      <path id="パス_8745" data-name="パス 8745" d="M11.011.511c5.852,0,9.386-4.454,9.4-12.125.011-7.614-3.568-11.977-9.4-11.977s-9.386,4.352-9.4,11.977C1.591-3.966,5.148.5,11.011.511Zm0-4.079c-2.67,0-4.4-2.682-4.386-8.045.011-5.284,1.727-7.943,4.386-7.943s4.375,2.659,4.375,7.943C15.4-6.25,13.67-3.568,11.011-3.568Z" transform="translate(724 2219)" fill="#363636"/>
    </g>
    <g id="グループ_4228" data-name="グループ 4228" transform="translate(165 3375)">
      <g id="グループ_2542" data-name="グループ 2542" transform="translate(0 0)" clip-path="url(#clip-path)">
        <path id="パス_1677" data-name="パス 1677" d="M38.393,43.039V18.955a8.951,8.951,0,1,0-6.839,0V43.039a3.42,3.42,0,1,0,6.839,0Zm-7.126-30.5V8.2l3.706-2.169L38.679,8.2v4.338l-3.705,2.169Z" transform="translate(-0.4 -0.003)" fill="none" stroke="#00c8ac" stroke-miterlimit="10" stroke-width="3"/>
        <path id="パス_1678" data-name="パス 1678" d="M13.87,43.039V18.955A9.095,9.095,0,0,0,10.707,1.5a8.816,8.816,0,0,0-3.883.784L13.1,8.647l-.981,3.708-3.658.993L2.215,7.019A9.135,9.135,0,0,0,7.031,18.955V43.039a3.42,3.42,0,1,0,6.839,0Z" transform="translate(-0.023 -0.003)" fill="none" stroke="#00c8ac" stroke-miterlimit="10" stroke-width="3"/>
      </g>
    </g>
  </g>
</svg>
