<svg xmlns="http://www.w3.org/2000/svg" width="210" height="262" viewBox="0 0 210 262">
  <g id="グループ_4368" data-name="グループ 4368" transform="translate(-233 -2570)">
    <path id="パス_9046" data-name="パス 9046" d="M10,0H200a10,10,0,0,1,10,10V252a10,10,0,0,1-10,10H10A10,10,0,0,1,0,252V10A10,10,0,0,1,10,0Z" transform="translate(233 2570)" fill="#fdeff2"/>
    <path id="合体_62" data-name="合体 62" d="M5290,82V20a10,10,0,0,1,10-10h190a10,10,0,0,1,10,10V82L5395,98Z" transform="translate(-5057 2560)" fill="#818181"/>
    <path id="パス_9047" data-name="パス 9047" d="M-41.415-10.575l-1.83-.03a7.674,7.674,0,0,1,.12,1.41c0,.9.015,2.7.165,4.02.4,3.945,1.8,5.385,3.315,5.385,1.1,0,2.025-.885,2.97-3.45l-1.185-1.4c-.345,1.365-1,3-1.755,3-1.005,0-1.62-1.59-1.845-3.945a33.584,33.584,0,0,1-.1-3.375A12.279,12.279,0,0,1-41.415-10.575Zm7.68.375L-35.22-9.7c1.515,1.8,2.37,5.13,2.625,7.71l1.545-.6A16.339,16.339,0,0,0-33.735-10.2Zm4.71,2.19.675,1.68c1.365-.57,5.055-2.16,7.41-2.16,1.935,0,3.015,1.17,3.015,2.685,0,2.865-3.375,4.05-7.35,4.155L-24.6-.09c4.905-.255,8.34-2.19,8.34-5.7,0-2.625-2.04-4.11-4.62-4.11a24.445,24.445,0,0,0-6.405,1.455A16.38,16.38,0,0,1-29.025-8.01ZM-8.19-11.9l-1.68-.09A6.351,6.351,0,0,1-9.885-10.8c-.03.39-.075.87-.15,1.41a14.6,14.6,0,0,1-3.195-.57l-.075,1.38a19.047,19.047,0,0,0,3.12.525c-.105.8-.21,1.635-.315,2.43a12.686,12.686,0,0,1-3.075-.6l-.075,1.44a16.4,16.4,0,0,0,3,.51c-.06.675-.1,1.245-.1,1.635C-10.755-.15-9.09.8-6.915.8-3.81.8-1.8-.675-1.8-2.925A5.23,5.23,0,0,0-3.3-6.45l-1.665.345a4.114,4.114,0,0,1,1.59,3c0,1.41-1.32,2.385-3.51,2.385-1.6,0-2.4-.8-2.4-2.16,0-.315.03-.78.075-1.305h.57c.975,0,1.89-.06,2.8-.15l.045-1.41a23.955,23.955,0,0,1-3.075.18h-.21c.09-.78.2-1.635.3-2.415h.03A28.849,28.849,0,0,0-5.73-8.13l.045-1.41a20.04,20.04,0,0,1-2.91.2c.075-.57.135-1.035.18-1.365C-8.355-11.07-8.3-11.43-8.19-11.9Zm12.975.96a10.463,10.463,0,0,0-2.7-1.545l-.75,1.005A11.429,11.429,0,0,1,3.975-9.81Zm-.69,3.9A12.834,12.834,0,0,0,1.335-8.49L.57-7.44A11.472,11.472,0,0,1,3.285-5.85ZM2.22.975C3.06-.45,3.99-2.25,4.725-3.825L3.66-4.71A44.841,44.841,0,0,1,1.02.09ZM7.32-2.49v-.945h4.635v.945Zm4.635-2.79v.915H7.32V-5.28Zm1.32-1.05H6.03V1.155H7.32V-1.53h4.635V-.315c0,.2-.075.24-.285.255-.18.015-.9.015-1.605-.015a4.436,4.436,0,0,1,.4,1.185,6.4,6.4,0,0,0,2.2-.195c.465-.2.6-.555.6-1.2ZM10.14-8.085V-8.94h3.4v-.975h-3.4v-.78h3.78V-11.7H10.14v-.885H8.76v.885H5.175V-10.7H8.76v.78h-3.2v.975h3.2v.855H4.7v1.02H14.4v-1.02Zm9.21-2.895a9.238,9.238,0,0,0-2.37-1.455l-.78.99A10.68,10.68,0,0,1,18.51-9.87Zm-.57,3.855a9.038,9.038,0,0,0-2.43-1.35l-.78,1.02A10.464,10.464,0,0,1,17.97-6Zm-.915,2.64A40.924,40.924,0,0,1,15.855.27l1.26.72c.63-1.4,1.335-3.165,1.89-4.74Zm3.54,2.805A8.781,8.781,0,0,1,18.87.2a5.98,5.98,0,0,1,1.065.84,12.559,12.559,0,0,0,2.76-2.28Zm8.1-.6a13.856,13.856,0,0,0-2.64-2.37l-.9.6c.27.21.57.435.855.69-.975.03-1.965.045-2.91.075a34.577,34.577,0,0,0,3-2.415l-1.17-.585a20.289,20.289,0,0,1-2.16,1.92c-.255-.18-.54-.375-.855-.57.5-.42,1.05-.96,1.56-1.455L23.22-6.96,24-7.065a2.2,2.2,0,0,1-.195.15,6.169,6.169,0,0,1,1.035.765c1.185-1.02,1.695-2.505,1.86-4.62h1.155c-.06,2.16-.135,2.97-.3,3.18a.384.384,0,0,1-.36.15c-.195,0-.615,0-1.065-.045a2.955,2.955,0,0,1,.33,1.125c.5,0,1,0,1.3-.03a1.083,1.083,0,0,0,.825-.435c.285-.375.375-1.53.45-4.575,0-.15.015-.495.015-.495H24.39v1.125h1.08a5.024,5.024,0,0,1-1.29,3.555l-.045-.9-1.725.21V-8.79h1.515v-.945H22.41v-.855h1.68v-.975H22.41V-12.6H21.18v1.035H19.5v.975h1.68v.855H19.74v.945h1.44v1.02c-.735.09-1.41.165-1.98.225l.18,1.125c1.05-.135,2.355-.315,3.675-.51A13.386,13.386,0,0,1,21.8-5.475c-.285-.15-.57-.285-.84-.4l-.81.84a13.82,13.82,0,0,1,2.4,1.455c-.165.12-.33.24-.48.345C21-3.225,20.04-3.21,19.23-3.2l.09,1.185c1.155-.03,2.6-.075,4.14-.135V1.17h1.35V-2.19c1.035-.045,2.085-.075,3.12-.12a6.012,6.012,0,0,1,.615.69Zm-3.96,1.14A16.429,16.429,0,0,1,28.26.96L29.28.21a17.97,17.97,0,0,0-2.775-2.025ZM36.78-10.29l.015,1.53a38.229,38.229,0,0,0,6.285,0v-1.53A27.642,27.642,0,0,1,36.78-10.29Zm.855,6.24-1.35-.12a7.6,7.6,0,0,0-.255,1.845c0,1.455,1.17,2.34,3.72,2.34a20.58,20.58,0,0,0,3.8-.3l-.03-1.6a16.108,16.108,0,0,1-3.735.4c-1.815,0-2.34-.555-2.34-1.23A5.211,5.211,0,0,1,37.635-4.05ZM34.17-11.37l-1.665-.15a10.9,10.9,0,0,1-.135,1.245,43.287,43.287,0,0,0-.645,5.985A19.061,19.061,0,0,0,32.28.555l1.365-.09c-.015-.18-.03-.405-.03-.555a2.932,2.932,0,0,1,.075-.69c.15-.75.675-2.355,1.065-3.5l-.75-.6c-.24.555-.54,1.29-.8,1.905a14.8,14.8,0,0,1-.09-1.605,35.973,35.973,0,0,1,.735-5.655A10.758,10.758,0,0,1,34.17-11.37Zm-66.525,27.7a18.719,18.719,0,0,0,2.61-.78L-30.75,14.49a27.987,27.987,0,0,1-6.1,1.485,4.137,4.137,0,0,1,.42,1.08c.87-.1,1.8-.255,2.715-.435v2.235h-3v1.29h2.715a14.765,14.765,0,0,1-3.045,4.71,9.029,9.029,0,0,1,.735,1.35,15.527,15.527,0,0,0,2.595-4v5.955h1.365V22.59c.7.675,1.5,1.5,1.92,1.98l.8-1.185c-.405-.36-1.98-1.71-2.715-2.25v-.99h2.715v-1.29h-2.715Zm4.95-.135h-1.35v8.25h1.35Zm2.235-1.5V26.415c0,.27-.1.36-.39.36-.3.015-1.245.015-2.265-.03a6.312,6.312,0,0,1,.5,1.44,9.119,9.119,0,0,0,2.82-.255c.525-.24.735-.645.735-1.515V14.7Zm10.98,7.71V20.19h3.63v2.22Zm-4.71,0c.045-.555.06-1.11.06-1.62v-.6h3.255v2.22Zm3.315-5.64v2.115H-18.84V16.77Zm5.025,2.115h-3.63V16.77h3.63Zm1.4-3.45H-20.22v5.34c0,2.115-.15,4.77-1.785,6.585a4.617,4.617,0,0,1,1.095.915,8.6,8.6,0,0,0,1.875-4.545h3.45v4.29h1.395V23.73h3.63v2.685c0,.285-.1.375-.375.375s-1.275.015-2.235-.03a5.764,5.764,0,0,1,.465,1.35,8.211,8.211,0,0,0,2.8-.24c.54-.21.735-.63.735-1.44Zm6.975-.21-1.92-.015a8.68,8.68,0,0,1,.165,1.74c0,1.44-.15,5.31-.15,7.44,0,2.49,1.53,3.465,3.81,3.465a7.617,7.617,0,0,0,6.375-3.36l-1.065-1.3a6.146,6.146,0,0,1-5.28,3.09c-1.3,0-2.28-.54-2.28-2.13,0-2.07.105-5.535.18-7.2A13.681,13.681,0,0,1-2.19,15.225Zm18.24,8.16-1.4-.135a8.815,8.815,0,0,0-.255,1.875c0,1.485,1.32,2.28,3.765,2.28a23.161,23.161,0,0,0,2.97-.21l.045-1.515a16.95,16.95,0,0,1-3,.3c-1.92,0-2.325-.615-2.325-1.29A5.507,5.507,0,0,1,16.05,23.385ZM14.34,15.12l-1.8-.135a6.136,6.136,0,0,1-.06,1.35c-.03.285-.105.675-.18,1.125-.525.045-1.035.06-1.5.06a14.135,14.135,0,0,1-1.83-.12L9,18.87c.54.045,1.1.06,1.785.06.375,0,.78-.015,1.215-.03-.12.5-.24.99-.36,1.455a34.694,34.694,0,0,1-2.55,6.72l1.635.555a45.313,45.313,0,0,0,2.37-6.9c.165-.63.33-1.32.48-1.965a26.877,26.877,0,0,0,3.015-.51V16.77a26.32,26.32,0,0,1-2.715.525c.075-.33.135-.63.18-.885C14.115,16.11,14.25,15.495,14.34,15.12Zm1.185,4.56v1.4a25.244,25.244,0,0,1,2.835-.165,18.956,18.956,0,0,1,2.55.195l.045-1.44a25.424,25.424,0,0,0-2.625-.12C17.37,19.545,16.335,19.6,15.525,19.68Zm10.56-3.255-1.83-.03a7.674,7.674,0,0,1,.12,1.41c0,.9.015,2.7.165,4.02.4,3.945,1.8,5.385,3.315,5.385,1.1,0,2.025-.885,2.97-3.45l-1.185-1.4c-.345,1.365-1,3-1.755,3-1,0-1.62-1.59-1.845-3.945a33.584,33.584,0,0,1-.105-3.375A12.279,12.279,0,0,1,26.085,16.425Zm7.68.375-1.485.5c1.515,1.8,2.37,5.13,2.625,7.71l1.545-.6A16.339,16.339,0,0,0,33.765,16.8Z" transform="translate(338 2603)" fill="#fff"/>
    <path id="パス_9048" data-name="パス 9048" d="M6.511-7.259c-.578.153-1.156.306-1.734.442V-9.333H6.494v-.731h9.673v-1.9H12.359V-14.4H10.336v2.431H6.494v.765H4.777v-3.179H2.788V-11.2H.68v1.87H2.788v3.009c-.884.221-1.717.408-2.4.544L.884-3.842l1.9-.493V-.7c0,.238-.085.306-.306.323-.221,0-.918,0-1.564-.034a7.877,7.877,0,0,1,.544,1.853,5.785,5.785,0,0,0,2.584-.357c.561-.306.731-.8.731-1.8V-4.862c.663-.17,1.326-.357,1.972-.544ZM14.416-.323a.273.273,0,0,1-.187-.085,1.71,1.71,0,0,1-.051-.629v-7.4H8.109v3.3a5.276,5.276,0,0,1-2.584,5.1,8.339,8.339,0,0,1,1.292,1.5C9.486-.17,10.03-2.924,10.03-5.083V-6.6h2.193V-1c0,1.258.136,1.649.459,1.955a1.67,1.67,0,0,0,1.19.442h.986A2.033,2.033,0,0,0,15.9,1.156a1.445,1.445,0,0,0,.612-.884,13.985,13.985,0,0,0,.221-2.329,5.054,5.054,0,0,1-1.581-.85c0,.918-.017,1.649-.051,1.989-.034.306-.068.442-.136.51a.336.336,0,0,1-.238.085Zm10.2-.884h1.717V-3.179a11.252,11.252,0,0,0,2.516,1.921,7.269,7.269,0,0,1,1.122-1.275,9.28,9.28,0,0,1-2.856-1.785h2.567V-5.78H26.333v-.952A22.079,22.079,0,0,0,29.1-7.225L27.931-8.347a33.361,33.361,0,0,1-6.2.7,5.689,5.689,0,0,1,.425,1.207c.782-.017,1.632-.051,2.465-.119v.782h-3.3v1.462h2.5A8.722,8.722,0,0,1,20.893-2.5a6,6,0,0,1,1.088,1.275,10.337,10.337,0,0,0,2.635-1.921ZM30.226-8.5V-.85H20.791V-8.5ZM18.87,1.479h1.921V.9h9.435v.578h1.989V-10.183H18.87Zm10.4-14.943v-.918H27.251v.918h-3.57v-.918H21.692v.918H17.969v1.751h3.723v1.054h1.989v-1.054h3.57v1.054h2.023v-1.054h3.74v-1.751ZM42.5-8.636A2.191,2.191,0,0,0,40.324-6.46,2.191,2.191,0,0,0,42.5-4.284,2.191,2.191,0,0,0,44.676-6.46,2.191,2.191,0,0,0,42.5-8.636ZM57.511-7.259c-.578.153-1.156.306-1.734.442V-9.333h1.717v-.731h9.673v-1.9H63.359V-14.4H61.336v2.431H57.494v.765H55.777v-3.179H53.788V-11.2H51.68v1.87h2.108v3.009c-.884.221-1.717.408-2.4.544l.493,1.938,1.9-.493V-.7c0,.238-.085.306-.306.323-.221,0-.918,0-1.564-.034a7.877,7.877,0,0,1,.544,1.853,5.785,5.785,0,0,0,2.584-.357c.561-.306.731-.8.731-1.8V-4.862c.663-.17,1.326-.357,1.972-.544Zm7.9,6.936a.273.273,0,0,1-.187-.085,1.71,1.71,0,0,1-.051-.629v-7.4H59.109v3.3a5.276,5.276,0,0,1-2.584,5.1,8.339,8.339,0,0,1,1.292,1.5C60.486-.17,61.03-2.924,61.03-5.083V-6.6h2.193V-1c0,1.258.136,1.649.459,1.955a1.67,1.67,0,0,0,1.19.442h.986A2.033,2.033,0,0,0,66.9,1.156a1.445,1.445,0,0,0,.612-.884,13.985,13.985,0,0,0,.221-2.329,5.055,5.055,0,0,1-1.581-.85c0,.918-.017,1.649-.051,1.989-.034.306-.068.442-.136.51a.336.336,0,0,1-.238.085ZM77.724-13.889H75.106a8.4,8.4,0,0,1,.136,1.564v1.309H71.6A14.1,14.1,0,0,1,69.87-11.1a10.854,10.854,0,0,1,.085,1.462V-6.7A12.9,12.9,0,0,1,69.87-5.27h2.346c-.034-.34-.051-.867-.051-1.258V-9.01H80.6a10.093,10.093,0,0,1-1.513,4.369,8.322,8.322,0,0,1-3.859,2.907,13.845,13.845,0,0,1-2.4.663L74.6.969a10.8,10.8,0,0,0,6.936-5.1,15.832,15.832,0,0,0,1.581-4.811,11.351,11.351,0,0,1,.34-1.36l-1.479-.9a4.136,4.136,0,0,1-1.411.187H77.6v-1.309A12.356,12.356,0,0,1,77.724-13.889Zm8.33,7.276,1.071,2.142a34.064,34.064,0,0,0,6-2.448v5.44A19.04,19.04,0,0,1,93.007.748h2.686a11.687,11.687,0,0,1-.153-2.227V-8.347a31.182,31.182,0,0,0,4.573-3.689l-1.836-1.751a21.8,21.8,0,0,1-4.794,4.131A27.336,27.336,0,0,1,86.054-6.613Zm24.5,6.239L111.979.8a3.632,3.632,0,0,1,.731-.51,18.718,18.718,0,0,0,5.763-4.641l-1.309-1.87a10.765,10.765,0,0,1-4.2,3.587v-8.891a8.633,8.633,0,0,1,.119-1.479h-2.533a7.537,7.537,0,0,1,.136,1.462v9.911A6.469,6.469,0,0,1,110.551-.374ZM102.68-.629,104.754.748a9.968,9.968,0,0,0,3.026-4.879,37.509,37.509,0,0,0,.51-7.31,11.2,11.2,0,0,1,.119-1.547h-2.5a6.452,6.452,0,0,1,.153,1.564c0,2.057-.017,5.27-.493,6.732A8.02,8.02,0,0,1,102.68-.629Zm30.5-10.9-1.394-1.037a6.093,6.093,0,0,1-1.751.221h-6a18.993,18.993,0,0,1-2.006-.119v2.414c.357-.017,1.292-.119,2.006-.119h5.763A13.172,13.172,0,0,1,127.262-6a19.057,19.057,0,0,1-6.97,4.879L122.043.714a22.393,22.393,0,0,0,6.392-4.777A38.766,38.766,0,0,1,132.719.748l1.938-1.683A47.79,47.79,0,0,0,129.914-5.8a25,25,0,0,0,2.669-4.675A8.033,8.033,0,0,1,133.178-11.526Zm10.03,5.865.034-1.7v-.765h-3.06c.017-.6.034-1.207.051-1.819h3.247a6.338,6.338,0,0,1-.544.612,11.025,11.025,0,0,1,1.513,1.428l.153-.17v1.768Zm4.148,5.406c-.85,0-.969-.1-.969-.8v-4.1l.918-.425v3.961h1.683V-6.358l1.088-.51c-.017,1.615-.017,2.55-.051,2.7-.017.221-.1.255-.238.255s-.374,0-.578-.017a4.6,4.6,0,0,1,.357,1.479,3.886,3.886,0,0,0,1.411-.187,1.193,1.193,0,0,0,.731-1.173c.051-.51.051-2.244.068-4.658l.068-.272-1.258-.442-.306.221-.068.051-1.224.561V-10H147.3v2.431l-.918.425V-8.772h-1.241a11.07,11.07,0,0,0,.969-1.649h6.1v-1.836H146.88c.187-.578.374-1.173.51-1.768L145.4-14.4a12.279,12.279,0,0,1-1.513,3.859v-1.275h-2.652v-2.567H139.3v2.567h-2.6v1.87h1.632c-.051,3.927-.2,7.667-1.887,10a6,6,0,0,1,1.445,1.411C139.3-.476,139.842-3.23,140.08-6.29h1.326c-.068,3.995-.17,5.423-.391,5.763a.494.494,0,0,1-.493.272A9.5,9.5,0,0,1,139.3-.323a4.747,4.747,0,0,1,.493,1.8,8.886,8.886,0,0,0,1.751-.085A1.523,1.523,0,0,0,142.63.7c.391-.544.51-2.176.578-6.341L143.9-4l.7-.323v3.264c0,1.938.544,2.482,2.55,2.482h2.975c1.649,0,2.159-.646,2.38-2.771a5.569,5.569,0,0,1-1.632-.7c-.1,1.5-.238,1.785-.9,1.785ZM162.6-1.734v-8.789h5.712v-2.108H154.734v2.108h5.559v8.789h-6.477V.306h15.453v-2.04Z" transform="translate(253 2791)" fill="#0a0a0a"/>
    <g id="グループ_4366" data-name="グループ 4366" transform="translate(0.5 5)">
      <path id="パス_8564" data-name="パス 8564" d="M43.45,199.043l.718,7.473,2.991-6.885-1.627,7.329,4.972-5.625L46.691,207.8l6.467-3.812-5.625,4.972,7.329-1.627-6.885,2.991,7.472.718-7.472.718,6.885,2.991-7.329-1.629,5.625,4.973-6.467-3.812,3.812,6.467-4.972-5.625,1.627,7.329-2.991-6.885-.718,7.473-.718-7.473-2.991,6.885,1.627-7.329L36.4,220.751l3.812-6.467L33.741,218.1l5.625-4.973-7.329,1.629,6.885-2.991-7.472-.718,7.472-.718-6.885-2.991,7.329,1.627-5.625-4.972,6.467,3.812L36.4,201.334l4.972,5.625-1.627-7.329,2.991,6.885Z" transform="translate(253.05 2479.957)" fill="#e66084"/>
      <path id="パス_8565" data-name="パス 8565" d="M69.413,201.735l2.946,5.395,4.471-4.221,1.134,6.043,5.555-2.635-.787,6.1,6.1-.787L86.2,217.184l6.043,1.134-4.221,4.469,5.395,2.948-5.395,2.946,4.221,4.469L86.2,234.287l2.633,5.555-6.1-.789.787,6.1-5.555-2.633L76.83,248.56l-4.471-4.221-2.946,5.4-2.946-5.4L62,248.56l-1.134-6.041-5.555,2.633.787-6.1-6.1.789,2.633-5.555-6.043-1.136,4.221-4.469-5.395-2.946,5.395-2.948-4.221-4.469,6.043-1.134L50,211.629l6.1.787-.787-6.1,5.555,2.635L62,202.909l4.471,4.221Z" transform="translate(265.087 2482.26)" fill="#e66084"/>
      <path id="パス_8566" data-name="パス 8566" d="M88.468,196.566l1.638,5.664,3.306-4.881-.193,5.893,4.654-3.621-2,5.544,5.544-2-3.621,4.654,5.893-.193L98.8,210.93l5.664,1.636L98.8,214.2l4.881,3.308-5.893-.195,3.621,4.654-5.544-2,2,5.544-4.654-3.62.193,5.893L90.106,222.9l-1.638,5.664L86.83,222.9l-3.306,4.881.193-5.893-4.654,3.62,2-5.544-5.544,2,3.621-4.654-5.893.195,4.881-3.308-5.664-1.638,5.664-1.636-4.881-3.308,5.893.193-3.621-4.654,5.544,2-2-5.544,4.654,3.621-.193-5.893,3.306,4.881Z" transform="translate(286.032 2477.434)" fill="#e66084"/>
    </g>
  </g>
</svg>
