<svg xmlns="http://www.w3.org/2000/svg" width="121" height="224" viewBox="0 0 121 224">
  <g id="グループ_4452" data-name="グループ 4452" transform="translate(-233.038 -2344)">
    <path id="パス_9104" data-name="パス 9104" d="M10,0H111a10,10,0,0,1,10,10V214a10,10,0,0,1-10,10H10A10,10,0,0,1,0,214V10A10,10,0,0,1,10,0Z" transform="translate(233.038 2344)" fill="#fdeff2"/>
    <path id="合体_56" data-name="合体 56" d="M3071.038-1552v-54a10,10,0,0,1,10-10h101a10,10,0,0,1,10,10v54l-60.5,16Z" transform="translate(-2838 3960)" fill="#818181"/>
    <path id="パス_9105" data-name="パス 9105" d="M-11.193-10.374h-1.5c.026.13.065.533.1.949.013.156.013.377.026.663-1.859.026-4.277.091-5.746.117l.039,1.248c1.612-.1,3.744-.182,5.72-.208,0,.377.013.767.013,1.105a2.6,2.6,0,0,0-.728-.091,2.348,2.348,0,0,0-2.418,2.34,2.171,2.171,0,0,0,2.184,2.262,2.036,2.036,0,0,0,.91-.2A5,5,0,0,1-15.938-.273l1.1,1.092c3.081-.9,4-2.938,4-4.667a3.2,3.2,0,0,0-.455-1.729c0-.585,0-1.339-.013-2.041,1.885,0,3.12.026,3.887.065l.026-1.222h-3.9c0-.26,0-.494.013-.65A7.575,7.575,0,0,1-11.193-10.374Zm-3.263,6.1A1.171,1.171,0,0,1-13.273-5.5a1.072,1.072,0,0,1,1.014.624c.169,1.222-.338,1.755-1.014,1.755A1.141,1.141,0,0,1-14.456-4.277ZM1.9-7.449,1.053-7.1c.338.507.806,1.4,1.079,1.937l.884-.377C2.756-6.019,2.236-6.968,1.9-7.449Zm1.547-.6-.858.364A19.645,19.645,0,0,1,3.7-5.785l.871-.377C4.3-6.656,3.783-7.579,3.445-8.047ZM2.639-9.49,1.43-10.569a7.807,7.807,0,0,1-.858.975C-.312-8.723-2.2-7.215-3.185-6.383c-1.235,1.027-1.365,1.651-.1,2.7C-2.093-2.665-.143-1,.715-.117c.338.338.689.7,1,1.053L2.886-.143C1.534-1.5-.832-3.38-1.924-4.29c-.78-.663-.78-.832-.039-1.469.923-.78,2.73-2.2,3.588-2.925C1.885-8.892,2.3-9.243,2.639-9.49Zm9.737.572.013,1.326a33.132,33.132,0,0,0,5.447,0V-8.918A23.956,23.956,0,0,1,12.376-8.918Zm.741,5.408-1.17-.1a6.584,6.584,0,0,0-.221,1.6C11.726-.754,12.74.013,14.95.013a17.836,17.836,0,0,0,3.289-.26l-.026-1.391a13.96,13.96,0,0,1-3.237.351c-1.573,0-2.028-.481-2.028-1.066A4.516,4.516,0,0,1,13.117-3.51Zm-3-6.344-1.443-.13a9.45,9.45,0,0,1-.117,1.079,37.515,37.515,0,0,0-.559,5.187,16.52,16.52,0,0,0,.481,4.2L9.659.4C9.646.247,9.633.052,9.633-.078a2.541,2.541,0,0,1,.065-.6c.13-.65.585-2.041.923-3.029l-.65-.52c-.208.481-.468,1.118-.689,1.651A12.827,12.827,0,0,1,9.2-3.965a31.177,31.177,0,0,1,.637-4.9A9.323,9.323,0,0,1,10.114-9.854ZM-29.2,17.394h-4.524v-.871H-29.2Zm0,1.729h-4.524v-.9H-29.2Zm0,1.716h-4.524v-.9H-29.2Zm-5.668-5.2v6.084H-28V15.639h-3.809c.052-.273.117-.585.169-.91H-26.6V13.611h-4.875c.052-.364.1-.741.143-1.105l-1.4-.065c-.013.351-.026.754-.065,1.17H-37.96v1.118h5.044c-.039.325-.078.624-.13.91Zm8.385,7.033H-36.14V16.016h-1.183V24.44h1.183v-.65h9.659Zm5.278-9.477-1.664-.013a7.523,7.523,0,0,1,.143,1.508c0,1.248-.13,4.6-.13,6.448,0,2.158,1.326,3,3.3,3a6.6,6.6,0,0,0,5.525-2.912L-14.95,20.1a5.327,5.327,0,0,1-4.576,2.678c-1.131,0-1.976-.468-1.976-1.846,0-1.794.091-4.8.156-6.24A11.857,11.857,0,0,1-21.2,13.195Zm9.035,1.43.143,1.43c1.443-.312,4.472-.624,5.785-.767a5.235,5.235,0,0,0-2.21,4.225c0,2.873,2.665,4.238,5.213,4.355l.481-1.378c-2.158-.091-4.368-.884-4.368-3.25a4.31,4.31,0,0,1,2.886-3.913,11.6,11.6,0,0,1,2.522-.195V13.819c-.9.039-2.2.117-3.588.234-2.392.195-4.706.416-5.655.507C-11.206,14.586-11.661,14.612-12.168,14.625ZM5.824,21.814c0-.507.52-.858,1.365-.858a3.959,3.959,0,0,1,1.092.156c.013.169.013.325.013.442,0,.663-.26,1.118-1.17,1.118C6.331,22.672,5.824,22.386,5.824,21.814ZM5.3,13.936v1.157c.962.039,1.937.052,2.86.026V17.03A30.526,30.526,0,0,1,5.1,16.965l.013,1.2c1.027.052,2.067.052,3.068.039.013.611.039,1.274.065,1.872a6.412,6.412,0,0,0-1.014-.078c-1.742,0-2.561.884-2.561,1.9,0,1.3,1.131,1.924,2.6,1.924,1.508,0,2.249-.689,2.249-1.781,0-.13,0-.273-.013-.429a8.578,8.578,0,0,1,1.989,1.534l.689-1.131a8.153,8.153,0,0,0-2.73-1.651c-.039-.676-.078-1.43-.1-2.21.871-.039,1.664-.1,2.327-.182V16.783c-.7.078-1.495.156-2.327.195V15.067c.767-.039,1.456-.091,2.041-.156V13.754A28.281,28.281,0,0,1,5.3,13.936Zm-2.041-.481-1.43-.117c-.013.325-.065.754-.1,1.066a39.747,39.747,0,0,0-.559,5.421,15.215,15.215,0,0,0,.507,4.134l1.17-.091c-.013-.156-.026-.351-.026-.481a2.473,2.473,0,0,1,.065-.6,29.1,29.1,0,0,1,.923-2.964l-.65-.533c-.208.494-.494,1.17-.676,1.7a10.546,10.546,0,0,1-.1-1.417A32.476,32.476,0,0,1,3,14.456,9.452,9.452,0,0,1,3.263,13.455Zm14.144-.26-1.664-.013a7.523,7.523,0,0,1,.143,1.508c0,1.248-.13,4.6-.13,6.448,0,2.158,1.326,3,3.3,3a6.6,6.6,0,0,0,5.525-2.912L23.66,20.1a5.327,5.327,0,0,1-4.576,2.678c-1.131,0-1.976-.468-1.976-1.846,0-1.794.091-4.8.156-6.24A11.857,11.857,0,0,1,17.407,13.195Zm11.5,1.04-1.586-.026a6.651,6.651,0,0,1,.1,1.222c0,.78.013,2.34.143,3.484.351,3.419,1.56,4.667,2.873,4.667.949,0,1.755-.767,2.574-2.99l-1.027-1.209c-.3,1.183-.871,2.6-1.521,2.6-.871,0-1.4-1.378-1.6-3.419a29.106,29.106,0,0,1-.091-2.925A10.641,10.641,0,0,1,28.912,14.235Zm6.656.325-1.287.429c1.313,1.56,2.054,4.446,2.275,6.682l1.339-.52A14.16,14.16,0,0,0,35.568,14.56Z" transform="translate(294.038 2375)" fill="#fff"/>
    <path id="パス_9106" data-name="パス 9106" d="M10.65-10.47H4.29v-.615h6.36Zm0,1.71H4.29v-.63h6.36Zm1.785-3.465H2.58V-7.62h9.855Zm-.855,8.49a6.281,6.281,0,0,1-1.02,1.47,5.807,5.807,0,0,1-1.005-1.47ZM3.63-1.95H5.58v.585c-.66.06-1.32.105-1.95.15Zm0-1.86H5.58v.63H3.63ZM5.58-5.655v.6H3.63v-.6Zm7.05.495-.3.06H7.665v1.365h1.38l-.99.27A9.187,9.187,0,0,0,9.42-1.245,7.7,7.7,0,0,1,7.29-.165v-5.49h6.87v-1.41H.825v1.41H2V-1.1c-.465.045-.915.06-1.3.09L.825.525C2.145.405,3.855.255,5.58.09V1.305H7.29V.09a6.631,6.631,0,0,1,.8,1.2,9.773,9.773,0,0,0,2.55-1.4,8.4,8.4,0,0,0,2.79,1.4,7.389,7.389,0,0,1,1.05-1.4,8.386,8.386,0,0,1-2.64-1.11,8.942,8.942,0,0,0,1.89-3.525Zm16.65-6.945H21.615v1.65H29.28Zm-2.2,6.18h-3.27V-7.74h3.27ZM28.815-9.3H22.17v4.935h6.645ZM27.3-.75c.36-.735.765-1.935,1.17-3.03l-1.755-.375A16.475,16.475,0,0,1,25.8-1.1ZM24.78-1.2a10.541,10.541,0,0,0-.75-2.865l-1.515.36A12.216,12.216,0,0,1,23.19-.8Zm-2.82-.96c-.33-.39-1.65-1.98-2.25-2.6.03-.2.045-.375.06-.57h1.965v-1.65h-1.86V-9.3h1.68v-1.605h-3.27c.12-.48.24-.975.33-1.47l-1.68-.315a11.778,11.778,0,0,1-1.6,4.53,9.227,9.227,0,0,1,1.515.825,12.054,12.054,0,0,0,.93-1.965h.405v2.325H15.63v1.65h2.46A7.942,7.942,0,0,1,15.51.045a6.138,6.138,0,0,1,1.23,1.26,8.533,8.533,0,0,0,2.565-4.2A24.6,24.6,0,0,1,20.82-.69ZM20.925-.63V1.02H29.49V-.63Zm17.1-9.51a9.707,9.707,0,0,1,1.56,1.77l1.245-.96a8.677,8.677,0,0,0-1.335-1.38H41.97V-6.9c0,.15-.06.195-.24.195a12.118,12.118,0,0,1-1.245-.015,5.246,5.246,0,0,1,.45,1.53,5.148,5.148,0,0,0,2.055-.255c.495-.27.615-.69.615-1.425v-5.31H37.68v1.47h1.17ZM41.28-8.805c-1.455.555-2.97,1.125-3.96,1.44l.795,1.485c1.035-.48,2.3-1.065,3.465-1.65Zm-1.56,5.7A14.2,14.2,0,0,1,38.73-.72l.78.2H35.58l.675-.2a9.708,9.708,0,0,0-.84-2.385Zm.765,2.58c.36-.63.78-1.515,1.2-2.355l-1.02-.225h2.61v-1.53h-4.92V-5.88H36.66a2.067,2.067,0,0,0,.165-.99v-5.31H31.02v1.47h1.47l-.96.63A7.711,7.711,0,0,1,33-8.3l1.245-.9A7.55,7.55,0,0,0,32.9-10.71H35.19v3.825c0,.135-.045.18-.225.18A12.7,12.7,0,0,1,33.69-6.72a5.75,5.75,0,0,1,.45,1.53,4.967,4.967,0,0,0,2.07-.255,1.033,1.033,0,0,0,.405-.345v1.155H31.86v1.53h2.97l-1.14.3a11.259,11.259,0,0,1,.75,2.28H30.7V1.02H44.34V-.525ZM34.575-8.64c-1.455.54-2.97,1.1-3.96,1.41l.72,1.47c1.05-.465,2.325-1.035,3.525-1.605Zm14.6,6.99V-5.01h6.66v3.36Zm6.66-8.355V-6.78H49.17v-3.225Zm-8.505-1.8V1.125H49.17V.15h6.66V1.1h1.92v-12.9ZM63.36-12.69a12.533,12.533,0,0,1-2.94,2.97,13.649,13.649,0,0,1,.93,1.3,18.441,18.441,0,0,0,3.585-3.66ZM71.145-2.625a6.007,6.007,0,0,1-1.4,1.065,6.147,6.147,0,0,1-1.365-1.065ZM68-6.36H71.76v.66H68Zm0-1.695H71.76v.645H68Zm4.5,4.17-.3.06h-3.12c.2-.255.36-.51.525-.765h3.81V-9.165H67.02c.15-.225.3-.465.435-.705H74.25v-1.44H68.19a9.021,9.021,0,0,0,.39-.99l-1.74-.4A9.009,9.009,0,0,1,64.71-9.09l-1.08-.4A12.8,12.8,0,0,1,60.285-5.64a10.835,10.835,0,0,1,.93,1.665,13.281,13.281,0,0,0,1.17-1.11v6.42H64.05V-7.1c.33-.465.645-.945.915-1.41a11.454,11.454,0,0,1,.975.69c.15-.165.315-.345.465-.525v3.75H67.74a8.5,8.5,0,0,1-3.045,2.475A12.628,12.628,0,0,1,65.925-1a9.348,9.348,0,0,0,1.245-.87,7.086,7.086,0,0,0,1.02.99,15.451,15.451,0,0,1-3.51.75,5.318,5.318,0,0,1,.765,1.44,16.4,16.4,0,0,0,4.29-1.2,12.432,12.432,0,0,0,3.945,1.17,5.807,5.807,0,0,1,1-1.47A14.8,14.8,0,0,1,71.4-.855a6.761,6.761,0,0,0,2.16-2.52ZM76.41,1.32H78.3V-12.165H76.41Zm5.52-2.79v-3.6H86.7v3.6Zm4.77-8.61v3.375H81.93V-10.08Zm-6.6-1.665V1.305h1.83V.2H86.7v.99h1.905v-12.93Z" transform="translate(249.038 2535)" fill="#363636"/>
    <g id="グループ_4299" data-name="グループ 4299" transform="translate(-165.022 67.861)">
      <path id="パス_8569" data-name="パス 8569" d="M324.522,223.568v4.183h2.951v-4.18c-.477.038-.952.071-1.437.071-.51,0-1.013-.033-1.514-.075" transform="translate(132.552 2191.703)" fill="#e66084"/>
      <path id="パス_8570" data-name="パス 8570" d="M327.473,204.1v-4.183h-2.951v4.185c.5-.04,1-.077,1.514-.077.485,0,.962.037,1.437.075" transform="translate(132.552 2182.093)" fill="#e66084"/>
      <path id="パス_8571" data-name="パス 8571" d="M329.8,220.854a3.064,3.064,0,0,0-1.742-2.758l-1.512-14.74-1.255,14.794a3.069,3.069,0,1,0,4.509,2.7" transform="translate(131.893 2182.672)" fill="#e66084"/>
      <path id="パス_8572" data-name="パス 8572" d="M358.522,212.088a26.754,26.754,0,0,0-14.129-14.212l-.351-.151-1.533,3.6.353.15a22.51,22.51,0,0,1,7.2,4.883,22.847,22.847,0,0,1-7.2,37.124,22.607,22.607,0,0,1-17.62,0,22.847,22.847,0,0,1,0-42.008,22.337,22.337,0,0,1,5.691-1.561v2.675l9.576-4.706-9.576-4.7v2.785a26.351,26.351,0,0,0-15.661,7.64,26.752,26.752,0,0,0,8.442,43.472,26.448,26.448,0,0,0,29.118-5.724,26.838,26.838,0,0,0,5.69-29.263" transform="translate(124.563 2178.961)" fill="#e66084"/>
      <path id="パス_8573" data-name="パス 8573" d="M322.019,222.836c-.472-.233-.929-.48-1.378-.75l-1.7,2.953,1.355.785Z" transform="translate(129.924 2192.447)" fill="#e66084"/>
      <path id="パス_8574" data-name="パス 8574" d="M334.348,202.008l-1.357-.785-2.419,4.187c.458.256.908.522,1.34.814Z" transform="translate(135.303 2182.668)" fill="#e66084"/>
      <path id="パス_8575" data-name="パス 8575" d="M334.018,225.534l-2.144-3.713q-.65.433-1.34.813l2.128,3.685Z" transform="translate(135.317 2192.226)" fill="#e66084"/>
      <path id="パス_8576" data-name="パス 8576" d="M334.6,218.9l3.99,2.3.786-1.357-4.046-2.335c-.226.475-.468.938-.731,1.39" transform="translate(137.048 2190.316)" fill="#e66084"/>
      <path id="パス_8577" data-name="パス 8577" d="M320.088,201.394l-1.357.785,1.994,3.456c.447-.27.9-.524,1.375-.757Z" transform="translate(129.813 2182.776)" fill="#e66084"/>
      <path id="パス_8578" data-name="パス 8578" d="M315.118,205.825l-.785,1.359,3.15,1.818c.261-.456.536-.9.833-1.331Z" transform="translate(127.738 2184.892)" fill="#e66084"/>
      <path id="パス_8579" data-name="パス 8579" d="M334.428,208.266c.277.444.539.9.778,1.361l3.94-2.273L338.361,206Z" transform="translate(136.976 2184.948)" fill="#e66084"/>
      <path id="パス_8580" data-name="パス 8580" d="M340.236,212.1h-4.223c.04.491.077.98.077,1.479s-.036.987-.077,1.475h4.223Z" transform="translate(136.421 2187.852)" fill="#e66084"/>
      <path id="パス_8581" data-name="パス 8581" d="M318.148,219.3c-.284-.438-.555-.884-.8-1.347l-3.219,1.857.787,1.361Z" transform="translate(127.641 2190.577)" fill="#e66084"/>
      <path id="パス_8582" data-name="パス 8582" d="M312.389,212.1v2.955h4.143c-.04-.489-.075-.976-.075-1.475s.035-.988.075-1.479Z" transform="translate(128.183 2187.852)" fill="#e66084"/>
    </g>
  </g>
</svg>
