<svg xmlns="http://www.w3.org/2000/svg" width="122" height="224" viewBox="0 0 122 224">
  <g id="グループ_4451" data-name="グループ 4451" transform="translate(-233 -2344)">
    <path id="パス_9101" data-name="パス 9101" d="M10,0H112a10,10,0,0,1,10,10V214a10,10,0,0,1-10,10H10A10,10,0,0,1,0,214V10A10,10,0,0,1,10,0Z" transform="translate(233 2344)" fill="#fdeff2"/>
    <path id="合体_55" data-name="合体 55" d="M2940-1318v-54a10,10,0,0,1,10-10h102a10,10,0,0,1,10,10v54l-61,16Z" transform="translate(-2707 3726)" fill="#818181"/>
    <path id="パス_9102" data-name="パス 9102" d="M-34.658-9.5l-1.508-.533a9.151,9.151,0,0,1-.286,1.066,14.381,14.381,0,0,1-1.625,3.354c-1.04-.793-2.483-1.794-3.575-2.483l-.858,1.04A36.915,36.915,0,0,1-38.922-4.5,14.129,14.129,0,0,1-43.979-.52L-42.835.507a16.23,16.23,0,0,0,4.979-4.121,29,29,0,0,1,2.99,2.938l1.04-1.144A31.841,31.841,0,0,0-37-4.758,18.641,18.641,0,0,0-35.126-8.45,9.589,9.589,0,0,1-34.658-9.5Zm5.317-.182-.949,1.014a28.2,28.2,0,0,1,3.25,2.756l1.027-1.053A27.279,27.279,0,0,0-29.341-9.685Zm-1.339,8.7.871,1.339A14.333,14.333,0,0,0-24.83-1.586a13.292,13.292,0,0,0,4.563-4.706l-.793-1.417a12.377,12.377,0,0,1-4.511,4.9A13.508,13.508,0,0,1-30.68-.988Zm14.027-8.788v1.339c.364-.026.845-.039,1.274-.039h5.239c.4,0,.884.013,1.3.039V-9.776a11.116,11.116,0,0,1-1.3.091h-5.252A9.923,9.923,0,0,1-16.653-9.776Zm-1.534,3.3v1.339c.351-.026.793-.039,1.183-.039h3.757a6.058,6.058,0,0,1-.78,3.081A5.577,5.577,0,0,1-16.432-.156l1.2.871A6.249,6.249,0,0,0-12.649-1.7a8.086,8.086,0,0,0,.806-3.471H-8.5c.338,0,.793.013,1.092.039V-6.474c-.325.039-.819.065-1.092.065H-17A11.391,11.391,0,0,1-18.187-6.474ZM-.221-8.762v1.6H-3.848a11.486,11.486,0,0,1-1.313-.078v1.43a12.72,12.72,0,0,1,1.339-.052h3.6A5.7,5.7,0,0,1-3.744-.351L-2.47.6A6.928,6.928,0,0,0,1.183-5.863H4.394c.455,0,1.027.013,1.261.039v-1.4a9.547,9.547,0,0,1-1.248.065H1.183v-1.6a11.944,11.944,0,0,1,.091-1.4H-.364A6.754,6.754,0,0,1-.221-8.762Zm9.88-.923L8.71-8.671a28.2,28.2,0,0,1,3.25,2.756l1.027-1.053A27.279,27.279,0,0,0,9.659-9.685ZM8.32-.988,9.191.351A14.333,14.333,0,0,0,14.17-1.586a13.292,13.292,0,0,0,4.563-4.706L17.94-7.709a12.377,12.377,0,0,1-4.511,4.9A13.508,13.508,0,0,1,8.32-.988ZM29.965-8.749l-.845-.624a3.943,3.943,0,0,1-1.131.13H23.166a13.909,13.909,0,0,1-1.417-.091v1.469c.208-.013.91-.078,1.417-.078h4.771A10.7,10.7,0,0,1,25.87-4.511,14.607,14.607,0,0,1,20.527-.7L21.58.4a17.066,17.066,0,0,0,5.005-3.744A29.175,29.175,0,0,1,30.03.455L31.174-.559a34.554,34.554,0,0,0-3.718-3.809,17.793,17.793,0,0,0,2.132-3.705A4.487,4.487,0,0,1,29.965-8.749Zm8.541-1.6-1.352-.1a6.474,6.474,0,0,1-.3,1.547c-.26.013-.52.013-.767.013a16.8,16.8,0,0,1-2.236-.143v1.222c.728.052,1.625.078,2.171.078H36.4a13.062,13.062,0,0,1-2.938,3.8l1.118.832A14.139,14.139,0,0,1,35.763-4.5a3.313,3.313,0,0,1,2.158-.936,1.046,1.046,0,0,1,1.066.65C37.479-4.017,35.919-3,35.919-1.4S37.427.663,39.364.663A33.1,33.1,0,0,0,42.978.429l.039-1.313A22.137,22.137,0,0,1,39.4-.546c-1.313,0-2.158-.182-2.158-1.066,0-.767.7-1.365,1.82-1.976-.013.637-.026,1.378-.052,1.833h1.235c-.013-.624-.026-1.664-.039-2.405.91-.416,1.755-.754,2.418-1.014.39-.156.949-.364,1.326-.481l-.533-1.2c-.416.208-.793.377-1.235.572-.611.286-1.274.559-2.08.936a1.711,1.711,0,0,0-1.742-1.105,3.818,3.818,0,0,0-1.664.39,10.432,10.432,0,0,0,1-1.716,40.167,40.167,0,0,0,4.277-.338V-9.321a29.971,29.971,0,0,1-3.822.377C38.324-9.5,38.428-9.984,38.506-10.348Zm-72.02,23.283h-1.43a8.453,8.453,0,0,1,.078,1.027c0,.234-.013.7-.013,1.287q-.488.039-.9.039a13.134,13.134,0,0,1-1.729-.1l.039,1.248c.429.039.923.065,1.716.065q.37,0,.858-.039c-.013.494-.013.988-.013,1.443v.806c-1.534.663-2.873,1.82-2.873,2.925,0,1.248,1.729,2.288,2.86,2.288.767,0,1.274-.4,1.274-1.781,0-.52-.039-1.612-.052-2.691a8.8,8.8,0,0,1,2.665-.429c1.183,0,2.08.559,2.08,1.56,0,1.092-.949,1.664-2.041,1.872a6.856,6.856,0,0,1-1.56.091l.468,1.326a10.1,10.1,0,0,0,1.651-.195c1.911-.455,2.808-1.534,2.808-3.081,0-1.664-1.456-2.7-3.393-2.7a10.155,10.155,0,0,0-2.7.416v-.455c0-.468.013-.988.026-1.508.9-.1,1.859-.26,2.613-.429l-.026-1.274a16.294,16.294,0,0,1-2.561.494c.026-.468.039-.884.052-1.2S-33.553,13.182-33.514,12.935Zm3.887,1.43-.572.988a18.83,18.83,0,0,1,3,1.924l.637-1.04A23.281,23.281,0,0,0-29.627,14.365Zm-6.877,7.2c0-.52.676-1.183,1.625-1.651.013.845.039,1.6.039,2.015s-.182.6-.442.6C-35.724,22.529-36.5,22.087-36.5,21.567Zm21.489-4.407H-17.68V16.081h2.665Zm0,1.937H-17.68V18.018h2.665Zm0,1.95H-17.68V19.955h2.665Zm-3.692-5.863v6.773h4.758V15.184h-2.132c.091-.338.195-.728.286-1.1h2.171V13.052H-19.11v1.027h2.132c-.052.364-.117.754-.169,1.1Zm-4.433,5.343a7.684,7.684,0,0,1-.832,2.418,3.725,3.725,0,0,1,.845.442,8.865,8.865,0,0,0,.91-2.678ZM-22.308,18h1.937v1.079h-1.937Zm0-1.872h1.937v1.053h-1.937Zm2.925,3.809V15.275h-1.664l.338-1.183h1.352v-1.04h-5.512V17.9a15.289,15.289,0,0,1-.767,5.707,3.492,3.492,0,0,1,.871.637,16.934,16.934,0,0,0,.936-6.357v-3.8h1.95c-.052.377-.117.806-.182,1.183h-1.183v4.667h1.417v3.393c0,.117-.039.156-.156.169s-.494,0-.923-.013a3.135,3.135,0,0,1,.325.923,3.221,3.221,0,0,0,1.365-.169c.312-.156.377-.429.377-.884V19.942Zm.442,2.6a13.111,13.111,0,0,0-.793-2.054l-.78.286A12.224,12.224,0,0,1-19.8,22.88Zm1.261-.4a6.928,6.928,0,0,1-2.171,1.547,6.7,6.7,0,0,1,.741.754A8.364,8.364,0,0,0-16.7,22.724Zm1.664.572a14.021,14.021,0,0,1,1.768,1.716l.91-.637a15.327,15.327,0,0,0-1.807-1.638Zm6.123-8.476-1.586-.026a6.651,6.651,0,0,1,.1,1.222c0,.78.013,2.34.143,3.484.351,3.419,1.56,4.667,2.873,4.667.949,0,1.755-.767,2.574-2.99l-1.027-1.209c-.3,1.183-.871,2.6-1.521,2.6-.871,0-1.4-1.378-1.6-3.419a29.106,29.106,0,0,1-.091-2.925A10.641,10.641,0,0,1-9.893,14.235Zm6.656.325-1.287.429c1.313,1.56,2.054,4.446,2.275,6.682l1.339-.52A14.16,14.16,0,0,0-3.237,14.56ZM4.6,13.195l-1.664-.013a7.523,7.523,0,0,1,.143,1.508c0,1.248-.13,4.6-.13,6.448,0,2.158,1.326,3,3.3,3a6.6,6.6,0,0,0,5.525-2.912L10.855,20.1a5.327,5.327,0,0,1-4.576,2.678c-1.131,0-1.976-.468-1.976-1.846,0-1.794.091-4.8.156-6.24A11.857,11.857,0,0,1,4.6,13.195ZM20.41,20.267,19.2,20.15a7.64,7.64,0,0,0-.221,1.625c0,1.287,1.144,1.976,3.263,1.976a20.073,20.073,0,0,0,2.574-.182l.039-1.313a14.691,14.691,0,0,1-2.6.26c-1.664,0-2.015-.533-2.015-1.118A4.773,4.773,0,0,1,20.41,20.267ZM18.928,13.1l-1.56-.117a5.318,5.318,0,0,1-.052,1.17c-.026.247-.091.585-.156.975-.455.039-.9.052-1.3.052a12.25,12.25,0,0,1-1.586-.1l.026,1.274c.468.039.949.052,1.547.052.325,0,.676-.013,1.053-.026-.1.429-.208.858-.312,1.261a30.068,30.068,0,0,1-2.21,5.824l1.417.481a39.271,39.271,0,0,0,2.054-5.98c.143-.546.286-1.144.416-1.7a23.294,23.294,0,0,0,2.613-.442V14.534a22.811,22.811,0,0,1-2.353.455c.065-.286.117-.546.156-.767C18.733,13.962,18.85,13.429,18.928,13.1Zm1.027,3.952v1.209a21.878,21.878,0,0,1,2.457-.143,16.428,16.428,0,0,1,2.21.169l.039-1.248a22.034,22.034,0,0,0-2.275-.1C21.554,16.939,20.657,16.991,19.955,17.056Zm9.152-2.821-1.586-.026a6.651,6.651,0,0,1,.1,1.222c0,.78.013,2.34.143,3.484.351,3.419,1.56,4.667,2.873,4.667.949,0,1.755-.767,2.574-2.99l-1.027-1.209c-.3,1.183-.871,2.6-1.521,2.6-.871,0-1.4-1.378-1.6-3.419a29.106,29.106,0,0,1-.091-2.925A10.641,10.641,0,0,1,29.107,14.235Zm6.656.325-1.287.429c1.313,1.56,2.054,4.446,2.275,6.682l1.339-.52A14.16,14.16,0,0,0,35.763,14.56Z" transform="translate(294 2375)" fill="#fff"/>
    <path id="パス_9103" data-name="パス 9103" d="M-42.15-9.495h9.225V-7.44h1.845v-3.75h-5.49v-1.5h-1.89v1.5H-43.9v3.75h1.755Zm5.565,6.54h4.125v-1.68h-4.125V-6.51h3.21v-1.7h-8.25v1.7h3.195v5.3A4.038,4.038,0,0,1-40.47-3.57c.135-.6.24-1.23.33-1.905L-42-5.655C-42.27-3.09-43.005-1.02-44.625.18a10.923,10.923,0,0,1,1.47,1.215A7.518,7.518,0,0,0-41.16-1.44c1.38,2.13,3.435,2.58,6.195,2.58h3.75a6.67,6.67,0,0,1,.63-1.815c-1.005.045-3.48.045-4.29.045a15.5,15.5,0,0,1-1.71-.09ZM-26.55-4.83h1.86v1.02h-1.86Zm1.86-4.545v.87h-1.86v-.87ZM-26.55-7.14h1.86V-6.2h-1.86Zm4.41,3.33h-.915V-9.375h1.02v-1.56h-1.02v-1.59H-24.69v1.59h-1.86v-1.59h-1.605v1.59h-1.17v1.56h1.17V-3.81H-29.5v1.56h7.365Zm-5.505,1.665a6.94,6.94,0,0,1-1.98,2.43A10.069,10.069,0,0,1-28.2,1.35a10.552,10.552,0,0,0,2.22-3Zm7.77-3.105c.015-.465.015-.9.015-1.29V-7.1h2.16V-5.25Zm2.175-5.175V-8.67h-2.16v-1.755Zm1.725-1.62h-5.55v5.5A15.974,15.974,0,0,1-22.47-.18a16.342,16.342,0,0,0-1.62-2.04l-1.35.735A14.914,14.914,0,0,1-23.835.78L-22.59.075c-.045.09-.1.165-.15.255a5.153,5.153,0,0,1,1.41,1.005,12.311,12.311,0,0,0,1.35-5h2.28V-.705c0,.24-.075.315-.3.315-.21,0-.93.015-1.575-.03a6.463,6.463,0,0,1,.51,1.695,5.155,5.155,0,0,0,2.4-.315c.525-.285.69-.75.69-1.635Zm11.88,7.3H-10.98V-6.645h6.885ZM-2.28-8.3H-6.66V-9.72h5.37v-1.665H-6.66v-1.32H-8.475V-8.3h-4.2v5.2h10.4Zm-10.605,9.54a9.579,9.579,0,0,0,1.95-3.3l-1.725-.42A8.26,8.26,0,0,1-14.535.45Zm2.685-3.2A21.471,21.471,0,0,1-9.9,1.2L-8.085.975a20.1,20.1,0,0,0-.42-3.09Zm3.06.015a18.587,18.587,0,0,1,1.05,3.06l1.725-.45A16.281,16.281,0,0,0-5.505-2.3Zm3.045-.09A16.587,16.587,0,0,1-2.25,1.2L-.525.54A17.529,17.529,0,0,0-2.49-2.6ZM7.62-4.065v-1.41H9.105v.9c0,.165,0,.345-.015.51Zm4.68-1.41v1.41H10.7c.015-.15.015-.315.015-.465v-.945ZM8.16-9.27A9.585,9.585,0,0,0,9.9-11.16a10.154,10.154,0,0,0,1.815,1.89ZM13.905-2.7V-6.84H10.71V-7.8h1.98v-.735a12.1,12.1,0,0,0,1.185.69,10.117,10.117,0,0,1,.915-1.56,9.491,9.491,0,0,1-4.125-3.285H9.045a9.3,9.3,0,0,1-3.48,3.165v-.1H4.2v-3.075H2.55V-9.63H.72v1.65H2.445A14.814,14.814,0,0,1,.375-2.94a8.809,8.809,0,0,1,.81,1.59A12,12,0,0,0,2.55-4.23V1.29H4.2V-5.085c.315.63.615,1.275.78,1.71l.9-1.38C5.655-5.13,4.605-6.735,4.2-7.26v-.72H5.565V-8.7A6.7,6.7,0,0,1,6-7.83a9.507,9.507,0,0,0,1.23-.735V-7.8H9.105v.96H6.075V-2.7H8.82C8.4-1.635,7.4-.66,5.1.06a6.832,6.832,0,0,1,.945,1.32A6.407,6.407,0,0,0,10.08-1.59a6.347,6.347,0,0,0,3.585,2.955A4.241,4.241,0,0,1,14.685-.12,5.227,5.227,0,0,1,11.25-2.7Zm4.875-9.945a15.6,15.6,0,0,1-3.42,5.61,12.189,12.189,0,0,1,.99,1.905c.3-.33.615-.705.93-1.08v7.5h1.8V-8.985a23.366,23.366,0,0,0,1.44-3.12Zm10.755,4.08V-10.26h-5.82a17.728,17.728,0,0,0,.735-1.86l-1.725-.435A14.891,14.891,0,0,1,19.545-6.9,12.132,12.132,0,0,1,20.91-5.655a16.656,16.656,0,0,0,1.965-2.91h.57v9.87h1.83v-3.33h4.08v-1.65h-4.08v-1.7H29.16V-6.99H25.275V-8.565Zm9.81-.24c-.165.405-.345.84-.525,1.2H36.015l.255-.045a8.058,8.058,0,0,0-.51-1.155Zm4.845,6.69v-1.47H38.355v-.66h4.5v-1.29h-4.5V-6.21H43.56V-7.605H40.62c.225-.36.465-.765.705-1.2h2.82V-10.26h-1.95c.345-.525.75-1.2,1.17-1.89L41.49-12.6a12.083,12.083,0,0,1-.945,2.175l.54.165H39.75v-2.445H38.07v2.445H36.96v-2.445H35.295v2.445H33.93l.735-.27a11.35,11.35,0,0,0-1.14-2.115L32-12.12a13.445,13.445,0,0,1,.93,1.86h-2.01v1.455H34.05l-.18.03a6.74,6.74,0,0,1,.51,1.17H31.53V-6.21H36.6v.675H32.28v1.29H36.6v.66H30.87v1.47h4.3A15.759,15.759,0,0,1,30.435-.36a8.32,8.32,0,0,1,1.14,1.485A14.229,14.229,0,0,0,36.6-1.305v2.61h1.755v-2.7A12.8,12.8,0,0,0,43.4,1.14,8.391,8.391,0,0,1,44.6-.48,13.4,13.4,0,0,1,39.84-2.115Z" transform="translate(294 2535)" fill="#363636"/>
    <g id="グループ_4365" data-name="グループ 4365" transform="translate(-269.618 -236)">
      <path id="パス_8567" data-name="パス 8567" d="M216.728,216.817c-4.589-.348-7.116-.68-8.326,3.8l-4.337-1.049a9.883,9.883,0,0,0-.8-8.126,9.546,9.546,0,0,0-4.594-4.069,9.705,9.705,0,0,0-11.819,14.4c2.655,3.894,6.962,5.068,12.222,3.351l1.18,3.668c-3.881.84-4.954,3.877-3.421,9.359-1.272,0-2.522.057-3.763-.017a1.862,1.862,0,0,1-1.848-1.835c-.015-.128-.014-.259-.023-.389-.258-3.629-.264-3.614-3.525-4.978a2.033,2.033,0,0,0-2.3.306c-.695.588-1.376,1.194-2.085,1.767a1.857,1.857,0,0,1-2.693-.092q-1.23-1.162-2.389-2.4a1.817,1.817,0,0,1-.1-2.589,16.531,16.531,0,0,0,1.8-2.215,6.3,6.3,0,0,0,.332-2.153c.008-.074-.087-.152-.1-.235-.532-2.658-2.273-3.481-4.812-3.391-1.682.06-2.307-.725-2.329-2.421-.012-.868-.02-1.737,0-2.605a2,2,0,0,1,2.1-2.267c.13-.012.261-.012.39-.024,4.167-.369,3.19-.089,4.808-3.888a2.536,2.536,0,0,0-.4-1.886,18.079,18.079,0,0,0-1.732-2.108,1.862,1.862,0,0,1,.065-2.7q1.149-1.239,2.394-2.391a1.875,1.875,0,0,1,2.6-.13,2.792,2.792,0,0,1,.6.5c1.723,2.27,3.787,2.071,5.907.725a3.178,3.178,0,0,0,1.211-1.661,15.119,15.119,0,0,0,.279-2.711,1.9,1.9,0,0,1,2.026-1.925c1.084-.036,2.171-.038,3.255,0a1.9,1.9,0,0,1,2.011,1.936c.018.173.015.348.03.52.374,4.191.1,3.2,3.879,4.815a2.542,2.542,0,0,0,1.892-.39,18.96,18.96,0,0,0,2.106-1.734,1.872,1.872,0,0,1,2.7.06c.826.767,1.622,1.571,2.394,2.393a1.866,1.866,0,0,1,.136,2.6,2.719,2.719,0,0,1-.5.6c-2.273,1.72-2.064,3.795-.727,5.905a3.543,3.543,0,0,0,1.785,1.236,9.62,9.62,0,0,0,2.32.249c1.566.128,2.169.748,2.206,2.293.014.6,0,1.2,0,1.883" transform="translate(362.635 2479.572)" fill="#e66084"/>
      <path id="パス_8568" data-name="パス 8568" d="M196.374,214.018c.753.559,1.291.907,1.771,1.324.715.621,1.349,1.154,2.439.669,1.132-.5,2.108-.909,2.142-2.431.018-.751.331-2,.772-2.136a7.319,7.319,0,0,1,3.445-.037c.374.075.761,1.125.775,1.737a2.584,2.584,0,0,0,1.87,2.773,2.415,2.415,0,0,0,2.716-.517c.582-.479,1.692-1.119,2.069-.883a9.015,9.015,0,0,1,2.465,2.612c.17.252-.32,1.128-.691,1.555-1.6,1.839-1.32,1.731-.29,3.955.234.507,1.29.637,1.976.918s1.888.425,1.974.826a9.57,9.57,0,0,1-.052,3.587c-.053.306-.992.6-1.546.647-2.151.207-2.732.569-3.057,2.662-.093.6.491,1.3.762,1.951.3.721,1.051,1.731.813,2.107a8.58,8.58,0,0,1-2.606,2.456c-.272.178-1.156-.4-1.637-.791-1.469-1.181-2.7-1.314-4.048-.073a3.425,3.425,0,0,0-.641,1.9c-.125.823.035,1.929-.969,2.075a10.037,10.037,0,0,1-3.565-.249c-.286-.064-.46-1.05-.524-1.63-.213-1.939-.922-2.838-2.787-2.961-.582-.038-1.2.554-1.809.825-.709.314-1.728,1.041-2.1.8a8.16,8.16,0,0,1-2.389-2.658c-.181-.306.418-1.3.884-1.729,1.154-1.062.849-2.092.349-3.325-.465-1.151-1.315-1.261-2.309-1.317-1.962-.112-2.149-.321-2.152-2.284,0-.307.021-.618,0-.924-.1-1.29.5-1.908,1.766-1.853a2.67,2.67,0,0,0,2.972-1.954c.516-1.349-.146-2.015-.79-2.919-.387-.543-.861-1.553-.627-1.914a19.67,19.67,0,0,1,2.632-2.785M211.8,225.985a6.625,6.625,0,0,0-6.687-6.524,6.636,6.636,0,0,0,.24,13.269,6.588,6.588,0,0,0,6.447-6.745" transform="translate(372.333 2489.031)" fill="#e66084"/>
    </g>
  </g>
</svg>
