<svg xmlns="http://www.w3.org/2000/svg" width="210" height="262" viewBox="0 0 210 262">
  <g id="グループ_4369" data-name="グループ 4369" transform="translate(-693 -2570)">
    <path id="パス_9052" data-name="パス 9052" d="M10,0H200a10,10,0,0,1,10,10V252a10,10,0,0,1-10,10H10A10,10,0,0,1,0,252V10A10,10,0,0,1,10,0Z" transform="translate(693 2570)" fill="#fdeff2"/>
    <path id="合体_64" data-name="合体 64" d="M5290,82V20a10,10,0,0,1,10-10h190a10,10,0,0,1,10,10V82L5395,98Z" transform="translate(-4597 2560)" fill="#818181"/>
    <path id="パス_9053" data-name="パス 9053" d="M-57.69-11.97h-1.725c.03.15.075.615.12,1.1.015.18.015.435.03.765-2.145.03-4.935.1-6.63.135l.045,1.44c1.86-.12,4.32-.21,6.6-.24,0,.435.015.885.015,1.275a3,3,0,0,0-.84-.105,2.709,2.709,0,0,0-2.79,2.7,2.505,2.505,0,0,0,2.52,2.61A2.35,2.35,0,0,0-59.3-2.52a5.763,5.763,0,0,1-3.87,2.205L-61.89.945c3.555-1.035,4.62-3.39,4.62-5.385a3.694,3.694,0,0,0-.525-2c0-.675,0-1.545-.015-2.355,2.175,0,3.6.03,4.485.075l.03-1.41h-4.5c0-.3,0-.57.015-.75A8.741,8.741,0,0,1-57.69-11.97Zm-3.765,7.035a1.352,1.352,0,0,1,1.365-1.41,1.237,1.237,0,0,1,1.17.72c.2,1.41-.39,2.025-1.17,2.025A1.316,1.316,0,0,1-61.455-4.935Zm18.87-3.66-.975.4c.39.585.93,1.62,1.245,2.235l1.02-.435C-41.6-6.945-42.195-8.04-42.585-8.6Zm1.785-.69-.99.42a22.668,22.668,0,0,1,1.29,2.19l1-.435C-39.81-7.68-40.41-8.745-40.8-9.285Zm-.93-1.665L-43.125-12.2a9.008,9.008,0,0,1-.99,1.125c-1.02,1.005-3.195,2.745-4.335,3.705-1.425,1.185-1.575,1.9-.12,3.12,1.38,1.17,3.63,3.09,4.62,4.11.39.39.8.81,1.155,1.215l1.35-1.245C-43.005-1.725-45.735-3.9-47-4.95c-.9-.765-.9-.96-.045-1.7,1.065-.9,3.15-2.535,4.14-3.375C-42.6-10.26-42.12-10.665-41.73-10.95Zm11.235.66.015,1.53a38.229,38.229,0,0,0,6.285,0v-1.53A27.642,27.642,0,0,1-30.5-10.29Zm.855,6.24-1.35-.12a7.6,7.6,0,0,0-.255,1.845c0,1.455,1.17,2.34,3.72,2.34a20.58,20.58,0,0,0,3.8-.3l-.03-1.6a16.108,16.108,0,0,1-3.735.4c-1.815,0-2.34-.555-2.34-1.23A5.211,5.211,0,0,1-29.64-4.05ZM-33.1-11.37l-1.665-.15a10.9,10.9,0,0,1-.135,1.245A43.287,43.287,0,0,0-35.55-4.29,19.061,19.061,0,0,0-35,.555l1.365-.09c-.015-.18-.03-.405-.03-.555a2.932,2.932,0,0,1,.075-.69c.15-.75.675-2.355,1.065-3.5l-.75-.6c-.24.555-.54,1.29-.8,1.905a14.8,14.8,0,0,1-.09-1.605,35.973,35.973,0,0,1,.735-5.655A10.758,10.758,0,0,1-33.1-11.37ZM-11.19-6.93h-5.22V-7.935h5.22Zm0,1.995h-5.22V-5.97h5.22Zm0,1.98h-5.22V-3.99h5.22Zm-6.54-6v7.02h7.92v-7.02h-4.395c.06-.315.135-.675.195-1.05h5.82V-11.3h-5.625c.06-.42.12-.855.165-1.275l-1.62-.075c-.015.4-.03.87-.075,1.35H-21.3v1.29h5.82c-.045.375-.09.72-.15,1.05ZM-8.055-.84H-19.2V-8.52h-1.365V1.2H-19.2V.45H-8.055Zm6.09-10.935-1.92-.015a8.68,8.68,0,0,1,.165,1.74c0,1.44-.15,5.31-.15,7.44C-3.87-.12-2.34.855-.06.855a7.617,7.617,0,0,0,6.375-3.36L5.25-3.81A6.146,6.146,0,0,1-.03-.72c-1.3,0-2.28-.54-2.28-2.13,0-2.07.105-5.535.18-7.2A13.681,13.681,0,0,1-1.965-11.775ZM8.46-10.125l.165,1.65c1.665-.36,5.16-.72,6.675-.885a6.04,6.04,0,0,0-2.55,4.875c0,3.315,3.075,4.89,6.015,5.025l.555-1.59c-2.49-.105-5.04-1.02-5.04-3.75a4.973,4.973,0,0,1,3.33-4.515,13.38,13.38,0,0,1,2.91-.225v-1.515c-1.035.045-2.535.135-4.14.27-2.76.225-5.43.48-6.525.585C9.57-10.17,9.045-10.14,8.46-10.125ZM29.22-1.83c0-.585.6-.99,1.575-.99a4.567,4.567,0,0,1,1.26.18c.015.2.015.375.015.51,0,.765-.3,1.29-1.35,1.29C29.805-.84,29.22-1.17,29.22-1.83Zm-.6-9.09v1.335c1.11.045,2.235.06,3.3.03v2.2a35.223,35.223,0,0,1-3.54-.075l.015,1.38c1.185.06,2.385.06,3.54.045.015.7.045,1.47.075,2.16a7.4,7.4,0,0,0-1.17-.09c-2.01,0-2.955,1.02-2.955,2.19,0,1.5,1.305,2.22,3,2.22,1.74,0,2.6-.8,2.6-2.055,0-.15,0-.315-.015-.5A9.9,9.9,0,0,1,35.76-.3l.795-1.305a9.408,9.408,0,0,0-3.15-1.905c-.045-.78-.09-1.65-.12-2.55,1-.045,1.92-.12,2.685-.21V-7.635c-.81.09-1.725.18-2.685.225V-9.615c.885-.045,1.68-.1,2.355-.18V-11.13A32.632,32.632,0,0,1,28.62-10.92Zm-2.355-.555-1.65-.135c-.015.375-.075.87-.12,1.23a45.862,45.862,0,0,0-.645,6.255,17.556,17.556,0,0,0,.585,4.77L25.785.54c-.015-.18-.03-.405-.03-.555a2.853,2.853,0,0,1,.075-.69A33.577,33.577,0,0,1,26.9-4.125l-.75-.615c-.24.57-.57,1.35-.78,1.965a12.168,12.168,0,0,1-.12-1.635,37.472,37.472,0,0,1,.72-5.91A10.906,10.906,0,0,1,26.265-11.475Zm16.32-.3-1.92-.015a8.68,8.68,0,0,1,.165,1.74c0,1.44-.15,5.31-.15,7.44,0,2.49,1.53,3.465,3.81,3.465a7.617,7.617,0,0,0,6.375-3.36L49.8-3.81A6.146,6.146,0,0,1,44.52-.72c-1.3,0-2.28-.54-2.28-2.13,0-2.07.1-5.535.18-7.2A13.681,13.681,0,0,1,42.585-11.775Zm13.275,1.2-1.83-.03a7.674,7.674,0,0,1,.12,1.41c0,.9.015,2.7.165,4.02C54.72-1.23,56.115.21,57.63.21c1.1,0,2.025-.885,2.97-3.45l-1.185-1.4c-.345,1.365-1,3-1.755,3-1.005,0-1.62-1.59-1.845-3.945a33.584,33.584,0,0,1-.1-3.375A12.279,12.279,0,0,1,55.86-10.575Zm7.68.375L62.055-9.7c1.515,1.8,2.37,5.13,2.625,7.71l1.545-.6A16.339,16.339,0,0,0,63.54-10.2Z" transform="translate(798 2617)" fill="#fff"/>
    <path id="パス_9054" data-name="パス 9054" d="M12.07-11.866H4.862v-.7H12.07Zm0,1.938H4.862v-.714H12.07Zm2.023-3.927H2.924v5.219H14.093Zm-.969,9.622a7.118,7.118,0,0,1-1.156,1.666,6.582,6.582,0,0,1-1.139-1.666ZM4.114-2.21h2.21v.663c-.748.068-1.5.119-2.21.17Zm0-2.108h2.21V-3.6H4.114Zm2.21-2.091v.68H4.114v-.68Zm7.99.561-.34.068H8.687v1.547h1.564l-1.122.306a10.411,10.411,0,0,0,1.547,2.516A8.728,8.728,0,0,1,8.262-.187V-6.409h7.786v-1.6H.935v1.6H2.261v5.168c-.527.051-1.037.068-1.479.1L.935.6C2.431.459,4.369.289,6.324.1V1.479H8.262V.1a7.515,7.515,0,0,1,.9,1.36,11.076,11.076,0,0,0,2.89-1.581,9.524,9.524,0,0,0,3.162,1.581,8.374,8.374,0,0,1,1.19-1.581,9.5,9.5,0,0,1-2.992-1.258,10.135,10.135,0,0,0,2.142-4Zm18.87-7.871H24.5v1.87h8.687Zm-2.5,7H26.979V-8.772h3.706Zm1.972-3.825H25.126v5.593h7.531ZM30.94-.85c.408-.833.867-2.193,1.326-3.434l-1.989-.425A18.671,18.671,0,0,1,29.24-1.241Zm-2.856-.51a11.947,11.947,0,0,0-.85-3.247L25.517-4.2a13.845,13.845,0,0,1,.765,3.3Zm-3.2-1.088c-.374-.442-1.87-2.244-2.55-2.941.034-.221.051-.425.068-.646h2.227v-1.87H22.525V-10.54h1.9v-1.819H20.723c.136-.544.272-1.1.374-1.666l-1.9-.357a13.348,13.348,0,0,1-1.819,5.134,10.458,10.458,0,0,1,1.717.935,13.661,13.661,0,0,0,1.054-2.227H20.6v2.635h-2.89v1.87H20.5A9,9,0,0,1,17.578.051a6.957,6.957,0,0,1,1.394,1.428,9.67,9.67,0,0,0,2.907-4.76A27.885,27.885,0,0,1,23.6-.782ZM23.715-.714v1.87h9.707V-.714ZM43.1-11.492a11,11,0,0,1,1.768,2.006l1.411-1.088a9.834,9.834,0,0,0-1.513-1.564h2.805V-7.82c0,.17-.068.221-.272.221a13.734,13.734,0,0,1-1.411-.017,5.945,5.945,0,0,1,.51,1.734,5.834,5.834,0,0,0,2.329-.289c.561-.306.7-.782.7-1.615V-13.8H42.7v1.666H44.03Zm3.689,1.513C45.135-9.35,43.418-8.7,42.3-8.347l.9,1.683c1.173-.544,2.6-1.207,3.927-1.87Zm-1.768,6.46a16.09,16.09,0,0,1-1.122,2.7l.884.221H40.324l.765-.221a11,11,0,0,0-.952-2.7ZM45.883-.6c.408-.714.884-1.717,1.36-2.669l-1.156-.255h2.958V-5.253H43.469V-6.664H41.548a2.342,2.342,0,0,0,.187-1.122V-13.8H35.156v1.666h1.666l-1.088.714A8.739,8.739,0,0,1,37.4-9.4l1.411-1.02a8.556,8.556,0,0,0-1.53-1.717h2.6V-7.8c0,.153-.051.2-.255.2a14.393,14.393,0,0,1-1.445-.017,6.517,6.517,0,0,1,.51,1.734,5.629,5.629,0,0,0,2.346-.289,1.171,1.171,0,0,0,.459-.391v1.309H36.108v1.734h3.366l-1.292.34A12.76,12.76,0,0,1,39.032-.6H34.8V1.156H50.252V-.6Zm-6.7-9.2c-1.649.612-3.366,1.241-4.488,1.6l.816,1.666c1.19-.527,2.635-1.173,3.995-1.819ZM55.726-1.87V-5.678h7.548V-1.87Zm7.548-9.469v3.655H55.726v-3.655Zm-9.639-2.04V1.275h2.091V.17h7.548V1.241H65.45v-14.62Zm18.173-1a14.2,14.2,0,0,1-3.332,3.366A15.469,15.469,0,0,1,69.53-9.537a20.9,20.9,0,0,0,4.063-4.148ZM80.631-2.975A6.808,6.808,0,0,1,79.05-1.768,6.967,6.967,0,0,1,77.5-2.975Zm-3.57-4.233h4.267v.748H77.061Zm0-1.921h4.267V-8.4H77.061Zm5.1,4.726-.34.068H78.285c.221-.289.408-.578.6-.867H83.2v-5.185H75.956c.17-.255.34-.527.493-.8h7.7v-1.632H77.282a10.223,10.223,0,0,0,.442-1.122L75.752-14.4a10.21,10.21,0,0,1-2.414,4.1l-1.224-.459a14.5,14.5,0,0,1-3.791,4.369,12.279,12.279,0,0,1,1.054,1.887A15.051,15.051,0,0,0,70.7-5.763V1.513H72.59V-8.041c.374-.527.731-1.071,1.037-1.6a12.979,12.979,0,0,1,1.105.782c.17-.187.357-.391.527-.6V-5.2h1.513A9.634,9.634,0,0,1,73.321-2.4a14.311,14.311,0,0,1,1.394,1.258,10.594,10.594,0,0,0,1.411-.986A8.031,8.031,0,0,0,77.282-1a17.511,17.511,0,0,1-3.978.85,6.027,6.027,0,0,1,.867,1.632A18.583,18.583,0,0,0,79.033.119,14.089,14.089,0,0,0,83.5,1.445,6.582,6.582,0,0,1,84.643-.221,16.776,16.776,0,0,1,80.92-.969a7.662,7.662,0,0,0,2.448-2.856ZM86.6,1.5H88.74V-13.787H86.6Zm6.256-3.162v-4.08H98.26v4.08Zm5.406-9.758V-7.6H92.854v-3.825Zm-7.48-1.887V1.479h2.074V.221H98.26V1.343h2.159V-13.311Z" transform="translate(747 2791)" fill="#0a0a0a"/>
    <g id="グループ_4299" data-name="グループ 4299" transform="translate(332.94 301.861)">
      <path id="パス_8569" data-name="パス 8569" d="M324.522,223.568v4.183h2.951v-4.18c-.477.038-.952.071-1.437.071-.51,0-1.013-.033-1.514-.075" transform="translate(137.983 2203.186)" fill="#e66084"/>
      <path id="パス_8570" data-name="パス 8570" d="M327.473,204.1v-4.183h-2.951v4.185c.5-.04,1-.077,1.514-.077.485,0,.962.037,1.437.075" transform="translate(137.983 2184.282)" fill="#e66084"/>
      <path id="パス_8571" data-name="パス 8571" d="M329.8,220.854a3.064,3.064,0,0,0-1.742-2.758l-1.512-14.74-1.255,14.794a3.069,3.069,0,1,0,4.509,2.7" transform="translate(137.338 2187.174)" fill="#e66084"/>
      <path id="パス_8572" data-name="パス 8572" d="M368.984,215.965a32.24,32.24,0,0,0-17.026-17.126l-.423-.182-1.847,4.336.425.18a27.125,27.125,0,0,1,8.676,5.885,27.532,27.532,0,0,1-8.676,44.737,27.242,27.242,0,0,1-21.233,0,27.532,27.532,0,0,1,0-50.621,26.917,26.917,0,0,1,6.858-1.881v3.224l11.539-5.67-11.539-5.669v3.356a31.754,31.754,0,0,0-18.872,9.207,32.237,32.237,0,0,0,10.173,52.386,31.871,31.871,0,0,0,35.089-6.9,32.341,32.341,0,0,0,6.856-35.264" transform="translate(124.563 2178.961)" fill="#e66084"/>
      <path id="パス_8573" data-name="パス 8573" d="M322.019,222.836c-.472-.233-.929-.48-1.378-.75l-1.7,2.953,1.355.785Z" transform="translate(133.581 2201.762)" fill="#e66084"/>
      <path id="パス_8574" data-name="パス 8574" d="M334.348,202.008l-1.357-.785-2.419,4.187c.458.256.908.522,1.34.814Z" transform="translate(142.767 2185.315)" fill="#e66084"/>
      <path id="パス_8575" data-name="パス 8575" d="M334.018,225.534l-2.144-3.713q-.65.433-1.34.813l2.128,3.685Z" transform="translate(142.732 2201.57)" fill="#e66084"/>
      <path id="パス_8576" data-name="パス 8576" d="M334.6,218.9l3.99,2.3.786-1.357-4.046-2.335c-.226.475-.468.938-.731,1.39" transform="translate(145.968 2198.15)" fill="#e66084"/>
      <path id="パス_8577" data-name="パス 8577" d="M320.088,201.394l-1.357.785,1.994,3.456c.447-.27.9-.524,1.375-.757Z" transform="translate(133.422 2185.445)" fill="#e66084"/>
      <path id="パス_8578" data-name="パス 8578" d="M315.118,205.825l-.785,1.359,3.15,1.818c.261-.456.536-.9.833-1.331Z" transform="translate(129.957 2188.93)" fill="#e66084"/>
      <path id="パス_8579" data-name="パス 8579" d="M334.428,208.266c.277.444.539.9.778,1.361l3.94-2.273L338.361,206Z" transform="translate(145.83 2189.072)" fill="#e66084"/>
      <path id="パス_8580" data-name="パス 8580" d="M340.236,212.1h-4.223c.04.491.077.98.077,1.479s-.036.987-.077,1.475h4.223Z" transform="translate(147.311 2193.872)" fill="#e66084"/>
      <path id="パス_8581" data-name="パス 8581" d="M318.148,219.3c-.284-.438-.555-.884-.8-1.347l-3.219,1.857.787,1.361Z" transform="translate(129.795 2198.494)" fill="#e66084"/>
      <path id="パス_8582" data-name="パス 8582" d="M312.389,212.1v2.955h4.143c-.04-.489-.075-.976-.075-1.475s.035-.988.075-1.479Z" transform="translate(128.183 2193.872)" fill="#e66084"/>
    </g>
  </g>
</svg>
