<svg xmlns="http://www.w3.org/2000/svg" width="210" height="262" viewBox="0 0 210 262">
  <g id="グループ_4397" data-name="グループ 4397" transform="translate(-233 -2344)">
    <path id="パス_9034" data-name="パス 9034" d="M10,0H200a10,10,0,0,1,10,10V252a10,10,0,0,1-10,10H10A10,10,0,0,1,0,252V10A10,10,0,0,1,10,0Z" transform="translate(233 2344)" fill="#fdeff2"/>
    <path id="合体_58" data-name="合体 58" d="M5290,138V76a10,10,0,0,1,10-10h190a10,10,0,0,1,10,10v62l-105,16Z" transform="translate(-5057 2278)" fill="#818181"/>
    <path id="パス_9035" data-name="パス 9035" d="M-41.61-12.51A17.432,17.432,0,0,1-44.7-6.585a10.93,10.93,0,0,1,.705,1.47,14.864,14.864,0,0,0,1.2-1.665V1.17h1.32v-10.4c.435-.96.825-1.95,1.155-2.925Zm2.445,4.08c.285.21.645.495.825.66a10.628,10.628,0,0,0,1.11-1.185,8.384,8.384,0,0,0,1.38,1.47,11.7,11.7,0,0,1-3.315,1.32Zm5.76-1.455A6.523,6.523,0,0,1-34.89-8.16a6.942,6.942,0,0,1-1.68-1.71l.015-.015Zm2.625,0V-11.01h-5.13a10.8,10.8,0,0,0,.585-1.275L-36.6-12.6a9.785,9.785,0,0,1-2.565,3.825V-10.77H-40.38v9.48h1.215V-6.045a6.451,6.451,0,0,1,.735.99A13.1,13.1,0,0,0-34.815-6.72a11.7,11.7,0,0,0,3.75,1.545,6.582,6.582,0,0,1,.765-1.14,11.627,11.627,0,0,1-3.51-1.17,8.383,8.383,0,0,0,1.86-2.4Zm-2.4,5.475a10.224,10.224,0,0,1-4.8,2.235,5.526,5.526,0,0,1,.69.9A10.92,10.92,0,0,0-32.145-3.99Zm-1.425-1.4a9.118,9.118,0,0,1-3.54,1.755,4.822,4.822,0,0,1,.765.81,10.009,10.009,0,0,0,3.825-2.13Zm2.685,3.06c-1.305,1.47-3.96,2.34-6.855,2.76a4.6,4.6,0,0,1,.72,1.1c3.1-.555,5.835-1.59,7.335-3.36Zm7.275-.45c-.51.18-1.05.345-1.56.51v-3.39h1.425v-1.29H-26.2V-10.35h1.665v-1.29h-4.77v1.29h1.77v2.985h-1.62v1.29h1.62v3.81c-.72.225-1.38.4-1.92.555l.33,1.425c1.35-.435,3.09-1.02,4.725-1.59ZM-22.62-7.98h1.965v1.635H-22.62Zm0-2.745h1.965v1.62H-22.62Zm5.07,1.62h-1.92v-1.62h1.92Zm0,2.76h-1.92V-7.98h1.92ZM-19.35-.57V-2.355h3.33v-1.26h-3.33V-5.16h3.135v-6.75H-23.9v6.75h3.12v1.545H-24.03v1.26h3.255V-.57h-4.35V.705h9.585V-.57Zm11.13-9.72L-8.2-8.76a38.229,38.229,0,0,0,6.285,0v-1.53A27.642,27.642,0,0,1-8.22-10.29Zm.855,6.24-1.35-.12A7.6,7.6,0,0,0-8.97-2.325C-8.97-.87-7.8.015-5.25.015a20.58,20.58,0,0,0,3.8-.3l-.03-1.6a16.108,16.108,0,0,1-3.735.4c-1.815,0-2.34-.555-2.34-1.23A5.211,5.211,0,0,1-7.365-4.05Zm-3.465-7.32-1.665-.15a10.9,10.9,0,0,1-.135,1.245,43.287,43.287,0,0,0-.645,5.985A19.061,19.061,0,0,0-12.72.555l1.365-.09c-.015-.18-.03-.405-.03-.555a2.932,2.932,0,0,1,.075-.69c.15-.75.675-2.355,1.065-3.5l-.75-.6c-.24.555-.54,1.29-.8,1.905a14.8,14.8,0,0,1-.09-1.605,35.973,35.973,0,0,1,.735-5.655A10.758,10.758,0,0,1-10.83-11.37Zm15.06.99v3.015H2.43V-10.38ZM2.43-2.97V-6.135h1.8V-2.97Zm3.12-8.67H1.14V-.465H2.43v-1.26H5.55Zm1.08,8.6A11.126,11.126,0,0,1,8.445-.48L9.63-1.2A11.047,11.047,0,0,0,7.755-3.69ZM14.415-6.8v-1.23H10.77v-1.65h3.09V-10.89H10.77V-12.6h-1.4v1.71h-3v1.215h3v1.65H5.805V-6.8H11.31v1.5H5.85v1.23h5.46v3.66c0,.21-.075.27-.315.285-.225,0-1.05,0-1.89-.03a5.193,5.193,0,0,1,.45,1.305A7.375,7.375,0,0,0,12.015.93c.495-.21.66-.585.66-1.305v-3.69H14.28V-5.3H12.675V-6.8Zm6.15-4.14V-9.9H17.73v-1.035ZM17.73-7.8V-8.91h2.835V-7.8Zm4.155,1.035v-5.22H16.35V1.185h1.38v-7.95Zm2.52-1V-8.91H27.33v1.14Zm2.925-3.165V-9.9H24.405v-1.035Zm-6.39,9.69V-2.49h3.045v1.245ZM23.985-4.68v1.17H20.94V-4.68Zm4.755-7.305H23.07v5.25h4.26V-.57c0,.255-.075.33-.345.345-.24,0-.96.015-1.695-.015V-5.73H19.665V.555H20.94V-.2h4.05a6.248,6.248,0,0,1,.435,1.365,7.593,7.593,0,0,0,2.61-.24c.54-.24.705-.69.705-1.485Zm7.83.3-1.755-.18a16.841,16.841,0,0,1-.36,3.225c-.84.075-1.65.135-2.13.15-.51.015-.96.03-1.455,0l.15,1.62c.4-.075,1.11-.165,1.485-.21.345-.045.96-.12,1.635-.195A23.394,23.394,0,0,1,31.035.03L32.58.645a31.32,31.32,0,0,0,3.1-8.07c.555-.06,1.05-.09,1.365-.09.945,0,1.53.225,1.53,1.515a12.363,12.363,0,0,1-.66,4.41,1.205,1.205,0,0,1-1.23.705,7.922,7.922,0,0,1-1.845-.3L35.1.375A8.3,8.3,0,0,0,36.885.6a2.241,2.241,0,0,0,2.31-1.32,14.524,14.524,0,0,0,.855-5.445c0-2.1-1.11-2.685-2.55-2.685-.345,0-.9.03-1.515.09.135-.7.27-1.425.36-1.89C36.42-10.98,36.495-11.37,36.57-11.685Zm6.84-1.14-.975.4a15.144,15.144,0,0,1,1.245,2.07l.975-.435A23.275,23.275,0,0,0,43.41-12.825Zm-1.71.63-.975.405A13.592,13.592,0,0,1,41.79-9.96c-.015-.03-.045-.06-.06-.09l-1.4.615a17.311,17.311,0,0,1,2.61,5.49l1.485-.7a26.24,26.24,0,0,0-2.475-5.07l.96-.4A21.973,21.973,0,0,0,41.7-12.2ZM-30.78,15.24l-1.755-.18a16.765,16.765,0,0,1-.345,3.225c-.855.075-1.665.135-2.145.15-.51.015-.945.03-1.455,0l.15,1.62c.42-.075,1.11-.165,1.485-.21.345-.045.96-.12,1.65-.195a23.8,23.8,0,0,1-3.12,7.305l1.545.615a31.32,31.32,0,0,0,3.105-8.07c.57-.06,1.065-.09,1.38-.09.945,0,1.53.225,1.53,1.515a12.192,12.192,0,0,1-.675,4.4,1.175,1.175,0,0,1-1.23.72,7.812,7.812,0,0,1-1.83-.3l.24,1.56a8.435,8.435,0,0,0,1.785.21,2.207,2.207,0,0,0,2.31-1.305A14.524,14.524,0,0,0-27.3,20.76c0-2.1-1.1-2.685-2.55-2.685-.345,0-.885.03-1.5.09.135-.7.27-1.425.36-1.89C-30.93,15.945-30.855,15.555-30.78,15.24Zm5.175,1.515-1.4.6a17.9,17.9,0,0,1,2.6,5.55l1.485-.69A25.979,25.979,0,0,0-25.6,16.755Zm9.825-1.515-1.755-.18a16.766,16.766,0,0,1-.345,3.225c-.855.075-1.665.135-2.145.15-.51.015-.945.03-1.455,0l.15,1.62c.42-.075,1.11-.165,1.485-.21.345-.045.96-.12,1.65-.195a23.8,23.8,0,0,1-3.12,7.305l1.545.615a31.32,31.32,0,0,0,3.105-8.07c.57-.06,1.065-.09,1.38-.09.945,0,1.53.225,1.53,1.515a12.192,12.192,0,0,1-.675,4.4,1.175,1.175,0,0,1-1.23.72,7.812,7.812,0,0,1-1.83-.3l.24,1.56a8.435,8.435,0,0,0,1.785.21,2.207,2.207,0,0,0,2.31-1.305A14.524,14.524,0,0,0-12.3,20.76c0-2.1-1.095-2.685-2.55-2.685-.345,0-.885.03-1.5.09.135-.7.27-1.425.36-1.89C-15.93,15.945-15.855,15.555-15.78,15.24Zm5.175,1.515-1.395.6A17.9,17.9,0,0,1-9.4,22.9l1.485-.69A25.979,25.979,0,0,0-10.6,16.755Zm8.325-1.68L-3.915,15a13.027,13.027,0,0,1-.12,1.425,39.579,39.579,0,0,0-.435,4.83,18.855,18.855,0,0,0,.165,2.43l1.47-.1a6.947,6.947,0,0,1-.06-1.725c.135-1.98,1.8-4.68,3.63-4.68,1.425,0,2.22,1.53,2.22,3.87,0,3.72-2.46,4.935-5.745,5.445l.9,1.365c3.825-.7,6.435-2.625,6.435-6.81C4.545,17.82,3.03,15.81.99,15.81c-1.815,0-3.255,1.6-3.915,2.97A29.031,29.031,0,0,1-2.28,15.075Zm13.59.6.075,1.53c.39-.03.855-.09,1.245-.12.63-.045,2.91-.15,3.555-.195a56.889,56.889,0,0,1-4.635,3.765c-.765.09-1.8.225-2.61.3l.135,1.425c1.68-.285,3.54-.51,5.04-.63a3.484,3.484,0,0,0-1.455,2.625c0,2.4,2.1,3.54,5.835,3.39l.315-1.56a11.02,11.02,0,0,1-2.205-.03c-1.365-.18-2.46-.66-2.46-2.04a3.046,3.046,0,0,1,2.73-2.655,24.189,24.189,0,0,1,3.84-.045l-.015-1.41c-2.01,0-4.62.195-6.78.42,1.125-.885,3-2.46,4.095-3.345a9.358,9.358,0,0,1,.96-.675l-.945-1.1a5.115,5.115,0,0,1-.915.165c-.885.1-3.855.24-4.5.24A11.92,11.92,0,0,1,11.31,15.675ZM33.075,22.05c0,2.535-2.505,3.87-6.18,4.32l.855,1.455c4.02-.585,6.96-2.49,6.96-5.715,0-2.235-1.62-3.5-3.855-3.5a19.545,19.545,0,0,0-4.515.7,13.279,13.279,0,0,1-1.485.24l.465,1.71c.39-.15.885-.345,1.335-.48a13.86,13.86,0,0,1,4.02-.75C32.16,20.04,33.075,20.9,33.075,22.05ZM26.94,15.09l-.225,1.44c1.71.3,4.83.6,6.525.705l.24-1.455A42.547,42.547,0,0,1,26.94,15.09Z" transform="translate(338 2377)" fill="#fff"/>
    <path id="パス_9036" data-name="パス 9036" d="M16.116-11.543a15.355,15.355,0,0,0-2.448-2.737l-1.513.935a14.464,14.464,0,0,1,2.329,2.856ZM4.845-14.263A17.769,17.769,0,0,1,.2-7.633,12.984,12.984,0,0,1,1.326-5.576a16.019,16.019,0,0,0,1.768-1.9V1.445H5.2V-10.506a27.009,27.009,0,0,0,1.581-3.128Zm11.526,6.1-.289-1.9-4.845.629c-.119-1.445-.187-3.043-.221-4.709H8.959c.051,1.785.153,3.451.272,4.981L5.8-8.7l.289,1.955,3.349-.459c.612,5.185,1.955,8.381,4.828,8.653.952.051,1.87-.731,2.3-4.012a6.955,6.955,0,0,1-1.649-1.156c-.136,1.887-.34,2.737-.731,2.7-1.36-.17-2.261-2.686-2.737-6.46Zm12.75,4.9H21.76v-.952h7.361ZM21.76-.748V-1.8h7.361V-.748ZM33.167-8.976v-1.6H29.988a7.933,7.933,0,0,0,.051-.884v-.085h2.55v-1.53h-2.55V-14.4H28.1v1.326H25.789v1.53H28.1v.051a5.846,5.846,0,0,1-.068.918h-2.5v1.6h1.938a4.767,4.767,0,0,1-2.6,1.989A6.439,6.439,0,0,1,25.925-5.9h-5.9A7.191,7.191,0,0,0,21.675-7.65a24.767,24.767,0,0,1,1.9,1.615L24.871-7.4c-.493-.391-1.36-1.02-2.108-1.581h2.244v-1.6H22.695a9.615,9.615,0,0,0,.068-.969H24.8v-1.53h-2.04V-14.4H20.842v1.326H18.428v1.53h2.414a6.6,6.6,0,0,1-.085.969h-2.89v1.6h2.38A5.67,5.67,0,0,1,17.51-6.494a6.828,6.828,0,0,1,1.343,1.377c.323-.187.646-.391.935-.595V1.479H21.76V.935h7.361v.476h2.074V-5.9h-4.4a6.62,6.62,0,0,0,2.465-2.363,7.469,7.469,0,0,0,3.077,3.043,7.352,7.352,0,0,1,1.275-1.53A6.372,6.372,0,0,1,30.8-8.976Zm14.654,4.76a7.025,7.025,0,0,1-.986,1.547c-.136-.459-.272-.986-.391-1.547ZM40-5.78c-.408-.714-1.224-2.023-1.581-2.55v-.731h1.547v-1.8A10.971,10.971,0,0,1,41.225-9.6c-.34.544-.7,1.054-1.02,1.5l-.527.034.272,1.5c.952-.1,2.006-.238,3.111-.357.034.187.051.357.068.51l1.156-.459c.051.374.1.748.136,1.105Zm2.431-3.281A8.018,8.018,0,0,1,42.7-8.3l-.918.068c.731-.952,1.53-2.142,2.21-3.2.034,1.36.119,2.669.238,3.91a10.133,10.133,0,0,0-.663-1.9Zm3.451.714c-.068-.85-.119-1.717-.136-2.635A11.494,11.494,0,0,1,47.107-9.6c-.289.442-.578.867-.85,1.224Zm.289,2.567c-.085-.51-.153-1.037-.2-1.6l.1.476c.476-.051.969-.119,1.5-.17l-.765.663a9.491,9.491,0,0,1,.816.629Zm1.751,1.564H50.3V-5.78H49.011l.323-.289A6.644,6.644,0,0,0,48.042-7.14L49.3-7.31a6.6,6.6,0,0,1,.136.663l1.207-.51a10.418,10.418,0,0,0-.884-2.516l-1.139.408c.1.221.2.459.289.7l-1.02.068c.748-1,1.564-2.244,2.244-3.315l-1.377-.68c-.238.493-.544,1.071-.867,1.632l-.442-.442c.425-.663.918-1.581,1.394-2.431L47.328-14.3a17.617,17.617,0,0,1-.833,2.176l-.272-.2-.493.714c-.017-.9-.017-1.819,0-2.771H43.945c0,.833.017,1.649.034,2.448l-1.139-.561c-.238.51-.527,1.071-.867,1.649-.119-.136-.272-.289-.425-.442.408-.68.9-1.615,1.377-2.431l-1.5-.578A22.61,22.61,0,0,1,40.6-12.1l-.289-.221-.748,1.105c.119.1.255.2.374.323H38.42v-3.5h-1.8v3.5H34.8v1.836h1.683a17.875,17.875,0,0,1-2.074,5.729,11.524,11.524,0,0,1,.85,1.717,14.546,14.546,0,0,0,1.36-3.2V1.462h1.8v-7.48c.34.748.68,1.53.85,2.04l.68-1v.765H41c-.17,1.717-.6,3.332-2.091,4.335a4.683,4.683,0,0,1,1.139,1.326,5.811,5.811,0,0,0,2.261-3.264A10.743,10.743,0,0,1,43.622-.663L44.71-2.006A13.549,13.549,0,0,0,42.687-3.57c.034-.2.068-.425.085-.646h1.921a15.644,15.644,0,0,0,.782,2.856A10.545,10.545,0,0,1,42.636.17,7.468,7.468,0,0,1,43.69,1.462,12.273,12.273,0,0,0,46.257.119a2.8,2.8,0,0,0,2.329,1.36c1.326,0,1.8-.51,2.108-2.431a4.842,4.842,0,0,1-1.309-.918C49.3-.527,49.147-.2,48.722-.2a1.429,1.429,0,0,1-1.139-.782A9.813,9.813,0,0,0,49.5-3.621ZM66.759-5.984a6.474,6.474,0,0,0-6.868-6.63,7.553,7.553,0,0,0-7.8,7.276c0,2.873,1.564,4.947,3.451,4.947,1.853,0,3.315-2.108,4.335-5.542a34.38,34.38,0,0,0,1.02-4.607,4.2,4.2,0,0,1,3.57,4.488A4.613,4.613,0,0,1,60.588-1.5a13.075,13.075,0,0,1-1.581.272L60.282.8C64.566.136,66.759-2.4,66.759-5.984Zm-12.5.425a5.351,5.351,0,0,1,4.318-4.93,25.518,25.518,0,0,1-.9,4.114c-.7,2.3-1.36,3.366-2.074,3.366C54.944-3.009,54.264-3.842,54.264-5.559Zm27.115-6.035h-4.59v-.85h4.59Zm0,2.159h-4.59V-10.3h4.59Zm1.938-4.437H74.936v5.865h8.381ZM74.086-5.389l-.272-1.819-1.53.408V-9.316h1.7v-1.87h-1.7V-14.4H70.448v3.213H68.612v1.87h1.836v3.009c-.765.187-1.445.374-2.023.493l.459,1.955c.493-.136,1-.289,1.564-.442V-.9c0,.221-.085.289-.289.289-.2.017-.782.017-1.411,0a6.646,6.646,0,0,1,.527,1.853A4.2,4.2,0,0,0,71.621.85c.51-.306.663-.8.663-1.734V-4.845Zm5.933,2.873h3.247V-4.1H80.019v-1.5h4.148V-7.225H74.12v1.632h3.995v4.437a3.816,3.816,0,0,1-1.479-1.989,15.451,15.451,0,0,0,.323-1.717l-1.836-.221c-.255,2.312-.952,4.2-2.363,5.321a11.606,11.606,0,0,1,1.5,1.207,7.479,7.479,0,0,0,1.768-2.669C77.18.833,78.9,1.241,81.124,1.241h2.958a5.96,5.96,0,0,1,.544-1.768c-.731.017-2.839.017-3.417.017-.425,0-.8-.017-1.19-.051Zm9.146-11.849a17.776,17.776,0,0,1-3.876,6.358A11.832,11.832,0,0,1,86.377-5.9c.357-.391.714-.8,1.071-1.258V1.462h1.989v-11.7a31.178,31.178,0,0,0,1.615-3.536ZM93.126-3.094A10.566,10.566,0,0,1,90.049.153,11.286,11.286,0,0,1,91.63,1.428a15.69,15.69,0,0,0,3.383-3.944Zm3.706.867a19.444,19.444,0,0,1,2.805,3.689l1.7-1.071a21.05,21.05,0,0,0-2.89-3.5ZM94.639-9.146H97.1v3.383H94.639Zm4.437,3.383V-9.146h2.21v-1.938h-2.21v-3.2H97.1v3.2H94.639v-3.179H92.667v3.179H90.814v1.938h1.853v3.383H90.389v1.972h11.033V-5.763Z" transform="translate(287 2565)" fill="#363636"/>
    <path id="パス_8545" data-name="パス 8545" d="M102.934,53.848h-56.1a4.959,4.959,0,0,0-4.949,4.969V91.943a4.957,4.957,0,0,0,4.949,4.967h24.75v3.313H53.433a1.654,1.654,0,0,0-1.651,1.656v3.313a1.654,1.654,0,0,0,1.651,1.656h42.9a1.653,1.653,0,0,0,1.65-1.656v-3.313a1.653,1.653,0,0,0-1.65-1.656H78.184V96.91h24.75a4.957,4.957,0,0,0,4.949-4.967V58.817a4.959,4.959,0,0,0-4.949-4.969M102.3,91.434H47.468V59.325H102.3Z" transform="translate(263.117 2400.152)" fill="#e66084"/>
  </g>
</svg>
