<svg xmlns="http://www.w3.org/2000/svg" width="122" height="224" viewBox="0 0 122 224">
  <g id="グループ_4448" data-name="グループ 4448" transform="translate(-233 -2344)">
    <path id="パス_9095" data-name="パス 9095" d="M10,0H112a10,10,0,0,1,10,10V214a10,10,0,0,1-10,10H10A10,10,0,0,1,0,214V10A10,10,0,0,1,10,0Z" transform="translate(233 2344)" fill="#fdeff2"/>
    <path id="合体_53" data-name="合体 53" d="M2940-1084v-54a10,10,0,0,1,10-10h102a10,10,0,0,1,10,10v54l-61,16Z" transform="translate(-2707 3492)" fill="#818181"/>
    <path id="パス_9096" data-name="パス 9096" d="M-41.522-10-42-8.775a42.712,42.712,0,0,1,6.89,1.586l.533-1.274A47.293,47.293,0,0,0-41.522-10Zm-.585,3.471-.481,1.235a42.337,42.337,0,0,1,6.63,1.6l.507-1.261A48.749,48.749,0,0,0-42.107-6.526ZM-42.8-2.769l-.52,1.274a42.784,42.784,0,0,1,7.8,1.937l.572-1.274A49.542,49.542,0,0,0-42.8-2.769ZM-29.276-9.8v1.339c.364-.026.832-.039,1.248-.039h5.044c.442,0,.962.013,1.287.039V-9.8a12.419,12.419,0,0,1-1.274.065h-5.057A11.892,11.892,0,0,1-29.276-9.8Zm8.606,3.575-.923-.572a2.579,2.579,0,0,1-.832.117h-6.656c-.377,0-.871-.039-1.378-.091v1.352c.494-.039,1.066-.052,1.378-.052h6.617a6.128,6.128,0,0,1-1.443,2.6,8.746,8.746,0,0,1-4.55,2.34l1.014,1.17a9.606,9.606,0,0,0,4.654-2.769,9.2,9.2,0,0,0,1.911-3.64A2.283,2.283,0,0,1-20.67-6.227Zm2.418,1.378.637,1.287a26.6,26.6,0,0,0,4.8-2.015v4.524A15.064,15.064,0,0,1-12.9.481h1.612a9.776,9.776,0,0,1-.091-1.534v-5.4A21.93,21.93,0,0,0-7.878-9.3l-1.092-1.04a16.047,16.047,0,0,1-3.614,3.094A21.467,21.467,0,0,1-18.252-4.849ZM.39-10.244l-1.482-.468a6.089,6.089,0,0,1-.494,1.17,11.921,11.921,0,0,1-4.16,4.433l1.105.858A14.723,14.723,0,0,0-1.209-7.657H2.9A10.655,10.655,0,0,1,1.274-4.381C.4-4.979-.507-5.564-1.287-6.019l-.9.923C-1.43-4.615-.494-3.978.4-3.328A11.053,11.053,0,0,1-4.511-.338L-3.328.7A12.383,12.383,0,0,0,1.5-2.509c.533.429,1.027.832,1.391,1.17l.962-1.144c-.4-.325-.91-.715-1.456-1.105A14.886,14.886,0,0,0,4.381-7.514a6.541,6.541,0,0,1,.351-.806L3.679-8.97a3.027,3.027,0,0,1-.975.143H-.429c.052-.091.091-.169.143-.26C-.143-9.347.13-9.854.39-10.244ZM12.649-7.592l-1.222.4a23.775,23.775,0,0,1,1.04,2.86l1.222-.442C13.52-5.343,12.883-7.046,12.649-7.592Zm4.745.832-1.43-.455a9.023,9.023,0,0,1-1.729,4.446A8.859,8.859,0,0,1,9.971-.026l1.079,1.1a10.074,10.074,0,0,0,4.277-3.146,10.421,10.421,0,0,0,1.82-3.926C17.2-6.2,17.277-6.435,17.394-6.76ZM9.62-6.916,8.4-6.474A26.55,26.55,0,0,1,9.581-3.51l1.235-.455C10.569-4.68,9.919-6.318,9.62-6.916Zm11.7-2.249.325,1.2c.949-.013,2.366-.052,3.653-.169v2.132H21.5a10.38,10.38,0,0,1-1.17-.065v1.339c.325-.026.78-.039,1.183-.039h3.744A5.17,5.17,0,0,1,21.983-.26L23.27.624a6.327,6.327,0,0,0,3.341-5.4h3.51c.338,0,.754.013,1.066.039V-6.058c-.286.026-.819.052-1.092.052H26.637v-2.3a23.738,23.738,0,0,0,2.405-.481c.208-.052.494-.117.845-.208l-.845-1.144a14.766,14.766,0,0,1-3.315.767A28.6,28.6,0,0,1,21.32-9.165Zm17.056-1.183-1.352-.1a6.474,6.474,0,0,1-.3,1.547c-.26.013-.52.013-.767.013a16.8,16.8,0,0,1-2.236-.143v1.222c.728.052,1.625.078,2.171.078h.377a13.062,13.062,0,0,1-2.938,3.8l1.118.832A14.139,14.139,0,0,1,35.633-4.5a3.313,3.313,0,0,1,2.158-.936,1.046,1.046,0,0,1,1.066.65C37.349-4.017,35.789-3,35.789-1.4S37.3.663,39.234.663A33.1,33.1,0,0,0,42.848.429l.039-1.313a22.137,22.137,0,0,1-3.614.338c-1.313,0-2.158-.182-2.158-1.066,0-.767.7-1.365,1.82-1.976-.013.637-.026,1.378-.052,1.833h1.235c-.013-.624-.026-1.664-.039-2.405.91-.416,1.755-.754,2.418-1.014.39-.156.949-.364,1.326-.481l-.533-1.2c-.416.208-.793.377-1.235.572-.611.286-1.274.559-2.08.936a1.711,1.711,0,0,0-1.742-1.105,3.818,3.818,0,0,0-1.664.39,10.432,10.432,0,0,0,1-1.716,40.167,40.167,0,0,0,4.277-.338V-9.321a29.971,29.971,0,0,1-3.822.377C38.194-9.5,38.3-9.984,38.376-10.348Zm-87.4,32.188c0-.663.689-1.066,1.9-1.066a5.985,5.985,0,0,1,1.183.117c.013.26.013.481.013.65a1.131,1.131,0,0,1-1.3,1.3C-48.334,22.841-49.023,22.516-49.023,21.84Zm4.355-8.749h-1.56a7.354,7.354,0,0,1,.13,1.4c0,.559.013,1.495.013,2.262,0,.741.052,1.9.091,2.925-.312-.026-.637-.052-.962-.052-2.3,0-3.393,1-3.393,2.262,0,1.6,1.417,2.184,3.237,2.184,1.924,0,2.548-.988,2.548-2.093,0-.195,0-.429-.013-.689A9.528,9.528,0,0,1-41.418,23.4l.78-1.222a10.122,10.122,0,0,0-4-2.223c-.052-1.066-.13-2.262-.13-3.094,1.053-.026,2.665-.091,3.8-.208l-.052-1.222c-1.118.13-2.7.195-3.744.208,0-.416-.013-.819,0-1.144A13.857,13.857,0,0,1-44.668,13.091Zm10.062-.026L-36.023,13a11.289,11.289,0,0,1-.1,1.235,34.3,34.3,0,0,0-.377,4.186,16.34,16.34,0,0,0,.143,2.106l1.274-.091a6.02,6.02,0,0,1-.052-1.495c.117-1.716,1.56-4.056,3.146-4.056,1.235,0,1.924,1.326,1.924,3.354,0,3.224-2.132,4.277-4.979,4.719l.78,1.183c3.315-.611,5.577-2.275,5.577-5.9,0-2.8-1.313-4.537-3.081-4.537-1.573,0-2.821,1.391-3.393,2.574A25.161,25.161,0,0,1-34.606,13.065Zm13.117,7.566c-.442.156-.91.3-1.352.442V18.135h1.235V17.017h-1.235V14.43H-21.4V13.312h-4.134V14.43H-24v2.587h-1.4v1.118H-24v3.3c-.624.195-1.2.351-1.664.481l.286,1.235c1.17-.377,2.678-.884,4.1-1.378Zm1.755-4.147h1.7V17.9h-1.7Zm0-2.379h1.7v1.4h-1.7Zm4.394,1.4H-17V14.1h1.664Zm0,2.392H-17V16.484h1.664Zm-1.56,5.005V21.359h2.886V20.267H-16.9V18.928h2.717v-5.85h-6.656v5.85h2.7v1.339h-2.821v1.092h2.821v1.547h-3.77v1.1H-13.6v-1.1Zm8-2.782V18.811h.975v1.313Zm-1.833-1.313h.988v1.313h-1c.013-.325.013-.637.013-.936Zm1.7-4.212a10.939,10.939,0,0,1-.481,1.17h-1.326c.195-.364.377-.767.546-1.17Zm.13,2.08h.975v1.235h-.975Zm-1.833,0h.988v1.235h-.988Zm8.645-2.535c-.065,1.326-.156,1.859-.3,2.015a.35.35,0,0,1-.351.117A9.269,9.269,0,0,1-3.8,16.224a2.937,2.937,0,0,1,.273,1,8.366,8.366,0,0,0,1.313-.013.976.976,0,0,0,.741-.364c.273-.312.39-1.183.481-3.289.013-.13.013-.416.013-.416H-6.63v1h1.612A3.154,3.154,0,0,1-6.929,16.7v-.936H-8.476a16.689,16.689,0,0,0,.78-1.716l-.7-.442-.169.052H-9.932c.1-.312.195-.624.286-.936l-1.105-.247a9.4,9.4,0,0,1-1.963,4.056,8.151,8.151,0,0,1,.884.715l.117-.143v2.067a9.079,9.079,0,0,1-.962,4.732,4.762,4.762,0,0,1,.858.533,7.668,7.668,0,0,0,1-3.393H-7.93v2.119c0,.169-.065.221-.234.234s-.7,0-1.326-.013A3.842,3.842,0,0,1-9.113,24.4a4.475,4.475,0,0,0,1.729-.182c.351-.182.455-.52.455-1.04V16.822a3.3,3.3,0,0,1,.572.754A4.1,4.1,0,0,0-3.9,14.144Zm1.469,6.877H-2.99v-1.4H-.871v-1.04H-2.99V17.329H-4.134v1.248h-.91q.136-.468.234-.936l-1-.208a7.364,7.364,0,0,1-1.118,2.86,5.513,5.513,0,0,1,.91.481,6.4,6.4,0,0,0,.611-1.157h1.274v1.4H-6.708v1.053h2.574v2.288H-2.99V22.074H-.624Zm5.1-7.826-1.664-.013a7.523,7.523,0,0,1,.143,1.508c0,1.248-.13,4.6-.13,6.448,0,2.158,1.326,3,3.3,3a6.6,6.6,0,0,0,5.525-2.912L10.725,20.1a5.327,5.327,0,0,1-4.576,2.678c-1.131,0-1.976-.468-1.976-1.846,0-1.794.091-4.8.156-6.24A11.857,11.857,0,0,1,4.472,13.195ZM20.28,20.267l-1.209-.117a7.64,7.64,0,0,0-.221,1.625c0,1.287,1.144,1.976,3.263,1.976a20.073,20.073,0,0,0,2.574-.182l.039-1.313a14.691,14.691,0,0,1-2.6.26c-1.664,0-2.015-.533-2.015-1.118A4.773,4.773,0,0,1,20.28,20.267ZM18.8,13.1l-1.56-.117a5.318,5.318,0,0,1-.052,1.17c-.026.247-.091.585-.156.975-.455.039-.9.052-1.3.052a12.25,12.25,0,0,1-1.586-.1l.026,1.274c.468.039.949.052,1.547.052.325,0,.676-.013,1.053-.026-.1.429-.208.858-.312,1.261a30.068,30.068,0,0,1-2.21,5.824l1.417.481a39.271,39.271,0,0,0,2.054-5.98c.143-.546.286-1.144.416-1.7a23.294,23.294,0,0,0,2.613-.442V14.534a22.811,22.811,0,0,1-2.353.455c.065-.286.117-.546.156-.767C18.6,13.962,18.72,13.429,18.8,13.1Zm1.027,3.952v1.209a21.878,21.878,0,0,1,2.457-.143,16.428,16.428,0,0,1,2.21.169l.039-1.248a22.034,22.034,0,0,0-2.275-.1C21.424,16.939,20.527,16.991,19.825,17.056Zm9.152-2.821-1.586-.026a6.651,6.651,0,0,1,.1,1.222c0,.78.013,2.34.143,3.484.351,3.419,1.56,4.667,2.873,4.667.949,0,1.755-.767,2.574-2.99l-1.027-1.209c-.3,1.183-.871,2.6-1.521,2.6-.871,0-1.4-1.378-1.6-3.419a29.106,29.106,0,0,1-.091-2.925A10.641,10.641,0,0,1,28.977,14.235Zm6.656.325-1.287.429c1.313,1.56,2.054,4.446,2.275,6.682l1.339-.52A14.16,14.16,0,0,0,35.633,14.56Zm9.2,5.616H45.9l.3-4.784.039-1.716H44.5l.039,1.716Zm.533,3.315A.988.988,0,1,0,44.4,22.5.953.953,0,0,0,45.37,23.491Z" transform="translate(294 2375)" fill="#fff"/>
    <path id="パス_9097" data-name="パス 9097" d="M-26.445-9.915h-2.73v-.99h2.73Zm1.62-2.235H-30.69v3.48h5.865ZM-32.4-4.845l-.285-1.575-1.08.36V-8.22h1.245V-9.87h-1.245v-2.82H-35.43v2.82h-1.455v1.65h1.455v2.685c-.63.18-1.185.345-1.665.465l.42,1.71c.39-.135.81-.27,1.245-.42V-.66c0,.165-.045.225-.21.225-.135,0-.54,0-.96-.015a5.247,5.247,0,0,1,.435,1.59A3.408,3.408,0,0,0-34.32.81c.435-.27.555-.7.555-1.485V-4.35Zm2.925-.99H-30.72v-1.11h1.245Zm3.345-1.11h1.305v1.11H-26.13Zm2.985,4.68v-1.44h-3.78V-4.62H-23.4V-8.145h-4.095V-4.68h-.585V-8.145h-3.96V-4.62h3.42v.915h-3.615v1.44h2.76a9.667,9.667,0,0,1-3.87,1.98,8.051,8.051,0,0,1,1.1,1.38,10.036,10.036,0,0,0,3.63-2.16v2.4h1.695V-1.11A9.018,9.018,0,0,0-23.985.975,6.565,6.565,0,0,1-22.86-.375a9.059,9.059,0,0,1-3.3-1.89Zm4.425-10.38a15.6,15.6,0,0,1-3.42,5.61,12.19,12.19,0,0,1,.99,1.905c.3-.33.615-.705.93-1.08v7.5h1.8V-8.985a23.366,23.366,0,0,0,1.44-3.12Zm10.755,4.08V-10.26h-5.82a17.728,17.728,0,0,0,.735-1.86l-1.725-.435A14.891,14.891,0,0,1-17.955-6.9,12.132,12.132,0,0,1-16.59-5.655a16.656,16.656,0,0,0,1.965-2.91h.57v9.87h1.83v-3.33h4.08v-1.65h-4.08v-1.7H-8.34V-6.99h-3.885V-8.565Zm4.89,6.5h-1.35V-5.82h1.35Zm1.71-8.31V-12H-6.81v1.62h1.59A12.587,12.587,0,0,1-7.125-5.37,9.977,9.977,0,0,1-6.51-3.24c.21-.255.405-.525.6-.81V.6h1.485V-.5H-1.56V-7.4H-4.365a25.015,25.015,0,0,0,.81-2.985ZM2.055-6.6v-3.7h1.68v3.7Zm4.95,0H5.43v-3.7H6.7v-1.65H-.645v1.65H.39v3.7H-1.035v1.68H.36A8.41,8.41,0,0,1-1.395.39,7.153,7.153,0,0,1-.045,1.425C1.5-.21,1.935-2.715,2.025-4.92h1.71V1.32H5.43V-4.92H7.005Zm3.66-6.06A16.987,16.987,0,0,1,7.7-6.87,14.024,14.024,0,0,1,8.55-4.95a11.992,11.992,0,0,0,.945-1.26v7.5h1.7V-9.33c.42-.93.8-1.9,1.11-2.835Zm2.91,4.14a8.571,8.571,0,0,1,.885.72,8.265,8.265,0,0,0,.87-.9,9.942,9.942,0,0,0,1.11,1.155,11.4,11.4,0,0,1-2.865,1.11ZM18.84-9.765a5.844,5.844,0,0,1-1.2,1.38,7.053,7.053,0,0,1-1.44-1.38Zm2.985,0v-1.44H16.95a10.556,10.556,0,0,0,.48-1.125l-1.605-.375a9.119,9.119,0,0,1-2.25,3.5V-10.8H12.03v9.6h1.545V-6.09a6.55,6.55,0,0,1,.78,1.08,12.934,12.934,0,0,0,3.42-1.545,11.323,11.323,0,0,0,3.57,1.425,7.189,7.189,0,0,1,.96-1.425,11.635,11.635,0,0,1-3.27-1A8.133,8.133,0,0,0,20.7-9.765ZM19.32-4.455a10.3,10.3,0,0,1-4.815,2.13,5.446,5.446,0,0,1,.87,1.11A10.926,10.926,0,0,0,20.6-3.93ZM17.85-5.82A9,9,0,0,1,14.4-4.2a4.633,4.633,0,0,1,.945,1.02,9.7,9.7,0,0,0,3.81-2.1ZM20.4-2.76c-1.29,1.41-3.885,2.22-6.645,2.6a6.217,6.217,0,0,1,.9,1.41c3.06-.555,5.715-1.56,7.275-3.39Zm6.84-5.445a13.632,13.632,0,0,0,2.745-2.775,14.6,14.6,0,0,0,2.88,2.775ZM26.505-6.57H33.51V-7.755A18.126,18.126,0,0,0,36.03-6.3a9.246,9.246,0,0,1,1.155-1.635A13.721,13.721,0,0,1,30.84-12.69H28.98a14.9,14.9,0,0,1-6.06,5.025,6.968,6.968,0,0,1,1.05,1.5,17.319,17.319,0,0,0,2.535-1.5ZM23.85-3.675h3.48A28.805,28.805,0,0,1,26.19-.96l-2.265.075.24,1.74c2.55-.12,6.255-.27,9.78-.465a7.951,7.951,0,0,1,.6.93L36.21.315A20.174,20.174,0,0,0,32.775-3.54L31.2-2.715a17.878,17.878,0,0,1,1.47,1.53c-1.53.06-3.075.12-4.515.165.45-.84.945-1.77,1.38-2.655h6.72v-1.65H23.85ZM-8.595,21.72a5.712,5.712,0,0,0-6.06-5.85,6.665,6.665,0,0,0-6.885,6.42c0,2.535,1.38,4.365,3.045,4.365,1.635,0,2.925-1.86,3.825-4.89a30.335,30.335,0,0,0,.9-4.065,3.708,3.708,0,0,1,3.15,3.96,4.071,4.071,0,0,1-3.42,4.02,11.537,11.537,0,0,1-1.395.24L-14.31,27.7C-10.53,27.12-8.595,24.885-8.595,21.72Zm-11.025.375a4.722,4.722,0,0,1,3.81-4.35,22.515,22.515,0,0,1-.8,3.63c-.615,2.025-1.2,2.97-1.83,2.97C-19.02,24.345-19.62,23.61-19.62,22.095ZM-4.635,18.36V17.175h9.18V18.36H.81v-.855H-.975v.855ZM6.6,24.63V23.085H.675A5.093,5.093,0,0,0,.8,22.14h4.1V20.7H.81v-.9H5.19v-.99h1.2v-3.2H.9v-1.3H-.93v1.3H-6.4v3.2H-5.07v.99h4.1v.9H-4.83v1.44H-.99a6.875,6.875,0,0,1-.15.945H-6.525V24.63H-2.01c-.825.885-2.265,1.665-4.785,2.235a7.279,7.279,0,0,1,1.11,1.44c3.06-.825,4.725-2.01,5.61-3.345,1.185,1.86,2.97,2.925,5.82,3.375a6.94,6.94,0,0,1,1.05-1.56c-2.37-.255-4.05-.945-5.115-2.145Zm7.26-2.625.03-1.5V19.83h-2.7c.015-.525.03-1.065.045-1.605H14.1a5.592,5.592,0,0,1-.48.54,9.728,9.728,0,0,1,1.335,1.26l.135-.15v1.56Zm3.66,4.77c-.75,0-.855-.09-.855-.7V22.455l.81-.375v3.5H18.96V21.39l.96-.45c-.015,1.425-.015,2.25-.045,2.385-.015.195-.09.225-.21.225s-.33,0-.51-.015a4.062,4.062,0,0,1,.315,1.305,3.429,3.429,0,0,0,1.245-.165,1.052,1.052,0,0,0,.645-1.035c.045-.45.045-1.98.06-4.11l.06-.24-1.11-.39-.27.195-.06.045-1.08.5V18.18H17.475v2.145l-.81.375V19.26h-1.1a9.768,9.768,0,0,0,.855-1.455H21.81v-1.62H17.1c.165-.51.33-1.035.45-1.56l-1.755-.33A10.835,10.835,0,0,1,14.46,17.7V16.575H12.12V14.31H10.41v2.265h-2.3v1.65h1.44c-.045,3.465-.18,6.765-1.665,8.82A5.294,5.294,0,0,1,9.165,28.29c1.245-1.71,1.725-4.14,1.935-6.84h1.17c-.06,3.525-.15,4.785-.345,5.085a.436.436,0,0,1-.435.24,8.378,8.378,0,0,1-1.08-.06,4.188,4.188,0,0,1,.435,1.59,7.841,7.841,0,0,0,1.545-.075,1.343,1.343,0,0,0,.96-.615c.345-.48.45-1.92.51-5.595l.615,1.455.615-.285v2.88c0,1.71.48,2.19,2.25,2.19h2.625c1.455,0,1.905-.57,2.1-2.445a4.913,4.913,0,0,1-1.44-.615c-.09,1.32-.21,1.575-.8,1.575Z" transform="translate(294 2521)" fill="#363636"/>
    <g id="グループ_4302" data-name="グループ 4302" transform="translate(-39.662 107)">
      <path id="パス_8555" data-name="パス 8555" d="M453.786,80.2l-2.869-.643c-.174.091-7.182.076-7.325,0l-2.934.657a4.279,4.279,0,0,0-3.369,4.16v5.8a1.137,1.137,0,0,0,1.144,1.127h17.585a1.135,1.135,0,0,0,1.142-1.127v-5.8a4.292,4.292,0,0,0-3.375-4.172" transform="translate(-134.29 2291.706)" fill="#e66084"/>
      <path id="パス_8558" data-name="パス 8558" d="M453.786,80.2l-2.869-.643c-.174.091-7.182.076-7.325,0l-2.934.657a4.279,4.279,0,0,0-3.369,4.16v5.8a1.137,1.137,0,0,0,1.144,1.127h17.585a1.135,1.135,0,0,0,1.142-1.127v-5.8a4.292,4.292,0,0,0-3.375-4.172" transform="translate(-92.742 2291.706)" fill="#e66084"/>
      <path id="パス_8556" data-name="パス 8556" d="M445.8,82.984a5.419,5.419,0,1,0-5.419-5.419,5.42,5.42,0,0,0,5.419,5.419" transform="translate(-132.867 2287.371)" fill="#e66084"/>
      <path id="パス_8557" data-name="パス 8557" d="M445.8,82.984a5.419,5.419,0,1,0-5.419-5.419,5.42,5.42,0,0,0,5.419,5.419" transform="translate(-91.318 2287.371)" fill="#e66084"/>
      <path id="パス_8559" data-name="パス 8559" d="M472.67,69.3c5.726,0,10.387-3.808,10.387-8.487s-4.661-8.488-10.387-8.488-10.387,3.808-10.387,8.488a7.552,7.552,0,0,0,2.252,5.271l-1.714,3.219a.742.742,0,0,0,.145.886.719.719,0,0,0,.5.2.736.736,0,0,0,.383-.109l3.5-2.176a12.156,12.156,0,0,0,5.319,1.2" transform="translate(-117.734 2274.673)" fill="#e66084"/>
      <path id="パス_8561" data-name="パス 8561" d="M461.868,59.475a4.516,4.516,0,1,0-4.515,4.515,4.515,4.515,0,0,0,4.515-4.515" transform="translate(-123.642 2276.556)" fill="#e66084"/>
      <g id="グループ_4294" data-name="グループ 4294" transform="translate(324.678 2341.452)">
        <path id="パス_8560" data-name="パス 8560" d="M465.809,92.892V80.941h.528A1.943,1.943,0,0,0,468.279,79V65.677a3.944,3.944,0,0,0-3.068-3.845l-2.608-.594c-.157.086-.256.138-.412.223l-2.943,7.89L456.3,61.431l-.356-.193-2.659.6a3.931,3.931,0,0,0-3.07,3.837V79a1.944,1.944,0,0,0,1.944,1.944h.523V92.892Z" transform="translate(-450.214 -61.178)" fill="#e66084"/>
        <path id="パス_8562" data-name="パス 8562" d="M454.856,61.2l.292,1.311h2.042l.292-1.311Z" transform="translate(-447.138 -61.2)" fill="#e66084"/>
        <path id="パス_8563" data-name="パス 8563" d="M457.21,62.265h-2.236l.019.083-.019,1.966,1.128,2.673,1.128-2.673-.019-1.966.019-.083Z" transform="translate(-447.071 -60.591)" fill="#e66084"/>
      </g>
    </g>
  </g>
</svg>
