<svg xmlns="http://www.w3.org/2000/svg" width="121" height="224" viewBox="0 0 121 224">
  <g id="グループ_4449" data-name="グループ 4449" transform="translate(-233.038 -2344)">
    <path id="パス_9092" data-name="パス 9092" d="M10,0H111a10,10,0,0,1,10,10V214a10,10,0,0,1-10,10H10A10,10,0,0,1,0,214V10A10,10,0,0,1,10,0Z" transform="translate(233.038 2344)" fill="#fdeff2"/>
    <path id="合体_52" data-name="合体 52" d="M3071.038-1084v-54a10,10,0,0,1,10-10h101a10,10,0,0,1,10,10v54l-60.5,16Z" transform="translate(-2838 3492)" fill="#818181"/>
    <path id="パス_9093" data-name="パス 9093" d="M-48.295-10.829A14.067,14.067,0,0,1-51.506-5.72a8.261,8.261,0,0,1,.728,1.235,11.848,11.848,0,0,0,1.144-1.339V1h1.222v-8.71A20.385,20.385,0,0,0-47.1-10.452Zm8.71,2.756h-1.547v-2.691H-42.38v2.691h-5.083v1.209h5.083V-.52c0,.286-.117.377-.416.39S-44.187-.1-45.24-.156a4.943,4.943,0,0,1,.468,1.209A9.781,9.781,0,0,0-41.9.845c.546-.182.767-.52.767-1.365V-6.864h1.547Zm-4.251,5.46c-.39-.78-1.235-2.093-1.859-3.068l-1.053.494A32.347,32.347,0,0,1-44.967-2Zm15.184-6.8v.949H-36.01v-.949Zm1.2,1.9v-2.847h-9.737v3.77c0,2.054-.117,4.94-1.365,6.942a3.72,3.72,0,0,1,1.04.611c1.313-2.119,1.508-5.343,1.508-7.553v-.923ZM-28.678.065A9.985,9.985,0,0,0-29.627-1.7l-.715.182c.091.156.195.325.286.494l-.923.039v-.871h2.613V.026c0,.13-.039.156-.182.169a3.442,3.442,0,0,1-.533,0Zm-5.369-4.1v-.78h1.963v.78Zm5.083-.78v.78h-2.015v-.78Zm1.716,2.132h-3.731V-3.3h3.159V-5.538h-3.159V-6.2a26.145,26.145,0,0,0,3.016-.39l-.689-.715A43.743,43.743,0,0,1-35.36-6.8a2.886,2.886,0,0,1,.234.767c.962,0,2.015-.039,3.042-.091v.585h-3.042V-3.3h3.042v.624h-3.549V1.04h1.092v-2.9h2.457v.91c-.767.026-1.469.052-2.041.065l.091.884c1.183-.065,2.8-.143,4.381-.247.078.169.143.3.195.442L-29.6.182a3.986,3.986,0,0,1,.3.832A4.824,4.824,0,0,0-27.677.871c.338-.143.429-.364.429-.845Zm10.192-4.407h-4.875V-9.2h4.875Zm1.235-3.276h-7.267v4.433h7.267Zm-5.59,6.851v2.7h-2.366v-2.7Zm-3.51,4.537h1.144V.351h2.366V.936h1.2v-5.6h-4.706Zm7.137-1.833v-2.7h2.574v2.7Zm-1.157-3.861V1.027h1.157V.351h2.574V.962H-14V-4.667Zm11.635-5.46-1.521-.156a14.6,14.6,0,0,1-.312,2.795c-.728.065-1.43.117-1.846.13-.442.013-.832.026-1.261,0l.13,1.4c.351-.065.962-.143,1.287-.182.3-.039.832-.1,1.417-.169A20.275,20.275,0,0,1-12.1.026l1.339.533A27.144,27.144,0,0,0-8.073-6.435c.481-.052.91-.078,1.183-.078.819,0,1.326.2,1.326,1.313a10.715,10.715,0,0,1-.572,3.822A1.044,1.044,0,0,1-7.2-.767a6.866,6.866,0,0,1-1.6-.26L-8.58.325a7.19,7.19,0,0,0,1.547.2,1.942,1.942,0,0,0,2-1.144A12.587,12.587,0,0,0-4.29-5.343c0-1.82-.962-2.327-2.21-2.327-.3,0-.78.026-1.313.078C-7.7-8.2-7.579-8.827-7.5-9.23-7.436-9.516-7.371-9.854-7.306-10.127Zm5.928-.988-.845.351A13.125,13.125,0,0,1-1.144-8.97L-.3-9.347A20.173,20.173,0,0,0-1.378-11.115Zm-1.482.546-.845.351a11.78,11.78,0,0,1,.923,1.586c-.013-.026-.039-.052-.052-.078l-1.209.533A15,15,0,0,1-1.781-3.419L-.494-4.03A22.741,22.741,0,0,0-2.639-8.424l.832-.351A19.044,19.044,0,0,0-2.86-10.569ZM7.93-7.41h2.431a12.939,12.939,0,0,1-1.2,3.926,14.45,14.45,0,0,1-1.248-3.9ZM4.68-1.5H2.223V-4H4.68Zm7.8-5.915V-8.554H8.307a18.676,18.676,0,0,0,.52-2.158l-1.222-.195A11.638,11.638,0,0,1,5.382-5.356a2.883,2.883,0,0,1,.312.221H4.082v-2.2h2.21V-8.45H4.082v-2.444H2.873V-8.45H.559v1.118H2.873v2.2H1.105v5.6H2.223V-.364H5.837V-5.031c.221.182.429.351.559.481A7.728,7.728,0,0,0,7.15-5.707a15.224,15.224,0,0,0,1.274,3.38,7.593,7.593,0,0,1-3.2,2.288A4.589,4.589,0,0,1,5.915,1.04a9.01,9.01,0,0,0,3.172-2.3,7.254,7.254,0,0,0,2.665,2.3,4.376,4.376,0,0,1,.832-1.053,6.34,6.34,0,0,1-2.73-2.3,14.144,14.144,0,0,0,1.716-5.1Zm8.06-.624a5.066,5.066,0,0,0-.351-1.027h2.522c-.13.338-.312.728-.442,1.027Zm-1.443-1a5.726,5.726,0,0,1,.351,1H17.589v.975H25.4v-.975h-2c.156-.286.325-.65.533-1.014l-.065-.013h1.261v-.962H22.035v-.884h-1.17v.884H18.044v.962h1.183ZM17.108-10.4l-.182.039h-2.86V1.027h1.066v-10.3h1.391c-.247.884-.585,2.041-.91,2.912a3.565,3.565,0,0,1,1.053,2.431c0,.377-.052.689-.234.819a.7.7,0,0,1-.4.117A3.918,3.918,0,0,1,15.366-3a2.361,2.361,0,0,1,.286,1.04,6.165,6.165,0,0,0,.858-.013,1.75,1.75,0,0,0,.7-.26,1.8,1.8,0,0,0,.533-1.547,3.935,3.935,0,0,0-1.079-2.7c.416-1.014.871-2.366,1.235-3.458Zm2.353,6.188H23.5V-3.5H19.461Zm0-1.443H23.5v.715H19.461ZM25.454-1.9H22.035v-.819h2.6V-6.435H18.369v3.718h2.5V-1.9H17.472v.975h3.393V1.014h1.17V-.923h3.419ZM30.6-10.2l-1.664-.013a7.523,7.523,0,0,1,.143,1.508c0,1.248-.13,4.6-.13,6.448,0,2.158,1.326,3,3.3,3a6.6,6.6,0,0,0,5.525-2.912L36.855-3.3A5.327,5.327,0,0,1,32.279-.624c-1.131,0-1.976-.468-1.976-1.846,0-1.794.091-4.8.156-6.24A11.857,11.857,0,0,1,30.6-10.2ZM46.41-3.133,45.2-3.25a7.64,7.64,0,0,0-.221,1.625c0,1.287,1.144,1.976,3.263,1.976A20.073,20.073,0,0,0,50.817.169l.039-1.313a14.691,14.691,0,0,1-2.6.26c-1.664,0-2.015-.533-2.015-1.118A4.773,4.773,0,0,1,46.41-3.133ZM44.928-10.3l-1.56-.117a5.318,5.318,0,0,1-.052,1.17c-.026.247-.091.585-.156.975-.455.039-.9.052-1.3.052a12.25,12.25,0,0,1-1.586-.1L40.3-7.046c.468.039.949.052,1.547.052.325,0,.676-.013,1.053-.026-.1.429-.208.858-.312,1.261A30.068,30.068,0,0,1,40.378.065l1.417.481a39.27,39.27,0,0,0,2.054-5.98c.143-.546.286-1.144.416-1.7a23.293,23.293,0,0,0,2.613-.442V-8.866a22.81,22.81,0,0,1-2.353.455c.065-.286.117-.546.156-.767C44.733-9.438,44.85-9.971,44.928-10.3Zm1.027,3.952v1.209a21.878,21.878,0,0,1,2.457-.143,16.428,16.428,0,0,1,2.21.169l.039-1.248a22.034,22.034,0,0,0-2.275-.1C47.554-6.461,46.657-6.409,45.955-6.344Z" transform="translate(294.038 2387)" fill="#fff"/>
    <path id="パス_9094" data-name="パス 9094" d="M4.005-12.63A15.7,15.7,0,0,1,.42-6.9,14.566,14.566,0,0,1,1.47-5.04c.345-.36.705-.765,1.05-1.2V1.275H4.35V-9.03a27.552,27.552,0,0,0,1.425-3.03ZM14.49-9.48H12.84v-3.06H10.98v3.06H5.265v1.8H10.98V-.87c0,.33-.135.45-.51.45-.345.015-1.665.015-2.82-.03a7.1,7.1,0,0,1,.69,1.77,10.663,10.663,0,0,0,3.51-.3c.72-.27.99-.735.99-1.89V-7.68h1.65Zm-4.9,6.345c-.45-.9-1.38-2.37-2.055-3.465l-1.59.735a38.837,38.837,0,0,1,1.95,3.6ZM26.7-10.74v.825h-8v-.825Zm1.8,2.19v-3.555H16.95V-7.7c0,2.385-.105,5.745-1.545,8.04a7.82,7.82,0,0,1,1.56.885C18.48-1.215,18.7-5.085,18.7-7.7V-8.55ZM26.805.105a9.284,9.284,0,0,0-.735-1.95l-1.02.255q.09.2.18.45l-.7.015v-.81h2.55v1.86c0,.15-.045.18-.195.18ZM21.12-4.65v-.705h1.8v.705Zm5.235-.705v.705h-1.83v-.705ZM28.71-3.09H24.525v-.57H28.02V-6.33H24.525v-.645a31.721,31.721,0,0,0,3.465-.48L26.985-8.46a46.893,46.893,0,0,1-7.68.615,3.946,3.946,0,0,1,.345,1.08c1.035,0,2.16-.03,3.27-.105v.54H19.545v2.67H22.92v.57H18.945v4.4h1.62v-3.24H22.92v.87L20.9-.99,21,.24c1.29-.075,2.955-.165,4.635-.27.06.21.12.405.15.57L26.04.465a3.321,3.321,0,0,1,.27.825A4.822,4.822,0,0,0,28.155,1.1c.45-.2.555-.5.555-1.17Zm11.415-5.3h-5.25V-10.41h5.25ZM41.94-12.12H33.15v5.43h8.79ZM35.01-3.735v2.58H32.775v-2.58Zm-3.915,5.04h1.68V.555H35.01V1.23h1.785V-5.445h-5.7Zm8.685-2.46v-2.58h2.385v2.58Zm-1.71-4.29v6.75h1.71V.555h2.385v.69h1.8v-6.69ZM49.26-1.7c0-.51.585-.93,1.65-.93a8.331,8.331,0,0,1,1.23.105c.015.27.015.48.015.645,0,.87-.525,1.095-1.32,1.095C49.8-.78,49.26-1.125,49.26-1.7Zm4.695-10.44H51.93a6.03,6.03,0,0,1,.09,1.035v.7h-.585a28,28,0,0,1-3.705-.33l.045,1.71a34.482,34.482,0,0,0,3.675.27h.555c-.015.51-.015,1.05-.015,1.545h-.72a26.506,26.506,0,0,1-3.615-.285l.015,1.77c.99.12,2.7.195,3.57.195h.78c.015.45.03.93.06,1.4-.3-.03-.615-.045-.93-.045-2.31,0-3.705,1.065-3.705,2.58C47.445,0,48.705.915,51.1.915c1.98,0,2.955-.99,2.955-2.265,0-.165,0-.345-.015-.555A11.5,11.5,0,0,1,57.075.18l1.08-1.68a11.744,11.744,0,0,0-4.2-2.265c-.045-.6-.075-1.215-.105-1.785,1.44-.045,2.61-.15,3.96-.3l.015-1.77c-1.215.165-2.49.285-4.005.36V-8.805c1.455-.075,2.82-.21,3.81-.33l.015-1.725a31.438,31.438,0,0,1-3.8.405c0-.24,0-.465.015-.615A10.13,10.13,0,0,1,53.955-12.135Zm7.08,1.845.195,2.055c1.74-.375,4.8-.7,6.21-.855a6,6,0,0,0-2.235,4.635c0,3.255,2.97,4.935,6.12,5.145l.705-2.055c-2.55-.135-4.86-1.02-4.86-3.5a4.558,4.558,0,0,1,3.18-4.2,15.583,15.583,0,0,1,2.9-.21l-.015-1.92c-1.065.045-2.7.135-4.245.27-2.745.225-5.22.45-6.48.555C62.22-10.335,61.635-10.305,61.035-10.29ZM71.1-7.8l-1.11.465A11.573,11.573,0,0,1,71.16-5.25l1.14-.51A18.619,18.619,0,0,0,71.1-7.8Zm1.68-.69-1.1.51a13.2,13.2,0,0,1,1.23,2.025L74.04-6.5A22.438,22.438,0,0,0,72.78-8.49Zm6.06-4.185a15.819,15.819,0,0,1-3.54,5.61,11.924,11.924,0,0,1,.96,1.83A17.094,17.094,0,0,0,77.4-6.57V1.275H79.1V-9.18a25.08,25.08,0,0,0,1.395-2.955Zm3.645,2.19h4.4v2.01h-4.4ZM89.4-3.93V-5.55H85.53V-6.9h3.135v-5.16H80.79V-6.9h2.94v1.35H79.8v1.62h3.075A10.776,10.776,0,0,1,79.26-.69,7.366,7.366,0,0,1,80.49.735,12.028,12.028,0,0,0,83.73-2.49v3.8h1.8v-3.87A12.386,12.386,0,0,0,88.575.765,7.594,7.594,0,0,1,89.835-.66,11.289,11.289,0,0,1,86.4-3.93Zm6.12-8.31H91.29v1.35h4.23ZM94.1-2.415v1.71h-1.44v-1.71Zm1.53-1.41h-4.47V1.29h1.5V.705h2.97ZM91.2-4.59h4.32V-5.94H91.2Zm4.32-3.435H91.2V-6.69h4.32ZM90.5-8.76H96.06v-1.41H90.5ZM101.58-.885v-4.14h2.6v-1.68h-2.6v-3.54h2.67V-11.94H96.525v1.695h3.3v9.36h-1.14V-8H97.02v7.11h-.915V.78h8.43V-.885Z" transform="translate(241.038 2535)" fill="#363636"/>
    <g id="グループ_4359" data-name="グループ 4359" transform="translate(-36.737 115)">
      <path id="パス_8548" data-name="パス 8548" d="M330.032,69.366l7.246-2.444,1.67-6.348-2.506-1.754-3.121,4.456-4.381-.249L327.21,59l3.122-4.458-2.506-1.754-5.394,3.743.179,7.642L310.824,81l-7.242,2.442-1.672,6.348,2.508,1.754,3.121-4.456,4.381.249,1.731,4.029-3.122,4.458,2.508,1.756,5.393-3.743L318.25,86.2l-.018-.012,11.784-16.831Z" transform="translate(-3.135 2274.216)" fill="#e66084"/>
      <path id="パス_8549" data-name="パス 8549" d="M323.412,95.65l3.285,2.3a2.6,2.6,0,0,0,3.611-.636l17.676-25.246.015.01,7.368-2.487,1.7-6.456-2.546-1.782-3.174,4.532-4.457-.253-1.76-4.1L348.305,57l-2.547-1.782-5.485,3.806.179,7.773L322.775,92.039a2.6,2.6,0,0,0,.637,3.611m2.66-2.413a1.22,1.22,0,1,1,.3,1.7,1.224,1.224,0,0,1-.3-1.7" transform="translate(4.466 2276.584)" fill="#e66084"/>
    </g>
  </g>
</svg>
