<svg xmlns="http://www.w3.org/2000/svg" xmlns:xlink="http://www.w3.org/1999/xlink" width="122" height="224" viewBox="0 0 122 224">
  <defs>
    <clipPath id="clip-path">
      <rect id="長方形_3555" data-name="長方形 3555" width="37.45" height="37.45" fill="#e66084"/>
    </clipPath>
  </defs>
  <g id="グループ_4453" data-name="グループ 4453" transform="translate(-233 -2344)">
    <path id="パス_9107" data-name="パス 9107" d="M10,0H112a10,10,0,0,1,10,10V214a10,10,0,0,1-10,10H10A10,10,0,0,1,0,214V10A10,10,0,0,1,10,0Z" transform="translate(233 2344)" fill="#fdeff2"/>
    <path id="合体_57" data-name="合体 57" d="M2940-1552v-54a10,10,0,0,1,10-10h102a10,10,0,0,1,10,10v54l-61,16Z" transform="translate(-2707 3960)" fill="#818181"/>
    <path id="パス_9108" data-name="パス 9108" d="M-48.464-10.894a14.312,14.312,0,0,1-2.912,4.927,8.725,8.725,0,0,1,.65,1.235,12.946,12.946,0,0,0,1.079-1.352v7.1h1.2V-8.034a18.156,18.156,0,0,0,1.118-2.522Zm4.407,5.031v2.444h-1.885V-5.863Zm1.118,3.484V-6.916h-4.147V-1.5h1.144v-.884Zm3.562-7.332h-7.995v1.157h5.915V-.52c0,.26-.091.325-.364.338s-1.2.013-2.132-.026a4.773,4.773,0,0,1,.416,1.235,8.191,8.191,0,0,0,2.6-.221c.507-.2.689-.546.689-1.313V-8.554h.871Zm6.331-.481-1.521-.156a14.53,14.53,0,0,1-.3,2.8c-.741.065-1.443.117-1.859.13-.442.013-.819.026-1.261,0l.13,1.4c.364-.065.962-.143,1.287-.182.3-.039.832-.1,1.43-.169a20.631,20.631,0,0,1-2.7,6.331L-36.5.494A27.144,27.144,0,0,0-33.813-6.5c.494-.052.923-.078,1.2-.078.819,0,1.326.2,1.326,1.313a10.566,10.566,0,0,1-.585,3.809,1.019,1.019,0,0,1-1.066.624,6.77,6.77,0,0,1-1.586-.26L-34.32.26a7.31,7.31,0,0,0,1.547.182,1.913,1.913,0,0,0,2-1.131,12.587,12.587,0,0,0,.741-4.719c0-1.82-.949-2.327-2.21-2.327-.3,0-.767.026-1.3.078.117-.611.234-1.235.312-1.638C-33.176-9.581-33.111-9.919-33.046-10.192Zm4.485,1.313-1.209.52a15.515,15.515,0,0,1,2.249,4.81l1.287-.6A22.515,22.515,0,0,0-28.561-8.879Zm8.957-1.482-1.339-.039a6.877,6.877,0,0,1-.039.689c-.026.26-.065.546-.091.871h-.715a18.322,18.322,0,0,1-2.262-.169l.039,1.209c.559.026,1.573.091,2.184.091h.637c-.052.559-.1,1.17-.13,1.768-1.807.845-3.237,2.574-3.237,4.251A1.565,1.565,0,0,0-22.919.052,4.474,4.474,0,0,0-20.8-.572c.065.234.13.442.195.637l1.183-.351c-.1-.325-.221-.663-.312-1.027a10.26,10.26,0,0,0,2.821-4.095,2.148,2.148,0,0,1,1.651,2.054c0,1.5-1.274,2.73-3.692,3l.7,1.079C-15.158.247-14-1.443-14-3.3a3.277,3.277,0,0,0-2.561-3.12c.091-.234.195-.559.273-.728l-1.274-.312a6.843,6.843,0,0,1-.156.845A3.529,3.529,0,0,0-18.1-6.63a8.426,8.426,0,0,0-2.08.286c.039-.481.078-.962.117-1.4A39.5,39.5,0,0,0-15.4-8.229l-.013-1.209a23.764,23.764,0,0,1-4.5.559c.052-.312.1-.611.156-.858A5.471,5.471,0,0,1-19.6-10.361Zm-.611,5.447v-.312a6.059,6.059,0,0,1,2.067-.364h.091A8.481,8.481,0,0,1-20.02-2.626,13.776,13.776,0,0,1-20.215-4.914Zm-3.12,2.99a3.765,3.765,0,0,1,1.976-2.782,16.92,16.92,0,0,0,.286,2.938,3.035,3.035,0,0,1-1.573.572C-23.114-1.2-23.335-1.443-23.335-1.924ZM-10.881-5.33l.546,1.352A17.79,17.79,0,0,1-5.083-5.512,1.85,1.85,0,0,1-3.029-3.705c0,1.963-2.353,2.756-5.239,2.847L-7.722.4c3.77-.234,6.032-1.651,6.032-4.1a2.969,2.969,0,0,0-3.289-3,17.617,17.617,0,0,0-4.615,1.04C-10-5.538-10.5-5.4-10.881-5.33ZM7.54-3.133,6.331-3.25A7.64,7.64,0,0,0,6.11-1.625C6.11-.338,7.254.351,9.373.351A20.073,20.073,0,0,0,11.947.169l.039-1.313a14.69,14.69,0,0,1-2.6.26C7.722-.884,7.371-1.417,7.371-2A4.773,4.773,0,0,1,7.54-3.133ZM6.058-10.3,4.5-10.413a5.318,5.318,0,0,1-.052,1.17c-.026.247-.091.585-.156.975-.455.039-.9.052-1.3.052A12.25,12.25,0,0,1,1.4-8.32L1.43-7.046c.468.039.949.052,1.547.052.325,0,.676-.013,1.053-.026-.1.429-.208.858-.312,1.261A30.068,30.068,0,0,1,1.508.065L2.925.546a39.271,39.271,0,0,0,2.054-5.98c.143-.546.286-1.144.416-1.7a23.293,23.293,0,0,0,2.613-.442V-8.866a22.811,22.811,0,0,1-2.353.455c.065-.286.117-.546.156-.767C5.863-9.438,5.98-9.971,6.058-10.3ZM7.085-6.344v1.209a21.878,21.878,0,0,1,2.457-.143,16.428,16.428,0,0,1,2.21.169l.039-1.248a22.034,22.034,0,0,0-2.275-.1C8.684-6.461,7.787-6.409,7.085-6.344Zm10.387-3.965-.325,1.235c1,.26,3.861.858,5.135,1.027l.3-1.261A38.1,38.1,0,0,1,17.472-10.309Zm-.117,2.47-1.378-.182a48.757,48.757,0,0,1-.663,5.343l1.2.286a2.645,2.645,0,0,1,.442-.689,4.88,4.88,0,0,1,3.835-1.651c1.248,0,2.145.689,2.145,1.651,0,1.716-2.028,2.8-6.045,2.288l.39,1.339c5.083.429,7.059-1.261,7.059-3.6,0-1.547-1.326-2.834-3.445-2.834a6.258,6.258,0,0,0-4.056,1.443C16.952-5.239,17.173-7.02,17.355-7.839Zm16.822-2.535h-1.5c.026.13.065.533.1.949.013.156.013.377.026.663-1.859.026-4.277.091-5.746.117L27.1-7.4c1.612-.1,3.744-.182,5.72-.208,0,.377.013.767.013,1.105a2.6,2.6,0,0,0-.728-.091,2.348,2.348,0,0,0-2.418,2.34,2.171,2.171,0,0,0,2.184,2.262,2.036,2.036,0,0,0,.91-.2A5,5,0,0,1,29.432-.273l1.1,1.092c3.081-.9,4-2.938,4-4.667a3.2,3.2,0,0,0-.455-1.729c0-.585,0-1.339-.013-2.041,1.885,0,3.12.026,3.887.065l.026-1.222h-3.9c0-.26,0-.494.013-.65A7.575,7.575,0,0,1,34.177-10.374Zm-3.263,6.1A1.171,1.171,0,0,1,32.1-5.5a1.072,1.072,0,0,1,1.014.624C33.28-3.653,32.773-3.12,32.1-3.12A1.141,1.141,0,0,1,30.914-4.277ZM47.268-7.449l-.845.351c.338.507.806,1.4,1.079,1.937l.884-.377C48.126-6.019,47.606-6.968,47.268-7.449Zm1.547-.6-.858.364a19.644,19.644,0,0,1,1.118,1.9l.871-.377C49.673-6.656,49.153-7.579,48.815-8.047ZM48.009-9.49,46.8-10.569a7.807,7.807,0,0,1-.858.975c-.884.871-2.769,2.379-3.757,3.211-1.235,1.027-1.365,1.651-.1,2.7,1.2,1.014,3.146,2.678,4,3.562.338.338.689.7,1,1.053l1.17-1.079C46.9-1.5,44.538-3.38,43.446-4.29c-.78-.663-.78-.832-.039-1.469.923-.78,2.73-2.2,3.588-2.925C47.255-8.892,47.671-9.243,48.009-9.49ZM-39.624,14.482l.013,1.326a33.132,33.132,0,0,0,5.447,0V14.482A23.956,23.956,0,0,1-39.624,14.482Zm.741,5.408-1.17-.1a6.585,6.585,0,0,0-.221,1.6c0,1.261,1.014,2.028,3.224,2.028a17.836,17.836,0,0,0,3.289-.26l-.026-1.391a13.96,13.96,0,0,1-3.237.351c-1.573,0-2.028-.481-2.028-1.066A4.516,4.516,0,0,1-38.883,19.89Zm-3-6.344-1.443-.13a9.45,9.45,0,0,1-.117,1.079,37.515,37.515,0,0,0-.559,5.187,16.52,16.52,0,0,0,.481,4.2l1.183-.078c-.013-.156-.026-.351-.026-.481a2.541,2.541,0,0,1,.065-.6c.13-.65.585-2.041.923-3.029l-.65-.52c-.208.481-.468,1.118-.689,1.651a12.827,12.827,0,0,1-.078-1.391,31.176,31.176,0,0,1,.637-4.9A9.324,9.324,0,0,1-41.886,13.546Zm15.067,5.135v-.858h1.7v.858Zm0-2.535h1.7v.845h-1.7Zm4.628,0v.845h-1.755v-.845Zm0,2.535h-1.755v-.858h1.755Zm-2.925,3.991h1.17V21.307h3.718v-.988h-3.718v-.767h2.912V15.288h-2.912v-.741h3.536v-1h-3.536V12.493h-1.17v1.053H-28.5v1h3.38v.741h-2.821v4.264h2.821v.767h-3.562v.988h3.562ZM-28.808,14.9a9.664,9.664,0,0,0-2.054-2.08l-.923.676a9.282,9.282,0,0,1,2,2.171Zm-.351,2.639h-2.717v1.118h1.56v3.133a17.925,17.925,0,0,1-1.7,1.326l.6,1.2c.637-.559,1.209-1.079,1.755-1.612a4.332,4.332,0,0,0,3.523,1.495c1.508.052,4.264.026,5.759-.039a5.265,5.265,0,0,1,.39-1.183c-1.651.117-4.667.156-6.136.091A3.459,3.459,0,0,1-29.159,21.7Zm10.777,2.392a9.825,9.825,0,0,1-.767,3.042,5.081,5.081,0,0,1,.923.455,12.037,12.037,0,0,0,.871-3.315Zm2.73.182a13.9,13.9,0,0,1,.767,2.379l.923-.312a15.018,15.018,0,0,0-.819-2.353Zm2.834-.52a11.428,11.428,0,0,0,2.288-1.547,11.3,11.3,0,0,0,2.483,1.547Zm.546,3.2V20.631h3.263v2.158Zm.429-8.047h2.6a7.866,7.866,0,0,1-1.326,1.82,8.18,8.18,0,0,1-1.4-1.638ZM-8.45,13.65l-.208.052h-2.548c.182-.338.351-.676.494-1l-1.17-.208a9.172,9.172,0,0,1-2.873,3.757,3.071,3.071,0,0,1,.806.78,11.65,11.65,0,0,0,1.287-1.235A10.823,10.823,0,0,0-11.375,17.3a10.752,10.752,0,0,1-2.717,1.6,10.848,10.848,0,0,0-1.053-2.236l-.819.338c.182.325.364.689.533,1.053-.559.039-1.1.065-1.625.078.845-1.092,1.781-2.509,2.509-3.692l-1-.455c-.325.663-.767,1.456-1.235,2.223a9.4,9.4,0,0,0-.624-.715c.468-.715,1.014-1.716,1.469-2.587L-17,12.493a14.99,14.99,0,0,1-1.066,2.353c-.117-.1-.234-.208-.351-.3l-.585.793a12.263,12.263,0,0,1,1.612,1.82c-.247.364-.507.715-.741,1.027l-.91.026.1,1.066c.585-.039,1.248-.078,1.963-.117V24.44H-15.9V19.1l.858-.052a6.341,6.341,0,0,1,.2.689l.676-.312a3.709,3.709,0,0,1,.4.6c.117-.052.247-.1.364-.156v4.563h1.131v-.585h3.263V24.4h1.183V19.695l.26.1a6.2,6.2,0,0,1,.793-.975,10.735,10.735,0,0,1-2.951-1.56,9.845,9.845,0,0,0,2.015-3.2Zm8.086-.6-1.352-.1a6.474,6.474,0,0,1-.3,1.547c-.26.013-.52.013-.767.013a16.8,16.8,0,0,1-2.236-.143v1.222c.728.052,1.625.078,2.171.078h.377a13.062,13.062,0,0,1-2.938,3.8l1.118.832A14.139,14.139,0,0,1-3.107,18.9a3.313,3.313,0,0,1,2.158-.936,1.046,1.046,0,0,1,1.066.65C-1.391,19.383-2.951,20.4-2.951,22s1.508,2.067,3.445,2.067a33.1,33.1,0,0,0,3.614-.234l.039-1.313a22.137,22.137,0,0,1-3.614.338c-1.313,0-2.158-.182-2.158-1.066,0-.767.7-1.365,1.82-1.976-.013.637-.026,1.378-.052,1.833H1.378c-.013-.624-.026-1.664-.039-2.405.91-.416,1.755-.754,2.418-1.014.39-.156.949-.364,1.326-.481l-.533-1.2c-.416.208-.793.377-1.235.572-.611.286-1.274.559-2.08.936a1.711,1.711,0,0,0-1.742-1.1,3.818,3.818,0,0,0-1.664.39,10.432,10.432,0,0,0,1-1.716,40.167,40.167,0,0,0,4.277-.338V14.079a29.971,29.971,0,0,1-3.822.377C-.546,13.9-.442,13.416-.364,13.052Zm11.466.143-1.664-.013a7.523,7.523,0,0,1,.143,1.508c0,1.248-.13,4.6-.13,6.448,0,2.158,1.326,3,3.3,3a6.6,6.6,0,0,0,5.525-2.912L17.355,20.1a5.327,5.327,0,0,1-4.576,2.678c-1.131,0-1.976-.468-1.976-1.846,0-1.794.091-4.8.156-6.24A11.857,11.857,0,0,1,11.1,13.195ZM26.91,20.267,25.7,20.15a7.64,7.64,0,0,0-.221,1.625c0,1.287,1.144,1.976,3.263,1.976a20.073,20.073,0,0,0,2.574-.182l.039-1.313a14.691,14.691,0,0,1-2.6.26c-1.664,0-2.015-.533-2.015-1.118A4.773,4.773,0,0,1,26.91,20.267ZM25.428,13.1l-1.56-.117a5.318,5.318,0,0,1-.052,1.17c-.026.247-.091.585-.156.975-.455.039-.9.052-1.3.052a12.25,12.25,0,0,1-1.586-.1l.026,1.274c.468.039.949.052,1.547.052.325,0,.676-.013,1.053-.026-.1.429-.208.858-.312,1.261a30.068,30.068,0,0,1-2.21,5.824l1.417.481a39.271,39.271,0,0,0,2.054-5.98c.143-.546.286-1.144.416-1.7a23.294,23.294,0,0,0,2.613-.442V14.534a22.811,22.811,0,0,1-2.353.455c.065-.286.117-.546.156-.767C25.233,13.962,25.35,13.429,25.428,13.1Zm1.027,3.952v1.209a21.878,21.878,0,0,1,2.457-.143,16.428,16.428,0,0,1,2.21.169l.039-1.248a22.034,22.034,0,0,0-2.275-.1C28.054,16.939,27.157,16.991,26.455,17.056Zm9.152-2.821-1.586-.026a6.651,6.651,0,0,1,.1,1.222c0,.78.013,2.34.143,3.484.351,3.419,1.56,4.667,2.873,4.667.949,0,1.755-.767,2.574-2.99l-1.027-1.209c-.3,1.183-.871,2.6-1.521,2.6-.871,0-1.4-1.378-1.6-3.419a29.106,29.106,0,0,1-.091-2.925A10.642,10.642,0,0,1,35.607,14.235Zm6.656.325-1.287.429c1.313,1.56,2.054,4.446,2.275,6.682l1.339-.52A14.16,14.16,0,0,0,42.263,14.56Z" transform="translate(294 2375)" fill="#fff"/>
    <path id="パス_9109" data-name="パス 9109" d="M-40.965-6.45h2.76v.765h-2.76Zm0-1.905h2.76v.765h-2.76Zm7.365,0v.765h-2.865v-.765Zm0,2.67h-2.865V-6.45H-33.6Zm3.12,2.01h-3.225v-.8h1.845v-5.1h-4.6v-.675h5.625V-11.7h-5.625v-.99h-1.74v.99H-43.71v1.455h5.505v.675h-4.41v5.1h7.155v.8h-8.6v1.5h3.21l-1.08.765A11.007,11.007,0,0,1-39.78.69l1.425-1.05a10.308,10.308,0,0,0-1.98-1.815h4.875v1.7c0,.195-.09.255-.33.27-.255,0-1.2,0-1.995-.03a6.065,6.065,0,0,1,.555,1.56,8.822,8.822,0,0,0,2.715-.24c.63-.24.81-.645.81-1.5V-2.175h3.225Zm9.255-1.08V-6.6h3.165v1.845Zm-4.665,0c.03-.555.045-1.1.045-1.575V-6.6h2.82v1.845Zm2.865-5.25v1.74h-2.82v-1.74Zm4.965,1.74h-3.165v-1.74h3.165Zm1.77-3.435H-27.615v5.355c0,2.1-.135,4.77-1.77,6.57a6.589,6.589,0,0,1,1.41,1.155,8.59,8.59,0,0,0,1.89-4.455h3.06V1.11h1.8V-3.075h3.165v2.25c0,.27-.1.36-.39.36s-1.26.015-2.1-.03a6.744,6.744,0,0,1,.57,1.71A6.966,6.966,0,0,0-17.1.9c.6-.27.81-.75.81-1.71Zm13.2-.615-1.185.48a15.445,15.445,0,0,1,.975,1.71,4.729,4.729,0,0,1-1.17.135H-7.53c.18-.33.57-1.005.93-1.53L-8.775-12.2a6.787,6.787,0,0,1-.675,1.56,14,14,0,0,1-4.785,4.98l1.62,1.26A18.041,18.041,0,0,0-8.655-8.28h4.29A11.082,11.082,0,0,1-6-4.965c-.96-.645-1.905-1.26-2.7-1.71L-10.035-5.31c.765.495,1.755,1.17,2.73,1.875A12.458,12.458,0,0,1-12.8-.165l1.74,1.515A14.05,14.05,0,0,0-5.7-2.2c.615.495,1.17.96,1.575,1.335l1.44-1.7c-.45-.36-1.035-.8-1.68-1.26a16.232,16.232,0,0,0,2.22-4.32,8.04,8.04,0,0,1,.495-1.08l-1.1-.675.84-.36A19.068,19.068,0,0,0-3.09-12.315Zm1.77-.69-1.185.495A15.9,15.9,0,0,1-1.29-10.44l1.185-.525A23.461,23.461,0,0,0-1.32-13.005Zm2.475,7.17L2.1-3.945a30.056,30.056,0,0,0,5.3-2.16v4.8A16.8,16.8,0,0,1,7.29.66H9.66a10.313,10.313,0,0,1-.135-1.965v-6.06A27.514,27.514,0,0,0,13.56-10.62l-1.62-1.545A19.23,19.23,0,0,1,7.71-8.52,24.12,24.12,0,0,1,1.155-5.835Zm18.99-6.405-2.2.495a5.719,5.719,0,0,1,.51,1.32c.105.375.27.975.465,1.68-.84.165-1.485.27-1.725.315-.585.09-1.11.15-1.7.21L16.02-6.2c.54-.135,1.86-.42,3.39-.735.675,2.52,1.44,5.46,1.71,6.375a15,15,0,0,1,.33,1.53L23.685.45c-.15-.375-.375-1.1-.48-1.41-.3-1.005-1.08-3.84-1.785-6.39,2.1-.42,4.1-.825,4.545-.9a14.363,14.363,0,0,1-2.79,3.345l1.935.915a28.8,28.8,0,0,0,3.765-5.52l-1.38-.99a3.417,3.417,0,0,1-.885.27c-.72.165-3.36.675-5.67,1.11-.195-.69-.375-1.305-.51-1.785A12.037,12.037,0,0,1,20.145-12.24ZM37.32-.33,38.58.705a3.2,3.2,0,0,1,.645-.45,16.516,16.516,0,0,0,5.085-4.1L43.155-5.49A9.5,9.5,0,0,1,39.45-2.325V-10.17a7.617,7.617,0,0,1,.1-1.305H37.32a6.649,6.649,0,0,1,.12,1.29V-1.44A5.708,5.708,0,0,1,37.32-.33ZM30.375-.555,32.205.66a8.8,8.8,0,0,0,2.67-4.305,33.1,33.1,0,0,0,.45-6.45,9.88,9.88,0,0,1,.1-1.365h-2.2a5.692,5.692,0,0,1,.135,1.38,25.848,25.848,0,0,1-.435,5.94A7.076,7.076,0,0,1,30.375-.555ZM-8.595,21.72a5.712,5.712,0,0,0-6.06-5.85,6.665,6.665,0,0,0-6.885,6.42c0,2.535,1.38,4.365,3.045,4.365,1.635,0,2.925-1.86,3.825-4.89a30.335,30.335,0,0,0,.9-4.065,3.708,3.708,0,0,1,3.15,3.96,4.071,4.071,0,0,1-3.42,4.02,11.537,11.537,0,0,1-1.395.24L-14.31,27.7C-10.53,27.12-8.595,24.885-8.595,21.72Zm-11.025.375a4.722,4.722,0,0,1,3.81-4.35,22.515,22.515,0,0,1-.8,3.63c-.615,2.025-1.2,2.97-1.83,2.97C-19.02,24.345-19.62,23.61-19.62,22.095ZM4.305,16.77H.255v-.75h4.05Zm0,1.9H.255V17.91h4.05Zm1.71-3.915H-1.38v5.175H6.015ZM-2.13,22.245l-.24-1.6L-3.72,21V18.78h1.5V17.13h-1.5V14.295H-5.34V17.13H-6.96v1.65h1.62v2.655c-.675.165-1.275.33-1.785.435l.405,1.725c.435-.12.885-.255,1.38-.39v3c0,.195-.075.255-.255.255-.18.015-.69.015-1.245,0a5.864,5.864,0,0,1,.465,1.635A3.7,3.7,0,0,0-4.3,27.75c.45-.27.585-.7.585-1.53v-3.5ZM3.105,24.78H5.97v-1.4H3.105v-1.32h3.66v-1.44H-2.1v1.44H1.425V25.98a3.367,3.367,0,0,1-1.3-1.755A13.634,13.634,0,0,0,.405,22.71l-1.62-.195A6.693,6.693,0,0,1-3.3,27.21a10.24,10.24,0,0,1,1.32,1.065A6.6,6.6,0,0,0-.42,25.92c1.02,1.815,2.535,2.175,4.5,2.175H6.69a5.259,5.259,0,0,1,.48-1.56c-.645.015-2.505.015-3.015.015-.375,0-.7-.015-1.05-.045Zm8.07-10.455a15.684,15.684,0,0,1-3.42,5.61,10.441,10.441,0,0,1,.96,1.86c.315-.345.63-.7.945-1.11V28.29h1.755V17.97a27.51,27.51,0,0,0,1.425-3.12ZM14.67,24.27a9.323,9.323,0,0,1-2.715,2.865,9.958,9.958,0,0,1,1.4,1.125,13.845,13.845,0,0,0,2.985-3.48Zm3.27.765a17.156,17.156,0,0,1,2.475,3.255l1.5-.945a18.573,18.573,0,0,0-2.55-3.09Zm-1.935-6.1H18.18v2.985H16.005Zm3.915,2.985V18.93h1.95V17.22H19.92V14.4H18.18v2.82H16.005V14.415h-1.74V17.22H12.63v1.71h1.635v2.985h-2.01v1.74H21.99v-1.74Z" transform="translate(294 2521)" fill="#363636"/>
    <g id="グループ_4301" data-name="グループ 4301" transform="translate(-46.104 112.316)">
      <g id="グループ_4177" data-name="グループ 4177" transform="translate(377.071 2340.493) rotate(110)">
        <g id="グループ_4176" data-name="グループ 4176" transform="translate(0 0)" clip-path="url(#clip-path)">
          <path id="パス_7890" data-name="パス 7890" d="M1.512,10.963l-.479-.479A3.054,3.054,0,0,1,.6,6.392L6.021.97S7.785-.988,9.434.66l1.191,1.191Z" transform="translate(0.156 23.477)" fill="#e66084"/>
          <path id="パス_7891" data-name="パス 7891" d="M1.851,10.625.66,9.434C-.988,7.786.97,6.021.97,6.021L6.392.6a3.055,3.055,0,0,1,4.092.434l.48.479Z" transform="translate(23.191 0.442)" fill="#e66084"/>
          <path id="パス_7892" data-name="パス 7892" d="M0,32.486l9.112-9.112.82.82s.741,1.263,3.547-1.025a50.038,50.038,0,0,0,4.995-4.542l.076-.076.076-.076a50.162,50.162,0,0,0,4.542-4.994c2.289-2.806,1.025-3.547,1.025-3.547l-.82-.82L32.486,0l.141.141a5.91,5.91,0,0,1,1.711,3.373c.026,3.595-.306,11.49-9.786,20.993l-.022.022-.022.022h0c-9.5,9.48-17.4,9.812-20.994,9.786A5.91,5.91,0,0,1,.141,32.627L0,32.486" transform="translate(2.826 3.112)" fill="#e66084"/>
        </g>
      </g>
      <path id="パス_8583" data-name="パス 8583" d="M478.029,216.782a1.648,1.648,0,0,0,1.958-1.28,11.513,11.513,0,0,0-4.418-11.669,1.655,1.655,0,0,0-1.964,2.663,8.181,8.181,0,0,1,2.8,3.7,8.276,8.276,0,0,1,.346,4.632,1.652,1.652,0,0,0,1.28,1.958" transform="translate(-110.273 2132.938)" fill="#e66084"/>
      <path id="パス_8584" data-name="パス 8584" d="M485.776,219.9a20.819,20.819,0,0,0-7.662-20.266,1.655,1.655,0,0,0-2.032,2.612,17.506,17.506,0,0,1,6.442,17.039,1.652,1.652,0,0,0,1.318,1.932,1.679,1.679,0,0,0,.309.03,1.656,1.656,0,0,0,1.625-1.348" transform="translate(-109.034 2132.15)" fill="#e66084"/>
      <path id="パス_8588" data-name="パス 8588" d="M430.111,212.126h2.9l2.822,9.679,2.849-9.679h2.822l-4.437,12.75H434.5Z" transform="translate(-126.006 2133.786)" fill="#e66084"/>
      <path id="パス_9110" data-name="パス 9110" d="M0,0H2.7V12.75H0Z" transform="translate(316.736 2345.913)" fill="#e66084"/>
      <path id="パス_8589" data-name="パス 8589" d="M448.748,220.292h-2.758v4.584h-2.7v-12.75h5.662a4.676,4.676,0,0,1,3.122.988,3.783,3.783,0,0,1,1.164,3.052,3.881,3.881,0,0,1-1.164,3.194,5.209,5.209,0,0,1-3.326.933m1.27-2.656a1.826,1.826,0,0,0,.528-1.451,1.708,1.708,0,0,0-.531-1.418,2.356,2.356,0,0,0-1.5-.425h-2.529v3.752h2.529a2.228,2.228,0,0,0,1.5-.457" transform="translate(-121.002 2133.786)" fill="#e66084"/>
    </g>
  </g>
</svg>
