<svg xmlns="http://www.w3.org/2000/svg" xmlns:xlink="http://www.w3.org/1999/xlink" width="210" height="262" viewBox="0 0 210 262">
  <defs>
    <clipPath id="clip-path">
      <rect id="長方形_3555" data-name="長方形 3555" width="49.933" height="49.933" transform="translate(0 0)" fill="#e66084"/>
    </clipPath>
  </defs>
  <g id="グループ_4370" data-name="グループ 4370" transform="translate(-923 -2570)">
    <path id="パス_9055" data-name="パス 9055" d="M10,0H200a10,10,0,0,1,10,10V252a10,10,0,0,1-10,10H10A10,10,0,0,1,0,252V10A10,10,0,0,1,10,0Z" transform="translate(923 2570)" fill="#fdeff2"/>
    <path id="合体_65" data-name="合体 65" d="M5290,82V20a10,10,0,0,1,10-10h190a10,10,0,0,1,10,10V82L5395,98Z" transform="translate(-4367 2560)" fill="#818181"/>
    <path id="パス_9056" data-name="パス 9056" d="M-41.07-12.57a16.514,16.514,0,0,1-3.36,5.685,10.067,10.067,0,0,1,.75,1.425,14.937,14.937,0,0,0,1.245-1.56V1.17h1.38V-9.27a20.95,20.95,0,0,0,1.29-2.91Zm5.085,5.805v2.82H-38.16v-2.82Zm1.29,4.02V-7.98H-39.48v6.255h1.32v-1.02Zm4.11-8.46H-39.81V-9.87h6.825V-.6c0,.3-.1.375-.42.39-.3,0-1.38.015-2.46-.03a5.507,5.507,0,0,1,.48,1.425,9.451,9.451,0,0,0,3-.255c.585-.225.795-.63.795-1.515V-9.87h1.005Zm7.305-.555-1.755-.18a16.766,16.766,0,0,1-.345,3.225c-.855.075-1.665.135-2.145.15-.51.015-.945.03-1.455,0l.15,1.62c.42-.075,1.11-.165,1.485-.21.345-.045.96-.12,1.65-.2a23.8,23.8,0,0,1-3.12,7.305L-27.27.57A31.32,31.32,0,0,0-24.165-7.5c.57-.06,1.065-.09,1.38-.09.945,0,1.53.225,1.53,1.515a12.192,12.192,0,0,1-.675,4.4,1.175,1.175,0,0,1-1.23.72,7.812,7.812,0,0,1-1.83-.3L-24.75.3a8.435,8.435,0,0,0,1.785.21A2.207,2.207,0,0,0-20.655-.8,14.524,14.524,0,0,0-19.8-6.24c0-2.1-1.1-2.685-2.55-2.685-.345,0-.885.03-1.5.09.135-.7.27-1.425.36-1.89C-23.43-11.055-23.355-11.445-23.28-11.76Zm5.175,1.515-1.4.6A17.9,17.9,0,0,1-16.9-4.1l1.485-.69A25.979,25.979,0,0,0-18.1-10.245Zm10.335-1.71L-9.315-12a7.935,7.935,0,0,1-.045.795c-.03.3-.075.63-.105,1.005h-.825a21.141,21.141,0,0,1-2.61-.2l.045,1.4c.645.03,1.815.1,2.52.1H-9.6c-.06.645-.12,1.35-.15,2.04-2.085.975-3.735,2.97-3.735,4.905A1.806,1.806,0,0,0-11.595.06,5.162,5.162,0,0,0-9.15-.66c.075.27.15.51.225.735L-7.56-.33c-.12-.375-.255-.765-.36-1.185A11.839,11.839,0,0,0-4.665-6.24,2.479,2.479,0,0,1-2.76-3.87c0,1.725-1.47,3.15-4.26,3.465L-6.21.84C-2.64.285-1.3-1.665-1.3-3.81A3.781,3.781,0,0,0-4.26-7.41c.105-.27.225-.645.315-.84l-1.47-.36a7.9,7.9,0,0,1-.18.975A4.072,4.072,0,0,0-6.03-7.65a9.722,9.722,0,0,0-2.4.33c.045-.555.09-1.11.135-1.62a45.572,45.572,0,0,0,5.37-.555l-.015-1.4a27.42,27.42,0,0,1-5.19.645c.06-.36.12-.7.18-.99A6.313,6.313,0,0,1-7.77-11.955Zm-.7,6.285v-.36A6.991,6.991,0,0,1-6.09-6.45h.1A9.786,9.786,0,0,1-8.25-3.03,15.9,15.9,0,0,1-8.475-5.67Zm-3.6,3.45A4.344,4.344,0,0,1-9.8-5.43a19.523,19.523,0,0,0,.33,3.39,3.5,3.5,0,0,1-1.815.66C-11.82-1.38-12.075-1.665-12.075-2.22ZM2.3-6.15l.63,1.56C4.02-5.055,7.17-6.36,8.985-6.36a2.135,2.135,0,0,1,2.37,2.085C11.355-2.01,8.64-1.1,5.31-.99L5.94.465C10.29.2,12.9-1.44,12.9-4.26c0-2.145-1.56-3.465-3.8-3.465a20.328,20.328,0,0,0-5.325,1.2C3.315-6.39,2.73-6.225,2.3-6.15ZM23.55-3.615l-1.4-.135A8.815,8.815,0,0,0,21.9-1.875c0,1.485,1.32,2.28,3.765,2.28A23.161,23.161,0,0,0,28.635.2L28.68-1.32a16.951,16.951,0,0,1-3,.3c-1.92,0-2.325-.615-2.325-1.29A5.507,5.507,0,0,1,23.55-3.615ZM21.84-11.88l-1.8-.135a6.136,6.136,0,0,1-.06,1.35c-.03.285-.1.675-.18,1.125-.525.045-1.035.06-1.5.06a14.135,14.135,0,0,1-1.83-.12l.03,1.47c.54.045,1.095.06,1.785.06.375,0,.78-.015,1.215-.03-.12.495-.24.99-.36,1.455A34.694,34.694,0,0,1,16.59.075L18.225.63a45.313,45.313,0,0,0,2.37-6.9c.165-.63.33-1.32.48-1.965a26.877,26.877,0,0,0,3.015-.51V-10.23a26.32,26.32,0,0,1-2.715.525c.075-.33.135-.63.18-.885C21.615-10.89,21.75-11.505,21.84-11.88Zm1.185,4.56v1.4A25.244,25.244,0,0,1,25.86-6.09a18.956,18.956,0,0,1,2.55.2l.045-1.44a25.424,25.424,0,0,0-2.625-.12C24.87-7.455,23.835-7.4,23.025-7.32ZM35.01-11.9l-.375,1.425c1.155.3,4.455.99,5.925,1.185L40.9-10.74A43.959,43.959,0,0,1,35.01-11.9Zm-.135,2.85-1.59-.21A56.259,56.259,0,0,1,32.52-3.09l1.38.33a3.052,3.052,0,0,1,.51-.8A5.63,5.63,0,0,1,38.835-5.46c1.44,0,2.475.8,2.475,1.905,0,1.98-2.34,3.225-6.975,2.64L34.785.63c5.865.495,8.145-1.455,8.145-4.155,0-1.785-1.53-3.27-3.975-3.27a7.221,7.221,0,0,0-4.68,1.665C34.41-6.045,34.665-8.1,34.875-9.045ZM-57.915,15.03H-59.64c.03.15.075.615.12,1.1.015.18.015.435.03.765-2.145.03-4.935.1-6.63.135l.045,1.44c1.86-.12,4.32-.21,6.6-.24,0,.435.015.885.015,1.275a3,3,0,0,0-.84-.1,2.709,2.709,0,0,0-2.79,2.7,2.505,2.505,0,0,0,2.52,2.61,2.35,2.35,0,0,0,1.05-.225,5.763,5.763,0,0,1-3.87,2.2l1.275,1.26c3.555-1.035,4.62-3.39,4.62-5.385a3.694,3.694,0,0,0-.525-2c0-.675,0-1.545-.015-2.355,2.175,0,3.6.03,4.485.075l.03-1.41h-4.5c0-.3,0-.57.015-.75A8.741,8.741,0,0,1-57.915,15.03Zm-3.765,7.035a1.352,1.352,0,0,1,1.365-1.41,1.237,1.237,0,0,1,1.17.72c.2,1.41-.39,2.025-1.17,2.025A1.316,1.316,0,0,1-61.68,22.065Zm18.87-3.66-.975.405c.39.585.93,1.62,1.245,2.235l1.02-.435C-41.82,20.055-42.42,18.96-42.81,18.4Zm1.785-.69-.99.42a22.668,22.668,0,0,1,1.29,2.19l1-.435C-40.035,19.32-40.635,18.255-41.025,17.715Zm-.93-1.665L-43.35,14.8a9.008,9.008,0,0,1-.99,1.125c-1.02,1.005-3.195,2.745-4.335,3.705-1.425,1.185-1.575,1.9-.12,3.12,1.38,1.17,3.63,3.09,4.62,4.11.39.39.8.81,1.155,1.215l1.35-1.245c-1.56-1.56-4.29-3.735-5.55-4.785-.9-.765-.9-.96-.045-1.695,1.065-.9,3.15-2.535,4.14-3.375C-42.825,16.74-42.345,16.335-41.955,16.05Zm11.235.66.015,1.53a38.229,38.229,0,0,0,6.285,0V16.71A27.642,27.642,0,0,1-30.72,16.71Zm.855,6.24-1.35-.12a7.6,7.6,0,0,0-.255,1.845c0,1.455,1.17,2.34,3.72,2.34a20.58,20.58,0,0,0,3.8-.3l-.03-1.6a16.108,16.108,0,0,1-3.735.4c-1.815,0-2.34-.555-2.34-1.23A5.211,5.211,0,0,1-29.865,22.95Zm-3.465-7.32-1.665-.15a10.9,10.9,0,0,1-.135,1.245,43.287,43.287,0,0,0-.645,5.985,19.061,19.061,0,0,0,.555,4.845l1.365-.09c-.015-.18-.03-.405-.03-.555a2.932,2.932,0,0,1,.075-.69c.15-.75.675-2.355,1.065-3.5l-.75-.6c-.24.555-.54,1.29-.8,1.9a14.8,14.8,0,0,1-.09-1.6,35.973,35.973,0,0,1,.735-5.655A10.758,10.758,0,0,1-33.33,15.63Zm17.385,5.925v-.99h1.965v.99Zm0-2.925h1.965V19.6h-1.965Zm5.34,0V19.6H-12.63V18.63Zm0,2.925H-12.63v-.99H-10.6Zm-3.375,4.6h1.35V24.585h4.29v-1.14h-4.29V22.56h3.36V17.64h-3.36v-.855h4.08V15.63h-4.08V14.415h-1.35V15.63h-3.9v1.155h3.9v.855h-3.255v4.92h3.255v.885h-4.11v1.14h4.11Zm-4.26-8.97a11.15,11.15,0,0,0-2.37-2.4l-1.065.78a10.71,10.71,0,0,1,2.31,2.505Zm-.405,3.045H-21.78v1.29h1.8V25.14a20.683,20.683,0,0,1-1.965,1.53l.69,1.38c.735-.645,1.395-1.245,2.025-1.86a5,5,0,0,0,4.065,1.725c1.74.06,4.92.03,6.645-.045A6.074,6.074,0,0,1-8.07,26.5c-1.905.135-5.385.18-7.08.105-1.665-.075-2.85-.54-3.5-1.575Zm12.435,2.76a11.336,11.336,0,0,1-.885,3.51,5.863,5.863,0,0,1,1.065.525A13.889,13.889,0,0,0-5.025,23.2Zm3.15.21a16.044,16.044,0,0,1,.885,2.745l1.065-.36a17.329,17.329,0,0,0-.945-2.715Zm3.27-.6A13.187,13.187,0,0,0,2.85,20.82,13.034,13.034,0,0,0,5.715,22.6ZM.84,26.3v-2.49H4.605V26.3Zm.495-9.285h3a9.076,9.076,0,0,1-1.53,2.1,9.438,9.438,0,0,1-1.62-1.89ZM5.25,15.75l-.24.06H2.07c.21-.39.405-.78.57-1.155l-1.35-.24A10.583,10.583,0,0,1-2.025,18.75a3.543,3.543,0,0,1,.93.9A13.442,13.442,0,0,0,.39,18.225a12.488,12.488,0,0,0,1.485,1.74A12.406,12.406,0,0,1-1.26,21.81a12.517,12.517,0,0,0-1.215-2.58l-.945.39c.21.375.42.8.615,1.215-.645.045-1.275.075-1.875.09.975-1.26,2.055-2.9,2.895-4.26L-2.94,16.14c-.375.765-.885,1.68-1.425,2.565a10.847,10.847,0,0,0-.72-.825c.54-.825,1.17-1.98,1.7-2.985l-1.23-.48A17.3,17.3,0,0,1-5.85,17.13c-.135-.12-.27-.24-.405-.345l-.675.915a14.149,14.149,0,0,1,1.86,2.1c-.285.42-.585.825-.855,1.185l-1.05.03.12,1.23c.675-.045,1.44-.09,2.265-.135V28.2h1.245V22.035l.99-.06a7.317,7.317,0,0,1,.225.8l.78-.36a4.279,4.279,0,0,1,.465.69c.135-.06.285-.12.42-.18v5.265H.84V27.51H4.605v.645H5.97v-5.43l.3.12a7.154,7.154,0,0,1,.915-1.125,12.386,12.386,0,0,1-3.4-1.8,11.359,11.359,0,0,0,2.325-3.69Zm9.33-.69-1.56-.12a7.47,7.47,0,0,1-.345,1.785c-.3.015-.6.015-.885.015a19.388,19.388,0,0,1-2.58-.165v1.41c.84.06,1.875.09,2.505.09h.435a15.071,15.071,0,0,1-3.39,4.38l1.29.96a16.314,16.314,0,0,1,1.365-1.605,3.823,3.823,0,0,1,2.49-1.08,1.207,1.207,0,0,1,1.23.75c-1.74.885-3.54,2.055-3.54,3.9,0,1.86,1.74,2.385,3.975,2.385a38.2,38.2,0,0,0,4.17-.27l.045-1.515a25.543,25.543,0,0,1-4.17.39c-1.515,0-2.49-.21-2.49-1.23,0-.885.81-1.575,2.1-2.28-.015.735-.03,1.59-.06,2.115H16.59c-.015-.72-.03-1.92-.045-2.775,1.05-.48,2.025-.87,2.79-1.17.45-.18,1.095-.42,1.53-.555l-.615-1.38c-.48.24-.915.435-1.425.66-.705.33-1.47.645-2.4,1.08a1.975,1.975,0,0,0-2.01-1.275,4.405,4.405,0,0,0-1.92.45,12.037,12.037,0,0,0,1.155-1.98,46.346,46.346,0,0,0,4.935-.39v-1.4a34.582,34.582,0,0,1-4.41.435C14.37,16.035,14.49,15.48,14.58,15.06Zm13.23.165-1.92-.015a8.68,8.68,0,0,1,.165,1.74c0,1.44-.15,5.31-.15,7.44,0,2.49,1.53,3.465,3.81,3.465a7.617,7.617,0,0,0,6.375-3.36l-1.065-1.3a6.146,6.146,0,0,1-5.28,3.09c-1.305,0-2.28-.54-2.28-2.13,0-2.07.1-5.535.18-7.2A13.681,13.681,0,0,1,27.81,15.225Zm18.24,8.16-1.4-.135a8.815,8.815,0,0,0-.255,1.875c0,1.485,1.32,2.28,3.765,2.28a23.161,23.161,0,0,0,2.97-.21l.045-1.515a16.95,16.95,0,0,1-3,.3c-1.92,0-2.325-.615-2.325-1.29A5.507,5.507,0,0,1,46.05,23.385ZM44.34,15.12l-1.8-.135a6.136,6.136,0,0,1-.06,1.35c-.03.285-.1.675-.18,1.125-.525.045-1.035.06-1.5.06a14.135,14.135,0,0,1-1.83-.12L39,18.87c.54.045,1.1.06,1.785.06.375,0,.78-.015,1.215-.03-.12.5-.24.99-.36,1.455a34.694,34.694,0,0,1-2.55,6.72l1.635.555a45.313,45.313,0,0,0,2.37-6.9c.165-.63.33-1.32.48-1.965a26.877,26.877,0,0,0,3.015-.51V16.77a26.32,26.32,0,0,1-2.715.525c.075-.33.135-.63.18-.885C44.115,16.11,44.25,15.495,44.34,15.12Zm1.185,4.56v1.4a25.244,25.244,0,0,1,2.835-.165,18.956,18.956,0,0,1,2.55.195l.045-1.44a25.424,25.424,0,0,0-2.625-.12C47.37,19.545,46.335,19.6,45.525,19.68Zm10.56-3.255-1.83-.03a7.674,7.674,0,0,1,.12,1.41c0,.9.015,2.7.165,4.02.4,3.945,1.8,5.385,3.315,5.385,1.1,0,2.025-.885,2.97-3.45l-1.185-1.4c-.345,1.365-1,3-1.755,3-1.005,0-1.62-1.59-1.845-3.945a33.584,33.584,0,0,1-.1-3.375A12.279,12.279,0,0,1,56.085,16.425Zm7.68.375-1.485.5c1.515,1.8,2.37,5.13,2.625,7.71l1.545-.6A16.339,16.339,0,0,0,63.765,16.8Z" transform="translate(1028 2603)" fill="#fff"/>
    <path id="パス_9057" data-name="パス 9057" d="M4.318-7.31H7.446v.867H4.318Zm0-2.159H7.446V-8.6H4.318Zm8.347,0V-8.6H9.418v-.867Zm0,3.026H9.418V-7.31h3.247ZM16.2-4.165H12.546v-.9h2.091v-5.78H9.418v-.765h6.375V-13.26H9.418v-1.122H7.446v1.122H1.207v1.649H7.446v.765h-5v5.78h8.109v.9H.816v1.7H4.454L3.23-1.6A12.475,12.475,0,0,1,5.661.782L7.276-.408A11.682,11.682,0,0,0,5.032-2.465h5.525V-.544c0,.221-.1.289-.374.306-.289,0-1.36,0-2.261-.034A6.873,6.873,0,0,1,8.551,1.5a10,10,0,0,0,3.077-.272c.714-.272.918-.731.918-1.7V-2.465H16.2ZM26.69-5.389V-7.48h3.587v2.091Zm-5.287,0c.034-.629.051-1.241.051-1.785V-7.48h3.2v2.091Zm3.247-5.95v1.972h-3.2v-1.972Zm5.627,1.972H26.69v-1.972h3.587Zm2.006-3.893H19.448v6.069c0,2.38-.153,5.406-2.006,7.446a7.467,7.467,0,0,1,1.6,1.309,9.735,9.735,0,0,0,2.142-5.049H24.65V1.258h2.04V-3.485h3.587v2.55c0,.306-.119.408-.442.408-.306,0-1.428.017-2.38-.034A7.643,7.643,0,0,1,28.1,1.377a7.894,7.894,0,0,0,3.264-.357c.68-.306.918-.85.918-1.938Zm14.96-.7-1.343.544a17.5,17.5,0,0,1,1.1,1.938,5.359,5.359,0,0,1-1.326.153H42.211c.2-.374.646-1.139,1.054-1.734L40.8-13.821a7.692,7.692,0,0,1-.765,1.768,15.863,15.863,0,0,1-5.423,5.644l1.836,1.428a20.447,20.447,0,0,0,4.488-4.4H45.8a12.56,12.56,0,0,1-1.853,3.757c-1.088-.731-2.159-1.428-3.06-1.938L39.372-6.018c.867.561,1.989,1.326,3.094,2.125A14.119,14.119,0,0,1,36.244-.187L38.216,1.53A15.923,15.923,0,0,0,44.285-2.5c.7.561,1.326,1.088,1.785,1.513L47.7-2.907c-.51-.408-1.173-.9-1.9-1.428a18.4,18.4,0,0,0,2.516-4.9,9.112,9.112,0,0,1,.561-1.224l-1.241-.765.952-.408A21.61,21.61,0,0,0,47.243-13.957Zm2.006-.782-1.343.561a18.023,18.023,0,0,1,1.377,2.346l1.343-.595A26.589,26.589,0,0,0,49.249-14.739Zm2.805,8.126,1.071,2.142a34.064,34.064,0,0,0,6-2.448v5.44A19.038,19.038,0,0,1,59.007.748h2.686a11.688,11.688,0,0,1-.153-2.227V-8.347a31.182,31.182,0,0,0,4.573-3.689l-1.836-1.751a21.794,21.794,0,0,1-4.794,4.131A27.336,27.336,0,0,1,52.054-6.613Zm21.522-7.259-2.5.561a6.481,6.481,0,0,1,.578,1.5c.119.425.306,1.1.527,1.9-.952.187-1.683.306-1.955.357-.663.1-1.258.17-1.921.238l.6,2.3c.612-.153,2.108-.476,3.842-.833C73.508-5,74.375-1.666,74.681-.629a17,17,0,0,1,.374,1.734l2.533-.6c-.17-.425-.425-1.241-.544-1.6C76.7-2.227,75.82-5.44,75.021-8.33c2.38-.476,4.641-.935,5.151-1.02A16.278,16.278,0,0,1,77.01-5.559L79.2-4.522a32.643,32.643,0,0,0,4.267-6.256L81.906-11.9a3.872,3.872,0,0,1-1,.306c-.816.187-3.808.765-6.426,1.258-.221-.782-.425-1.479-.578-2.023A13.642,13.642,0,0,1,73.576-13.872ZM93.041-.374,94.469.8A3.632,3.632,0,0,1,95.2.289a18.718,18.718,0,0,0,5.763-4.641l-1.309-1.87a10.765,10.765,0,0,1-4.2,3.587v-8.891a8.633,8.633,0,0,1,.119-1.479H93.041a7.537,7.537,0,0,1,.136,1.462v9.911A6.469,6.469,0,0,1,93.041-.374ZM85.17-.629,87.244.748A9.968,9.968,0,0,0,90.27-4.131a37.509,37.509,0,0,0,.51-7.31,11.2,11.2,0,0,1,.119-1.547H88.4a6.452,6.452,0,0,1,.153,1.564c0,2.057-.017,5.27-.493,6.732A8.02,8.02,0,0,1,85.17-.629Zm32.079-5.355a6.474,6.474,0,0,0-6.868-6.63,7.553,7.553,0,0,0-7.8,7.276c0,2.873,1.564,4.947,3.451,4.947,1.853,0,3.315-2.108,4.335-5.542a34.38,34.38,0,0,0,1.02-4.607,4.2,4.2,0,0,1,3.57,4.488A4.613,4.613,0,0,1,111.078-1.5a13.075,13.075,0,0,1-1.581.272L110.772.8C115.056.136,117.249-2.4,117.249-5.984Zm-12.5.425a5.351,5.351,0,0,1,4.318-4.93,25.517,25.517,0,0,1-.9,4.114c-.7,2.3-1.36,3.366-2.074,3.366C105.434-3.009,104.754-3.842,104.754-5.559Zm27.115-6.035h-4.59v-.85h4.59Zm0,2.159h-4.59V-10.3h4.59Zm1.938-4.437h-8.381v5.865h8.381Zm-9.231,8.483L124.3-7.208l-1.53.408V-9.316h1.7v-1.87h-1.7V-14.4h-1.836v3.213H119.1v1.87h1.836v3.009c-.765.187-1.445.374-2.023.493l.459,1.955c.493-.136,1-.289,1.564-.442V-.9c0,.221-.085.289-.289.289-.2.017-.782.017-1.411,0a6.646,6.646,0,0,1,.527,1.853A4.2,4.2,0,0,0,122.111.85c.51-.306.663-.8.663-1.734V-4.845Zm5.933,2.873h3.247V-4.1h-3.247v-1.5h4.148V-7.225H124.61v1.632h4v4.437a3.816,3.816,0,0,1-1.479-1.989,15.451,15.451,0,0,0,.323-1.717l-1.836-.221c-.255,2.312-.952,4.2-2.363,5.321a11.606,11.606,0,0,1,1.5,1.207,7.479,7.479,0,0,0,1.768-2.669c1.156,2.057,2.873,2.465,5.1,2.465h2.958a5.96,5.96,0,0,1,.544-1.768c-.731.017-2.839.017-3.417.017-.425,0-.8-.017-1.19-.051Zm9.146-11.849a17.775,17.775,0,0,1-3.876,6.358A11.833,11.833,0,0,1,136.867-5.9c.357-.391.714-.8,1.071-1.258V1.462h1.989v-11.7a31.179,31.179,0,0,0,1.615-3.536Zm3.961,11.271A10.566,10.566,0,0,1,140.539.153a11.286,11.286,0,0,1,1.581,1.275A15.691,15.691,0,0,0,145.5-2.516Zm3.706.867a19.444,19.444,0,0,1,2.805,3.689l1.7-1.071a21.05,21.05,0,0,0-2.89-3.5Zm-2.193-6.919h2.465v3.383h-2.465Zm4.437,3.383V-9.146h2.21v-1.938h-2.21v-3.2h-1.972v3.2h-2.465v-3.179h-1.972v3.179H141.3v1.938h1.853v3.383h-2.278v1.972h11.033V-5.763Z" transform="translate(952 2791)" fill="#0a0a0a"/>
    <g id="グループ_4301" data-name="グループ 4301" transform="translate(673.896 348.316)">
      <g id="グループ_4177" data-name="グループ 4177" transform="translate(401.393 2344.762) rotate(110)">
        <g id="グループ_4176" data-name="グループ 4176" transform="translate(0 0)" clip-path="url(#clip-path)">
          <path id="パス_7890" data-name="パス 7890" d="M2.017,14.617l-.639-.639A4.073,4.073,0,0,1,.8,8.523L8.028,1.294S10.38-1.318,12.579.88l1.588,1.587Z" transform="translate(0.208 31.303)" fill="#e66084"/>
          <path id="パス_7891" data-name="パス 7891" d="M2.467,14.166.88,12.579c-2.2-2.2.413-4.551.413-4.551L8.522.8a4.073,4.073,0,0,1,5.456.578l.639.639Z" transform="translate(30.922 0.59)" fill="#e66084"/>
          <path id="パス_7892" data-name="パス 7892" d="M0,43.314l12.15-12.15,1.093,1.093s.987,1.685,4.729-1.367a66.717,66.717,0,0,0,6.66-6.056l.1-.1.1-.1a66.882,66.882,0,0,0,6.056-6.659c3.051-3.742,1.367-4.729,1.367-4.729L31.164,12.15,43.314,0,43.5.188a7.881,7.881,0,0,1,2.281,4.5C45.817,9.478,45.375,20,32.735,32.676l-.029.029-.029.03h0C20,45.375,9.478,45.817,4.685,45.783A7.88,7.88,0,0,1,.188,43.5L0,43.314" transform="translate(3.768 4.149)" fill="#e66084"/>
        </g>
      </g>
      <path id="パス_8583" data-name="パス 8583" d="M479.728,221.206a2.2,2.2,0,0,0,2.611-1.707,15.351,15.351,0,0,0-5.89-15.559,2.206,2.206,0,0,0-2.619,3.551,10.908,10.908,0,0,1,3.73,4.928,11.033,11.033,0,0,1,.461,6.176,2.2,2.2,0,0,0,1.707,2.611" transform="translate(-90.755 2135.859)" fill="#e66084"/>
      <path id="パス_8584" data-name="パス 8584" d="M489.221,226.77A27.759,27.759,0,0,0,479,199.749a2.206,2.206,0,0,0-2.71,3.483,23.341,23.341,0,0,1,8.59,22.719,2.2,2.2,0,0,0,1.757,2.577,2.239,2.239,0,0,0,.413.04,2.208,2.208,0,0,0,2.166-1.8" transform="translate(-88.265 2133.4)" fill="#e66084"/>
      <path id="パス_8588" data-name="パス 8588" d="M430.111,212.126h3.869l3.762,12.905,3.8-12.905H445.3l-5.916,17h-3.42Z" transform="translate(-126.006 2139.863)" fill="#e66084"/>
      <path id="パス_9058" data-name="パス 9058" d="M0,0H3.6V17H0Z" transform="translate(320.947 2351.989)" fill="#e66084"/>
      <path id="パス_8589" data-name="パス 8589" d="M450.567,223.014h-3.678v6.112h-3.6v-17h7.549A6.235,6.235,0,0,1,455,213.443a5.043,5.043,0,0,1,1.552,4.069q0,3.012-1.552,4.258a6.946,6.946,0,0,1-4.435,1.244m1.693-3.542a2.434,2.434,0,0,0,.7-1.935,2.277,2.277,0,0,0-.709-1.891,3.141,3.141,0,0,0-1.995-.567h-3.372v5h3.372a2.971,2.971,0,0,0,2-.61" transform="translate(-114.941 2139.863)" fill="#e66084"/>
    </g>
  </g>
</svg>
