<svg xmlns="http://www.w3.org/2000/svg" width="121" height="224" viewBox="0 0 121 224">
  <g id="グループ_4450" data-name="グループ 4450" transform="translate(-233.038 -2344)">
    <path id="パス_9098" data-name="パス 9098" d="M10,0H111a10,10,0,0,1,10,10V214a10,10,0,0,1-10,10H10A10,10,0,0,1,0,214V10A10,10,0,0,1,10,0Z" transform="translate(233.038 2344)" fill="#fdeff2"/>
    <path id="合体_54" data-name="合体 54" d="M3071.038-1318v-54a10,10,0,0,1,10-10h101a10,10,0,0,1,10,10v54l-60.5,16Z" transform="translate(-2838 3726)" fill="#818181"/>
    <path id="パス_9099" data-name="パス 9099" d="M-35.893-9.165l-1.586-.026a6.651,6.651,0,0,1,.1,1.222c0,.78.013,2.34.143,3.484.351,3.419,1.56,4.667,2.873,4.667.949,0,1.755-.767,2.574-2.99l-1.027-1.209c-.3,1.183-.871,2.6-1.521,2.6-.871,0-1.4-1.378-1.6-3.419a29.106,29.106,0,0,1-.091-2.925A10.642,10.642,0,0,1-35.893-9.165Zm6.656.325-1.287.429c1.313,1.56,2.054,4.446,2.275,6.682l1.339-.52A14.16,14.16,0,0,0-29.237-8.84Zm4.082,1.9.585,1.456c1.183-.494,4.381-1.872,6.422-1.872a2.332,2.332,0,0,1,2.613,2.327c0,2.483-2.925,3.51-6.37,3.6l.585,1.352c4.251-.221,7.228-1.9,7.228-4.94,0-2.275-1.768-3.562-4-3.562a21.185,21.185,0,0,0-5.551,1.261A14.2,14.2,0,0,1-25.155-6.942ZM-7.1-10.309l-1.456-.078A5.5,5.5,0,0,1-8.567-9.36c-.026.338-.065.754-.13,1.222a12.65,12.65,0,0,1-2.769-.494l-.065,1.2a16.507,16.507,0,0,0,2.7.455c-.091.689-.182,1.417-.273,2.106a11,11,0,0,1-2.665-.52l-.065,1.248a14.214,14.214,0,0,0,2.6.442c-.052.585-.091,1.079-.091,1.417C-9.321-.13-7.878.689-5.993.689-3.3.689-1.56-.585-1.56-2.535A4.533,4.533,0,0,0-2.86-5.59l-1.443.3a3.565,3.565,0,0,1,1.378,2.6c0,1.222-1.144,2.067-3.042,2.067-1.391,0-2.08-.689-2.08-1.872,0-.273.026-.676.065-1.131h.494c.845,0,1.638-.052,2.431-.13l.039-1.222a20.761,20.761,0,0,1-2.665.156h-.182c.078-.676.169-1.417.26-2.093h.026a25,25,0,0,0,2.613-.13l.039-1.222A17.368,17.368,0,0,1-7.449-8.1c.065-.494.117-.9.156-1.183C-7.241-9.594-7.189-9.906-7.1-10.309Zm11.245.832a9.068,9.068,0,0,0-2.34-1.339l-.65.871A9.9,9.9,0,0,1,3.445-8.5Zm-.6,3.38A11.123,11.123,0,0,0,1.157-7.358l-.663.91A9.942,9.942,0,0,1,2.847-5.07ZM1.924.845C2.652-.39,3.458-1.95,4.1-3.315l-.923-.767A38.863,38.863,0,0,1,.884.078Zm4.42-3v-.819h4.017v.819Zm4.017-2.418v.793H6.344v-.793Zm1.144-.91H5.226V1H6.344V-1.326h4.017V-.273c0,.169-.065.208-.247.221-.156.013-.78.013-1.391-.013A3.845,3.845,0,0,1,9.074.962,5.551,5.551,0,0,0,10.985.793c.4-.169.52-.481.52-1.04ZM8.788-7.007v-.741h2.951v-.845H8.788v-.676h3.276v-.871H8.788v-.767h-1.2v.767H4.485v.871H7.592v.676H4.823v.845H7.592v.741H4.069v.884H12.48v-.884ZM16.77-9.516a8.007,8.007,0,0,0-2.054-1.261l-.676.858a9.256,9.256,0,0,1,2,1.365Zm-.494,3.341a7.833,7.833,0,0,0-2.106-1.17l-.676.884A9.069,9.069,0,0,1,15.574-5.2Zm-.793,2.288A35.467,35.467,0,0,1,13.741.234l1.092.624c.546-1.209,1.157-2.743,1.638-4.108Zm3.068,2.431a7.61,7.61,0,0,1-2.2,1.625A5.183,5.183,0,0,1,17.277.9a10.884,10.884,0,0,0,2.392-1.976Zm7.02-.52A12.008,12.008,0,0,0,23.283-4.03l-.78.52c.234.182.494.377.741.6-.845.026-1.7.039-2.522.065a29.967,29.967,0,0,0,2.6-2.093l-1.014-.507a17.584,17.584,0,0,1-1.872,1.664c-.221-.156-.468-.325-.741-.494.429-.364.91-.832,1.352-1.261l-.923-.494.676-.091a1.911,1.911,0,0,1-.169.13,5.347,5.347,0,0,1,.9.663,5.463,5.463,0,0,0,1.612-4h1a8.209,8.209,0,0,1-.26,2.756.333.333,0,0,1-.312.13c-.169,0-.533,0-.923-.039a2.561,2.561,0,0,1,.286.975c.429,0,.871,0,1.131-.026a.938.938,0,0,0,.715-.377c.247-.325.325-1.326.39-3.965,0-.13.013-.429.013-.429H21.138v.975h.936a4.354,4.354,0,0,1-1.118,3.081l-.039-.78-1.495.182v-.767h1.313v-.819H19.422v-.741h1.456v-.845H19.422v-.9H18.356v.9H16.9v.845h1.456v.741H17.108v.819h1.248v.884c-.637.078-1.222.143-1.716.195l.156.975c.91-.117,2.041-.273,3.185-.442a11.6,11.6,0,0,1-1.092,1.261c-.247-.13-.494-.247-.728-.351l-.7.728a11.977,11.977,0,0,1,2.08,1.261c-.143.1-.286.208-.416.3-.923.013-1.755.026-2.457.039l.078,1.027c1-.026,2.249-.065,3.588-.117V1.014H21.5V-1.9c.9-.039,1.807-.065,2.7-.1a5.21,5.21,0,0,1,.533.6Zm-3.432.988A14.238,14.238,0,0,1,24.492.832l.884-.65a15.574,15.574,0,0,0-2.4-1.755Zm9.737-7.93.013,1.326a33.132,33.132,0,0,0,5.447,0V-8.918A23.956,23.956,0,0,1,31.876-8.918Zm.741,5.408-1.17-.1a6.584,6.584,0,0,0-.221,1.6C31.226-.754,32.24.013,34.45.013a17.836,17.836,0,0,0,3.289-.26l-.026-1.391a13.96,13.96,0,0,1-3.237.351c-1.573,0-2.028-.481-2.028-1.066A4.516,4.516,0,0,1,32.617-3.51Zm-3-6.344-1.443-.13a9.45,9.45,0,0,1-.117,1.079A37.515,37.515,0,0,0,27.5-3.718a16.52,16.52,0,0,0,.481,4.2L29.159.4c-.013-.156-.026-.351-.026-.481a2.541,2.541,0,0,1,.065-.6c.13-.65.585-2.041.923-3.029l-.65-.52c-.208.481-.468,1.118-.689,1.651A12.827,12.827,0,0,1,28.7-3.965a31.177,31.177,0,0,1,.637-4.9A9.323,9.323,0,0,1,29.614-9.854ZM-28.041,14.157a16.223,16.223,0,0,0,2.262-.676l-.871-.923a24.255,24.255,0,0,1-5.291,1.287,3.585,3.585,0,0,1,.364.936c.754-.091,1.56-.221,2.353-.377v1.937h-2.6v1.118h2.353a12.8,12.8,0,0,1-2.639,4.082,7.825,7.825,0,0,1,.637,1.17,13.457,13.457,0,0,0,2.249-3.471V24.4h1.183V19.578c.611.585,1.3,1.3,1.664,1.716l.689-1.027c-.351-.312-1.716-1.482-2.353-1.95v-.858h2.353V16.341h-2.353Zm4.29-.117h-1.17v7.15h1.17Zm1.937-1.3V22.893c0,.234-.091.312-.338.312s-1.079.013-1.963-.026a5.47,5.47,0,0,1,.429,1.248,7.9,7.9,0,0,0,2.444-.221c.455-.208.637-.559.637-1.313V12.74Zm9.516,6.682V17.5h3.146v1.924Zm-4.082,0c.039-.481.052-.962.052-1.4V17.5h2.821v1.924Zm2.873-4.888v1.833h-2.821V14.534Zm4.355,1.833H-12.3V14.534h3.146Zm1.209-2.99h-9.581V18c0,1.833-.13,4.134-1.547,5.707a4,4,0,0,1,.949.793A7.457,7.457,0,0,0-16.5,20.566h2.99v3.718H-12.3V20.566h3.146v2.327c0,.247-.091.325-.325.325s-1.105.013-1.937-.026a5,5,0,0,1,.4,1.17,7.117,7.117,0,0,0,2.431-.208c.468-.182.637-.546.637-1.248Zm6.045-.182-1.664-.013a7.523,7.523,0,0,1,.143,1.508c0,1.248-.13,4.6-.13,6.448,0,2.158,1.326,3,3.3,3a6.6,6.6,0,0,0,5.525-2.912L4.355,20.1A5.327,5.327,0,0,1-.221,22.776c-1.131,0-1.976-.468-1.976-1.846,0-1.794.091-4.8.156-6.24A11.857,11.857,0,0,1-1.9,13.195ZM13.91,20.267,12.7,20.15a7.64,7.64,0,0,0-.221,1.625c0,1.287,1.144,1.976,3.263,1.976a20.073,20.073,0,0,0,2.574-.182l.039-1.313a14.691,14.691,0,0,1-2.6.26c-1.664,0-2.015-.533-2.015-1.118A4.773,4.773,0,0,1,13.91,20.267ZM12.428,13.1l-1.56-.117a5.318,5.318,0,0,1-.052,1.17c-.026.247-.091.585-.156.975-.455.039-.9.052-1.3.052a12.25,12.25,0,0,1-1.586-.1L7.8,16.354c.468.039.949.052,1.547.052.325,0,.676-.013,1.053-.026-.1.429-.208.858-.312,1.261a30.068,30.068,0,0,1-2.21,5.824l1.417.481a39.271,39.271,0,0,0,2.054-5.98c.143-.546.286-1.144.416-1.7a23.294,23.294,0,0,0,2.613-.442V14.534a22.811,22.811,0,0,1-2.353.455c.065-.286.117-.546.156-.767C12.233,13.962,12.35,13.429,12.428,13.1Zm1.027,3.952v1.209a21.878,21.878,0,0,1,2.457-.143,16.428,16.428,0,0,1,2.21.169l.039-1.248a22.034,22.034,0,0,0-2.275-.1C15.054,16.939,14.157,16.991,13.455,17.056Zm9.152-2.821-1.586-.026a6.651,6.651,0,0,1,.1,1.222c0,.78.013,2.34.143,3.484.351,3.419,1.56,4.667,2.873,4.667.949,0,1.755-.767,2.574-2.99l-1.027-1.209c-.3,1.183-.871,2.6-1.521,2.6-.871,0-1.4-1.378-1.6-3.419a29.106,29.106,0,0,1-.091-2.925A10.641,10.641,0,0,1,22.607,14.235Zm6.656.325-1.287.429c1.313,1.56,2.054,4.446,2.275,6.682l1.339-.52A14.16,14.16,0,0,0,29.263,14.56Z" transform="translate(294.038 2375)" fill="#fff"/>
    <path id="パス_9100" data-name="パス 9100" d="M-16.755-6.405c-.51.135-1.02.27-1.53.39v-2.22h1.515V-8.88h8.535v-1.68h-3.36v-2.145H-13.38v2.145h-3.39v.675h-1.515V-12.69H-20.04v2.805H-21.9v1.65h1.86V-5.58c-.78.195-1.515.36-2.115.48l.435,1.71,1.68-.435v3.21c0,.21-.075.27-.27.285-.195,0-.81,0-1.38-.03a6.95,6.95,0,0,1,.48,1.635A5.1,5.1,0,0,0-18.93.96c.5-.27.645-.705.645-1.59V-4.29c.585-.15,1.17-.315,1.74-.48ZM-9.78-.285A.241.241,0,0,1-9.945-.36,1.509,1.509,0,0,1-9.99-.915V-7.44h-5.355v2.91a4.655,4.655,0,0,1-2.28,4.5,7.358,7.358,0,0,1,1.14,1.32A6.357,6.357,0,0,0-13.65-4.485V-5.82h1.935V-.885c0,1.11.12,1.455.4,1.725a1.473,1.473,0,0,0,1.05.39h.87a1.794,1.794,0,0,0,.915-.21,1.275,1.275,0,0,0,.54-.78A12.34,12.34,0,0,0-7.74-1.815a4.46,4.46,0,0,1-1.395-.75c0,.81-.015,1.455-.045,1.755-.03.27-.06.39-.12.45a.3.3,0,0,1-.21.075Zm9-.78H.735v-1.74a9.928,9.928,0,0,0,2.22,1.7,6.414,6.414,0,0,1,.99-1.125A8.188,8.188,0,0,1,1.425-3.81H3.69V-5.1H.735v-.84A19.482,19.482,0,0,0,3.18-6.375l-1.035-.99A29.436,29.436,0,0,1-3.33-6.75a5.02,5.02,0,0,1,.375,1.065c.69-.015,1.44-.045,2.175-.105v.69H-3.69v1.29h2.205A7.7,7.7,0,0,1-4.065-2.2a5.3,5.3,0,0,1,.96,1.125A9.121,9.121,0,0,0-.78-2.775ZM4.17-7.5V-.75H-4.155V-7.5ZM-5.85,1.305h1.7V.8H4.17v.51H5.925V-8.985H-5.85ZM3.33-11.88v-.81H1.545v.81h-3.15v-.81H-3.36v.81H-6.645v1.545H-3.36v.93h1.755v-.93h3.15v.93H3.33v-.93h3.3V-11.88ZM15-7.62A1.933,1.933,0,0,0,13.08-5.7,1.933,1.933,0,0,0,15-3.78,1.933,1.933,0,0,0,16.92-5.7,1.933,1.933,0,0,0,15-7.62ZM-46.755,20.595c-.51.135-1.02.27-1.53.39v-2.22h1.515V18.12h8.535V16.44H-41.6V14.295H-43.38V16.44h-3.39v.675h-1.515V14.31H-50.04v2.805H-51.9v1.65h1.86V21.42c-.78.195-1.515.36-2.115.48l.435,1.71,1.68-.435v3.21c0,.21-.075.27-.27.285s-.81,0-1.38-.03a6.95,6.95,0,0,1,.48,1.635,5.1,5.1,0,0,0,2.28-.315c.5-.27.645-.7.645-1.59V22.71c.585-.15,1.17-.315,1.74-.48Zm6.975,6.12a.241.241,0,0,1-.165-.075,1.509,1.509,0,0,1-.045-.555V19.56h-5.355v2.91a4.655,4.655,0,0,1-2.28,4.5,7.358,7.358,0,0,1,1.14,1.32,6.357,6.357,0,0,0,2.835-5.775V21.18h1.935v4.935c0,1.11.12,1.455.405,1.725a1.473,1.473,0,0,0,1.05.39h.87a1.794,1.794,0,0,0,.915-.21,1.275,1.275,0,0,0,.54-.78,12.34,12.34,0,0,0,.195-2.055,4.46,4.46,0,0,1-1.4-.75c0,.81-.015,1.455-.045,1.755-.03.27-.06.39-.12.45a.3.3,0,0,1-.21.075Zm10.86-11.97h-2.31a7.411,7.411,0,0,1,.12,1.38V17.28h-3.21a12.444,12.444,0,0,1-1.53-.075,9.578,9.578,0,0,1,.075,1.29v2.6a11.378,11.378,0,0,1-.075,1.26h2.07c-.03-.3-.045-.765-.045-1.11V19.05h7.44A8.9,8.9,0,0,1-27.72,22.9a7.343,7.343,0,0,1-3.4,2.565,12.216,12.216,0,0,1-2.115.585l1.56,1.8a9.532,9.532,0,0,0,6.12-4.5,13.97,13.97,0,0,0,1.4-4.245,10.015,10.015,0,0,1,.3-1.2l-1.305-.8a3.649,3.649,0,0,1-1.245.165h-2.61V16.125A10.9,10.9,0,0,1-28.92,14.745Zm7.35,6.42.945,1.89a30.056,30.056,0,0,0,5.3-2.16v4.8a16.8,16.8,0,0,1-.1,1.965h2.37a10.313,10.313,0,0,1-.135-1.965v-6.06A27.514,27.514,0,0,0-9.165,16.38l-1.62-1.545a19.23,19.23,0,0,1-4.23,3.645A24.12,24.12,0,0,1-21.57,21.165ZM.045,26.67,1.305,27.7a3.2,3.2,0,0,1,.645-.45A16.516,16.516,0,0,0,7.035,23.16L5.88,21.51a9.5,9.5,0,0,1-3.7,3.165V16.83a7.617,7.617,0,0,1,.1-1.305H.045a6.65,6.65,0,0,1,.12,1.29V25.56A5.708,5.708,0,0,1,.045,26.67ZM-6.9,26.445l1.83,1.215A8.8,8.8,0,0,0-2.4,23.355a33.1,33.1,0,0,0,.45-6.45,9.88,9.88,0,0,1,.105-1.365H-4.05a5.692,5.692,0,0,1,.135,1.38,25.848,25.848,0,0,1-.435,5.94A7.076,7.076,0,0,1-6.9,26.445ZM20.01,16.83l-1.23-.915a5.376,5.376,0,0,1-1.545.2h-5.3A16.758,16.758,0,0,1,10.17,16v2.13c.315-.015,1.14-.1,1.77-.1h5.085A11.622,11.622,0,0,1,14.79,21.7,16.815,16.815,0,0,1,8.64,26.01l1.545,1.62a19.758,19.758,0,0,0,5.64-4.215A34.206,34.206,0,0,1,19.6,27.66l1.71-1.485a42.168,42.168,0,0,0-4.185-4.29,22.054,22.054,0,0,0,2.355-4.125A7.087,7.087,0,0,1,20.01,16.83Zm8.85,5.175.03-1.5V19.83h-2.7c.015-.525.03-1.065.045-1.605H29.1a5.592,5.592,0,0,1-.48.54,9.728,9.728,0,0,1,1.335,1.26l.135-.15v1.56Zm3.66,4.77c-.75,0-.855-.09-.855-.7V22.455l.81-.375v3.5H33.96V21.39l.96-.45c-.015,1.425-.015,2.25-.045,2.385-.015.195-.09.225-.21.225s-.33,0-.51-.015a4.062,4.062,0,0,1,.315,1.305,3.429,3.429,0,0,0,1.245-.165,1.052,1.052,0,0,0,.645-1.035c.045-.45.045-1.98.06-4.11l.06-.24-1.11-.39-.27.195-.06.045-1.08.5V18.18H32.475v2.145l-.81.375V19.26h-1.1a9.768,9.768,0,0,0,.855-1.455H36.81v-1.62H32.1c.165-.51.33-1.035.45-1.56l-1.755-.33A10.835,10.835,0,0,1,29.46,17.7V16.575H27.12V14.31H25.41v2.265h-2.3v1.65h1.44c-.045,3.465-.18,6.765-1.665,8.82a5.294,5.294,0,0,1,1.275,1.245c1.245-1.71,1.725-4.14,1.935-6.84h1.17c-.06,3.525-.15,4.785-.345,5.085a.436.436,0,0,1-.435.24,8.378,8.378,0,0,1-1.08-.06,4.188,4.188,0,0,1,.435,1.59,7.841,7.841,0,0,0,1.545-.075,1.343,1.343,0,0,0,.96-.615c.345-.48.45-1.92.51-5.595l.615,1.455.615-.285v2.88c0,1.71.48,2.19,2.25,2.19h2.625c1.455,0,1.905-.57,2.1-2.445a4.913,4.913,0,0,1-1.44-.615c-.09,1.32-.21,1.575-.795,1.575ZM45.975,25.47V17.715h5.04v-1.86H39.03v1.86h4.905V25.47H38.22v1.8H51.855v-1.8Z" transform="translate(293.038 2521)" fill="#363636"/>
    <g id="グループ_4366" data-name="グループ 4366" transform="translate(-34.328 -234)">
      <path id="パス_8564" data-name="パス 8564" d="M41.382,199.043l.594,6.185,2.476-5.7L43.1,205.595l4.115-4.656-3.155,5.353,5.353-3.155-4.656,4.115,6.066-1.347-5.7,2.476,6.185.594-6.185.594,5.7,2.476L44.761,210.7l4.656,4.116-5.353-3.155,3.155,5.353L43.1,212.354l1.347,6.066-2.476-5.7-.594,6.185-.594-6.185-2.476,5.7,1.347-6.066-4.115,4.656,3.155-5.353-5.353,3.155L38,210.7l-6.066,1.348,5.7-2.476-6.185-.594,6.185-.594-5.7-2.476L38,207.252l-4.656-4.115,5.353,3.155-3.155-5.353,4.115,4.656-1.347-6.066,2.476,5.7Z" transform="translate(253.05 2479.095)" fill="#e66084"/>
      <path id="パス_8565" data-name="パス 8565" d="M65.277,201.735l2.438,4.465,3.7-3.493.939,5,4.6-2.18-.651,5.046,5.045-.651-2.179,4.6,5,.939-3.493,3.7,4.465,2.44-4.465,2.438,3.493,3.7-5,.94,2.179,4.6-5.045-.653.651,5.046-4.6-2.179-.939,5L67.715,237l-2.438,4.467L62.839,237l-3.7,3.493-.939-5-4.6,2.179.651-5.046-5.045.653,2.179-4.6-5-.94,3.493-3.7L45.413,221.6l4.465-2.44-3.493-3.7,5-.939-2.179-4.6,5.045.651-.651-5.046,4.6,2.18.939-5,3.7,3.493Z" transform="translate(260.606 2480.537)" fill="#e66084"/>
      <path id="パス_8566" data-name="パス 8566" d="M85.71,196.566l1.355,4.688,2.736-4.04-.16,4.877,3.852-3-1.659,4.589,4.589-1.659-3,3.852,4.877-.16-4.04,2.738,4.688,1.354-4.688,1.355L98.3,213.9l-4.877-.161,3,3.852-4.589-1.659,1.659,4.589-3.852-3,.16,4.877-2.736-4.04-1.355,4.688-1.355-4.688-2.736,4.04.16-4.877-3.852,3,1.659-4.589L75,217.592l3-3.852-4.877.161,4.04-2.738-4.688-1.355,4.688-1.354-4.04-2.738,4.877.16-3-3.852,4.589,1.659-1.659-4.589,3.852,3-.16-4.877,2.736,4.04Z" transform="translate(273.279 2477.434)" fill="#e66084"/>
    </g>
  </g>
</svg>
