<svg xmlns="http://www.w3.org/2000/svg" width="122" height="224" viewBox="0 0 122 224">
  <g id="グループ_4438" data-name="グループ 4438" transform="translate(-233 -2344)">
    <path id="パス_9089" data-name="パス 9089" d="M10,0H112a10,10,0,0,1,10,10V214a10,10,0,0,1-10,10H10A10,10,0,0,1,0,214V10A10,10,0,0,1,10,0Z" transform="translate(233 2344)" fill="#fdeff2"/>
    <path id="合体_51" data-name="合体 51" d="M2940-850v-54a10,10,0,0,1,10-10h102a10,10,0,0,1,10,10v54l-61,16Z" transform="translate(-2707 3258)" fill="#818181"/>
    <path id="パス_9090" data-name="パス 9090" d="M-25.688-9.568h3.263v.936h-2.223v2.106h-1.04Zm3.263,3.042h-1.326V-7.839h1.326Zm-4.251.949h5.213v3.549c0,.117-.052.169-.182.169A10,10,0,0,1-22.7-1.872a3.744,3.744,0,0,1,.3.962,4.581,4.581,0,0,0,1.6-.156c.351-.169.442-.455.442-.962v-4.5h-.975v-3.965h-5.408v3.965h-1v5.6h1.066Zm3.367,2.665h-1.56V-4.069h1.56Zm.9-1.963h-3.354v3.224h.9v-.455h2.457ZM-28.483-8.5a9.664,9.664,0,0,0-2.054-2.08l-.923.676a9.282,9.282,0,0,1,2,2.171Zm-.351,2.639h-2.717v1.118h1.56v3.133a17.926,17.926,0,0,1-1.7,1.326l.6,1.2C-30.459.351-29.887-.169-29.341-.7a4.332,4.332,0,0,0,3.523,1.5c1.508.052,4.264.026,5.759-.039a5.264,5.264,0,0,1,.39-1.183c-1.651.117-4.667.156-6.136.091A3.459,3.459,0,0,1-28.834-1.7Zm11.648.533.546,1.352a17.79,17.79,0,0,1,5.252-1.534A1.85,1.85,0,0,1-9.334-3.705c0,1.963-2.353,2.756-5.239,2.847L-14.027.4c3.77-.234,6.032-1.651,6.032-4.1a2.969,2.969,0,0,0-3.289-3A17.617,17.617,0,0,0-15.9-5.655C-16.3-5.538-16.809-5.4-17.186-5.33ZM-5.8-8.775l.143,1.43c1.443-.312,4.472-.624,5.785-.767A5.235,5.235,0,0,0-2.08-3.887C-2.08-1.014.585.351,3.133.468L3.614-.91C1.456-1-.754-1.794-.754-4.16A4.31,4.31,0,0,1,2.132-8.073a11.6,11.6,0,0,1,2.522-.195V-9.581c-.9.039-2.2.117-3.588.234-2.392.195-4.706.416-5.655.507C-4.836-8.814-5.291-8.788-5.8-8.775ZM9.932-1.638H8.71V-5.226H9.932ZM10.985-.572v-5.72H8.762a22.176,22.176,0,0,0,.78-2.873h1.729v-1.092H6.864v1.092H8.372A11.775,11.775,0,0,1,6.565-4.433a6.6,6.6,0,0,1,.481,1.365,8.734,8.734,0,0,0,.624-.871V.429H8.71v-1ZM14.456-7.9v2.015H12.909V-7.9Zm2.275,3.055a8.509,8.509,0,0,1-1.417,2.626,9.029,9.029,0,0,1-1.547-2.626Zm.637-1.079-.208.039H15.535V-7.9h1.612a15.246,15.246,0,0,1-.39,1.495l.949.221a19.522,19.522,0,0,0,.715-2.639l-.754-.182-.182.039h-1.95v-1.924H14.456V-8.97H11.869v3.38c0,1.794-.117,4.264-1.248,6.006a3.856,3.856,0,0,1,.9.6,11.105,11.105,0,0,0,1.365-5.343,10.33,10.33,0,0,0,1.7,2.9A7.371,7.371,0,0,1,12.207.078a3.716,3.716,0,0,1,.65.923A8.825,8.825,0,0,0,15.314-.637a8.6,8.6,0,0,0,2.548,1.651,4.785,4.785,0,0,1,.767-.988,7.549,7.549,0,0,1-2.548-1.482A10.078,10.078,0,0,0,18.07-5.668ZM29.6-8.489H26.117V-9.607H29.6Zm1.183-1.976H25.012v2.847h5.772Zm-6.5,6.175-.156-1.131c-.468.143-.949.273-1.417.4V-7.267H24.1V-8.385H22.711v-2.522H21.528v2.522H19.773v1.118h1.755v2.574c-.728.2-1.4.364-1.95.481l.3,1.183L21.528-3.5V-.338c0,.195-.078.247-.247.247s-.7.013-1.248-.013A4.135,4.135,0,0,1,20.371,1a4.577,4.577,0,0,0,1.82-.195c.39-.2.52-.52.52-1.144v-3.5ZM25.831-2.9h4.043v.819H25.831Zm0-1.638h4.043v.819H25.831Zm0-1.612h4.043v.793H25.831Zm5.252,4.94V-7.02h-6.4v5.811h1.248A9.577,9.577,0,0,1,23.322.208a7.027,7.027,0,0,1,.819.832,10.815,10.815,0,0,0,3.016-1.7l-.871-.546h2.847l-.767.559a12.127,12.127,0,0,1,2.171,1.69l1.2-.611a15.334,15.334,0,0,0-2.314-1.638ZM-38.532,14.183c.091.26.208.6.338,1a26.822,26.822,0,0,1-5.083-.169l.026,1.313a34.185,34.185,0,0,0,5.512.039,17.89,17.89,0,0,0,1.417,2.7c-.442-.052-1.365-.13-2.054-.182l-.091,1.079a31.174,31.174,0,0,1,3.276.39l.65-.936a6.158,6.158,0,0,1-.624-.767A14.486,14.486,0,0,1-36.5,16.237a22.405,22.405,0,0,0,2.535-.507l-.156-1.3a16.062,16.062,0,0,1-2.808.624,14.137,14.137,0,0,1-.559-2.145l-1.4.169C-38.753,13.468-38.623,13.9-38.532,14.183Zm-2.47,5.1-1.287-.286a5.1,5.1,0,0,0-.65,2.275c0,1.807,1.612,2.756,4.16,2.769a17.756,17.756,0,0,0,3.419-.286l.065-1.3a16.439,16.439,0,0,1-3.406.312c-1.872-.013-2.925-.52-2.925-1.69A3.29,3.29,0,0,1-41,19.279Zm18.525-5.98h-1.391a8.589,8.589,0,0,1,.091,1.066v1.69c-1.3.117-2.717.247-3.913.364.013-.624.013-1.17.013-1.534a10.27,10.27,0,0,1,.065-1.183h-1.443a7.723,7.723,0,0,1,.091,1.248v1.586c-.546.052-.975.091-1.261.117-.546.052-1.079.078-1.469.078l.143,1.326c.338-.052,1.014-.143,1.417-.195.286-.039.689-.078,1.17-.13,0,1.248,0,2.587.013,3.146.052,2.145.39,2.847,3.549,2.847a36.593,36.593,0,0,0,3.757-.221l.039-1.391a24.267,24.267,0,0,1-3.874.325c-2.119,0-2.171-.416-2.21-1.755-.026-.533-.013-1.82,0-3.094,1.209-.13,2.626-.26,3.887-.364a18.526,18.526,0,0,1-.13,1.885c-.026.286-.156.338-.455.338a7.573,7.573,0,0,1-1.248-.169l-.026,1.131a15.313,15.313,0,0,0,1.82.195c.624,0,.923-.169,1.053-.793a19.8,19.8,0,0,0,.195-2.678c.481-.026.91-.052,1.248-.052s.91-.026,1.131-.013V15.795c-.338.026-.78.065-1.118.078-.364.026-.793.052-1.235.091.013-.52.013-1.079.026-1.638A7.725,7.725,0,0,1-22.477,13.3Zm4.264,1.326.143,1.43c1.443-.312,4.472-.624,5.785-.767a5.235,5.235,0,0,0-2.21,4.225c0,2.873,2.665,4.238,5.213,4.355L-8.8,22.49c-2.158-.091-4.368-.884-4.368-3.25a4.31,4.31,0,0,1,2.886-3.913,11.6,11.6,0,0,1,2.522-.195V13.819c-.9.039-2.2.117-3.588.234-2.392.195-4.706.416-5.655.507C-17.251,14.586-17.706,14.612-18.213,14.625Zm16.575-1.43L-3.3,13.182a7.523,7.523,0,0,1,.143,1.508c0,1.248-.13,4.6-.13,6.448,0,2.158,1.326,3,3.3,3a6.6,6.6,0,0,0,5.525-2.912L4.615,20.1A5.327,5.327,0,0,1,.039,22.776c-1.131,0-1.976-.468-1.976-1.846,0-1.794.091-4.8.156-6.24A11.857,11.857,0,0,1-1.638,13.195Zm11.882,8.788c0-.52.6-.949,1.7-.949a5.889,5.889,0,0,1,1.183.117c.013.286.013.546.013.728,0,.832-.559,1.053-1.287,1.053C10.738,22.932,10.244,22.542,10.244,21.983ZM14.339,13H12.948a4.266,4.266,0,0,1,.065.819v.793h-.559a23.554,23.554,0,0,1-3.263-.286L9.2,15.509c.845.1,2.405.234,3.263.234H13v1.6h-.663a25.415,25.415,0,0,1-3.211-.234l.013,1.222c.9.1,2.34.169,3.172.169h.715c.013.481.039,1.014.052,1.521-.312-.026-.624-.052-.962-.052-1.937,0-3.094.845-3.094,2.093,0,1.3,1.053,2.028,3,2.028,1.7,0,2.418-.9,2.418-1.885,0-.182-.013-.4-.026-.676a10,10,0,0,1,2.912,1.9l.754-1.157a10.438,10.438,0,0,0-3.731-1.989c-.026-.585-.065-1.209-.091-1.807,1.248-.052,2.327-.143,3.523-.286l.013-1.209c-1.131.156-2.275.273-3.562.325V15.691c1.261-.052,2.47-.169,3.432-.286v-1.2a28.564,28.564,0,0,1-3.419.364c.013-.286.013-.533.026-.689C14.287,13.52,14.313,13.234,14.339,13Zm6.89,5.07.546,1.352a17.79,17.79,0,0,1,5.252-1.534,1.85,1.85,0,0,1,2.054,1.807c0,1.963-2.353,2.756-5.239,2.847l.546,1.261c3.77-.234,6.032-1.651,6.032-4.095a2.969,2.969,0,0,0-3.289-3,17.617,17.617,0,0,0-4.615,1.04C22.113,17.862,21.606,18,21.229,18.07Zm18.421,2.2-1.209-.117a7.64,7.64,0,0,0-.221,1.625c0,1.287,1.144,1.976,3.263,1.976a20.073,20.073,0,0,0,2.574-.182l.039-1.313a14.691,14.691,0,0,1-2.6.26c-1.664,0-2.015-.533-2.015-1.118A4.773,4.773,0,0,1,39.65,20.267ZM38.168,13.1l-1.56-.117a5.318,5.318,0,0,1-.052,1.17c-.026.247-.091.585-.156.975-.455.039-.9.052-1.3.052a12.25,12.25,0,0,1-1.586-.1l.026,1.274c.468.039.949.052,1.547.052.325,0,.676-.013,1.053-.026-.1.429-.208.858-.312,1.261a30.068,30.068,0,0,1-2.21,5.824l1.417.481a39.271,39.271,0,0,0,2.054-5.98c.143-.546.286-1.144.416-1.7a23.294,23.294,0,0,0,2.613-.442V14.534a22.811,22.811,0,0,1-2.353.455c.065-.286.117-.546.156-.767C37.973,13.962,38.09,13.429,38.168,13.1ZM39.2,17.056v1.209a21.878,21.878,0,0,1,2.457-.143,16.428,16.428,0,0,1,2.21.169l.039-1.248a22.034,22.034,0,0,0-2.275-.1C40.794,16.939,39.9,16.991,39.2,17.056Z" transform="translate(294 2375)" fill="#fff"/>
    <path id="パス_9091" data-name="パス 9091" d="M-17.01-7.125l-.33.12h-2.37l.36-.585c-.345-.165-.8-.33-1.29-.525a24.731,24.731,0,0,0,3.465-2.85L-18.45-11.97l-.4.105h-8.97v1.635h7.245a15.613,15.613,0,0,1-1.9,1.41c-.84-.315-1.68-.6-2.355-.84l-.885,1.35c.96.36,2.175.84,3.285,1.305h-6.825v1.7h5.925v4.6c0,.225-.09.285-.375.3-.3,0-1.41,0-2.3-.03a6.075,6.075,0,0,1,.645,1.71A9.372,9.372,0,0,0-22.41,1c.72-.255.93-.7.93-1.65V-5.31h3.165a18.96,18.96,0,0,1-1.17,1.845l1.53.885a19.98,19.98,0,0,0,2.4-3.915Zm5.46,2.3h1.86v1.02h-1.86Zm1.86-4.545v.87h-1.86v-.87ZM-11.55-7.14h1.86V-6.2h-1.86Zm4.41,3.33h-.915V-9.375h1.02v-1.56h-1.02v-1.59H-9.69v1.59h-1.86v-1.59h-1.6v1.59h-1.17v1.56h1.17V-3.81h-1.35v1.56H-7.14Zm-5.505,1.665a6.94,6.94,0,0,1-1.98,2.43A10.069,10.069,0,0,1-13.2,1.35a10.552,10.552,0,0,0,2.22-3Zm7.77-3.105c.015-.465.015-.9.015-1.29V-7.1H-2.7V-5.25ZM-2.7-10.425V-8.67H-4.86v-1.755Zm1.725-1.62h-5.55v5.5A15.974,15.974,0,0,1-7.47-.18,16.342,16.342,0,0,0-9.09-2.22l-1.35.735A14.913,14.913,0,0,1-8.835.78L-7.59.075c-.045.09-.105.165-.15.255A5.153,5.153,0,0,1-6.33,1.335a12.311,12.311,0,0,0,1.35-5H-2.7V-.705c0,.24-.075.315-.3.315-.21,0-.93.015-1.575-.03a6.463,6.463,0,0,1,.51,1.695A5.155,5.155,0,0,0-1.665.96c.525-.285.69-.75.69-1.635Zm12.45.27H9.465a12.619,12.619,0,0,1,.1,1.38V-8.7c-1.365.12-2.82.255-4.095.375,0-.585.015-1.1.015-1.44a9.936,9.936,0,0,1,.09-1.56H3.465a11.586,11.586,0,0,1,.12,1.665v1.515c-.48.045-.87.075-1.14.105-.765.075-1.455.1-1.89.1l.21,1.92c.39-.06,1.32-.21,1.8-.27.255-.03.6-.06,1.005-.105,0,1.4,0,2.85.015,3.5C3.66-.3,4.125.51,8.01.51A42.434,42.434,0,0,0,12.285.27l.075-2.04a30.22,30.22,0,0,1-4.485.375c-2.25,0-2.385-.33-2.415-1.8-.03-.645-.015-2.025,0-3.405,1.275-.135,2.745-.27,4.08-.375A16.527,16.527,0,0,1,9.42-5.16c-.03.285-.165.345-.465.345a7.947,7.947,0,0,1-1.38-.2L7.53-3.345A22.7,22.7,0,0,0,9.8-3.12c.765,0,1.14-.2,1.3-.99a26.316,26.316,0,0,0,.225-3c.435-.03.825-.045,1.155-.06.39-.015,1.185-.03,1.44-.015V-9.03c-.435.045-1.02.075-1.44.105-.345.015-.72.045-1.125.075.015-.495.015-1.035.03-1.62C11.4-10.875,11.445-11.535,11.475-11.775ZM23.76-1.92c0-.375.36-.705.96-.705a3.005,3.005,0,0,1,1.35.345A1.677,1.677,0,0,1,24.63-1.2C24.075-1.2,23.76-1.485,23.76-1.92Zm.45-9.99-2.07-.06a7.635,7.635,0,0,1,.03,1.35c-.015.24-.03.51-.06.795a8.139,8.139,0,0,0-3.12,1.4,22.155,22.155,0,0,1-.615-2.265L16.62-9.96c.36.885.435,1.23.615,1.77.12.33.24.675.375,1.05-.165.18-.315.375-.465.57A6.834,6.834,0,0,0,15.8-2.46c0,1.725,1.02,2.625,2.25,2.625,2.07,0,4.095-2.85,4.98-5.565a21.228,21.228,0,0,0,.7-2.985A2.865,2.865,0,0,1,26.655-5.22a8.162,8.162,0,0,1-.135,1.485,5.323,5.323,0,0,0-1.86-.33,2.448,2.448,0,0,0-2.535,2.34c0,1.41,1.02,2.19,2.58,2.19a3.217,3.217,0,0,0,2.865-1.59c.42.4.765.84,1.05,1.17L29.745-1.38a8.538,8.538,0,0,0-1.5-1.41,10.127,10.127,0,0,0,.285-2.49,4.528,4.528,0,0,0-4.575-4.7c.03-.195.06-.39.075-.585C24.06-10.83,24.12-11.4,24.21-11.91ZM17.52-2.79a5.189,5.189,0,0,1,.81-2.475c.165.36.315.69.465.99a14.624,14.624,0,0,0,.84,1.455,2.416,2.416,0,0,1-1.47,1.035C17.775-1.785,17.52-2.25,17.52-2.79Zm2.5-3.075c-.135-.27-.285-.6-.435-.945a5.82,5.82,0,0,1,2.28-1.32,16.658,16.658,0,0,1-.57,2.265,11.9,11.9,0,0,1-.57,1.335A13.531,13.531,0,0,1,20.025-5.865Zm-58.17,27.12c.3.24.585.5.75.645a8.018,8.018,0,0,0,.66-.945,17.322,17.322,0,0,0,1.29,3.39,7.825,7.825,0,0,1-2.7,2.055Zm-1.695,3.84h-2.4V22.68h2.4Zm6.615-6.45a13.757,13.757,0,0,1-1.14,3.99,16.564,16.564,0,0,1-1.23-3.99Zm2.745,0v-1.68h-4.575a24.045,24.045,0,0,0,.57-2.385l-1.83-.285a12.664,12.664,0,0,1-2.565,6.42,4.608,4.608,0,0,1,.42.3h-1.65V18.7h2.46V17.04h-2.46V14.295H-41.9V17.04h-2.61V18.7h2.61v2.31H-43.89v6.63h1.65V26.76h3.465a7.291,7.291,0,0,1,.945,1.53,10.707,10.707,0,0,0,3.375-2.4,8.248,8.248,0,0,0,2.925,2.415,6.433,6.433,0,0,1,1.215-1.545,7.427,7.427,0,0,1-3-2.415,16.434,16.434,0,0,0,1.875-5.7Zm9.4-1.1a4.906,4.906,0,0,0-.285-.93h2.475c-.12.315-.27.66-.39.93Zm-3.525,0v1.4h9v-1.4h-2.025c.15-.255.315-.57.5-.93h1.245V15.225h-3.39v-.93H-21v.93h-3.09V16.62h1.11a4.2,4.2,0,0,1,.3.93Zm-.78-2.685-.255.075H-28.89V28.305h1.545V16.53h1.17c-.24,1.02-.555,2.325-.855,3.27a4.015,4.015,0,0,1,1.035,2.625c0,.42-.06.72-.225.84a.777.777,0,0,1-.42.135c-.195,0-.39,0-.66-.015a3.782,3.782,0,0,1,.39,1.515,6.413,6.413,0,0,0,.96-.03,2.142,2.142,0,0,0,.87-.315,2.2,2.2,0,0,0,.66-1.92,4.618,4.618,0,0,0-1.095-3.015c.42-1.17.915-2.805,1.305-4.08Zm3.18,7.425h4.185v.63H-22.2Zm0-1.65h4.185v.63H-22.2Zm6.675,4.125h-3.75V24h2.91V19.56H-23.79V24H-21v.765h-3.72v1.41H-21v2.13h1.725v-2.13h3.75Zm7.245-8.25v1.92a40.259,40.259,0,0,0,6.45,0V16.5A30.845,30.845,0,0,1-8.28,16.515Zm1.2,6.405-1.725-.165A9.164,9.164,0,0,0-9.06,24.7c0,1.545,1.245,2.46,3.825,2.46a21.243,21.243,0,0,0,3.87-.285l-.03-2.025a17.731,17.731,0,0,1-3.765.39c-1.53,0-2.1-.4-2.1-1.065A5.091,5.091,0,0,1-7.08,22.92Zm-3.51-7.41-2.1-.18c-.015.48-.105,1.05-.15,1.47a41.827,41.827,0,0,0-.63,5.94,19.175,19.175,0,0,0,.585,4.905l1.74-.12c-.015-.21-.03-.45-.03-.615a4.526,4.526,0,0,1,.075-.7c.165-.8.66-2.43,1.08-3.675l-.93-.735c-.21.5-.45,1.02-.675,1.53a7.237,7.237,0,0,1-.06-.975,39.784,39.784,0,0,1,.72-5.505C-10.9,16.575-10.71,15.825-10.59,15.51Zm17.625-.525-2.115-.12A8.034,8.034,0,0,1,4.905,16.2c-.03.345-.075.75-.12,1.215a14.166,14.166,0,0,1-3.09-.57l-.1,1.725a17.614,17.614,0,0,0,2.985.54c-.075.675-.165,1.38-.255,2.055a13.784,13.784,0,0,1-2.955-.6L1.26,22.38a16.783,16.783,0,0,0,2.88.5c-.06.615-.105,1.155-.105,1.515,0,2.505,1.665,3.525,4.02,3.525,3.285,0,5.325-1.62,5.325-3.885a5.591,5.591,0,0,0-1.455-3.6l-2.115.45a4.092,4.092,0,0,1,1.545,2.91c0,1.23-1.14,2.19-3.24,2.19-1.47,0-2.235-.66-2.235-1.9,0-.27.03-.645.06-1.1h.6c.945,0,1.815-.06,2.655-.135L9.24,21.06a25.985,25.985,0,0,1-3.015.18H6.12c.075-.675.165-1.38.255-2.04A27.033,27.033,0,0,0,9.3,19.05l.06-1.785a21.157,21.157,0,0,1-2.745.21c.06-.495.12-.9.165-1.155A13.427,13.427,0,0,1,7.035,14.985Zm12.945,3.57a17.582,17.582,0,0,1-.72,3.03c-.66-.8-1.335-1.56-1.98-2.25L16,20.34c.825.915,1.71,1.98,2.505,3.045a8.328,8.328,0,0,1-3.2,3.405,7.821,7.821,0,0,1,1.2,1.395,10.086,10.086,0,0,0,3.075-3.24,14,14,0,0,1,1.02,1.845l1.425-1.215a14.859,14.859,0,0,0-1.545-2.43,20.5,20.5,0,0,0,1.23-4.365Zm2.205,2.655a12.5,12.5,0,0,1,1.545,3.27l1.545-.8A11.775,11.775,0,0,0,23.61,20.52Zm7.275-3.585H27.855v-3.33H26.1v3.33H22.83V16.6H20.055v-2.3h-1.71v2.3h-2.61v1.65h6.6v1.08H26.1v6.75c0,.24-.09.315-.36.315s-1.065.015-1.905-.03a7.349,7.349,0,0,1,.57,1.92,5.979,5.979,0,0,0,2.7-.39c.57-.285.75-.81.75-1.815v-6.75H29.46Zm4.02.1H44.31V16.035H38.9V14.31h-1.86v1.725h-5.34v3.78c0,2.16-.1,5.31-1.335,7.455a8.285,8.285,0,0,1,1.545,1c1.35-2.34,1.575-6.045,1.575-8.46Zm7.875,2.22a18.893,18.893,0,0,0-3.63-2.175l-1.185,1.17a17.3,17.3,0,0,1,3.525,2.34ZM34.8,27a13.813,13.813,0,0,0,1.11-4.905l-1.6-.345a12.417,12.417,0,0,1-1.1,4.545Zm3.885-.57c-.42,0-.48-.075-.48-.615v-5.22h-1.77V25.83c0,1.665.375,2.19,1.965,2.19h1.665c1.395,0,1.845-.72,2.01-3.285a4.7,4.7,0,0,1-1.575-.72c-.06,2.07-.15,2.415-.6,2.415ZM41.1,21.975a17.834,17.834,0,0,1,1.83,5.01l1.755-.72a17.871,17.871,0,0,0-1.995-4.9Z" transform="translate(294 2521)" fill="#363636"/>
    <g id="グループ_4360" data-name="グループ 4360" transform="translate(-41 113)">
      <path id="パス_8546" data-name="パス 8546" d="M189.133,79.45l6.148-6.147,6.147,6.147,3.853-3.852-6.148-6.149,6.148-6.147-3.853-3.852L195.281,65.6l-6.148-6.147L185.281,63.3l6.148,6.147L185.281,75.6Z" transform="translate(139.606 2277.732)" fill="#e66084"/>
      <path id="パス_8547" data-name="パス 8547" d="M227.687,53.848H176.88a4.492,4.492,0,0,0-4.483,4.5v30a4.491,4.491,0,0,0,4.483,4.5H199.3v3H182.858a1.5,1.5,0,0,0-1.494,1.5v3a1.5,1.5,0,0,0,1.494,1.5H221.71a1.5,1.5,0,0,0,1.494-1.5v-3a1.5,1.5,0,0,0-1.494-1.5H205.272v-3h22.415a4.491,4.491,0,0,0,4.483-4.5v-30a4.492,4.492,0,0,0-4.483-4.5m-.576,34.04H177.455V58.809h49.656Z" transform="translate(132.603 2273.152)" fill="#e66084"/>
    </g>
  </g>
</svg>
