<svg xmlns="http://www.w3.org/2000/svg" width="210" height="262" viewBox="0 0 210 262">
  <g id="グループ_4398" data-name="グループ 4398" transform="translate(-463 -2344)">
    <path id="パス_9037" data-name="パス 9037" d="M10,0H200a10,10,0,0,1,10,10V252a10,10,0,0,1-10,10H10A10,10,0,0,1,0,252V10A10,10,0,0,1,10,0Z" transform="translate(463 2344)" fill="#fdeff2"/>
    <path id="合体_59" data-name="合体 59" d="M5290,138V76a10,10,0,0,1,10-10h190a10,10,0,0,1,10,10v62l-105,16Z" transform="translate(-4827 2278)" fill="#818181"/>
    <path id="パス_9038" data-name="パス 9038" d="M-14.64-11.04h3.765v1.08H-13.44v2.43h-1.2Zm3.765,3.51H-12.4V-9.045h1.53Zm-4.905,1.1h6.015v4.1c0,.135-.06.2-.21.2A11.542,11.542,0,0,1-11.19-2.16a4.32,4.32,0,0,1,.345,1.11A5.286,5.286,0,0,0-9-1.23c.4-.2.51-.525.51-1.11V-7.53H-9.615v-4.575h-6.24V-7.53H-17.01v6.465h1.23Zm3.885,3.075h-1.8V-4.7h1.8Zm1.035-2.265h-3.87v3.72h1.035V-2.43h2.835ZM-17.865-9.81a11.15,11.15,0,0,0-2.37-2.4l-1.065.78a10.71,10.71,0,0,1,2.31,2.505Zm-.405,3.045h-3.135v1.29h1.8V-1.86A20.683,20.683,0,0,1-21.57-.33l.69,1.38C-20.145.405-19.485-.2-18.855-.81A5,5,0,0,0-14.79.915c1.74.06,4.92.03,6.645-.045A6.074,6.074,0,0,1-7.695-.5c-1.905.135-5.385.18-7.08.1-1.665-.075-2.85-.54-3.5-1.575Zm13.44.615.63,1.56C-3.105-5.055.045-6.36,1.86-6.36A2.135,2.135,0,0,1,4.23-4.275C4.23-2.01,1.515-1.1-1.815-.99l.63,1.455C3.165.2,5.775-1.44,5.775-4.26c0-2.145-1.56-3.465-3.8-3.465a20.328,20.328,0,0,0-5.325,1.2C-3.81-6.39-4.395-6.225-4.83-6.15ZM8.31-10.125l.165,1.65c1.665-.36,5.16-.72,6.675-.885A6.04,6.04,0,0,0,12.6-4.485C12.6-1.17,15.675.405,18.615.54l.555-1.59c-2.49-.105-5.04-1.02-5.04-3.75a4.973,4.973,0,0,1,3.33-4.515,13.38,13.38,0,0,1,2.91-.225v-1.515c-1.035.045-2.535.135-4.14.27-2.76.225-5.43.48-6.525.585C9.42-10.17,8.9-10.14,8.31-10.125ZM-62.865,25.11h-1.41V20.97h1.41Zm1.215,1.23v-6.6h-2.565a25.587,25.587,0,0,0,.9-3.315h2v-1.26H-66.4v1.26h1.74a13.586,13.586,0,0,1-2.085,5.46,7.616,7.616,0,0,1,.555,1.575,10.077,10.077,0,0,0,.72-1V27.5h1.2V26.34Zm4.005-8.46V20.2H-59.43V17.88ZM-55.02,21.4a9.818,9.818,0,0,1-1.635,3.03A10.418,10.418,0,0,1-58.44,21.4Zm.735-1.245-.24.045H-56.4V17.88h1.86a17.591,17.591,0,0,1-.45,1.725l1.1.255a22.526,22.526,0,0,0,.825-3.045l-.87-.21-.21.045H-56.4V14.43h-1.245v2.22H-60.63v3.9c0,2.07-.135,4.92-1.44,6.93a4.449,4.449,0,0,1,1.035.69,12.814,12.814,0,0,0,1.575-6.165,11.919,11.919,0,0,0,1.965,3.345,8.5,8.5,0,0,1-2.745,1.74,4.288,4.288,0,0,1,.75,1.065,10.182,10.182,0,0,0,2.835-1.89,9.921,9.921,0,0,0,2.94,1.905,5.521,5.521,0,0,1,.885-1.14,8.71,8.71,0,0,1-2.94-1.71,11.629,11.629,0,0,0,2.295-4.86ZM-40.17,17.2h-4.02v-1.29h4.02Zm1.365-2.28h-6.66V18.21h6.66Zm-7.5,7.125-.18-1.305c-.54.165-1.1.315-1.635.465V18.615h1.6v-1.29h-1.6v-2.91h-1.365v2.91H-51.51v1.29h2.025v2.97c-.84.225-1.62.42-2.25.555l.345,1.365,1.9-.54V26.61c0,.225-.09.285-.285.285s-.81.015-1.44-.015a4.771,4.771,0,0,1,.39,1.275,5.281,5.281,0,0,0,2.1-.225c.45-.225.6-.6.6-1.32V22.575Zm1.785,1.605h4.665V24.6H-44.52Zm0-1.89h4.665v.945H-44.52Zm0-1.86h4.665v.915H-44.52Zm6.06,5.7V18.9h-7.38v6.7h1.44a11.05,11.05,0,0,1-3.015,1.635,8.109,8.109,0,0,1,.945.96,12.479,12.479,0,0,0,3.48-1.965l-1-.63h3.285l-.885.645A13.993,13.993,0,0,1-39.09,28.2l1.38-.7a17.693,17.693,0,0,0-2.67-1.89Zm9-9.24c.1.3.24.69.39,1.155a30.949,30.949,0,0,1-5.865-.195l.03,1.515a39.444,39.444,0,0,0,6.36.045,20.641,20.641,0,0,0,1.635,3.12c-.51-.06-1.575-.15-2.37-.21l-.1,1.245a35.97,35.97,0,0,1,3.78.45l.75-1.08a7.106,7.106,0,0,1-.72-.885,16.714,16.714,0,0,1-1.545-2.79,25.853,25.853,0,0,0,2.925-.585l-.18-1.5a18.533,18.533,0,0,1-3.24.72,16.312,16.312,0,0,1-.645-2.475l-1.62.195C-29.715,15.54-29.565,16.035-29.46,16.365Zm-2.85,5.88-1.485-.33a5.888,5.888,0,0,0-.75,2.625c0,2.085,1.86,3.18,4.8,3.195a20.488,20.488,0,0,0,3.945-.33l.075-1.5a18.968,18.968,0,0,1-3.93.36c-2.16-.015-3.375-.6-3.375-1.95A3.8,3.8,0,0,1-32.31,22.245Zm21.375-6.9h-1.6a9.91,9.91,0,0,1,.1,1.23v1.95c-1.5.135-3.135.285-4.515.42.015-.72.015-1.35.015-1.77a11.849,11.849,0,0,1,.075-1.365h-1.665a8.911,8.911,0,0,1,.105,1.44v1.83c-.63.06-1.125.1-1.455.135-.63.06-1.245.09-1.7.09l.165,1.53c.39-.06,1.17-.165,1.635-.225.33-.045.8-.09,1.35-.15,0,1.44,0,2.985.015,3.63.06,2.475.45,3.285,4.1,3.285a42.223,42.223,0,0,0,4.335-.255l.045-1.605a28,28,0,0,1-4.47.375c-2.445,0-2.505-.48-2.55-2.025-.03-.615-.015-2.1,0-3.57,1.4-.15,3.03-.3,4.485-.42a21.376,21.376,0,0,1-.15,2.175c-.03.33-.18.39-.525.39a8.738,8.738,0,0,1-1.44-.195l-.03,1.305a17.668,17.668,0,0,0,2.1.225c.72,0,1.065-.195,1.215-.915a22.848,22.848,0,0,0,.225-3.09c.555-.03,1.05-.06,1.44-.06s1.05-.03,1.305-.015v-1.47c-.39.03-.9.075-1.29.09-.42.03-.915.06-1.425.105.015-.6.015-1.245.03-1.89A8.914,8.914,0,0,1-10.935,15.345Zm4.92,1.53.165,1.65c1.665-.36,5.16-.72,6.675-.885a6.04,6.04,0,0,0-2.55,4.875c0,3.315,3.075,4.89,6.015,5.025l.555-1.59c-2.49-.105-5.04-1.02-5.04-3.75a4.973,4.973,0,0,1,3.33-4.515,13.38,13.38,0,0,1,2.91-.225V15.945c-1.035.045-2.535.135-4.14.27-2.76.225-5.43.48-6.525.585C-4.9,16.83-5.43,16.86-6.015,16.875Zm19.125-1.65-1.92-.015a8.68,8.68,0,0,1,.165,1.74c0,1.44-.15,5.31-.15,7.44,0,2.49,1.53,3.465,3.81,3.465a7.617,7.617,0,0,0,6.375-3.36l-1.065-1.3a6.146,6.146,0,0,1-5.28,3.09c-1.305,0-2.28-.54-2.28-2.13,0-2.07.105-5.535.18-7.2A13.681,13.681,0,0,1,13.11,15.225Zm13.71,10.14c0-.6.69-1.095,1.965-1.095a6.8,6.8,0,0,1,1.365.135c.015.33.015.63.015.84,0,.96-.645,1.215-1.485,1.215C27.39,26.46,26.82,26.01,26.82,25.365ZM31.545,15h-1.6a4.922,4.922,0,0,1,.075.945v.915H29.37a27.177,27.177,0,0,1-3.765-.33L25.62,17.9c.975.12,2.775.27,3.765.27H30V20.01h-.765a29.325,29.325,0,0,1-3.705-.27l.015,1.41c1.035.12,2.7.195,3.66.195h.825c.015.555.045,1.17.06,1.755-.36-.03-.72-.06-1.11-.06-2.235,0-3.57.975-3.57,2.415,0,1.5,1.215,2.34,3.465,2.34,1.965,0,2.79-1.035,2.79-2.175,0-.21-.015-.465-.03-.78A11.533,11.533,0,0,1,35,27.03l.87-1.335a12.044,12.044,0,0,0-4.305-2.3c-.03-.675-.075-1.395-.105-2.085,1.44-.06,2.685-.165,4.065-.33l.015-1.4c-1.305.18-2.625.315-4.11.375V18.1c1.455-.06,2.85-.195,3.96-.33V16.4a32.958,32.958,0,0,1-3.945.42c.015-.33.015-.615.03-.795C31.485,15.6,31.515,15.27,31.545,15Zm7.95,5.85.63,1.56c1.1-.465,4.245-1.77,6.06-1.77a2.135,2.135,0,0,1,2.37,2.085c0,2.265-2.715,3.18-6.045,3.285l.63,1.455c4.35-.27,6.96-1.905,6.96-4.725,0-2.145-1.56-3.465-3.8-3.465a20.328,20.328,0,0,0-5.325,1.2C40.515,20.61,39.93,20.775,39.5,20.85ZM60.75,23.385l-1.4-.135a8.815,8.815,0,0,0-.255,1.875c0,1.485,1.32,2.28,3.765,2.28a23.161,23.161,0,0,0,2.97-.21l.045-1.515a16.95,16.95,0,0,1-3,.3c-1.92,0-2.325-.615-2.325-1.29A5.507,5.507,0,0,1,60.75,23.385ZM59.04,15.12l-1.8-.135a6.136,6.136,0,0,1-.06,1.35c-.03.285-.1.675-.18,1.125-.525.045-1.035.06-1.5.06a14.135,14.135,0,0,1-1.83-.12l.03,1.47c.54.045,1.1.06,1.785.06.375,0,.78-.015,1.215-.03-.12.5-.24.99-.36,1.455a34.694,34.694,0,0,1-2.55,6.72l1.635.555a45.313,45.313,0,0,0,2.37-6.9c.165-.63.33-1.32.48-1.965a26.877,26.877,0,0,0,3.015-.51V16.77a26.32,26.32,0,0,1-2.715.525c.075-.33.135-.63.18-.885C58.815,16.11,58.95,15.495,59.04,15.12Zm1.185,4.56v1.4a25.244,25.244,0,0,1,2.835-.165,18.956,18.956,0,0,1,2.55.195l.045-1.44a25.424,25.424,0,0,0-2.625-.12C62.07,19.545,61.035,19.6,60.225,19.68Z" transform="translate(568 2377)" fill="#fff"/>
    <path id="パス_9039" data-name="パス 9039" d="M-19.278-8.075l-.374.136h-2.686l.408-.663c-.391-.187-.9-.374-1.462-.595a28.028,28.028,0,0,0,3.927-3.23l-1.445-1.139-.459.119H-31.535v1.853h8.211A17.7,17.7,0,0,1-25.483-10c-.952-.357-1.9-.68-2.669-.952l-1,1.53c1.088.408,2.465.952,3.723,1.479h-7.735v1.921h6.715V-.8c0,.255-.1.323-.425.34-.34,0-1.6,0-2.6-.034a6.885,6.885,0,0,1,.731,1.938A10.622,10.622,0,0,0-25.4,1.139c.816-.289,1.054-.8,1.054-1.87V-6.018h3.587a21.487,21.487,0,0,1-1.326,2.091l1.734,1a22.644,22.644,0,0,0,2.72-4.437Zm6.188,2.6h2.108v1.156H-13.09Zm2.108-5.151v.986H-13.09v-.986ZM-13.09-8.092h2.108v1.071H-13.09Zm5,3.774H-9.129v-6.307h1.156v-1.768H-9.129v-1.8h-1.853v1.8H-13.09v-1.8h-1.819v1.8h-1.326v1.768h1.326v6.307h-1.53V-2.55h8.347Zm-6.239,1.887A7.866,7.866,0,0,1-16.575.323,11.411,11.411,0,0,1-14.96,1.53a11.959,11.959,0,0,0,2.516-3.4ZM-5.525-5.95c.017-.527.017-1.02.017-1.462v-.629H-3.06V-5.95Zm2.465-5.865v1.989H-5.508v-1.989ZM-1.1-13.651H-7.4v6.239C-7.4-5.2-7.48-2.329-8.466-.2A18.521,18.521,0,0,0-10.3-2.516l-1.53.833A16.9,16.9,0,0,1-10.013.884L-8.6.085c-.051.1-.119.187-.17.289a5.841,5.841,0,0,1,1.6,1.139,13.952,13.952,0,0,0,1.53-5.661H-3.06V-.8c0,.272-.085.357-.34.357-.238,0-1.054.017-1.785-.034a7.325,7.325,0,0,1,.578,1.921,5.843,5.843,0,0,0,2.72-.357C-1.292.765-1.1.238-1.1-.765Zm14.11.306H10.727a14.3,14.3,0,0,1,.119,1.564V-9.86c-1.547.136-3.2.289-4.641.425,0-.663.017-1.241.017-1.632a11.261,11.261,0,0,1,.1-1.768h-2.4a13.131,13.131,0,0,1,.136,1.887v1.717c-.544.051-.986.085-1.292.119-.867.085-1.649.119-2.142.119L.867-6.817c.442-.068,1.5-.238,2.04-.306.289-.034.68-.068,1.139-.119,0,1.581,0,3.23.017,3.961C4.148-.34,4.675.578,9.078.578A48.092,48.092,0,0,0,13.923.306l.085-2.312a34.25,34.25,0,0,1-5.083.425c-2.55,0-2.7-.374-2.737-2.04-.034-.731-.017-2.3,0-3.859,1.445-.153,3.111-.306,4.624-.425a18.73,18.73,0,0,1-.136,2.057c-.034.323-.187.391-.527.391a9.007,9.007,0,0,1-1.564-.221L8.534-3.791a25.73,25.73,0,0,0,2.567.255c.867,0,1.292-.221,1.479-1.122a29.824,29.824,0,0,0,.255-3.4c.493-.034.935-.051,1.309-.068.442-.017,1.343-.034,1.632-.017v-2.091c-.493.051-1.156.085-1.632.119-.391.017-.816.051-1.275.085.017-.561.017-1.173.034-1.836C12.92-12.325,12.971-13.073,13.005-13.345ZM26.928-2.176c0-.425.408-.8,1.088-.8a3.406,3.406,0,0,1,1.53.391A1.9,1.9,0,0,1,27.914-1.36C27.285-1.36,26.928-1.683,26.928-2.176Zm.51-11.322-2.346-.068a8.653,8.653,0,0,1,.034,1.53c-.017.272-.034.578-.068.9a9.224,9.224,0,0,0-3.536,1.581,25.109,25.109,0,0,1-.7-2.567l-1.989.833c.408,1,.493,1.394.7,2.006.136.374.272.765.425,1.19-.187.2-.357.425-.527.646A7.745,7.745,0,0,0,17.9-2.788c0,1.955,1.156,2.975,2.55,2.975,2.346,0,4.641-3.23,5.644-6.307a24.058,24.058,0,0,0,.8-3.383,3.246,3.246,0,0,1,3.315,3.587,9.251,9.251,0,0,1-.153,1.683,6.032,6.032,0,0,0-2.108-.374,2.775,2.775,0,0,0-2.873,2.652c0,1.6,1.156,2.482,2.924,2.482a3.646,3.646,0,0,0,3.247-1.8c.476.459.867.952,1.19,1.326l1.275-1.615a9.676,9.676,0,0,0-1.7-1.6,11.477,11.477,0,0,0,.323-2.822,5.132,5.132,0,0,0-5.185-5.321c.034-.221.068-.442.085-.663C27.268-12.274,27.336-12.92,27.438-13.5ZM19.856-3.162a5.881,5.881,0,0,1,.918-2.8c.187.408.357.782.527,1.122A16.574,16.574,0,0,0,22.253-3.2a2.738,2.738,0,0,1-1.666,1.173C20.145-2.023,19.856-2.55,19.856-3.162Zm2.839-3.485c-.153-.306-.323-.68-.493-1.071a6.6,6.6,0,0,1,2.584-1.5,18.879,18.879,0,0,1-.646,2.567,13.49,13.49,0,0,1-.646,1.513A15.335,15.335,0,0,1,22.695-6.647ZM-43.231,18.089c.34.272.663.561.85.731a9.087,9.087,0,0,0,.748-1.071,19.632,19.632,0,0,0,1.462,3.842,8.868,8.868,0,0,1-3.06,2.329Zm-1.921,4.352h-2.72V19.7h2.72Zm7.5-7.31a15.591,15.591,0,0,1-1.292,4.522,18.772,18.772,0,0,1-1.394-4.522Zm3.111,0v-1.9h-5.185a27.251,27.251,0,0,0,.646-2.7l-2.074-.323c-.459,2.907-1.394,5.627-2.907,7.276a5.223,5.223,0,0,1,.476.34h-1.87V15.2h2.788V13.312h-2.788V10.2h-2.023v3.111h-2.958V15.2h2.958v2.618h-2.261v7.514h1.87v-1h3.927a8.264,8.264,0,0,1,1.071,1.734,12.134,12.134,0,0,0,3.825-2.72,9.347,9.347,0,0,0,3.315,2.737,7.291,7.291,0,0,1,1.377-1.751,8.418,8.418,0,0,1-3.4-2.737,18.625,18.625,0,0,0,2.125-6.46Zm10.659-1.241a5.56,5.56,0,0,0-.323-1.054H-21.4c-.136.357-.306.748-.442,1.054Zm-4,0v1.581h10.2V13.89h-2.295c.17-.289.357-.646.561-1.054H-18V11.255h-3.842V10.2H-23.8v1.054h-3.5v1.581h1.258a4.764,4.764,0,0,1,.34,1.054Zm-.884-3.043-.289.085h-3.689V26.079h1.751V12.734h1.326c-.272,1.156-.629,2.635-.969,3.706a4.55,4.55,0,0,1,1.173,2.975c0,.476-.068.816-.255.952a.88.88,0,0,1-.476.153c-.221,0-.442,0-.748-.017A4.286,4.286,0,0,1-30.5,22.22a7.268,7.268,0,0,0,1.088-.034,2.428,2.428,0,0,0,.986-.357,2.5,2.5,0,0,0,.748-2.176,5.234,5.234,0,0,0-1.241-3.417c.476-1.326,1.037-3.179,1.479-4.624Zm3.6,8.415h4.743v.714H-25.16Zm0-1.87h4.743v.714H-25.16Zm7.565,4.675h-4.25V21.2h3.3V16.168h-8.415V21.2H-23.8v.867h-4.216v1.6H-23.8v2.414h1.955V23.665h4.25Zm8.211-9.35v2.176a45.627,45.627,0,0,0,7.31,0V12.7A34.957,34.957,0,0,1-9.384,12.717Zm1.36,7.259-1.955-.187A10.386,10.386,0,0,0-10.268,22c0,1.751,1.411,2.788,4.335,2.788a24.075,24.075,0,0,0,4.386-.323l-.034-2.3a20.1,20.1,0,0,1-4.267.442c-1.734,0-2.38-.459-2.38-1.207A5.77,5.77,0,0,1-8.024,19.976ZM-12,11.578l-2.38-.2c-.017.544-.119,1.19-.17,1.666a47.4,47.4,0,0,0-.714,6.732,21.731,21.731,0,0,0,.663,5.559l1.972-.136c-.017-.238-.034-.51-.034-.7a5.13,5.13,0,0,1,.085-.8c.187-.9.748-2.754,1.224-4.165L-12.41,18.7c-.238.561-.51,1.156-.765,1.734a8.2,8.2,0,0,1-.068-1.105,45.089,45.089,0,0,1,.816-6.239C-12.359,12.785-12.138,11.935-12,11.578Zm19.975-.6-2.4-.136a9.106,9.106,0,0,1-.017,1.513c-.034.391-.085.85-.136,1.377a16.055,16.055,0,0,1-3.5-.646L1.8,15.046a19.963,19.963,0,0,0,3.383.612C5.1,16.423,5,17.222,4.9,17.987a15.622,15.622,0,0,1-3.349-.68l-.119,2.057a19.02,19.02,0,0,0,3.264.561c-.068.7-.119,1.309-.119,1.717,0,2.839,1.887,4,4.556,4,3.723,0,6.035-1.836,6.035-4.4a6.336,6.336,0,0,0-1.649-4.08l-2.4.51a4.637,4.637,0,0,1,1.751,3.3c0,1.394-1.292,2.482-3.672,2.482-1.666,0-2.533-.748-2.533-2.159,0-.306.034-.731.068-1.241h.68c1.071,0,2.057-.068,3.009-.153l.051-2.023a29.449,29.449,0,0,1-3.417.2H6.936c.085-.765.187-1.564.289-2.312a30.638,30.638,0,0,0,3.315-.17l.068-2.023A23.978,23.978,0,0,1,7.5,13.8c.068-.561.136-1.02.187-1.309A15.217,15.217,0,0,1,7.973,10.983Zm14.671,4.046a19.926,19.926,0,0,1-.816,3.434c-.748-.9-1.513-1.768-2.244-2.55l-1.445,1.139c.935,1.037,1.938,2.244,2.839,3.451a9.438,9.438,0,0,1-3.621,3.859,8.863,8.863,0,0,1,1.36,1.581A11.431,11.431,0,0,0,22.2,22.271a15.87,15.87,0,0,1,1.156,2.091l1.615-1.377a16.841,16.841,0,0,0-1.751-2.754,23.228,23.228,0,0,0,1.394-4.947Zm2.5,3.009a14.165,14.165,0,0,1,1.751,3.706l1.751-.9a13.345,13.345,0,0,0-1.887-3.587Zm8.245-4.063H31.569V10.2H29.58v3.774H25.874V12.819H22.729v-2.6H20.791v2.6H17.833v1.87h7.48v1.224H29.58v7.65c0,.272-.1.357-.408.357-.289,0-1.207.017-2.159-.034a8.329,8.329,0,0,1,.646,2.176,6.776,6.776,0,0,0,3.06-.442c.646-.323.85-.918.85-2.057v-7.65h1.819Zm4.556.119H50.218V12.173H44.081V10.218H41.973v1.955H35.921v4.284c0,2.448-.119,6.018-1.513,8.449a9.39,9.39,0,0,1,1.751,1.139c1.53-2.652,1.785-6.851,1.785-9.588Zm8.925,2.516a21.411,21.411,0,0,0-4.114-2.465l-1.343,1.326a19.611,19.611,0,0,1,3.995,2.652ZM39.44,24.6A15.655,15.655,0,0,0,40.7,19.041l-1.819-.391A14.073,14.073,0,0,1,37.638,23.8Zm4.4-.646c-.476,0-.544-.085-.544-.7V17.341H41.293v5.933c0,1.887.425,2.482,2.227,2.482h1.887c1.581,0,2.091-.816,2.278-3.723a5.321,5.321,0,0,1-1.785-.816c-.068,2.346-.17,2.737-.68,2.737Zm2.737-5.049a20.212,20.212,0,0,1,2.074,5.678l1.989-.816a20.254,20.254,0,0,0-2.261-5.559Z" transform="translate(568 2552)" fill="#363636"/>
    <g id="グループ_4360" data-name="グループ 4360" transform="translate(230 127)">
      <path id="パス_8546" data-name="パス 8546" d="M189.133,79.45l6.148-6.147,6.147,6.147,3.853-3.852-6.148-6.149,6.148-6.147-3.853-3.852L195.281,65.6l-6.148-6.147L185.281,63.3l6.148,6.147L185.281,75.6Z" transform="translate(142.719 2279.55)" fill="#e66084"/>
      <path id="パス_8547" data-name="パス 8547" d="M233.447,53.848h-56.1a4.96,4.96,0,0,0-4.95,4.969V91.943a4.959,4.959,0,0,0,4.95,4.967H202.1v3.313h-18.15a1.653,1.653,0,0,0-1.65,1.656v3.313a1.653,1.653,0,0,0,1.65,1.656h42.9a1.653,1.653,0,0,0,1.65-1.656v-3.313a1.653,1.653,0,0,0-1.65-1.656H208.7V96.91h24.75a4.959,4.959,0,0,0,4.95-4.967V58.817a4.96,4.96,0,0,0-4.95-4.969m-.637,37.586H177.982V59.325H232.81Z" transform="translate(132.603 2273.152)" fill="#e66084"/>
    </g>
  </g>
</svg>
