<svg xmlns="http://www.w3.org/2000/svg" width="210" height="262" viewBox="0 0 210 262">
  <g id="グループ_4399" data-name="グループ 4399" transform="translate(-693 -2344)">
    <path id="パス_9040" data-name="パス 9040" d="M10,0H200a10,10,0,0,1,10,10V252a10,10,0,0,1-10,10H10A10,10,0,0,1,0,252V10A10,10,0,0,1,10,0Z" transform="translate(693 2344)" fill="#fdeff2"/>
    <path id="合体_60" data-name="合体 60" d="M5290,138V76a10,10,0,0,1,10-10h190a10,10,0,0,1,10,10v62l-105,16Z" transform="translate(-4597 2278)" fill="#818181"/>
    <path id="パス_9041" data-name="パス 9041" d="M-55.725-12.5A16.231,16.231,0,0,1-59.43-6.6a9.532,9.532,0,0,1,.84,1.425A13.67,13.67,0,0,0-57.27-6.72V1.155h1.41V-8.9a23.52,23.52,0,0,0,1.515-3.165Zm10.05,3.18H-47.46V-12.42H-48.9v3.105h-5.865v1.4H-48.9V-.6c0,.33-.135.435-.48.45s-1.6.03-2.82-.03a5.7,5.7,0,0,1,.54,1.4,11.286,11.286,0,0,0,3.315-.24c.63-.21.885-.6.885-1.575V-7.92h1.785Zm-4.905,6.3c-.45-.9-1.425-2.415-2.145-3.54l-1.215.57A37.323,37.323,0,0,1-51.885-2.31Zm17.52-7.845v1.1h-8.49v-1.1Zm1.38,2.19v-3.285H-42.915v4.35c0,2.37-.135,5.7-1.575,8.01a4.292,4.292,0,0,1,1.2.705c1.515-2.445,1.74-6.165,1.74-8.715V-8.67ZM-33.09.075a11.521,11.521,0,0,0-1.095-2.04l-.825.21c.105.18.225.375.33.57l-1.065.045v-1h3.015V.03c0,.15-.045.18-.21.2a3.971,3.971,0,0,1-.615,0ZM-39.285-4.65v-.9h2.265v.9Zm5.865-.9v.9h-2.325v-.9Zm1.98,2.46h-4.305v-.72H-32.1V-6.39h-3.645v-.765a30.167,30.167,0,0,0,3.48-.45l-.795-.825a50.473,50.473,0,0,1-7.74.585,3.33,3.33,0,0,1,.27.885c1.11,0,2.325-.045,3.51-.105v.675h-3.51v2.58h3.51v.72h-4.1V1.2h1.26V-2.145h2.835V-1.1c-.885.03-1.695.06-2.355.075l.1,1.02c1.365-.075,3.225-.165,5.055-.285.09.2.165.345.225.51L-34.155.21a4.6,4.6,0,0,1,.345.96A5.567,5.567,0,0,0-31.935,1c.39-.165.5-.42.5-.975Zm11.76-5.085h-5.625V-10.62h5.625Zm1.425-3.78H-26.64V-6.84h8.385ZM-24.7-4.05V-.93h-2.73V-4.05Zm-4.05,5.235h1.32V.405h2.73V1.08h1.38V-5.385h-5.43ZM-20.52-.93V-4.05h2.97V-.93Zm-1.335-4.455v6.57h1.335V.405h2.97V1.11h1.4v-6.5Zm13.425-6.3-1.755-.18a16.84,16.84,0,0,1-.36,3.225c-.84.075-1.65.135-2.13.15-.51.015-.96.03-1.455,0l.15,1.62c.4-.075,1.11-.165,1.485-.21.345-.045.96-.12,1.635-.195A23.4,23.4,0,0,1-13.965.03l1.545.615a31.32,31.32,0,0,0,3.1-8.07c.555-.06,1.05-.09,1.365-.09C-7-7.515-6.42-7.29-6.42-6a12.363,12.363,0,0,1-.66,4.41,1.205,1.205,0,0,1-1.23.705,7.922,7.922,0,0,1-1.845-.3L-9.9.375A8.3,8.3,0,0,0-8.115.6,2.241,2.241,0,0,0-5.8-.72,14.524,14.524,0,0,0-4.95-6.165c0-2.1-1.11-2.685-2.55-2.685-.345,0-.9.03-1.515.09.135-.7.27-1.425.36-1.89C-8.58-10.98-8.5-11.37-8.43-11.685Zm6.84-1.14-.975.4A15.144,15.144,0,0,1-1.32-10.35l.975-.435A23.276,23.276,0,0,0-1.59-12.825Zm-1.71.63-.975.405A13.592,13.592,0,0,1-3.21-9.96c-.015-.03-.045-.06-.06-.09l-1.4.615a17.311,17.311,0,0,1,2.61,5.49l1.485-.7A26.24,26.24,0,0,0-3.045-9.72l.96-.4A21.974,21.974,0,0,0-3.3-12.2ZM9.15-8.55h2.805a14.93,14.93,0,0,1-1.38,4.53,16.673,16.673,0,0,1-1.44-4.5ZM5.4-1.725H2.565v-2.9H5.4Zm9-6.825V-9.87H9.585a21.549,21.549,0,0,0,.6-2.49l-1.41-.225A13.429,13.429,0,0,1,6.21-6.18a3.326,3.326,0,0,1,.36.255H4.71V-8.46H7.26V-9.75H4.71v-2.82H3.315v2.82H.645v1.29h2.67v2.535H1.275V.54h1.29V-.42h4.17V-5.805c.255.21.495.405.645.555a8.916,8.916,0,0,0,.87-1.335,17.566,17.566,0,0,0,1.47,3.9A8.761,8.761,0,0,1,6.03-.045a5.3,5.3,0,0,1,.8,1.245,10.4,10.4,0,0,0,3.66-2.655A8.37,8.37,0,0,0,13.56,1.2a5.049,5.049,0,0,1,.96-1.215A7.316,7.316,0,0,1,11.37-2.67a16.32,16.32,0,0,0,1.98-5.88Zm9.3-.72a5.846,5.846,0,0,0-.405-1.185h2.91c-.15.39-.36.84-.51,1.185Zm-1.665-1.155A6.607,6.607,0,0,1,22.44-9.27H20.3v1.125H29.31V-9.27H27c.18-.33.375-.75.615-1.17l-.075-.015H29v-1.11h-3.57v-1.02h-1.35v1.02H20.82v1.11h1.365ZM19.74-12l-.21.045h-3.3V1.185h1.23V-10.7h1.605c-.285,1.02-.675,2.355-1.05,3.36A4.114,4.114,0,0,1,19.23-4.53c0,.435-.06.8-.27.945a.808.808,0,0,1-.465.135,4.521,4.521,0,0,1-.765-.015,2.724,2.724,0,0,1,.33,1.2,7.113,7.113,0,0,0,.99-.015,2.019,2.019,0,0,0,.81-.3,2.076,2.076,0,0,0,.615-1.785,4.541,4.541,0,0,0-1.245-3.12c.48-1.17,1.005-2.73,1.425-3.99Zm2.715,7.14H27.12v.825H22.455Zm0-1.665H27.12V-5.7H22.455ZM29.37-2.19H25.425v-.945h3v-4.29h-7.23v4.29h2.88v.945H20.16v1.125h3.915V1.17h1.35V-1.065H29.37Zm5.94-9.585-1.92-.015a8.68,8.68,0,0,1,.165,1.74c0,1.44-.15,5.31-.15,7.44,0,2.49,1.53,3.465,3.81,3.465a7.617,7.617,0,0,0,6.375-3.36L42.525-3.81a6.146,6.146,0,0,1-5.28,3.09c-1.3,0-2.28-.54-2.28-2.13,0-2.07.1-5.535.18-7.2A13.681,13.681,0,0,1,35.31-11.775Zm18.24,8.16-1.4-.135A8.815,8.815,0,0,0,51.9-1.875c0,1.485,1.32,2.28,3.765,2.28A23.161,23.161,0,0,0,58.635.2L58.68-1.32a16.951,16.951,0,0,1-3,.3c-1.92,0-2.325-.615-2.325-1.29A5.507,5.507,0,0,1,53.55-3.615ZM51.84-11.88l-1.8-.135a6.136,6.136,0,0,1-.06,1.35c-.03.285-.1.675-.18,1.125-.525.045-1.035.06-1.5.06a14.135,14.135,0,0,1-1.83-.12l.03,1.47c.54.045,1.1.06,1.785.06.375,0,.78-.015,1.215-.03-.12.495-.24.99-.36,1.455A34.694,34.694,0,0,1,46.59.075L48.225.63a45.313,45.313,0,0,0,2.37-6.9c.165-.63.33-1.32.48-1.965a26.877,26.877,0,0,0,3.015-.51V-10.23a26.32,26.32,0,0,1-2.715.525c.075-.33.135-.63.18-.885C51.615-10.89,51.75-11.505,51.84-11.88Zm1.185,4.56v1.4A25.244,25.244,0,0,1,55.86-6.09a18.955,18.955,0,0,1,2.55.2l.045-1.44a25.424,25.424,0,0,0-2.625-.12C54.87-7.455,53.835-7.4,53.025-7.32Z" transform="translate(798 2391)" fill="#fff"/>
    <path id="パス_9042" data-name="パス 9042" d="M4.539-14.314A17.8,17.8,0,0,1,.476-7.82a16.508,16.508,0,0,1,1.19,2.108c.391-.408.8-.867,1.19-1.36V1.445H4.93V-10.234a31.226,31.226,0,0,0,1.615-3.434Zm11.883,3.57h-1.87v-3.468H12.444v3.468H5.967V-8.7h6.477V-.986c0,.374-.153.51-.578.51-.391.017-1.887.017-3.2-.034A8.052,8.052,0,0,1,9.452,1.5a12.084,12.084,0,0,0,3.978-.34C14.246.85,14.552.323,14.552-.986V-8.7h1.87ZM10.863-3.553C10.353-4.573,9.3-6.239,8.534-7.48l-1.8.833a44.015,44.015,0,0,1,2.21,4.08Zm19.4-8.619v.935H21.2v-.935ZM32.3-9.69v-4.029H19.21v5c0,2.7-.119,6.511-1.751,9.112a8.862,8.862,0,0,1,1.768,1C20.944-1.377,21.2-5.763,21.2-8.721V-9.69ZM30.379.119a10.523,10.523,0,0,0-.833-2.21L28.39-1.8q.1.229.2.51l-.8.017v-.918h2.89V-.085c0,.17-.051.2-.221.2ZM23.936-5.27v-.8h2.04v.8Zm5.933-.8v.8H27.8v-.8ZM32.538-3.5H27.8v-.646h3.961V-7.174H27.8v-.731a35.95,35.95,0,0,0,3.927-.544L30.583-9.588a53.145,53.145,0,0,1-8.7.7,4.472,4.472,0,0,1,.391,1.224c1.173,0,2.448-.034,3.706-.119v.612H22.151v3.026h3.825V-3.5h-4.5V1.479h1.836V-2.193h2.669v.986l-2.3.085L23.8.272c1.462-.085,3.349-.187,5.253-.306.068.238.136.459.17.646l.289-.085a3.764,3.764,0,0,1,.306.935,5.465,5.465,0,0,0,2.091-.221c.51-.221.629-.561.629-1.326Zm12.937-6h-5.95v-2.3h5.95Zm2.057-4.233H37.57v6.154h9.962Zm-7.854,9.5v2.924H37.145V-4.233ZM35.241,1.479h1.9V.629h2.533v.765H41.7V-6.171h-6.46Zm9.843-2.788V-4.233h2.7v2.924ZM43.146-6.171v7.65h1.938V.629h2.7v.782h2.04V-6.171Zm12.682,4.25c0-.578.663-1.054,1.87-1.054a9.441,9.441,0,0,1,1.394.119c.017.306.017.544.017.731,0,.986-.6,1.241-1.5,1.241C56.44-.884,55.828-1.275,55.828-1.921Zm5.321-11.832h-2.3a6.834,6.834,0,0,1,.1,1.173v.8h-.663a31.738,31.738,0,0,1-4.2-.374l.051,1.938a39.079,39.079,0,0,0,4.165.306h.629c-.017.578-.017,1.19-.017,1.751h-.816a30.04,30.04,0,0,1-4.1-.323l.017,2.006c1.122.136,3.06.221,4.046.221h.884c.017.51.034,1.054.068,1.581-.34-.034-.7-.051-1.054-.051-2.618,0-4.2,1.207-4.2,2.924,0,1.8,1.428,2.839,4.148,2.839,2.244,0,3.349-1.122,3.349-2.567,0-.187,0-.391-.017-.629A13.03,13.03,0,0,1,64.685.2l1.224-1.9a13.309,13.309,0,0,0-4.76-2.567c-.051-.68-.085-1.377-.119-2.023,1.632-.051,2.958-.17,4.488-.34l.017-2.006c-1.377.187-2.822.323-4.539.408V-9.979c1.649-.085,3.2-.238,4.318-.374l.017-1.955a35.629,35.629,0,0,1-4.3.459c0-.272,0-.527.017-.7A11.48,11.48,0,0,1,61.149-13.753Zm8.024,2.091.221,2.329c1.972-.425,5.44-.8,7.038-.969A6.8,6.8,0,0,0,73.9-5.049C73.9-1.36,77.265.544,80.835.782l.8-2.329C78.744-1.7,76.126-2.7,76.126-5.508a5.166,5.166,0,0,1,3.6-4.76,17.661,17.661,0,0,1,3.281-.238l-.017-2.176c-1.207.051-3.06.153-4.811.306-3.111.255-5.916.51-7.344.629C70.516-11.713,69.853-11.679,69.173-11.662ZM80.58-8.84l-1.258.527A13.117,13.117,0,0,1,80.648-5.95l1.292-.578A21.1,21.1,0,0,0,80.58-8.84Zm1.9-.782-1.241.578a14.955,14.955,0,0,1,1.394,2.295l1.275-.612A25.43,25.43,0,0,0,82.484-9.622Zm6.868-4.743A17.928,17.928,0,0,1,85.34-8.007a13.513,13.513,0,0,1,1.088,2.074A19.374,19.374,0,0,0,87.72-7.446V1.445h1.921V-10.4a28.425,28.425,0,0,0,1.581-3.349Zm4.131,2.482h4.981V-9.6H93.483Zm7.837,7.429V-6.29H96.934V-7.82h3.553v-5.848H91.562V-7.82h3.332v1.53H90.44v1.836h3.485a12.213,12.213,0,0,1-4.1,3.672A8.348,8.348,0,0,1,91.222.833a13.632,13.632,0,0,0,3.672-3.655v4.3h2.04V-2.907A14.038,14.038,0,0,0,100.385.867a8.606,8.606,0,0,1,1.428-1.615A12.794,12.794,0,0,1,97.92-4.454Zm6.936-9.418h-4.794v1.53h4.794ZM106.641-2.737V-.8h-1.632V-2.737Zm1.734-1.6h-5.066v5.8h1.7V.8h3.366ZM103.36-5.2h4.9v-1.53h-4.9Zm4.9-3.893h-4.9v1.513h4.9Zm-5.695-.833h6.307v-1.6h-6.307ZM115.124-1V-5.7h2.941V-7.6h-2.941v-4.012h3.026v-1.921H109.4v1.921h3.74V-1h-1.292V-9.061h-1.887V-1h-1.037V.884h9.554V-1Z" transform="translate(739 2565)" fill="#363636"/>
    <g id="グループ_4359" data-name="グループ 4359" transform="translate(460 123)">
      <path id="パス_8548" data-name="パス 8548" d="M337.062,73.511l9.058-3.055,2.088-7.936-3.133-2.193-3.9,5.57-5.476-.312-2.164-5.037,3.9-5.572L334.3,52.784l-6.743,4.679.224,9.552L313.052,88.059,304,91.111l-2.09,7.936,3.135,2.193,3.9-5.57,5.476.312,2.164,5.037-3.9,5.572,3.135,2.195,6.741-4.679-.222-9.554-.022-.015L337.043,73.5Z" transform="translate(-3.135 2274.216)" fill="#e66084"/>
      <path id="パス_8549" data-name="パス 8549" d="M323.688,105.758l4.106,2.874a3.25,3.25,0,0,0,4.514-.795L354.4,76.28l.019.012,9.21-3.108,2.127-8.07-3.182-2.228-3.968,5.666-5.571-.317-2.2-5.125,3.966-5.666-3.184-2.228-6.856,4.757.224,9.716-22.1,31.555a3.25,3.25,0,0,0,.8,4.514m3.326-3.016a1.526,1.526,0,1,1,.375,2.125,1.53,1.53,0,0,1-.375-2.125" transform="translate(11.466 2277.784)" fill="#e66084"/>
    </g>
  </g>
</svg>
