<svg xmlns="http://www.w3.org/2000/svg" width="210" height="262" viewBox="0 0 210 262">
  <g id="グループ_4400" data-name="グループ 4400" transform="translate(-923 -2344)">
    <path id="パス_9043" data-name="パス 9043" d="M10,0H200a10,10,0,0,1,10,10V252a10,10,0,0,1-10,10H10A10,10,0,0,1,0,252V10A10,10,0,0,1,10,0Z" transform="translate(923 2344)" fill="#fdeff2"/>
    <path id="合体_61" data-name="合体 61" d="M5290,138V76a10,10,0,0,1,10-10h190a10,10,0,0,1,10,10v62l-105,16Z" transform="translate(-4367 2278)" fill="#818181"/>
    <path id="パス_9044" data-name="パス 9044" d="M-47.91-11.535l-.555,1.41a49.283,49.283,0,0,1,7.95,1.83l.615-1.47A54.568,54.568,0,0,0-47.91-11.535Zm-.675,4.005-.555,1.425A48.85,48.85,0,0,1-41.49-4.26l.585-1.455A56.249,56.249,0,0,0-48.585-7.53Zm-.8,4.335-.6,1.47a49.366,49.366,0,0,1,9,2.235l.66-1.47A57.164,57.164,0,0,0-49.38-3.2Zm15.6-8.115v1.545c.42-.03.96-.045,1.44-.045h5.82c.51,0,1.11.015,1.485.045V-11.31a14.33,14.33,0,0,1-1.47.075H-32.34A13.722,13.722,0,0,1-33.78-11.31Zm9.93,4.125-1.065-.66a2.976,2.976,0,0,1-.96.135h-7.68c-.435,0-1.005-.045-1.59-.105v1.56c.57-.045,1.23-.06,1.59-.06h7.635a7.07,7.07,0,0,1-1.665,3,10.092,10.092,0,0,1-5.25,2.7l1.17,1.35a11.084,11.084,0,0,0,5.37-3.2,10.613,10.613,0,0,0,2.2-4.2A2.634,2.634,0,0,1-23.85-7.185Zm2.79,1.59.735,1.485A30.689,30.689,0,0,0-14.79-6.435v5.22a17.382,17.382,0,0,1-.09,1.77h1.86a11.28,11.28,0,0,1-.1-1.77V-7.44A25.3,25.3,0,0,0-9.09-10.725l-1.26-1.2a18.516,18.516,0,0,1-4.17,3.57A24.77,24.77,0,0,1-21.06-5.6ZM.45-11.82l-1.71-.54a7.026,7.026,0,0,1-.57,1.35,13.755,13.755,0,0,1-4.8,5.115l1.275.99a16.988,16.988,0,0,0,3.96-3.93h4.74A12.294,12.294,0,0,1,1.47-5.055C.465-5.745-.585-6.42-1.485-6.945L-2.52-5.88c.87.555,1.95,1.29,2.985,2.04A12.753,12.753,0,0,1-5.2-.39L-3.84.81a14.288,14.288,0,0,0,5.565-3.7c.615.495,1.185.96,1.605,1.35l1.11-1.32C3.975-3.24,3.39-3.69,2.76-4.14a17.176,17.176,0,0,0,2.3-4.53A7.547,7.547,0,0,1,5.46-9.6l-1.215-.75a3.492,3.492,0,0,1-1.125.165H-.495c.06-.105.105-.195.165-.3C-.165-10.785.15-11.37.45-11.82ZM14.6-8.76l-1.41.465a27.433,27.433,0,0,1,1.2,3.3l1.41-.51C15.6-6.165,14.865-8.13,14.6-8.76Zm5.475.96-1.65-.525a10.411,10.411,0,0,1-2,5.13A10.222,10.222,0,0,1,11.505-.03L12.75,1.245a11.624,11.624,0,0,0,4.935-3.63,12.024,12.024,0,0,0,2.1-4.53C19.845-7.155,19.935-7.425,20.07-7.8ZM11.1-7.98l-1.41.51a30.635,30.635,0,0,1,1.365,3.42l1.425-.525C12.2-5.4,11.445-7.29,11.1-7.98Zm13.5-2.6.375,1.38c1.1-.015,2.73-.06,4.215-.195v2.46H24.81a11.977,11.977,0,0,1-1.35-.075V-5.46c.375-.03.9-.045,1.365-.045h4.32A5.965,5.965,0,0,1,25.365-.3L26.85.72a7.3,7.3,0,0,0,3.855-6.225h4.05c.39,0,.87.015,1.23.045V-6.99c-.33.03-.945.06-1.26.06h-3.99V-9.585a27.391,27.391,0,0,0,2.775-.555c.24-.06.57-.135.975-.24L33.51-11.7a17.037,17.037,0,0,1-3.825.885A33,33,0,0,1,24.6-10.575ZM44.28-11.94l-1.56-.12a7.47,7.47,0,0,1-.345,1.785c-.3.015-.6.015-.885.015a19.388,19.388,0,0,1-2.58-.165v1.41c.84.06,1.875.09,2.505.09h.435a15.071,15.071,0,0,1-3.39,4.38l1.29.96A16.314,16.314,0,0,1,41.115-5.19,3.823,3.823,0,0,1,43.6-6.27a1.207,1.207,0,0,1,1.23.75c-1.74.885-3.54,2.055-3.54,3.9S43.035.765,45.27.765A38.2,38.2,0,0,0,49.44.5l.045-1.515a25.543,25.543,0,0,1-4.17.39c-1.515,0-2.49-.21-2.49-1.23,0-.885.81-1.575,2.1-2.28-.015.735-.03,1.59-.06,2.115H46.29c-.015-.72-.03-1.92-.045-2.775,1.05-.48,2.025-.87,2.79-1.17.45-.18,1.095-.42,1.53-.555l-.615-1.38c-.48.24-.915.435-1.425.66-.705.33-1.47.645-2.4,1.08a1.975,1.975,0,0,0-2.01-1.275,4.405,4.405,0,0,0-1.92.45A12.037,12.037,0,0,0,43.35-8.97a46.346,46.346,0,0,0,4.935-.39v-1.395a34.582,34.582,0,0,1-4.41.435C44.07-10.965,44.19-11.52,44.28-11.94ZM-56.565,25.2c0-.765.8-1.23,2.19-1.23a6.906,6.906,0,0,1,1.365.135c.015.3.015.555.015.75a1.3,1.3,0,0,1-1.5,1.5C-55.77,26.355-56.565,25.98-56.565,25.2Zm5.025-10.1h-1.8a8.485,8.485,0,0,1,.15,1.62c0,.645.015,1.725.015,2.61,0,.855.06,2.19.1,3.375-.36-.03-.735-.06-1.11-.06-2.655,0-3.915,1.155-3.915,2.61,0,1.845,1.635,2.52,3.735,2.52,2.22,0,2.94-1.14,2.94-2.415,0-.225,0-.5-.015-.8A10.994,10.994,0,0,1-47.79,27l.9-1.41a11.679,11.679,0,0,0-4.62-2.565c-.06-1.23-.15-2.61-.15-3.57,1.215-.03,3.075-.105,4.38-.24l-.06-1.41c-1.29.15-3.12.225-4.32.24,0-.48-.015-.945,0-1.32A15.987,15.987,0,0,1-51.54,15.1Zm11.61-.03L-41.565,15a13.027,13.027,0,0,1-.12,1.425,39.579,39.579,0,0,0-.435,4.83,18.854,18.854,0,0,0,.165,2.43l1.47-.1a6.947,6.947,0,0,1-.06-1.725c.135-1.98,1.8-4.68,3.63-4.68,1.425,0,2.22,1.53,2.22,3.87,0,3.72-2.46,4.935-5.745,5.445l.9,1.365c3.825-.7,6.435-2.625,6.435-6.81,0-3.225-1.515-5.235-3.555-5.235-1.815,0-3.255,1.6-3.915,2.97A29.031,29.031,0,0,1-39.93,15.075Zm15.135,8.73c-.51.18-1.05.345-1.56.51v-3.39h1.425v-1.29h-1.425V16.65h1.665V15.36h-4.77v1.29h1.77v2.985h-1.62v1.29h1.62v3.81c-.72.225-1.38.4-1.92.555l.33,1.425c1.35-.435,3.09-1.02,4.725-1.59Zm2.025-4.785H-20.8v1.635H-22.77Zm0-2.745H-20.8V17.9H-22.77Zm5.07,1.62h-1.92v-1.62h1.92Zm0,2.76h-1.92V19.02h1.92Zm-1.8,5.775V24.645h3.33v-1.26H-19.5V21.84h3.135V15.09h-7.68v6.75h3.12v1.545H-24.18v1.26h3.255V26.43h-4.35V27.7h9.585V26.43Zm9.225-3.21V21.7H-9.15V23.22ZM-12.39,21.7h1.14V23.22H-12.4c.015-.375.015-.735.015-1.08Zm1.965-4.86a12.622,12.622,0,0,1-.555,1.35h-1.53c.225-.42.435-.885.63-1.35Zm.15,2.4H-9.15V20.67h-1.125Zm-2.115,0h1.14V20.67h-1.14Zm9.975-2.925c-.075,1.53-.18,2.145-.345,2.325a.4.4,0,0,1-.4.135,10.7,10.7,0,0,1-1.215-.06,3.389,3.389,0,0,1,.315,1.155A9.653,9.653,0,0,0-2.55,19.86a1.126,1.126,0,0,0,.855-.42c.315-.36.45-1.365.555-3.8.015-.15.015-.48.015-.48H-7.65V16.32h1.86a3.639,3.639,0,0,1-2.205,2.955v-1.08H-9.78a19.257,19.257,0,0,0,.9-1.98l-.81-.51-.2.06H-11.46c.12-.36.225-.72.33-1.08L-12.4,14.4a10.848,10.848,0,0,1-2.265,4.68,9.4,9.4,0,0,1,1.02.825l.135-.165v2.385a10.475,10.475,0,0,1-1.11,5.46,5.494,5.494,0,0,1,.99.615,8.848,8.848,0,0,0,1.155-3.915h3.33V26.73c0,.195-.075.255-.27.27s-.81,0-1.53-.015a4.433,4.433,0,0,1,.435,1.17,5.163,5.163,0,0,0,2-.21c.4-.21.525-.6.525-1.2V19.41a3.811,3.811,0,0,1,.66.87A4.733,4.733,0,0,0-4.5,16.32Zm1.7,7.935H-3.45v-1.62H-1v-1.2H-3.45v-1.44H-4.77v1.44H-5.82q.157-.54.27-1.08l-1.155-.24a8.5,8.5,0,0,1-1.29,3.3,6.361,6.361,0,0,1,1.05.555,7.39,7.39,0,0,0,.7-1.335h1.47v1.62H-7.74V25.47h2.97v2.64h1.32V25.47H-.72Zm5.88-9.03L3.24,15.21a8.68,8.68,0,0,1,.165,1.74c0,1.44-.15,5.31-.15,7.44,0,2.49,1.53,3.465,3.81,3.465a7.617,7.617,0,0,0,6.375-3.36l-1.065-1.3A6.146,6.146,0,0,1,7.1,26.28c-1.3,0-2.28-.54-2.28-2.13,0-2.07.105-5.535.18-7.2A13.681,13.681,0,0,1,5.16,15.225Zm18.24,8.16L22,23.25a8.815,8.815,0,0,0-.255,1.875c0,1.485,1.32,2.28,3.765,2.28a23.161,23.161,0,0,0,2.97-.21l.045-1.515a16.95,16.95,0,0,1-3,.3c-1.92,0-2.325-.615-2.325-1.29A5.507,5.507,0,0,1,23.4,23.385ZM21.69,15.12l-1.8-.135a6.136,6.136,0,0,1-.06,1.35c-.03.285-.1.675-.18,1.125-.525.045-1.035.06-1.5.06a14.135,14.135,0,0,1-1.83-.12l.03,1.47c.54.045,1.095.06,1.785.06.375,0,.78-.015,1.215-.03-.12.5-.24.99-.36,1.455a34.694,34.694,0,0,1-2.55,6.72l1.635.555a45.313,45.313,0,0,0,2.37-6.9c.165-.63.33-1.32.48-1.965a26.877,26.877,0,0,0,3.015-.51V16.77a26.32,26.32,0,0,1-2.715.525c.075-.33.135-.63.18-.885C21.465,16.11,21.6,15.495,21.69,15.12Zm1.185,4.56v1.4a25.244,25.244,0,0,1,2.835-.165,18.956,18.956,0,0,1,2.55.195l.045-1.44a25.424,25.424,0,0,0-2.625-.12C24.72,19.545,23.685,19.6,22.875,19.68Zm10.56-3.255L31.6,16.4a7.674,7.674,0,0,1,.12,1.41c0,.9.015,2.7.165,4.02.4,3.945,1.8,5.385,3.315,5.385,1.1,0,2.025-.885,2.97-3.45l-1.185-1.4c-.345,1.365-1,3-1.755,3-1.005,0-1.62-1.59-1.845-3.945a33.584,33.584,0,0,1-.1-3.375A12.279,12.279,0,0,1,33.435,16.425Zm7.68.375-1.485.5c1.515,1.8,2.37,5.13,2.625,7.71l1.545-.6A16.339,16.339,0,0,0,41.115,16.8Zm10.62,6.48h1.23l.345-5.52.045-1.98h-2.01l.045,1.98ZM52.35,27.1a1.14,1.14,0,1,0-1.125-1.14A1.1,1.1,0,0,0,52.35,27.1Z" transform="translate(1028 2377)" fill="#fff"/>
    <g id="グループ_4302" data-name="グループ 4302" transform="translate(690 121)">
      <path id="パス_8555" data-name="パス 8555" d="M456.143,80.287l-3.279-.735c-.2.1-8.208.087-8.371,0l-3.353.751a4.89,4.89,0,0,0-3.85,4.755v6.626a1.3,1.3,0,0,0,1.307,1.288h20.1A1.3,1.3,0,0,0,460,91.684V85.055a4.9,4.9,0,0,0-3.857-4.768" transform="translate(-134.29 2298.029)" fill="#e66084"/>
      <path id="パス_8558" data-name="パス 8558" d="M456.143,80.287l-3.279-.735c-.2.1-8.208.087-8.371,0l-3.353.751a4.89,4.89,0,0,0-3.85,4.755v6.626a1.3,1.3,0,0,0,1.307,1.288h20.1A1.3,1.3,0,0,0,460,91.684V85.055a4.9,4.9,0,0,0-3.857-4.768" transform="translate(-86.806 2298.029)" fill="#e66084"/>
      <path id="パス_8556" data-name="パス 8556" d="M446.577,84.532a6.194,6.194,0,1,0-6.194-6.194,6.194,6.194,0,0,0,6.194,6.194" transform="translate(-132.222 2292.016)" fill="#e66084"/>
      <path id="パス_8557" data-name="パス 8557" d="M446.577,84.532a6.194,6.194,0,1,0-6.194-6.194,6.194,6.194,0,0,0,6.194,6.194" transform="translate(-84.738 2292.016)" fill="#e66084"/>
      <path id="パス_8559" data-name="パス 8559" d="M474.154,71.727c6.544,0,11.871-4.352,11.871-9.7s-5.327-9.7-11.871-9.7-11.871,4.352-11.871,9.7a8.631,8.631,0,0,0,2.573,6.024L462.9,71.731a.848.848,0,0,0,.165,1.013.822.822,0,0,0,.572.229.841.841,0,0,0,.438-.125l4-2.487a13.893,13.893,0,0,0,6.079,1.366" transform="translate(-111.798 2274.673)" fill="#e66084"/>
      <path id="パス_8561" data-name="パス 8561" d="M463.159,60.12a5.161,5.161,0,1,0-5.16,5.16,5.16,5.16,0,0,0,5.16-5.16" transform="translate(-119.9 2277.201)" fill="#e66084"/>
      <g id="グループ_4294" data-name="グループ 4294" transform="translate(327.774 2343.516)">
        <path id="パス_8560" data-name="パス 8560" d="M468.037,97.414V83.756h.6a2.22,2.22,0,0,0,2.22-2.222V66.311a4.507,4.507,0,0,0-3.507-4.394l-2.981-.678c-.179.1-.292.158-.471.254l-3.363,9.017-3.369-9.051-.407-.22-3.039.69a4.493,4.493,0,0,0-3.508,4.385V81.535a2.222,2.222,0,0,0,2.222,2.222h.6V97.414Z" transform="translate(-450.214 -61.169)" fill="#e66084"/>
        <path id="パス_8562" data-name="パス 8562" d="M454.856,61.2l.334,1.5h2.333l.334-1.5Z" transform="translate(-446.036 -61.2)" fill="#e66084"/>
        <path id="パス_8563" data-name="パス 8563" d="M457.53,62.265h-2.556l.021.1-.021,2.247,1.29,3.055,1.29-3.055-.022-2.247.022-.1Z" transform="translate(-445.942 -60.352)" fill="#e66084"/>
      </g>
    </g>
    <path id="パス_9045" data-name="パス 9045" d="M12.529-11.237H9.435v-1.122h3.094Zm1.836-2.533H7.718v3.944h6.647ZM5.78-5.491,5.457-7.276l-1.224.408V-9.316H5.644v-1.87H4.233v-3.2H2.346v3.2H.7v1.87H2.346v3.043c-.714.2-1.343.391-1.887.527L.935-3.808c.442-.153.918-.306,1.411-.476V-.748c0,.187-.051.255-.238.255-.153,0-.612,0-1.088-.017a5.947,5.947,0,0,1,.493,1.8A3.862,3.862,0,0,0,3.6.918c.493-.306.629-.8.629-1.683V-4.93ZM9.1-6.613H7.684V-7.871H9.1Zm3.791-1.258h1.479v1.258H12.886Zm3.383,5.3V-4.2H11.985V-5.236h4v-4H11.339V-5.3h-.663V-9.231H6.188v4h3.876V-4.2h-4.1v1.632H9.1A10.955,10.955,0,0,1,4.709-.323,9.125,9.125,0,0,1,5.95,1.241a11.374,11.374,0,0,0,4.114-2.448v2.72h1.921V-1.258a10.22,10.22,0,0,0,3.332,2.363,7.44,7.44,0,0,1,1.275-1.53,10.267,10.267,0,0,1-3.74-2.142Zm5.015-11.764a17.686,17.686,0,0,1-3.876,6.358A13.815,13.815,0,0,1,18.53-5.814c.34-.374.7-.8,1.054-1.224v8.5h2.04V-10.183a26.482,26.482,0,0,0,1.632-3.536ZM33.473-9.707v-1.921h-6.6a20.092,20.092,0,0,0,.833-2.108l-1.955-.493a16.876,16.876,0,0,1-3.6,6.409A13.75,13.75,0,0,1,23.7-6.409a18.877,18.877,0,0,0,2.227-3.3h.646V1.479h2.074V-2.3h4.624v-1.87H28.645V-6.086h4.4V-7.922h-4.4V-9.707Zm5.542,7.361h-1.53V-6.6h1.53Zm1.938-9.418V-13.6H34.782v1.836h1.8a14.265,14.265,0,0,1-2.159,5.678,11.307,11.307,0,0,1,.7,2.414c.238-.289.459-.6.68-.918V.68h1.683V-.561h3.247v-7.82H37.553a28.35,28.35,0,0,0,.918-3.383ZM44.829-7.48v-4.2h1.9v4.2Zm5.61,0H48.654v-4.2H50.1v-1.87h-8.33v1.87h1.173v4.2H41.327v1.9h1.581c-.1,2.074-.527,4.437-1.989,6.018a8.107,8.107,0,0,1,1.53,1.173C44.2-.238,44.693-3.077,44.8-5.576h1.938V1.5h1.921V-5.576h1.785Zm4.148-6.868a19.252,19.252,0,0,1-3.366,6.562A15.894,15.894,0,0,1,52.19-5.61a13.591,13.591,0,0,0,1.071-1.428v8.5h1.921V-10.574c.476-1.054.9-2.159,1.258-3.213Zm3.3,4.692a9.714,9.714,0,0,1,1,.816,9.367,9.367,0,0,0,.986-1.02,11.268,11.268,0,0,0,1.258,1.309,12.915,12.915,0,0,1-3.247,1.258Zm5.967-1.411A6.624,6.624,0,0,1,62.492-9.5a7.994,7.994,0,0,1-1.632-1.564Zm3.383,0V-12.7H61.71a11.964,11.964,0,0,0,.544-1.275L60.435-14.4a10.335,10.335,0,0,1-2.55,3.961v-1.8H56.134V-1.36h1.751V-6.9a7.423,7.423,0,0,1,.884,1.224,14.658,14.658,0,0,0,3.876-1.751,12.833,12.833,0,0,0,4.046,1.615,8.148,8.148,0,0,1,1.088-1.615,13.186,13.186,0,0,1-3.706-1.139,9.217,9.217,0,0,0,1.887-2.5ZM64.4-5.049a11.67,11.67,0,0,1-5.457,2.414,6.172,6.172,0,0,1,.986,1.258,12.383,12.383,0,0,0,5.916-3.077ZM62.73-6.6A10.2,10.2,0,0,1,58.82-4.76,5.251,5.251,0,0,1,59.891-3.6a11,11,0,0,0,4.318-2.38Zm2.89,3.468c-1.462,1.6-4.4,2.516-7.531,2.941a7.046,7.046,0,0,1,1.02,1.6c3.468-.629,6.477-1.768,8.245-3.842ZM73.372-9.3a15.449,15.449,0,0,0,3.111-3.145A16.545,16.545,0,0,0,79.747-9.3Zm-.833,1.853h7.939V-8.789A20.543,20.543,0,0,0,83.334-7.14a10.479,10.479,0,0,1,1.309-1.853,15.551,15.551,0,0,1-7.191-5.389H75.344a16.881,16.881,0,0,1-6.868,5.695,7.9,7.9,0,0,1,1.19,1.7,19.629,19.629,0,0,0,2.873-1.7ZM69.53-4.165h3.944a32.645,32.645,0,0,1-1.292,3.077L69.615-1,69.887.969C72.777.833,76.976.663,80.971.442a9.012,9.012,0,0,1,.68,1.054L83.538.357a22.864,22.864,0,0,0-3.893-4.369l-1.785.935a20.263,20.263,0,0,1,1.666,1.734c-1.734.068-3.485.136-5.117.187.51-.952,1.071-2.006,1.564-3.009h7.616v-1.87H69.53Zm31.229-1.819a6.474,6.474,0,0,0-6.868-6.63,7.553,7.553,0,0,0-7.8,7.276c0,2.873,1.564,4.947,3.451,4.947,1.853,0,3.315-2.108,4.335-5.542a34.38,34.38,0,0,0,1.02-4.607,4.2,4.2,0,0,1,3.57,4.488A4.613,4.613,0,0,1,94.588-1.5a13.075,13.075,0,0,1-1.581.272L94.282.8C98.566.136,100.759-2.4,100.759-5.984Zm-12.5.425a5.351,5.351,0,0,1,4.318-4.93,25.517,25.517,0,0,1-.9,4.114c-.7,2.3-1.36,3.366-2.074,3.366C88.944-3.009,88.264-3.842,88.264-5.559Zm16.983-4.233v-1.343h10.4v1.343h-4.233v-.969H109.4v.969ZM117.98-2.686V-4.437h-6.715a5.772,5.772,0,0,0,.136-1.071h4.641V-7.14h-4.624V-8.16h4.964V-9.282h1.36V-12.9H111.52v-1.479h-2.074V-12.9h-6.205v3.621h1.513V-8.16H109.4v1.02h-4.369v1.632h4.352a7.791,7.791,0,0,1-.17,1.071h-6.1v1.751h5.117c-.935,1-2.567,1.887-5.423,2.533a8.25,8.25,0,0,1,1.258,1.632c3.468-.935,5.355-2.278,6.358-3.791,1.343,2.108,3.366,3.315,6.6,3.825A7.865,7.865,0,0,1,118.2-.255c-2.686-.289-4.59-1.071-5.8-2.431Zm8.228-2.975.034-1.7v-.765h-3.06c.017-.6.034-1.207.051-1.819h3.247a6.338,6.338,0,0,1-.544.612,11.025,11.025,0,0,1,1.513,1.428l.153-.17v1.768Zm4.148,5.406c-.85,0-.969-.1-.969-.8v-4.1l.918-.425v3.961h1.683V-6.358l1.088-.51c-.017,1.615-.017,2.55-.051,2.7-.017.221-.1.255-.238.255s-.374,0-.578-.017a4.6,4.6,0,0,1,.357,1.479,3.886,3.886,0,0,0,1.411-.187,1.193,1.193,0,0,0,.731-1.173c.051-.51.051-2.244.068-4.658l.068-.272-1.258-.442-.306.221-.068.051-1.224.561V-10H130.3v2.431l-.918.425V-8.772h-1.241a11.07,11.07,0,0,0,.969-1.649h6.1v-1.836H129.88c.187-.578.374-1.173.51-1.768L128.4-14.4a12.28,12.28,0,0,1-1.513,3.859v-1.275h-2.652v-2.567H122.3v2.567h-2.6v1.87h1.632c-.051,3.927-.2,7.667-1.887,10a6,6,0,0,1,1.445,1.411C122.3-.476,122.842-3.23,123.08-6.29h1.326c-.068,3.995-.17,5.423-.391,5.763a.494.494,0,0,1-.493.272A9.5,9.5,0,0,1,122.3-.323a4.747,4.747,0,0,1,.493,1.8,8.886,8.886,0,0,0,1.751-.085A1.523,1.523,0,0,0,125.63.7c.391-.544.51-2.176.578-6.341L126.9-4l.7-.323v3.264c0,1.938.544,2.482,2.55,2.482h2.975c1.649,0,2.159-.646,2.38-2.771a5.569,5.569,0,0,1-1.632-.7c-.1,1.5-.238,1.785-.9,1.785Z" transform="translate(960 2565)" fill="#363636"/>
  </g>
</svg>
