<svg xmlns="http://www.w3.org/2000/svg" width="210" height="262" viewBox="0 0 210 262">
  <g id="グループ_4367" data-name="グループ 4367" transform="translate(-463 -2570)">
    <path id="パス_9049" data-name="パス 9049" d="M10,0H200a10,10,0,0,1,10,10V252a10,10,0,0,1-10,10H10A10,10,0,0,1,0,252V10A10,10,0,0,1,10,0Z" transform="translate(463 2570)" fill="#fdeff2"/>
    <path id="合体_63" data-name="合体 63" d="M5290,82V20a10,10,0,0,1,10-10h190a10,10,0,0,1,10,10V82L5395,98Z" transform="translate(-4827 2560)" fill="#818181"/>
    <path id="パス_9050" data-name="パス 9050" d="M-39.99-10.965l-1.74-.615a10.56,10.56,0,0,1-.33,1.23,16.594,16.594,0,0,1-1.875,3.87c-1.2-.915-2.865-2.07-4.125-2.865l-.99,1.2A42.594,42.594,0,0,1-44.91-5.19,16.3,16.3,0,0,1-50.745-.6l1.32,1.185A18.727,18.727,0,0,0-43.68-4.17,33.464,33.464,0,0,1-40.23-.78l1.2-1.32a36.738,36.738,0,0,0-3.66-3.39,21.508,21.508,0,0,0,2.16-4.26A11.065,11.065,0,0,1-39.99-10.965Zm6.135-.21-1.095,1.17a32.535,32.535,0,0,1,3.75,3.18l1.185-1.215A31.476,31.476,0,0,0-33.855-11.175ZM-35.4-1.14-34.395.405A16.539,16.539,0,0,0-28.65-1.83a15.337,15.337,0,0,0,5.265-5.43L-24.3-8.9A14.282,14.282,0,0,1-29.5-3.24,15.586,15.586,0,0,1-35.4-1.14Zm16.185-10.14v1.545c.42-.03.975-.045,1.47-.045H-11.7c.465,0,1.02.015,1.5.045V-11.28a12.826,12.826,0,0,1-1.5.1h-6.06A11.45,11.45,0,0,1-19.215-11.28Zm-1.77,3.81v1.545c.405-.03.915-.045,1.365-.045h4.335a6.99,6.99,0,0,1-.9,3.555A6.435,6.435,0,0,1-18.96-.18L-17.58.825a7.21,7.21,0,0,0,2.985-2.79,9.33,9.33,0,0,0,.93-4.005H-9.81c.39,0,.915.015,1.26.045V-7.47c-.375.045-.945.075-1.26.075h-9.81A13.144,13.144,0,0,1-20.985-7.47Zm20.73-2.64v1.845H-4.44a13.253,13.253,0,0,1-1.515-.09v1.65a14.677,14.677,0,0,1,1.545-.06H-.255A6.58,6.58,0,0,1-4.32-.405L-2.85.69A7.994,7.994,0,0,0,1.365-6.765H5.07c.525,0,1.185.015,1.455.045V-8.34a11.016,11.016,0,0,1-1.44.075H1.365V-10.11a13.782,13.782,0,0,1,.1-1.62H-.42A7.793,7.793,0,0,1-.255-10.11Zm11.4-1.065-1.1,1.17a32.535,32.535,0,0,1,3.75,3.18L14.985-8.04A31.476,31.476,0,0,0,11.145-11.175ZM9.6-1.14,10.605.405A16.539,16.539,0,0,0,16.35-1.83a15.337,15.337,0,0,0,5.265-5.43L20.7-8.9A14.282,14.282,0,0,1,15.5-3.24,15.586,15.586,0,0,1,9.6-1.14ZM34.575-10.1l-.975-.72a4.55,4.55,0,0,1-1.305.15H26.73a16.049,16.049,0,0,1-1.635-.105v1.695c.24-.015,1.05-.09,1.635-.09h5.505A12.341,12.341,0,0,1,29.85-5.2,16.855,16.855,0,0,1,23.685-.81L24.9.465a19.691,19.691,0,0,0,5.775-4.32A33.663,33.663,0,0,1,34.65.525l1.32-1.17a39.87,39.87,0,0,0-4.29-4.4,20.531,20.531,0,0,0,2.46-4.275A5.178,5.178,0,0,1,34.575-10.1ZM44.43-11.94l-1.56-.12a7.47,7.47,0,0,1-.345,1.785c-.3.015-.6.015-.885.015a19.388,19.388,0,0,1-2.58-.165v1.41c.84.06,1.875.09,2.505.09H42a15.071,15.071,0,0,1-3.39,4.38l1.29.96A16.314,16.314,0,0,1,41.265-5.19a3.823,3.823,0,0,1,2.49-1.08,1.207,1.207,0,0,1,1.23.75c-1.74.885-3.54,2.055-3.54,3.9S43.185.765,45.42.765A38.2,38.2,0,0,0,49.59.5l.045-1.515a25.543,25.543,0,0,1-4.17.39c-1.515,0-2.49-.21-2.49-1.23,0-.885.81-1.575,2.1-2.28-.015.735-.03,1.59-.06,2.115H46.44c-.015-.72-.03-1.92-.045-2.775,1.05-.48,2.025-.87,2.79-1.17.45-.18,1.1-.42,1.53-.555L50.1-7.905c-.48.24-.915.435-1.425.66-.705.33-1.47.645-2.4,1.08a1.975,1.975,0,0,0-2.01-1.275,4.405,4.405,0,0,0-1.92.45A12.037,12.037,0,0,0,43.5-8.97a46.346,46.346,0,0,0,4.935-.39v-1.395a34.582,34.582,0,0,1-4.41.435C44.22-10.965,44.34-11.52,44.43-11.94Zm-83.1,26.865h-1.65a9.754,9.754,0,0,1,.09,1.185c0,.27-.015.81-.015,1.485q-.562.045-1.035.045a15.155,15.155,0,0,1-2-.12l.045,1.44c.495.045,1.065.075,1.98.075q.427,0,.99-.045c-.015.57-.015,1.14-.015,1.665v.93c-1.77.765-3.315,2.1-3.315,3.375,0,1.44,1.995,2.64,3.3,2.64.885,0,1.47-.465,1.47-2.055,0-.6-.045-1.86-.06-3.105a10.148,10.148,0,0,1,3.075-.495c1.365,0,2.4.645,2.4,1.8,0,1.26-1.1,1.92-2.355,2.16a7.911,7.911,0,0,1-1.8.1l.54,1.53a11.659,11.659,0,0,0,1.905-.225c2.2-.525,3.24-1.77,3.24-3.555,0-1.92-1.68-3.12-3.915-3.12a11.717,11.717,0,0,0-3.12.48v-.525c0-.54.015-1.14.03-1.74,1.035-.12,2.145-.3,3.015-.495l-.03-1.47a18.8,18.8,0,0,1-2.955.57c.03-.54.045-1.02.06-1.38C-38.76,15.72-38.715,15.21-38.67,14.925Zm4.485,1.65-.66,1.14a21.727,21.727,0,0,1,3.465,2.22l.735-1.2A26.863,26.863,0,0,0-34.185,16.575Zm-7.935,8.31c0-.6.78-1.365,1.875-1.905.015.975.045,1.845.045,2.325s-.21.69-.51.69C-41.22,26-42.12,25.485-42.12,24.885ZM-17.325,19.8H-20.4V18.555h3.075Zm0,2.235H-20.4V20.79h3.075Zm0,2.25H-20.4v-1.26h3.075Zm-4.26-6.765v7.815h5.49V17.52h-2.46c.1-.39.225-.84.33-1.275h2.5V15.06h-6.33v1.185h2.46c-.06.42-.135.87-.195,1.275ZM-26.7,23.685a8.866,8.866,0,0,1-.96,2.79,4.3,4.3,0,0,1,.975.51,10.229,10.229,0,0,0,1.05-3.09Zm.96-2.91H-23.5V22.02H-25.74Zm0-2.16H-23.5V19.83H-25.74Zm3.375,4.4V17.625h-1.92l.39-1.365h1.56v-1.2h-6.36v5.595c0,2.04-.06,4.725-.885,6.585a4.029,4.029,0,0,1,1,.735c.93-2.025,1.08-5.13,1.08-7.335V16.26h2.25c-.06.435-.135.93-.21,1.365H-26.82V23.01h1.635v3.915c0,.135-.045.18-.18.2-.15,0-.57,0-1.065-.015a3.617,3.617,0,0,1,.375,1.065,3.716,3.716,0,0,0,1.575-.195c.36-.18.435-.5.435-1.02V23.01Zm.51,3a15.129,15.129,0,0,0-.915-2.37l-.9.33a14.1,14.1,0,0,1,.825,2.43Zm1.455-.465a7.994,7.994,0,0,1-2.5,1.785,7.727,7.727,0,0,1,.855.87,9.651,9.651,0,0,0,2.775-1.98Zm1.92.66a16.178,16.178,0,0,1,2.04,1.98l1.05-.735a17.686,17.686,0,0,0-2.085-1.89Zm7.065-9.78-1.83-.03a7.674,7.674,0,0,1,.12,1.41c0,.9.015,2.7.165,4.02.4,3.945,1.8,5.385,3.315,5.385,1.1,0,2.025-.885,2.97-3.45l-1.185-1.4c-.345,1.365-1.005,3-1.755,3-1,0-1.62-1.59-1.845-3.945a33.584,33.584,0,0,1-.1-3.375A12.279,12.279,0,0,1-11.415,16.425Zm7.68.375-1.485.5c1.515,1.8,2.37,5.13,2.625,7.71l1.545-.6A16.339,16.339,0,0,0-3.735,16.8ZM5.31,15.225,3.39,15.21a8.68,8.68,0,0,1,.165,1.74c0,1.44-.15,5.31-.15,7.44,0,2.49,1.53,3.465,3.81,3.465a7.617,7.617,0,0,0,6.375-3.36l-1.065-1.3a6.146,6.146,0,0,1-5.28,3.09c-1.3,0-2.28-.54-2.28-2.13,0-2.07.105-5.535.18-7.2A13.681,13.681,0,0,1,5.31,15.225Zm18.24,8.16-1.4-.135a8.815,8.815,0,0,0-.255,1.875c0,1.485,1.32,2.28,3.765,2.28a23.161,23.161,0,0,0,2.97-.21l.045-1.515a16.95,16.95,0,0,1-3,.3c-1.92,0-2.325-.615-2.325-1.29A5.507,5.507,0,0,1,23.55,23.385ZM21.84,15.12l-1.8-.135a6.136,6.136,0,0,1-.06,1.35c-.03.285-.1.675-.18,1.125-.525.045-1.035.06-1.5.06a14.135,14.135,0,0,1-1.83-.12l.03,1.47c.54.045,1.095.06,1.785.06.375,0,.78-.015,1.215-.03-.12.5-.24.99-.36,1.455a34.694,34.694,0,0,1-2.55,6.72l1.635.555a45.313,45.313,0,0,0,2.37-6.9c.165-.63.33-1.32.48-1.965a26.877,26.877,0,0,0,3.015-.51V16.77a26.32,26.32,0,0,1-2.715.525c.075-.33.135-.63.18-.885C21.615,16.11,21.75,15.495,21.84,15.12Zm1.185,4.56v1.4a25.244,25.244,0,0,1,2.835-.165,18.956,18.956,0,0,1,2.55.195l.045-1.44a25.424,25.424,0,0,0-2.625-.12C24.87,19.545,23.835,19.6,23.025,19.68Zm10.56-3.255-1.83-.03a7.674,7.674,0,0,1,.12,1.41c0,.9.015,2.7.165,4.02.4,3.945,1.8,5.385,3.315,5.385,1.1,0,2.025-.885,2.97-3.45l-1.185-1.4c-.345,1.365-1,3-1.755,3-1.005,0-1.62-1.59-1.845-3.945a33.584,33.584,0,0,1-.1-3.375A12.279,12.279,0,0,1,33.585,16.425Zm7.68.375-1.485.5c1.515,1.8,2.37,5.13,2.625,7.71l1.545-.6A16.339,16.339,0,0,0,41.265,16.8Z" transform="translate(568 2603)" fill="#fff"/>
    <path id="パス_9051" data-name="パス 9051" d="M-47.77-10.761h10.455v2.329h2.091v-4.25h-6.222v-1.7h-2.142v1.7h-6.171v4.25h1.989Zm6.307,7.412h4.675v-1.9h-4.675V-7.378h3.638V-9.3h-9.35v1.921h3.621v6a4.576,4.576,0,0,1-2.312-2.669c.153-.68.272-1.394.374-2.159l-2.108-.2C-47.906-3.5-48.739-1.156-50.575.2a12.379,12.379,0,0,1,1.666,1.377,8.521,8.521,0,0,0,2.261-3.213c1.564,2.414,3.893,2.924,7.021,2.924h4.25a7.56,7.56,0,0,1,.714-2.057c-1.139.051-3.944.051-4.862.051a17.566,17.566,0,0,1-1.938-.1ZM-30.09-5.474h2.108v1.156H-30.09Zm2.108-5.151v.986H-30.09v-.986ZM-30.09-8.092h2.108v1.071H-30.09Zm5,3.774h-1.037v-6.307h1.156v-1.768h-1.156v-1.8h-1.853v1.8H-30.09v-1.8h-1.819v1.8h-1.326v1.768h1.326v6.307h-1.53V-2.55h8.347Zm-6.239,1.887A7.866,7.866,0,0,1-33.575.323,11.411,11.411,0,0,1-31.96,1.53a11.959,11.959,0,0,0,2.516-3.4Zm8.806-3.519c.017-.527.017-1.02.017-1.462v-.629h2.448V-5.95Zm2.465-5.865v1.989h-2.448v-1.989Zm1.955-1.836H-24.4v6.239c0,2.21-.085,5.083-1.071,7.208A18.521,18.521,0,0,0-27.3-2.516l-1.53.833A16.9,16.9,0,0,1-27.013.884l1.411-.8c-.051.1-.119.187-.17.289a5.841,5.841,0,0,1,1.6,1.139,13.952,13.952,0,0,0,1.53-5.661h2.584V-.8c0,.272-.085.357-.34.357-.238,0-1.054.017-1.785-.034a7.325,7.325,0,0,1,.578,1.921,5.843,5.843,0,0,0,2.72-.357c.595-.323.782-.85.782-1.853ZM-4.641-5.372h-7.8V-7.531h7.8ZM-2.584-9.4H-7.548v-1.615h6.086V-12.9H-7.548v-1.5H-9.6v5h-4.76v5.9H-2.584ZM-14.6,1.411a10.856,10.856,0,0,0,2.21-3.74l-1.955-.476A9.362,9.362,0,0,1-16.473.51ZM-11.56-2.21a24.334,24.334,0,0,1,.34,3.57l2.057-.255a22.775,22.775,0,0,0-.476-3.5Zm3.468.017A21.065,21.065,0,0,1-6.9,1.275l1.955-.51A18.452,18.452,0,0,0-6.239-2.6Zm3.451-.1A18.8,18.8,0,0,1-2.55,1.36L-.595.612A19.867,19.867,0,0,0-2.822-2.941ZM8.636-4.607V-6.2h1.683v1.02c0,.187,0,.391-.017.578Zm5.3-1.6v1.6H12.121c.017-.17.017-.357.017-.527V-6.2Zm-4.692-4.3a10.863,10.863,0,0,0,1.972-2.142,11.508,11.508,0,0,0,2.057,2.142ZM15.759-3.06V-7.752H12.138V-8.84h2.244v-.833a13.707,13.707,0,0,0,1.343.782,11.465,11.465,0,0,1,1.037-1.768,10.757,10.757,0,0,1-4.675-3.723H10.251A10.535,10.535,0,0,1,6.307-10.8v-.119H4.76V-14.4H2.89v3.485H.816v1.87H2.771A16.789,16.789,0,0,1,.425-3.332a9.984,9.984,0,0,1,.918,1.8A13.6,13.6,0,0,0,2.89-4.794V1.462H4.76V-5.763c.357.714.7,1.445.884,1.938l1.02-1.564c-.255-.425-1.445-2.244-1.9-2.839v-.816H6.307V-9.86a7.6,7.6,0,0,1,.493.986,10.775,10.775,0,0,0,1.394-.833v.867h2.125v1.088H6.885V-3.06H10C9.52-1.853,8.381-.748,5.78.068a7.743,7.743,0,0,1,1.071,1.5A7.261,7.261,0,0,0,11.424-1.8a7.193,7.193,0,0,0,4.063,3.349A4.807,4.807,0,0,1,16.643-.136,5.923,5.923,0,0,1,12.75-3.06Zm5.525-11.271a17.686,17.686,0,0,1-3.876,6.358A13.815,13.815,0,0,1,18.53-5.814c.34-.374.7-.8,1.054-1.224v8.5h2.04V-10.183a26.482,26.482,0,0,0,1.632-3.536ZM33.473-9.707v-1.921h-6.6a20.092,20.092,0,0,0,.833-2.108l-1.955-.493a16.876,16.876,0,0,1-3.6,6.409A13.75,13.75,0,0,1,23.7-6.409a18.877,18.877,0,0,0,2.227-3.3h.646V1.479h2.074V-2.3h4.624v-1.87H28.645V-6.086h4.4V-7.922h-4.4V-9.707Zm11.118-.272c-.187.459-.391.952-.595,1.36H40.817l.289-.051a9.133,9.133,0,0,0-.578-1.309ZM50.082-2.4V-4.063H43.469v-.748h5.1V-6.273h-5.1v-.765h5.9V-8.619H46.036c.255-.408.527-.867.8-1.36h3.2v-1.649h-2.21c.391-.6.85-1.36,1.326-2.142l-2.125-.51a13.694,13.694,0,0,1-1.071,2.465l.612.187H45.05V-14.4h-1.9v2.771H41.888V-14.4H40v2.771H38.454l.833-.306a12.864,12.864,0,0,0-1.292-2.4l-1.734.6a15.238,15.238,0,0,1,1.054,2.108H35.037v1.649H38.59l-.2.034a7.639,7.639,0,0,1,.578,1.326h-3.23v1.581H41.48v.765h-4.9v1.462h4.9v.748H34.986V-2.4h4.879A17.86,17.86,0,0,1,34.493-.408a9.43,9.43,0,0,1,1.292,1.683A16.126,16.126,0,0,0,41.48-1.479V1.479h1.989v-3.06a14.511,14.511,0,0,0,5.712,2.873,9.509,9.509,0,0,1,1.36-1.836A15.187,15.187,0,0,1,45.152-2.4Z" transform="translate(568 2791)" fill="#0a0a0a"/>
    <g id="グループ_4365" data-name="グループ 4365" transform="translate(-0.618 2)">
      <path id="パス_8567" data-name="パス 8567" d="M222.978,220.016c-5.245-.4-8.132-.777-9.516,4.345l-4.957-1.2a11.3,11.3,0,0,0-.915-9.287,10.91,10.91,0,0,0-5.25-4.65,11.092,11.092,0,0,0-13.508,16.463c3.034,4.45,7.957,5.793,13.968,3.83l1.349,4.192c-4.435.96-5.662,4.431-3.909,10.7-1.454,0-2.882.065-4.3-.019a2.128,2.128,0,0,1-2.112-2.1c-.017-.146-.015-.3-.026-.445-.295-4.147-.3-4.13-4.028-5.689a2.323,2.323,0,0,0-2.624.35c-.794.672-1.573,1.365-2.383,2.019a2.122,2.122,0,0,1-3.077-.105q-1.406-1.328-2.731-2.739a2.077,2.077,0,0,1-.117-2.958,18.894,18.894,0,0,0,2.057-2.531,7.205,7.205,0,0,0,.379-2.46c.009-.084-.1-.174-.119-.269-.608-3.038-2.6-3.978-5.5-3.875-1.923.069-2.636-.829-2.662-2.767-.014-.992-.022-1.985,0-2.977a2.282,2.282,0,0,1,2.4-2.591c.148-.014.3-.014.446-.028,4.762-.422,3.646-.1,5.494-4.443a2.9,2.9,0,0,0-.457-2.155,20.664,20.664,0,0,0-1.98-2.409,2.128,2.128,0,0,1,.074-3.081q1.313-1.416,2.736-2.733a2.143,2.143,0,0,1,2.972-.148,3.191,3.191,0,0,1,.682.572c1.969,2.595,4.328,2.367,6.751.829a3.632,3.632,0,0,0,1.384-1.9,17.278,17.278,0,0,0,.319-3.1,2.173,2.173,0,0,1,2.316-2.2c1.239-.041,2.481-.043,3.72,0a2.169,2.169,0,0,1,2.3,2.212c.021.2.017.4.034.594.427,4.79.114,3.66,4.433,5.5a2.9,2.9,0,0,0,2.162-.446,21.667,21.667,0,0,0,2.407-1.981,2.139,2.139,0,0,1,3.082.069c.944.877,1.854,1.8,2.736,2.734a2.132,2.132,0,0,1,.155,2.969,3.107,3.107,0,0,1-.574.682c-2.6,1.966-2.359,4.337-.83,6.749a4.049,4.049,0,0,0,2.04,1.413,11,11,0,0,0,2.652.284c1.79.146,2.479.855,2.521,2.621.016.686,0,1.373,0,2.152" transform="translate(362.635 2479.572)" fill="#e66084"/>
      <path id="パス_8568" data-name="パス 8568" d="M197.226,214.417c.861.638,1.475,1.037,2.024,1.513.818.71,1.541,1.319,2.788.764,1.293-.575,2.409-1.039,2.447-2.779.021-.858.378-2.291.882-2.441a8.364,8.364,0,0,1,3.937-.042c.427.086.87,1.285.885,1.985a2.953,2.953,0,0,0,2.137,3.169,2.76,2.76,0,0,0,3.1-.591c.665-.547,1.934-1.278,2.364-1.009a10.3,10.3,0,0,1,2.817,2.985c.194.288-.366,1.289-.79,1.777-1.833,2.1-1.508,1.978-.332,4.52.267.579,1.474.728,2.258,1.05s2.158.486,2.257.944a10.937,10.937,0,0,1-.059,4.1c-.061.35-1.133.68-1.767.74-2.458.236-3.123.651-3.494,3.043-.106.68.561,1.483.871,2.229.344.824,1.2,1.978.929,2.408a9.805,9.805,0,0,1-2.979,2.806c-.311.2-1.321-.461-1.871-.9-1.679-1.35-3.083-1.5-4.626-.084a3.914,3.914,0,0,0-.732,2.168c-.142.941.04,2.205-1.107,2.371a11.471,11.471,0,0,1-4.074-.285c-.326-.073-.526-1.2-.6-1.863-.243-2.216-1.054-3.244-3.185-3.384-.665-.044-1.366.633-2.067.942-.811.359-1.975,1.189-2.4.911a9.326,9.326,0,0,1-2.73-3.038c-.207-.35.477-1.485,1.01-1.976,1.319-1.213.97-2.39.4-3.8-.531-1.315-1.5-1.441-2.638-1.506-2.243-.128-2.456-.367-2.46-2.611,0-.351.024-.707,0-1.056-.113-1.474.569-2.181,2.019-2.118a3.051,3.051,0,0,0,3.4-2.233c.59-1.542-.167-2.3-.9-3.336-.443-.621-.984-1.775-.717-2.188a22.48,22.48,0,0,1,3.008-3.183m17.625,13.677a7.571,7.571,0,0,0-7.643-7.456,7.584,7.584,0,0,0,.274,15.165,7.529,7.529,0,0,0,7.368-7.708" transform="translate(376.208 2492.781)" fill="#e66084"/>
    </g>
  </g>
</svg>
