<svg xmlns="http://www.w3.org/2000/svg" width="121" height="224" viewBox="0 0 121 224">
  <g id="グループ_4439" data-name="グループ 4439" transform="translate(-233.038 -2344)">
    <path id="パス_9086" data-name="パス 9086" d="M10,0H111a10,10,0,0,1,10,10V214a10,10,0,0,1-10,10H10A10,10,0,0,1,0,214V10A10,10,0,0,1,10,0Z" transform="translate(233.038 2344)" fill="#fdeff2"/>
    <path id="合体_50" data-name="合体 50" d="M3071.038-850v-54a10,10,0,0,1,10-10h101a10,10,0,0,1,10,10v54l-60.5,16Z" transform="translate(-2838 3258)" fill="#818181"/>
    <path id="パス_9087" data-name="パス 9087" d="M-36.062-10.842A15.107,15.107,0,0,1-38.74-5.707a9.472,9.472,0,0,1,.611,1.274,12.881,12.881,0,0,0,1.04-1.443v6.89h1.144V-7.995c.377-.832.715-1.69,1-2.535Zm2.119,3.536c.247.182.559.429.715.572a9.211,9.211,0,0,0,.962-1.027,7.266,7.266,0,0,0,1.2,1.274,10.136,10.136,0,0,1-2.873,1.144Zm4.992-1.261a5.653,5.653,0,0,1-1.287,1.495,6.016,6.016,0,0,1-1.456-1.482l.013-.013Zm2.275,0v-.975h-4.446a9.361,9.361,0,0,0,.507-1.105l-1.1-.273a8.48,8.48,0,0,1-2.223,3.315V-9.334H-35v8.216h1.053V-5.239a5.591,5.591,0,0,1,.637.858,11.349,11.349,0,0,0,3.133-1.443,10.144,10.144,0,0,0,3.25,1.339,5.7,5.7,0,0,1,.663-.988A10.077,10.077,0,0,1-29.3-6.487a7.265,7.265,0,0,0,1.612-2.08Zm-2.08,4.745a8.861,8.861,0,0,1-4.16,1.937,4.789,4.789,0,0,1,.6.78,9.464,9.464,0,0,0,4.459-2.353Zm-1.235-1.209A7.9,7.9,0,0,1-33.059-3.51a4.179,4.179,0,0,1,.663.7,8.675,8.675,0,0,0,3.315-1.846Zm2.327,2.652C-28.8-1.105-31.1-.351-33.6.013a3.989,3.989,0,0,1,.624.949C-30.29.481-27.924-.416-26.624-1.95Zm6.305-.39c-.442.156-.91.3-1.352.442V-5.265h1.235V-6.383h-1.235V-8.97h1.443v-1.118H-25.4V-8.97h1.534v2.587h-1.4v1.118h1.4v3.3c-.624.195-1.2.351-1.664.481l.286,1.235c1.17-.377,2.678-.884,4.1-1.378ZM-19.6-6.916h1.7V-5.5h-1.7Zm0-2.379h1.7v1.4h-1.7Zm4.394,1.4h-1.664V-9.3h1.664Zm0,2.392h-1.664V-6.916h1.664ZM-16.77-.494V-2.041h2.886V-3.133H-16.77V-4.472h2.717v-5.85h-6.656v5.85h2.7v1.339h-2.821v1.092h2.821V-.494h-3.77V.611h8.307V-.494Zm9.646-8.424.013,1.326a33.132,33.132,0,0,0,5.447,0V-8.918A23.956,23.956,0,0,1-7.124-8.918Zm.741,5.408-1.17-.1a6.584,6.584,0,0,0-.221,1.6C-7.774-.754-6.76.013-4.55.013a17.836,17.836,0,0,0,3.289-.26l-.026-1.391a13.96,13.96,0,0,1-3.237.351c-1.573,0-2.028-.481-2.028-1.066A4.516,4.516,0,0,1-6.383-3.51Zm-3-6.344-1.443-.13a9.45,9.45,0,0,1-.117,1.079,37.515,37.515,0,0,0-.559,5.187,16.52,16.52,0,0,0,.481,4.2L-9.841.4c-.013-.156-.026-.351-.026-.481a2.541,2.541,0,0,1,.065-.6c.13-.65.585-2.041.923-3.029l-.65-.52c-.208.481-.468,1.118-.689,1.651A12.827,12.827,0,0,1-10.3-3.965a31.177,31.177,0,0,1,.637-4.9A9.323,9.323,0,0,1-9.386-9.854ZM3.666-9v2.613H2.106V-9ZM2.106-2.574V-5.317h1.56v2.743Zm2.7-7.514H.988V-.4H2.106V-1.5h2.7Zm.936,7.449A9.643,9.643,0,0,1,7.319-.416L8.346-1.04A9.574,9.574,0,0,0,6.721-3.2Zm6.747-3.25V-6.955H9.334v-1.43h2.678V-9.438H9.334V-10.92H8.125v1.482h-2.6v1.053h2.6v1.43H5.031v1.066H9.8v1.3H5.07v1.066H9.8V-.351c0,.182-.065.234-.273.247s-.91,0-1.638-.026A4.5,4.5,0,0,1,8.281,1,6.392,6.392,0,0,0,10.413.806c.429-.182.572-.507.572-1.131v-3.2h1.391V-4.589H10.985v-1.3Zm5.33-3.588v.9H15.366v-.9ZM15.366-6.76v-.962h2.457v.962Zm3.6.9v-4.524h-4.8V1.027h1.2v-6.89Zm2.184-.871v-.988h2.535v.988Zm2.535-2.743v.9H21.151v-.9Zm-5.538,8.4V-2.158h2.639v1.079Zm2.639-2.977v1.014H18.148V-4.056Zm4.121-6.331H19.994v4.55h3.692V-.494c0,.221-.065.286-.3.3-.208,0-.832.013-1.469-.013V-4.966H17.043V.481h1.105v-.65h3.51a5.415,5.415,0,0,1,.377,1.183A6.581,6.581,0,0,0,24.3.806c.468-.208.611-.6.611-1.287Zm6.786.26-1.521-.156a14.6,14.6,0,0,1-.312,2.795c-.728.065-1.43.117-1.846.13-.442.013-.832.026-1.261,0l.13,1.4c.351-.065.962-.143,1.287-.182.3-.039.832-.1,1.417-.169A20.275,20.275,0,0,1,26.9.026l1.339.533a27.144,27.144,0,0,0,2.691-6.994c.481-.052.91-.078,1.183-.078.819,0,1.326.2,1.326,1.313a10.715,10.715,0,0,1-.572,3.822A1.044,1.044,0,0,1,31.8-.767a6.866,6.866,0,0,1-1.6-.26L30.42.325a7.19,7.19,0,0,0,1.547.2,1.942,1.942,0,0,0,2-1.144,12.587,12.587,0,0,0,.741-4.719c0-1.82-.962-2.327-2.21-2.327-.3,0-.78.026-1.313.078.117-.611.234-1.235.312-1.638C31.564-9.516,31.629-9.854,31.694-10.127Zm5.928-.988-.845.351A13.125,13.125,0,0,1,37.856-8.97l.845-.377A20.172,20.172,0,0,0,37.622-11.115Zm-1.482.546-.845.351a11.779,11.779,0,0,1,.923,1.586c-.013-.026-.039-.052-.052-.078l-1.209.533a15,15,0,0,1,2.262,4.758l1.287-.611a22.741,22.741,0,0,0-2.145-4.394l.832-.351A19.044,19.044,0,0,0,36.14-10.569ZM-26.676,13.208l-1.521-.156a14.53,14.53,0,0,1-.3,2.8c-.741.065-1.443.117-1.859.13-.442.013-.819.026-1.261,0l.13,1.4c.364-.065.962-.143,1.287-.182.3-.039.832-.1,1.43-.169a20.631,20.631,0,0,1-2.7,6.331l1.339.533A27.144,27.144,0,0,0-27.443,16.9c.494-.052.923-.078,1.2-.078.819,0,1.326.195,1.326,1.313a10.566,10.566,0,0,1-.585,3.809,1.019,1.019,0,0,1-1.066.624,6.77,6.77,0,0,1-1.586-.26l.208,1.352a7.31,7.31,0,0,0,1.547.182,1.913,1.913,0,0,0,2-1.131,12.587,12.587,0,0,0,.741-4.719c0-1.82-.949-2.327-2.21-2.327-.3,0-.767.026-1.3.078.117-.611.234-1.235.312-1.638C-26.806,13.819-26.741,13.481-26.676,13.208Zm4.485,1.313-1.209.52a15.515,15.515,0,0,1,2.249,4.81l1.287-.6A22.515,22.515,0,0,0-22.191,14.521Zm8.515-1.313-1.521-.156a14.53,14.53,0,0,1-.3,2.8c-.741.065-1.443.117-1.859.13-.442.013-.819.026-1.261,0l.13,1.4c.364-.065.962-.143,1.287-.182.3-.039.832-.1,1.43-.169a20.631,20.631,0,0,1-2.7,6.331l1.339.533A27.144,27.144,0,0,0-14.443,16.9c.494-.052.923-.078,1.2-.078.819,0,1.326.195,1.326,1.313a10.566,10.566,0,0,1-.585,3.809,1.019,1.019,0,0,1-1.066.624,6.77,6.77,0,0,1-1.586-.26l.208,1.352a7.31,7.31,0,0,0,1.547.182,1.913,1.913,0,0,0,2-1.131,12.587,12.587,0,0,0,.741-4.719c0-1.82-.949-2.327-2.21-2.327-.3,0-.767.026-1.3.078.117-.611.234-1.235.312-1.638C-13.806,13.819-13.741,13.481-13.676,13.208Zm4.485,1.313-1.209.52a15.515,15.515,0,0,1,2.249,4.81l1.287-.6A22.515,22.515,0,0,0-9.191,14.521Zm7.215-1.456L-3.393,13a11.29,11.29,0,0,1-.1,1.235,34.3,34.3,0,0,0-.377,4.186,16.341,16.341,0,0,0,.143,2.106l1.274-.091a6.02,6.02,0,0,1-.052-1.495c.117-1.716,1.56-4.056,3.146-4.056,1.235,0,1.924,1.326,1.924,3.354,0,3.224-2.132,4.277-4.979,4.719l.78,1.183c3.315-.611,5.577-2.275,5.577-5.9,0-2.8-1.313-4.537-3.081-4.537-1.573,0-2.821,1.391-3.393,2.574A25.16,25.16,0,0,1-1.976,13.065Zm11.778.52.065,1.326c.338-.026.741-.078,1.079-.1.546-.039,2.522-.13,3.081-.169A49.3,49.3,0,0,1,10.01,17.9c-.663.078-1.56.195-2.262.26L7.865,19.4c1.456-.247,3.068-.442,4.368-.546a3.019,3.019,0,0,0-1.261,2.275c0,2.08,1.82,3.068,5.057,2.938l.273-1.352a9.551,9.551,0,0,1-1.911-.026c-1.183-.156-2.132-.572-2.132-1.768a2.64,2.64,0,0,1,2.366-2.3,20.963,20.963,0,0,1,3.328-.039l-.013-1.222c-1.742,0-4,.169-5.876.364.975-.767,2.6-2.132,3.549-2.9a8.11,8.11,0,0,1,.832-.585l-.819-.949a4.433,4.433,0,0,1-.793.143c-.767.091-3.341.208-3.9.208A10.33,10.33,0,0,1,9.8,13.585ZM28.665,19.11c0,2.2-2.171,3.354-5.356,3.744l.741,1.261c3.484-.507,6.032-2.158,6.032-4.953,0-1.937-1.4-3.029-3.341-3.029a16.939,16.939,0,0,0-3.913.611,11.509,11.509,0,0,1-1.287.208l.4,1.482c.338-.13.767-.3,1.157-.416a12.012,12.012,0,0,1,3.484-.65C27.872,17.368,28.665,18.109,28.665,19.11Zm-5.317-6.032-.195,1.248c1.482.26,4.186.52,5.655.611l.208-1.261A36.874,36.874,0,0,1,23.348,13.078Z" transform="translate(294.038 2375)" fill="#fff"/>
    <path id="パス_9088" data-name="パス 9088" d="M14.22-10.185A13.549,13.549,0,0,0,12.06-12.6l-1.335.825a12.762,12.762,0,0,1,2.055,2.52Zm-9.945-2.4a15.679,15.679,0,0,1-4.1,5.85A11.456,11.456,0,0,1,1.17-4.92,14.134,14.134,0,0,0,2.73-6.6V1.275H4.59V-9.27a23.832,23.832,0,0,0,1.395-2.76ZM14.445-7.2,14.19-8.88l-4.275.555C9.81-9.6,9.75-11.01,9.72-12.48H7.905c.045,1.575.135,3.045.24,4.395l-3.03.405L5.37-5.955,8.325-6.36c.54,4.575,1.725,7.4,4.26,7.635.84.045,1.65-.645,2.025-3.54a6.137,6.137,0,0,1-1.455-1.02c-.12,1.665-.3,2.415-.645,2.385-1.2-.15-2-2.37-2.415-5.7Zm11.25,4.32H19.2v-.84h6.495ZM19.2-.66v-.93h6.495v.93ZM29.265-7.92V-9.33h-2.8a7,7,0,0,0,.045-.78v-.075h2.25v-1.35h-2.25v-1.17H24.8v1.17h-2.04v1.35H24.8v.045a5.158,5.158,0,0,1-.06.81h-2.2v1.41h1.71a4.206,4.206,0,0,1-2.3,1.755,5.681,5.681,0,0,1,.93.96h-5.2A6.345,6.345,0,0,0,19.125-6.75a21.853,21.853,0,0,1,1.68,1.425l1.14-1.2c-.435-.345-1.2-.9-1.86-1.395h1.98V-9.33h-2.04a8.483,8.483,0,0,0,.06-.855h1.8v-1.35h-1.8v-1.17H18.39v1.17H16.26v1.35h2.13a5.821,5.821,0,0,1-.075.855h-2.55v1.41h2.1A5,5,0,0,1,15.45-5.73a6.024,6.024,0,0,1,1.185,1.215c.285-.165.57-.345.825-.525V1.305H19.2V.825h6.495v.42h1.83V-5.2H23.64A5.841,5.841,0,0,0,25.815-7.29,6.59,6.59,0,0,0,28.53-4.605a6.487,6.487,0,0,1,1.125-1.35A5.622,5.622,0,0,1,27.18-7.92Zm12.93,4.2a6.2,6.2,0,0,1-.87,1.365c-.12-.405-.24-.87-.345-1.365Zm-6.9-1.38c-.36-.63-1.08-1.785-1.395-2.25V-8h1.365v-1.59a9.681,9.681,0,0,1,1.11,1.11c-.3.48-.615.93-.9,1.32l-.465.03.24,1.32c.84-.09,1.77-.21,2.745-.315.03.165.045.315.06.45l1.02-.405c.045.33.09.66.12.975ZM37.44-8a7.076,7.076,0,0,1,.24.675l-.81.06c.645-.84,1.35-1.89,1.95-2.82.03,1.2.1,2.355.21,3.45a8.941,8.941,0,0,0-.585-1.68Zm3.045.63c-.06-.75-.1-1.515-.12-2.325a10.142,10.142,0,0,1,1.2,1.215c-.255.39-.51.765-.75,1.08ZM40.74-5.1c-.075-.45-.135-.915-.18-1.41l.09.42c.42-.045.855-.105,1.32-.15l-.675.585a8.374,8.374,0,0,1,.72.555Zm1.545,1.38h2.1V-5.1h-1.14l.285-.255A5.863,5.863,0,0,0,42.39-6.3l1.11-.15a5.824,5.824,0,0,1,.12.585l1.065-.45a9.192,9.192,0,0,0-.78-2.22l-1,.36c.09.2.18.405.255.615l-.9.06c.66-.885,1.38-1.98,1.98-2.925l-1.215-.6c-.21.435-.48.945-.765,1.44l-.39-.39c.375-.585.81-1.395,1.23-2.145l-1.335-.495a15.544,15.544,0,0,1-.735,1.92l-.24-.18-.435.63c-.015-.8-.015-1.6,0-2.445H38.775c0,.735.015,1.455.03,2.16L37.8-11.025c-.21.45-.465.945-.765,1.455-.1-.12-.24-.255-.375-.39.36-.6.8-1.425,1.215-2.145l-1.32-.51a19.95,19.95,0,0,1-.735,1.935l-.255-.195L34.9-9.9c.105.09.225.18.33.285H33.9v-3.09H32.31v3.09H30.7V-8H32.19A15.772,15.772,0,0,1,30.36-2.94a10.169,10.169,0,0,1,.75,1.515,12.835,12.835,0,0,0,1.2-2.82V1.29H33.9v-6.6c.3.66.6,1.35.75,1.8l.6-.885v.675h.93A4.777,4.777,0,0,1,34.335.105a4.132,4.132,0,0,1,1.005,1.17,5.127,5.127,0,0,0,1.995-2.88A9.479,9.479,0,0,1,38.49-.585l.96-1.185a11.955,11.955,0,0,0-1.785-1.38c.03-.18.06-.375.075-.57h1.695a13.8,13.8,0,0,0,.69,2.52A9.3,9.3,0,0,1,37.62.15a6.59,6.59,0,0,1,.93,1.14A10.829,10.829,0,0,0,40.815.105a2.474,2.474,0,0,0,2.055,1.2c1.17,0,1.59-.45,1.86-2.145a4.272,4.272,0,0,1-1.155-.81C43.5-.465,43.365-.18,42.99-.18a1.261,1.261,0,0,1-1.005-.69A8.659,8.659,0,0,0,43.68-3.2ZM58.9-5.28a5.712,5.712,0,0,0-6.06-5.85A6.665,6.665,0,0,0,45.96-4.71c0,2.535,1.38,4.365,3.045,4.365,1.635,0,2.925-1.86,3.825-4.89a30.335,30.335,0,0,0,.9-4.065,3.708,3.708,0,0,1,3.15,3.96,4.071,4.071,0,0,1-3.42,4.02,11.537,11.537,0,0,1-1.4.24L53.19.705C56.97.12,58.9-2.115,58.9-5.28ZM47.88-4.905a4.722,4.722,0,0,1,3.81-4.35,22.515,22.515,0,0,1-.795,3.63c-.615,2.025-1.2,2.97-1.83,2.97C48.48-2.655,47.88-3.39,47.88-4.905ZM71.805-10.23h-4.05v-.75h4.05Zm0,1.905h-4.05V-9.09h4.05Zm1.71-3.915H66.12v5.175h7.395ZM65.37-4.755,65.13-6.36,63.78-6V-8.22h1.5V-9.87h-1.5v-2.835H62.16V-9.87H60.54v1.65h1.62v2.655c-.675.165-1.275.33-1.785.435l.4,1.725c.435-.12.885-.255,1.38-.39v3c0,.2-.075.255-.255.255-.18.015-.69.015-1.245,0A5.864,5.864,0,0,1,61.125,1.1,3.7,3.7,0,0,0,63.195.75c.45-.27.585-.7.585-1.53v-3.5ZM70.605-2.22H73.47v-1.4H70.605v-1.32h3.66v-1.44H65.4v1.44h3.525V-1.02A3.367,3.367,0,0,1,67.62-2.775,13.634,13.634,0,0,0,67.9-4.29l-1.62-.2A6.693,6.693,0,0,1,64.2.21a10.241,10.241,0,0,1,1.32,1.065A6.6,6.6,0,0,0,67.08-1.08C68.1.735,69.615,1.1,71.58,1.1h2.61a5.258,5.258,0,0,1,.48-1.56c-.645.015-2.5.015-3.015.015-.375,0-.705-.015-1.05-.045Zm8.07-10.455a15.684,15.684,0,0,1-3.42,5.61,10.44,10.44,0,0,1,.96,1.86c.315-.345.63-.705.945-1.11V1.29h1.755V-9.03a27.51,27.51,0,0,0,1.425-3.12ZM82.17-2.73A9.323,9.323,0,0,1,79.455.135,9.958,9.958,0,0,1,80.85,1.26a13.844,13.844,0,0,0,2.985-3.48Zm3.27.765A17.157,17.157,0,0,1,87.915,1.29l1.5-.945a18.573,18.573,0,0,0-2.55-3.09ZM83.5-8.07H85.68v2.985H83.5ZM87.42-5.085V-8.07h1.95V-9.78H87.42V-12.6H85.68v2.82H83.5v-2.805h-1.74V-9.78H80.13v1.71h1.635v2.985h-2.01v1.74H89.49v-1.74Z" transform="translate(249.038 2535)" fill="#363636"/>
    <path id="パス_8545" data-name="パス 8545" d="M98.882,53.848H46.5a4.561,4.561,0,0,0-4.62,4.5v30a4.56,4.56,0,0,0,4.62,4.5H69.611v3H52.667a1.521,1.521,0,0,0-1.542,1.5v3a1.521,1.521,0,0,0,1.542,1.5H92.72a1.521,1.521,0,0,0,1.54-1.5v-3a1.521,1.521,0,0,0-1.54-1.5H75.774v-3H98.882a4.56,4.56,0,0,0,4.62-4.5v-30a4.561,4.561,0,0,0-4.62-4.5m-.594,34.04H47.1V58.809h51.19Z" transform="translate(221.155 2388.152)" fill="#e66084"/>
  </g>
</svg>
