<svg xmlns="http://www.w3.org/2000/svg" width="194" height="223" viewBox="0 0 194 223">
  <g id="グループ_4483" data-name="グループ 4483" transform="translate(-461.999 -867)">
    <path id="合体_2" data-name="合体 2" d="M7005,81H6863V26h142V2l52,51.5L7005,105Z" transform="translate(-6401 985)" fill="#00c8ac"/>
    <text id="ずっと安心" transform="translate(493 1046)" fill="#fff" font-size="17" font-family="NotoSansJP-Bold, Noto Sans JP" font-weight="700"><tspan x="0" y="0">ずっと安心</tspan></text>
    <path id="パス_7888" data-name="パス 7888" d="M7.972,7.662H117.846V73.588H7.972ZM9.788,0A9.375,9.375,0,0,0,.411,9.372v62.5a9.375,9.375,0,0,0,9.377,9.374H56.661V87.5H22.289a3.126,3.126,0,0,0-3.127,3.124v6.251A3.129,3.129,0,0,0,22.289,100h81.244a3.129,3.129,0,0,0,3.127-3.127V90.623a3.126,3.126,0,0,0-3.127-3.124H69.161V81.249h46.872a9.375,9.375,0,0,0,9.377-9.374V9.372A9.374,9.374,0,0,0,116.034,0Z" transform="translate(461.589 866.999)" fill="#00c8ac"/>
  </g>
</svg>
