<svg xmlns="http://www.w3.org/2000/svg" width="245.101" height="723" viewBox="0 0 245.101 723">
  <g id="グループ_4421" data-name="グループ 4421" transform="translate(2121.601 -4039)">
    <path id="パス_8781" data-name="パス 8781" d="M10,0H713a10,10,0,0,1,10,10V77a10,10,0,0,1-10,10H10A10,10,0,0,1,0,77V10A10,10,0,0,1,10,0Z" transform="translate(-1975 4039) rotate(90)" fill="#f5f5f5"/>
    <path id="パス_8782" data-name="パス 8782" d="M10,0H120V87H10A10,10,0,0,1,0,77V10A10,10,0,0,1,10,0Z" transform="translate(-1975 4039) rotate(90)" fill="#818181"/>
    <path id="パス_8783" data-name="パス 8783" d="M-17.64-10.965l-1.74-.615a10.56,10.56,0,0,1-.33,1.23,16.594,16.594,0,0,1-1.875,3.87c-1.2-.915-2.865-2.07-4.125-2.865l-.99,1.2A42.593,42.593,0,0,1-22.56-5.19,16.3,16.3,0,0,1-28.4-.6l1.32,1.185A18.727,18.727,0,0,0-21.33-4.17,33.464,33.464,0,0,1-17.88-.78l1.2-1.32a36.738,36.738,0,0,0-3.66-3.39,21.508,21.508,0,0,0,2.16-4.26A11.064,11.064,0,0,1-17.64-10.965Zm4.095,4.275v1.86c.51-.045,1.41-.075,2.235-.075h8.16c.66,0,1.35.06,1.68.075V-6.69c-.375.03-.96.09-1.68.09h-8.16C-12.12-6.6-13.05-6.66-13.545-6.69ZM7.77-11.9H6.015a9.541,9.541,0,0,1,.105,1.29q0,.765-.045,1.44H3.66c-.585,0-1.26-.045-1.83-.09V-7.7c.57-.045,1.275-.06,1.83-.06H5.94A9.324,9.324,0,0,1,3.2-1.86,8,8,0,0,1,1.47-.6L2.85.525c2.58-1.815,4.065-4.11,4.62-8.28h3.84c0,1.62-.195,5.01-.7,6.06a.793.793,0,0,1-.855.51,17.173,17.173,0,0,1-2.175-.18L7.755.21C8.52.27,9.39.315,10.2.315a1.673,1.673,0,0,0,1.74-1.02c.66-1.47.855-5.76.9-7.275.015-.18.06-.51.1-.765l-1.05-.51a6.82,6.82,0,0,1-1.035.09H7.62c.03-.465.06-.96.075-1.47C7.71-11,7.74-11.55,7.77-11.9ZM16.455-6.69v1.86c.51-.045,1.41-.075,2.235-.075h8.16c.66,0,1.35.06,1.68.075V-6.69c-.375.03-.96.09-1.68.09H18.69C17.88-6.6,16.95-6.66,16.455-6.69Zm-27.4,21.15A16.029,16.029,0,0,1-14.61,20.2a8.256,8.256,0,0,1,.78,1.41,16.018,16.018,0,0,0,1.4-1.665v8.2h1.32V17.925a27.028,27.028,0,0,0,1.47-3.045Zm3.015,1.875H-2.88V18.75H-7.935ZM-.7,22.89V21.63h-4.05V19.995h3.27V15.1H-9.24v4.89h3.09V21.63h-4.14v1.26h3.4a11,11,0,0,1-3.885,3.57,6.151,6.151,0,0,1,.96,1.11,12.205,12.205,0,0,0,3.66-3.63V28.2h1.4V23.865A12.876,12.876,0,0,0-1.275,27.6,6.234,6.234,0,0,1-.3,26.49,11.149,11.149,0,0,1-4,22.89Zm6.24-7.98H1.395V16h4.14ZM4.41,24.255v2.16H2.475v-2.16ZM5.625,23.13H1.275v5.04h1.2v-.645h3.15Zm-4.32-.99h4.23V21.06H1.305Zm4.23-3.12H1.305V20.1h4.23ZM.6,18.045H6.06v-1.11H.6Zm10.7,8.31v-4.59h2.79v-1.32H11.3v-3.87h2.88v-1.32H6.54v1.32H9.93v9.78H8.415V19.08H7.125v7.275H6.075v1.32H14.43v-1.32Z" transform="translate(-2018 4092)" fill="#fff"/>
    <g id="グループ_4414" data-name="グループ 4414">
      <path id="パス_8784" data-name="パス 8784" d="M0,0H88V55H0Z" transform="translate(-1991 4169) rotate(90)" fill="#818181"/>
      <path id="パス_8429" data-name="パス 8429" d="M0,71,30,35.5,0,0Z" transform="translate(-1983 4255) rotate(90)" fill="#818181"/>
      <path id="パス_8785" data-name="パス 8785" d="M-14.28-8.736l-1.1-.384a6.884,6.884,0,0,1-.24.888,13.425,13.425,0,0,1-1.632,3.276c-.948-.732-2.34-1.716-3.372-2.376l-.624.756a37.543,37.543,0,0,1,3.384,2.424A13.323,13.323,0,0,1-22.632-.384l.828.756A15.288,15.288,0,0,0-17.1-3.5a26.763,26.763,0,0,1,2.832,2.76l.756-.828A30.031,30.031,0,0,0-16.476-4.32a16.716,16.716,0,0,0,1.8-3.54A6.475,6.475,0,0,1-14.28-8.736Zm3.5,3.54V-4.02c.372-.036,1.008-.06,1.668-.06H-2.52c.54,0,1.044.048,1.284.06V-5.2c-.264.024-.7.06-1.3.06H-9.108C-9.78-5.136-10.416-5.172-10.776-5.2ZM6.1-9.444H4.968a7.275,7.275,0,0,1,.084,1c0,.432-.024.84-.048,1.224H2.892A12.56,12.56,0,0,1,1.524-7.3v1.02A12.8,12.8,0,0,1,2.9-6.324H4.92A7.716,7.716,0,0,1,2.544-1.272a5.915,5.915,0,0,1-1.236.888l.876.708c2-1.38,3.252-3.2,3.684-6.648h3.36c0,1.284-.156,4.236-.612,5.148a.65.65,0,0,1-.7.4A14.6,14.6,0,0,1,6.132-.912l.12,1c.624.036,1.32.084,1.932.084A1.245,1.245,0,0,0,9.468-.564c.54-1.152.684-4.644.732-5.8a3.753,3.753,0,0,1,.06-.588l-.672-.336a4.325,4.325,0,0,1-.768.06H5.964c.024-.4.048-.8.06-1.236C6.036-8.748,6.06-9.168,6.1-9.444ZM13.224-5.2V-4.02c.372-.036,1.008-.06,1.668-.06H21.48c.54,0,1.044.048,1.284.06V-5.2c-.264.024-.7.06-1.3.06H14.892C14.22-5.136,13.584-5.172,13.224-5.2ZM-3.444,14.056h-1.1v-.828h1.1Zm1.836,2.172H-2.784V14.752h1.176Zm-4.68-1.476h1.08v1.476h-1.08Zm2.844,0v1.476H-4.56V14.752Zm-1.836-.7H-7.044v2.856H-.828V14.056h-1.9v-.828H-.516v-.744h-6.9v.744H-5.28Zm4.152,4.26v-.684h-5.6v.684ZM-7.416,18.3c-.2-.324-1.092-1.656-1.428-2.1v-.828H-7.5v-.828H-8.844V11.956H-9.66v2.592h-1.68v.828h1.584a13.025,13.025,0,0,1-1.824,4.5,4.978,4.978,0,0,1,.456.768A12.53,12.53,0,0,0-9.66,17.3v5.6h.816V17.26c.348.588.768,1.32.936,1.7Zm1.32,1.884A6.965,6.965,0,0,1-7.92,21.964a2.954,2.954,0,0,1,.552.54A7.924,7.924,0,0,0-5.412,20.56Zm5.58-.276v-.72h-6.96v.72H-4.44v2.112c0,.12-.036.168-.18.168H-5.8a2.674,2.674,0,0,1,.264.732,4.925,4.925,0,0,0,1.548-.132c.3-.12.372-.348.372-.756V19.912Zm-2.232.72a14.759,14.759,0,0,1,1.656,1.884l.66-.48a12.819,12.819,0,0,0-1.692-1.812Zm10.02-5.76H5.328V14H7.272Zm0,1.524H5.328v-.852H7.272Zm0,1.584H5.328v-.912H7.272Zm-2.8.72H11.16v-.72H8.112v-.912h2.4V16.4h-2.4v-.852h2.376v-.672H8.112V14h2.724v-.72H8.184c.216-.348.456-.744.672-1.128l-.948-.18a12.684,12.684,0,0,1-.624,1.308H5.616A9.369,9.369,0,0,0,6.24,12.16l-.852-.252a8.483,8.483,0,0,1-2.424,3.06,5.891,5.891,0,0,1,.7.612,8.555,8.555,0,0,0,.816-.8Zm-2.988.408c.72-.78,1.524-1.7,2.208-2.544l-.48-.6a28.1,28.1,0,0,1-2.352,2.46Zm2.3-6.18a9.674,9.674,0,0,0-1.932-.9l-.444.612a10.425,10.425,0,0,1,1.908.984ZM2.9,14.8A10.674,10.674,0,0,0,.96,14l-.444.624a9.852,9.852,0,0,1,1.944.888Zm8.472,4.968H6.408v-.984h-.9v.984H.672v.8H5.508v2.352h.9V20.572h4.968Zm-32.04,14.224a13.474,13.474,0,0,1-3.024,4.728,7.287,7.287,0,0,1,.5.864A12.968,12.968,0,0,0-21.9,38.048v6.84h.852V36.74a17.826,17.826,0,0,0,1.224-2.5Zm2.076,1.332h4.452v2.2h-4.452Zm6,5.292V39.8h-3.36V38.312h2.7V34.52h-6.18v3.792h2.592V39.8h-3.48v.816h2.964a8.889,8.889,0,0,1-3.312,3.072,4.395,4.395,0,0,1,.624.708,10.029,10.029,0,0,0,3.2-3.192v3.72h.888V41.168a11.052,11.052,0,0,0,3.036,3.252,4.043,4.043,0,0,1,.636-.708,9.35,9.35,0,0,1-3.156-3.1Zm5-6.24H-10.86v.72h3.276Zm.42,1.6H-11.5V36.7h4.332Zm-.408,1.656h-3.36v.708h3.36Zm-3.36,2.34h3.36V39.26h-3.36ZM-8.3,41.624v1.992h-1.872V41.624Zm.78-.732h-3.432V44.9h.78v-.54h2.652Zm4.4,2.76V39.668H-.744v-.84H-3.12v-3.3H-.672V34.7h-6.1v.828h2.784v8.124h-1.44V37.688h-.84v5.964h-.9V44.5H-.48v-.852Zm5.6-3.636H4.656v1.2H2.484Zm2.172-3.672V37.4H2.484V36.344ZM2.484,38.12H4.656V39.3H2.484Zm3.876,3.1H5.484V36.344H6.36v-.8H5.484V34.1H4.656v1.44H2.484V34.1H1.668v1.44H.66v.8H1.668v4.872H.5v.8H6.36Zm-4.2,1.056A6.26,6.26,0,0,1,.516,44.408a5.516,5.516,0,0,1,.72.516A7.932,7.932,0,0,0,3.012,42.5Zm1.7.372A9.42,9.42,0,0,1,5.1,44.468l.72-.42a8.89,8.89,0,0,0-1.26-1.776Zm3.9-2.568c.012-.408.024-.816.024-1.188v-.8h2.448v1.992Zm2.472-4.7V37.28H7.788V35.372Zm.864-.816H6.948v4.332c0,1.716-.1,4-1.092,5.58a2.287,2.287,0,0,1,.708.516,9.4,9.4,0,0,0,1.14-4.1h2.532v2.88c0,.192-.072.252-.252.252s-.768.012-1.4,0a3.628,3.628,0,0,1,.276.864,5.319,5.319,0,0,0,1.788-.168c.324-.144.456-.408.456-.936Zm5.5.612v1H14v-1ZM14,37.88V36.824H16.6V37.88Zm3.444.684V34.472H13.116V44.924H14v-6.36Zm1.932,1.6v1.1H16.56v-1.1ZM16.56,43.1V41.936h2.82V43.1Zm3.648.708V39.464H15.756v4.944h.8v-.6Zm-.84-5.916V36.824h2.688v1.068Zm2.688-2.724v1H19.368v-1Zm.9-.7h-4.44v4.1h3.54v5.148c0,.216-.072.288-.276.288s-.948.024-1.68-.012a3.287,3.287,0,0,1,.312.912,6.83,6.83,0,0,0,2.016-.156c.4-.156.528-.456.528-1.02Z" transform="translate(-2018 4199)" fill="#f5f5f5"/>
    </g>
    <path id="パス_8786" data-name="パス 8786" d="M10,0H713a10,10,0,0,1,10,10V78a10,10,0,0,1-10,10H10A10,10,0,0,1,0,78V10A10,10,0,0,1,10,0Z" transform="translate(-1877 4039) rotate(90)" fill="#f5f5f5"/>
    <path id="パス_8787" data-name="パス 8787" d="M10,0H120V88H10A10,10,0,0,1,0,78V10A10,10,0,0,1,10,0Z" transform="translate(-1877 4039) rotate(90)" fill="#00c8ac"/>
    <path id="パス_8788" data-name="パス 8788" d="M-20.46-3.345h-1.56V-8.7h-1.32v5.355h-1.14V-2.07h8.745V-3.345H-19.08V-6.66h3.045V-7.875H-19.08V-10.74a25.132,25.132,0,0,0,3.015-.69l-.96-1.11a39.859,39.859,0,0,1-7.11,1.23,4.006,4.006,0,0,1,.375,1.155c1.05-.09,2.19-.21,3.3-.375ZM-25.29-7.47l-.255.03H-26.97c.735-1.4,1.47-2.865,2.01-4.02l-.96-.3-.225.075H-29.37v1.215h2.52C-27.51-9.15-28.425-7.4-29.235-6l1.275.375.33-.585h1.695a12.91,12.91,0,0,1-.84,3.18A8.247,8.247,0,0,1-27.8-5.22l-1.095.39a9.749,9.749,0,0,0,1.5,3.015,6.528,6.528,0,0,1-2.1,2.1,5.872,5.872,0,0,1,1.05.975A7.045,7.045,0,0,0-26.43-.825c1.59,1.32,3.7,1.65,6.3,1.65h4.095a4.989,4.989,0,0,1,.54-1.365c-.885.03-3.87.03-4.59.03-2.3,0-4.26-.27-5.715-1.47a16.915,16.915,0,0,0,1.335-5.265ZM-2.55-4.275a20.617,20.617,0,0,1-2.865,1.89,7.908,7.908,0,0,1-1.4-1.89Zm.03,0h1.7V-5.52h-9.36V-6.57H-2.76V-7.68h-7.425V-8.715H-2.76v-1.11h-7.425V-10.86h7.86v-1.17h-9.27v6.51h-2.58v1.245h2.565v3.81c-.69.105-1.335.2-1.875.27l.33,1.275C-11.37.8-8.85.39-6.495-.015l-.075-1.23-3.615.555V-4.275h1.95a9.11,9.11,0,0,0,6.8,5.49A4.826,4.826,0,0,1-.555-.03,10.1,10.1,0,0,1-4.5-1.62,22.885,22.885,0,0,0-1.395-3.51ZM4.05-12.54A16.029,16.029,0,0,1,.39-6.8a8.256,8.256,0,0,1,.78,1.41A16.018,16.018,0,0,0,2.565-7.05V1.155h1.32V-9.075a27.028,27.028,0,0,0,1.47-3.045Zm3.015,1.875H12.12V-8.25H7.065ZM14.3-4.11V-5.37h-4.05V-7.005h3.27V-11.9H5.76v4.89H8.85V-5.37H4.71v1.26h3.4A11,11,0,0,1,4.23-.54,6.151,6.151,0,0,1,5.19.57,12.205,12.205,0,0,0,8.85-3.06V1.2h1.4V-3.135A12.876,12.876,0,0,0,13.725.6,6.234,6.234,0,0,1,14.7-.51,11.149,11.149,0,0,1,11-4.11Zm6.24-7.98H16.4V-11h4.14ZM19.41-2.745v2.16H17.475v-2.16ZM20.625-3.87h-4.35V1.17h1.2V.525h3.15Zm-4.32-.99h4.23V-5.94h-4.23Zm4.23-3.12h-4.23V-6.9h4.23ZM15.6-8.955h5.46v-1.11H15.6ZM26.3-.645v-4.59h2.79v-1.32H26.3v-3.87h2.88v-1.32H21.54v1.32h3.39v9.78H23.415V-7.92h-1.29V-.645h-1.05V.675H29.43V-.645ZM-19.08,15.69v1.545c.42-.03.96-.045,1.44-.045h5.82c.51,0,1.11.015,1.485.045V15.69a14.33,14.33,0,0,1-1.47.075H-17.64A13.722,13.722,0,0,1-19.08,15.69Zm9.93,4.125-1.065-.66a2.976,2.976,0,0,1-.96.135h-7.68c-.435,0-1.005-.045-1.59-.105v1.56c.57-.045,1.23-.06,1.59-.06h7.635a7.07,7.07,0,0,1-1.665,3,10.092,10.092,0,0,1-5.25,2.7l1.17,1.35a11.084,11.084,0,0,0,5.37-3.195,10.613,10.613,0,0,0,2.2-4.2A2.635,2.635,0,0,1-9.15,19.815Zm2.79,1.59.735,1.485A30.689,30.689,0,0,0-.09,20.565v5.22a17.382,17.382,0,0,1-.09,1.77H1.68a11.28,11.28,0,0,1-.1-1.77V19.56A25.3,25.3,0,0,0,5.61,16.275l-1.26-1.2a18.516,18.516,0,0,1-4.17,3.57A24.77,24.77,0,0,1-6.36,21.4ZM12.405,25.62a15.7,15.7,0,0,1-.12,1.92H14.13a17.575,17.575,0,0,1-.12-1.92V20.985a39.276,39.276,0,0,1,5.67,2.34l.675-1.635a50.845,50.845,0,0,0-6.345-2.4V16.95c0-.525.06-1.185.1-1.68H12.27a10.859,10.859,0,0,1,.135,1.68Z" transform="translate(-1921 4080)" fill="#fff"/>
    <path id="パス_8789" data-name="パス 8789" d="M-39.06-5.7a9.994,9.994,0,0,0,2.97,7.17l1.14-.54A9.335,9.335,0,0,1-37.71-5.7a9.335,9.335,0,0,1,2.76-6.63l-1.14-.54A9.994,9.994,0,0,0-39.06-5.7ZM-23.3-10.32h-6.96v-.855h6.96Zm0,1.755h-6.96v-.87h6.96Zm1.4-3.555h-9.69v4.485h9.69Zm-.45,8.19a7.069,7.069,0,0,1-1.365,1.89,6.611,6.611,0,0,1-1.26-1.89ZM-30.84-1.1V-2.07h2.355v.75Zm0-2.865h2.355v.885H-30.84Zm2.355-1.83v.84H-30.84v-.84Zm6.975.735-.24.045h-4.935v1.08h1.35l-.81.225A9.19,9.19,0,0,0-24.63-1.26,8.632,8.632,0,0,1-27.15,0V-5.79h6.93V-6.93H-33.36v1.14h1.23V-.975c-.495.045-.96.09-1.365.12l.1,1.215c1.365-.135,3.135-.33,4.905-.525V1.17h1.335V.105a4.369,4.369,0,0,1,.69,1.02,10.36,10.36,0,0,0,2.775-1.5A8.311,8.311,0,0,0-20.7,1.17,4.133,4.133,0,0,1-19.875.09,8.335,8.335,0,0,1-22.74-1.2a8.521,8.521,0,0,0,2.085-3.525Zm14.685.78A20.617,20.617,0,0,1-9.69-2.385a7.908,7.908,0,0,1-1.4-1.89Zm.03,0h1.7V-5.52h-9.36V-6.57h7.425V-7.68H-14.46V-8.715h7.425v-1.11H-14.46V-10.86H-6.6v-1.17h-9.27v6.51h-2.58v1.245h2.565v3.81c-.69.105-1.335.2-1.875.27l.33,1.275c1.785-.285,4.305-.69,6.66-1.1l-.075-1.23L-14.46-.69V-4.275h1.95a9.11,9.11,0,0,0,6.8,5.49A4.826,4.826,0,0,1-4.83-.03,10.1,10.1,0,0,1-8.775-1.62,22.885,22.885,0,0,0-5.67-3.51ZM-.255.2A3.642,3.642,0,0,0,3.465-3.63,3.175,3.175,0,0,0,.1-7.14a3.157,3.157,0,0,0-1.515.39l.255-2.835h4.1v-1.47h-5.6l-.33,5.25.84.555a2.9,2.9,0,0,1,1.77-.63,2.048,2.048,0,0,1,2.1,2.31A2.158,2.158,0,0,1-.465-1.215,3.533,3.533,0,0,1-3.045-2.4L-3.87-1.275A4.886,4.886,0,0,0-.255.2ZM8.82-3.48V-6.135h3.015V-3.48Zm9.72,0H13.275V-6.135H17.46V-7.44H13.275V-9.51H17.8v-1.35H9.12c.2-.45.4-.945.585-1.41l-1.41-.375A12.136,12.136,0,0,1,5.025-7.56a11.093,11.093,0,0,1,1.215.9A13.647,13.647,0,0,0,8.4-9.51h3.435v2.07H7.425v3.96H5.01v1.35h6.825V1.185h1.44V-2.13H18.54Zm6.3-7.455V-9.9H22.005v-1.035ZM22.005-7.8V-8.91H24.84V-7.8ZM26.16-6.765v-5.22H20.625V1.185h1.38v-7.95Zm2.52-1V-8.91h2.925v1.14Zm2.925-3.165V-9.9H28.68v-1.035Zm-6.39,9.69V-2.49H28.26v1.245ZM28.26-4.68v1.17H25.215V-4.68Zm4.755-7.305h-5.67v5.25h4.26V-.57c0,.255-.075.33-.345.345-.24,0-.96.015-1.695-.015V-5.73H23.94V.555h1.275V-.2h4.05A6.248,6.248,0,0,1,29.7,1.17,7.593,7.593,0,0,0,32.31.93c.54-.24.705-.69.705-1.485ZM39.06-5.7a9.994,9.994,0,0,0-2.97-7.17l-1.14.54A9.335,9.335,0,0,1,37.71-5.7,9.335,9.335,0,0,1,34.95.93l1.14.54A9.994,9.994,0,0,0,39.06-5.7Z" transform="translate(-1921 4132)" fill="#fff"/>
    <path id="パス_8427" data-name="パス 8427" d="M72.715,0H42.966a2.625,2.625,0,0,0-2.625,2.625v17.5a2.625,2.625,0,0,0,2.625,2.625H56.091V24.5H46.467a.876.876,0,0,0-.877.875v1.75a.877.877,0,0,0,.877.877H69.216a.875.875,0,0,0,.875-.877v-1.75a.875.875,0,0,0-.875-.875H59.59v-1.75H72.715a2.623,2.623,0,0,0,2.625-2.625V2.625A2.623,2.623,0,0,0,72.715,0m.509,20.6H42.459V2.146H73.224Z" transform="translate(-2147.34 4115)" fill="#818181"/>
    <g id="グループ_4412" data-name="グループ 4412" transform="translate(0 -16)">
      <path id="パス_8790" data-name="パス 8790" d="M-10.185-7.812h-4.83v-.6h4.83Zm0,1.176h-4.83v-.63h4.83Zm0,1.2h-4.83v-.644h4.83Zm-5.81-3.556v4.116h6.818V-8.988h-3.36l.252-.7h4.256v-.756h-2.38c.238-.308.518-.672.77-1.064l-.98-.224a9.92,9.92,0,0,1-.784,1.288h-2.352a4.687,4.687,0,0,0-.784-1.26l-.84.21a5.355,5.355,0,0,1,.63,1.05H-17.1v.756h3.836c-.056.224-.112.476-.168.7Zm-1.5-.714a8.969,8.969,0,0,0-1.918-1.722l-.7.56a8.3,8.3,0,0,1,1.876,1.806Zm-.7,8.554A9.14,9.14,0,0,1-16.149.518l.756-.658a10.875,10.875,0,0,0-2.086-1.61Zm7.182-2.282c1.092,0,2.142-.028,2.87-.056a3.7,3.7,0,0,1,.28-.84c-1.778.1-5.39.14-7,.084a3.372,3.372,0,0,1-2.856-1.2V-8.078h-2.8v.812h1.848v1.974A20.529,20.529,0,0,1-20.6-4.172l.42.868c.742-.476,1.428-.938,2.114-1.414a4.029,4.029,0,0,0,3.22,1.26c.7.028,1.75.042,2.842.028v.854h-8.568v.812H-12V-.056c0,.182-.056.238-.294.238s-1.008.028-1.9,0a3.135,3.135,0,0,1,.35.882,8.346,8.346,0,0,0,2.3-.154c.434-.14.546-.406.546-.952V-1.764h3.052v-.812h-3.052Zm7.5-7.434v1.036H-.063C-.035-9.3.021-8.68.119-8.036l-.616-.1C-1.351-4.214-3.073-1.4-6.167.21a6.814,6.814,0,0,1,.938.826C-2.443-.6-.679-3.15.357-6.776a12.081,12.081,0,0,0,5.558,7.8,4.947,4.947,0,0,1,.84-.868C1.267-3.108.945-8.386.945-10.864Zm14.35,9.842V-4.928h6.944v3.906ZM17.787-9.73v3.78H10.843V-9.73ZM9.793-10.752V.91h1.05V0h6.944V.854h1.092V-10.752Z" transform="translate(-2101 4191)" fill="#363636"/>
      <path id="パス_8428" data-name="パス 8428" d="M-6470.077,2369v185" transform="translate(-4431 -2285.077) rotate(-90)" fill="none" stroke="#707070" stroke-linecap="round" stroke-width="1" stroke-dasharray="0 3"/>
      <path id="パス_8791" data-name="パス 8791" d="M2.5,0,5,4H0Z" transform="translate(-2072 4182) rotate(90)" fill="#363636"/>
    </g>
    <g id="グループ_4415" data-name="グループ 4415" transform="translate(0 -68)">
      <path id="パス_8792" data-name="パス 8792" d="M-10.542,0h6.454V-1.106H-6.93c-.518,0-1.148.056-1.68.1C-6.2-3.29-4.592-5.376-4.592-7.42a2.815,2.815,0,0,0-2.982-3.038A3.925,3.925,0,0,0-10.6-8.946l.742.728a2.874,2.874,0,0,1,2.128-1.19,1.8,1.8,0,0,1,1.89,2.03c0,1.764-1.484,3.808-4.7,6.622ZM1.2-3.136V-5.908H4.34v2.772Zm9.254,0H5.39V-5.908h4.1v-.98H5.39V-9.016H9.814v-1.008H1.47c.224-.476.448-.98.644-1.47l-1.05-.252a11.847,11.847,0,0,1-3.15,4.83,6.444,6.444,0,0,1,.9.658A12.935,12.935,0,0,0,.938-9.016h3.4v2.128H.168v3.752h-2.3v1.008H4.34V1.078H5.39V-2.128h5.068Z" transform="translate(-2095 4474)" fill="#363636"/>
      <path id="パス_8428-2" data-name="パス 8428" d="M-6470.077,2369v185" transform="translate(-4431 -2002.077) rotate(-90)" fill="none" stroke="#707070" stroke-linecap="round" stroke-width="1" stroke-dasharray="0 3"/>
      <path id="パス_8793" data-name="パス 8793" d="M2.5,0,5,4H0Z" transform="translate(-2072 4465) rotate(90)" fill="#363636"/>
    </g>
    <g id="グループ_4413" data-name="グループ 4413" transform="translate(0 -55)">
      <path id="パス_8794" data-name="パス 8794" d="M-9.926,0H-4.3V-1.064H-6.356v-9.212h-.98a6.182,6.182,0,0,1-2.128.742v.812h1.82v7.658H-9.926ZM1.2-3.136V-5.908H4.34v2.772Zm9.254,0H5.39V-5.908h4.1v-.98H5.39V-9.016H9.814v-1.008H1.47c.224-.476.448-.98.644-1.47l-1.05-.252a11.847,11.847,0,0,1-3.15,4.83,6.444,6.444,0,0,1,.9.658A12.935,12.935,0,0,0,.938-9.016h3.4v2.128H.168v3.752h-2.3v1.008H4.34V1.078H5.39V-2.128h5.068Z" transform="translate(-2095 4346)" fill="#363636"/>
      <path id="パス_8428-3" data-name="パス 8428" d="M-6470.077,2369v185" transform="translate(-4431 -2130.077) rotate(-90)" fill="none" stroke="#707070" stroke-linecap="round" stroke-width="1" stroke-dasharray="0 3"/>
      <path id="パス_8795" data-name="パス 8795" d="M2.5,0,5,4H0Z" transform="translate(-2072 4337) rotate(90)" fill="#363636"/>
    </g>
    <g id="グループ_4416" data-name="グループ 4416" transform="translate(0 -97)">
      <path id="パス_8796" data-name="パス 8796" d="M-7.462.182a2.987,2.987,0,0,0,3.29-2.926,2.64,2.64,0,0,0-2.17-2.6V-5.4a2.563,2.563,0,0,0,1.82-2.478c0-1.624-1.26-2.576-2.982-2.576a4.109,4.109,0,0,0-2.87,1.232l.686.812A3,3,0,0,1-7.56-9.408,1.575,1.575,0,0,1-5.824-7.784c0,1.106-.728,1.96-2.842,1.96v.98c2.366,0,3.192.826,3.192,2.044A1.892,1.892,0,0,1-7.56-.882a3.393,3.393,0,0,1-2.548-1.176l-.644.84A4.248,4.248,0,0,0-7.462.182ZM1.2-3.136V-5.908H4.34v2.772Zm9.254,0H5.39V-5.908h4.1v-.98H5.39V-9.016H9.814v-1.008H1.47c.224-.476.448-.98.644-1.47l-1.05-.252a11.847,11.847,0,0,1-3.15,4.83,6.444,6.444,0,0,1,.9.658A12.935,12.935,0,0,0,.938-9.016h3.4v2.128H.168v3.752h-2.3v1.008H4.34V1.078H5.39V-2.128h5.068Z" transform="translate(-2095 4619)" fill="#363636"/>
      <path id="パス_8428-4" data-name="パス 8428" d="M0,0V183" transform="translate(-2060 4613) rotate(-90)" fill="none" stroke="#707070" stroke-linecap="round" stroke-width="1" stroke-dasharray="0 3"/>
      <path id="パス_8797" data-name="パス 8797" d="M2.5,0,5,4H0Z" transform="translate(-2072 4610) rotate(90)" fill="#363636"/>
    </g>
    <g id="グループ_4417" data-name="グループ 4417" transform="translate(0 -126)">
      <path id="パス_8798" data-name="パス 8798" d="M-9.548-3.85l2.338-3.5c.294-.5.574-1.008.826-1.512h.056C-6.356-8.33-6.4-7.5-6.4-7v3.15ZM-6.4,0h1.2V-2.828h1.358V-3.85H-5.194v-6.426H-6.608l-4.27,6.608v.84H-6.4ZM1.2-3.136V-5.908H4.34v2.772Zm9.254,0H5.39V-5.908h4.1v-.98H5.39V-9.016H9.814v-1.008H1.47c.224-.476.448-.98.644-1.47l-1.05-.252a11.847,11.847,0,0,1-3.15,4.83,6.444,6.444,0,0,1,.9.658A12.935,12.935,0,0,0,.938-9.016h3.4v2.128H.168v3.752h-2.3v1.008H4.34V1.078H5.39V-2.128h5.068Z" transform="translate(-2095 4763)" fill="#363636"/>
      <path id="パス_8428-5" data-name="パス 8428" d="M0,0V183" transform="translate(-2062 4757) rotate(-90)" fill="none" stroke="#707070" stroke-linecap="round" stroke-width="1" stroke-dasharray="0 3"/>
      <path id="パス_8799" data-name="パス 8799" d="M2.5,0,5,4H0Z" transform="translate(-2072 4754) rotate(90)" fill="#363636"/>
    </g>
    <g id="グループ_4418" data-name="グループ 4418" transform="translate(0 -155)">
      <path id="パス_8800" data-name="パス 8800" d="M-7.5.182a3.333,3.333,0,0,0,3.36-3.528A2.929,2.929,0,0,0-7.238-6.608,2.984,2.984,0,0,0-8.764-6.2l.252-2.968h3.878v-1.106h-5L-9.954-5.46l.686.42a2.792,2.792,0,0,1,1.708-.6A2.077,2.077,0,0,1-5.432-3.3,2.218,2.218,0,0,1-7.616-.882a3.376,3.376,0,0,1-2.52-1.134l-.63.84A4.36,4.36,0,0,0-7.5.182ZM1.2-3.136V-5.908H4.34v2.772Zm9.254,0H5.39V-5.908h4.1v-.98H5.39V-9.016H9.814v-1.008H1.47c.224-.476.448-.98.644-1.47l-1.05-.252a11.847,11.847,0,0,1-3.15,4.83,6.444,6.444,0,0,1,.9.658A12.935,12.935,0,0,0,.938-9.016h3.4v2.128H.168v3.752h-2.3v1.008H4.34V1.078H5.39V-2.128h5.068Z" transform="translate(-2095 4908)" fill="#363636"/>
      <path id="パス_8428-6" data-name="パス 8428" d="M0,0V183" transform="translate(-2062 4902) rotate(-90)" fill="none" stroke="#707070" stroke-linecap="round" stroke-width="1" stroke-dasharray="0 3"/>
      <path id="パス_8801" data-name="パス 8801" d="M2.5,0,5,4H0Z" transform="translate(-2072 4899) rotate(90)" fill="#363636"/>
    </g>
    <path id="パス_8802" data-name="パス 8802" d="M0,0H435V55H0Z" transform="translate(-1894 4285) rotate(90)" fill="#00c8ac"/>
    <path id="パス_8803" data-name="パス 8803" d="M-12.576-2.472H-15.4V-5.436H-12.8v-.8H-15.4V-8.724a19.567,19.567,0,0,0,2.472-.564L-13.572-10a29.924,29.924,0,0,1-5.7,1.008,2.412,2.412,0,0,1,.252.732c.876-.084,1.824-.192,2.748-.324v6.108h-1.476v-4.44H-18.6v4.44h-.972v.828h7Zm-7.56-3.408-.168.024h-1.44c.624-1.152,1.26-2.364,1.7-3.264l-.612-.2-.144.048h-2.676v.792h2.208C-21.816-7.416-22.62-5.94-23.292-4.8l.816.252.3-.528h1.62a10.864,10.864,0,0,1-.8,2.868A6.041,6.041,0,0,1-22.3-4.14l-.7.264A7.333,7.333,0,0,0-21.78-1.44,5.5,5.5,0,0,1-23.556.348a2.774,2.774,0,0,1,.672.624A5.937,5.937,0,0,0-21.168-.8c1.284,1.14,3.036,1.416,5.2,1.416h3.192a2.937,2.937,0,0,1,.36-.876c-.624.024-3.036.024-3.528.024-1.956-.012-3.612-.24-4.812-1.3a12.724,12.724,0,0,0,1.14-4.2Zm18.2,2.46A18.441,18.441,0,0,1-4.464-1.8,6.072,6.072,0,0,1-5.7-3.528H-.672v-.8H-8.316v-1.02H-2.2v-.732h-6.12v-1H-2.2v-.732h-6.12v-1h6.48v-.756H-9.228v5.232h-2.1v.8h2.1V-.216c-.564.084-1.092.168-1.524.228l.228.816C-9.1.588-7.044.24-5.136-.1l-.036-.792c-1.056.18-2.148.36-3.144.528V-3.528h1.7A7.5,7.5,0,0,0-1.032.948,2.783,2.783,0,0,1-.48.168,8.1,8.1,0,0,1-3.9-1.308,19.462,19.462,0,0,0-1.2-2.94Zm5.268-6.588A13.474,13.474,0,0,1,.312-5.28a7.287,7.287,0,0,1,.5.864A12.967,12.967,0,0,0,2.1-5.952V.888h.852V-7.26a17.826,17.826,0,0,0,1.224-2.5ZM5.412-8.676H9.864v2.2H5.412Zm6,5.292V-4.2H8.052V-5.688h2.7V-9.48H4.572v3.792H7.164V-4.2H3.684v.816H6.648A8.889,8.889,0,0,1,3.336-.312,4.395,4.395,0,0,1,3.96.4,10.029,10.029,0,0,0,7.164-2.8V.924h.888V-2.832A11.052,11.052,0,0,0,11.088.42a4.043,4.043,0,0,1,.636-.708,9.35,9.35,0,0,1-3.156-3.1Zm5-6.24H13.14v.72h3.276Zm.42,1.6H12.5V-7.3h4.332Zm-.408,1.656h-3.36v.708h3.36Zm-3.36,2.34h3.36V-4.74h-3.36ZM15.7-2.376V-.384H13.824V-2.376Zm.78-.732H13.044V.9h.78V.36h2.652Zm4.4,2.76V-4.332h2.376v-.84H20.88v-3.3h2.448V-9.3h-6.1v.828h2.784V-.348h-1.44V-6.312h-.84V-.348h-.9V.5H23.52V-.348ZM-15.228,13.06v1c.324-.024.708-.036,1.08-.036h4.7c.408,0,.816.012,1.1.036v-1a7.474,7.474,0,0,1-1.092.06h-4.716A7.5,7.5,0,0,1-15.228,13.06Zm7.764,3.168-.684-.432a1.594,1.594,0,0,1-.66.1h-6.324a11.342,11.342,0,0,1-1.176-.072v1.008c.432-.024.888-.036,1.176-.036H-8.76a6.135,6.135,0,0,1-1.428,2.652,8,8,0,0,1-4.224,2.2l.744.852a8.69,8.69,0,0,0,4.3-2.508A8.264,8.264,0,0,0-7.62,16.576,2.1,2.1,0,0,1-7.464,16.228Zm2.5,1.44.48.936A23.7,23.7,0,0,0,.084,16.648v4.44a11.131,11.131,0,0,1-.072,1.284H1.188a9.055,9.055,0,0,1-.072-1.284V16.024a19.632,19.632,0,0,0,3.24-2.676l-.8-.744a14.3,14.3,0,0,1-3.276,2.82A19.837,19.837,0,0,1-4.968,17.668Zm15.012,3.276A10.573,10.573,0,0,1,9.96,22.36h1.164c-.048-.4-.072-1.044-.072-1.416,0-.348,0-2.16-.012-3.96a31.461,31.461,0,0,1,4.716,1.932l.408-1.02a38.354,38.354,0,0,0-5.124-1.98V13.96c0-.36.048-.876.084-1.248H9.948a7.574,7.574,0,0,1,.1,1.248Z" transform="translate(-1922 4443)" fill="#fff"/>
    <g id="グループ_4420" data-name="グループ 4420" transform="translate(0 -92)">
      <path id="パス_8804" data-name="パス 8804" d="M3.579.136c1.773,0,2.966-1.347,2.966-3.375,0-2.045-1.193-3.392-2.966-3.392S.614-5.284.614-3.239C.614-1.21,1.807.136,3.579.136Zm0-.9c-1.347,0-1.96-1.159-1.96-2.472s.614-2.489,1.96-2.489S5.54-4.551,5.54-3.239,4.926-.767,3.579-.767ZM8.08,0H9.085V-4.142a1.548,1.548,0,0,1,1.653-1.534,3.075,3.075,0,0,1,.614.068V-6.631c-.115-.009-.379-.017-.528-.017a1.781,1.781,0,0,0-1.7,1.091H9.051v-.989H8.08Z" transform="translate(-1927 4614)" fill="#fff"/>
      <path id="パス_8805" data-name="パス 8805" d="M3.579.136c1.773,0,2.966-1.347,2.966-3.375,0-2.045-1.193-3.392-2.966-3.392S.614-5.284.614-3.239C.614-1.21,1.807.136,3.579.136Zm0-.9c-1.347,0-1.96-1.159-1.96-2.472s.614-2.489,1.96-2.489S5.54-4.551,5.54-3.239,4.926-.767,3.579-.767ZM8.08,0H9.085V-4.142a1.548,1.548,0,0,1,1.653-1.534,3.075,3.075,0,0,1,.614.068V-6.631c-.115-.009-.379-.017-.528-.017a1.781,1.781,0,0,0-1.7,1.091H9.051v-.989H8.08Z" transform="translate(-1927 4663)" fill="#fff"/>
      <path id="パス_8806" data-name="パス 8806" d="M9,0H39a9,9,0,0,1,0,18H9A9,9,0,0,1,9,0Z" transform="translate(-1946 4576)" fill="#fff"/>
      <path id="パス_8807" data-name="パス 8807" d="M9,0H39a9,9,0,0,1,0,18H9A9,9,0,0,1,9,0Z" transform="translate(-1946 4625)" fill="#fff"/>
      <path id="パス_8808" data-name="パス 8808" d="M9,0H39a9,9,0,0,1,0,18H9A9,9,0,0,1,9,0Z" transform="translate(-1946 4674)" fill="#fff"/>
      <path id="パス_8809" data-name="パス 8809" d="M.528,0H6.06V-.948H3.624c-.444,0-.984.048-1.44.084C4.248-2.82,5.628-4.608,5.628-6.36a2.413,2.413,0,0,0-2.556-2.6A3.364,3.364,0,0,0,.48-7.668l.636.624A2.463,2.463,0,0,1,2.94-8.064a1.546,1.546,0,0,1,1.62,1.74C4.56-4.812,3.288-3.06.528-.648Zm9.6-2.688V-5.064h2.688v2.376Zm7.932,0H13.716V-5.064h3.516V-5.9H13.716V-7.728h3.792v-.864H10.356c.192-.408.384-.84.552-1.26l-.9-.216a10.155,10.155,0,0,1-2.7,4.14,5.523,5.523,0,0,1,.768.564A11.087,11.087,0,0,0,9.9-7.728h2.916V-5.9H9.24v3.216H7.272v.864h5.544V.924h.9V-1.824H18.06Zm5.2-6.144v1H20.664v-1ZM20.664-6.12V-7.176h2.592V-6.12Zm3.444.684V-9.528H19.776V.924h.888v-6.36Zm1.932,1.6v1.1H23.22v-1.1ZM23.22-.9V-2.064h2.82V-.9Zm3.648.708V-4.536H22.416V.408h.8v-.6Zm-.84-5.916V-7.176h2.688v1.068Zm2.688-2.724v1H26.028v-1Zm.9-.7h-4.44v4.1h3.54V-.276c0,.216-.072.288-.276.288S27.492.036,26.76,0a3.287,3.287,0,0,1,.312.912A6.83,6.83,0,0,0,29.088.756c.4-.156.528-.456.528-1.02Z" transform="translate(-1937 4590)" fill="#00c8ac"/>
      <path id="パス_8810" data-name="パス 8810" d="M3.168.156a2.561,2.561,0,0,0,2.82-2.508,2.263,2.263,0,0,0-1.86-2.232v-.048a2.2,2.2,0,0,0,1.56-2.124A2.26,2.26,0,0,0,3.132-8.964,3.522,3.522,0,0,0,.672-7.908l.588.7a2.568,2.568,0,0,1,1.824-.852A1.35,1.35,0,0,1,4.572-6.672c0,.948-.624,1.68-2.436,1.68v.84c2.028,0,2.736.708,2.736,1.752A1.622,1.622,0,0,1,3.084-.756,2.908,2.908,0,0,1,.9-1.764l-.552.72A3.641,3.641,0,0,0,3.168.156Zm6.96-2.844V-5.064h2.688v2.376Zm7.932,0H13.716V-5.064h3.516V-5.9H13.716V-7.728h3.792v-.864H10.356c.192-.408.384-.84.552-1.26l-.9-.216a10.155,10.155,0,0,1-2.7,4.14,5.523,5.523,0,0,1,.768.564A11.087,11.087,0,0,0,9.9-7.728h2.916V-5.9H9.24v3.216H7.272v.864h5.544V.924h.9V-1.824H18.06Zm5.2-6.144v1H20.664v-1ZM20.664-6.12V-7.176h2.592V-6.12Zm3.444.684V-9.528H19.776V.924h.888v-6.36Zm1.932,1.6v1.1H23.22v-1.1ZM23.22-.9V-2.064h2.82V-.9Zm3.648.708V-4.536H22.416V.408h.8v-.6Zm-.84-5.916V-7.176h2.688v1.068Zm2.688-2.724v1H26.028v-1Zm.9-.7h-4.44v4.1h3.54V-.276c0,.216-.072.288-.276.288S27.492.036,26.76,0a3.287,3.287,0,0,1,.312.912A6.83,6.83,0,0,0,29.088.756c.4-.156.528-.456.528-1.02Z" transform="translate(-1937 4639)" fill="#00c8ac"/>
      <path id="パス_8811" data-name="パス 8811" d="M1.38-3.3l2-3c.252-.432.492-.864.708-1.3H4.14c-.024.456-.06,1.164-.06,1.6v2.7ZM4.08,0H5.112V-2.424H6.276V-3.3H5.112V-8.808H3.9L.24-3.144v.72H4.08Zm6.048-2.688V-5.064h2.688v2.376Zm7.932,0H13.716V-5.064h3.516V-5.9H13.716V-7.728h3.792v-.864H10.356c.192-.408.384-.84.552-1.26l-.9-.216a10.155,10.155,0,0,1-2.7,4.14,5.523,5.523,0,0,1,.768.564A11.087,11.087,0,0,0,9.9-7.728h2.916V-5.9H9.24v3.216H7.272v.864h5.544V.924h.9V-1.824H18.06Zm5.2-6.144v1H20.664v-1ZM20.664-6.12V-7.176h2.592V-6.12Zm3.444.684V-9.528H19.776V.924h.888v-6.36Zm1.932,1.6v1.1H23.22v-1.1ZM23.22-.9V-2.064h2.82V-.9Zm3.648.708V-4.536H22.416V.408h.8v-.6Zm-.84-5.916V-7.176h2.688v1.068Zm2.688-2.724v1H26.028v-1Zm.9-.7h-4.44v4.1h3.54V-.276c0,.216-.072.288-.276.288S27.492.036,26.76,0a3.287,3.287,0,0,1,.312.912A6.83,6.83,0,0,0,29.088.756c.4-.156.528-.456.528-1.02Z" transform="translate(-1937 4688)" fill="#00c8ac"/>
    </g>
    <path id="パス_8697" data-name="パス 8697" d="M0,71,30,35.5,0,0Z" transform="translate(-1886 4717) rotate(90)" fill="#00c8ac"/>
    <g id="グループ_4419" data-name="グループ 4419" transform="translate(97)">
      <path id="パス_8812" data-name="パス 8812" d="M0,0H88V55H0Z" transform="translate(-1991 4169) rotate(90)" fill="#818181"/>
      <path id="パス_8429-2" data-name="パス 8429" d="M0,71,30,35.5,0,0Z" transform="translate(-1983 4255) rotate(90)" fill="#818181"/>
      <path id="パス_8813" data-name="パス 8813" d="M-14.28-8.736l-1.1-.384a6.884,6.884,0,0,1-.24.888,13.425,13.425,0,0,1-1.632,3.276c-.948-.732-2.34-1.716-3.372-2.376l-.624.756a37.543,37.543,0,0,1,3.384,2.424A13.323,13.323,0,0,1-22.632-.384l.828.756A15.288,15.288,0,0,0-17.1-3.5a26.763,26.763,0,0,1,2.832,2.76l.756-.828A30.031,30.031,0,0,0-16.476-4.32a16.716,16.716,0,0,0,1.8-3.54A6.475,6.475,0,0,1-14.28-8.736Zm3.5,3.54V-4.02c.372-.036,1.008-.06,1.668-.06H-2.52c.54,0,1.044.048,1.284.06V-5.2c-.264.024-.7.06-1.3.06H-9.108C-9.78-5.136-10.416-5.172-10.776-5.2ZM6.1-9.444H4.968a7.275,7.275,0,0,1,.084,1c0,.432-.024.84-.048,1.224H2.892A12.56,12.56,0,0,1,1.524-7.3v1.02A12.8,12.8,0,0,1,2.9-6.324H4.92A7.716,7.716,0,0,1,2.544-1.272a5.915,5.915,0,0,1-1.236.888l.876.708c2-1.38,3.252-3.2,3.684-6.648h3.36c0,1.284-.156,4.236-.612,5.148a.65.65,0,0,1-.7.4A14.6,14.6,0,0,1,6.132-.912l.12,1c.624.036,1.32.084,1.932.084A1.245,1.245,0,0,0,9.468-.564c.54-1.152.684-4.644.732-5.8a3.753,3.753,0,0,1,.06-.588l-.672-.336a4.325,4.325,0,0,1-.768.06H5.964c.024-.4.048-.8.06-1.236C6.036-8.748,6.06-9.168,6.1-9.444ZM13.224-5.2V-4.02c.372-.036,1.008-.06,1.668-.06H21.48c.54,0,1.044.048,1.284.06V-5.2c-.264.024-.7.06-1.3.06H14.892C14.22-5.136,13.584-5.172,13.224-5.2ZM-3.444,14.056h-1.1v-.828h1.1Zm1.836,2.172H-2.784V14.752h1.176Zm-4.68-1.476h1.08v1.476h-1.08Zm2.844,0v1.476H-4.56V14.752Zm-1.836-.7H-7.044v2.856H-.828V14.056h-1.9v-.828H-.516v-.744h-6.9v.744H-5.28Zm4.152,4.26v-.684h-5.6v.684ZM-7.416,18.3c-.2-.324-1.092-1.656-1.428-2.1v-.828H-7.5v-.828H-8.844V11.956H-9.66v2.592h-1.68v.828h1.584a13.025,13.025,0,0,1-1.824,4.5,4.978,4.978,0,0,1,.456.768A12.53,12.53,0,0,0-9.66,17.3v5.6h.816V17.26c.348.588.768,1.32.936,1.7Zm1.32,1.884A6.965,6.965,0,0,1-7.92,21.964a2.954,2.954,0,0,1,.552.54A7.924,7.924,0,0,0-5.412,20.56Zm5.58-.276v-.72h-6.96v.72H-4.44v2.112c0,.12-.036.168-.18.168H-5.8a2.674,2.674,0,0,1,.264.732,4.925,4.925,0,0,0,1.548-.132c.3-.12.372-.348.372-.756V19.912Zm-2.232.72a14.759,14.759,0,0,1,1.656,1.884l.66-.48a12.819,12.819,0,0,0-1.692-1.812Zm10.02-5.76H5.328V14H7.272Zm0,1.524H5.328v-.852H7.272Zm0,1.584H5.328v-.912H7.272Zm-2.8.72H11.16v-.72H8.112v-.912h2.4V16.4h-2.4v-.852h2.376v-.672H8.112V14h2.724v-.72H8.184c.216-.348.456-.744.672-1.128l-.948-.18a12.684,12.684,0,0,1-.624,1.308H5.616A9.369,9.369,0,0,0,6.24,12.16l-.852-.252a8.483,8.483,0,0,1-2.424,3.06,5.891,5.891,0,0,1,.7.612,8.555,8.555,0,0,0,.816-.8Zm-2.988.408c.72-.78,1.524-1.7,2.208-2.544l-.48-.6a28.1,28.1,0,0,1-2.352,2.46Zm2.3-6.18a9.674,9.674,0,0,0-1.932-.9l-.444.612a10.425,10.425,0,0,1,1.908.984ZM2.9,14.8A10.674,10.674,0,0,0,.96,14l-.444.624a9.852,9.852,0,0,1,1.944.888Zm8.472,4.968H6.408v-.984h-.9v.984H.672v.8H5.508v2.352h.9V20.572h4.968Zm-32.04,14.224a13.474,13.474,0,0,1-3.024,4.728,7.287,7.287,0,0,1,.5.864A12.968,12.968,0,0,0-21.9,38.048v6.84h.852V36.74a17.826,17.826,0,0,0,1.224-2.5Zm2.076,1.332h4.452v2.2h-4.452Zm6,5.292V39.8h-3.36V38.312h2.7V34.52h-6.18v3.792h2.592V39.8h-3.48v.816h2.964a8.889,8.889,0,0,1-3.312,3.072,4.395,4.395,0,0,1,.624.708,10.029,10.029,0,0,0,3.2-3.192v3.72h.888V41.168a11.052,11.052,0,0,0,3.036,3.252,4.043,4.043,0,0,1,.636-.708,9.35,9.35,0,0,1-3.156-3.1Zm5-6.24H-10.86v.72h3.276Zm.42,1.6H-11.5V36.7h4.332Zm-.408,1.656h-3.36v.708h3.36Zm-3.36,2.34h3.36V39.26h-3.36ZM-8.3,41.624v1.992h-1.872V41.624Zm.78-.732h-3.432V44.9h.78v-.54h2.652Zm4.4,2.76V39.668H-.744v-.84H-3.12v-3.3H-.672V34.7h-6.1v.828h2.784v8.124h-1.44V37.688h-.84v5.964h-.9V44.5H-.48v-.852Zm5.6-3.636H4.656v1.2H2.484Zm2.172-3.672V37.4H2.484V36.344ZM2.484,38.12H4.656V39.3H2.484Zm3.876,3.1H5.484V36.344H6.36v-.8H5.484V34.1H4.656v1.44H2.484V34.1H1.668v1.44H.66v.8H1.668v4.872H.5v.8H6.36Zm-4.2,1.056A6.26,6.26,0,0,1,.516,44.408a5.516,5.516,0,0,1,.72.516A7.932,7.932,0,0,0,3.012,42.5Zm1.7.372A9.42,9.42,0,0,1,5.1,44.468l.72-.42a8.89,8.89,0,0,0-1.26-1.776Zm3.9-2.568c.012-.408.024-.816.024-1.188v-.8h2.448v1.992Zm2.472-4.7V37.28H7.788V35.372Zm.864-.816H6.948v4.332c0,1.716-.1,4-1.092,5.58a2.287,2.287,0,0,1,.708.516,9.4,9.4,0,0,0,1.14-4.1h2.532v2.88c0,.192-.072.252-.252.252s-.768.012-1.4,0a3.628,3.628,0,0,1,.276.864,5.319,5.319,0,0,0,1.788-.168c.324-.144.456-.408.456-.936Zm5.5.612v1H14v-1ZM14,37.88V36.824H16.6V37.88Zm3.444.684V34.472H13.116V44.924H14v-6.36Zm1.932,1.6v1.1H16.56v-1.1ZM16.56,43.1V41.936h2.82V43.1Zm3.648.708V39.464H15.756v4.944h.8v-.6Zm-.84-5.916V36.824h2.688v1.068Zm2.688-2.724v1H19.368v-1Zm.9-.7h-4.44v4.1h3.54v5.148c0,.216-.072.288-.276.288s-.948.024-1.68-.012a3.287,3.287,0,0,1,.312.912,6.83,6.83,0,0,0,2.016-.156c.4-.156.528-.456.528-1.02Z" transform="translate(-2018 4199)" fill="#f5f5f5"/>
    </g>
  </g>
</svg>
