<svg xmlns="http://www.w3.org/2000/svg" width="900" height="162.5" viewBox="0 0 900 162.5">
  <g id="グループ_4491" data-name="グループ 4491" transform="translate(-233 -2454)">
    <path id="パス_8751" data-name="パス 8751" d="M10,0H890a10,10,0,0,1,10,10V48a10,10,0,0,1-10,10H10A10,10,0,0,1,0,48V10A10,10,0,0,1,10,0Z" transform="translate(233 2490)" fill="#f5f5f5"/>
    <path id="パス_8752" data-name="パス 8752" d="M10,0H890a10,10,0,0,1,10,10V48a10,10,0,0,1-10,10H10A10,10,0,0,1,0,48V10A10,10,0,0,1,10,0Z" transform="translate(233 2558)" fill="#f5f5f5"/>
    <path id="パス_8753" data-name="パス 8753" d="M10,0H136V58H10A10,10,0,0,1,0,48V10A10,10,0,0,1,10,0Z" transform="translate(233 2490)" fill="#818181"/>
    <path id="パス_8754" data-name="パス 8754" d="M10,0H136V58H10A10,10,0,0,1,0,48V10A10,10,0,0,1,10,0Z" transform="translate(233 2558)" fill="#00c8ac"/>
    <path id="パス_8755" data-name="パス 8755" d="M12.36-10.965l-1.74-.615a10.56,10.56,0,0,1-.33,1.23A16.593,16.593,0,0,1,8.415-6.48C7.215-7.4,5.55-8.55,4.29-9.345l-.99,1.2A42.594,42.594,0,0,1,7.44-5.19,16.3,16.3,0,0,1,1.605-.6L2.925.585A18.727,18.727,0,0,0,8.67-4.17,33.464,33.464,0,0,1,12.12-.78l1.2-1.32A36.738,36.738,0,0,0,9.66-5.49a21.508,21.508,0,0,0,2.16-4.26A11.064,11.064,0,0,1,12.36-10.965ZM16.455-6.69v1.86c.51-.045,1.41-.075,2.235-.075h8.16c.66,0,1.35.06,1.68.075V-6.69c-.375.03-.96.09-1.68.09H18.69C17.88-6.6,16.95-6.66,16.455-6.69ZM37.77-11.9H36.015a9.54,9.54,0,0,1,.1,1.29q0,.765-.045,1.44H33.66c-.585,0-1.26-.045-1.83-.09V-7.7c.57-.045,1.275-.06,1.83-.06h2.28A9.324,9.324,0,0,1,33.195-1.86,8,8,0,0,1,31.47-.6L32.85.525c2.58-1.815,4.065-4.11,4.62-8.28h3.84c0,1.62-.195,5.01-.705,6.06a.793.793,0,0,1-.855.51,17.173,17.173,0,0,1-2.175-.18L37.755.21C38.52.27,39.39.315,40.2.315a1.673,1.673,0,0,0,1.74-1.02c.66-1.47.855-5.76.9-7.275.015-.18.06-.51.1-.765l-1.05-.51a6.82,6.82,0,0,1-1.035.09H37.62c.03-.465.06-.96.075-1.47C37.71-11,37.74-11.55,37.77-11.9ZM46.455-6.69v1.86c.51-.045,1.41-.075,2.235-.075h8.16c.66,0,1.35.06,1.68.075V-6.69c-.375.03-.96.09-1.68.09H48.69C47.88-6.6,46.95-6.66,46.455-6.69Zm17.6-5.85A16.029,16.029,0,0,1,60.39-6.8a8.256,8.256,0,0,1,.78,1.41,16.018,16.018,0,0,0,1.4-1.665V1.155h1.32V-9.075a27.028,27.028,0,0,0,1.47-3.045Zm3.015,1.875H72.12V-8.25H67.065Zm7.23,6.555V-5.37h-4.05V-7.005h3.27V-11.9H65.76v4.89h3.09V-5.37H64.71v1.26h3.4A11,11,0,0,1,64.23-.54,6.151,6.151,0,0,1,65.19.57a12.205,12.205,0,0,0,3.66-3.63V1.2h1.4V-3.135A12.876,12.876,0,0,0,73.725.6,6.235,6.235,0,0,1,74.7-.51,11.149,11.149,0,0,1,71-4.11Zm6.24-7.98h-4.14V-11h4.14ZM79.41-2.745v2.16H77.475v-2.16ZM80.625-3.87h-4.35V1.17h1.2V.525h3.15Zm-4.32-.99h4.23V-5.94h-4.23Zm4.23-3.12h-4.23V-6.9h4.23ZM75.6-8.955h5.46v-1.11H75.6ZM86.295-.645v-4.59h2.79v-1.32h-2.79v-3.87h2.88v-1.32H81.54v1.32h3.39v9.78H83.415V-7.92h-1.29V-.645h-1.05V.675H89.43V-.645Z" transform="translate(256 2525)" fill="#fff"/>
    <path id="パス_8756" data-name="パス 8756" d="M9.54-3.345H7.98V-8.7H6.66v5.355H5.52V-2.07h8.745V-3.345H10.92V-6.66h3.045V-7.875H10.92V-10.74a25.132,25.132,0,0,0,3.015-.69l-.96-1.11a39.859,39.859,0,0,1-7.11,1.23,4.006,4.006,0,0,1,.375,1.155c1.05-.09,2.19-.21,3.3-.375ZM4.71-7.47l-.255.03H3.03c.735-1.4,1.47-2.865,2.01-4.02l-.96-.3-.225.075H.63v1.215H3.15C2.49-9.15,1.575-7.4.765-6l1.275.375.33-.585h1.7a12.91,12.91,0,0,1-.84,3.18A8.247,8.247,0,0,1,2.2-5.22L1.11-4.83a9.749,9.749,0,0,0,1.5,3.015A6.528,6.528,0,0,1,.51.285a5.872,5.872,0,0,1,1.05.975A7.045,7.045,0,0,0,3.57-.825C5.16.5,7.275.825,9.87.825h4.1a4.989,4.989,0,0,1,.54-1.365c-.885.03-3.87.03-4.59.03C7.62-.51,5.655-.78,4.2-1.98A16.915,16.915,0,0,0,5.535-7.245ZM27.45-4.275a20.617,20.617,0,0,1-2.865,1.89,7.908,7.908,0,0,1-1.4-1.89Zm.03,0h1.7V-5.52h-9.36V-6.57H27.24V-7.68H19.815V-8.715H27.24v-1.11H19.815V-10.86h7.86v-1.17h-9.27v6.51h-2.58v1.245H18.39v3.81c-.69.105-1.335.2-1.875.27l.33,1.275C18.63.8,21.15.39,23.505-.015l-.075-1.23L19.815-.69V-4.275h1.95a9.11,9.11,0,0,0,6.8,5.49A4.826,4.826,0,0,1,29.445-.03,10.1,10.1,0,0,1,25.5-1.62a22.885,22.885,0,0,0,3.105-1.89Zm6.57-8.265A16.029,16.029,0,0,1,30.39-6.8a8.256,8.256,0,0,1,.78,1.41A16.017,16.017,0,0,0,32.565-7.05V1.155h1.32V-9.075a27.027,27.027,0,0,0,1.47-3.045Zm3.015,1.875H42.12V-8.25H37.065ZM44.3-4.11V-5.37h-4.05V-7.005h3.27V-11.9H35.76v4.89h3.09V-5.37H34.71v1.26h3.4A11,11,0,0,1,34.23-.54,6.151,6.151,0,0,1,35.19.57a12.205,12.205,0,0,0,3.66-3.63V1.2h1.4V-3.135A12.876,12.876,0,0,0,43.725.6,6.235,6.235,0,0,1,44.7-.51,11.149,11.149,0,0,1,41-4.11Zm6.24-7.98H46.4V-11h4.14ZM49.41-2.745v2.16H47.475v-2.16ZM50.625-3.87h-4.35V1.17h1.2V.525h3.15Zm-4.32-.99h4.23V-5.94h-4.23Zm4.23-3.12h-4.23V-6.9h4.23ZM45.6-8.955h5.46v-1.11H45.6ZM56.295-.645v-4.59h2.79v-1.32h-2.79v-3.87h2.88v-1.32H51.54v1.32h3.39v9.78H53.415V-7.92h-1.29V-.645h-1.05V.675H59.43V-.645Zm10.5-10.665v1.545c.42-.03.96-.045,1.44-.045h5.82c.51,0,1.11.015,1.485.045V-11.31a14.33,14.33,0,0,1-1.47.075H68.235A13.722,13.722,0,0,1,66.795-11.31Zm9.93,4.125-1.065-.66a2.976,2.976,0,0,1-.96.135H67.02c-.435,0-1-.045-1.59-.105v1.56c.57-.045,1.23-.06,1.59-.06h7.635a7.07,7.07,0,0,1-1.665,3,10.092,10.092,0,0,1-5.25,2.7L68.91.735a11.084,11.084,0,0,0,5.37-3.2,10.613,10.613,0,0,0,2.205-4.2A2.635,2.635,0,0,1,76.725-7.185Zm2.79,1.59L80.25-4.11a30.69,30.69,0,0,0,5.535-2.325v5.22a17.382,17.382,0,0,1-.09,1.77h1.86a11.28,11.28,0,0,1-.105-1.77V-7.44a25.3,25.3,0,0,0,4.035-3.285l-1.26-1.2a18.516,18.516,0,0,1-4.17,3.57A24.77,24.77,0,0,1,79.515-5.6ZM98.28-1.38A15.7,15.7,0,0,1,98.16.54H100a17.576,17.576,0,0,1-.12-1.92V-6.015a39.276,39.276,0,0,1,5.67,2.34l.675-1.635a50.845,50.845,0,0,0-6.345-2.4v-2.34c0-.525.06-1.185.1-1.68H98.145a10.859,10.859,0,0,1,.135,1.68Z" transform="translate(247 2583)" fill="#fff"/>
    <path id="パス_8757" data-name="パス 8757" d="M10.215-5.7a9.994,9.994,0,0,0,2.97,7.17l1.14-.54a9.335,9.335,0,0,1-2.76-6.63,9.335,9.335,0,0,1,2.76-6.63l-1.14-.54A9.994,9.994,0,0,0,10.215-5.7ZM25.98-10.32H19.02v-.855h6.96Zm0,1.755H19.02v-.87h6.96Zm1.4-3.555h-9.69v4.485h9.69Zm-.45,8.19A7.069,7.069,0,0,1,25.56-2.04,6.611,6.611,0,0,1,24.3-3.93ZM18.435-1.1V-2.07H20.79v.75Zm0-2.865H20.79v.885H18.435ZM20.79-5.79v.84H18.435v-.84Zm6.975.735-.24.045H22.59v1.08h1.35l-.81.225A9.19,9.19,0,0,0,24.645-1.26,8.632,8.632,0,0,1,22.125,0V-5.79h6.93V-6.93H15.915v1.14h1.23V-.975c-.5.045-.96.09-1.365.12L15.885.36C17.25.225,19.02.03,20.79-.165V1.17h1.335V.105a4.369,4.369,0,0,1,.69,1.02,10.36,10.36,0,0,0,2.775-1.5A8.311,8.311,0,0,0,28.575,1.17,4.133,4.133,0,0,1,29.4.09,8.335,8.335,0,0,1,26.535-1.2,8.521,8.521,0,0,0,28.62-4.725Zm14.685.78a20.617,20.617,0,0,1-2.865,1.89,7.908,7.908,0,0,1-1.395-1.89Zm.03,0h1.7V-5.52h-9.36V-6.57H42.24V-7.68H34.815V-8.715H42.24v-1.11H34.815V-10.86h7.86v-1.17H33.4v6.51h-2.58v1.245H33.39v3.81c-.69.105-1.335.2-1.875.27l.33,1.275C33.63.8,36.15.39,38.505-.015l-.075-1.23L34.815-.69V-4.275h1.95a9.11,9.11,0,0,0,6.8,5.49A4.826,4.826,0,0,1,44.445-.03,10.1,10.1,0,0,1,40.5-1.62a22.886,22.886,0,0,0,3.105-1.89ZM49.02.2A3.642,3.642,0,0,0,52.74-3.63a3.175,3.175,0,0,0-3.36-3.51,3.157,3.157,0,0,0-1.515.39l.255-2.835h4.1v-1.47h-5.6l-.33,5.25.84.555a2.9,2.9,0,0,1,1.77-.63A2.048,2.048,0,0,1,51-3.57a2.158,2.158,0,0,1-2.19,2.355A3.533,3.533,0,0,1,46.23-2.4L45.4-1.275A4.886,4.886,0,0,0,49.02.2ZM58.1-3.48V-6.135H61.11V-3.48Zm9.72,0H62.55V-6.135h4.185V-7.44H62.55V-9.51h4.53v-1.35H58.4c.195-.45.4-.945.585-1.41l-1.41-.375A12.136,12.136,0,0,1,54.3-7.56a11.093,11.093,0,0,1,1.215.9,13.647,13.647,0,0,0,2.16-2.85H61.11v2.07H56.7v3.96H54.285v1.35H61.11V1.185h1.44V-2.13h5.265Zm6.3-7.455V-9.9H71.28v-1.035ZM71.28-7.8V-8.91h2.835V-7.8Zm4.155,1.035v-5.22H69.9V1.185h1.38v-7.95Zm2.52-1V-8.91H80.88v1.14Zm2.925-3.165V-9.9H77.955v-1.035Zm-6.39,9.69V-2.49h3.045v1.245ZM77.535-4.68v1.17H74.49V-4.68Zm4.755-7.305H76.62v5.25h4.26V-.57c0,.255-.075.33-.345.345-.24,0-.96.015-1.695-.015V-5.73H73.215V.555H74.49V-.2h4.05a6.249,6.249,0,0,1,.435,1.365,7.593,7.593,0,0,0,2.61-.24c.54-.24.7-.69.7-1.485ZM88.335-5.7a9.994,9.994,0,0,0-2.97-7.17l-1.14.54a9.335,9.335,0,0,1,2.76,6.63A9.335,9.335,0,0,1,84.225.93l1.14.54A9.994,9.994,0,0,0,88.335-5.7Z" transform="translate(252 2604)" fill="#fff"/>
    <path id="パス_8427" data-name="パス 8427" d="M72.715,0H42.966a2.625,2.625,0,0,0-2.625,2.625v17.5a2.625,2.625,0,0,0,2.625,2.625H56.091V24.5H46.467a.876.876,0,0,0-.877.875v1.75a.877.877,0,0,0,.877.877H69.216a.875.875,0,0,0,.875-.877v-1.75a.875.875,0,0,0-.875-.875H59.59v-1.75H72.715a2.623,2.623,0,0,0,2.625-2.625V2.625A2.623,2.623,0,0,0,72.715,0m.509,20.6H42.459V2.146H73.224Z" transform="translate(269.659 2454)" fill="#818181"/>
    <g id="グループ_4236" data-name="グループ 4236" transform="translate(0 145)">
      <path id="パス_8758" data-name="パス 8758" d="M-10.185-7.812h-4.83v-.6h4.83Zm0,1.176h-4.83v-.63h4.83Zm0,1.2h-4.83v-.644h4.83Zm-5.81-3.556v4.116h6.818V-8.988h-3.36l.252-.7h4.256v-.756h-2.38c.238-.308.518-.672.77-1.064l-.98-.224a9.92,9.92,0,0,1-.784,1.288h-2.352a4.687,4.687,0,0,0-.784-1.26l-.84.21a5.355,5.355,0,0,1,.63,1.05H-17.1v.756h3.836c-.056.224-.112.476-.168.7Zm-1.5-.714a8.969,8.969,0,0,0-1.918-1.722l-.7.56a8.3,8.3,0,0,1,1.876,1.806Zm-.7,8.554A9.14,9.14,0,0,1-16.149.518l.756-.658a10.875,10.875,0,0,0-2.086-1.61Zm7.182-2.282c1.092,0,2.142-.028,2.87-.056a3.7,3.7,0,0,1,.28-.84c-1.778.1-5.39.14-7,.084a3.372,3.372,0,0,1-2.856-1.2V-8.078h-2.8v.812h1.848v1.974A20.529,20.529,0,0,1-20.6-4.172l.42.868c.742-.476,1.428-.938,2.114-1.414a4.029,4.029,0,0,0,3.22,1.26c.7.028,1.75.042,2.842.028v.854h-8.568v.812H-12V-.056c0,.182-.056.238-.294.238s-1.008.028-1.9,0a3.135,3.135,0,0,1,.35.882,8.346,8.346,0,0,0,2.3-.154c.434-.14.546-.406.546-.952V-1.764h3.052v-.812h-3.052Zm7.5-7.434v1.036H-.063C-.035-9.3.021-8.68.119-8.036l-.616-.1C-1.351-4.214-3.073-1.4-6.167.21a6.814,6.814,0,0,1,.938.826C-2.443-.6-.679-3.15.357-6.776a12.081,12.081,0,0,0,5.558,7.8,4.947,4.947,0,0,1,.84-.868C1.267-3.108.945-8.386.945-10.864Zm14.35,9.842V-4.928h6.944v3.906ZM17.787-9.73v3.78H10.843V-9.73ZM9.793-10.752V.91h1.05V0h6.944V.854h1.092V-10.752Z" transform="translate(379 2325)" fill="#363636"/>
      <path id="パス_8428" data-name="パス 8428" d="M-6470.077,2369v126" transform="translate(6849.077 -24)" fill="none" stroke="#707070" stroke-linecap="round" stroke-width="1" stroke-dasharray="0 3"/>
      <path id="パス_8759" data-name="パス 8759" d="M2.5,0,5,4H0Z" transform="translate(382 2337) rotate(180)" fill="#363636"/>
    </g>
    <g id="グループ_4239" data-name="グループ 4239" transform="translate(299 145)">
      <path id="パス_8760" data-name="パス 8760" d="M-10.542,0h6.454V-1.106H-6.93c-.518,0-1.148.056-1.68.1C-6.2-3.29-4.592-5.376-4.592-7.42a2.815,2.815,0,0,0-2.982-3.038A3.925,3.925,0,0,0-10.6-8.946l.742.728a2.874,2.874,0,0,1,2.128-1.19,1.8,1.8,0,0,1,1.89,2.03c0,1.764-1.484,3.808-4.7,6.622ZM1.2-3.136V-5.908H4.34v2.772Zm9.254,0H5.39V-5.908h4.1v-.98H5.39V-9.016H9.814v-1.008H1.47c.224-.476.448-.98.644-1.47l-1.05-.252a11.847,11.847,0,0,1-3.15,4.83,6.444,6.444,0,0,1,.9.658A12.935,12.935,0,0,0,.938-9.016h3.4v2.128H.168v3.752h-2.3v1.008H4.34V1.078H5.39V-2.128h5.068Z" transform="translate(379 2325)" fill="#363636"/>
      <path id="パス_8428-2" data-name="パス 8428" d="M-6470.077,2369v126" transform="translate(6849.077 -24)" fill="none" stroke="#707070" stroke-linecap="round" stroke-width="1" stroke-dasharray="0 3"/>
      <path id="パス_8761" data-name="パス 8761" d="M2.5,0,5,4H0Z" transform="translate(382 2337) rotate(180)" fill="#363636"/>
    </g>
    <g id="グループ_4237" data-name="グループ 4237" transform="translate(155 145)">
      <path id="パス_8762" data-name="パス 8762" d="M-9.926,0H-4.3V-1.064H-6.356v-9.212h-.98a6.182,6.182,0,0,1-2.128.742v.812h1.82v7.658H-9.926ZM1.2-3.136V-5.908H4.34v2.772Zm9.254,0H5.39V-5.908h4.1v-.98H5.39V-9.016H9.814v-1.008H1.47c.224-.476.448-.98.644-1.47l-1.05-.252a11.847,11.847,0,0,1-3.15,4.83,6.444,6.444,0,0,1,.9.658A12.935,12.935,0,0,0,.938-9.016h3.4v2.128H.168v3.752h-2.3v1.008H4.34V1.078H5.39V-2.128h5.068Z" transform="translate(379 2325)" fill="#363636"/>
      <path id="パス_8428-3" data-name="パス 8428" d="M-6470.077,2369v126" transform="translate(6849.077 -24)" fill="none" stroke="#707070" stroke-linecap="round" stroke-width="1" stroke-dasharray="0 3"/>
      <path id="パス_8763" data-name="パス 8763" d="M2.5,0,5,4H0Z" transform="translate(382 2337) rotate(180)" fill="#363636"/>
    </g>
    <g id="グループ_4238" data-name="グループ 4238" transform="translate(444 145)">
      <path id="パス_8764" data-name="パス 8764" d="M-7.462.182a2.987,2.987,0,0,0,3.29-2.926,2.64,2.64,0,0,0-2.17-2.6V-5.4a2.563,2.563,0,0,0,1.82-2.478c0-1.624-1.26-2.576-2.982-2.576a4.109,4.109,0,0,0-2.87,1.232l.686.812A3,3,0,0,1-7.56-9.408,1.575,1.575,0,0,1-5.824-7.784c0,1.106-.728,1.96-2.842,1.96v.98c2.366,0,3.192.826,3.192,2.044A1.892,1.892,0,0,1-7.56-.882a3.393,3.393,0,0,1-2.548-1.176l-.644.84A4.248,4.248,0,0,0-7.462.182ZM1.2-3.136V-5.908H4.34v2.772Zm9.254,0H5.39V-5.908h4.1v-.98H5.39V-9.016H9.814v-1.008H1.47c.224-.476.448-.98.644-1.47l-1.05-.252a11.847,11.847,0,0,1-3.15,4.83,6.444,6.444,0,0,1,.9.658A12.935,12.935,0,0,0,.938-9.016h3.4v2.128H.168v3.752h-2.3v1.008H4.34V1.078H5.39V-2.128h5.068Z" transform="translate(379 2325)" fill="#363636"/>
      <path id="パス_8428-4" data-name="パス 8428" d="M-6470.077,2369v126" transform="translate(6849.077 -24)" fill="none" stroke="#707070" stroke-linecap="round" stroke-width="1" stroke-dasharray="0 3"/>
      <path id="パス_8765" data-name="パス 8765" d="M2.5,0,5,4H0Z" transform="translate(382 2337) rotate(180)" fill="#363636"/>
    </g>
    <g id="グループ_4240" data-name="グループ 4240" transform="translate(588 145)">
      <path id="パス_8766" data-name="パス 8766" d="M-9.548-3.85l2.338-3.5c.294-.5.574-1.008.826-1.512h.056C-6.356-8.33-6.4-7.5-6.4-7v3.15ZM-6.4,0h1.2V-2.828h1.358V-3.85H-5.194v-6.426H-6.608l-4.27,6.608v.84H-6.4ZM1.2-3.136V-5.908H4.34v2.772Zm9.254,0H5.39V-5.908h4.1v-.98H5.39V-9.016H9.814v-1.008H1.47c.224-.476.448-.98.644-1.47l-1.05-.252a11.847,11.847,0,0,1-3.15,4.83,6.444,6.444,0,0,1,.9.658A12.935,12.935,0,0,0,.938-9.016h3.4v2.128H.168v3.752h-2.3v1.008H4.34V1.078H5.39V-2.128h5.068Z" transform="translate(379 2325)" fill="#363636"/>
      <path id="パス_8428-5" data-name="パス 8428" d="M-6470.077,2369v126" transform="translate(6849.077 -24)" fill="none" stroke="#707070" stroke-linecap="round" stroke-width="1" stroke-dasharray="0 3"/>
      <path id="パス_8767" data-name="パス 8767" d="M2.5,0,5,4H0Z" transform="translate(382 2337) rotate(180)" fill="#363636"/>
    </g>
    <g id="グループ_4241" data-name="グループ 4241" transform="translate(733 145)">
      <path id="パス_8768" data-name="パス 8768" d="M-7.5.182a3.333,3.333,0,0,0,3.36-3.528A2.929,2.929,0,0,0-7.238-6.608,2.984,2.984,0,0,0-8.764-6.2l.252-2.968h3.878v-1.106h-5L-9.954-5.46l.686.42a2.792,2.792,0,0,1,1.708-.6A2.077,2.077,0,0,1-5.432-3.3,2.218,2.218,0,0,1-7.616-.882a3.376,3.376,0,0,1-2.52-1.134l-.63.84A4.36,4.36,0,0,0-7.5.182ZM1.2-3.136V-5.908H4.34v2.772Zm9.254,0H5.39V-5.908h4.1v-.98H5.39V-9.016H9.814v-1.008H1.47c.224-.476.448-.98.644-1.47l-1.05-.252a11.847,11.847,0,0,1-3.15,4.83,6.444,6.444,0,0,1,.9.658A12.935,12.935,0,0,0,.938-9.016h3.4v2.128H.168v3.752h-2.3v1.008H4.34V1.078H5.39V-2.128h5.068Z" transform="translate(379 2325)" fill="#363636"/>
      <path id="パス_8428-6" data-name="パス 8428" d="M-6470.077,2369v126" transform="translate(6849.077 -24)" fill="none" stroke="#707070" stroke-linecap="round" stroke-width="1" stroke-dasharray="0 3"/>
      <path id="パス_8769" data-name="パス 8769" d="M2.5,0,5,4H0Z" transform="translate(382 2337) rotate(180)" fill="#363636"/>
    </g>
    <g id="グループ_4243" data-name="グループ 4243" transform="translate(0 145)">
      <path id="合体_5" data-name="合体 5" d="M6992,36H6859V10h133V2l22,21-22,21Z" transform="translate(-6480.001 2351)" fill="#818181"/>
      <path id="パス_8770" data-name="パス 8770" d="M9.72-8.736l-1.1-.384a6.884,6.884,0,0,1-.24.888A13.425,13.425,0,0,1,6.744-4.956C5.8-5.688,4.4-6.672,3.372-7.332l-.624.756A37.542,37.542,0,0,1,6.132-4.152,13.323,13.323,0,0,1,1.368-.384L2.2.372A15.288,15.288,0,0,0,6.9-3.5,26.763,26.763,0,0,1,9.732-.744l.756-.828A30.031,30.031,0,0,0,7.524-4.32a16.716,16.716,0,0,0,1.8-3.54A6.475,6.475,0,0,1,9.72-8.736Zm3.5,3.54V-4.02c.372-.036,1.008-.06,1.668-.06H21.48c.54,0,1.044.048,1.284.06V-5.2c-.264.024-.7.06-1.3.06H14.892C14.22-5.136,13.584-5.172,13.224-5.2ZM30.1-9.444H28.968a7.275,7.275,0,0,1,.084,1c0,.432-.024.84-.048,1.224H26.892A12.56,12.56,0,0,1,25.524-7.3v1.02a12.8,12.8,0,0,1,1.38-.048H28.92a7.716,7.716,0,0,1-2.376,5.052,5.915,5.915,0,0,1-1.236.888l.876.708c2-1.38,3.252-3.2,3.684-6.648h3.36c0,1.284-.156,4.236-.612,5.148a.65.65,0,0,1-.7.4,14.6,14.6,0,0,1-1.788-.132l.12,1c.624.036,1.32.084,1.932.084a1.245,1.245,0,0,0,1.284-.732c.54-1.152.684-4.644.732-5.8a3.753,3.753,0,0,1,.06-.588l-.672-.336a4.325,4.325,0,0,1-.768.06H29.964c.024-.4.048-.8.06-1.236C30.036-8.748,30.06-9.168,30.1-9.444ZM37.224-5.2V-4.02c.372-.036,1.008-.06,1.668-.06H45.48c.54,0,1.044.048,1.284.06V-5.2c-.264.024-.7.06-1.3.06H38.892C38.22-5.136,37.584-5.172,37.224-5.2ZM56.556-7.944h-1.1v-.828h1.1Zm1.836,2.172H57.216V-7.248h1.176Zm-4.68-1.476h1.08v1.476h-1.08Zm2.844,0v1.476H55.44V-7.248Zm-1.836-.7H52.956v2.856h6.216V-7.944h-1.9v-.828h2.208v-.744h-6.9v.744H54.72Zm4.152,4.26v-.684h-5.6v.684ZM52.584-3.7c-.2-.324-1.092-1.656-1.428-2.1v-.828H52.5v-.828H51.156v-2.592H50.34v2.592H48.66v.828h1.584a13.025,13.025,0,0,1-1.824,4.5,4.978,4.978,0,0,1,.456.768A12.53,12.53,0,0,0,50.34-4.7V.9h.816V-4.74c.348.588.768,1.32.936,1.7ZM53.9-1.812A6.965,6.965,0,0,1,52.08-.036a2.954,2.954,0,0,1,.552.54A7.924,7.924,0,0,0,54.588-1.44Zm5.58-.276v-.72h-6.96v.72H55.56V.024c0,.12-.036.168-.18.168H54.2a2.675,2.675,0,0,1,.264.732A4.925,4.925,0,0,0,56.016.792c.3-.12.372-.348.372-.756V-2.088Zm-2.232.72A14.759,14.759,0,0,1,58.908.516l.66-.48a12.819,12.819,0,0,0-1.692-1.812Zm10.02-5.76H65.328V-8h1.944Zm0,1.524H65.328v-.852h1.944Zm0,1.584H65.328v-.912h1.944Zm-2.8.72H71.16v-.72H68.112v-.912h2.4V-5.6h-2.4v-.852h2.376v-.672H68.112V-8h2.724v-.72H68.184c.216-.348.456-.744.672-1.128l-.948-.18a12.682,12.682,0,0,1-.624,1.308H65.616A9.368,9.368,0,0,0,66.24-9.84l-.852-.252a8.483,8.483,0,0,1-2.424,3.06,5.892,5.892,0,0,1,.7.612,8.555,8.555,0,0,0,.816-.8Zm-2.988.408c.72-.78,1.524-1.7,2.208-2.544l-.48-.6a28.1,28.1,0,0,1-2.352,2.46Zm2.3-6.18a9.674,9.674,0,0,0-1.932-.9l-.444.612a10.425,10.425,0,0,1,1.908.984ZM62.9-7.2A10.674,10.674,0,0,0,60.96-8l-.444.624a9.852,9.852,0,0,1,1.944.888Zm8.472,4.968H66.408v-.984h-.9v.984H60.672v.8h4.836V.924h.9V-1.428h4.968Zm3.96-7.776A13.474,13.474,0,0,1,72.312-5.28a7.286,7.286,0,0,1,.5.864A12.967,12.967,0,0,0,74.1-5.952V.888h.852V-7.26a17.826,17.826,0,0,0,1.224-2.5Zm2.076,1.332h4.452v2.2H77.412Zm6,5.292V-4.2h-3.36V-5.688h2.7V-9.48h-6.18v3.792h2.592V-4.2h-3.48v.816h2.964A8.889,8.889,0,0,1,75.336-.312,4.395,4.395,0,0,1,75.96.4a10.029,10.029,0,0,0,3.2-3.192V.924h.888V-2.832A11.052,11.052,0,0,0,83.088.42a4.043,4.043,0,0,1,.636-.708,9.35,9.35,0,0,1-3.156-3.1Zm5-6.24H85.14v.72h3.276Zm.42,1.6H84.5V-7.3h4.332Zm-.408,1.656h-3.36v.708h3.36Zm-3.36,2.34h3.36V-4.74h-3.36ZM87.7-2.376V-.384H85.824V-2.376Zm.78-.732H85.044V.9h.78V.36h2.652Zm4.4,2.76V-4.332h2.376v-.84H92.88v-3.3h2.448V-9.3h-6.1v.828h2.784V-.348h-1.44V-6.312h-.84V-.348h-.9V.5H95.52V-.348Zm5.6-3.636h2.172v1.2H98.484Zm2.172-3.672V-6.6H98.484V-7.656ZM98.484-5.88h2.172V-4.7H98.484Zm3.876,3.1h-.876V-7.656h.876v-.8h-.876V-9.9h-.828v1.44H98.484V-9.9h-.816v1.44H96.66v.8h1.008v4.872H96.5v.8h5.856Zm-4.2,1.056A6.26,6.26,0,0,1,96.516.408a5.516,5.516,0,0,1,.72.516A7.932,7.932,0,0,0,99.012-1.5Zm1.7.372A9.42,9.42,0,0,1,101.1.468l.72-.42a8.889,8.889,0,0,0-1.26-1.776Zm3.9-2.568c.012-.408.024-.816.024-1.188v-.8h2.448v1.992Zm2.472-4.7V-6.72h-2.448V-8.628Zm.864-.816h-4.152v4.332c0,1.716-.1,4-1.092,5.58a2.287,2.287,0,0,1,.708.516,9.4,9.4,0,0,0,1.14-4.1h2.532V-.24c0,.192-.072.252-.252.252s-.768.012-1.4,0a3.628,3.628,0,0,1,.276.864,5.319,5.319,0,0,0,1.788-.168c.324-.144.456-.408.456-.936Zm5.5.612v1H110v-1ZM110-6.12V-7.176H112.6V-6.12Zm3.444.684V-9.528h-4.332V.924H110v-6.36Zm1.932,1.6v1.1h-2.82v-1.1ZM112.56-.9V-2.064h2.82V-.9Zm3.648.708V-4.536h-4.452V.408h.8v-.6Zm-.84-5.916V-7.176h2.688v1.068Zm2.688-2.724v1h-2.688v-1Zm.9-.7h-4.44v4.1h3.54V-.276c0,.216-.072.288-.276.288S116.832.036,116.1,0a3.287,3.287,0,0,1,.312.912,6.83,6.83,0,0,0,2.016-.156c.4-.156.528-.456.528-1.02Z" transform="translate(384 2379)" fill="#f5f5f5"/>
    </g>
    <g id="グループ_4242" data-name="グループ 4242" transform="translate(0 145)">
      <path id="合体_6" data-name="合体 6" d="M6992,36H6859V10h133V2l22,21-22,21Z" transform="translate(-6480.001 2419)" fill="#818181"/>
      <path id="パス_8771" data-name="パス 8771" d="M9.72-8.736l-1.1-.384a6.884,6.884,0,0,1-.24.888A13.425,13.425,0,0,1,6.744-4.956C5.8-5.688,4.4-6.672,3.372-7.332l-.624.756A37.542,37.542,0,0,1,6.132-4.152,13.323,13.323,0,0,1,1.368-.384L2.2.372A15.288,15.288,0,0,0,6.9-3.5,26.763,26.763,0,0,1,9.732-.744l.756-.828A30.031,30.031,0,0,0,7.524-4.32a16.716,16.716,0,0,0,1.8-3.54A6.475,6.475,0,0,1,9.72-8.736Zm3.5,3.54V-4.02c.372-.036,1.008-.06,1.668-.06H21.48c.54,0,1.044.048,1.284.06V-5.2c-.264.024-.7.06-1.3.06H14.892C14.22-5.136,13.584-5.172,13.224-5.2ZM30.1-9.444H28.968a7.275,7.275,0,0,1,.084,1c0,.432-.024.84-.048,1.224H26.892A12.56,12.56,0,0,1,25.524-7.3v1.02a12.8,12.8,0,0,1,1.38-.048H28.92a7.716,7.716,0,0,1-2.376,5.052,5.915,5.915,0,0,1-1.236.888l.876.708c2-1.38,3.252-3.2,3.684-6.648h3.36c0,1.284-.156,4.236-.612,5.148a.65.65,0,0,1-.7.4,14.6,14.6,0,0,1-1.788-.132l.12,1c.624.036,1.32.084,1.932.084a1.245,1.245,0,0,0,1.284-.732c.54-1.152.684-4.644.732-5.8a3.753,3.753,0,0,1,.06-.588l-.672-.336a4.325,4.325,0,0,1-.768.06H29.964c.024-.4.048-.8.06-1.236C30.036-8.748,30.06-9.168,30.1-9.444ZM37.224-5.2V-4.02c.372-.036,1.008-.06,1.668-.06H45.48c.54,0,1.044.048,1.284.06V-5.2c-.264.024-.7.06-1.3.06H38.892C38.22-5.136,37.584-5.172,37.224-5.2ZM56.556-7.944h-1.1v-.828h1.1Zm1.836,2.172H57.216V-7.248h1.176Zm-4.68-1.476h1.08v1.476h-1.08Zm2.844,0v1.476H55.44V-7.248Zm-1.836-.7H52.956v2.856h6.216V-7.944h-1.9v-.828h2.208v-.744h-6.9v.744H54.72Zm4.152,4.26v-.684h-5.6v.684ZM52.584-3.7c-.2-.324-1.092-1.656-1.428-2.1v-.828H52.5v-.828H51.156v-2.592H50.34v2.592H48.66v.828h1.584a13.025,13.025,0,0,1-1.824,4.5,4.978,4.978,0,0,1,.456.768A12.53,12.53,0,0,0,50.34-4.7V.9h.816V-4.74c.348.588.768,1.32.936,1.7ZM53.9-1.812A6.965,6.965,0,0,1,52.08-.036a2.954,2.954,0,0,1,.552.54A7.924,7.924,0,0,0,54.588-1.44Zm5.58-.276v-.72h-6.96v.72H55.56V.024c0,.12-.036.168-.18.168H54.2a2.675,2.675,0,0,1,.264.732A4.925,4.925,0,0,0,56.016.792c.3-.12.372-.348.372-.756V-2.088Zm-2.232.72A14.759,14.759,0,0,1,58.908.516l.66-.48a12.819,12.819,0,0,0-1.692-1.812Zm10.02-5.76H65.328V-8h1.944Zm0,1.524H65.328v-.852h1.944Zm0,1.584H65.328v-.912h1.944Zm-2.8.72H71.16v-.72H68.112v-.912h2.4V-5.6h-2.4v-.852h2.376v-.672H68.112V-8h2.724v-.72H68.184c.216-.348.456-.744.672-1.128l-.948-.18a12.682,12.682,0,0,1-.624,1.308H65.616A9.368,9.368,0,0,0,66.24-9.84l-.852-.252a8.483,8.483,0,0,1-2.424,3.06,5.892,5.892,0,0,1,.7.612,8.555,8.555,0,0,0,.816-.8Zm-2.988.408c.72-.78,1.524-1.7,2.208-2.544l-.48-.6a28.1,28.1,0,0,1-2.352,2.46Zm2.3-6.18a9.674,9.674,0,0,0-1.932-.9l-.444.612a10.425,10.425,0,0,1,1.908.984ZM62.9-7.2A10.674,10.674,0,0,0,60.96-8l-.444.624a9.852,9.852,0,0,1,1.944.888Zm8.472,4.968H66.408v-.984h-.9v.984H60.672v.8h4.836V.924h.9V-1.428h4.968Zm3.96-7.776A13.474,13.474,0,0,1,72.312-5.28a7.286,7.286,0,0,1,.5.864A12.967,12.967,0,0,0,74.1-5.952V.888h.852V-7.26a17.826,17.826,0,0,0,1.224-2.5Zm2.076,1.332h4.452v2.2H77.412Zm6,5.292V-4.2h-3.36V-5.688h2.7V-9.48h-6.18v3.792h2.592V-4.2h-3.48v.816h2.964A8.889,8.889,0,0,1,75.336-.312,4.395,4.395,0,0,1,75.96.4a10.029,10.029,0,0,0,3.2-3.192V.924h.888V-2.832A11.052,11.052,0,0,0,83.088.42a4.043,4.043,0,0,1,.636-.708,9.35,9.35,0,0,1-3.156-3.1Zm5-6.24H85.14v.72h3.276Zm.42,1.6H84.5V-7.3h4.332Zm-.408,1.656h-3.36v.708h3.36Zm-3.36,2.34h3.36V-4.74h-3.36ZM87.7-2.376V-.384H85.824V-2.376Zm.78-.732H85.044V.9h.78V.36h2.652Zm4.4,2.76V-4.332h2.376v-.84H92.88v-3.3h2.448V-9.3h-6.1v.828h2.784V-.348h-1.44V-6.312h-.84V-.348h-.9V.5H95.52V-.348Zm5.6-3.636h2.172v1.2H98.484Zm2.172-3.672V-6.6H98.484V-7.656ZM98.484-5.88h2.172V-4.7H98.484Zm3.876,3.1h-.876V-7.656h.876v-.8h-.876V-9.9h-.828v1.44H98.484V-9.9h-.816v1.44H96.66v.8h1.008v4.872H96.5v.8h5.856Zm-4.2,1.056A6.26,6.26,0,0,1,96.516.408a5.516,5.516,0,0,1,.72.516A7.932,7.932,0,0,0,99.012-1.5Zm1.7.372A9.42,9.42,0,0,1,101.1.468l.72-.42a8.889,8.889,0,0,0-1.26-1.776Zm3.9-2.568c.012-.408.024-.816.024-1.188v-.8h2.448v1.992Zm2.472-4.7V-6.72h-2.448V-8.628Zm.864-.816h-4.152v4.332c0,1.716-.1,4-1.092,5.58a2.287,2.287,0,0,1,.708.516,9.4,9.4,0,0,0,1.14-4.1h2.532V-.24c0,.192-.072.252-.252.252s-.768.012-1.4,0a3.628,3.628,0,0,1,.276.864,5.319,5.319,0,0,0,1.788-.168c.324-.144.456-.408.456-.936Zm5.5.612v1H110v-1ZM110-6.12V-7.176H112.6V-6.12Zm3.444.684V-9.528h-4.332V.924H110v-6.36Zm1.932,1.6v1.1h-2.82v-1.1ZM112.56-.9V-2.064h2.82V-.9Zm3.648.708V-4.536h-4.452V.408h.8v-.6Zm-.84-5.916V-7.176h2.688v1.068Zm2.688-2.724v1h-2.688v-1Zm.9-.7h-4.44v4.1h3.54V-.276c0,.216-.072.288-.276.288S116.832.036,116.1,0a3.287,3.287,0,0,1,.312.912,6.83,6.83,0,0,0,2.016-.156c.4-.156.528-.456.528-1.02Z" transform="translate(384 2447)" fill="#f5f5f5"/>
    </g>
    <path id="合体_6-2" data-name="合体 6" d="M7415,36H6859V10h556V2l22,21-22,21Z" transform="translate(-6325 2564)" fill="#00c8ac"/>
    <g id="グループ_4244" data-name="グループ 4244" transform="translate(-11 145)">
      <path id="パス_8772" data-name="パス 8772" d="M11.424-2.472H8.6V-5.436H11.2v-.8H8.6V-8.724a19.567,19.567,0,0,0,2.472-.564L10.428-10a29.924,29.924,0,0,1-5.7,1.008,2.412,2.412,0,0,1,.252.732C5.856-8.34,6.8-8.448,7.728-8.58v6.108H6.252v-4.44H5.4v4.44H4.428v.828h7ZM3.864-5.88,3.7-5.856H2.256C2.88-7.008,3.516-8.22,3.96-9.12l-.612-.2L3.2-9.276H.528v.792H2.736C2.184-7.416,1.38-5.94.708-4.8l.816.252.3-.528h1.62a10.864,10.864,0,0,1-.8,2.868A6.041,6.041,0,0,1,1.7-4.14l-.7.264A7.333,7.333,0,0,0,2.22-1.44,5.5,5.5,0,0,1,.444.348a2.774,2.774,0,0,1,.672.624A5.937,5.937,0,0,0,2.832-.8C4.116.336,5.868.612,8.028.612H11.22a2.937,2.937,0,0,1,.36-.876c-.624.024-3.036.024-3.528.024C6.1-.252,4.44-.48,3.24-1.536a12.724,12.724,0,0,0,1.14-4.2Zm18.2,2.46A18.441,18.441,0,0,1,19.536-1.8,6.072,6.072,0,0,1,18.3-3.528h5.028v-.8H15.684v-1.02H21.8v-.732h-6.12v-1H21.8v-.732h-6.12v-1h6.48v-.756H14.772v5.232h-2.1v.8h2.1V-.216c-.564.084-1.092.168-1.524.228l.228.816C14.9.588,16.956.24,18.864-.1l-.036-.792c-1.056.18-2.148.36-3.144.528V-3.528h1.7A7.5,7.5,0,0,0,22.968.948a2.783,2.783,0,0,1,.552-.78A8.1,8.1,0,0,1,20.1-1.308,19.462,19.462,0,0,0,22.8-2.94Zm5.268-6.588A13.474,13.474,0,0,1,24.312-5.28a7.287,7.287,0,0,1,.5.864A12.968,12.968,0,0,0,26.1-5.952V.888h.852V-7.26a17.826,17.826,0,0,0,1.224-2.5Zm2.076,1.332h4.452v2.2H29.412Zm6,5.292V-4.2h-3.36V-5.688h2.7V-9.48h-6.18v3.792h2.592V-4.2h-3.48v.816h2.964A8.889,8.889,0,0,1,27.336-.312,4.395,4.395,0,0,1,27.96.4a10.029,10.029,0,0,0,3.2-3.192V.924h.888V-2.832A11.052,11.052,0,0,0,35.088.42a4.043,4.043,0,0,1,.636-.708,9.35,9.35,0,0,1-3.156-3.1Zm5-6.24H37.14v.72h3.276Zm.42,1.6H36.5V-7.3h4.332Zm-.408,1.656h-3.36v.708h3.36Zm-3.36,2.34h3.36V-4.74h-3.36ZM39.7-2.376V-.384H37.824V-2.376Zm.78-.732H37.044V.9h.78V.36h2.652Zm4.4,2.76V-4.332h2.376v-.84H44.88v-3.3h2.448V-9.3h-6.1v.828h2.784V-.348h-1.44V-6.312h-.84V-.348h-.9V.5H47.52V-.348ZM50.772-8.94v1c.324-.024.708-.036,1.08-.036h4.7c.408,0,.816.012,1.1.036v-1a7.474,7.474,0,0,1-1.092.06H51.852A7.5,7.5,0,0,1,50.772-8.94Zm7.764,3.168L57.852-6.2a1.594,1.594,0,0,1-.66.1H50.868a11.342,11.342,0,0,1-1.176-.072v1.008c.432-.024.888-.036,1.176-.036H57.24a6.135,6.135,0,0,1-1.428,2.652,8,8,0,0,1-4.224,2.2l.744.852a8.69,8.69,0,0,0,4.3-2.508A8.264,8.264,0,0,0,58.38-5.424,2.1,2.1,0,0,1,58.536-5.772Zm2.5,1.44.48.936a23.7,23.7,0,0,0,4.572-1.956v4.44A11.131,11.131,0,0,1,66.012.372h1.176a9.054,9.054,0,0,1-.072-1.284V-5.976a19.632,19.632,0,0,0,3.24-2.676l-.8-.744a14.3,14.3,0,0,1-3.276,2.82A19.837,19.837,0,0,1,61.032-4.332ZM76.044-1.056A10.574,10.574,0,0,1,75.96.36h1.164c-.048-.4-.072-1.044-.072-1.416,0-.348,0-2.16-.012-3.96a31.46,31.46,0,0,1,4.716,1.932l.408-1.02a38.354,38.354,0,0,0-5.124-1.98V-8.04c0-.36.048-.876.084-1.248H75.948a7.574,7.574,0,0,1,.1,1.248Z" transform="translate(682 2447)" fill="#fff"/>
      <path id="パス_8773" data-name="パス 8773" d="M3.579.136c1.773,0,2.966-1.347,2.966-3.375,0-2.045-1.193-3.392-2.966-3.392S.614-5.284.614-3.239C.614-1.21,1.807.136,3.579.136Zm0-.9c-1.347,0-1.96-1.159-1.96-2.472s.614-2.489,1.96-2.489S5.54-4.551,5.54-3.239,4.926-.767,3.579-.767ZM8.08,0H9.085V-4.142a1.548,1.548,0,0,1,1.653-1.534,3.075,3.075,0,0,1,.614.068V-6.631c-.115-.009-.379-.017-.528-.017a1.781,1.781,0,0,0-1.7,1.091H9.051v-.989H8.08Z" transform="translate(834 2446)" fill="#fff"/>
      <path id="パス_8774" data-name="パス 8774" d="M3.579.136c1.773,0,2.966-1.347,2.966-3.375,0-2.045-1.193-3.392-2.966-3.392S.614-5.284.614-3.239C.614-1.21,1.807.136,3.579.136Zm0-.9c-1.347,0-1.96-1.159-1.96-2.472s.614-2.489,1.96-2.489S5.54-4.551,5.54-3.239,4.926-.767,3.579-.767ZM8.08,0H9.085V-4.142a1.548,1.548,0,0,1,1.653-1.534,3.075,3.075,0,0,1,.614.068V-6.631c-.115-.009-.379-.017-.528-.017a1.781,1.781,0,0,0-1.7,1.091H9.051v-.989H8.08Z" transform="translate(902 2446)" fill="#fff"/>
      <path id="パス_8775" data-name="パス 8775" d="M9,0H39a9,9,0,0,1,0,18H9A9,9,0,0,1,9,0Z" transform="translate(782 2433)" fill="#fff"/>
      <path id="パス_8776" data-name="パス 8776" d="M9,0H39a9,9,0,0,1,0,18H9A9,9,0,0,1,9,0Z" transform="translate(850 2433)" fill="#fff"/>
      <path id="パス_8777" data-name="パス 8777" d="M9,0H39a9,9,0,0,1,0,18H9A9,9,0,0,1,9,0Z" transform="translate(918 2433)" fill="#fff"/>
      <path id="パス_8778" data-name="パス 8778" d="M.528,0H6.06V-.948H3.624c-.444,0-.984.048-1.44.084C4.248-2.82,5.628-4.608,5.628-6.36a2.413,2.413,0,0,0-2.556-2.6A3.364,3.364,0,0,0,.48-7.668l.636.624A2.463,2.463,0,0,1,2.94-8.064a1.546,1.546,0,0,1,1.62,1.74C4.56-4.812,3.288-3.06.528-.648Zm9.6-2.688V-5.064h2.688v2.376Zm7.932,0H13.716V-5.064h3.516V-5.9H13.716V-7.728h3.792v-.864H10.356c.192-.408.384-.84.552-1.26l-.9-.216a10.155,10.155,0,0,1-2.7,4.14,5.523,5.523,0,0,1,.768.564A11.087,11.087,0,0,0,9.9-7.728h2.916V-5.9H9.24v3.216H7.272v.864h5.544V.924h.9V-1.824H18.06Zm5.2-6.144v1H20.664v-1ZM20.664-6.12V-7.176h2.592V-6.12Zm3.444.684V-9.528H19.776V.924h.888v-6.36Zm1.932,1.6v1.1H23.22v-1.1ZM23.22-.9V-2.064h2.82V-.9Zm3.648.708V-4.536H22.416V.408h.8v-.6Zm-.84-5.916V-7.176h2.688v1.068Zm2.688-2.724v1H26.028v-1Zm.9-.7h-4.44v4.1h3.54V-.276c0,.216-.072.288-.276.288S27.492.036,26.76,0a3.287,3.287,0,0,1,.312.912A6.83,6.83,0,0,0,29.088.756c.4-.156.528-.456.528-1.02Z" transform="translate(791 2447)" fill="#00c8ac"/>
      <path id="パス_8779" data-name="パス 8779" d="M3.168.156a2.561,2.561,0,0,0,2.82-2.508,2.263,2.263,0,0,0-1.86-2.232v-.048a2.2,2.2,0,0,0,1.56-2.124A2.26,2.26,0,0,0,3.132-8.964,3.522,3.522,0,0,0,.672-7.908l.588.7a2.568,2.568,0,0,1,1.824-.852A1.35,1.35,0,0,1,4.572-6.672c0,.948-.624,1.68-2.436,1.68v.84c2.028,0,2.736.708,2.736,1.752A1.622,1.622,0,0,1,3.084-.756,2.908,2.908,0,0,1,.9-1.764l-.552.72A3.641,3.641,0,0,0,3.168.156Zm6.96-2.844V-5.064h2.688v2.376Zm7.932,0H13.716V-5.064h3.516V-5.9H13.716V-7.728h3.792v-.864H10.356c.192-.408.384-.84.552-1.26l-.9-.216a10.155,10.155,0,0,1-2.7,4.14,5.523,5.523,0,0,1,.768.564A11.087,11.087,0,0,0,9.9-7.728h2.916V-5.9H9.24v3.216H7.272v.864h5.544V.924h.9V-1.824H18.06Zm5.2-6.144v1H20.664v-1ZM20.664-6.12V-7.176h2.592V-6.12Zm3.444.684V-9.528H19.776V.924h.888v-6.36Zm1.932,1.6v1.1H23.22v-1.1ZM23.22-.9V-2.064h2.82V-.9Zm3.648.708V-4.536H22.416V.408h.8v-.6Zm-.84-5.916V-7.176h2.688v1.068Zm2.688-2.724v1H26.028v-1Zm.9-.7h-4.44v4.1h3.54V-.276c0,.216-.072.288-.276.288S27.492.036,26.76,0a3.287,3.287,0,0,1,.312.912A6.83,6.83,0,0,0,29.088.756c.4-.156.528-.456.528-1.02Z" transform="translate(859 2447)" fill="#00c8ac"/>
      <path id="パス_8780" data-name="パス 8780" d="M1.38-3.3l2-3c.252-.432.492-.864.708-1.3H4.14c-.024.456-.06,1.164-.06,1.6v2.7ZM4.08,0H5.112V-2.424H6.276V-3.3H5.112V-8.808H3.9L.24-3.144v.72H4.08Zm6.048-2.688V-5.064h2.688v2.376Zm7.932,0H13.716V-5.064h3.516V-5.9H13.716V-7.728h3.792v-.864H10.356c.192-.408.384-.84.552-1.26l-.9-.216a10.155,10.155,0,0,1-2.7,4.14,5.523,5.523,0,0,1,.768.564A11.087,11.087,0,0,0,9.9-7.728h2.916V-5.9H9.24v3.216H7.272v.864h5.544V.924h.9V-1.824H18.06Zm5.2-6.144v1H20.664v-1ZM20.664-6.12V-7.176h2.592V-6.12Zm3.444.684V-9.528H19.776V.924h.888v-6.36Zm1.932,1.6v1.1H23.22v-1.1ZM23.22-.9V-2.064h2.82V-.9Zm3.648.708V-4.536H22.416V.408h.8v-.6Zm-.84-5.916V-7.176h2.688v1.068Zm2.688-2.724v1H26.028v-1Zm.9-.7h-4.44v4.1h3.54V-.276c0,.216-.072.288-.276.288S27.492.036,26.76,0a3.287,3.287,0,0,1,.312.912A6.83,6.83,0,0,0,29.088.756c.4-.156.528-.456.528-1.02Z" transform="translate(927 2447)" fill="#00c8ac"/>
    </g>
  </g>
</svg>
