<svg xmlns="http://www.w3.org/2000/svg" width="286.229" height="111.5" viewBox="0 0 286.229 111.5">
  <g id="グループ_4495" data-name="グループ 4495" transform="translate(-227 -2747)">
    <path id="パス_8709" data-name="パス 8709" d="M6,0H279a6,6,0,0,1,6,6V38a6,6,0,0,1-6,6H6a6,6,0,0,1-6-6V6A6,6,0,0,1,6,0Z" transform="translate(227 2766)" fill="#f5f5f5"/>
    <path id="パス_8710" data-name="パス 8710" d="M6,0H279a6,6,0,0,1,6,6V38a6,6,0,0,1-6,6H6a6,6,0,0,1-6-6V6A6,6,0,0,1,6,0Z" transform="translate(227 2814)" fill="#f5f5f5"/>
    <path id="パス_8711" data-name="パス 8711" d="M6,0H62V44H6a6,6,0,0,1-6-6V6A6,6,0,0,1,6,0Z" transform="translate(227 2766)" fill="#818181"/>
    <path id="パス_8712" data-name="パス 8712" d="M6,0H62V44H6a6,6,0,0,1-6-6V6A6,6,0,0,1,6,0Z" transform="translate(227 2814)" fill="#00c8ac"/>
    <path id="パス_8713" data-name="パス 8713" d="M-10.912-1.784h-.832V-4.64h-.7v2.856h-.608v.68h4.664v-.68h-1.784V-3.552h1.624V-4.2h-1.624V-5.728A13.4,13.4,0,0,0-8.568-6.1l-.512-.592a21.258,21.258,0,0,1-3.792.656,2.137,2.137,0,0,1,.2.616c.56-.048,1.168-.112,1.76-.2Zm-2.576-2.2-.136.016h-.76c.392-.744.784-1.528,1.072-2.144l-.512-.16-.12.04h-1.72v.648h1.344c-.352.7-.84,1.64-1.272,2.384l.68.2.176-.312h.9a6.885,6.885,0,0,1-.448,1.7,4.4,4.4,0,0,1-.544-1.168l-.584.208a5.2,5.2,0,0,0,.8,1.608,3.482,3.482,0,0,1-1.12,1.12,3.132,3.132,0,0,1,.56.52A3.757,3.757,0,0,0-14.1-.44a5.051,5.051,0,0,0,3.36.88h2.184a2.661,2.661,0,0,1,.288-.728c-.472.016-2.064.016-2.448.016a4.633,4.633,0,0,1-3.048-.784,9.022,9.022,0,0,0,.712-2.808ZM-1.36-2.28A11,11,0,0,1-2.888-1.272,4.217,4.217,0,0,1-3.632-2.28Zm.016,0h.9v-.664H-5.432V-3.5h3.96V-4.1h-3.96v-.552h3.96V-5.24h-3.96v-.552H-1.24v-.624H-6.184v3.472H-7.56v.664h1.368V-.248c-.368.056-.712.1-1,.144l.176.68c.952-.152,2.3-.368,3.552-.584L-3.5-.664l-1.928.3V-2.28h1.04A4.859,4.859,0,0,0-.768.648,2.574,2.574,0,0,1-.3-.016,5.385,5.385,0,0,1-2.4-.864,12.206,12.206,0,0,0-.744-1.872Zm3.5-4.408A8.549,8.549,0,0,1,.208-3.624a4.4,4.4,0,0,1,.416.752,8.543,8.543,0,0,0,.744-.888V.616h.7V-4.84a14.415,14.415,0,0,0,.784-1.624Zm1.608,1h2.7V-4.4h-2.7Zm3.856,3.5v-.672H5.464v-.872H7.208V-6.344H3.072v2.608H4.72v.872H2.512v.672H4.328a5.866,5.866,0,0,1-2.072,1.9A3.28,3.28,0,0,1,2.768.3,6.509,6.509,0,0,0,4.72-1.632V.64h.744V-1.672A6.867,6.867,0,0,0,7.32.32a3.325,3.325,0,0,1,.52-.592,5.946,5.946,0,0,1-1.976-1.92Zm3.328-4.256H8.744v.584h2.208Zm-.6,4.984V-.312H9.32V-1.464Zm.648-.6H8.68V.624h.64V.28H11ZM8.7-2.592h2.256v-.576H8.7Zm2.256-1.664H8.7v.576h2.256ZM8.32-4.776h2.912v-.592H8.32Zm5.7,4.432V-2.792h1.488v-.7H14.024V-5.56H15.56v-.7H11.488v.7H13.3V-.344h-.808v-3.88H11.8v3.88h-.56v.7H15.7v-.7Zm-24.2,6.312v.824c.224-.016.512-.024.768-.024h3.1c.272,0,.592.008.792.024V5.968a7.643,7.643,0,0,1-.784.04H-9.408A7.318,7.318,0,0,1-10.176,5.968Zm5.3,2.2-.568-.352a1.587,1.587,0,0,1-.512.072h-4.1c-.232,0-.536-.024-.848-.056v.832c.3-.024.656-.032.848-.032h4.072a3.771,3.771,0,0,1-.888,1.6,5.382,5.382,0,0,1-2.8,1.44l.624.72a5.911,5.911,0,0,0,2.864-1.7,5.66,5.66,0,0,0,1.176-2.24A1.405,1.405,0,0,1-4.88,8.168Zm1.488.848L-3,9.808A16.368,16.368,0,0,0-.048,8.568v2.784A9.27,9.27,0,0,1-.1,12.3H.9a6.016,6.016,0,0,1-.056-.944V8.032A13.5,13.5,0,0,0,2.992,6.28L2.32,5.64A9.875,9.875,0,0,1,.1,7.544,13.21,13.21,0,0,1-3.392,9.016ZM6.616,11.264a8.375,8.375,0,0,1-.064,1.024h.984a9.373,9.373,0,0,1-.064-1.024V8.792A20.947,20.947,0,0,1,10.5,10.04l.36-.872a27.118,27.118,0,0,0-3.384-1.28V6.64c0-.28.032-.632.056-.9H6.544a5.791,5.791,0,0,1,.072.9Z" transform="translate(258 2827)" fill="#fff"/>
    <path id="パス_8714" data-name="パス 8714" d="M-9.408-5.848l-.928-.328a5.632,5.632,0,0,1-.176.656,8.85,8.85,0,0,1-1,2.064c-.64-.488-1.528-1.1-2.2-1.528l-.528.64a22.717,22.717,0,0,1,2.208,1.576A8.7,8.7,0,0,1-15.144-.32l.7.632a9.988,9.988,0,0,0,3.064-2.536A17.848,17.848,0,0,1-9.536-.416l.64-.7a19.594,19.594,0,0,0-1.952-1.808A11.471,11.471,0,0,0-9.7-5.2,5.9,5.9,0,0,1-9.408-5.848Zm2.184,2.28v.992c.272-.024.752-.04,1.192-.04H-1.68c.352,0,.72.032.9.04v-.992c-.2.016-.512.048-.9.048H-6.032C-6.464-3.52-6.96-3.552-7.224-3.568ZM4.144-6.344H3.208a5.088,5.088,0,0,1,.056.688q0,.408-.024.768H1.952c-.312,0-.672-.024-.976-.048V-4.1c.3-.024.68-.032.976-.032H3.168A4.973,4.973,0,0,1,1.7-.992a4.269,4.269,0,0,1-.92.672l.736.6A5.738,5.738,0,0,0,3.984-4.136H6.032A11.572,11.572,0,0,1,5.656-.9.423.423,0,0,1,5.2-.632a9.159,9.159,0,0,1-1.16-.1l.1.84c.408.032.872.056,1.3.056a.892.892,0,0,0,.928-.544,15.573,15.573,0,0,0,.48-3.88c.008-.1.032-.272.056-.408l-.56-.272a3.637,3.637,0,0,1-.552.048H4.064c.016-.248.032-.512.04-.784C4.112-5.864,4.128-6.16,4.144-6.344ZM8.776-3.568v.992c.272-.024.752-.04,1.192-.04H14.32c.352,0,.72.032.9.04v-.992c-.2.016-.512.048-.9.048H9.968C9.536-3.52,9.04-3.552,8.776-3.568ZM-5.84,5.312A8.549,8.549,0,0,1-7.792,8.376a4.4,4.4,0,0,1,.416.752,8.543,8.543,0,0,0,.744-.888v4.376h.7V7.16a14.415,14.415,0,0,0,.784-1.624Zm1.608,1h2.7V7.6h-2.7Zm3.856,3.5V9.136h-2.16V8.264H-.792V5.656H-4.928V8.264H-3.28v.872H-5.488v.672h1.816a5.866,5.866,0,0,1-2.072,1.9,3.28,3.28,0,0,1,.512.592A6.509,6.509,0,0,0-3.28,10.368V12.64h.744V10.328A6.867,6.867,0,0,0-.68,12.32a3.325,3.325,0,0,1,.52-.592,5.946,5.946,0,0,1-1.976-1.92ZM2.952,5.552H.744v.584H2.952Zm-.6,4.984v1.152H1.32V10.536ZM3,9.936H.68v2.688h.64V12.28H3ZM.7,9.408H2.952V8.832H.7ZM2.952,7.744H.7V8.32H2.952ZM.32,7.224H3.232V6.632H.32Zm5.7,4.432V9.208H7.512V8.5H6.024V6.44H7.56v-.7H3.488v.7H5.3v5.216H4.488V7.776H3.8v3.88H3.24v.7H7.7v-.7Z" transform="translate(258 2785)" fill="#fff"/>
    <path id="パス_8715" data-name="パス 8715" d="M5.448-3.04A5.33,5.33,0,0,0,7.032.784L7.64.5A4.979,4.979,0,0,1,6.168-3.04,4.979,4.979,0,0,1,7.64-6.576l-.608-.288A5.33,5.33,0,0,0,5.448-3.04ZM13.856-5.5H10.144V-5.96h3.712Zm0,.936H10.144v-.464h3.712Zm.744-1.9H9.432v2.392H14.6ZM14.36-2.1a3.77,3.77,0,0,1-.728,1.008A3.526,3.526,0,0,1,12.96-2.1ZM9.832-.584V-1.1h1.256v.4Zm0-1.528h1.256v.472H9.832Zm1.256-.976v.448H9.832v-.448Zm3.72.392-.128.024H12.048V-2.1h.72l-.432.12a4.9,4.9,0,0,0,.808,1.3A4.6,4.6,0,0,1,11.8,0V-3.088h3.7V-3.7H8.488v.608h.656V-.52c-.264.024-.512.048-.728.064l.056.648C9.2.12,10.144.016,11.088-.088V.624H11.8V.056A2.33,2.33,0,0,1,12.168.6a5.525,5.525,0,0,0,1.48-.8A4.432,4.432,0,0,0,15.24.624a2.2,2.2,0,0,1,.44-.576A4.445,4.445,0,0,1,14.152-.64a4.545,4.545,0,0,0,1.112-1.88Zm7.832.416a11,11,0,0,1-1.528,1.008,4.217,4.217,0,0,1-.744-1.008Zm.016,0h.9v-.664H18.568V-3.5h3.96V-4.1h-3.96v-.552h3.96V-5.24h-3.96v-.552H22.76v-.624H17.816v3.472H16.44v.664h1.368V-.248c-.368.056-.712.1-1,.144l.176.68c.952-.152,2.3-.368,3.552-.584L20.5-.664l-1.928.3V-2.28h1.04A4.859,4.859,0,0,0,23.232.648,2.574,2.574,0,0,1,23.7-.016a5.385,5.385,0,0,1-2.1-.848,12.206,12.206,0,0,0,1.656-1.008ZM26.144.1a1.943,1.943,0,0,0,1.984-2.04,1.693,1.693,0,0,0-1.792-1.872,1.684,1.684,0,0,0-.808.208l.136-1.512h2.184V-5.9H24.864l-.176,2.8.448.3a1.549,1.549,0,0,1,.944-.336A1.092,1.092,0,0,1,27.2-1.9,1.151,1.151,0,0,1,26.032-.648a1.884,1.884,0,0,1-1.376-.632l-.44.6A2.606,2.606,0,0,0,26.144.1Zm4.84-1.96V-3.272h1.608v1.416Zm5.184,0H33.36V-3.272h2.232v-.7H33.36v-1.1h2.416v-.72H31.144c.1-.24.216-.5.312-.752l-.752-.2A6.473,6.473,0,0,1,28.96-4.032a5.916,5.916,0,0,1,.648.48,7.278,7.278,0,0,0,1.152-1.52h1.832v1.1H30.24v2.112H28.952v.72h3.64V.632h.768V-1.136h2.808Zm3.36-3.976v.552H38.016v-.552ZM38.016-4.16v-.592h1.512v.592Zm2.216.552V-6.392H37.28V.632h.736v-4.24Zm1.344-.536v-.608h1.56v.608Zm1.56-1.688v.552h-1.56v-.552ZM39.728-.664v-.664h1.624v.664ZM41.352-2.5v.624H39.728V-2.5Zm2.536-3.9H40.864v2.8h2.272V-.3c0,.136-.04.176-.184.184-.128,0-.512.008-.9-.008V-3.056h-3V.3h.68V-.1h2.16a3.332,3.332,0,0,1,.232.728A4.05,4.05,0,0,0,43.512.5c.288-.128.376-.368.376-.792ZM47.112-3.04a5.33,5.33,0,0,0-1.584-3.824l-.608.288A4.979,4.979,0,0,1,46.392-3.04,4.979,4.979,0,0,1,44.92.5l.608.288A5.33,5.33,0,0,0,47.112-3.04Z" transform="translate(231 2852)" fill="#fff"/>
    <path id="パス_8428" data-name="パス 8428" d="M-6470.077,2369v92" transform="translate(6763.577 397)" fill="none" stroke="#707070" stroke-linecap="round" stroke-width="1" stroke-dasharray="0 3"/>
    <path id="パス_8428-2" data-name="パス 8428" d="M-6470.077,2369v92" transform="translate(6892.577 397)" fill="none" stroke="#707070" stroke-linecap="round" stroke-width="1" stroke-dasharray="0 3"/>
    <path id="パス_8428-3" data-name="パス 8428" d="M-6470.077,2369v92" transform="translate(6806.577 397)" fill="none" stroke="#707070" stroke-linecap="round" stroke-width="1" stroke-dasharray="0 3"/>
    <path id="パス_8428-4" data-name="パス 8428" d="M-6470.077,2369v92" transform="translate(6935.577 397)" fill="none" stroke="#707070" stroke-linecap="round" stroke-width="1" stroke-dasharray="0 3"/>
    <path id="パス_8428-5" data-name="パス 8428" d="M-6470.077,2369v92" transform="translate(6849.577 397)" fill="none" stroke="#707070" stroke-linecap="round" stroke-width="1" stroke-dasharray="0 3"/>
    <path id="パス_8428-6" data-name="パス 8428" d="M-6470.077,2369v92" transform="translate(6978.577 397)" fill="none" stroke="#707070" stroke-linecap="round" stroke-width="1" stroke-dasharray="0 3"/>
    <path id="合体_6" data-name="合体 6" d="M35.5,28H.5V6h35V0l8,17-8,17Z" transform="translate(293.5 2770)" fill="#818181"/>
    <path id="合体_55" data-name="合体 55" d="M35.5,28H.5V6h35V0l8,17-8,17Z" transform="translate(293.5 2818)" fill="#818181"/>
    <path id="合体_54" data-name="合体 54" d="M164.5,28H.5V6h164V0l8,17-8,17Z" transform="translate(336.5 2818)" fill="#00c8ac"/>
    <path id="パス_8716" data-name="パス 8716" d="M-13.056-4.386l-.7-.246a4.224,4.224,0,0,1-.132.492,6.637,6.637,0,0,1-.75,1.548c-.48-.366-1.146-.828-1.65-1.146l-.4.48a17.037,17.037,0,0,1,1.656,1.182A6.521,6.521,0,0,1-17.358-.24l.528.474a7.491,7.491,0,0,0,2.3-1.9,13.386,13.386,0,0,1,1.38,1.356l.48-.528A14.7,14.7,0,0,0-14.136-2.2a8.6,8.6,0,0,0,.864-1.7A4.426,4.426,0,0,1-13.056-4.386Zm1.638,1.71v.744c.2-.018.564-.03.894-.03H-7.26c.264,0,.54.024.672.03v-.744c-.15.012-.384.036-.672.036h-3.264C-10.848-2.64-11.22-2.664-11.418-2.676Zm8.526-2.082h-.7a3.816,3.816,0,0,1,.042.516q0,.306-.018.576h-.966c-.234,0-.5-.018-.732-.036v.624c.228-.018.51-.024.732-.024h.912a3.729,3.729,0,0,1-1.1,2.358,3.2,3.2,0,0,1-.69.5l.552.45A4.3,4.3,0,0,0-3.012-3.1h1.536A8.679,8.679,0,0,1-1.758-.678a.317.317,0,0,1-.342.2,6.869,6.869,0,0,1-.87-.072l.072.63c.306.024.654.042.978.042a.669.669,0,0,0,.7-.408,11.68,11.68,0,0,0,.36-2.91c.006-.072.024-.2.042-.306l-.42-.2a2.728,2.728,0,0,1-.414.036h-1.3c.012-.186.024-.384.03-.588C-2.916-4.4-2.9-4.62-2.892-4.758ZM.582-2.676v.744c.2-.018.564-.03.894-.03H4.74c.264,0,.54.024.672.03v-.744c-.15.012-.384.036-.672.036H1.476C1.152-2.64.78-2.664.582-2.676Zm9.654-1.3H9.774v-.354h.462Zm.876,1.05H10.62v-.63h.492Zm-2.166-.63h.438v.63H8.946Zm1.29,0v.63H9.774v-.63Zm-.9-.42H8.484v1.458h3.108V-3.972h-.918v-.354h1.074v-.456H8.3v.456H9.336Zm2.106,2.178v-.42h-2.8v.42ZM8.328-1.836c-.1-.162-.54-.84-.708-1.062v-.354h.636v-.516H7.62V-5.034H7.1v1.266h-.78v.516h.732A6.4,6.4,0,0,1,6.2-1.11a2.824,2.824,0,0,1,.264.48A5.6,5.6,0,0,0,7.1-2.07V.468H7.62v-2.7c.156.282.33.612.408.8ZM8.916-.9a3.291,3.291,0,0,1-.87.858A2.091,2.091,0,0,1,8.394.3a3.843,3.843,0,0,0,.954-.966ZM11.754-1v-.456H8.268V-1h1.47v.942c0,.06-.012.078-.084.078s-.276.006-.522,0a1.742,1.742,0,0,1,.156.45A1.968,1.968,0,0,0,10.05.4c.174-.072.21-.21.21-.444V-1Zm-1.17.372a6.489,6.489,0,0,1,.8.924L11.8.006a6.1,6.1,0,0,0-.822-.894Zm5.028-2.964H14.76v-.366h.852Zm0,.762H14.76V-3.18h.852Zm0,.786H14.76v-.378h.852ZM14.22-1.6h3.372V-2.04H16.146v-.378h1.116v-.408H16.146V-3.18h1.1v-.408h-1.1v-.366h1.3v-.438H16.206c.108-.162.222-.348.33-.528l-.606-.108a5.175,5.175,0,0,1-.288.636h-.72a5.231,5.231,0,0,0,.276-.5l-.534-.168a4.149,4.149,0,0,1-1.212,1.518,4.732,4.732,0,0,1,.438.4c.108-.1.222-.2.33-.318Zm-1.428.174c.366-.4.762-.846,1.1-1.266l-.3-.378A12.244,12.244,0,0,1,12.4-1.854Zm1.122-3.138a5,5,0,0,0-.948-.45l-.288.384a4.251,4.251,0,0,1,.936.5Zm-.438.942a5.059,5.059,0,0,0-.954-.414l-.282.378a5.367,5.367,0,0,1,.948.468ZM17.7-1.134H15.258V-1.59h-.57v.456H12.324v.5h2.364V.474h.57V-.636H17.7ZM-10.38,2.984a6.411,6.411,0,0,1-1.464,2.3,3.3,3.3,0,0,1,.312.564,6.407,6.407,0,0,0,.558-.666V8.462h.528V4.37a10.811,10.811,0,0,0,.588-1.218Zm1.206.75h2.022V4.7H-9.174Zm2.892,2.622v-.5H-7.9V5.2h1.308V3.242H-9.7V5.2H-8.46v.654h-1.656v.5h1.362a4.4,4.4,0,0,1-1.554,1.428,2.46,2.46,0,0,1,.384.444A4.882,4.882,0,0,0-8.46,6.776v1.7H-7.9V6.746A5.15,5.15,0,0,0-6.51,8.24,2.494,2.494,0,0,1-6.12,7.8,4.46,4.46,0,0,1-7.6,6.356Zm2.5-3.192H-5.442V3.6h1.656ZM-4.236,6.9v.864H-5.01V6.9Zm.486-.45H-5.49V8.468h.48V8.21h1.26Zm-1.728-.4h1.692V5.624H-5.478Zm1.692-1.248H-5.478V5.24h1.692Zm-1.974-.39h2.184V3.974H-5.76Zm4.278,3.324V5.906H-.366V5.378H-1.482V3.83H-.33V3.3H-3.384V3.83h1.356V7.742h-.606V4.832H-3.15v2.91h-.42V8.27H-.228V7.742Zm2.79-1.71h.936v.516H1.308Zm.936-1.824v.45H1.308v-.45ZM1.308,5.1h.936v.5H1.308Zm1.86,1.452H2.76V4.208h.432V3.722H2.76v-.69H2.244v.69H1.308v-.69H.8v.69H.318v.486H.8v2.34H.246v.486H3.168ZM1.032,7.13a2.963,2.963,0,0,1-.8,1.02,2.845,2.845,0,0,1,.444.33A4.2,4.2,0,0,0,1.56,7.274Zm.864.216a6.208,6.208,0,0,1,.624.912l.45-.27a5.729,5.729,0,0,0-.648-.876ZM3.954,5.972c.012-.192.012-.384.012-.558V5.1H5.022v.876ZM5.022,3.758V4.6H3.966V3.758Zm.54-.5H3.438v2.16a5.562,5.562,0,0,1-.516,2.76,1.961,1.961,0,0,1,.444.324,4.77,4.77,0,0,0,.552-2.022h1.1V7.808c0,.1-.036.12-.126.126s-.378.006-.66-.006a1.914,1.914,0,0,1,.162.528,2.084,2.084,0,0,0,.912-.1c.186-.084.252-.246.252-.54Zm2.664.372V4.04H7.092V3.626ZM7.092,4.88V4.436H8.226V4.88Zm1.662.414V3.206H6.54V8.474h.552V5.294Zm1.008-.4V4.436h1.17v.456Zm1.17-1.266V4.04H9.762V3.626ZM8.376,7.5V7H9.594v.5ZM9.594,6.128V6.6H8.376V6.128Zm1.9-2.922H9.228v2.1h1.7V7.772c0,.1-.03.132-.138.138s-.384.006-.678-.006v-2.2H7.866V8.222h.51v-.3H10a2.5,2.5,0,0,1,.174.546,3.037,3.037,0,0,0,1.044-.1c.216-.1.282-.276.282-.594Z" transform="translate(313.531 2785.667)" fill="#f5f5f5"/>
    <path id="パス_8717" data-name="パス 8717" d="M-13.056-4.386l-.7-.246a4.224,4.224,0,0,1-.132.492,6.637,6.637,0,0,1-.75,1.548c-.48-.366-1.146-.828-1.65-1.146l-.4.48a17.037,17.037,0,0,1,1.656,1.182A6.521,6.521,0,0,1-17.358-.24l.528.474a7.491,7.491,0,0,0,2.3-1.9,13.386,13.386,0,0,1,1.38,1.356l.48-.528A14.7,14.7,0,0,0-14.136-2.2a8.6,8.6,0,0,0,.864-1.7A4.426,4.426,0,0,1-13.056-4.386Zm1.638,1.71v.744c.2-.018.564-.03.894-.03H-7.26c.264,0,.54.024.672.03v-.744c-.15.012-.384.036-.672.036h-3.264C-10.848-2.64-11.22-2.664-11.418-2.676Zm8.526-2.082h-.7a3.816,3.816,0,0,1,.042.516q0,.306-.018.576h-.966c-.234,0-.5-.018-.732-.036v.624c.228-.018.51-.024.732-.024h.912a3.729,3.729,0,0,1-1.1,2.358,3.2,3.2,0,0,1-.69.5l.552.45A4.3,4.3,0,0,0-3.012-3.1h1.536A8.679,8.679,0,0,1-1.758-.678a.317.317,0,0,1-.342.2,6.869,6.869,0,0,1-.87-.072l.072.63c.306.024.654.042.978.042a.669.669,0,0,0,.7-.408,11.68,11.68,0,0,0,.36-2.91c.006-.072.024-.2.042-.306l-.42-.2a2.728,2.728,0,0,1-.414.036h-1.3c.012-.186.024-.384.03-.588C-2.916-4.4-2.9-4.62-2.892-4.758ZM.582-2.676v.744c.2-.018.564-.03.894-.03H4.74c.264,0,.54.024.672.03v-.744c-.15.012-.384.036-.672.036H1.476C1.152-2.64.78-2.664.582-2.676Zm9.654-1.3H9.774v-.354h.462Zm.876,1.05H10.62v-.63h.492Zm-2.166-.63h.438v.63H8.946Zm1.29,0v.63H9.774v-.63Zm-.9-.42H8.484v1.458h3.108V-3.972h-.918v-.354h1.074v-.456H8.3v.456H9.336Zm2.106,2.178v-.42h-2.8v.42ZM8.328-1.836c-.1-.162-.54-.84-.708-1.062v-.354h.636v-.516H7.62V-5.034H7.1v1.266h-.78v.516h.732A6.4,6.4,0,0,1,6.2-1.11a2.824,2.824,0,0,1,.264.48A5.6,5.6,0,0,0,7.1-2.07V.468H7.62v-2.7c.156.282.33.612.408.8ZM8.916-.9a3.291,3.291,0,0,1-.87.858A2.091,2.091,0,0,1,8.394.3a3.843,3.843,0,0,0,.954-.966ZM11.754-1v-.456H8.268V-1h1.47v.942c0,.06-.012.078-.084.078s-.276.006-.522,0a1.742,1.742,0,0,1,.156.45A1.968,1.968,0,0,0,10.05.4c.174-.072.21-.21.21-.444V-1Zm-1.17.372a6.489,6.489,0,0,1,.8.924L11.8.006a6.1,6.1,0,0,0-.822-.894Zm5.028-2.964H14.76v-.366h.852Zm0,.762H14.76V-3.18h.852Zm0,.786H14.76v-.378h.852ZM14.22-1.6h3.372V-2.04H16.146v-.378h1.116v-.408H16.146V-3.18h1.1v-.408h-1.1v-.366h1.3v-.438H16.206c.108-.162.222-.348.33-.528l-.606-.108a5.175,5.175,0,0,1-.288.636h-.72a5.231,5.231,0,0,0,.276-.5l-.534-.168a4.149,4.149,0,0,1-1.212,1.518,4.732,4.732,0,0,1,.438.4c.108-.1.222-.2.33-.318Zm-1.428.174c.366-.4.762-.846,1.1-1.266l-.3-.378A12.244,12.244,0,0,1,12.4-1.854Zm1.122-3.138a5,5,0,0,0-.948-.45l-.288.384a4.251,4.251,0,0,1,.936.5Zm-.438.942a5.059,5.059,0,0,0-.954-.414l-.282.378a5.367,5.367,0,0,1,.948.468ZM17.7-1.134H15.258V-1.59h-.57v.456H12.324v.5h2.364V.474h.57V-.636H17.7ZM-10.38,2.984a6.411,6.411,0,0,1-1.464,2.3,3.3,3.3,0,0,1,.312.564,6.407,6.407,0,0,0,.558-.666V8.462h.528V4.37a10.811,10.811,0,0,0,.588-1.218Zm1.206.75h2.022V4.7H-9.174Zm2.892,2.622v-.5H-7.9V5.2h1.308V3.242H-9.7V5.2H-8.46v.654h-1.656v.5h1.362a4.4,4.4,0,0,1-1.554,1.428,2.46,2.46,0,0,1,.384.444A4.882,4.882,0,0,0-8.46,6.776v1.7H-7.9V6.746A5.15,5.15,0,0,0-6.51,8.24,2.494,2.494,0,0,1-6.12,7.8,4.46,4.46,0,0,1-7.6,6.356Zm2.5-3.192H-5.442V3.6h1.656ZM-4.236,6.9v.864H-5.01V6.9Zm.486-.45H-5.49V8.468h.48V8.21h1.26Zm-1.728-.4h1.692V5.624H-5.478Zm1.692-1.248H-5.478V5.24h1.692Zm-1.974-.39h2.184V3.974H-5.76Zm4.278,3.324V5.906H-.366V5.378H-1.482V3.83H-.33V3.3H-3.384V3.83h1.356V7.742h-.606V4.832H-3.15v2.91h-.42V8.27H-.228V7.742Zm2.79-1.71h.936v.516H1.308Zm.936-1.824v.45H1.308v-.45ZM1.308,5.1h.936v.5H1.308Zm1.86,1.452H2.76V4.208h.432V3.722H2.76v-.69H2.244v.69H1.308v-.69H.8v.69H.318v.486H.8v2.34H.246v.486H3.168ZM1.032,7.13a2.963,2.963,0,0,1-.8,1.02,2.845,2.845,0,0,1,.444.33A4.2,4.2,0,0,0,1.56,7.274Zm.864.216a6.208,6.208,0,0,1,.624.912l.45-.27a5.729,5.729,0,0,0-.648-.876ZM3.954,5.972c.012-.192.012-.384.012-.558V5.1H5.022v.876ZM5.022,3.758V4.6H3.966V3.758Zm.54-.5H3.438v2.16a5.562,5.562,0,0,1-.516,2.76,1.961,1.961,0,0,1,.444.324,4.77,4.77,0,0,0,.552-2.022h1.1V7.808c0,.1-.036.12-.126.126s-.378.006-.66-.006a1.914,1.914,0,0,1,.162.528,2.084,2.084,0,0,0,.912-.1c.186-.084.252-.246.252-.54Zm2.664.372V4.04H7.092V3.626ZM7.092,4.88V4.436H8.226V4.88Zm1.662.414V3.206H6.54V8.474h.552V5.294Zm1.008-.4V4.436h1.17v.456Zm1.17-1.266V4.04H9.762V3.626ZM8.376,7.5V7H9.594v.5ZM9.594,6.128V6.6H8.376V6.128Zm1.9-2.922H9.228v2.1h1.7V7.772c0,.1-.03.132-.138.138s-.384.006-.678-.006v-2.2H7.866V8.222h.51v-.3H10a2.5,2.5,0,0,1,.174.546,3.037,3.037,0,0,0,1.044-.1c.216-.1.282-.276.282-.594Z" transform="translate(313.531 2833.667)" fill="#f5f5f5"/>
    <path id="パス_8718" data-name="パス 8718" d="M-8.184-1.338h-.624V-3.48h-.528v2.142h-.456v.51h3.5v-.51H-7.632V-2.664h1.218V-3.15H-7.632V-4.3a10.053,10.053,0,0,0,1.206-.276l-.384-.444a15.943,15.943,0,0,1-2.844.492,1.6,1.6,0,0,1,.15.462c.42-.036.876-.084,1.32-.15Zm-1.932-1.65-.1.012h-.57c.294-.558.588-1.146.8-1.608l-.384-.12-.09.03h-1.29v.486h1.008c-.264.528-.63,1.23-.954,1.788l.51.15.132-.234h.678a5.164,5.164,0,0,1-.336,1.272,3.3,3.3,0,0,1-.408-.876l-.438.156a3.9,3.9,0,0,0,.6,1.206,2.611,2.611,0,0,1-.84.84,2.349,2.349,0,0,1,.42.39,2.818,2.818,0,0,0,.8-.834,3.788,3.788,0,0,0,2.52.66h1.638A2,2,0,0,1-6.2-.216C-6.552-.2-7.746-.2-8.034-.2A3.475,3.475,0,0,1-10.32-.792,6.766,6.766,0,0,0-9.786-2.9Zm9.1,1.278a8.247,8.247,0,0,1-1.146.756,3.163,3.163,0,0,1-.558-.756Zm.012,0H-.33v-.5H-4.074v-.42H-1.1v-.444h-2.97v-.414H-1.1V-3.93h-2.97v-.414H-.93v-.468H-4.638v2.6H-5.67v.5h1.026V-.186c-.276.042-.534.078-.75.108l.132.51C-4.548.318-3.54.156-2.6-.006L-2.628-.5l-1.446.222V-1.71h.78A3.644,3.644,0,0,0-.576.486a1.93,1.93,0,0,1,.354-.5A4.039,4.039,0,0,1-1.8-.648,9.154,9.154,0,0,0-.558-1.4ZM1.62-5.016a6.411,6.411,0,0,1-1.464,2.3,3.3,3.3,0,0,1,.312.564,6.407,6.407,0,0,0,.558-.666V.462h.528V-3.63a10.811,10.811,0,0,0,.588-1.218Zm1.206.75H4.848V-3.3H2.826ZM5.718-1.644v-.5H4.1V-2.8H5.406V-4.758H2.3V-2.8H3.54v.654H1.884v.5H3.246A4.4,4.4,0,0,1,1.692-.216a2.46,2.46,0,0,1,.384.444A4.882,4.882,0,0,0,3.54-1.224V.48H4.1V-1.254A5.15,5.15,0,0,0,5.49.24,2.494,2.494,0,0,1,5.88-.2,4.46,4.46,0,0,1,4.4-1.644Zm2.5-3.192H6.558V-4.4H8.214ZM7.764-1.1v.864H6.99V-1.1Zm.486-.45H6.51V.468h.48V.21H8.25Zm-1.728-.4H8.214v-.432H6.522ZM8.214-3.192H6.522v.432H8.214ZM6.24-3.582H8.424v-.444H6.24ZM10.518-.258V-2.094h1.116v-.528H10.518V-4.17H11.67V-4.7H8.616v.528H9.972V-.258H9.366v-2.91H8.85v2.91H8.43V.27h3.342V-.258ZM-7.632,3.476v.618c.168-.012.384-.018.576-.018h2.328c.2,0,.444.006.594.018V3.476a5.732,5.732,0,0,1-.588.03H-7.056A5.489,5.489,0,0,1-7.632,3.476Zm3.972,1.65-.426-.264a1.19,1.19,0,0,1-.384.054H-7.542c-.174,0-.4-.018-.636-.042V5.5c.228-.018.492-.024.636-.024h3.054a2.828,2.828,0,0,1-.666,1.2,4.037,4.037,0,0,1-2.1,1.08l.468.54A4.434,4.434,0,0,0-4.638,7.016a4.245,4.245,0,0,0,.882-1.68A1.054,1.054,0,0,1-3.66,5.126Zm1.116.636.294.594a12.276,12.276,0,0,0,2.214-.93V7.514a6.953,6.953,0,0,1-.036.708H.672A4.512,4.512,0,0,1,.63,7.514V5.024A10.121,10.121,0,0,0,2.244,3.71l-.5-.48A7.406,7.406,0,0,1,.072,4.658,9.908,9.908,0,0,1-2.544,5.762ZM4.962,7.448a6.281,6.281,0,0,1-.048.768h.738A7.03,7.03,0,0,1,5.6,7.448V5.594a15.711,15.711,0,0,1,2.268.936l.27-.654A20.338,20.338,0,0,0,5.6,4.916V3.98c0-.21.024-.474.042-.672H4.908a4.343,4.343,0,0,1,.054.672Z" transform="translate(367.5 2833.667)" fill="#f5f5f5"/>
    <path id="パス_8719" data-name="パス 8719" d="M2.088.08a1.758,1.758,0,0,0,1.73-1.969,1.762,1.762,0,0,0-1.73-1.979A1.762,1.762,0,0,0,.358-1.889,1.758,1.758,0,0,0,2.088.08Zm0-.527C1.3-.447.945-1.124.945-1.889S1.3-3.341,2.088-3.341s1.143.686,1.143,1.452S2.874-.447,2.088-.447ZM4.713,0H5.3V-2.416a.9.9,0,0,1,.964-.895,1.794,1.794,0,0,1,.358.04v-.6c-.067,0-.221-.01-.308-.01a1.039,1.039,0,0,0-.994.636H5.28v-.577H4.713Z" transform="translate(415.043 2837)" fill="#fff"/>
    <path id="パス_8720" data-name="パス 8720" d="M2.088.08a1.758,1.758,0,0,0,1.73-1.969,1.762,1.762,0,0,0-1.73-1.979A1.762,1.762,0,0,0,.358-1.889,1.758,1.758,0,0,0,2.088.08Zm0-.527C1.3-.447.945-1.124.945-1.889S1.3-3.341,2.088-3.341s1.143.686,1.143,1.452S2.874-.447,2.088-.447ZM4.713,0H5.3V-2.416a.9.9,0,0,1,.964-.895,1.794,1.794,0,0,1,.358.04v-.6c-.067,0-.221-.01-.308-.01a1.039,1.039,0,0,0-.994.636H5.28v-.577H4.713Z" transform="translate(452.043 2837)" fill="#fff"/>
    <path id="パス_8721" data-name="パス 8721" d="M5,0H21a5,5,0,0,1,0,10H5A5,5,0,0,1,5,0Z" transform="translate(387 2830)" fill="#fff"/>
    <path id="パス_8722" data-name="パス 8722" d="M5,0H21a5,5,0,0,1,0,10H5A5,5,0,0,1,5,0Z" transform="translate(424 2830)" fill="#fff"/>
    <path id="パス_8723" data-name="パス 8723" d="M5,0H22a5,5,0,0,1,0,10H5A5,5,0,0,1,5,0Z" transform="translate(461 2830)" fill="#fff"/>
    <path id="パス_8724" data-name="パス 8724" d="M.264,0H3.03V-.474H1.812c-.222,0-.492.024-.72.042C2.124-1.41,2.814-2.3,2.814-3.18a1.207,1.207,0,0,0-1.278-1.3,1.682,1.682,0,0,0-1.3.648l.318.312a1.232,1.232,0,0,1,.912-.51.773.773,0,0,1,.81.87c0,.756-.636,1.632-2.016,2.838Zm4.8-1.344V-2.532H6.408v1.188Zm3.966,0H6.858V-2.532H8.616v-.42H6.858v-.912h1.9V-4.3H5.178c.1-.2.192-.42.276-.63L5-5.034a5.077,5.077,0,0,1-1.35,2.07,2.762,2.762,0,0,1,.384.282A5.544,5.544,0,0,0,4.95-3.864H6.408v.912H4.62v1.608H3.636v.432H6.408V.462h.45V-.912H9.03Zm2.6-3.072v.5h-1.3v-.5Zm-1.3,1.356v-.528h1.3v.528Zm1.722.342V-4.764H9.888V.462h.444v-3.18Zm.966.8v.552H11.61V-1.92ZM11.61-.45v-.582h1.41V-.45ZM13.434-.1V-2.268H11.208V.2h.4V-.1Zm-.42-2.958v-.534h1.344v.534Zm1.344-1.362v.5H13.014v-.5Zm.45-.348h-2.22v2.052h1.77V-.138c0,.108-.036.144-.138.144S13.746.018,13.38,0a1.643,1.643,0,0,1,.156.456A3.415,3.415,0,0,0,14.544.378c.2-.078.264-.228.264-.51Z" transform="translate(393 2837)" fill="#00c8ac"/>
    <path id="パス_8725" data-name="パス 8725" d="M1.584.078a1.28,1.28,0,0,0,1.41-1.254,1.131,1.131,0,0,0-.93-1.116v-.024a1.1,1.1,0,0,0,.78-1.062,1.13,1.13,0,0,0-1.278-1.1,1.761,1.761,0,0,0-1.23.528l.294.348a1.284,1.284,0,0,1,.912-.426.675.675,0,0,1,.744.7c0,.474-.312.84-1.218.84v.42c1.014,0,1.368.354,1.368.876a.811.811,0,0,1-.894.822A1.454,1.454,0,0,1,.45-.882l-.276.36A1.821,1.821,0,0,0,1.584.078Zm3.48-1.422V-2.532H6.408v1.188Zm3.966,0H6.858V-2.532H8.616v-.42H6.858v-.912h1.9V-4.3H5.178c.1-.2.192-.42.276-.63L5-5.034a5.077,5.077,0,0,1-1.35,2.07,2.762,2.762,0,0,1,.384.282A5.544,5.544,0,0,0,4.95-3.864H6.408v.912H4.62v1.608H3.636v.432H6.408V.462h.45V-.912H9.03Zm2.6-3.072v.5h-1.3v-.5Zm-1.3,1.356v-.528h1.3v.528Zm1.722.342V-4.764H9.888V.462h.444v-3.18Zm.966.8v.552H11.61V-1.92ZM11.61-.45v-.582h1.41V-.45ZM13.434-.1V-2.268H11.208V.2h.4V-.1Zm-.42-2.958v-.534h1.344v.534Zm1.344-1.362v.5H13.014v-.5Zm.45-.348h-2.22v2.052h1.77V-.138c0,.108-.036.144-.138.144S13.746.018,13.38,0a1.643,1.643,0,0,1,.156.456A3.415,3.415,0,0,0,14.544.378c.2-.078.264-.228.264-.51Z" transform="translate(430 2837)" fill="#00c8ac"/>
    <path id="パス_8726" data-name="パス 8726" d="M.69-1.65l1-1.5c.126-.216.246-.432.354-.648H2.07c-.012.228-.03.582-.03.8v1.35ZM2.04,0h.516V-1.212h.582V-1.65H2.556V-4.4H1.95L.12-1.572v.36H2.04ZM5.064-1.344V-2.532H6.408v1.188Zm3.966,0H6.858V-2.532H8.616v-.42H6.858v-.912h1.9V-4.3H5.178c.1-.2.192-.42.276-.63L5-5.034a5.077,5.077,0,0,1-1.35,2.07,2.762,2.762,0,0,1,.384.282A5.544,5.544,0,0,0,4.95-3.864H6.408v.912H4.62v1.608H3.636v.432H6.408V.462h.45V-.912H9.03Zm2.6-3.072v.5h-1.3v-.5Zm-1.3,1.356v-.528h1.3v.528Zm1.722.342V-4.764H9.888V.462h.444v-3.18Zm.966.8v.552H11.61V-1.92ZM11.61-.45v-.582h1.41V-.45ZM13.434-.1V-2.268H11.208V.2h.4V-.1Zm-.42-2.958v-.534h1.344v.534Zm1.344-1.362v.5H13.014v-.5Zm.45-.348h-2.22v2.052h1.77V-.138c0,.108-.036.144-.138.144S13.746.018,13.38,0a1.643,1.643,0,0,1,.156.456A3.415,3.415,0,0,0,14.544.378c.2-.078.264-.228.264-.51Z" transform="translate(467 2837)" fill="#00c8ac"/>
    <path id="パス_8727" data-name="パス 8727" d="M-5.092-3.906H-7.507v-.3h2.415Zm0,.588H-7.507v-.315h2.415Zm0,.6H-7.507v-.322h2.415ZM-8-4.494v2.058h3.409V-4.494h-1.68l.126-.35h2.128v-.378H-5.2c.119-.154.259-.336.385-.532l-.49-.112a4.96,4.96,0,0,1-.392.644H-6.877a2.344,2.344,0,0,0-.392-.63l-.42.105a2.678,2.678,0,0,1,.315.525H-8.55v.378h1.918c-.028.112-.056.238-.084.35Zm-.749-.357a4.485,4.485,0,0,0-.959-.861l-.35.28a4.149,4.149,0,0,1,.938.9ZM-9.1-.574A4.57,4.57,0,0,1-8.074.259L-7.7-.07a5.437,5.437,0,0,0-1.043-.8Zm3.591-1.141c.546,0,1.071-.014,1.435-.028a1.85,1.85,0,0,1,.14-.42c-.889.049-2.7.07-3.5.042a1.686,1.686,0,0,1-1.428-.6V-4.039h-1.4v.406h.924v.987a10.265,10.265,0,0,1-.966.56l.21.434c.371-.238.714-.469,1.057-.707a2.015,2.015,0,0,0,1.61.63c.35.014.875.021,1.421.014v.427h-4.284v.406H-6v.854c0,.091-.028.119-.147.119s-.5.014-.952,0a1.568,1.568,0,0,1,.175.441A4.173,4.173,0,0,0-5.778.455c.217-.07.273-.2.273-.476V-.882h1.526v-.406H-5.505Zm3.752-3.717v.518H-.031c.014.266.042.574.091.9l-.308-.049A5.667,5.667,0,0,1-3.083.105a3.407,3.407,0,0,1,.469.413A6.188,6.188,0,0,0,.179-3.388,6.041,6.041,0,0,0,2.958.511a2.474,2.474,0,0,1,.42-.434,5.992,5.992,0,0,1-2.9-5.509ZM5.422-.511V-2.464H8.894V-.511ZM8.894-4.865v1.89H5.422v-1.89Zm-4-.511V.455h.525V0H8.894V.427H9.44v-5.8Z" transform="translate(293 2755)" fill="#363636"/>
    <path id="パス_8728" data-name="パス 8728" d="M-4.963,0h2.814V-.532H-3.178V-5.138h-.49a3.091,3.091,0,0,1-1.064.371v.406h.91V-.532H-4.963ZM.6-1.568V-2.954H2.17v1.386Zm4.627,0H2.7V-2.954H4.746v-.49H2.7V-4.508H4.907v-.5H.735c.112-.238.224-.49.322-.735L.532-5.873A5.924,5.924,0,0,1-1.043-3.458a3.222,3.222,0,0,1,.448.329A6.468,6.468,0,0,0,.469-4.508h1.7v1.064H.084v1.876H-1.064v.5H2.17v1.6H2.7v-1.6H5.229Z" transform="translate(336 2755)" fill="#363636"/>
    <path id="パス_8729" data-name="パス 8729" d="M-5.271,0h3.227V-.553H-3.465c-.259,0-.574.028-.84.049C-3.1-1.645-2.3-2.688-2.3-3.71A1.408,1.408,0,0,0-3.787-5.229,1.962,1.962,0,0,0-5.3-4.473l.371.364a1.437,1.437,0,0,1,1.064-.6.9.9,0,0,1,.945,1.015c0,.882-.742,1.9-2.352,3.311ZM.6-1.568V-2.954H2.17v1.386Zm4.627,0H2.7V-2.954H4.746v-.49H2.7V-4.508H4.907v-.5H.735c.112-.238.224-.49.322-.735L.532-5.873A5.924,5.924,0,0,1-1.043-3.458a3.222,3.222,0,0,1,.448.329A6.468,6.468,0,0,0,.469-4.508h1.7v1.064H.084v1.876H-1.064v.5H2.17v1.6H2.7v-1.6H5.229Z" transform="translate(379 2755)" fill="#363636"/>
    <path id="パス_8730" data-name="パス 8730" d="M-3.731.091A1.494,1.494,0,0,0-2.086-1.372a1.32,1.32,0,0,0-1.085-1.3V-2.7a1.281,1.281,0,0,0,.91-1.239A1.318,1.318,0,0,0-3.752-5.229a2.054,2.054,0,0,0-1.435.616l.343.406A1.5,1.5,0,0,1-3.78-4.7a.788.788,0,0,1,.868.812c0,.553-.364.98-1.421.98v.49c1.183,0,1.6.413,1.6,1.022A.946.946,0,0,1-3.78-.441a1.7,1.7,0,0,1-1.274-.588l-.322.42A2.124,2.124,0,0,0-3.731.091ZM.6-1.568V-2.954H2.17v1.386Zm4.627,0H2.7V-2.954H4.746v-.49H2.7V-4.508H4.907v-.5H.735c.112-.238.224-.49.322-.735L.532-5.873A5.924,5.924,0,0,1-1.043-3.458a3.222,3.222,0,0,1,.448.329A6.468,6.468,0,0,0,.469-4.508h1.7v1.064H.084v1.876H-1.064v.5H2.17v1.6H2.7v-1.6H5.229Z" transform="translate(422 2755)" fill="#363636"/>
    <path id="パス_8731" data-name="パス 8731" d="M-4.774-1.925l1.169-1.75c.147-.252.287-.5.413-.756h.028c-.014.266-.035.679-.035.931v1.575ZM-3.2,0h.6V-1.414h.679v-.511H-2.6V-5.138H-3.3l-2.135,3.3v.42H-3.2ZM.6-1.568V-2.954H2.17v1.386Zm4.627,0H2.7V-2.954H4.746v-.49H2.7V-4.508H4.907v-.5H.735c.112-.238.224-.49.322-.735L.532-5.873A5.924,5.924,0,0,1-1.043-3.458a3.222,3.222,0,0,1,.448.329A6.468,6.468,0,0,0,.469-4.508h1.7v1.064H.084v1.876H-1.064v.5H2.17v1.6H2.7v-1.6H5.229Z" transform="translate(465 2755)" fill="#363636"/>
    <path id="パス_8732" data-name="パス 8732" d="M-3.752.091a1.666,1.666,0,0,0,1.68-1.764A1.464,1.464,0,0,0-3.619-3.3a1.492,1.492,0,0,0-.763.2l.126-1.484h1.939v-.553h-2.5L-4.977-2.73l.343.21a1.4,1.4,0,0,1,.854-.3A1.038,1.038,0,0,1-2.716-1.652,1.109,1.109,0,0,1-3.808-.441a1.688,1.688,0,0,1-1.26-.567l-.315.42A2.18,2.18,0,0,0-3.752.091ZM.6-1.568V-2.954H2.17v1.386Zm4.627,0H2.7V-2.954H4.746v-.49H2.7V-4.508H4.907v-.5H.735c.112-.238.224-.49.322-.735L.532-5.873A5.924,5.924,0,0,1-1.043-3.458a3.222,3.222,0,0,1,.448.329A6.468,6.468,0,0,0,.469-4.508h1.7v1.064H.084v1.876H-1.064v.5H2.17v1.6H2.7v-1.6H5.229Z" transform="translate(508 2755)" fill="#363636"/>
    <path id="パス_8733" data-name="パス 8733" d="M2,0,4,3H0Z" transform="translate(295.5 2762) rotate(180)" fill="#363636"/>
    <path id="パス_8734" data-name="パス 8734" d="M2,0,4,3H0Z" transform="translate(338.5 2762) rotate(180)" fill="#363636"/>
    <path id="パス_8735" data-name="パス 8735" d="M2,0,4,3H0Z" transform="translate(381.5 2762) rotate(180)" fill="#363636"/>
    <path id="パス_8736" data-name="パス 8736" d="M2,0,4,3H0Z" transform="translate(424.5 2762) rotate(180)" fill="#363636"/>
    <path id="パス_8737" data-name="パス 8737" d="M2,0,4,3H0Z" transform="translate(467.5 2762) rotate(180)" fill="#363636"/>
    <path id="パス_8738" data-name="パス 8738" d="M2,0,4,3H0Z" transform="translate(510.5 2762) rotate(180)" fill="#363636"/>
    <path id="パス_8635" data-name="パス 8635" d="M113.372,82.007h-15.3a1.35,1.35,0,0,0-1.35,1.351v9a1.35,1.35,0,0,0,1.35,1.35h6.75v.9h-4.95a.45.45,0,0,0-.45.449v.9a.45.45,0,0,0,.45.45h11.7a.45.45,0,0,0,.449-.45v-.9a.45.45,0,0,0-.449-.449h-4.95v-.9h6.75a1.35,1.35,0,0,0,1.35-1.35v-9a1.35,1.35,0,0,0-1.35-1.351M113.2,92.219H98.245V83.5H113.2Z" transform="translate(162.278 2664.993)" fill="#818181"/>
  </g>
</svg>
