<svg xmlns="http://www.w3.org/2000/svg" width="900" height="108" viewBox="0 0 900 108">
  <g id="グループ_4178" data-name="グループ 4178" transform="translate(-233 -1883)">
    <path id="合体_3" data-name="合体 3" d="M7388,77H6859V23h529V2l54,48-54,48Z" transform="translate(-6309 1887)" fill="#b4b4b4"/>
    <path id="パス_8703" data-name="パス 8703" d="M10.812-3.791H9.044V-9.86h-1.5v6.069H6.256v1.445h9.911V-3.791H12.376V-7.548h3.451V-8.925H12.376v-3.247a28.483,28.483,0,0,0,3.417-.782l-1.088-1.258a45.173,45.173,0,0,1-8.058,1.394,4.541,4.541,0,0,1,.425,1.309c1.19-.1,2.482-.238,3.74-.425ZM5.338-8.466l-.289.034H3.434c.833-1.581,1.666-3.247,2.278-4.556l-1.088-.34-.255.085H.714v1.377H3.57C2.822-10.37,1.785-8.381.867-6.8l1.445.425.374-.663H4.607a14.631,14.631,0,0,1-.952,3.6A9.347,9.347,0,0,1,2.5-5.916l-1.241.442a11.049,11.049,0,0,0,1.7,3.417A7.4,7.4,0,0,1,.578.323a6.655,6.655,0,0,1,1.19,1.105A7.984,7.984,0,0,0,4.046-.935c1.8,1.5,4.2,1.87,7.14,1.87h4.641a5.654,5.654,0,0,1,.612-1.547c-1,.034-4.386.034-5.2.034-2.6,0-4.828-.306-6.477-1.666A19.171,19.171,0,0,0,6.273-8.211ZM31.11-4.845A23.366,23.366,0,0,1,27.863-2.7a8.962,8.962,0,0,1-1.581-2.142Zm.034,0h1.921V-6.256H22.457v-1.19h8.415V-8.7H22.457V-9.877h8.415v-1.258H22.457v-1.173h8.908v-1.326H20.859v7.378H17.935v1.411h2.907V-.527c-.782.119-1.513.221-2.125.306l.374,1.445C21.114.9,23.97.442,26.639-.017l-.085-1.394-4.1.629V-4.845h2.21a10.324,10.324,0,0,0,7.7,6.222,5.47,5.47,0,0,1,1-1.411,11.444,11.444,0,0,1-4.471-1.8,25.936,25.936,0,0,0,3.519-2.142Zm7.446-9.367A18.166,18.166,0,0,1,34.442-7.7a9.357,9.357,0,0,1,.884,1.6A18.154,18.154,0,0,0,36.907-7.99v9.3h1.5V-10.285a30.631,30.631,0,0,0,1.666-3.451Zm3.417,2.125h5.729V-9.35H42.007ZM50.2-4.658V-6.086h-4.59V-7.939h3.706v-5.542H40.528v5.542h3.5v1.853H39.338v1.428H43.2a12.464,12.464,0,0,1-4.4,4.046A6.971,6.971,0,0,1,39.882.646,13.832,13.832,0,0,0,44.03-3.468V1.36h1.581V-3.553A14.593,14.593,0,0,0,49.555.68a7.066,7.066,0,0,1,1.1-1.258,12.636,12.636,0,0,1-4.2-4.08ZM57.273-13.7H52.581v1.241h4.692ZM56-3.111V-.663H53.805V-3.111Zm1.377-1.275h-4.93V1.326h1.36V.6h3.57Zm-4.9-1.122h4.794V-6.732H52.479Zm4.794-3.536H52.479V-7.82h4.794ZM51.68-10.149h6.188v-1.258H51.68ZM63.8-.731v-5.2h3.162v-1.5H63.8v-4.386h3.264v-1.5H58.412v1.5h3.842V-.731H60.537V-8.976H59.075V-.731h-1.19v1.5h9.469v-1.5ZM79.577-6.46a11.326,11.326,0,0,0,3.366,8.126l1.292-.612A10.58,10.58,0,0,1,81.107-6.46a10.58,10.58,0,0,1,3.128-7.514l-1.292-.612A11.326,11.326,0,0,0,79.577-6.46ZM97.444-6.1H90.8V-7.582h6.647ZM90.8-3.3V-4.777h6.647V-3.3Zm10.149-7.361v-1.479H92.5c.221-.578.408-1.173.6-1.751l-1.615-.374a18.364,18.364,0,0,1-.714,2.125H86.105v1.479h4.012a14.094,14.094,0,0,1-4.471,5.338A8.787,8.787,0,0,1,86.683-4.1a13.363,13.363,0,0,0,2.55-2.346V1.343H90.8V-1.972h6.647V-.51c0,.255-.085.34-.374.34-.289.017-1.309.017-2.312-.034a5.939,5.939,0,0,1,.493,1.53,8.769,8.769,0,0,0,2.958-.255c.612-.238.782-.714.782-1.564V-8.959H90.984c.306-.544.612-1.122.884-1.7Zm13.209-.459a13.713,13.713,0,0,0-2.686-2.057l-.8,1.071a12.3,12.3,0,0,1,2.652,2.193Zm-.731,4.046a14.216,14.216,0,0,0-2.839-1.921l-.748,1.139A13.029,13.029,0,0,1,112.642-5.8Zm-5.083-6.205A30.081,30.081,0,0,1,107.3-9.4l1.02.323c.425-.986.952-2.567,1.377-3.893Zm-3.4,3.859a17.339,17.339,0,0,0-.935-3.791l-1.139.289a16.573,16.573,0,0,1,.85,3.842ZM106.93-7.14h2.652V-8.619H106.93v-5.559h-1.479v5.559h-2.635V-7.14h2.159a16.8,16.8,0,0,1-2.448,4.879,8.456,8.456,0,0,1,.765,1.581,17.658,17.658,0,0,0,2.159-4.5V1.326h1.479V-5.168c.561.9,1.207,1.972,1.5,2.584l1-1.241c-.357-.51-1.989-2.584-2.5-3.128ZM118.4-3.723l-.221-1.445-1.887.323v-9.4h-1.479v9.673l-5.287.952.255,1.462,5.032-.918v4.42H116.3V-3.349Zm11.985-9.724h-1.938A13.08,13.08,0,0,1,128.6-11.9c.017.408.034.918.051,1.479h-5.933a13.341,13.341,0,0,1-1.7-.119v1.8q.841-.051,1.734-.051h5.185a20.729,20.729,0,0,1-7.667,6.256L121.5-1.139a23.55,23.55,0,0,0,7.225-6.086c.034,2.074.051,4.2.051,5.474,0,.459-.17.68-.629.68a17.291,17.291,0,0,1-2.329-.187l.136,1.751c.9.051,1.887.1,2.822.1,1.139,0,1.717-.544,1.717-1.53-.017-2.193-.085-5.338-.136-7.854h2.482c.425,0,1.037.017,1.5.034V-10.54a13.68,13.68,0,0,1-1.581.119h-2.431c0-.578-.017-1.071-.017-1.479A9.444,9.444,0,0,1,130.39-13.447Zm19.295,1.122a1.074,1.074,0,0,1,1.054-1.071,1.089,1.089,0,0,1,1.071,1.071,1.074,1.074,0,0,1-1.071,1.054A1.059,1.059,0,0,1,149.685-12.325Zm-.9,0a2.109,2.109,0,0,0,.051.459,5.772,5.772,0,0,1-.731.034h-8.245c-.561,0-1.36-.068-1.836-.119v1.9c.442-.034,1.122-.068,1.836-.068h8.364A12.318,12.318,0,0,1,146.1-4.9,11.407,11.407,0,0,1,139.451-.85l1.462,1.6a13.222,13.222,0,0,0,6.749-4.607,17.319,17.319,0,0,0,2.55-6.239c.017-.1.051-.221.068-.323a2.11,2.11,0,0,0,.459.051,1.959,1.959,0,0,0,1.972-1.955,1.97,1.97,0,0,0-1.972-1.955A1.955,1.955,0,0,0,148.784-12.325Zm9.384-.918-.969,1.462c1.054.595,2.873,1.8,3.74,2.431l1-1.462C161.143-11.39,159.222-12.648,158.168-13.243Zm-2.8,12.121,1,1.751a19.918,19.918,0,0,0,5.644-2.108,20.238,20.238,0,0,0,6.647-6.086l-1.037-1.8a17.485,17.485,0,0,1-6.511,6.307A18.669,18.669,0,0,1,155.363-1.122Zm.221-8.262-.969,1.462a42.546,42.546,0,0,1,3.791,2.38l.986-1.513C158.593-7.616,156.655-8.823,155.584-9.384Zm18.122-.068V-7.8c.357-.017,1.377-.051,1.9-.051h6v2.482H175.78c-.6,0-1.275-.034-1.666-.051v1.615c.374-.034,1.071-.034,1.683-.034h5.814v2.686h-6.664a13.7,13.7,0,0,1-1.428-.068V.459c.289-.017.918-.051,1.428-.051h6.664c0,.272,0,.527-.017.68h1.7c-.017-.272-.034-.748-.034-1.02V-8.415c0-.34,0-.782.017-.986-.238,0-.765.017-1.156.017H175.61C175.083-9.384,174.1-9.4,173.706-9.452Zm17.255-3.213-1.241,1.326a36.873,36.873,0,0,1,4.25,3.6l1.343-1.377A35.673,35.673,0,0,0,190.961-12.665ZM189.21-1.292,190.349.459a18.744,18.744,0,0,0,6.511-2.533,17.382,17.382,0,0,0,5.967-6.154l-1.037-1.853a16.186,16.186,0,0,1-5.9,6.409A17.664,17.664,0,0,1,189.21-1.292ZM209.423-6.46a11.326,11.326,0,0,0-3.366-8.126l-1.292.612a10.58,10.58,0,0,1,3.128,7.514,10.58,10.58,0,0,1-3.128,7.514l1.292.612A11.326,11.326,0,0,0,209.423-6.46Z" transform="translate(728 1944)" fill="#f5f5f5"/>
    <path id="パス_8704" data-name="パス 8704" d="M43.516,5.045a6,6,0,0,1,8.969,0L87.123,44.014A6,6,0,0,1,82.639,54H13.361a6,6,0,0,1-4.484-9.986Z" transform="translate(596 1889) rotate(90)" fill="#fff"/>
    <path id="合体_4" data-name="合体 4" d="M7060,77H6859V23h201V2l54,48-54,48Z" transform="translate(-6527 1887)" fill="#d53434"/>
    <path id="パス_8705" data-name="パス 8705" d="M1.462,0H8.6V-1.615H6.154V-12.529H4.675a7.358,7.358,0,0,1-2.72.969v1.241H4.2v8.7H1.462ZM14.841-3.944V-6.953h3.417v3.009Zm11.016,0H19.89V-6.953h4.743V-8.432H19.89v-2.346h5.134v-1.53H15.181c.221-.51.459-1.071.663-1.6l-1.6-.425A13.755,13.755,0,0,1,10.54-8.568a12.572,12.572,0,0,1,1.377,1.02,15.466,15.466,0,0,0,2.448-3.23h3.893v2.346h-5v4.488H10.523v1.53h7.735V1.343H19.89V-2.414h5.967ZM31.28-14.212A18.166,18.166,0,0,1,27.132-7.7a9.357,9.357,0,0,1,.884,1.6A18.153,18.153,0,0,0,29.6-7.99v9.3h1.5V-10.285a30.632,30.632,0,0,0,1.666-3.451ZM34.7-12.087h5.729V-9.35H34.7Zm8.194,7.429V-6.086H38.3V-7.939h3.706v-5.542H33.218v5.542h3.5v1.853H32.028v1.428h3.859a12.464,12.464,0,0,1-4.4,4.046A6.971,6.971,0,0,1,32.572.646,13.833,13.833,0,0,0,36.72-3.468V1.36H38.3V-3.553A14.593,14.593,0,0,0,42.245.68a7.066,7.066,0,0,1,1.1-1.258,12.636,12.636,0,0,1-4.2-4.08ZM49.963-13.7H45.271v1.241h4.692ZM48.688-3.111V-.663H46.5V-3.111Zm1.377-1.275h-4.93V1.326H46.5V.6h3.57Zm-4.9-1.122h4.794V-6.732H45.169Zm4.794-3.536H45.169V-7.82h4.794ZM44.37-10.149h6.188v-1.258H44.37ZM56.491-.731v-5.2h3.162v-1.5H56.491v-4.386h3.264v-1.5H51.1v1.5h3.842V-.731H53.227V-8.976H51.765V-.731h-1.19v1.5h9.469v-1.5ZM72.267-6.46a11.326,11.326,0,0,0,3.366,8.126l1.292-.612A10.58,10.58,0,0,1,73.8-6.46a10.58,10.58,0,0,1,3.128-7.514l-1.292-.612A11.326,11.326,0,0,0,72.267-6.46ZM89.981-8.449H88.3V-11h1.683Zm0,3.978H88.3v-2.55h1.683ZM82.4-7.021H83.98v2.55H82.4Zm4.556,0v2.55H85.306v-2.55ZM85.306-8.449V-11h1.649v2.55ZM82.4-11H83.98v2.55H82.4Zm-1.428,2.55H78.659v1.428h2.312v2.55H78.914v1.428h14.6V-4.471H91.46v-2.55h2.295V-8.449H91.46V-11h1.666v-1.394H82.671a11.892,11.892,0,0,0,.816-1.428l-1.547-.442a11.428,11.428,0,0,1-3.57,4.25,10.34,10.34,0,0,1,1.309,1.037A14.259,14.259,0,0,0,80.971-10.2ZM80,1.36a8.939,8.939,0,0,0,2.04-3.468l-1.53-.374A7.583,7.583,0,0,1,78.506.731Zm3.485-3.349a18.785,18.785,0,0,1,.34,3.162L85.374.952a18.865,18.865,0,0,0-.425-3.094Zm3.4.017a16.654,16.654,0,0,1,.952,3.162L89.4.884A15.743,15.743,0,0,0,88.366-2.21Zm3.383-.1A21.265,21.265,0,0,1,92.412,1.36L94.01.8A21.319,21.319,0,0,0,91.766-2.55Zm9.673-9.911v2.652h1.343v-1.513h8.041v1.513h1.394v-2.652h-2.057c.357-.459.8-1.071,1.207-1.666l-1.513-.442a11.868,11.868,0,0,1-1.037,1.938l.459.17h-1.666v-2.159h-1.53v2.159h-1.6l.459-.187a9.4,9.4,0,0,0-1.071-1.887l-1.207.408a9.276,9.276,0,0,1,.884,1.666Zm2.278,9.112h6.171v.765h-6.171Zm0-1.513h6.171v.731h-6.171Zm0-1.513h6.171v.714h-6.171Zm-1.445,4.692h9.129v-5.61h-9.129Zm6.851-7.123h-4.692v-.884h4.692Zm-6.069-1.751v2.618h7.5v-2.618ZM99.042-14.2A18.9,18.9,0,0,1,95.013-7.65a12.3,12.3,0,0,1,.867,1.6A19.73,19.73,0,0,0,97.342-7.82V1.309h1.5V-10.166a27.44,27.44,0,0,0,1.683-3.587Zm4.3,13.005A15.455,15.455,0,0,1,99.382.289a5.6,5.6,0,0,1,.884,1.054,14.925,14.925,0,0,0,4.2-1.751Zm2.7.918a24.976,24.976,0,0,1,3.876,1.649l1.207-.952a28.084,28.084,0,0,0-4.182-1.615ZM117.113-6.46a11.326,11.326,0,0,0-3.366-8.126l-1.292.612a10.58,10.58,0,0,1,3.128,7.514,10.58,10.58,0,0,1-3.128,7.514l1.292.612A11.326,11.326,0,0,0,117.113-6.46Z" transform="translate(368 1944)" fill="#fff"/>
    <g id="パス_8706" data-name="パス 8706" transform="translate(233 1883)" fill="#fff">
      <path d="M 54 107 C 46.84460067749023 107 39.90377044677734 105.5988311767578 33.37031555175781 102.8354110717773 C 27.05922889709473 100.1660461425781 21.39109992980957 96.34441375732422 16.52334213256836 91.47665405273438 C 11.65558528900146 86.60890197753906 7.833957195281982 80.94077301025391 5.164585590362549 74.62968444824219 C 2.401171445846558 68.09622955322266 1 61.15539932250977 1 54 C 1 46.84460067749023 2.401171445846558 39.90377044677734 5.164585590362549 33.37031555175781 C 7.833957195281982 27.05922889709473 11.65558528900146 21.39109992980957 16.52334213256836 16.52334213256836 C 21.39109992980957 11.65558528900146 27.05922889709473 7.833957195281982 33.37031555175781 5.164585590362549 C 39.90377044677734 2.401171445846558 46.84460067749023 1 54 1 C 61.15539932250977 1 68.09622955322266 2.401171445846558 74.62968444824219 5.164585590362549 C 80.94077301025391 7.833957195281982 86.60890197753906 11.65558528900146 91.47665405273438 16.52334213256836 C 96.34441375732422 21.39109992980957 100.1660461425781 27.05922889709473 102.8354110717773 33.37031555175781 C 105.5988311767578 39.90377044677734 107 46.84460067749023 107 54 C 107 61.15539932250977 105.5988311767578 68.09622955322266 102.8354110717773 74.62968444824219 C 100.1660461425781 80.94077301025391 96.34441375732422 86.60890197753906 91.47665405273438 91.47665405273438 C 86.60890197753906 96.34441375732422 80.94077301025391 100.1660461425781 74.62968444824219 102.8354110717773 C 68.09622955322266 105.5988311767578 61.15539932250977 107 54 107 Z" stroke="none"/>
      <path d="M 54 2 C 46.97916793823242 2 40.16940307617188 3.374603271484375 33.75988006591797 6.085601806640625 C 27.56798553466797 8.704536437988281 22.00669097900391 12.45421600341797 17.23044586181641 17.23044586181641 C 12.45421600341797 22.00669097900391 8.704536437988281 27.56798553466797 6.085601806640625 33.75988006591797 C 3.374603271484375 40.16940307617188 2 46.97916793823242 2 54 C 2 61.02083206176758 3.374603271484375 67.83059692382812 6.085601806640625 74.24012756347656 C 8.704536437988281 80.43201446533203 12.45421600341797 85.99330902099609 17.23044586181641 90.76955413818359 C 22.00669097900391 95.54578399658203 27.56798553466797 99.29546356201172 33.75988006591797 101.9143981933594 C 40.16940307617188 104.6253967285156 46.97916793823242 106 54 106 C 61.02083206176758 106 67.83059692382812 104.6253967285156 74.24012756347656 101.9143981933594 C 80.43201446533203 99.29546356201172 85.99330902099609 95.54578399658203 90.76955413818359 90.76955413818359 C 95.54578399658203 85.99330902099609 99.29546356201172 80.43201446533203 101.9143981933594 74.24012756347656 C 104.6253967285156 67.83059692382812 106 61.02083206176758 106 54 C 106 46.97916793823242 104.6253967285156 40.16940307617188 101.9143981933594 33.75988006591797 C 99.29546356201172 27.56798553466797 95.54578399658203 22.00669097900391 90.76955413818359 17.23044586181641 C 85.99330902099609 12.45421600341797 80.43201446533203 8.704536437988281 74.24012756347656 6.085601806640625 C 67.83059692382812 3.374603271484375 61.02083206176758 2 54 2 M 54 0 C 83.82337188720703 0 108 24.17662811279297 108 54 C 108 83.82337188720703 83.82337188720703 108 54 108 C 24.17662811279297 108 0 83.82337188720703 0 54 C 0 24.17662811279297 24.17662811279297 0 54 0 Z" stroke="none" fill="#d53434"/>
    </g>
    <path id="パス_8707" data-name="パス 8707" d="M1.278-4.716A13.087,13.087,0,0,1,.324-.54,10.58,10.58,0,0,1,1.962.234,16.642,16.642,0,0,0,3.042-4.41ZM15.066-10.17v5.04c-.54-1.134-1.278-2.448-1.98-3.618.072-.45.108-.936.162-1.422Zm-5.526,0H11.3A10.742,10.742,0,0,1,9.54-4.3Zm7.452-1.962H13.356c.036-.99.054-2.034.072-3.114h-2c0,1.1-.018,2.124-.036,3.114H7.65v5.886A18.243,18.243,0,0,0,6.228-9.432l-1.422.594c.216.4.432.846.63,1.3L3.708-7.47c1.134-1.458,2.376-3.276,3.366-4.842l-1.746-.81a32.643,32.643,0,0,1-1.6,2.916c-.18-.216-.378-.468-.612-.72.648-1.008,1.368-2.394,2.016-3.618l-1.854-.684A22.818,22.818,0,0,1,1.962-12.1c-.144-.126-.288-.252-.414-.36L.522-11A17.663,17.663,0,0,1,2.646-8.55c-.288.414-.576.81-.846,1.152L.5-7.344.684-5.49l2.61-.162V1.584H5.148V-5.778l.918-.072a8.63,8.63,0,0,1,.234.918l1.35-.612V-2.25A20.694,20.694,0,0,0,6.7-4.86l-1.512.468A21.3,21.3,0,0,1,6.228-1.044L7.65-1.566v3.1H9.54v-4.9a4.515,4.515,0,0,1,.846.99A8.364,8.364,0,0,0,12.51-6.012a34.5,34.5,0,0,1,1.566,3.348l.99-.954V-.684c0,.252-.072.324-.306.324-.252,0-1.08.018-1.818-.018a6.49,6.49,0,0,1,.594,1.962,5.954,5.954,0,0,0,2.682-.378c.612-.324.774-.864.774-1.836Zm5.166-2.106v2.178h4.1c.054.612.126,1.26.252,1.944l-1.1-.2c-.99,4.734-3.132,8.208-6.876,10.1A17.1,17.1,0,0,1,20.5,1.53c3.132-1.872,5.292-4.86,6.642-8.892a15.209,15.209,0,0,0,6.624,8.874A11.524,11.524,0,0,1,35.5-.36c-6.624-3.906-7.11-10.476-7.11-13.878Z" transform="translate(269 1945)" fill="#d53434"/>
  </g>
</svg>
