<svg xmlns="http://www.w3.org/2000/svg" width="167" height="601" viewBox="0 0 167 601">
  <g id="グループ_4407" data-name="グループ 4407" transform="translate(-103 -2133)">
    <path id="パス_8708" data-name="パス 8708" d="M0,0H320V124H0Z" transform="translate(250 2344) rotate(90)" fill="#b4b4b4"/>
    <path id="パス_8696" data-name="パス 8696" d="M49.069,195.2l80-82.494-80-82.506Z" transform="translate(298.204 2604.931) rotate(90)" fill="#b4b4b4"/>
    <path id="パス_8709" data-name="パス 8709" d="M-20.46-3.345h-1.56V-8.7h-1.32v5.355h-1.14V-2.07h8.745V-3.345H-19.08V-6.66h3.045V-7.875H-19.08V-10.74a25.132,25.132,0,0,0,3.015-.69l-.96-1.11a39.859,39.859,0,0,1-7.11,1.23,4.006,4.006,0,0,1,.375,1.155c1.05-.09,2.19-.21,3.3-.375ZM-25.29-7.47l-.255.03H-26.97c.735-1.4,1.47-2.865,2.01-4.02l-.96-.3-.225.075H-29.37v1.215h2.52C-27.51-9.15-28.425-7.4-29.235-6l1.275.375.33-.585h1.695a12.91,12.91,0,0,1-.84,3.18A8.247,8.247,0,0,1-27.8-5.22l-1.095.39a9.749,9.749,0,0,0,1.5,3.015,6.528,6.528,0,0,1-2.1,2.1,5.872,5.872,0,0,1,1.05.975A7.045,7.045,0,0,0-26.43-.825c1.59,1.32,3.7,1.65,6.3,1.65h4.095a4.989,4.989,0,0,1,.54-1.365c-.885.03-3.87.03-4.59.03-2.3,0-4.26-.27-5.715-1.47a16.915,16.915,0,0,0,1.335-5.265ZM-2.55-4.275a20.617,20.617,0,0,1-2.865,1.89,7.908,7.908,0,0,1-1.4-1.89Zm.03,0h1.7V-5.52h-9.36V-6.57H-2.76V-7.68h-7.425V-8.715H-2.76v-1.11h-7.425V-10.86h7.86v-1.17h-9.27v6.51h-2.58v1.245h2.565v3.81c-.69.105-1.335.2-1.875.27l.33,1.275C-11.37.8-8.85.39-6.495-.015l-.075-1.23-3.615.555V-4.275h1.95a9.11,9.11,0,0,0,6.8,5.49A4.826,4.826,0,0,1-.555-.03,10.1,10.1,0,0,1-4.5-1.62,22.885,22.885,0,0,0-1.395-3.51ZM4.05-12.54A16.029,16.029,0,0,1,.39-6.8a8.256,8.256,0,0,1,.78,1.41A16.018,16.018,0,0,0,2.565-7.05V1.155h1.32V-9.075a27.028,27.028,0,0,0,1.47-3.045Zm3.015,1.875H12.12V-8.25H7.065ZM14.3-4.11V-5.37h-4.05V-7.005h3.27V-11.9H5.76v4.89H8.85V-5.37H4.71v1.26h3.4A11,11,0,0,1,4.23-.54,6.151,6.151,0,0,1,5.19.57,12.205,12.205,0,0,0,8.85-3.06V1.2h1.4V-3.135A12.876,12.876,0,0,0,13.725.6,6.234,6.234,0,0,1,14.7-.51,11.149,11.149,0,0,1,11-4.11Zm6.24-7.98H16.4V-11h4.14ZM19.41-2.745v2.16H17.475v-2.16ZM20.625-3.87h-4.35V1.17h1.2V.525h3.15Zm-4.32-.99h4.23V-5.94h-4.23Zm4.23-3.12h-4.23V-6.9h4.23ZM15.6-8.955h5.46v-1.11H15.6ZM26.3-.645v-4.59h2.79v-1.32H26.3v-3.87h2.88v-1.32H21.54v1.32h3.39v9.78H23.415V-7.92h-1.29V-.645h-1.05V.675H29.43V-.645ZM-57.285,21.3a9.994,9.994,0,0,0,2.97,7.17l1.14-.54a9.335,9.335,0,0,1-2.76-6.63,9.335,9.335,0,0,1,2.76-6.63l-1.14-.54A9.994,9.994,0,0,0-57.285,21.3Zm15.765.315h-5.865V20.31h5.865Zm-5.865,2.475V22.785h5.865V24.09Zm8.955-6.5V16.29h-7.455c.195-.51.36-1.035.525-1.545l-1.425-.33a16.2,16.2,0,0,1-.63,1.875h-4.11v1.305h3.54a12.436,12.436,0,0,1-3.945,4.71,7.753,7.753,0,0,1,.915,1.08,11.791,11.791,0,0,0,2.25-2.07v6.87h1.38V25.26h5.865v1.29c0,.225-.075.3-.33.3s-1.155.015-2.04-.03a5.24,5.24,0,0,1,.435,1.35,7.737,7.737,0,0,0,2.61-.225c.54-.21.69-.63.69-1.38v-7.47H-47.22c.27-.48.54-.99.78-1.5Zm11.655-.405a12.1,12.1,0,0,0-2.37-1.815l-.7.945a10.856,10.856,0,0,1,2.34,1.935Zm-.645,3.57a12.544,12.544,0,0,0-2.505-1.7l-.66,1.005a11.5,11.5,0,0,1,2.475,1.815ZM-31.9,15.285a26.542,26.542,0,0,1-.915,3.42l.9.285c.375-.87.84-2.265,1.215-3.435Zm-3,3.4a15.3,15.3,0,0,0-.825-3.345l-1.005.255a14.623,14.623,0,0,1,.75,3.39Zm1.755,2.01h2.34V19.4h-2.34V14.49h-1.305V19.4H-36.78V20.7h1.9a14.822,14.822,0,0,1-2.16,4.3,7.461,7.461,0,0,1,.675,1.4,15.58,15.58,0,0,0,1.9-3.975V28.17h1.305V22.44c.5.8,1.065,1.74,1.32,2.28l.885-1.095c-.315-.45-1.755-2.28-2.205-2.76Zm10.125,3.015-.195-1.275-1.665.285V14.43H-26.19v8.535l-4.665.84.225,1.29,4.44-.81v3.9h1.305v-4.14Zm10.575-8.58h-1.71a11.543,11.543,0,0,1,.135,1.365c.015.36.03.81.045,1.305h-5.235a11.772,11.772,0,0,1-1.5-.1v1.59q.743-.045,1.53-.045h4.575a18.291,18.291,0,0,1-6.765,5.52L-20.3,26a20.78,20.78,0,0,0,6.375-5.37c.03,1.83.045,3.7.045,4.83,0,.405-.15.6-.555.6a15.257,15.257,0,0,1-2.055-.165l.12,1.545c.8.045,1.665.09,2.49.09,1,0,1.515-.48,1.515-1.35-.015-1.935-.075-4.71-.12-6.93h2.19c.375,0,.915.015,1.32.03V17.7a12.071,12.071,0,0,1-1.4.1H-12.51c0-.51-.015-.945-.015-1.305A8.333,8.333,0,0,1-12.45,15.135Zm17.025.99a.948.948,0,0,1,.93-.945.961.961,0,0,1,.945.945.948.948,0,0,1-.945.93A.935.935,0,0,1,4.575,16.125Zm-.8,0a1.862,1.862,0,0,0,.045.4,5.092,5.092,0,0,1-.645.03H-4.095c-.5,0-1.2-.06-1.62-.1v1.68c.39-.03.99-.06,1.62-.06h7.38a10.869,10.869,0,0,1-1.875,4.6,10.065,10.065,0,0,1-5.865,3.57l1.29,1.41A11.667,11.667,0,0,0,2.79,23.595a15.282,15.282,0,0,0,2.25-5.5c.015-.09.045-.195.06-.285a1.862,1.862,0,0,0,.405.045A1.725,1.725,0,1,0,3.78,16.125Zm8.28-.81L11.2,16.6c.93.525,2.535,1.59,3.3,2.145l.885-1.29C14.685,16.95,12.99,15.84,12.06,15.315ZM9.585,26.01l.885,1.545a17.575,17.575,0,0,0,4.98-1.86,17.857,17.857,0,0,0,5.865-5.37l-.915-1.59A15.428,15.428,0,0,1,14.655,24.3,16.472,16.472,0,0,1,9.585,26.01Zm.2-7.29-.855,1.29a37.54,37.54,0,0,1,3.345,2.1l.87-1.335C12.435,20.28,10.725,19.215,9.78,18.72Zm15.99-.06v1.455c.315-.015,1.215-.045,1.68-.045h5.3v2.19H27.6c-.525,0-1.125-.03-1.47-.045V23.64c.33-.03.945-.03,1.485-.03h5.13v2.37h-5.88a12.083,12.083,0,0,1-1.26-.06v1.485c.255-.015.81-.045,1.26-.045h5.88c0,.24,0,.465-.015.6h1.5c-.015-.24-.03-.66-.03-.9V19.575c0-.3,0-.69.015-.87-.21,0-.675.015-1.02.015H27.45C26.985,18.72,26.115,18.7,25.77,18.66Zm15.225-2.835L39.9,16.995a32.535,32.535,0,0,1,3.75,3.18l1.185-1.215A31.476,31.476,0,0,0,40.995,15.825ZM39.45,25.86l1.005,1.545A16.539,16.539,0,0,0,46.2,25.17a15.337,15.337,0,0,0,5.265-5.43L50.55,18.1a14.282,14.282,0,0,1-5.205,5.655A15.586,15.586,0,0,1,39.45,25.86ZM57.285,21.3a9.994,9.994,0,0,0-2.97-7.17l-1.14.54a9.343,9.343,0,0,1,0,13.26l1.14.54A9.994,9.994,0,0,0,57.285,21.3Z" transform="translate(188 2523)" fill="#f5f5f5"/>
    <path id="パス_8710" data-name="パス 8710" d="M78.323,4.05a6,6,0,0,1,8.354,0L154.37,69.693A6,6,0,0,1,150.194,80H14.806A6,6,0,0,1,10.63,69.693Z" transform="translate(270 2434) rotate(180)" fill="#fff"/>
    <path id="パス_8711" data-name="パス 8711" d="M0,0H152V124H0Z" transform="translate(250 2202) rotate(90)" fill="#d53434"/>
    <path id="パス_8712" data-name="パス 8712" d="M-25.485,0h6.3V-1.425h-2.16v-9.63H-22.65a6.492,6.492,0,0,1-2.4.855v1.095h1.98v7.68h-2.415ZM-13.68-3.48V-6.135h3.015V-3.48Zm9.72,0H-9.225V-6.135H-5.04V-7.44H-9.225V-9.51h4.53v-1.35H-13.38c.2-.45.4-.945.585-1.41l-1.41-.375a12.136,12.136,0,0,1-3.27,5.085,11.093,11.093,0,0,1,1.215.9A13.647,13.647,0,0,0-14.1-9.51h3.435v2.07h-4.41v3.96H-17.49v1.35h6.825V1.185h1.44V-2.13H-3.96ZM.825-12.54A16.029,16.029,0,0,1-2.835-6.8a8.256,8.256,0,0,1,.78,1.41A16.018,16.018,0,0,0-.66-7.05V1.155H.66V-9.075A27.028,27.028,0,0,0,2.13-12.12ZM3.84-10.665H8.9V-8.25H3.84ZM11.07-4.11V-5.37H7.02V-7.005h3.27V-11.9H2.535v4.89h3.09V-5.37H1.485v1.26h3.4A11,11,0,0,1,1-.54,6.151,6.151,0,0,1,1.965.57a12.205,12.205,0,0,0,3.66-3.63V1.2h1.4V-3.135A12.876,12.876,0,0,0,10.5.6a6.234,6.234,0,0,1,.975-1.11,11.149,11.149,0,0,1-3.7-3.6Zm6.24-7.98H13.17V-11h4.14ZM16.185-2.745v2.16H14.25v-2.16ZM17.4-3.87H13.05V1.17h1.2V.525H17.4Zm-4.32-.99h4.23V-5.94H13.08Zm4.23-3.12H13.08V-6.9h4.23Zm-4.935-.975h5.46v-1.11h-5.46ZM23.07-.645v-4.59h2.79v-1.32H23.07v-3.87h2.88v-1.32H18.315v1.32h3.39v9.78H20.19V-7.92H18.9V-.645H17.85V.675h8.355V-.645ZM-19.785,21.3a9.994,9.994,0,0,0,2.97,7.17l1.14-.54a9.335,9.335,0,0,1-2.76-6.63,9.335,9.335,0,0,1,2.76-6.63l-1.14-.54A9.994,9.994,0,0,0-19.785,21.3Zm15.63-1.755H-5.64V17.3h1.485Zm0,3.51H-5.64v-2.25h1.485Zm-6.69-2.25H-9.45v2.25h-1.395Zm4.02,0v2.25H-8.28v-2.25Zm-1.455-1.26V17.3h1.455v2.25Zm-2.565-2.25H-9.45v2.25h-1.395Zm-1.26,2.25h-2.04v1.26h2.04v2.25H-13.92v1.26H-1.035v-1.26H-2.85v-2.25H-.825v-1.26H-2.85V17.3h1.47v-1.23H-10.6a10.493,10.493,0,0,0,.72-1.26l-1.365-.39a10.083,10.083,0,0,1-3.15,3.75,9.124,9.124,0,0,1,1.155.915A12.583,12.583,0,0,0-12.1,18ZM-12.96,28.2a7.888,7.888,0,0,0,1.8-3.06l-1.35-.33a6.691,6.691,0,0,1-1.77,2.835Zm3.075-2.955a16.575,16.575,0,0,1,.3,2.79l1.365-.195a16.646,16.646,0,0,0-.375-2.73Zm3,.015a14.7,14.7,0,0,1,.84,2.79l1.38-.27a13.891,13.891,0,0,0-.915-2.73Zm2.985-.09A18.763,18.763,0,0,1-2.01,28.2l1.41-.5A18.81,18.81,0,0,0-2.58,24.75Zm8.535-8.745v2.34H5.82V17.43h7.1v1.335h1.23v-2.34H12.33c.315-.4.7-.945,1.065-1.47l-1.335-.39a10.473,10.473,0,0,1-.915,1.71l.4.15H10.08v-1.9H8.73v1.9H7.32l.405-.165a8.3,8.3,0,0,0-.945-1.665l-1.065.36a8.185,8.185,0,0,1,.78,1.47Zm2.01,8.04H12.09v.675H6.645Zm0-1.335H12.09v.645H6.645Zm0-1.335H12.09v.63H6.645ZM5.37,25.935h8.055v-4.95H5.37Zm6.045-6.285H7.275v-.78h4.14ZM6.06,18.1v2.31h6.615V18.1Zm-2.22-3.63A16.672,16.672,0,0,1,.285,20.25a10.854,10.854,0,0,1,.765,1.41A17.409,17.409,0,0,0,2.34,20.1v8.055H3.66V18.03a24.211,24.211,0,0,0,1.485-3.165Zm3.8,11.475a13.637,13.637,0,0,1-3.495,1.3,4.939,4.939,0,0,1,.78.93A13.169,13.169,0,0,0,8.625,26.64Zm2.385.81a22.038,22.038,0,0,1,3.42,1.455l1.065-.84a24.78,24.78,0,0,0-3.69-1.425Zm9.765-5.46a9.994,9.994,0,0,0-2.97-7.17l-1.14.54a9.343,9.343,0,0,1,0,13.26l1.14.54A9.994,9.994,0,0,0,19.785,21.3Z" transform="translate(188 2306)" fill="#fff"/>
    <g id="パス_8713" data-name="パス 8713" transform="translate(258 2133) rotate(90)" fill="#fff">
      <path d="M 70 139 C 60.68461990356445 139 51.64841842651367 137.1757965087891 43.14239883422852 133.5780487060547 C 39.05407333374023 131.8488311767578 35.11081695556641 129.70849609375 31.42214584350586 127.2164764404297 C 27.76825523376465 124.7479629516602 24.33227348327637 121.9130020141602 21.20963668823242 118.7903671264648 C 18.08699989318848 115.667724609375 15.25203609466553 112.2317428588867 12.78352737426758 108.5778579711914 C 10.29150867462158 104.8891830444336 8.151164054870605 100.945930480957 6.421945571899414 96.85759735107422 C 2.824199914932251 88.35158538818359 1 79.31538391113281 1 70 C 1 60.68461990356445 2.824199914932251 51.64841842651367 6.421945571899414 43.14239883422852 C 8.151164054870605 39.05407333374023 10.29150867462158 35.11081695556641 12.78352737426758 31.42214584350586 C 15.25203609466553 27.76825523376465 18.08699989318848 24.33227348327637 21.20963668823242 21.20963668823242 C 24.33227348327637 18.08699989318848 27.76825523376465 15.25203609466553 31.42214584350586 12.78352737426758 C 35.11081695556641 10.29150867462158 39.05407333374023 8.151164054870605 43.14239883422852 6.421945571899414 C 51.64841842651367 2.824199914932251 60.68461990356445 1 70 1 C 79.31538391113281 1 88.35158538818359 2.824199914932251 96.85759735107422 6.421945571899414 C 100.945930480957 8.151164054870605 104.8891830444336 10.29150867462158 108.5778579711914 12.78352737426758 C 112.2317428588867 15.25203609466553 115.667724609375 18.08699989318848 118.7903671264648 21.20963668823242 C 121.9130020141602 24.33227348327637 124.7479629516602 27.76825523376465 127.2164764404297 31.42214584350586 C 129.70849609375 35.11081695556641 131.8488311767578 39.05407333374023 133.5780487060547 43.14239883422852 C 137.1757965087891 51.64841842651367 139 60.68461990356445 139 70 C 139 79.31538391113281 137.1757965087891 88.35158538818359 133.5780487060547 96.85759735107422 C 131.8488311767578 100.945930480957 129.70849609375 104.8891830444336 127.2164764404297 108.5778579711914 C 124.7479629516602 112.2317428588867 121.9130020141602 115.667724609375 118.7903671264648 118.7903671264648 C 115.667724609375 121.9130020141602 112.2317428588867 124.7479629516602 108.5778579711914 127.2164764404297 C 104.8891830444336 129.70849609375 100.945930480957 131.8488311767578 96.85759735107422 133.5780487060547 C 88.35158538818359 137.1757965087891 79.31538391113281 139 70 139 Z" stroke="none"/>
      <path d="M 70 2 C 60.81918334960938 2 51.91403961181641 3.797637939453125 43.53195953369141 7.34295654296875 C 39.50309753417969 9.047027587890625 35.61711883544922 11.15628051757812 31.98195648193359 13.61215972900391 C 28.38079833984375 16.04503631591797 24.99437713623047 18.83910369873047 21.91674041748047 21.91674041748047 C 18.83910369873047 24.99437713623047 16.04503631591797 28.38079833984375 13.61215972900391 31.98195648193359 C 11.15628051757812 35.61711883544922 9.047027587890625 39.50309753417969 7.34295654296875 43.53195953369141 C 3.797637939453125 51.91403961181641 2 60.81918334960938 2 70 C 2 79.18081665039062 3.797637939453125 88.08596038818359 7.34295654296875 96.46804046630859 C 9.047027587890625 100.4969024658203 11.15628051757812 104.3828811645508 13.61215972900391 108.0180358886719 C 16.04503631591797 111.6192016601562 18.83910369873047 115.005615234375 21.91674041748047 118.0832595825195 C 24.99437713623047 121.1609039306641 28.38079833984375 123.9549560546875 31.98195648193359 126.3878402709961 C 35.61711883544922 128.8437194824219 39.50309753417969 130.9529724121094 43.53195953369141 132.6570434570312 C 51.91403961181641 136.2023620605469 60.81918334960938 138 70 138 C 79.18081665039062 138 88.08596038818359 136.2023620605469 96.46804046630859 132.6570434570312 C 100.4969024658203 130.9529724121094 104.3828811645508 128.8437194824219 108.0180358886719 126.3878402709961 C 111.6192016601562 123.9549560546875 115.005615234375 121.1609039306641 118.0832595825195 118.0832595825195 C 121.1609039306641 115.005615234375 123.9549560546875 111.6192016601562 126.3878402709961 108.0180358886719 C 128.8437194824219 104.3828811645508 130.9529724121094 100.4969024658203 132.6570434570312 96.46804046630859 C 136.2023620605469 88.08596038818359 138 79.18081665039062 138 70 C 138 60.81918334960938 136.2023620605469 51.91403961181641 132.6570434570312 43.53195953369141 C 130.9529724121094 39.50309753417969 128.8437194824219 35.61711883544922 126.3878402709961 31.98195648193359 C 123.9549560546875 28.38079833984375 121.1609039306641 24.99437713623047 118.0832595825195 21.91674041748047 C 115.005615234375 18.83910369873047 111.6192016601562 16.04503631591797 108.0180358886719 13.61215972900391 C 104.3828811645508 11.15628051757812 100.4969024658203 9.047027587890625 96.46804046630859 7.34295654296875 C 88.08596038818359 3.797637939453125 79.18081665039062 2 70 2 M 70 0 C 108.6599197387695 0 140 31.34008026123047 140 70 C 140 108.6599197387695 108.6599197387695 140 70 140 C 31.34008026123047 140 0 108.6599197387695 0 70 C 0 31.34008026123047 31.34008026123047 0 70 0 Z" stroke="none" fill="#d53434"/>
    </g>
    <path id="パス_8714" data-name="パス 8714" d="M1.065-3.93A10.906,10.906,0,0,1,.27-.45,8.817,8.817,0,0,1,1.635.2a13.868,13.868,0,0,0,.9-3.87Zm11.49-4.545v4.2c-.45-.945-1.065-2.04-1.65-3.015.06-.375.09-.78.135-1.185Zm-4.605,0H9.42a8.951,8.951,0,0,1-1.47,4.89Zm6.21-1.635H11.13c.03-.825.045-1.7.06-2.6H9.525c0,.915-.015,1.77-.03,2.6H6.375V-5.2A15.2,15.2,0,0,0,5.19-7.86l-1.185.5c.18.33.36.7.525,1.08l-1.44.06c.945-1.215,1.98-2.73,2.8-4.035L4.44-10.935a27.2,27.2,0,0,1-1.335,2.43c-.15-.18-.315-.39-.51-.6.54-.84,1.14-1.995,1.68-3.015L2.73-12.69a19.015,19.015,0,0,1-1.1,2.61c-.12-.1-.24-.21-.345-.3L.435-9.165A14.719,14.719,0,0,1,2.2-7.125c-.24.345-.48.675-.7.96L.42-6.12.57-4.575,2.745-4.71V1.32H4.29V-4.815l.765-.06a7.192,7.192,0,0,1,.2.765l1.125-.51v2.745a17.245,17.245,0,0,0-.8-2.175l-1.26.39A17.749,17.749,0,0,1,5.19-.87l1.185-.435v2.58H7.95v-4.08a3.763,3.763,0,0,1,.705.825,6.97,6.97,0,0,0,1.77-3.03A28.75,28.75,0,0,1,11.73-2.22l.825-.8V-.57c0,.21-.06.27-.255.27-.21,0-.9.015-1.515-.015A5.409,5.409,0,0,1,11.28,1.32,4.962,4.962,0,0,0,13.515,1c.51-.27.645-.72.645-1.53Zm4.3-1.755v1.815h3.42c.045.51.1,1.05.21,1.62L21.18-8.6c-.825,3.945-2.61,6.84-5.73,8.415a14.247,14.247,0,0,1,1.635,1.455,12.98,12.98,0,0,0,5.535-7.41,12.674,12.674,0,0,0,5.52,7.4A9.6,9.6,0,0,1,29.58-.3c-5.52-3.255-5.925-8.73-5.925-11.565Z" transform="translate(173 2209)" fill="#d53434"/>
    <path id="パス_8695" data-name="パス 8695" d="M49.069,195.2l80-82.494-80-82.506Z" transform="translate(300.204 2294.931) rotate(90)" fill="#d53434"/>
  </g>
</svg>
