<svg xmlns="http://www.w3.org/2000/svg" width="285" height="46" viewBox="0 0 285 46">
  <g id="グループ_4481" data-name="グループ 4481" transform="translate(-233 -1883.434)">
    <path id="合体_3" data-name="合体 3" d="M227.751,32.812H0V9.188H227.751V0L251,21,227.751,42Z" transform="translate(267 1885.434)" fill="#b4b4b4"/>
    <path id="パス_8704" data-name="パス 8704" d="M6.36-2.23H5.32V-5.8H4.44v3.57H3.68v.85H9.51v-.85H7.28V-4.44H9.31v-.81H7.28V-7.16a16.754,16.754,0,0,0,2.01-.46l-.64-.74a26.572,26.572,0,0,1-4.74.82,2.671,2.671,0,0,1,.25.77c.7-.06,1.46-.14,2.2-.25ZM3.14-4.98l-.17.02H2.02c.49-.93.98-1.91,1.34-2.68l-.64-.2-.15.05H.42v.81H2.1C1.66-6.1,1.05-4.93.51-4l.85.25.22-.39H2.71a8.607,8.607,0,0,1-.56,2.12,5.5,5.5,0,0,1-.68-1.46l-.73.26a6.5,6.5,0,0,0,1,2.01A4.352,4.352,0,0,1,.34.19a3.915,3.915,0,0,1,.7.65A4.7,4.7,0,0,0,2.38-.55,6.314,6.314,0,0,0,6.58.55H9.31a3.326,3.326,0,0,1,.36-.91c-.59.02-2.58.02-3.06.02A5.791,5.791,0,0,1,2.8-1.32a11.277,11.277,0,0,0,.89-3.51ZM18.3-2.85a13.744,13.744,0,0,1-1.91,1.26,5.272,5.272,0,0,1-.93-1.26Zm.02,0h1.13v-.83H13.21v-.7h4.95v-.74H13.21v-.69h4.95v-.74H13.21v-.69h5.24v-.78H12.27v4.34H10.55v.83h1.71V-.31c-.46.07-.89.13-1.25.18l.22.85C12.42.53,14.1.26,15.67-.01l-.05-.82-2.41.37V-2.85h1.3A6.073,6.073,0,0,0,19.04.81a3.217,3.217,0,0,1,.59-.83A6.732,6.732,0,0,1,17-1.08a15.257,15.257,0,0,0,2.07-1.26ZM22.7-8.36a10.686,10.686,0,0,1-2.44,3.83,5.5,5.5,0,0,1,.52.94,10.679,10.679,0,0,0,.93-1.11V.77h.88V-6.05a18.018,18.018,0,0,0,.98-2.03Zm2.01,1.25h3.37V-5.5H24.71Zm4.82,4.37v-.84h-2.7V-4.67h2.18V-7.93H23.84v3.26H25.9v1.09H23.14v.84h2.27A7.332,7.332,0,0,1,22.82-.36a4.1,4.1,0,0,1,.64.74A8.137,8.137,0,0,0,25.9-2.04V.8h.93V-2.09A8.584,8.584,0,0,0,29.15.4a4.156,4.156,0,0,1,.65-.74,7.433,7.433,0,0,1-2.47-2.4Zm4.16-5.32H30.93v.73h2.76Zm-.75,6.23V-.39H31.65V-1.83Zm.81-.75h-2.9V.78h.8V.35h2.1Zm-2.88-.66h2.82v-.72H30.87Zm2.82-2.08H30.87v.72h2.82ZM30.4-5.97h3.64v-.74H30.4ZM37.53-.43V-3.49h1.86v-.88H37.53V-6.95h1.92v-.88H34.36v.88h2.26V-.43H35.61V-5.28h-.86V-.43h-.7V.45h5.57V-.43ZM46.81-3.8A6.662,6.662,0,0,0,48.79.98l.76-.36A6.223,6.223,0,0,1,47.71-3.8a6.223,6.223,0,0,1,1.84-4.42l-.76-.36A6.662,6.662,0,0,0,46.81-3.8Zm10.51.21H53.41v-.87h3.91ZM53.41-1.94v-.87h3.91v.87Zm5.97-4.33v-.87H54.41c.13-.34.24-.69.35-1.03l-.95-.22a10.8,10.8,0,0,1-.42,1.25H50.65v.87h2.36a8.291,8.291,0,0,1-2.63,3.14,5.169,5.169,0,0,1,.61.72,7.861,7.861,0,0,0,1.5-1.38V.79h.92V-1.16h3.91V-.3c0,.15-.05.2-.22.2s-.77.01-1.36-.02a3.493,3.493,0,0,1,.29.9A5.158,5.158,0,0,0,57.77.63c.36-.14.46-.42.46-.92V-5.27H53.52c.18-.32.36-.66.52-1Zm7.77-.27a8.067,8.067,0,0,0-1.58-1.21l-.47.63a7.238,7.238,0,0,1,1.56,1.29Zm-.43,2.38a8.363,8.363,0,0,0-1.67-1.13l-.44.67a7.664,7.664,0,0,1,1.65,1.21ZM63.73-7.81a17.7,17.7,0,0,1-.61,2.28l.6.19c.25-.58.56-1.51.81-2.29Zm-2,2.27a10.2,10.2,0,0,0-.55-2.23l-.67.17a9.749,9.749,0,0,1,.5,2.26ZM62.9-4.2h1.56v-.87H62.9V-8.34h-.87v3.27H60.48v.87h1.27a9.882,9.882,0,0,1-1.44,2.87,4.974,4.974,0,0,1,.45.93,10.387,10.387,0,0,0,1.27-2.65V.78h.87V-3.04c.33.53.71,1.16.88,1.52l.59-.73c-.21-.3-1.17-1.52-1.47-1.84Zm6.75,2.01-.13-.85-1.11.19V-8.38h-.87v5.69l-3.11.56.15.86,2.96-.54V.79h.87V-1.97ZM76.7-7.91H75.56a7.7,7.7,0,0,1,.09.91c.01.24.02.54.03.87H72.19a7.848,7.848,0,0,1-1-.07v1.06q.495-.03,1.02-.03h3.05a12.194,12.194,0,0,1-4.51,3.68l.72.82a13.853,13.853,0,0,0,4.25-3.58c.02,1.22.03,2.47.03,3.22,0,.27-.1.4-.37.4a10.171,10.171,0,0,1-1.37-.11L74.09.29c.53.03,1.11.06,1.66.06.67,0,1.01-.32,1.01-.9-.01-1.29-.05-3.14-.08-4.62h1.46c.25,0,.61.01.88.02V-6.2a8.047,8.047,0,0,1-.93.07H76.66c0-.34-.01-.63-.01-.87A5.556,5.556,0,0,1,76.7-7.91Zm11.35.66a.632.632,0,0,1,.62-.63.64.64,0,0,1,.63.63.632.632,0,0,1-.63.62A.623.623,0,0,1,88.05-7.25Zm-.53,0a1.241,1.241,0,0,0,.03.27,3.4,3.4,0,0,1-.43.02H82.27c-.33,0-.8-.04-1.08-.07v1.12c.26-.02.66-.04,1.08-.04h4.92a7.246,7.246,0,0,1-1.25,3.07A6.71,6.71,0,0,1,82.03-.5l.86.94a7.778,7.778,0,0,0,3.97-2.71,10.188,10.188,0,0,0,1.5-3.67c.01-.06.03-.13.04-.19a1.241,1.241,0,0,0,.27.03,1.152,1.152,0,0,0,1.16-1.15A1.159,1.159,0,0,0,88.67-8.4,1.15,1.15,0,0,0,87.52-7.25Zm5.52-.54-.57.86c.62.35,1.69,1.06,2.2,1.43l.59-.86C94.79-6.7,93.66-7.44,93.04-7.79ZM91.39-.66,91.98.37A11.717,11.717,0,0,0,95.3-.87a11.9,11.9,0,0,0,3.91-3.58L98.6-5.51A10.285,10.285,0,0,1,94.77-1.8,10.982,10.982,0,0,1,91.39-.66Zm.13-4.86-.57.86a25.027,25.027,0,0,1,2.23,1.4l.58-.89C93.29-4.48,92.15-5.19,91.52-5.52Zm10.66-.04v.97c.21-.01.81-.03,1.12-.03h3.53v1.46H103.4c-.35,0-.75-.02-.98-.03v.95c.22-.02.63-.02.99-.02h3.42V-.68h-3.92a8.055,8.055,0,0,1-.84-.04V.27c.17-.01.54-.03.84-.03h3.92c0,.16,0,.31-.01.4h1c-.01-.16-.02-.44-.02-.6V-4.95c0-.2,0-.46.01-.58-.14,0-.45.01-.68.01H103.3C102.99-5.52,102.41-5.53,102.18-5.56Zm10.15-1.89-.73.78a21.69,21.69,0,0,1,2.5,2.12l.79-.81A20.984,20.984,0,0,0,112.33-7.45ZM111.3-.76l.67,1.03a11.026,11.026,0,0,0,3.83-1.49,10.225,10.225,0,0,0,3.51-3.62l-.61-1.09a9.521,9.521,0,0,1-3.47,3.77A10.391,10.391,0,0,1,111.3-.76ZM123.19-3.8a6.662,6.662,0,0,0-1.98-4.78l-.76.36a6.223,6.223,0,0,1,1.84,4.42A6.223,6.223,0,0,1,120.45.62l.76.36A6.662,6.662,0,0,0,123.19-3.8Z" transform="translate(370 1910.434)" fill="#f5f5f5"/>
    <path id="パス_8705" data-name="パス 8705" d="M18.83,2.273a3,3,0,0,1,4.34,0L37.159,16.929A3,3,0,0,1,34.989,22H7.011a3,3,0,0,1-2.17-5.071Z" transform="translate(367 1885.434) rotate(90)" fill="#fff"/>
    <path id="合体_4" data-name="合体 4" d="M87.494,32.813H0V9.187H87.494V0L111,21,87.494,42Z" transform="translate(253 1885.434)" fill="#d53434"/>
    <path id="パス_8706" data-name="パス 8706" d="M.86,0h4.2V-.95H3.62V-7.37H2.75a4.328,4.328,0,0,1-1.6.57v.73H2.47V-.95H.86ZM8.73-2.32V-4.09h2.01v1.77Zm6.48,0H11.7V-4.09h2.79v-.87H11.7V-6.34h3.02v-.9H8.93c.13-.3.27-.63.39-.94l-.94-.25A8.091,8.091,0,0,1,6.2-5.04a7.4,7.4,0,0,1,.81.6,9.1,9.1,0,0,0,1.44-1.9h2.29v1.38H7.8v2.64H6.19v.9h4.55V.79h.96V-1.42h3.51ZM18.4-8.36a10.686,10.686,0,0,1-2.44,3.83,5.5,5.5,0,0,1,.52.94,10.679,10.679,0,0,0,.93-1.11V.77h.88V-6.05a18.019,18.019,0,0,0,.98-2.03Zm2.01,1.25h3.37V-5.5H20.41Zm4.82,4.37v-.84h-2.7V-4.67h2.18V-7.93H19.54v3.26H21.6v1.09H18.84v.84h2.27A7.332,7.332,0,0,1,18.52-.36a4.1,4.1,0,0,1,.64.74A8.137,8.137,0,0,0,21.6-2.04V.8h.93V-2.09A8.584,8.584,0,0,0,24.85.4a4.156,4.156,0,0,1,.65-.74,7.433,7.433,0,0,1-2.47-2.4Zm4.16-5.32H26.63v.73h2.76Zm-.75,6.23V-.39H27.35V-1.83Zm.81-.75h-2.9V.78h.8V.35h2.1Zm-2.88-.66h2.82v-.72H26.57Zm2.82-2.08H26.57v.72h2.82ZM26.1-5.97h3.64v-.74H26.1ZM33.23-.43V-3.49h1.86v-.88H33.23V-6.95h1.92v-.88H30.06v.88h2.26V-.43H31.31V-5.28h-.86V-.43h-.7V.45h5.57V-.43ZM42.51-3.8A6.662,6.662,0,0,0,44.49.98l.76-.36A6.223,6.223,0,0,1,43.41-3.8a6.223,6.223,0,0,1,1.84-4.42l-.76-.36A6.662,6.662,0,0,0,42.51-3.8ZM52.93-4.97h-.99v-1.5h.99Zm0,2.34h-.99v-1.5h.99Zm-4.46-1.5h.93v1.5h-.93Zm2.68,0v1.5h-.97v-1.5Zm-.97-.84v-1.5h.97v1.5Zm-1.71-1.5h.93v1.5h-.93Zm-.84,1.5H46.27v.84h1.36v1.5H46.42v.84h8.59v-.84H53.8v-1.5h1.35v-.84H53.8v-1.5h.98v-.82H48.63a7,7,0,0,0,.48-.84l-.91-.26a6.722,6.722,0,0,1-2.1,2.5,6.083,6.083,0,0,1,.77.61A8.388,8.388,0,0,0,47.63-6ZM47.06.8a5.258,5.258,0,0,0,1.2-2.04l-.9-.22A4.461,4.461,0,0,1,46.18.43Zm2.05-1.97a11.05,11.05,0,0,1,.2,1.86l.91-.13a11.1,11.1,0,0,0-.25-1.82Zm2,.01A9.8,9.8,0,0,1,51.67.7l.92-.18a9.261,9.261,0,0,0-.61-1.82Zm1.99-.06A12.509,12.509,0,0,1,54.36.8L55.3.47A12.541,12.541,0,0,0,53.98-1.5Zm5.69-5.83v1.56h.79v-.89h4.73v.89h.82V-7.05H63.92c.21-.27.47-.63.71-.98l-.89-.26a6.982,6.982,0,0,1-.61,1.14l.27.1h-.98V-8.32h-.9v1.27h-.94l.27-.11a5.53,5.53,0,0,0-.63-1.11l-.71.24a5.457,5.457,0,0,1,.52.98Zm1.34,5.36h3.63v.45H60.13Zm0-.89h3.63v.43H60.13Zm0-.89h3.63v.42H60.13ZM59.28-.71h5.37v-3.3H59.28ZM63.31-4.9H60.55v-.52h2.76ZM59.74-5.93v1.54h4.41V-5.93ZM58.26-8.35A11.115,11.115,0,0,1,55.89-4.5a7.236,7.236,0,0,1,.51.94,11.606,11.606,0,0,0,.86-1.04V.77h.88V-5.98a16.141,16.141,0,0,0,.99-2.11ZM60.79-.7a9.091,9.091,0,0,1-2.33.87,3.293,3.293,0,0,1,.52.62A8.78,8.78,0,0,0,61.45-.24Zm1.59.54a14.692,14.692,0,0,1,2.28.97l.71-.56A16.52,16.52,0,0,0,62.91-.7ZM68.89-3.8a6.662,6.662,0,0,0-1.98-4.78l-.76.36A6.223,6.223,0,0,1,67.99-3.8,6.223,6.223,0,0,1,66.15.62l.76.36A6.662,6.662,0,0,0,68.89-3.8Z" transform="translate(282 1910.434)" fill="#fff"/>
    <g id="パス_8707" data-name="パス 8707" transform="translate(233 1883.434)" fill="#fff">
      <path d="M 23 45.25 C 19.99593925476074 45.25 17.08213043212891 44.66181945800781 14.3395299911499 43.50178909301758 C 11.69009971618652 42.38117980957031 9.310520172119141 40.77677154541016 7.266870021820068 38.73313140869141 C 5.223229885101318 36.68947982788086 3.618819952011108 34.30989837646484 2.498209953308105 31.66046905517578 C 1.33817994594574 28.91786956787109 0.75 26.00406074523926 0.75 23 C 0.75 19.99593925476074 1.33817994594574 17.08213043212891 2.498209953308105 14.3395299911499 C 3.618819952011108 11.69009971618652 5.223229885101318 9.310520172119141 7.266870021820068 7.266870021820068 C 9.310520172119141 5.223229885101318 11.69009971618652 3.618819952011108 14.3395299911499 2.498209953308105 C 17.08213043212891 1.33817994594574 19.99593925476074 0.75 23 0.75 C 26.00406074523926 0.75 28.91786956787109 1.33817994594574 31.66046905517578 2.498209953308105 C 34.30989837646484 3.618819952011108 36.68947982788086 5.223229885101318 38.73313140869141 7.266870021820068 C 40.77677154541016 9.310520172119141 42.38117980957031 11.69009971618652 43.50178909301758 14.3395299911499 C 44.66181945800781 17.08213043212891 45.25 19.99593925476074 45.25 23 C 45.25 26.00406074523926 44.66181945800781 28.91786956787109 43.50178909301758 31.66046905517578 C 42.38117980957031 34.30989837646484 40.77677154541016 36.68947982788086 38.73313140869141 38.73313140869141 C 36.68947982788086 40.77677154541016 34.30989837646484 42.38117980957031 31.66046905517578 43.50178909301758 C 28.91786956787109 44.66181945800781 26.00406074523926 45.25 23 45.25 Z" stroke="none"/>
      <path d="M 23 1.5 C 20.09686088562012 1.5 17.28134918212891 2.068248748779297 14.63168907165527 3.188961029052734 C 12.07165908813477 4.271759033203125 9.772209167480469 5.822200775146484 7.797199249267578 7.797199249267578 C 5.822200775146484 9.772209167480469 4.271759033203125 12.07165908813477 3.188961029052734 14.63168907165527 C 2.068248748779297 17.28134918212891 1.5 20.09686088562012 1.5 23 C 1.5 25.90313911437988 2.068248748779297 28.71865081787109 3.188961029052734 31.36830902099609 C 4.271759033203125 33.92834091186523 5.822200775146484 36.22779083251953 7.797199249267578 38.20280075073242 C 9.772209167480469 40.17779922485352 12.07165908813477 41.72824096679688 14.63168907165527 42.81103897094727 C 17.28134918212891 43.9317512512207 20.09686088562012 44.5 23 44.5 C 25.90313911437988 44.5 28.71865081787109 43.9317512512207 31.36830902099609 42.81103897094727 C 33.92834091186523 41.72824096679688 36.22779083251953 40.17779922485352 38.20280075073242 38.20280075073242 C 40.17779922485352 36.22779083251953 41.72824096679688 33.92834091186523 42.81103897094727 31.36830902099609 C 43.9317512512207 28.71865081787109 44.5 25.90313911437988 44.5 23 C 44.5 20.09686088562012 43.9317512512207 17.28134918212891 42.81103897094727 14.63168907165527 C 41.72824096679688 12.07165908813477 40.17779922485352 9.772209167480469 38.20280075073242 7.797199249267578 C 36.22779083251953 5.822200775146484 33.92834091186523 4.271759033203125 31.36830902099609 3.188961029052734 C 28.71865081787109 2.068248748779297 25.90313911437988 1.5 23 1.5 M 23 0 C 35.70254898071289 0 46 10.29745101928711 46 23 C 46 35.70254898071289 35.70254898071289 46 23 46 C 10.29745101928711 46 0 35.70254898071289 0 23 C 0 10.29745101928711 10.29745101928711 0 23 0 Z" stroke="none" fill="#d53434"/>
    </g>
    <path id="パス_8708" data-name="パス 8708" d="M.71-2.62A7.271,7.271,0,0,1,.18-.3a5.878,5.878,0,0,1,.91.43,9.246,9.246,0,0,0,.6-2.58ZM8.37-5.65v2.8c-.3-.63-.71-1.36-1.1-2.01.04-.25.06-.52.09-.79Zm-3.07,0h.98A5.968,5.968,0,0,1,5.3-2.39ZM9.44-6.74H7.42c.02-.55.03-1.13.04-1.73H6.35c0,.61-.01,1.18-.02,1.73H4.25v3.27a10.135,10.135,0,0,0-.79-1.77l-.79.33c.12.22.24.47.35.72l-.96.04c.63-.81,1.32-1.82,1.87-2.69l-.97-.45a18.135,18.135,0,0,1-.89,1.62c-.1-.12-.21-.26-.34-.4.36-.56.76-1.33,1.12-2.01L1.82-8.46a12.677,12.677,0,0,1-.73,1.74l-.23-.2-.57.81A9.813,9.813,0,0,1,1.47-4.75c-.16.23-.32.45-.47.64l-.72.03.1,1.03,1.45-.09V.88H2.86V-3.21l.51-.04a4.794,4.794,0,0,1,.13.51l.75-.34v1.83A11.5,11.5,0,0,0,3.72-2.7l-.84.26A11.833,11.833,0,0,1,3.46-.58l.79-.29V.85H5.3V-1.87a2.508,2.508,0,0,1,.47.55A4.647,4.647,0,0,0,6.95-3.34a19.167,19.167,0,0,1,.87,1.86l.55-.53V-.38c0,.14-.04.18-.17.18s-.6.01-1.01-.01A3.606,3.606,0,0,1,7.52.88,3.308,3.308,0,0,0,9.01.67c.34-.18.43-.48.43-1.02Zm2.87-1.17V-6.7h2.28c.03.34.07.7.14,1.08l-.61-.11C13.57-3.1,12.38-1.17,10.3-.12a9.5,9.5,0,0,1,1.09.97,8.653,8.653,0,0,0,3.69-4.94A8.449,8.449,0,0,0,18.76.84,6.4,6.4,0,0,1,19.72-.2a8.348,8.348,0,0,1-3.95-7.71Z" transform="translate(246 1910.434)" fill="#d53434"/>
  </g>
</svg>
