<svg xmlns="http://www.w3.org/2000/svg" width="292" height="233" viewBox="0 0 292 233">
  <g id="グループ_4487" data-name="グループ 4487" transform="translate(-841 -2156)">
    <path id="パス_8728" data-name="パス 8728" d="M0,0H292V233H0Z" transform="translate(841 2156)" fill="#edfaf9"/>
    <path id="パス_8729" data-name="パス 8729" d="M9.024-2.08h1.888V-.624H9.024Zm-2.848-5.7H3.344c.272-1.04.48-2.16.656-3.28H6.5v1.968H7.76v-1.52H9.232a10.159,10.159,0,0,1-3.056,3.84ZM4.912-1.968H3.184V-6.48H4.912Zm6-3.792H9.024V-7.136h1.888Zm0,2.56H9.024V-4.64h1.888ZM15.344-.624H12.288V-2.08h2.32V-3.2h-2.32V-4.64h2.32V-5.76h-2.32V-7.136H14.9V-8.384h-2.32c.24-.464.48-.976.7-1.472l-1.376-.3a12.2,12.2,0,0,1-.656,1.776H9.584a13.993,13.993,0,0,0,1.184-2.224H13.92v1.52h1.344v-2.784H11.248c.144-.416.288-.848.4-1.3l-1.424-.272a16.183,16.183,0,0,1-.464,1.568H6.528V-12.4H.9v1.344h1.68A16.3,16.3,0,0,1,.4-4.24a10.8,10.8,0,0,1,.832,1.408,8.893,8.893,0,0,0,.736-1.2V.576H3.184V-.672H6.176V-6.4a7.382,7.382,0,0,1,.8.912q.312-.24.624-.528v7.28H9.024V.608h6.32Zm7.824-11.92L21.3-12.736a17.883,17.883,0,0,1-.368,3.44c-.912.08-1.776.144-2.288.16-.544.016-1.008.032-1.552,0l.16,1.728c.448-.08,1.184-.176,1.584-.224.368-.048,1.024-.128,1.76-.208A25.392,25.392,0,0,1,17.264-.048l1.648.656A33.408,33.408,0,0,0,22.224-8c.608-.064,1.136-.1,1.472-.1,1.008,0,1.632.24,1.632,1.616a13,13,0,0,1-.72,4.688,1.254,1.254,0,0,1-1.312.768,8.333,8.333,0,0,1-1.952-.32L21.6.32a9,9,0,0,0,1.9.224A2.355,2.355,0,0,0,25.968-.848a15.492,15.492,0,0,0,.912-5.808c0-2.24-1.168-2.864-2.72-2.864-.368,0-.944.032-1.6.1.144-.752.288-1.52.384-2.016C23.008-11.792,23.088-12.208,23.168-12.544Zm5.52,1.616-1.488.64a19.1,19.1,0,0,1,2.768,5.92L31.552-5.1A27.711,27.711,0,0,0,28.688-10.928ZM39.36-12.784,37.6-12.96a13.058,13.058,0,0,1-.464,2.736c-.56.048-1.12.064-1.648.064-.64,0-1.408-.032-2.032-.1l.112,1.488c.64.032,1.312.048,1.92.048.384,0,.768-.016,1.168-.032a24.028,24.028,0,0,1-3.36,5.84l1.536.784a28.627,28.627,0,0,0,3.472-6.8A21.477,21.477,0,0,0,41.168-9.5l-.048-1.472a15.3,15.3,0,0,1-2.352.544C39.008-11.328,39.232-12.224,39.36-12.784ZM38.5-1.7c0-.656.72-1.136,1.776-1.136a5.571,5.571,0,0,1,1.488.208c.016.208.016.4.016.544,0,.864-.4,1.536-1.616,1.536C39.072-.544,38.5-1.008,38.5-1.7ZM43.12-7.824H41.552c.032,1.056.112,2.56.16,3.824a9.173,9.173,0,0,0-1.36-.112c-1.984,0-3.344,1.056-3.344,2.56,0,1.664,1.5,2.464,3.36,2.464,2.112,0,2.928-1.1,2.928-2.464V-2A12.487,12.487,0,0,1,45.7-.208l.848-1.36a10.426,10.426,0,0,0-3.312-2.016c-.048-.912-.1-1.84-.112-2.368C43.1-6.592,43.088-7.152,43.12-7.824Zm3.008.608.912-1.328a28.323,28.323,0,0,0-3.84-2.144l-.816,1.232A20.345,20.345,0,0,1,46.128-7.216ZM60.752-11.36a8.573,8.573,0,0,1-1.9,2.384,7.764,7.764,0,0,1-1.84-2.384ZM61.776-12.7l-.288.064H54.72v1.28h1.792l-.88.288a9.886,9.886,0,0,0,2.1,2.928A12.625,12.625,0,0,1,54.3-6.656a5.477,5.477,0,0,1,.832,1.248A14.2,14.2,0,0,0,58.88-7.2a11.839,11.839,0,0,0,3.776,1.728,5.506,5.506,0,0,1,.9-1.232A11.171,11.171,0,0,1,60.032-8.1a9.942,9.942,0,0,0,2.72-4.176Zm-12.4,8.432a12.092,12.092,0,0,1-.944,3.744,6.253,6.253,0,0,1,1.136.56,14.815,14.815,0,0,0,1.072-4.08Zm4.1-1.088a6.249,6.249,0,0,1,.256.864l1.088-.48A12.4,12.4,0,0,0,53.36-8.288l-1.008.416c.224.4.448.848.656,1.3-.688.048-1.36.08-2,.1,1.04-1.344,2.192-3.088,3.088-4.544l-1.232-.56c-.4.816-.944,1.792-1.52,2.736a11.57,11.57,0,0,0-.768-.88c.576-.88,1.248-2.112,1.808-3.184l-1.312-.512a18.45,18.45,0,0,1-1.312,2.9c-.144-.128-.288-.256-.432-.368l-.72.976a15.093,15.093,0,0,1,1.984,2.24c-.3.448-.624.88-.912,1.264l-1.12.032.128,1.312c.72-.048,1.536-.1,2.416-.144v6.5h1.328V-5.3Zm-.736,1.312A17.113,17.113,0,0,1,53.68-1.12L54.816-1.5a18.484,18.484,0,0,0-1.008-2.9Zm6.928,1.232h2.992V-4.128H59.664V-6.24H58.192v2.112h-2.88v1.312h2.88v2.3H54.32V.8h9.04V-.512h-3.7ZM65.3.368a7.534,7.534,0,0,0,.864-3.776l-.848-.176A7.2,7.2,0,0,1,64.5-.064ZM66.432-3.28a15.681,15.681,0,0,1,.176,2.928l.752-.112a14.427,14.427,0,0,0-.224-2.9Zm2.8-2.336V-6.864h1.584V-8.032H69.232V-9.248h1.584v-.144a6.412,6.412,0,0,1,.672,1.136A9.289,9.289,0,0,0,72.8-9.232v.912h1.776v1.1H71.744v4.048h2.464A5.883,5.883,0,0,1,70.88.208a29.289,29.289,0,0,0,.48-5.28c.016-.16.016-.544.016-.544Zm-2.56-1.248h1.344v1.248H66.672Zm1.344-2.384v1.216H66.672V-9.248Zm0-2.32v1.152H66.672v-1.152Zm5.072,2.08a10.927,10.927,0,0,0,2.08-2.624,11.8,11.8,0,0,0,2.256,2.624ZM77.552-6.1v1.808H75.824a11.593,11.593,0,0,0,.08-1.488V-6.1ZM72.976-4.288V-6.1h1.6v.3a9.62,9.62,0,0,1-.1,1.5Zm5.856,1.12V-7.216H75.9v-1.1H77.7v-.928a10.734,10.734,0,0,0,1.168.848,7.692,7.692,0,0,1,.752-1.28,10.987,10.987,0,0,1-3.84-3.744H74.464A10.437,10.437,0,0,1,70.816-9.44v-.976H69.232v-1.152h1.92V-12.8H65.424v8.368H70.08c-.032.912-.08,1.632-.128,2.224a9.907,9.907,0,0,0-.72-1.648l-.64.208a9.09,9.09,0,0,1,.784,2.08l.544-.208a3.958,3.958,0,0,1-.352,1.7.439.439,0,0,1-.416.192c-.208,0-.64,0-1.136-.048a2.979,2.979,0,0,1,.336,1.168A9.519,9.519,0,0,0,69.76,1.2a1.155,1.155,0,0,0,.88-.464,1.286,1.286,0,0,0,.224-.448,3.98,3.98,0,0,1,.832.992,6.863,6.863,0,0,0,3.68-3.632,6.731,6.731,0,0,0,3.2,3.584A5.593,5.593,0,0,1,79.52.064a5.972,5.972,0,0,1-3.168-3.232Zm-10,2.176a11.117,11.117,0,0,0-.592-2.544l-.672.128a13.053,13.053,0,0,1,.544,2.576Zm16.24-11.584-1.584.656c.752,1.712,1.552,3.52,2.288,4.864-1.632,1.152-2.72,2.464-2.72,4.16,0,2.56,2.272,3.44,5.36,3.44A30.546,30.546,0,0,0,93.5.16l.016-1.824a23.837,23.837,0,0,1-5.168.576c-2.384,0-3.584-.736-3.584-1.984,0-1.168.9-2.176,2.3-3.1,1.52-.992,3.648-1.984,4.7-2.528.512-.256.96-.5,1.376-.752l-.88-1.456a8.872,8.872,0,0,1-1.28.848c-.832.464-2.416,1.248-3.824,2.1A37.384,37.384,0,0,1,85.072-12.576Zm16.784,6.048-1.632.432V-8.912h1.68v-1.376h-1.68v-3.12H98.768v3.12H96.8v1.376h1.968V-5.7c-.8.192-1.536.368-2.144.512l.384,1.424c.56-.144,1.136-.3,1.76-.48V-.448c0,.224-.1.3-.32.3-.192.016-.864.016-1.568,0A5.766,5.766,0,0,1,97.328,1.2,5.5,5.5,0,0,0,99.6.944c.464-.224.624-.624.624-1.392V-4.656l1.824-.528Zm6.928.416a9.31,9.31,0,0,1-2.336,3.3,10.2,10.2,0,0,1-2.144-3.3Zm.928-1.408-.256.048h-2.272V-9.664h3.7v-1.36h-3.7v-2.4h-1.472v2.4h-3.584v1.36h3.584v2.192h-3.3v1.36h.64l-.208.064a12.967,12.967,0,0,0,2.48,4.128A12.387,12.387,0,0,1,101.216-.1a6.347,6.347,0,0,1,.8,1.344A13.78,13.78,0,0,0,106.4-.88a11.293,11.293,0,0,0,4.128,2.16,5.279,5.279,0,0,1,.96-1.264,11.2,11.2,0,0,1-3.936-1.856,11.632,11.632,0,0,0,3.12-5.3ZM127.1-12.528h-3.776V-11.2H127.1Zm-4,1.664a10.608,10.608,0,0,0-1.248-2.16l-.976.448a10.759,10.759,0,0,1,1.184,2.208Zm-7.824-2.56a10.331,10.331,0,0,1-2.752,3.12c.224.288.608.816.8,1.12a15.249,15.249,0,0,0,3.312-3.76Zm1.936,6.576a16.41,16.41,0,0,1-.976,5.328,7,7,0,0,1,1.008.7,18.207,18.207,0,0,0,1.184-5.872Zm5.616-1.76V-9.984H120.56v-3.2h-1.392v3.2h-2.256v.208l-1.216-.4a12.881,12.881,0,0,1-3.376,4.464,10.5,10.5,0,0,1,.832,1.328,12.678,12.678,0,0,0,1.216-1.232v6.88h1.376V-7.424a18.48,18.48,0,0,0,1.168-2.032v.848h2.256V1.024h1.392V-8.608Zm-1.68,2a37.518,37.518,0,0,1,.736,4.72l1.168-.208a30.337,30.337,0,0,0-.8-4.72Zm6.192-1.52h-4.4v1.344h1.632V-.448c0,.208-.064.272-.272.272-.224.016-.912.016-1.664-.016a6.578,6.578,0,0,1,.416,1.44,6.236,6.236,0,0,0,2.32-.24c.5-.256.608-.688.608-1.424V-6.784h1.36Zm8.608-1.9v-3.36h-1.568v3.36h-5.04v1.52h4.96a10.27,10.27,0,0,1-5.44,8.656,6.29,6.29,0,0,1,1.152,1.2,11.581,11.581,0,0,0,5.872-9.856H140.9c-.272,5.232-.608,7.424-1.152,7.936a.9.9,0,0,1-.736.24c-.4,0-1.376,0-2.432-.1A3.749,3.749,0,0,1,137.1,1.1a19.056,19.056,0,0,0,2.544,0A1.946,1.946,0,0,0,141.12.368c.7-.816,1.008-3.184,1.36-9.664.016-.208.032-.736.032-.736Zm9.248-.688.16,1.744c1.792-.384,5.52-.768,7.136-.928a6.418,6.418,0,0,0-2.72,5.2c0,3.52,3.28,5.2,6.416,5.36l.576-1.712c-2.64-.112-5.36-1.088-5.36-4a5.305,5.305,0,0,1,3.536-4.816,15.419,15.419,0,0,1,3.12-.224v-1.616c-1.1.032-2.7.128-4.416.272-2.944.256-5.792.528-6.96.64C146.368-10.768,145.808-10.736,145.2-10.72Zm10.56,2.4-.96.416a15.131,15.131,0,0,1,1.28,2.24l.992-.448A22.337,22.337,0,0,0,155.76-8.32Zm1.776-.688-.96.432a15.016,15.016,0,0,1,1.344,2.208l.976-.464A23.108,23.108,0,0,0,157.536-9.008Z" transform="translate(907 2319)" fill="#363636"/>
    <path id="パス_8730" data-name="パス 8730" d="M-73.612-22.2l-4.508-.056a17.858,17.858,0,0,1,.364,3.78c0,2.408-.28,9.772-.28,13.524,0,4.788,2.968,6.8,7.56,6.8a14.494,14.494,0,0,0,12.152-6.44l-2.548-3.08C-62.888-4.62-65.828-1.96-70.448-1.96c-2.184,0-3.864-.924-3.864-3.752,0-3.472.224-9.744.336-12.768C-73.92-19.6-73.78-21.028-73.612-22.2ZM-52-11.844-50.54-8.2c2.38-1.008,7.98-3.332,11.228-3.332,2.436,0,4,1.456,4,3.556,0,3.808-4.7,5.516-11.116,5.684l1.484,3.444c8.9-.56,13.356-4,13.356-9.072,0-4.228-2.968-6.86-7.392-6.86-3.388,0-8.148,1.6-10.052,2.184C-49.868-12.348-51.156-12.012-52-11.844ZM-15.064-22.12l-4.172-.42a31.035,31.035,0,0,1-.588,5.936c-1.428.112-2.744.2-3.612.224a26.734,26.734,0,0,1-3,0l.336,3.808c.84-.14,2.324-.336,3.108-.476.532-.056,1.4-.168,2.408-.28-1.008,3.836-2.94,9.492-5.656,13.16l3.64,1.456c2.576-4.116,4.648-10.752,5.712-15.008.784-.056,1.484-.112,1.932-.112,1.764,0,2.716.308,2.716,2.548,0,2.772-.364,6.16-1.12,7.756a2.075,2.075,0,0,1-2.1,1.2A16.405,16.405,0,0,1-18.9-2.912l.616,3.7a18.114,18.114,0,0,0,3.36.392c2.1,0,3.668-.616,4.592-2.576,1.2-2.436,1.6-6.972,1.6-10.276,0-4.032-2.1-5.348-5.068-5.348-.588,0-1.428.056-2.352.112.2-1.008.392-2.044.588-2.884C-15.428-20.5-15.232-21.392-15.064-22.12Zm9.632,2.632L-8.764-18.06c1.988,2.464,3.976,7.532,4.7,10.64L-.5-9.072A48.4,48.4,0,0,0-5.432-19.488Zm15.54-3-3.836-.168a24.8,24.8,0,0,1-.224,2.94,73.674,73.674,0,0,0-.784,8.96,31.671,31.671,0,0,0,.364,4.676L9.072-6.3a14.641,14.641,0,0,1-.14-2.968c.14-3.7,3.024-8.652,6.328-8.652,2.352,0,3.808,2.408,3.808,6.72,0,6.776-4.4,8.82-10.612,9.772L10.584,1.82C18,.476,22.848-3.3,22.848-11.228c0-6.16-3.024-9.968-6.916-9.968-3.164,0-5.6,2.352-6.944,4.536A45.655,45.655,0,0,1,10.108-22.484ZM32.452,2.1c1.456-2.716,2.912-5.936,4.172-8.932L33.992-8.82A88.153,88.153,0,0,1,29.484.14Zm3.164-15.54A18.177,18.177,0,0,0,30.548-15.9l-1.764,2.52a21.183,21.183,0,0,1,4.984,2.744Zm-5.488-7.644a19.68,19.68,0,0,1,4.7,3.192L36.9-20.524a22.469,22.469,0,0,0-4.816-2.968ZM43.6-18.536h3.752v2.072H43.6Zm11.4,4.984v-2.912H50.568v-2.072h3.64V-21.42h-3.64v-2.268h-3.22v2.268H43.6v-2.268H40.488v2.268H36.9v2.884h3.584v2.072H36.036v2.912H43.82v1.68H36.876V2.408h2.94v-11.4h4.4v4.452h-1.26v-3.3H40.964V-.5h1.988V-2.128H48.02V-1.2h1.932V-7.84H48.02v3.3H46.648V-8.988h4.62v8.2c0,.308-.112.42-.476.448-.364,0-1.568,0-2.6-.056a9.092,9.092,0,0,1,.756,2.772,10.619,10.619,0,0,0,4.2-.476c.952-.448,1.232-1.2,1.232-2.66V-11.872H47.012v-1.68Zm8.792-5.8H76.608v3.836H63.784ZM71.932-5.824H81.06V-8.9H71.932v-3.444h8.232V-22.54H60.452v10.192h8.036v9.912a8.479,8.479,0,0,1-4.032-4.508c.28-1.12.5-2.24.672-3.332l-3.472-.392C61.264-6.86,60.032-2.3,57.008.084A13.9,13.9,0,0,1,59.36,2.352,14.089,14.089,0,0,0,63.2-3.136c2.912,4.284,7.252,5.292,12.88,5.292h5.936a12.225,12.225,0,0,1,1.148-3.22c-1.54.028-5.684.056-6.888.028a26.84,26.84,0,0,1-4.34-.308Z" transform="translate(987 2276)" fill="#00c8ac"/>
    <path id="パス_8731" data-name="パス 8731" d="M8.72-16.24H5.96a16.1,16.1,0,0,1,.14,1.76c0,.34,0,.92-.02,1.62-.4.02-.8.04-1.16.04a22.177,22.177,0,0,1-2.76-.16l.04,2.42a24.52,24.52,0,0,0,2.8.1c.32,0,.68-.02,1.06-.04v1.68c0,.46,0,.94.02,1.42C3.62-6.34,1.62-4.52,1.62-2.78c0,2.12,2.74,3.8,4.68,3.8,1.32,0,2.2-.66,2.2-3.14,0-.68-.04-2.24-.08-3.82a13.484,13.484,0,0,1,3.76-.56c1.74,0,2.94.8,2.94,2.16,0,1.46-1.28,2.26-2.9,2.56a15.4,15.4,0,0,1-2.46.14L10.68.94A18.312,18.312,0,0,0,13.3.62c3.18-.8,4.42-2.58,4.42-4.94,0-2.76-2.42-4.36-5.5-4.36a16.572,16.572,0,0,0-3.84.52V-8.9c0-.58,0-1.2.02-1.8,1.3-.16,2.68-.36,3.82-.62l-.06-2.48a24.494,24.494,0,0,1-3.68.72c.02-.5.04-.98.06-1.42C8.58-15.02,8.66-15.88,8.72-16.24Zm5.7,2.16-1.1,1.94a31.821,31.821,0,0,1,4.82,2.92l1.2-2.04A41.793,41.793,0,0,0,14.42-14.08ZM4.08-2.88c0-.7.82-1.52,2.04-2.18.04,1.08.06,2,.06,2.5,0,.68-.28.84-.64.84C5.02-1.72,4.08-2.26,4.08-2.88ZM26.82-4.5A23.84,23.84,0,0,0,29.9-5.84,21.722,21.722,0,0,0,33.32-4.5ZM26.7-.84v-1.7h6.66v1.7Zm.96-9.24H32.1a11.5,11.5,0,0,1-2.2,1.72A11.564,11.564,0,0,1,27.56-10Zm6.46-1.88-.4.1H29.36c.22-.28.44-.56.64-.84l-2.22-.44h8.36v2.22h2.44V-15.3H31.16v-1.62H28.72v1.62h-7.3v4.38h2.34v-2.22h3.68a11.626,11.626,0,0,1-5.62,4.02A6.655,6.655,0,0,1,23.4-7.36,19.936,19.936,0,0,0,25.84-8.7a16.263,16.263,0,0,0,1.8,1.5,28.446,28.446,0,0,1-7.02,1.98,7.9,7.9,0,0,1,1.1,2.12c.9-.18,1.78-.38,2.66-.62V1.74H26.7V1.12h6.66V1.7h2.46V-3.86c.66.12,1.34.24,2.04.34a11.659,11.659,0,0,1,1.5-2.3,30.516,30.516,0,0,1-7.08-1.5A12.793,12.793,0,0,0,35.72-11Zm13.72,5.7C47.5-6.8,46.06-9,45.52-9.74v-.88h2v-2.2h-2v-4.12H43.36v4.12h-2.4v2.2h2.22a20,20,0,0,1-2.68,6.7,11.411,11.411,0,0,1,1.04,2.1,16.872,16.872,0,0,0,1.82-3.94V1.72h2.16V-6.9c.44.86.86,1.76,1.1,2.34Zm3.62,2.48C49.76-2.9,48-2,46.82-1.46l1.02,2c1.28-.7,2.84-1.58,4.24-2.4Zm-3.5-2.18a14.019,14.019,0,0,1,1.9,2.56l1.7-1.2a13.7,13.7,0,0,0-1.98-2.42Zm9.38-1.12A15.742,15.742,0,0,1,55.4-4.92a10.856,10.856,0,0,1-.82-1.76v-.78h4.66V-9.4H54.58v-.88h3.88v-1.78H54.58v-.8h4.3v-1.86H56.94c.32-.5.68-1.1,1.04-1.7l-2.36-.54c-.2.64-.6,1.56-.9,2.24H52.24a11.063,11.063,0,0,0-1.14-2.2l-1.88.64A11.354,11.354,0,0,1,50-14.72H47.96v1.86h4.32v.8H48.5v1.78h3.78v.88h-4.7v1.94h4.7V-.64c0,.24-.08.34-.32.34s-1.02,0-1.7-.04a7.4,7.4,0,0,1,.64,2.12,6.523,6.523,0,0,0,2.84-.4c.64-.36.84-.92.84-2V-2.7A9.486,9.486,0,0,0,58.12.82a8.852,8.852,0,0,1,1.5-1.92A8.359,8.359,0,0,1,56.5-3.36a32.192,32.192,0,0,0,2.64-2.46Zm12.38-8.96-2.64-.22a11.119,11.119,0,0,1-.4,2.3h-.96a26.023,26.023,0,0,1-3.52-.24v2.34c1.1.08,2.56.12,3.38.12h.26a19.628,19.628,0,0,1-4.42,5.52l2.14,1.6a23.027,23.027,0,0,1,1.86-2.2A4.872,4.872,0,0,1,68.54-8.2a1.539,1.539,0,0,1,1.4.68c-2.28,1.18-4.68,2.78-4.68,5.34,0,2.58,2.32,3.34,5.46,3.34A50.031,50.031,0,0,0,76.38.82l.08-2.58a32.718,32.718,0,0,1-5.68.56c-1.96,0-2.9-.3-2.9-1.4,0-1,.8-1.78,2.3-2.64-.02.88-.04,1.84-.1,2.44h2.4c-.02-.92-.06-2.4-.08-3.52,1.22-.56,2.36-1,3.26-1.36.68-.26,1.74-.66,2.38-.84l-1-2.32c-.74.38-1.44.7-2.22,1.04-.82.36-1.66.7-2.7,1.18a2.708,2.708,0,0,0-2.66-1.54,6.777,6.777,0,0,0-2.26.4,13.964,13.964,0,0,0,1.14-2.04,59.578,59.578,0,0,0,6.52-.5l.02-2.32a50.633,50.633,0,0,1-5.66.58A19.133,19.133,0,0,0,69.72-16.04Zm25.24,7.2V-9.5h1.48c1.06,0,1.76.02,2.2.06V-12.1a11.851,11.851,0,0,1-2.2.14H94.96v-2.1a12.6,12.6,0,0,1,.14-1.86H92.24a13.2,13.2,0,0,1,.12,1.86v2.1H87.62v-1.98a12.224,12.224,0,0,1,.12-1.8H84.9c.06.6.12,1.22.12,1.8v1.98h-1.7a12.991,12.991,0,0,1-2.16-.18v2.72c.44-.04,1.16-.08,2.16-.08h1.7v2.72a16.175,16.175,0,0,1-.12,2.1h2.8c-.02-.4-.08-1.22-.08-2.1V-9.5h4.74v.76c0,4.92-1.7,6.64-5.56,7.98l2.14,2.02C93.76-.86,94.96-3.88,94.96-8.84ZM115.5-15a1.093,1.093,0,0,1,1.1-1.08A1.076,1.076,0,0,1,117.68-15a1.076,1.076,0,0,1-1.08,1.08A1.093,1.093,0,0,1,115.5-15Zm-1.22,0a2.322,2.322,0,0,0,2.32,2.32A2.3,2.3,0,0,0,118.9-15a2.3,2.3,0,0,0-2.3-2.32A2.322,2.322,0,0,0,114.28-15Zm-2.76-.78h-2.96a10.36,10.36,0,0,1,.18,1.74v1.6h-5.08a15.227,15.227,0,0,1-1.94-.16v2.66c.56-.06,1.34-.08,1.94-.08h5.08V-10c0,.94,0,7.28-.02,8.02-.02.52-.22.72-.74.72a13.833,13.833,0,0,1-2.22-.24L106,.98a28.878,28.878,0,0,0,3.26.18c1.42,0,2.08-.72,2.08-1.88v-9.3h4.68c.54,0,1.32.02,1.96.06v-2.62a16.187,16.187,0,0,1-1.98.14h-4.66v-1.6A16.21,16.21,0,0,1,111.52-15.78Zm-4.7,8.6-2.26-1.06a20.841,20.841,0,0,1-3.76,5.16l2.16,1.48A31.391,31.391,0,0,0,106.82-7.18Zm8.6-1.12-2.18,1.18a37.973,37.973,0,0,1,3.24,5.36l2.36-1.28A46.489,46.489,0,0,0,115.42-8.3Zm6.42-.96v3.14c.74-.06,2.08-.1,3.22-.1H135.8c.84,0,1.86.08,2.34.1V-9.26c-.52.04-1.4.12-2.34.12H125.06C124.02-9.14,122.56-9.2,121.84-9.26Zm24.44,7.34a21.968,21.968,0,0,1-.2,2.8h3.12c-.08-.82-.18-2.22-.18-2.8V-7.58a57.768,57.768,0,0,1,7.22,2.98l1.14-2.76a65.322,65.322,0,0,0-8.36-3.1v-2.96a21.744,21.744,0,0,1,.18-2.4h-3.12a13.883,13.883,0,0,1,.2,2.4Z" transform="translate(907 2359)" fill="#363636"/>
    <g id="グループ_4234" data-name="グループ 4234" transform="translate(954.993 2177.994)">
      <g id="グループ_4235" data-name="グループ 4235" transform="translate(2.007 2.006)">
        <path id="パス_8732" data-name="パス 8732" d="M0,0H13.988V37.333H0Z" transform="translate(0 18.667)" fill="none" stroke="#00c8ac" stroke-linecap="round" stroke-width="3"/>
        <path id="パス_8421" data-name="パス 8421" d="M46.684,25.339h5.541A6.833,6.833,0,0,1,58.9,33.606L55.759,48.283a12.291,12.291,0,0,1-12.016,9.722H23.37a2.332,2.332,0,0,1-2.331-2.333,2.333,2.333,0,0,0-2.332-2.333H14.044v-28A16.326,16.326,0,0,0,30.363,9.005V4.4a2.393,2.393,0,0,1,2.393-2.394A5.139,5.139,0,0,1,36.73,3.888a22.673,22.673,0,0,1,5.291,14.451,23.242,23.242,0,0,1-4.3,13.5" transform="translate(-0.056 -2.006)" fill="none" stroke="#00c8ac" stroke-linecap="round" stroke-linejoin="round" stroke-miterlimit="10" stroke-width="3"/>
      </g>
    </g>
  </g>
</svg>
