<svg xmlns="http://www.w3.org/2000/svg" width="253" height="219" viewBox="0 0 253 219">
  <g id="グループ_4490" data-name="グループ 4490" transform="translate(-61 -3626)">
    <path id="パス_8746" data-name="パス 8746" d="M0,0H253V219H0Z" transform="translate(61 3626)" fill="#edfaf9"/>
    <path id="パス_8747" data-name="パス 8747" d="M8.46-1.95h1.77V-.585H8.46ZM5.79-7.29H3.135c.255-.975.45-2.025.615-3.075H6.09V-8.52H7.275V-9.945h1.38a9.524,9.524,0,0,1-2.865,3.6ZM4.605-1.845H2.985v-4.23h1.62ZM10.23-5.4H8.46V-6.69h1.77Zm0,2.4H8.46V-4.35h1.77ZM14.385-.585H11.52V-1.95H13.7V-3H11.52V-4.35H13.7V-5.4H11.52V-6.69h2.445V-7.86H11.79c.225-.435.45-.915.66-1.38l-1.29-.285a11.44,11.44,0,0,1-.615,1.665H8.985A13.119,13.119,0,0,0,10.1-9.945H13.05V-8.52h1.26v-2.61H10.545c.135-.39.27-.795.375-1.215L9.585-12.6a15.172,15.172,0,0,1-.435,1.47H6.12v-.495H.84v1.26H2.415a15.284,15.284,0,0,1-2.04,6.39,10.123,10.123,0,0,1,.78,1.32,8.337,8.337,0,0,0,.69-1.125V.54h1.14V-.63h2.8V-6a6.921,6.921,0,0,1,.75.855q.293-.225.585-.495V1.185H8.46V.57h5.925ZM21.72-11.76l-1.755-.18a16.766,16.766,0,0,1-.345,3.225c-.855.075-1.665.135-2.145.15-.51.015-.945.03-1.455,0l.15,1.62c.42-.075,1.11-.165,1.485-.21.345-.045.96-.12,1.65-.2a23.8,23.8,0,0,1-3.12,7.305L17.73.57A31.32,31.32,0,0,0,20.835-7.5c.57-.06,1.065-.09,1.38-.09.945,0,1.53.225,1.53,1.515a12.192,12.192,0,0,1-.675,4.4,1.175,1.175,0,0,1-1.23.72,7.812,7.812,0,0,1-1.83-.3L20.25.3a8.435,8.435,0,0,0,1.785.21A2.207,2.207,0,0,0,24.345-.8,14.524,14.524,0,0,0,25.2-6.24c0-2.1-1.1-2.685-2.55-2.685-.345,0-.885.03-1.5.09.135-.7.27-1.425.36-1.89C21.57-11.055,21.645-11.445,21.72-11.76ZM26.9-10.245l-1.4.6A17.9,17.9,0,0,1,28.1-4.1l1.485-.69A25.979,25.979,0,0,0,26.9-10.245ZM36.9-11.985l-1.65-.165a12.242,12.242,0,0,1-.435,2.565c-.525.045-1.05.06-1.545.06-.6,0-1.32-.03-1.905-.09l.1,1.4c.6.03,1.23.045,1.8.045.36,0,.72-.015,1.1-.03a22.526,22.526,0,0,1-3.15,5.475L32.655-2A26.838,26.838,0,0,0,35.91-8.37,20.135,20.135,0,0,0,38.6-8.91l-.045-1.38a14.342,14.342,0,0,1-2.205.51C36.57-10.62,36.78-11.46,36.9-11.985Zm-.81,10.4c0-.615.675-1.065,1.665-1.065a5.222,5.222,0,0,1,1.4.195c.015.195.015.375.015.51,0,.81-.375,1.44-1.515,1.44C36.63-.51,36.09-.945,36.09-1.59Zm4.335-5.745h-1.47c.03.99.1,2.4.15,3.585a8.6,8.6,0,0,0-1.275-.105c-1.86,0-3.135.99-3.135,2.4,0,1.56,1.41,2.31,3.15,2.31,1.98,0,2.745-1.035,2.745-2.31v-.42A11.706,11.706,0,0,1,42.84-.2l.8-1.275A9.775,9.775,0,0,0,40.53-3.36c-.045-.855-.09-1.725-.1-2.22C40.41-6.18,40.4-6.705,40.425-7.335Zm2.82.57L44.1-8.01a26.553,26.553,0,0,0-3.6-2.01l-.765,1.155A19.073,19.073,0,0,1,43.245-6.765Zm13.71-3.885A8.038,8.038,0,0,1,55.17-8.415a7.278,7.278,0,0,1-1.725-2.235Zm.96-1.26-.27.06H51.3v1.2h1.68l-.825.27A9.268,9.268,0,0,0,54.12-7.635,11.836,11.836,0,0,1,50.91-6.24a5.135,5.135,0,0,1,.78,1.17A13.308,13.308,0,0,0,55.2-6.75a11.1,11.1,0,0,0,3.54,1.62,5.161,5.161,0,0,1,.84-1.155,10.473,10.473,0,0,1-3.3-1.305,9.321,9.321,0,0,0,2.55-3.915ZM46.29-4.005A11.336,11.336,0,0,1,45.4-.5,5.863,5.863,0,0,1,46.47.03a13.889,13.889,0,0,0,1-3.825Zm3.84-1.02a5.858,5.858,0,0,1,.24.81l1.02-.45a11.629,11.629,0,0,0-1.365-3.1l-.945.39c.21.375.42.8.615,1.215-.645.045-1.275.075-1.875.09.975-1.26,2.055-2.9,2.9-4.26L49.56-10.86c-.375.765-.885,1.68-1.425,2.565a10.846,10.846,0,0,0-.72-.825c.54-.825,1.17-1.98,1.695-2.985l-1.23-.48A17.3,17.3,0,0,1,46.65-9.87c-.135-.12-.27-.24-.405-.345L45.57-9.3a14.149,14.149,0,0,1,1.86,2.1c-.285.42-.585.825-.855,1.185l-1.05.03.12,1.23c.675-.045,1.44-.09,2.265-.135V1.2h1.245V-4.965ZM49.44-3.8a16.044,16.044,0,0,1,.885,2.745l1.065-.36a17.329,17.329,0,0,0-.945-2.715Zm6.5,1.155H58.74V-3.87H55.935V-5.85h-1.38v1.98h-2.7v1.23h2.7V-.48h-3.63V.75H59.4V-.48H55.935ZM61.215.345a7.063,7.063,0,0,0,.81-3.54l-.8-.165a6.747,6.747,0,0,1-.765,3.3Zm1.065-3.42A14.7,14.7,0,0,1,62.445-.33l.705-.1a13.525,13.525,0,0,0-.21-2.715ZM64.9-5.265v-1.17H66.39v-1.1H64.9V-8.67H66.39v-.135a6.011,6.011,0,0,1,.63,1.065,8.708,8.708,0,0,0,1.23-.915V-7.8h1.665v1.035H67.26v3.8h2.31A5.516,5.516,0,0,1,66.45.2a27.459,27.459,0,0,0,.45-4.95c.015-.15.015-.51.015-.51Zm-2.4-1.17h1.26v1.17h-1.26Zm1.26-2.235v1.14h-1.26V-8.67Zm0-2.175v1.08h-1.26v-1.08ZM68.52-8.9a10.244,10.244,0,0,0,1.95-2.46A11.058,11.058,0,0,0,72.585-8.9Zm4.185,3.18v1.7h-1.62a10.868,10.868,0,0,0,.075-1.4v-.3Zm-4.29,1.7v-1.7h1.5v.285a9.017,9.017,0,0,1-.09,1.41ZM73.9-2.97v-3.8H71.16V-7.8h1.68v-.87a10.061,10.061,0,0,0,1.095.795,7.211,7.211,0,0,1,.705-1.2,10.3,10.3,0,0,1-3.6-3.51H69.81A9.784,9.784,0,0,1,66.39-8.85v-.915H64.9v-1.08h1.8V-12h-5.37v7.845H65.7c-.03.855-.075,1.53-.12,2.085A9.287,9.287,0,0,0,64.9-3.615l-.6.195a8.522,8.522,0,0,1,.735,1.95l.51-.2a3.711,3.711,0,0,1-.33,1.59.411.411,0,0,1-.39.18c-.195,0-.6,0-1.065-.045a2.793,2.793,0,0,1,.315,1.1,8.924,8.924,0,0,0,1.32-.03A1.083,1.083,0,0,0,66.225.69a1.205,1.205,0,0,0,.21-.42,3.732,3.732,0,0,1,.78.93,6.434,6.434,0,0,0,3.45-3.4,6.31,6.31,0,0,0,3,3.36A5.244,5.244,0,0,1,74.55.06a5.6,5.6,0,0,1-2.97-3.03ZM64.53-.93a10.421,10.421,0,0,0-.555-2.385l-.63.12a12.237,12.237,0,0,1,.51,2.415ZM79.755-11.79l-1.485.615c.705,1.605,1.455,3.3,2.145,4.56-1.53,1.08-2.55,2.31-2.55,3.9C77.865-.315,80,.51,82.89.51A28.637,28.637,0,0,0,87.66.15l.015-1.71a22.347,22.347,0,0,1-4.845.54c-2.235,0-3.36-.69-3.36-1.86,0-1.1.84-2.04,2.16-2.91,1.425-.93,3.42-1.86,4.41-2.37.48-.24.9-.465,1.29-.7L86.5-10.23a8.317,8.317,0,0,1-1.2.8C84.525-9,83.04-8.265,81.72-7.47A35.047,35.047,0,0,1,79.755-11.79ZM95.49-6.12l-1.53.405v-2.64h1.575v-1.29H93.96V-12.57H92.6v2.925H90.75v1.29H92.6V-5.34c-.75.18-1.44.345-2.01.48l.36,1.335c.525-.135,1.065-.285,1.65-.45V-.42c0,.21-.09.285-.3.285-.18.015-.81.015-1.47,0a5.406,5.406,0,0,1,.42,1.26,5.156,5.156,0,0,0,2.13-.24C93.81.675,93.96.3,93.96-.42V-4.365l1.71-.495Zm6.5.39a8.728,8.728,0,0,1-2.19,3.09,9.566,9.566,0,0,1-2.01-3.09Zm.87-1.32-.24.045h-2.13V-9.06h3.465v-1.275h-3.465v-2.25h-1.38v2.25h-3.36V-9.06h3.36v2.055h-3.09V-5.73h.6l-.195.06A12.156,12.156,0,0,0,98.745-1.8,11.613,11.613,0,0,1,94.89-.09a5.95,5.95,0,0,1,.75,1.26,12.919,12.919,0,0,0,4.11-2A10.587,10.587,0,0,0,103.62,1.2a4.949,4.949,0,0,1,.9-1.185,10.5,10.5,0,0,1-3.69-1.74,10.905,10.905,0,0,0,2.925-4.965Zm16.305-4.7h-3.54V-10.5h3.54Zm-3.75,1.56a9.945,9.945,0,0,0-1.17-2.025l-.915.42a10.086,10.086,0,0,1,1.11,2.07Zm-7.335-2.4A9.685,9.685,0,0,1,105.5-9.66c.21.27.57.765.75,1.05a14.3,14.3,0,0,0,3.1-3.525ZM109.89-6.42a15.384,15.384,0,0,1-.915,5,6.564,6.564,0,0,1,.945.66,17.069,17.069,0,0,0,1.11-5.5Zm5.265-1.65V-9.36h-2.13v-3H111.72v3h-2.115v.2l-1.14-.375A12.076,12.076,0,0,1,105.3-5.355a9.846,9.846,0,0,1,.78,1.245,11.886,11.886,0,0,0,1.14-1.155v6.45h1.29V-6.96a17.326,17.326,0,0,0,1.1-1.905v.8h2.115V.96h1.305V-8.07ZM113.58-6.2a35.174,35.174,0,0,1,.69,4.425l1.095-.2a28.44,28.44,0,0,0-.75-4.425Zm5.805-1.425H115.26v1.26h1.53V-.42c0,.2-.06.255-.255.255-.21.015-.855.015-1.56-.015a6.167,6.167,0,0,1,.39,1.35A5.847,5.847,0,0,0,117.54.945c.465-.24.57-.645.57-1.335V-6.36h1.275Zm8.07-1.785v-3.15h-1.47v3.15H121.26V-7.98h4.65a9.628,9.628,0,0,1-5.1,8.115,5.9,5.9,0,0,1,1.08,1.125A10.857,10.857,0,0,0,127.4-7.98h4.695c-.255,4.9-.57,6.96-1.08,7.44a.842.842,0,0,1-.69.225c-.375,0-1.29,0-2.28-.09a3.515,3.515,0,0,1,.5,1.44,17.865,17.865,0,0,0,2.385,0,1.825,1.825,0,0,0,1.38-.69c.66-.765.945-2.985,1.275-9.06.015-.2.03-.69.03-.69Zm8.67-.645.15,1.635c1.68-.36,5.175-.72,6.69-.87a6.017,6.017,0,0,0-2.55,4.875c0,3.3,3.075,4.875,6.015,5.025l.54-1.605c-2.475-.105-5.025-1.02-5.025-3.75a4.974,4.974,0,0,1,3.315-4.515,14.455,14.455,0,0,1,2.925-.21V-10.98c-1.035.03-2.535.12-4.14.255-2.76.24-5.43.495-6.525.6C137.22-10.1,136.7-10.065,136.125-10.05Zm9.9,2.25-.9.39a14.185,14.185,0,0,1,1.2,2.1l.93-.42A20.942,20.942,0,0,0,146.025-7.8Zm1.665-.645-.9.405a14.076,14.076,0,0,1,1.26,2.07l.915-.435A21.667,21.667,0,0,0,147.69-8.445Z" transform="translate(113 3784)" fill="#363636"/>
    <path id="パス_8748" data-name="パス 8748" d="M-68.354-20.618l-4.186-.052a16.583,16.583,0,0,1,.338,3.51c0,2.236-.26,9.074-.26,12.558,0,4.446,2.756,6.318,7.02,6.318a13.459,13.459,0,0,0,11.284-5.98l-2.366-2.86c-1.872,2.834-4.6,5.3-8.892,5.3C-67.444-1.82-69-2.678-69-5.3c0-3.224.208-9.048.312-11.856C-68.64-18.2-68.51-19.526-68.354-20.618ZM-48.282-11l1.352,3.38c2.21-.936,7.41-3.094,10.426-3.094,2.262,0,3.718,1.352,3.718,3.3,0,3.536-4.368,5.122-10.322,5.278l1.378,3.2c8.268-.52,12.4-3.718,12.4-8.424,0-3.926-2.756-6.37-6.864-6.37-3.146,0-7.566,1.482-9.334,2.028C-46.306-11.466-47.5-11.154-48.282-11Zm34.294-9.542-3.874-.39a28.818,28.818,0,0,1-.546,5.512c-1.326.1-2.548.182-3.354.208a24.824,24.824,0,0,1-2.782,0l.312,3.536c.78-.13,2.158-.312,2.886-.442.494-.052,1.3-.156,2.236-.26-.936,3.562-2.73,8.814-5.252,12.22l3.38,1.352c2.392-3.822,4.316-9.984,5.3-13.936.728-.052,1.378-.1,1.794-.1,1.638,0,2.522.286,2.522,2.366,0,2.574-.338,5.72-1.04,7.2a1.927,1.927,0,0,1-1.95,1.118,15.233,15.233,0,0,1-3.2-.546l.572,3.432a16.82,16.82,0,0,0,3.12.364c1.95,0,3.406-.572,4.264-2.392,1.118-2.262,1.482-6.474,1.482-9.542,0-3.744-1.95-4.966-4.706-4.966-.546,0-1.326.052-2.184.1.182-.936.364-1.9.546-2.678C-14.326-19.032-14.144-19.864-13.988-20.54ZM-5.044-18.1-8.138-16.77c1.846,2.288,3.692,6.994,4.368,9.88l3.3-1.534A44.939,44.939,0,0,0-5.044-18.1Zm14.43-2.782-3.562-.156a23.028,23.028,0,0,1-.208,2.73,68.412,68.412,0,0,0-.728,8.32,29.409,29.409,0,0,0,.338,4.342l3.2-.208a13.6,13.6,0,0,1-.13-2.756c.13-3.432,2.808-8.034,5.876-8.034,2.184,0,3.536,2.236,3.536,6.24,0,6.292-4.082,8.19-9.854,9.074L9.828,1.69C16.718.442,21.216-3.068,21.216-10.426c0-5.72-2.808-9.256-6.422-9.256-2.938,0-5.2,2.184-6.448,4.212A42.394,42.394,0,0,1,9.386-20.878ZM30.134,1.95c1.352-2.522,2.7-5.512,3.874-8.294L31.564-8.19A81.857,81.857,0,0,1,27.378.13Zm2.938-14.43a16.879,16.879,0,0,0-4.706-2.288l-1.638,2.34A19.67,19.67,0,0,1,31.356-9.88Zm-5.1-7.1a18.274,18.274,0,0,1,4.368,2.964l1.924-2.444A20.864,20.864,0,0,0,29.8-21.814Zm12.506,2.366h3.484v1.924H40.482Zm10.582,4.628v-2.7H46.956v-1.924h3.38V-19.89h-3.38V-22h-2.99v2.106H40.482V-22H37.6v2.106H34.268v2.678H37.6v1.924H33.462v2.7H40.69v1.56H34.242V2.236h2.73V-8.346h4.082v4.134h-1.17V-7.28H38.038V-.468h1.846V-1.976H44.59v.858h1.794V-7.28H44.59v3.068H43.316V-8.346h4.29V-.728c0,.286-.1.39-.442.416-.338,0-1.456,0-2.418-.052a8.443,8.443,0,0,1,.7,2.574,9.86,9.86,0,0,0,3.9-.442C50.232,1.352,50.492.65,50.492-.7V-11.024H43.654v-1.56Zm8.164-5.382H71.136V-14.4H59.228ZM66.794-5.408H75.27v-2.86H66.794v-3.2h7.644V-20.93h-18.3v9.464H63.6v9.2a7.874,7.874,0,0,1-3.744-4.186c.26-1.04.468-2.08.624-3.094l-3.224-.364C56.888-6.37,55.744-2.132,52.936.078A12.9,12.9,0,0,1,55.12,2.184a13.083,13.083,0,0,0,3.562-5.1C61.386,1.066,65.416,2,70.642,2h5.512A11.352,11.352,0,0,1,77.22-.988c-1.43.026-5.278.052-6.4.026a24.923,24.923,0,0,1-4.03-.286Z" transform="translate(188 3744)" fill="#00c8ac"/>
    <path id="パス_8749" data-name="パス 8749" d="M8.72-16.24H5.96a16.1,16.1,0,0,1,.14,1.76c0,.34,0,.92-.02,1.62-.4.02-.8.04-1.16.04a22.177,22.177,0,0,1-2.76-.16l.04,2.42a24.52,24.52,0,0,0,2.8.1c.32,0,.68-.02,1.06-.04v1.68c0,.46,0,.94.02,1.42C3.62-6.34,1.62-4.52,1.62-2.78c0,2.12,2.74,3.8,4.68,3.8,1.32,0,2.2-.66,2.2-3.14,0-.68-.04-2.24-.08-3.82a13.484,13.484,0,0,1,3.76-.56c1.74,0,2.94.8,2.94,2.16,0,1.46-1.28,2.26-2.9,2.56a15.4,15.4,0,0,1-2.46.14L10.68.94A18.312,18.312,0,0,0,13.3.62c3.18-.8,4.42-2.58,4.42-4.94,0-2.76-2.42-4.36-5.5-4.36a16.572,16.572,0,0,0-3.84.52V-8.9c0-.58,0-1.2.02-1.8,1.3-.16,2.68-.36,3.82-.62l-.06-2.48a24.494,24.494,0,0,1-3.68.72c.02-.5.04-.98.06-1.42C8.58-15.02,8.66-15.88,8.72-16.24Zm5.7,2.16-1.1,1.94a31.821,31.821,0,0,1,4.82,2.92l1.2-2.04A41.793,41.793,0,0,0,14.42-14.08ZM4.08-2.88c0-.7.82-1.52,2.04-2.18.04,1.08.06,2,.06,2.5,0,.68-.28.84-.64.84C5.02-1.72,4.08-2.26,4.08-2.88ZM26.82-4.5A23.84,23.84,0,0,0,29.9-5.84,21.722,21.722,0,0,0,33.32-4.5ZM26.7-.84v-1.7h6.66v1.7Zm.96-9.24H32.1a11.5,11.5,0,0,1-2.2,1.72A11.564,11.564,0,0,1,27.56-10Zm6.46-1.88-.4.1H29.36c.22-.28.44-.56.64-.84l-2.22-.44h8.36v2.22h2.44V-15.3H31.16v-1.62H28.72v1.62h-7.3v4.38h2.34v-2.22h3.68a11.626,11.626,0,0,1-5.62,4.02A6.655,6.655,0,0,1,23.4-7.36,19.936,19.936,0,0,0,25.84-8.7a16.263,16.263,0,0,0,1.8,1.5,28.446,28.446,0,0,1-7.02,1.98,7.9,7.9,0,0,1,1.1,2.12c.9-.18,1.78-.38,2.66-.62V1.74H26.7V1.12h6.66V1.7h2.46V-3.86c.66.12,1.34.24,2.04.34a11.659,11.659,0,0,1,1.5-2.3,30.516,30.516,0,0,1-7.08-1.5A12.793,12.793,0,0,0,35.72-11Zm13.72,5.7C47.5-6.8,46.06-9,45.52-9.74v-.88h2v-2.2h-2v-4.12H43.36v4.12h-2.4v2.2h2.22a20,20,0,0,1-2.68,6.7,11.411,11.411,0,0,1,1.04,2.1,16.872,16.872,0,0,0,1.82-3.94V1.72h2.16V-6.9c.44.86.86,1.76,1.1,2.34Zm3.62,2.48C49.76-2.9,48-2,46.82-1.46l1.02,2c1.28-.7,2.84-1.58,4.24-2.4Zm-3.5-2.18a14.019,14.019,0,0,1,1.9,2.56l1.7-1.2a13.7,13.7,0,0,0-1.98-2.42Zm9.38-1.12A15.742,15.742,0,0,1,55.4-4.92a10.856,10.856,0,0,1-.82-1.76v-.78h4.66V-9.4H54.58v-.88h3.88v-1.78H54.58v-.8h4.3v-1.86H56.94c.32-.5.68-1.1,1.04-1.7l-2.36-.54c-.2.64-.6,1.56-.9,2.24H52.24a11.063,11.063,0,0,0-1.14-2.2l-1.88.64A11.354,11.354,0,0,1,50-14.72H47.96v1.86h4.32v.8H48.5v1.78h3.78v.88h-4.7v1.94h4.7V-.64c0,.24-.08.34-.32.34s-1.02,0-1.7-.04a7.4,7.4,0,0,1,.64,2.12,6.523,6.523,0,0,0,2.84-.4c.64-.36.84-.92.84-2V-2.7A9.486,9.486,0,0,0,58.12.82a8.852,8.852,0,0,1,1.5-1.92A8.359,8.359,0,0,1,56.5-3.36a32.192,32.192,0,0,0,2.64-2.46Zm12.38-8.96-2.64-.22a11.119,11.119,0,0,1-.4,2.3h-.96a26.023,26.023,0,0,1-3.52-.24v2.34c1.1.08,2.56.12,3.38.12h.26a19.628,19.628,0,0,1-4.42,5.52l2.14,1.6a23.027,23.027,0,0,1,1.86-2.2A4.872,4.872,0,0,1,68.54-8.2a1.539,1.539,0,0,1,1.4.68c-2.28,1.18-4.68,2.78-4.68,5.34,0,2.58,2.32,3.34,5.46,3.34A50.031,50.031,0,0,0,76.38.82l.08-2.58a32.718,32.718,0,0,1-5.68.56c-1.96,0-2.9-.3-2.9-1.4,0-1,.8-1.78,2.3-2.64-.02.88-.04,1.84-.1,2.44h2.4c-.02-.92-.06-2.4-.08-3.52,1.22-.56,2.36-1,3.26-1.36.68-.26,1.74-.66,2.38-.84l-1-2.32c-.74.38-1.44.7-2.22,1.04-.82.36-1.66.7-2.7,1.18a2.708,2.708,0,0,0-2.66-1.54,6.777,6.777,0,0,0-2.26.4,13.964,13.964,0,0,0,1.14-2.04,59.578,59.578,0,0,0,6.52-.5l.02-2.32a50.633,50.633,0,0,1-5.66.58A19.133,19.133,0,0,0,69.72-16.04Zm25.24,7.2V-9.5h1.48c1.06,0,1.76.02,2.2.06V-12.1a11.851,11.851,0,0,1-2.2.14H94.96v-2.1a12.6,12.6,0,0,1,.14-1.86H92.24a13.2,13.2,0,0,1,.12,1.86v2.1H87.62v-1.98a12.224,12.224,0,0,1,.12-1.8H84.9c.06.6.12,1.22.12,1.8v1.98h-1.7a12.991,12.991,0,0,1-2.16-.18v2.72c.44-.04,1.16-.08,2.16-.08h1.7v2.72a16.175,16.175,0,0,1-.12,2.1h2.8c-.02-.4-.08-1.22-.08-2.1V-9.5h4.74v.76c0,4.92-1.7,6.64-5.56,7.98l2.14,2.02C93.76-.86,94.96-3.88,94.96-8.84ZM115.5-15a1.093,1.093,0,0,1,1.1-1.08A1.076,1.076,0,0,1,117.68-15a1.076,1.076,0,0,1-1.08,1.08A1.093,1.093,0,0,1,115.5-15Zm-1.22,0a2.322,2.322,0,0,0,2.32,2.32A2.3,2.3,0,0,0,118.9-15a2.3,2.3,0,0,0-2.3-2.32A2.322,2.322,0,0,0,114.28-15Zm-2.76-.78h-2.96a10.36,10.36,0,0,1,.18,1.74v1.6h-5.08a15.227,15.227,0,0,1-1.94-.16v2.66c.56-.06,1.34-.08,1.94-.08h5.08V-10c0,.94,0,7.28-.02,8.02-.02.52-.22.72-.74.72a13.833,13.833,0,0,1-2.22-.24L106,.98a28.878,28.878,0,0,0,3.26.18c1.42,0,2.08-.72,2.08-1.88v-9.3h4.68c.54,0,1.32.02,1.96.06v-2.62a16.187,16.187,0,0,1-1.98.14h-4.66v-1.6A16.21,16.21,0,0,1,111.52-15.78Zm-4.7,8.6-2.26-1.06a20.841,20.841,0,0,1-3.76,5.16l2.16,1.48A31.391,31.391,0,0,0,106.82-7.18Zm8.6-1.12-2.18,1.18a37.973,37.973,0,0,1,3.24,5.36l2.36-1.28A46.489,46.489,0,0,0,115.42-8.3Zm6.42-.96v3.14c.74-.06,2.08-.1,3.22-.1H135.8c.84,0,1.86.08,2.34.1V-9.26c-.52.04-1.4.12-2.34.12H125.06C124.02-9.14,122.56-9.2,121.84-9.26Zm24.44,7.34a21.968,21.968,0,0,1-.2,2.8h3.12c-.08-.82-.18-2.22-.18-2.8V-7.58a57.768,57.768,0,0,1,7.22,2.98l1.14-2.76a65.322,65.322,0,0,0-8.36-3.1v-2.96a21.744,21.744,0,0,1,.18-2.4h-3.12a13.883,13.883,0,0,1,.2,2.4Z" transform="translate(108 3815)" fill="#363636"/>
    <g id="グループ_4234" data-name="グループ 4234" transform="translate(159.993 3647.994)">
      <g id="グループ_4235" data-name="グループ 4235" transform="translate(2.007 2.006)">
        <path id="パス_8750" data-name="パス 8750" d="M0,0H11.99V32H0Z" transform="translate(0 16)" fill="none" stroke="#00c8ac" stroke-linecap="round" stroke-width="3"/>
        <path id="パス_8421" data-name="パス 8421" d="M42.021,22.006H46.77a5.857,5.857,0,0,1,5.723,7.086L49.8,41.672a10.535,10.535,0,0,1-10.3,8.333H22.038a2,2,0,0,1-2-2,2,2,0,0,0-2-2h-4v-24a13.994,13.994,0,0,0,13.988-14V4.058a2.051,2.051,0,0,1,2.051-2.052,4.4,4.4,0,0,1,3.407,1.613,19.434,19.434,0,0,1,4.535,12.386,19.922,19.922,0,0,1-3.681,11.57" transform="translate(-2.054 -2.006)" fill="none" stroke="#00c8ac" stroke-linecap="round" stroke-linejoin="round" stroke-miterlimit="10" stroke-width="3"/>
      </g>
    </g>
  </g>
</svg>
