<svg xmlns="http://www.w3.org/2000/svg" width="253" height="229" viewBox="0 0 253 229">
  <g id="グループ_4488" data-name="グループ 4488" transform="translate(-61 -3102)">
    <path id="パス_8733" data-name="パス 8733" d="M0,0H253V229H0Z" transform="translate(61 3102)" fill="#edfaf9"/>
    <path id="パス_8734" data-name="パス 8734" d="M8.925-7.83v1.095H6.765V-7.83Zm3.5,1.095H10.185V-7.83H12.42ZM10.185-4.59V-5.715H12.42V-4.59Zm-3.42,0V-5.715h2.16V-4.59Zm0,1.05h2.16v2.31h1.26V-3.54H12.42v1.05c0,.18-.06.24-.225.24s-.75.015-1.38-.015A3.824,3.824,0,0,1,11.19-1.14a5.7,5.7,0,0,0,2.01-.195c.435-.2.54-.51.54-1.14v-6.39H11.9c-.285-.165-.63-.345-1.02-.525a14.83,14.83,0,0,0,2.865-2.04l-.84-.675-.285.075H5.52v1.1h5.805a12.09,12.09,0,0,1-1.65,1c-.66-.285-1.35-.555-1.935-.765l-.9.75c.765.3,1.665.69,2.475,1.08H5.46v7.68h1.3ZM4.41-9.915a11.9,11.9,0,0,0-2.565-2.34l-.975.87A11.541,11.541,0,0,1,3.375-8.91Zm-.375,3.15H.645v1.29H2.7V-1.89A23.4,23.4,0,0,1,.465-.33l.66,1.38C1.965.42,2.715-.2,3.435-.81A5,5,0,0,0,7.5.915c1.74.06,4.89.03,6.615-.045A6.938,6.938,0,0,1,14.565-.5c-1.905.135-5.355.18-7.05.1C5.865-.465,4.68-.915,4.035-1.965Zm15.9-.495h5.13v1.23h-5.13ZM27.96-3.915H23.4v-1.1h3.09V-8.28H18.6v3.27h3.36v1.1H17.235V.51h1.41V-2.655H21.96v3.84H23.4v-3.84h3.12v1.8c0,.18-.06.225-.3.24-.21,0-1.005,0-1.8-.03A5.934,5.934,0,0,1,24.885.63,7.747,7.747,0,0,0,27.3.42c.51-.21.66-.585.66-1.26ZM26.325-10.38a20.286,20.286,0,0,0,1.38-1.605l-1.485-.48a11.4,11.4,0,0,1-1.17,1.74l.9.345H23.265v-2.205h-1.44v2.205h-2.79l.885-.39a8.052,8.052,0,0,0-1.185-1.68l-1.26.495A10.37,10.37,0,0,1,18.5-10.38h-2.22v3.33H17.61V-9.18h9.825v2.13h1.38v-3.33ZM43.74-5.265a5.552,5.552,0,0,0-5.88-5.655,6.5,6.5,0,0,0-6.7,6.24c0,2.505,1.365,4.155,2.85,4.155s2.73-1.7,3.63-4.755a29.869,29.869,0,0,0,.9-4.215,3.988,3.988,0,0,1,3.63,4.185,4.314,4.314,0,0,1-3.63,4.26A9.271,9.271,0,0,1,37.2-.84L38.085.57C41.73.045,43.74-2.115,43.74-5.265ZM32.67-4.83a5.014,5.014,0,0,1,4.275-4.635A23.881,23.881,0,0,1,36.12-5.6c-.69,2.31-1.4,3.285-2.07,3.285C33.4-2.31,32.67-3.105,32.67-4.83Zm24.69-6.135-1.74-.615a10.56,10.56,0,0,1-.33,1.23,16.594,16.594,0,0,1-1.875,3.87c-1.2-.915-2.865-2.07-4.125-2.865l-.99,1.2A42.594,42.594,0,0,1,52.44-5.19,16.3,16.3,0,0,1,46.6-.6L47.925.585A18.727,18.727,0,0,0,53.67-4.17,33.464,33.464,0,0,1,57.12-.78l1.2-1.32a36.738,36.738,0,0,0-3.66-3.39,21.508,21.508,0,0,0,2.16-4.26A11.065,11.065,0,0,1,57.36-10.965Zm4.1,4.275v1.86c.51-.045,1.41-.075,2.235-.075h8.16c.66,0,1.35.06,1.68.075V-6.69c-.375.03-.96.09-1.68.09H63.69C62.88-6.6,61.95-6.66,61.455-6.69ZM82.77-11.9H81.015a9.541,9.541,0,0,1,.105,1.29q0,.765-.045,1.44H78.66c-.585,0-1.26-.045-1.83-.09V-7.7c.57-.045,1.275-.06,1.83-.06h2.28A9.324,9.324,0,0,1,78.195-1.86,8,8,0,0,1,76.47-.6L77.85.525c2.58-1.815,4.065-4.11,4.62-8.28h3.84c0,1.62-.195,5.01-.7,6.06a.793.793,0,0,1-.855.51,17.173,17.173,0,0,1-2.175-.18L82.755.21C83.52.27,84.39.315,85.2.315a1.673,1.673,0,0,0,1.74-1.02c.66-1.47.855-5.76.9-7.275.015-.18.06-.51.1-.765l-1.05-.51a6.82,6.82,0,0,1-1.035.09H82.62c.03-.465.06-.96.075-1.47C82.71-11,82.74-11.55,82.77-11.9ZM91.455-6.69v1.86c.51-.045,1.41-.075,2.235-.075h8.16c.66,0,1.35.06,1.68.075V-6.69c-.375.03-.96.09-1.68.09H93.69C92.88-6.6,91.95-6.66,91.455-6.69Zm17.6-5.85A16.029,16.029,0,0,1,105.39-6.8a8.256,8.256,0,0,1,.78,1.41,16.018,16.018,0,0,0,1.4-1.665V1.155h1.32V-9.075a27.029,27.029,0,0,0,1.47-3.045Zm3.015,1.875h5.055V-8.25h-5.055Zm7.23,6.555V-5.37h-4.05V-7.005h3.27V-11.9H110.76v4.89h3.09V-5.37h-4.14v1.26h3.4A11,11,0,0,1,109.23-.54a6.151,6.151,0,0,1,.96,1.11,12.205,12.205,0,0,0,3.66-3.63V1.2h1.4V-3.135A12.876,12.876,0,0,0,118.725.6,6.235,6.235,0,0,1,119.7-.51a11.149,11.149,0,0,1-3.7-3.6Zm6.24-7.98h-4.14V-11h4.14ZM124.41-2.745v2.16h-1.935v-2.16Zm1.215-1.125h-4.35V1.17h1.2V.525h3.15Zm-4.32-.99h4.23V-5.94h-4.23Zm4.23-3.12h-4.23V-6.9h4.23ZM120.6-8.955h5.46v-1.11H120.6Zm10.695,8.31v-4.59h2.79v-1.32h-2.79v-3.87h2.88v-1.32H126.54v1.32h3.39v9.78h-1.515V-7.92h-1.29V-.645h-1.05V.675h8.355V-.645ZM141.78-10.29l.015,1.53a38.229,38.229,0,0,0,6.285,0v-1.53A27.642,27.642,0,0,1,141.78-10.29Zm.855,6.24-1.35-.12a7.6,7.6,0,0,0-.255,1.845c0,1.455,1.17,2.34,3.72,2.34a20.58,20.58,0,0,0,3.795-.3l-.03-1.6a16.108,16.108,0,0,1-3.735.4c-1.815,0-2.34-.555-2.34-1.23A5.211,5.211,0,0,1,142.635-4.05Zm-3.465-7.32-1.665-.15a10.9,10.9,0,0,1-.135,1.245,43.288,43.288,0,0,0-.645,5.985A19.061,19.061,0,0,0,137.28.555l1.365-.09c-.015-.18-.03-.405-.03-.555a2.932,2.932,0,0,1,.075-.69c.15-.75.675-2.355,1.065-3.5l-.75-.6c-.24.555-.54,1.29-.795,1.905a14.8,14.8,0,0,1-.09-1.605,35.974,35.974,0,0,1,.735-5.655A10.758,10.758,0,0,1,139.17-11.37Zm15,1.53c.015-.825.015-1.68.015-2.535H152.8c0,.87,0,1.71-.015,2.535h-1.935v1.365h1.9c-.1,3.63-.525,6.72-2.295,8.67a4.634,4.634,0,0,1,1.035.99c1.98-2.19,2.49-5.655,2.625-9.66h1.95c-.12,5.4-.24,7.365-.555,7.77a.483.483,0,0,1-.51.255c-.255,0-.855-.015-1.515-.045a3.119,3.119,0,0,1,.4,1.4,10.922,10.922,0,0,0,1.77-.03,1.38,1.38,0,0,0,1.065-.66c.465-.675.57-2.9.69-9.375.015-.18.015-.675.015-.675Zm5.655,8.355V-9.45h2.46v7.965ZM158.49-10.8V.93h1.335V-.15h2.46V.81h1.41V-10.8Zm11.19-1.17-.24,1.365c1.815.315,4.515.66,6.06.78l.2-1.395A56.258,56.258,0,0,1,169.68-11.97Zm6.405,4.485-.885-.99a3.943,3.943,0,0,1-.765.165c-1.185.15-4.635.345-5.43.36-.51,0-1.005-.015-1.35-.045l.135,1.65a10.113,10.113,0,0,1,1.245-.15c.9-.075,3.1-.27,4.23-.33-1.44,1.47-5.07,5.1-5.745,5.79-.345.33-.66.6-.885.78l1.425.99c.93-1.185,2.34-2.685,2.88-3.225a1.578,1.578,0,0,1,1.05-.57c.375,0,.69.24.87.78.12.39.33,1.2.48,1.65.345.99,1.1,1.29,2.4,1.29A23.636,23.636,0,0,0,178.6.435l.09-1.575a13.922,13.922,0,0,1-2.88.3c-.69,0-1.035-.255-1.185-.78-.15-.435-.33-1.11-.48-1.53a1.328,1.328,0,0,0-1.035-1.05,1.573,1.573,0,0,0-.57-.075c.465-.495,2.025-1.935,2.655-2.49A10.569,10.569,0,0,1,176.085-7.485Zm4.35-2.64.165,1.65c1.665-.36,5.16-.72,6.675-.885a6.04,6.04,0,0,0-2.55,4.875c0,3.315,3.075,4.89,6.015,5.025l.555-1.59c-2.49-.105-5.04-1.02-5.04-3.75a4.973,4.973,0,0,1,3.33-4.515,13.38,13.38,0,0,1,2.91-.225v-1.515c-1.035.045-2.535.135-4.14.27-2.76.225-5.43.48-6.525.585C181.545-10.17,181.02-10.14,180.435-10.125Z" transform="translate(91 3260)" fill="#363636"/>
    <path id="パス_8735" data-name="パス 8735" d="M-30.966-7.072a36.62,36.62,0,0,1-3.978,2.7A12.371,12.371,0,0,1-37-7.072Zm.91,0h2.782V-9.8H-43.212v-1.352h12.506v-2.392H-43.212v-1.3h12.506v-2.392H-43.212v-1.378h13.234v-2.522H-46.384V-9.8H-50.7v2.73h4.29v5.954c-1.17.13-2.236.286-3.172.39l.7,2.834C-45.734,1.638-41.444.988-37.466.338l-.13-2.73c-1.872.286-3.8.572-5.616.832V-7.072h2.99c2.158,4.914,5.616,8.008,11.492,9.36A13.737,13.737,0,0,1-26.78-.494,17.2,17.2,0,0,1-32.838-2.73a43.779,43.779,0,0,0,4.784-2.938Zm23.14-11.674-3.042-2.678a18.071,18.071,0,0,1-2,2.21c-1.742,1.69-5.3,4.576-7.358,6.24-2.6,2.184-2.808,3.562-.208,5.772,2.366,2.028,6.188,5.278,7.774,6.916.78.78,1.534,1.612,2.262,2.418L-6.448-.65C-9.1-3.224-14.04-7.124-15.99-8.762c-1.4-1.222-1.43-1.508-.052-2.7,1.742-1.482,5.174-4.134,6.864-5.486C-8.58-17.446-7.722-18.122-6.916-18.746ZM6.656-21.97A27.419,27.419,0,0,1,.52-12.246,20.667,20.667,0,0,1,2.184-9.074,29.63,29.63,0,0,0,4.16-11.388V2.21H7.1V-15.912a43.473,43.473,0,0,0,2.418-5.122Zm6.318,3.8h7.618v3.484H12.974ZM24.96-6.812V-9.62H18.252v-2.34h5.434V-20.9H10.036v8.944h5.1v2.34H8.32v2.808h5.33A18.678,18.678,0,0,1,7.384-1.2a12.768,12.768,0,0,1,2.132,2.47,20.849,20.849,0,0,0,5.616-5.59V2.262h3.12V-4.446A21.469,21.469,0,0,0,23.53,1.326a13.163,13.163,0,0,1,2.184-2.47A19.567,19.567,0,0,1,19.76-6.812Zm10.608-14.4H28.236v2.34h7.332ZM33.1-4.186v2.964H30.6V-4.186ZM35.75-6.63H28V2.236h2.6V1.222H35.75ZM28.08-7.956h7.488V-10.3H28.08Zm7.488-5.954H28.08V-11.6h7.488Zm-8.71-1.274H36.5v-2.444H26.858ZM46.072-1.534V-8.71h4.5v-2.912h-4.5v-6.136H50.7V-20.7H37.31v2.938h5.72V-1.534H41.054V-13.858H38.168V-1.534H36.582V1.352H51.194V-1.534Z" transform="translate(188 3220)" fill="#00c8ac"/>
    <g id="グループ_4225" data-name="グループ 4225" transform="translate(-426 1080)">
      <path id="パス_8736" data-name="パス 8736" d="M14.2-13.96H5.72v-.82H14.2Zm0,2.28H5.72v-.84H14.2Zm2.38-4.62H3.44v6.14H16.58ZM15.44-4.98a8.374,8.374,0,0,1-1.36,1.96,7.743,7.743,0,0,1-1.34-1.96ZM4.84-2.6h2.6v.78c-.88.08-1.76.14-2.6.2Zm0-2.48h2.6v.84H4.84Zm2.6-2.46v.8H4.84v-.8Zm9.4.66-.4.08H10.22v1.82h1.84l-1.32.36a12.249,12.249,0,0,0,1.82,2.96A10.268,10.268,0,0,1,9.72-.22V-7.54h9.16V-9.42H1.1v1.88H2.66v6.08c-.62.06-1.22.08-1.74.12L1.1.7C2.86.54,5.14.34,7.44.12V1.74H9.72V.12a8.841,8.841,0,0,1,1.06,1.6,13.031,13.031,0,0,0,3.4-1.86A11.2,11.2,0,0,0,17.9,1.72,9.851,9.851,0,0,1,19.3-.14a11.181,11.181,0,0,1-3.52-1.48,11.923,11.923,0,0,0,2.52-4.7ZM36.18-5.44a28.17,28.17,0,0,1-3.06,2.08,9.516,9.516,0,0,1-1.58-2.08Zm.7,0h2.14v-2.1H26.76V-8.58h9.62v-1.84H26.76v-1h9.62v-1.84H26.76v-1.06H36.94v-1.94H24.32v8.72H21v2.1h3.3V-.86c-.9.1-1.72.22-2.44.3l.54,2.18c2.42-.36,5.72-.86,8.78-1.36l-.1-2.1c-1.44.22-2.92.44-4.32.64V-5.44h2.3a11.75,11.75,0,0,0,8.84,7.2A10.567,10.567,0,0,1,39.4-.38,13.228,13.228,0,0,1,34.74-2.1a33.676,33.676,0,0,0,3.68-2.26Z" transform="translate(530 2218)" fill="#363636"/>
      <path id="パス_8737" data-name="パス 8737" d="M6.4-4.8V-7.84H9.86V-4.8Zm12.76,0H12.32V-7.84H17.6v-2.22H12.32v-2.38h5.74v-2.3H6.76a12.768,12.768,0,0,0,.66-1.64L5-17A15.423,15.423,0,0,1,.8-10.34,18.407,18.407,0,0,1,2.86-8.8a17.974,17.974,0,0,0,2.72-3.64H9.86v2.38H4.02V-4.8H.86v2.28h9V1.76h2.46V-2.52h6.84Zm6.52,2.54c0-.68.78-1.24,2.2-1.24a11.108,11.108,0,0,1,1.64.14c.02.36.02.64.02.86,0,1.16-.7,1.46-1.76,1.46C26.4-1.04,25.68-1.5,25.68-2.26Zm6.26-13.92h-2.7a8.04,8.04,0,0,1,.12,1.38v.94h-.78a37.339,37.339,0,0,1-4.94-.44l.06,2.28a45.976,45.976,0,0,0,4.9.36h.74c-.02.68-.02,1.4-.02,2.06h-.96a35.341,35.341,0,0,1-4.82-.38l.02,2.36c1.32.16,3.6.26,4.76.26h1.04c.02.6.04,1.24.08,1.86-.4-.04-.82-.06-1.24-.06-3.08,0-4.94,1.42-4.94,3.44,0,2.12,1.68,3.34,4.88,3.34,2.64,0,3.94-1.32,3.94-3.02,0-.22,0-.46-.02-.74A15.33,15.33,0,0,1,36.1.24L37.54-2a15.658,15.658,0,0,0-5.6-3.02c-.06-.8-.1-1.62-.14-2.38,1.92-.06,3.48-.2,5.28-.4l.02-2.36c-1.62.22-3.32.38-5.34.48v-2.06c1.94-.1,3.76-.28,5.08-.44l.02-2.3a41.917,41.917,0,0,1-5.06.54c0-.32,0-.62.02-.82A13.508,13.508,0,0,1,31.94-16.18Zm9.44,2.46.26,2.74c2.32-.5,6.4-.94,8.28-1.14a8,8,0,0,0-2.98,6.18C46.94-1.6,50.9.64,55.1.92l.94-2.74c-3.4-.18-6.48-1.36-6.48-4.66a6.078,6.078,0,0,1,4.24-5.6,20.777,20.777,0,0,1,3.86-.28l-.02-2.56c-1.42.06-3.6.18-5.66.36-3.66.3-6.96.6-8.64.74C42.96-13.78,42.18-13.74,41.38-13.72ZM54.8-10.4l-1.48.62A15.431,15.431,0,0,1,54.88-7l1.52-.68A24.824,24.824,0,0,0,54.8-10.4Zm2.24-.92-1.46.68a17.6,17.6,0,0,1,1.64,2.7l1.5-.72A29.916,29.916,0,0,0,57.04-11.32Zm8.08-5.58A21.092,21.092,0,0,1,60.4-9.42a15.9,15.9,0,0,1,1.28,2.44A22.792,22.792,0,0,0,63.2-8.76V1.7h2.26V-12.24a33.44,33.44,0,0,0,1.86-3.94Zm4.86,2.92h5.86v2.68H69.98ZM79.2-5.24V-7.4H74.04V-9.2h4.18v-6.88H67.72V-9.2h3.92v1.8H66.4v2.16h4.1A14.368,14.368,0,0,1,65.68-.92,9.821,9.821,0,0,1,67.32.98a16.038,16.038,0,0,0,4.32-4.3V1.74h2.4V-3.42A16.515,16.515,0,0,0,78.1,1.02a10.125,10.125,0,0,1,1.68-1.9A15.051,15.051,0,0,1,75.2-5.24Zm8.16-11.08H81.72v1.8h5.64Zm-1.9,13.1V-.94H83.54V-3.22ZM87.5-5.1H81.54V1.72h2V.94H87.5ZM81.6-6.12h5.76v-1.8H81.6Zm5.76-4.58H81.6v1.78h5.76Zm-6.7-.98h7.42v-1.88H80.66ZM95.44-1.18V-6.7H98.9V-8.94H95.44v-4.72H99v-2.26H88.7v2.26h4.4V-1.18H91.58v-9.48H89.36v9.48H88.14V1.04H99.38V-1.18Z" transform="translate(597 2218)" fill="#363636"/>
      <path id="パス_8738" data-name="パス 8738" d="M10.386.318c5.182,0,8.7-3.375,8.693-8.079.011-4.454-3.1-7.659-7.3-7.659a5.733,5.733,0,0,0-4.625,2H7.023l.6-5.829H17.8v-4.023H3.568L2.466-11l4.375.784a4.422,4.422,0,0,1,3.477-1.568,3.931,3.931,0,0,1,4.023,4.148,3.856,3.856,0,0,1-3.954,4.091A3.4,3.4,0,0,1,6.739-6.579H1.966C2.057-2.557,5.568.318,10.386.318Z" transform="translate(573 2219)" fill="#363636"/>
    </g>
    <g id="グループ_4227" data-name="グループ 4227" transform="translate(-364 875.68)">
      <path id="パス_607" data-name="パス 607" d="M215.4,48.22V29.144a1.382,1.382,0,0,0-1.381-1.381c-7.517,0-16.853-7.163-16.947-7.235a1.381,1.381,0,0,0-1.693,0c-.094.073-9.415,7.235-16.947,7.235a1.382,1.382,0,0,0-1.381,1.381V48.22a13.123,13.123,0,0,0,4.9,10.651c2.686,1.985,10.226,6.97,11.712,7.95l1.8,1.189a1.382,1.382,0,0,0,1.522,0l1.8-1.189c1.486-.98,9.026-5.967,11.71-7.95a13.118,13.118,0,0,0,4.9-10.651m-6.543,8.428c-2.684,1.983-10.685,7.269-11.59,7.865l-1.042.687-1.042-.687c-.9-.6-8.9-5.882-11.588-7.865a10.361,10.361,0,0,1-3.779-8.428V30.464c6.763-.6,13.973-5.38,16.409-7.124,2.438,1.744,9.648,6.52,16.411,7.124V48.22a10.361,10.361,0,0,1-3.779,8.428" transform="translate(354.945 2230.081)" fill="#00c8ac"/>
      <path id="パス_608" data-name="パス 608" d="M197.61,28.976l-8.5,8.5-4.826-4.828a1.349,1.349,0,1,0-1.908,1.908l5.782,5.78a1.35,1.35,0,0,0,1.906,0l9.447-9.449a1.348,1.348,0,0,0-1.906-1.906" transform="translate(360.78 2239.844)" fill="#00c8ac"/>
    </g>
  </g>
</svg>
