<svg xmlns="http://www.w3.org/2000/svg" width="292" height="233" viewBox="0 0 292 233">
  <g id="グループ_4485" data-name="グループ 4485" transform="translate(-233 -2156)">
    <path id="パス_8715" data-name="パス 8715" d="M0,0H292V233H0Z" transform="translate(233 2156)" fill="#edfaf9"/>
    <path id="パス_8716" data-name="パス 8716" d="M9.52-8.352v1.168h-2.3V-8.352Zm3.728,1.168H10.864V-8.352h2.384ZM10.864-4.9V-6.1h2.384v1.2Zm-3.648,0V-6.1h2.3v1.2Zm0,1.12h2.3v2.464h1.344V-3.776h2.384v1.12c0,.192-.064.256-.24.256-.192,0-.8.016-1.472-.016a4.079,4.079,0,0,1,.4,1.2,6.085,6.085,0,0,0,2.144-.208c.464-.208.576-.544.576-1.216V-9.456H12.688c-.3-.176-.672-.368-1.088-.56a15.819,15.819,0,0,0,3.056-2.176l-.9-.72-.3.08H5.888v1.168H12.08a12.9,12.9,0,0,1-1.76,1.072c-.7-.3-1.44-.592-2.064-.816l-.96.8c.816.32,1.776.736,2.64,1.152H5.824v8.192H7.216ZM4.7-10.576a12.692,12.692,0,0,0-2.736-2.5l-1.04.928A12.31,12.31,0,0,1,3.6-9.5Zm-.4,3.36H.688V-5.84H2.88v3.824A24.957,24.957,0,0,1,.5-.352L1.2,1.12C2.1.448,2.9-.208,3.664-.864A5.332,5.332,0,0,0,8,.976c1.856.064,5.216.032,7.056-.048a7.4,7.4,0,0,1,.48-1.456c-2.032.144-5.712.192-7.52.112C6.256-.5,4.992-.976,4.3-2.1Zm16.96-.528h5.472v1.312H21.264Zm8.56,3.568H24.96V-5.344h3.3V-8.832H19.84v3.488h3.584v1.168h-5.04V.544h1.5V-2.832h3.536v4.1H24.96v-4.1h3.328v1.92c0,.192-.064.24-.32.256-.224,0-1.072,0-1.92-.032a6.33,6.33,0,0,1,.5,1.36A8.263,8.263,0,0,0,29.12.448c.544-.224.7-.624.7-1.344Zm-1.744-6.9a21.639,21.639,0,0,0,1.472-1.712L27.968-13.3A12.161,12.161,0,0,1,26.72-11.44l.96.368H24.816v-2.352H23.28v2.352H20.3l.944-.416a8.589,8.589,0,0,0-1.264-1.792l-1.344.528a11.061,11.061,0,0,1,1.088,1.68H17.36V-7.52h1.424V-9.792h10.48V-7.52h1.472v-3.552ZM46.656-5.616a5.922,5.922,0,0,0-6.272-6.032,6.935,6.935,0,0,0-7.152,6.656c0,2.672,1.456,4.432,3.04,4.432s2.912-1.808,3.872-5.072a31.86,31.86,0,0,0,.96-4.5,4.254,4.254,0,0,1,3.872,4.464A4.6,4.6,0,0,1,41.1-1.12,9.889,9.889,0,0,1,39.68-.9l.944,1.5C44.512.048,46.656-2.256,46.656-5.616Zm-11.808.464a5.348,5.348,0,0,1,4.56-4.944,25.473,25.473,0,0,1-.88,4.128c-.736,2.464-1.488,3.5-2.208,3.5C35.632-2.464,34.848-3.312,34.848-5.152ZM61.184-11.7l-1.856-.656a11.263,11.263,0,0,1-.352,1.312,17.7,17.7,0,0,1-2,4.128c-1.28-.976-3.056-2.208-4.4-3.056L51.52-8.688a45.433,45.433,0,0,1,4.416,3.152,17.389,17.389,0,0,1-6.224,4.9L51.12.624a19.975,19.975,0,0,0,6.128-5.072,35.7,35.7,0,0,1,3.68,3.616l1.28-1.408a39.188,39.188,0,0,0-3.9-3.616,22.942,22.942,0,0,0,2.3-4.544A11.8,11.8,0,0,1,61.184-11.7Zm4.368,4.56v1.984c.544-.048,1.5-.08,2.384-.08h8.7c.7,0,1.44.064,1.792.08V-7.136c-.4.032-1.024.1-1.792.1h-8.7C67.072-7.04,66.08-7.1,65.552-7.136Zm22.736-5.552H86.416a10.176,10.176,0,0,1,.112,1.376q0,.816-.048,1.536H83.9c-.624,0-1.344-.048-1.952-.1v1.664c.608-.048,1.36-.064,1.952-.064h2.432a9.945,9.945,0,0,1-2.928,6.288A8.538,8.538,0,0,1,81.568-.64L83.04.56c2.752-1.936,4.336-4.384,4.928-8.832h4.1c0,1.728-.208,5.344-.752,6.464a.846.846,0,0,1-.912.544,18.318,18.318,0,0,1-2.32-.192l.192,1.68c.816.064,1.744.112,2.608.112A1.784,1.784,0,0,0,92.736-.752c.7-1.568.912-6.144.96-7.76.016-.192.064-.544.112-.816l-1.12-.544a7.275,7.275,0,0,1-1.1.1H88.128c.032-.5.064-1.024.08-1.568C88.224-11.728,88.256-12.32,88.288-12.688Zm9.264,5.552v1.984c.544-.048,1.5-.08,2.384-.08h8.7c.7,0,1.44.064,1.792.08V-7.136c-.4.032-1.024.1-1.792.1h-8.7C99.072-7.04,98.08-7.1,97.552-7.136Zm18.768-6.24a17.1,17.1,0,0,1-3.9,6.128,8.806,8.806,0,0,1,.832,1.5,17.086,17.086,0,0,0,1.488-1.776V1.232h1.408V-9.68a28.829,28.829,0,0,0,1.568-3.248Zm3.216,2h5.392V-8.8h-5.392Zm7.712,6.992V-5.728h-4.32V-7.472h3.488v-5.216h-8.272v5.216h3.3v1.744h-4.416v1.344h3.632a11.731,11.731,0,0,1-4.144,3.808A6.561,6.561,0,0,1,117.536.608a13.019,13.019,0,0,0,3.9-3.872V1.28h1.488V-3.344A13.734,13.734,0,0,0,126.64.64a6.65,6.65,0,0,1,1.04-1.184,11.893,11.893,0,0,1-3.952-3.84ZM133.9-12.9h-4.416v1.168H133.9Zm-1.2,9.968v2.3H130.64v-2.3Zm1.3-1.2h-4.64V1.248h1.28V.56H134Zm-4.608-1.056H133.9V-6.336h-4.512ZM133.9-8.512h-4.512V-7.36H133.9Zm-5.264-1.04h5.824v-1.184H128.64ZM140.048-.688v-4.9h2.976V-6.992h-2.976V-11.12h3.072v-1.408h-8.144v1.408h3.616V-.688h-1.616v-7.76H135.6v7.76h-1.12V.72h8.912V-.688Zm11.184-10.288.016,1.632a40.778,40.778,0,0,0,6.7,0v-1.632A29.485,29.485,0,0,1,151.232-10.976Zm.912,6.656-1.44-.128a8.1,8.1,0,0,0-.272,1.968c0,1.552,1.248,2.5,3.968,2.5a21.952,21.952,0,0,0,4.048-.32l-.032-1.712a17.181,17.181,0,0,1-3.984.432c-1.936,0-2.5-.592-2.5-1.312A5.559,5.559,0,0,1,152.144-4.32Zm-3.7-7.808-1.776-.16a11.63,11.63,0,0,1-.144,1.328,46.173,46.173,0,0,0-.688,6.384,20.332,20.332,0,0,0,.592,5.168l1.456-.1c-.016-.192-.032-.432-.032-.592a3.127,3.127,0,0,1,.08-.736c.16-.8.72-2.512,1.136-3.728l-.8-.64c-.256.592-.576,1.376-.848,2.032a15.789,15.789,0,0,1-.1-1.712,38.371,38.371,0,0,1,.784-6.032A11.474,11.474,0,0,1,148.448-12.128Zm16,1.632c.016-.88.016-1.792.016-2.7h-1.472c0,.928,0,1.824-.016,2.7h-2.064V-9.04h2.032c-.112,3.872-.56,7.168-2.448,9.248a4.943,4.943,0,0,1,1.1,1.056c2.112-2.336,2.656-6.032,2.8-10.3h2.08c-.128,5.76-.256,7.856-.592,8.288a.515.515,0,0,1-.544.272c-.272,0-.912-.016-1.616-.048A3.327,3.327,0,0,1,164.16.96a11.65,11.65,0,0,0,1.888-.032,1.472,1.472,0,0,0,1.136-.7c.5-.72.608-3.088.736-10,.016-.192.016-.72.016-.72Zm6.032,8.912v-8.5H173.1v8.5Zm-1.424-9.936V.992h1.424V-.16H173.1V.864h1.5V-11.52Zm11.936-1.248-.256,1.456c1.936.336,4.816.7,6.464.832l.208-1.488A60.007,60.007,0,0,1,180.992-12.768Zm6.832,4.784L186.88-9.04a4.206,4.206,0,0,1-.816.176c-1.264.16-4.944.368-5.792.384-.544,0-1.072-.016-1.44-.048l.144,1.76a10.787,10.787,0,0,1,1.328-.16c.96-.08,3.312-.288,4.512-.352-1.536,1.568-5.408,5.44-6.128,6.176-.368.352-.7.64-.944.832l1.52,1.056c.992-1.264,2.5-2.864,3.072-3.44a1.684,1.684,0,0,1,1.12-.608c.4,0,.736.256.928.832.128.416.352,1.28.512,1.76C185.264.384,186.064.7,187.456.7a25.212,25.212,0,0,0,3.056-.24l.1-1.68a14.851,14.851,0,0,1-3.072.32c-.736,0-1.1-.272-1.264-.832-.16-.464-.352-1.184-.512-1.632a1.417,1.417,0,0,0-1.1-1.12,1.678,1.678,0,0,0-.608-.08c.5-.528,2.16-2.064,2.832-2.656A11.272,11.272,0,0,1,187.824-7.984Zm4.64-2.816.176,1.76c1.776-.384,5.5-.768,7.12-.944a6.443,6.443,0,0,0-2.72,5.2c0,3.536,3.28,5.216,6.416,5.36l.592-1.7c-2.656-.112-5.376-1.088-5.376-4a5.3,5.3,0,0,1,3.552-4.816,14.272,14.272,0,0,1,3.1-.24v-1.616c-1.1.048-2.7.144-4.416.288-2.944.24-5.792.512-6.96.624C193.648-10.848,193.088-10.816,192.464-10.8Z" transform="translate(276 2319)" fill="#363636"/>
    <path id="パス_8717" data-name="パス 8717" d="M-33.348-7.616A39.437,39.437,0,0,1-37.632-4.7a13.323,13.323,0,0,1-2.212-2.912Zm.98,0h3v-2.94H-46.536v-1.456h13.468v-2.576H-46.536v-1.4h13.468v-2.576H-46.536v-1.484h14.252v-2.716H-49.952v12.208H-54.6v2.94h4.62V-1.2c-1.26.14-2.408.308-3.416.42l.756,3.052c3.388-.5,8.008-1.2,12.292-1.9l-.14-2.94c-2.016.308-4.088.616-6.048.9V-7.616h3.22c2.324,5.292,6.048,8.624,12.376,10.08a14.793,14.793,0,0,1,2.1-3A18.519,18.519,0,0,1-35.364-2.94,47.146,47.146,0,0,0-30.212-6.1Zm24.92-12.572-3.276-2.884a19.46,19.46,0,0,1-2.156,2.38c-1.876,1.82-5.712,4.928-7.924,6.72-2.8,2.352-3.024,3.836-.224,6.216,2.548,2.184,6.664,5.684,8.372,7.448.84.84,1.652,1.736,2.436,2.6l3.276-3C-9.8-3.472-15.12-7.672-17.22-9.436c-1.512-1.316-1.54-1.624-.056-2.912,1.876-1.6,5.572-4.452,7.392-5.908C-9.24-18.788-8.316-19.516-7.448-20.188ZM7.168-23.66A29.529,29.529,0,0,1,.56-13.188,22.257,22.257,0,0,1,2.352-9.772,31.909,31.909,0,0,0,4.48-12.264V2.38H7.644V-17.136a46.817,46.817,0,0,0,2.6-5.516Zm6.8,4.088h8.2v3.752h-8.2ZM26.88-7.336V-10.36H19.656v-2.52h5.852v-9.632h-14.7v9.632H16.3v2.52H8.96v3.024H14.7A20.115,20.115,0,0,1,7.952-1.288a13.75,13.75,0,0,1,2.3,2.66A22.453,22.453,0,0,0,16.3-4.648V2.436h3.36V-4.788A23.121,23.121,0,0,0,25.34,1.428a14.175,14.175,0,0,1,2.352-2.66,21.072,21.072,0,0,1-6.412-6.1ZM38.3-22.848h-7.9v2.52h7.9Zm-2.66,18.34v3.192H32.956V-4.508ZM38.5-7.14H30.156V2.408h2.8V1.316H38.5ZM30.24-8.568H38.3v-2.52H30.24ZM38.3-14.98H30.24v2.492H38.3Zm-9.38-1.372H39.312v-2.632H28.924Zm20.692,14.7V-9.38H54.46v-3.136H49.616v-6.608H54.6v-3.164H40.18v3.164h6.16V-1.652H44.212V-14.924H41.1V-1.652H39.4V1.456H55.132V-1.652Z" transform="translate(379 2276)" fill="#00c8ac"/>
    <g id="グループ_4225" data-name="グループ 4225" transform="translate(-234 138)">
      <path id="パス_8718" data-name="パス 8718" d="M14.2-13.96H5.72v-.82H14.2Zm0,2.28H5.72v-.84H14.2Zm2.38-4.62H3.44v6.14H16.58ZM15.44-4.98a8.374,8.374,0,0,1-1.36,1.96,7.743,7.743,0,0,1-1.34-1.96ZM4.84-2.6h2.6v.78c-.88.08-1.76.14-2.6.2Zm0-2.48h2.6v.84H4.84Zm2.6-2.46v.8H4.84v-.8Zm9.4.66-.4.08H10.22v1.82h1.84l-1.32.36a12.249,12.249,0,0,0,1.82,2.96A10.268,10.268,0,0,1,9.72-.22V-7.54h9.16V-9.42H1.1v1.88H2.66v6.08c-.62.06-1.22.08-1.74.12L1.1.7C2.86.54,5.14.34,7.44.12V1.74H9.72V.12a8.841,8.841,0,0,1,1.06,1.6,13.031,13.031,0,0,0,3.4-1.86A11.2,11.2,0,0,0,17.9,1.72,9.851,9.851,0,0,1,19.3-.14a11.181,11.181,0,0,1-3.52-1.48,11.923,11.923,0,0,0,2.52-4.7ZM36.18-5.44a28.17,28.17,0,0,1-3.06,2.08,9.516,9.516,0,0,1-1.58-2.08Zm.7,0h2.14v-2.1H26.76V-8.58h9.62v-1.84H26.76v-1h9.62v-1.84H26.76v-1.06H36.94v-1.94H24.32v8.72H21v2.1h3.3V-.86c-.9.1-1.72.22-2.44.3l.54,2.18c2.42-.36,5.72-.86,8.78-1.36l-.1-2.1c-1.44.22-2.92.44-4.32.64V-5.44h2.3a11.75,11.75,0,0,0,8.84,7.2A10.567,10.567,0,0,1,39.4-.38,13.228,13.228,0,0,1,34.74-2.1a33.676,33.676,0,0,0,3.68-2.26Z" transform="translate(530 2218)" fill="#363636"/>
      <path id="パス_8719" data-name="パス 8719" d="M6.4-4.8V-7.84H9.86V-4.8Zm12.76,0H12.32V-7.84H17.6v-2.22H12.32v-2.38h5.74v-2.3H6.76a12.768,12.768,0,0,0,.66-1.64L5-17A15.423,15.423,0,0,1,.8-10.34,18.407,18.407,0,0,1,2.86-8.8a17.974,17.974,0,0,0,2.72-3.64H9.86v2.38H4.02V-4.8H.86v2.28h9V1.76h2.46V-2.52h6.84Zm6.52,2.54c0-.68.78-1.24,2.2-1.24a11.108,11.108,0,0,1,1.64.14c.02.36.02.64.02.86,0,1.16-.7,1.46-1.76,1.46C26.4-1.04,25.68-1.5,25.68-2.26Zm6.26-13.92h-2.7a8.04,8.04,0,0,1,.12,1.38v.94h-.78a37.339,37.339,0,0,1-4.94-.44l.06,2.28a45.976,45.976,0,0,0,4.9.36h.74c-.02.68-.02,1.4-.02,2.06h-.96a35.341,35.341,0,0,1-4.82-.38l.02,2.36c1.32.16,3.6.26,4.76.26h1.04c.02.6.04,1.24.08,1.86-.4-.04-.82-.06-1.24-.06-3.08,0-4.94,1.42-4.94,3.44,0,2.12,1.68,3.34,4.88,3.34,2.64,0,3.94-1.32,3.94-3.02,0-.22,0-.46-.02-.74A15.33,15.33,0,0,1,36.1.24L37.54-2a15.658,15.658,0,0,0-5.6-3.02c-.06-.8-.1-1.62-.14-2.38,1.92-.06,3.48-.2,5.28-.4l.02-2.36c-1.62.22-3.32.38-5.34.48v-2.06c1.94-.1,3.76-.28,5.08-.44l.02-2.3a41.917,41.917,0,0,1-5.06.54c0-.32,0-.62.02-.82A13.508,13.508,0,0,1,31.94-16.18Zm9.44,2.46.26,2.74c2.32-.5,6.4-.94,8.28-1.14a8,8,0,0,0-2.98,6.18C46.94-1.6,50.9.64,55.1.92l.94-2.74c-3.4-.18-6.48-1.36-6.48-4.66a6.078,6.078,0,0,1,4.24-5.6,20.777,20.777,0,0,1,3.86-.28l-.02-2.56c-1.42.06-3.6.18-5.66.36-3.66.3-6.96.6-8.64.74C42.96-13.78,42.18-13.74,41.38-13.72ZM54.8-10.4l-1.48.62A15.431,15.431,0,0,1,54.88-7l1.52-.68A24.824,24.824,0,0,0,54.8-10.4Zm2.24-.92-1.46.68a17.6,17.6,0,0,1,1.64,2.7l1.5-.72A29.916,29.916,0,0,0,57.04-11.32Zm8.08-5.58A21.092,21.092,0,0,1,60.4-9.42a15.9,15.9,0,0,1,1.28,2.44A22.792,22.792,0,0,0,63.2-8.76V1.7h2.26V-12.24a33.44,33.44,0,0,0,1.86-3.94Zm4.86,2.92h5.86v2.68H69.98ZM79.2-5.24V-7.4H74.04V-9.2h4.18v-6.88H67.72V-9.2h3.92v1.8H66.4v2.16h4.1A14.368,14.368,0,0,1,65.68-.92,9.821,9.821,0,0,1,67.32.98a16.038,16.038,0,0,0,4.32-4.3V1.74h2.4V-3.42A16.515,16.515,0,0,0,78.1,1.02a10.125,10.125,0,0,1,1.68-1.9A15.051,15.051,0,0,1,75.2-5.24Zm8.16-11.08H81.72v1.8h5.64Zm-1.9,13.1V-.94H83.54V-3.22ZM87.5-5.1H81.54V1.72h2V.94H87.5ZM81.6-6.12h5.76v-1.8H81.6Zm5.76-4.58H81.6v1.78h5.76Zm-6.7-.98h7.42v-1.88H80.66ZM95.44-1.18V-6.7H98.9V-8.94H95.44v-4.72H99v-2.26H88.7v2.26h4.4V-1.18H91.58v-9.48H89.36v9.48H88.14V1.04H99.38V-1.18Z" transform="translate(597 2218)" fill="#363636"/>
      <path id="パス_8720" data-name="パス 8720" d="M10.386.318c5.182,0,8.7-3.375,8.693-8.079.011-4.454-3.1-7.659-7.3-7.659a5.733,5.733,0,0,0-4.625,2H7.023l.6-5.829H17.8v-4.023H3.568L2.466-11l4.375.784a4.422,4.422,0,0,1,3.477-1.568,3.931,3.931,0,0,1,4.023,4.148,3.856,3.856,0,0,1-3.954,4.091A3.4,3.4,0,0,1,6.739-6.579H1.966C2.057-2.557,5.568.318,10.386.318Z" transform="translate(573 2219)" fill="#363636"/>
    </g>
    <g id="グループ_4227" data-name="グループ 4227" transform="translate(-174.87 -70.32)">
      <path id="パス_607" data-name="パス 607" d="M221.8,52.883V30.629a1.613,1.613,0,0,0-1.611-1.611c-8.77,0-19.662-8.356-19.771-8.441a1.611,1.611,0,0,0-1.975,0c-.11.085-10.984,8.441-19.771,8.441a1.613,1.613,0,0,0-1.612,1.611V52.883c0,5.136,2.137,9.781,5.716,12.426,3.133,2.316,11.93,8.132,13.664,9.275l2.1,1.387a1.612,1.612,0,0,0,1.776,0l2.1-1.387c1.734-1.143,10.531-6.961,13.662-9.275,3.582-2.645,5.719-7.29,5.719-12.426m-7.634,9.833c-3.131,2.314-12.466,8.481-13.522,9.176l-1.215.8-1.215-.8c-1.054-.695-10.389-6.862-13.52-9.176-2.762-2.04-4.409-5.716-4.409-9.833V32.168c7.891-.7,16.3-6.277,19.144-8.311,2.844,2.035,11.256,7.607,19.146,8.311V52.883c0,4.117-1.646,7.793-4.409,9.833" transform="translate(354.945 2230.081)" fill="#00c8ac"/>
      <path id="パス_608" data-name="パス 608" d="M200.213,29.042,190.3,38.954l-5.63-5.632a1.574,1.574,0,0,0-2.226,2.226l6.745,6.743a1.575,1.575,0,0,0,2.223,0l11.022-11.024a1.572,1.572,0,1,0-2.223-2.223" transform="translate(362.575 2242.862)" fill="#00c8ac"/>
    </g>
  </g>
</svg>
