<svg xmlns="http://www.w3.org/2000/svg" width="100" height="100" viewBox="0 0 100 100">
  <g id="グループ_4492" data-name="グループ 4492" transform="translate(-273 -2826)">
    <path id="パス_8814" data-name="パス 8814" d="M0,0H100V100H0Z" transform="translate(273 2826)" fill="#fff"/>
    <path id="パス_8815" data-name="パス 8815" d="M-5.58-9.9h-1.2v3.792A6.807,6.807,0,0,1-11.544.012a5.046,5.046,0,0,1,.78.936A7.577,7.577,0,0,0-6.18-4.044,7.69,7.69,0,0,0-1.44.948,5.364,5.364,0,0,1-.672-.084C-4.62-1.512-5.58-4.548-5.58-6.12ZM-2.4-7.7A19.122,19.122,0,0,1-4.068-4.38l.948.444A33.129,33.129,0,0,0-1.176-7.224Zm-7.392.024a4.793,4.793,0,0,1-1.5,3.3l1,.648A5.456,5.456,0,0,0-8.676-7.44ZM11.076-5.892a15.953,15.953,0,0,0-1.968-1.98c.564-.564,1.224-1.224,1.74-1.86l-1.14-.336a21.421,21.421,0,0,1-1.98,2.22A14.338,14.338,0,0,1,10-5.436ZM9.228-2.124A21.666,21.666,0,0,0,10.92-4.608l-1.2-.324A14.332,14.332,0,0,1,8.232-2.448ZM7.572-6.072A15.986,15.986,0,0,0,5.82-7.956c.516-.552,1.116-1.188,1.6-1.812l-1.14-.3a20.541,20.541,0,0,1-1.8,2.124,13.792,13.792,0,0,1,2.016,2.3Zm-3.384.156a14.305,14.305,0,0,0-1.7-1.98A21.743,21.743,0,0,0,4.032-9.768l-1.14-.3a21.213,21.213,0,0,1-1.716,2.2A14.509,14.509,0,0,1,3.108-5.484Zm-1.4.948A4.854,4.854,0,0,1,1.068-2.6l.924.624A5.5,5.5,0,0,0,3.756-4.572ZM5.4-5.532C5.208-2.676,4.836-.876.636-.06A3.594,3.594,0,0,1,1.26.948C4.224.312,5.508-.84,6.108-2.472,6.876-.48,8.268.576,11.052,1A3.969,3.969,0,0,1,11.7-.06C8.28-.408,7.044-1.86,6.576-4.752c.024-.252.036-.516.06-.78Z" transform="translate(323 2909)" fill="#00c8ac"/>
    <g id="グループ_4246" data-name="グループ 4246" transform="matrix(0.961, 0.276, -0.276, 0.961, 306.544, 2829.763)">
      <g id="グループ_4247" data-name="グループ 4247" transform="translate(1 1)">
        <path id="パス_8431" data-name="パス 8431" d="M23.709,47.862S16.789,47.728,12.2,39.1a3.6,3.6,0,0,0,3.622-.719s-.42-.258-.8-2.444c0,0,10.63-2.445,6.748-15.457,0,0,11.152,3.943,9.917,14.953,0,0,3.737.311,5.938-3.882,0,0,2.547,7.048-4.713,13.733,0,0,22.933-10.138,11.574-24.8,0,0-2.515,5.226-6.469,5.273,0,0-2.445-18.789-20.848-24.756,0,0,2.66,5.717,1.437,9.723S9.047,15.234,8.04,17.463,6.023,23.22,11.419,31.769c0,0-2.763,3.954-10.4.359C1.015,32.128-.378,54.18,23.709,47.862Z" transform="translate(-1 -1)" fill="none" stroke="#00c8ac" stroke-linecap="round" stroke-linejoin="round" stroke-width="2"/>
      </g>
    </g>
  </g>
</svg>
