<svg xmlns="http://www.w3.org/2000/svg" width="100" height="100" viewBox="0 0 100 100">
  <g id="グループ_4493" data-name="グループ 4493" transform="translate(-393 -2826)">
    <path id="パス_8816" data-name="パス 8816" d="M0,0H100V100H0Z" transform="translate(393 2826)" fill="#fff"/>
    <path id="パス_8817" data-name="パス 8817" d="M-8.748-7.4h1.092v-.912h3.012V-7.4h1.092v-.912H-.864v-1H-3.552v-.756H-4.644v.756H-7.656v-.756H-8.748v.756h-2.6v1h2.6Zm-2.076.588a18.248,18.248,0,0,1,2,1.26l.66-.84A17.364,17.364,0,0,0-10.2-7.572Zm1.908,2.724a12.5,12.5,0,0,0-2.052-1.176l-.648.768A11.731,11.731,0,0,1-9.6-3.228ZM-10.584.924C-9.84.06-9.024-1.032-8.34-1.992l-.672-.816A28.451,28.451,0,0,1-11.388.06Zm3.7-3.6a15.949,15.949,0,0,0,2.5-1.1,16.436,16.436,0,0,0,2.556,1.1Zm.516,2.244V-1.8h3.516V-.432Zm3.4-5.616A6.672,6.672,0,0,1-4.416-4.9,8.135,8.135,0,0,1-6.024-6.048Zm.912-.9-.192.048h-3.1c.144-.216.288-.42.432-.636l-1.092-.216A9.276,9.276,0,0,1-8.676-4.968a3.515,3.515,0,0,1,.792.672A11.583,11.583,0,0,0-6.672-5.352a9.587,9.587,0,0,0,1.308,1A14.724,14.724,0,0,1-8.64-3.228a3.561,3.561,0,0,1,.552.912c.228-.06.432-.12.66-.192V.936h1.056V.444h3.516V.936h1.092V-2.652c.216.072.432.132.648.192a4.458,4.458,0,0,1,.684-.9A15.193,15.193,0,0,1-3.42-4.392,7.612,7.612,0,0,0-1.368-6.5ZM5.544-2.916v.852H3.108v-.852ZM9.1-2.064H6.624v-.852H9.1ZM6.624-.324v-.888H9.1v.888Zm-3.516,0v-.888H5.544v.888ZM2.04.924H3.108V.552H9.1V.828h1.116v-4.62H2.04Zm.216-5.388h2.8V-5.22h-2.8Zm.252-2.112v.756H5.04v-.756Zm4.62,2.112H10V-5.22H7.128Zm0-2.112v.756h2.58v-.756Zm-.5-1.5v-.648h3.852v-.9H1.74v.9h3.8v.648H1.008v2.64H2V-7.2h3.54v3.1h1.08V-7.2h3.588v1.764h1.032v-2.64Z" transform="translate(443 2909)" fill="#00c8ac"/>
    <g id="グループ_4266" data-name="グループ 4266" transform="translate(0 145)">
      <g id="グループ_4249" data-name="グループ 4249" transform="translate(422.993 2691)">
        <g id="グループ_4250" data-name="グループ 4250" transform="translate(0 0)">
          <path id="パス_8432" data-name="パス 8432" d="M16.548,2.642,12.757,19.277h10.6L8.5,42.642l3.327-15.861H.92Z" transform="translate(-0.92 -2.642)" fill="none" stroke="#00c8ac" stroke-linecap="round" stroke-linejoin="round" stroke-miterlimit="10" stroke-width="2"/>
        </g>
      </g>
      <g id="グループ_4251" data-name="グループ 4251" transform="translate(447.768 2708) rotate(14)">
        <g id="グループ_4250-2" data-name="グループ 4250" transform="translate(0 0)">
          <path id="パス_8432-2" data-name="パス 8432" d="M10.94,0,8.286,11.644h7.42L5.308,28,7.636,16.9H0Z" transform="translate(0 0)" fill="none" stroke="#00c8ac" stroke-linecap="round" stroke-linejoin="round" stroke-miterlimit="10" stroke-width="2"/>
        </g>
      </g>
    </g>
  </g>
</svg>
