<svg xmlns="http://www.w3.org/2000/svg" width="100" height="100" viewBox="0 0 100 100">
  <g id="グループ_4494" data-name="グループ 4494" transform="translate(-513 -2826)">
    <path id="パス_8818" data-name="パス 8818" d="M0,0H100V100H0Z" transform="translate(513 2826)" fill="#fff"/>
    <path id="パス_8819" data-name="パス 8819" d="M-13.944-3.4V-5h1.1V-3.4ZM-10.752-5V-3.4h-1.116V-5Zm-.4,2.916c.18.276.36.588.528.9l-1.248.072V-2.532h2.04V-5.88h-2.04V-6.9a16.979,16.979,0,0,0,2.3-.42l-.756-.8a29.074,29.074,0,0,1-4.812.648,2.926,2.926,0,0,1,.276.828c.648-.036,1.332-.072,2.016-.144v.912h-1.98v3.348h1.98v1.476c-1,.072-1.908.12-2.628.156l.084,1.008c1.368-.108,3.3-.252,5.184-.4a6.149,6.149,0,0,1,.288.876L-9,.264a9.276,9.276,0,0,0-1.284-2.628Zm-5.3-7.4v3.96c0,1.812-.108,4.224-1.368,5.892a4.043,4.043,0,0,1,.912.612c1.332-1.788,1.524-4.536,1.524-6.5V-8.46h6.192C-9.168-3.312-9.156.948-7.584.948c.672,0,.888-.636.984-2.124a4.644,4.644,0,0,1-.648-.852c-.012,1.02-.084,1.776-.216,1.776-.648,0-.66-4.692-.624-9.24ZM-1.788-7.128-2-7.08H-5.292v1.128h2.88a8.041,8.041,0,0,1-3.216,4.92,4.51,4.51,0,0,1,.912.876c1.728-1.212,3.108-3.5,3.684-6.7ZM4.2-8.172A20.826,20.826,0,0,1,1.548-5.34,16.433,16.433,0,0,1,.624-7.92v-2.136H-.552V-.564c0,.216-.1.3-.336.3s-1,.012-1.812-.024A5.243,5.243,0,0,1-2.268.948,6.614,6.614,0,0,0,.012.72C.444.516.624.168.624-.564V-4.992A9.442,9.442,0,0,0,4.776.06,4.87,4.87,0,0,1,5.64-.972,8.029,8.029,0,0,1,2.028-4.428a27.641,27.641,0,0,0,3.2-3.012Zm4.188.192h7.7v1.272h1.14V-8.952H12.78v-1.116H11.64v1.116H7.284v2.244h1.1Zm6.468,6.4V-.312H9.72V-1.584ZM8.652.948H9.72V.588h5.136V.912h1.116v-3.4H8.652ZM12.768-4V-4.74H16.44v-.852H12.768v-.672h3.156v-.864H12.768v-.756H11.64v.756H8.6v.864H11.64v.672H8.148v.852H11.64V-4H6.984v.912H17.532V-4Z" transform="translate(563 2909)" fill="#00c8ac"/>
    <g id="グループ_4265" data-name="グループ 4265" transform="translate(0 145)">
      <g id="グループ_4253" data-name="グループ 4253" transform="translate(541.5 2706.307)">
        <g id="グループ_4254" data-name="グループ 4254" transform="translate(0.5 0.693)">
          <path id="パス_8433" data-name="パス 8433" d="M23.162,20.124c0,8.566-6.291,12.569-11.331,12.569S.5,28.689.5,20.124,11.832.693,11.832.693,23.162,11.558,23.162,20.124Z" transform="translate(-0.5 -0.693)" fill="none" stroke="#00c8ac" stroke-linecap="round" stroke-linejoin="round" stroke-miterlimit="10" stroke-width="2"/>
          <path id="パス_8434" data-name="パス 8434" d="M8.9,29.5c-2.713-1.149-5.4-3.92-5.4-8.986" transform="translate(0.421 -2.067)" fill="none" stroke="#00c8ac" stroke-linecap="round" stroke-miterlimit="10" stroke-width="2"/>
        </g>
      </g>
      <g id="グループ_4255" data-name="グループ 4255" transform="translate(568.5 2690.307)">
        <g id="グループ_4254-2" data-name="グループ 4254" transform="translate(0.5 0.693)">
          <path id="パス_8433-2" data-name="パス 8433" d="M16.5,14.411c0,6.047-4.441,8.874-8,8.874s-8-2.827-8-8.874S8.5.693,8.5.693,16.5,8.364,16.5,14.411Z" transform="translate(-0.5 -0.693)" fill="none" stroke="#00c8ac" stroke-linecap="round" stroke-linejoin="round" stroke-miterlimit="10" stroke-width="2"/>
          <path id="パス_8434-2" data-name="パス 8434" d="M7.311,26.861C5.4,26.05,3.5,24.094,3.5,20.517" transform="translate(-0.425 -7.797)" fill="none" stroke="#00c8ac" stroke-linecap="round" stroke-miterlimit="10" stroke-width="2"/>
        </g>
      </g>
    </g>
  </g>
</svg>
