<svg xmlns="http://www.w3.org/2000/svg" width="100" height="100" viewBox="0 0 100 100">
  <g id="グループ_4495" data-name="グループ 4495" transform="translate(-633 -2826)">
    <path id="パス_8820" data-name="パス 8820" d="M0,0H100V100H0Z" transform="translate(633 2826)" fill="#fff"/>
    <path id="パス_8821" data-name="パス 8821" d="M-9.084-6.192h1.332V-7.248H-9.084V-9.912h-1.044v2.664H-11.6v1.056h1.476v3.6c-.6.252-1.152.468-1.584.612l.432,1.128c1.068-.48,2.436-1.1,3.7-1.716l-.252-.984c-.408.168-.84.348-1.248.528ZM-5.04-.3c-.768,0-.9-.132-.9-.8V-5.04L-4.6-5.616v3.864h1.044V-6.06l1.392-.6c0,1.824-.024,2.94-.072,3.18s-.156.288-.312.288c-.12,0-.444,0-.7-.012a3.446,3.446,0,0,1,.252.948,3.7,3.7,0,0,0,1.152-.132c.372-.1.576-.36.636-.864.072-.468.1-2.1.1-4.332l.048-.192-.78-.3-.192.156-.216.168L-3.552-7.2v-2.856H-4.6v3.3l-1.344.564V-8.928H-7v3.18l-1.248.528.42.984L-7-4.584v3.468C-7,.324-6.576.7-5.1.7h2.748c1.308,0,1.644-.54,1.8-2.2a3.224,3.224,0,0,1-.984-.408C-1.632-.6-1.752-.3-2.412-.3ZM2-7.56h3.54v2.448h1.08V-7.56h3.588V-6.2h1.032V-8.256H6.624v-.552h3.852v-.828H1.74v.828h3.8v.552H1.008V-6.2H2ZM7.128-5.352H10v-.612H7.128Zm0-1.7v.612h2.58v-.612Zm-4.872,1.7h2.8v-.612h-2.8Zm.252-1.7v.612H5.04v-.612Zm7.416,5.34a13.742,13.742,0,0,1-1.6.912,3.668,3.668,0,0,1-1.08-.912Zm-4.98,0h1.3a4.272,4.272,0,0,0,1.02,1.2c-.78.1-1.572.18-2.316.264Zm5.064,0H11.58v-.768H2.7q.036-.414.036-.792v-.84h8.316v-.756H1.716v1.584A4.487,4.487,0,0,1,.5.156a3.55,3.55,0,0,1,.78.684A4.728,4.728,0,0,0,2.592-1.716H3.8v1.6c-.444.048-.84.084-1.188.12l.192.876c1.26-.144,3-.36,4.656-.588l-.036-.66a7.583,7.583,0,0,0,3.7,1.32A2.809,2.809,0,0,1,11.7.1,9.3,9.3,0,0,1,9.1-.456a10.728,10.728,0,0,0,1.692-.864Zm.348-1.26v-.672H3.288v.672Z" transform="translate(683 2909)" fill="#00c8ac"/>
    <g id="グループ_4257" data-name="グループ 4257" transform="translate(657 2836)">
      <g id="グループ_4258" data-name="グループ 4258">
        <path id="パス_8447" data-name="パス 8447" d="M3.944,36.182a.478.478,0,0,0,.478-.478V27.876a.478.478,0,0,0-.957,0V35.7a.478.478,0,0,0,.478.478" transform="translate(-1.588 -12.553)" fill="#00c8ac"/>
        <path id="パス_8448" data-name="パス 8448" d="M7.29,44.277a.478.478,0,0,0,.478-.478V35.972a.478.478,0,1,0-.957,0V43.8a.478.478,0,0,0,.478.478" transform="translate(-3.121 -16.262)" fill="#00c8ac"/>
        <path id="パス_8449" data-name="パス 8449" d="M.478,35.493A.478.478,0,0,0,0,35.971V43.8a.478.478,0,1,0,.957,0V35.971a.478.478,0,0,0-.478-.478" transform="translate(0 -16.262)" fill="#00c8ac"/>
        <path id="パス_8450" data-name="パス 8450" d="M4.423,66.317V58.49a.478.478,0,1,0-.957,0v7.827a.478.478,0,0,0,.957,0" transform="translate(-1.588 -26.58)" fill="#00c8ac"/>
        <path id="パス_8451" data-name="パス 8451" d="M7.29,74.89a.478.478,0,0,0,.478-.478V66.585a.478.478,0,1,0-.957,0v7.827a.478.478,0,0,0,.478.478" transform="translate(-3.121 -30.289)" fill="#00c8ac"/>
        <path id="パス_8452" data-name="パス 8452" d="M.478,66.106A.478.478,0,0,0,0,66.585v7.827a.478.478,0,1,0,.957,0V66.585a.478.478,0,0,0-.478-.479" transform="translate(0 -30.289)" fill="#00c8ac"/>
        <path id="パス_8453" data-name="パス 8453" d="M82.405,22.675a.478.478,0,0,0,.478-.478V12.076a.478.478,0,0,0-.957,0V22.2a.478.478,0,0,0,.478.478" transform="translate(-37.538 -5.314)" fill="#00c8ac"/>
        <path id="パス_8454" data-name="パス 8454" d="M85.751,33.141a.478.478,0,0,0,.478-.478V22.542a.478.478,0,0,0-.957,0v10.12a.478.478,0,0,0,.478.478" transform="translate(-39.071 -10.109)" fill="#00c8ac"/>
        <path id="パス_8455" data-name="パス 8455" d="M78.939,33.141a.478.478,0,0,0,.478-.478V22.542a.478.478,0,0,0-.957,0v10.12a.478.478,0,0,0,.478.478" transform="translate(-35.95 -10.109)" fill="#00c8ac"/>
        <path id="パス_8456" data-name="パス 8456" d="M91.952,44.246a.478.478,0,0,0-.478.478v5.347a.478.478,0,0,0,.957,0V44.724a.478.478,0,0,0-.478-.478" transform="translate(-41.912 -20.273)" fill="#00c8ac"/>
        <path id="パス_8457" data-name="パス 8457" d="M95.3,49.775a.478.478,0,0,0-.478.478V55.6a.478.478,0,0,0,.957,0V50.253a.478.478,0,0,0-.478-.478" transform="translate(-43.445 -22.806)" fill="#00c8ac"/>
        <path id="パス_8458" data-name="パス 8458" d="M88.486,56.078a.478.478,0,0,0,.478-.478V50.253a.478.478,0,1,0-.957,0V55.6a.478.478,0,0,0,.478.478" transform="translate(-40.324 -22.806)" fill="#00c8ac"/>
        <path id="パス_8462" data-name="パス 8462" d="M35.558,14.491a.956.956,0,0,0-.825-.171L30.2,15.489a.957.957,0,0,0-.718.927v4.537a.957.957,0,0,0,.957.957.947.947,0,0,0,.239-.03l4.537-1.168a.958.958,0,0,0,.718-.927V15.248a.956.956,0,0,0-.371-.756m-1.543,4.552-2.623.676V17.158l2.623-.676Z" transform="translate(-13.506 -6.548)" fill="#00c8ac"/>
        <path id="パス_8463" data-name="パス 8463" d="M61.358,15.49l-4.537-1.169a.957.957,0,0,0-1.2.927v4.537a.957.957,0,0,0,.718.927l4.537,1.168a.957.957,0,0,0,1.2-.927V16.417a.958.958,0,0,0-.718-.927m-1.2,4.229-2.623-.676V16.483l2.623.676Z" transform="translate(-25.486 -6.548)" fill="#00c8ac"/>
        <path id="パス_8464" data-name="パス 8464" d="M35.558,34.28a.956.956,0,0,0-.825-.171L30.2,35.278a.957.957,0,0,0-.718.927v4.537a.957.957,0,0,0,.957.957.947.947,0,0,0,.239-.03L35.211,40.5a.958.958,0,0,0,.718-.927V35.037a.956.956,0,0,0-.371-.756m-1.543,4.552-2.623.676V36.947l2.623-.676Z" transform="translate(-13.506 -15.615)" fill="#00c8ac"/>
        <path id="パス_8465" data-name="パス 8465" d="M61.358,35.278,56.821,34.11a.957.957,0,0,0-1.2.927v4.538a.957.957,0,0,0,.718.927l4.537,1.168a.965.965,0,0,0,.238.03.958.958,0,0,0,.957-.957V36.205a.958.958,0,0,0-.718-.927m-1.2,4.229-2.623-.676V36.272l2.623.676Z" transform="translate(-25.486 -15.615)" fill="#00c8ac"/>
        <path id="パス_8466" data-name="パス 8466" d="M35.558,54.069a.956.956,0,0,0-.825-.171L30.2,55.067a.957.957,0,0,0-.718.927v4.537a.957.957,0,0,0,.957.957.947.947,0,0,0,.239-.03l4.537-1.168a.958.958,0,0,0,.718-.927V54.826a.956.956,0,0,0-.371-.756m-1.543,4.552-2.623.676V56.736l2.623-.676Z" transform="translate(-13.506 -24.682)" fill="#00c8ac"/>
        <path id="パス_8467" data-name="パス 8467" d="M61.358,55.068,56.821,53.9a.957.957,0,0,0-1.2.927v4.538a.957.957,0,0,0,.718.927l4.537,1.168a.965.965,0,0,0,.238.03.958.958,0,0,0,.957-.957V55.995a.958.958,0,0,0-.718-.927m-1.2,4.229-2.623-.676V56.061l2.623.676Z" transform="translate(-25.486 -24.682)" fill="#00c8ac"/>
        <path id="パス_8468" data-name="パス 8468" d="M51.758,46.086H48.8V26.4a.958.958,0,0,0-.658-.909L43.4,23.935V4.463a.957.957,0,0,0-.725-.928l-14-3.506-.016,0a.878.878,0,0,0-.433,0l-.016,0-14,3.506a.956.956,0,0,0-.724.928v7.87L8.716,14.051a.957.957,0,0,0-.632.9V46.086H5.821a.957.957,0,0,0,0,1.914H51.758a.957.957,0,0,0,0-1.914M46.881,27.1V46.086H43.4V25.951ZM10,15.624l3.48-1.255V46.086H10ZM15.391,5.21,27.482,2.183v43.9H15.391Zm14,40.876V2.183L41.487,5.21V46.086Z" transform="translate(-2.229)" fill="#00c8ac"/>
      </g>
    </g>
  </g>
</svg>
