<svg xmlns="http://www.w3.org/2000/svg" width="100" height="100" viewBox="0 0 100 100">
  <g id="グループ_4497" data-name="グループ 4497" transform="translate(-873 -2826)">
    <path id="パス_8824" data-name="パス 8824" d="M0,0H100V100H0Z" transform="translate(873 2826)" fill="#fff"/>
    <path id="パス_8825" data-name="パス 8825" d="M-17.712-9.7h-1.452a5.444,5.444,0,0,1,.084,1v1.032H-21.7a11.4,11.4,0,0,1-1.164-.06,8.933,8.933,0,0,1,.048.972v2.1c0,.264-.024.612-.048.864h1.308a5.508,5.508,0,0,1-.048-.792V-6.552h6.384a8.326,8.326,0,0,1-1.1,3.312A6.17,6.17,0,0,1-19.344-.984a7.534,7.534,0,0,1-1.44.4L-19.8.552A7.65,7.65,0,0,0-14.988-2.94a11.162,11.162,0,0,0,1.152-3.516,4.511,4.511,0,0,1,.2-.816l-.828-.516a2.635,2.635,0,0,1-.9.12h-2.424V-8.7A8.584,8.584,0,0,1-17.712-9.7Zm6.5,5.22.588,1.188a24.552,24.552,0,0,0,4.428-1.86V-.972A13.905,13.905,0,0,1-6.264.444h1.488A9.024,9.024,0,0,1-4.86-.972v-4.98A20.243,20.243,0,0,0-1.632-8.58L-2.64-9.54A14.813,14.813,0,0,1-5.976-6.684,19.816,19.816,0,0,1-11.208-4.476ZM6.3-.264,7.092.4A3.73,3.73,0,0,1,7.548.1,12.626,12.626,0,0,0,11.64-3.216l-.732-1.032a8.442,8.442,0,0,1-3.264,2.76V-8.124a7.227,7.227,0,0,1,.06-.96H6.312a8.8,8.8,0,0,1,.072.96v7.1A3.461,3.461,0,0,1,6.3-.264ZM.768-.372,1.92.4a6.742,6.742,0,0,0,2.136-3.36,26.289,26.289,0,0,0,.372-5.124,8.982,8.982,0,0,1,.06-.96H3.1a3.74,3.74,0,0,1,.1.972,20.807,20.807,0,0,1-.348,4.788A5.555,5.555,0,0,1,.768-.372Zm21.372-7.7-.78-.576a3.64,3.64,0,0,1-1.044.12H15.864a12.839,12.839,0,0,1-1.308-.084V-7.26c.192-.012.84-.072,1.308-.072h4.4A9.873,9.873,0,0,1,18.36-4.164,13.484,13.484,0,0,1,13.428-.648L14.4.372a15.753,15.753,0,0,0,4.62-3.456A26.93,26.93,0,0,1,22.2.42l1.056-.936a31.9,31.9,0,0,0-3.432-3.516,16.424,16.424,0,0,0,1.968-3.42A4.142,4.142,0,0,1,22.14-8.076Z" transform="translate(923 2909)" fill="#00c8ac"/>
    <g id="グループ_4261" data-name="グループ 4261" transform="translate(0 146)">
      <path id="パス_8474" data-name="パス 8474" d="M10.5,0,9.21,2.361,7.256.515l-.5,2.643L4.329,2l.343,2.67L2.005,4.328,3.157,6.759l-2.644.5L2.361,9.211,0,10.5,2.361,11.79.513,13.744l2.644.5-1.152,2.43,2.667-.343-.343,2.667,2.43-1.152.5,2.644L9.21,18.639,10.5,21l1.289-2.361,1.956,1.848.5-2.644,2.431,1.152-.344-2.667L19,16.671l-1.152-2.43,2.643-.5L18.639,11.79,21,10.5,18.639,9.211l1.847-1.956-2.643-.5L19,4.328l-2.668.346L16.672,2,14.241,3.158l-.5-2.643L11.789,2.361Z" transform="translate(913 2700.297)" fill="#fff" stroke="#00c8ac" stroke-linecap="round" stroke-linejoin="round" stroke-width="1"/>
      <g id="パス_8475" data-name="パス 8475" transform="translate(924.216 2712) rotate(-30)" fill="#fff" stroke-linecap="round" stroke-linejoin="round">
        <path d="M 3 2.5 C 1.792718768119812 2.5 0.7825390696525574 1.639688372612 0.5502275228500366 0.5 L 5.449772357940674 0.5 C 5.217461109161377 1.639688372612 4.207281112670898 2.5 3 2.5 Z" stroke="none"/>
        <path d="M 1.268407344818115 1 C 1.614717483520508 1.597383379936218 2.261210203170776 2 3 2 C 3.738789796829224 2 4.385282516479492 1.597383379936218 4.731593132019043 1 L 1.268407344818115 1 M 0 0 C 1.310989856719971 0 3.446769952774048 0 6 0 C 6 1.656849980354309 4.65684986114502 3 3 3 C 1.34315013885498 3 0 1.656849980354309 0 0 Z" stroke="none" fill="#00c8ac"/>
      </g>
      <g id="パス_8476" data-name="パス 8476" transform="translate(921.196 2714.598) rotate(-150)" fill="#fff" stroke-linecap="round" stroke-linejoin="round">
        <path d="M 0.5502458214759827 2.499995470046997 C 0.7825855612754822 1.360318183898926 1.79279351234436 0.5000236630439758 3.000101089477539 0.4999973773956299 C 3.667881011962891 0.4999873638153076 4.295680999755859 0.760007381439209 4.767860889434814 1.232177376747131 C 5.119913578033447 1.584222435951233 5.354025840759277 2.022754430770874 5.450350284576416 2.499889373779297 L 0.5502458214759827 2.499995470046997 Z" stroke="none"/>
        <path d="M 1.268470168113708 1.999979853630066 L 4.733109951019287 1.999904870986938 C 4.646498203277588 1.850364923477173 4.539775371551514 1.711198329925537 4.414310932159424 1.585737347602844 C 4.036571025848389 1.208007335662842 3.534331083297729 0.9999873638153076 3.000111103057861 0.9999973773956299 C 2.261361598968506 1.000017404556274 1.614827394485474 1.402684211730957 1.268470168113708 1.999979853630066 M 1.007995592772204e-06 3.000007390975952 C 4.100799560546875e-05 1.34318733215332 1.343220949172974 3.736381404451095e-05 3.000091075897217 -2.636184717630385e-06 C 4.656960964202881 -3.263618418714032e-05 6.000081062316895 1.34305739402771 6.000041007995605 2.999877452850342 C 3.446800947189331 2.999937295913696 1.311001062393188 2.999987363815308 1.007995592772204e-06 3.000007390975952 Z" stroke="none" fill="#00c8ac"/>
      </g>
      <g id="グループ_2544" data-name="グループ 2544" transform="translate(647 1775.652)">
        <g id="パス_8826" data-name="パス 8826" transform="translate(251 919.348)" fill="none" stroke-linecap="round">
          <path d="M0,0H50V32H0Z" stroke="none"/>
          <path d="M 2 2 L 2 30 L 48 30 L 48 2 L 2 2 M 0 0 L 50 0 L 50 32 L 0 32 L 0 0 Z" stroke="none" fill="#00c8ac"/>
        </g>
        <path id="パス_1676" data-name="パス 1676" d="M-8425.936,905h24.615" transform="translate(8689.449 52.552)" fill="none" stroke="#00c8ac" stroke-linecap="round" stroke-width="2"/>
        <path id="パス_8827" data-name="パス 8827" d="M7,0,0,6.92" transform="translate(287.5 942.848)" fill="none" stroke="#00c8ac" stroke-linecap="round" stroke-width="2"/>
      </g>
    </g>
  </g>
</svg>
