<svg xmlns="http://www.w3.org/2000/svg" xmlns:xlink="http://www.w3.org/1999/xlink" width="293" height="190" viewBox="0 0 293 190">
  <defs>
    <clipPath id="clip-path">
      <rect id="長方形_3555" data-name="長方形 3555" width="12.483" height="12.483" transform="translate(0 0)" fill="#e66084"/>
    </clipPath>
  </defs>
  <g id="グループ_4483" data-name="グループ 4483" transform="translate(-219 -2757)">
    <path id="パス_8739" data-name="パス 8739" d="M6,0H279a6,6,0,0,1,6,6V175a6,6,0,0,1-6,6H6a6,6,0,0,1-6-6V6A6,6,0,0,1,6,0Z" transform="translate(227 2766)" fill="#f5f5f5"/>
    <path id="パス_8740" data-name="パス 8740" d="M6,0H62V181H6a6,6,0,0,1-6-6V6A6,6,0,0,1,6,0Z" transform="translate(227 2766)" fill="#e66084"/>
    <g id="グループ_4494" data-name="グループ 4494">
      <path id="パス_8741" data-name="パス 8741" d="M-19.364-5.464h1.5v-1.32H-20.8V-1.5h1.44Zm-1.144-1.024h2.352v.72h-1.512v3.976h-.84ZM-16.828,0h.928V-2.232h.888c1.28,0,2.216-.592,2.216-1.88,0-1.328-.936-1.784-2.248-1.784h-1.784Zm.928-2.976V-5.144h.768c.936,0,1.424.256,1.424,1.032s-.448,1.136-1.392,1.136ZM-11.732,0h.92V-2.744c.272-.7.7-.944,1.064-.944a1.3,1.3,0,0,1,.44.072l.168-.8a1.1,1.1,0,0,0-.5-.1,1.521,1.521,0,0,0-1.248.9h-.024L-10.98-4.4h-.752Zm5.016.1A2.669,2.669,0,0,0-5.228-.36l-.32-.584A1.868,1.868,0,0,1-6.6-.616,1.329,1.329,0,0,1-7.956-1.96H-5.1a2.385,2.385,0,0,0,.048-.472c0-1.24-.632-2.08-1.8-2.08A2.139,2.139,0,0,0-8.86-2.2,2.116,2.116,0,0,0-6.716.1ZM-7.964-2.6A1.191,1.191,0,0,1-6.836-3.792c.64,0,.984.44.984,1.192ZM-4.028,0h.92V-3.12a1.456,1.456,0,0,1,.984-.6c.5,0,.736.3.736,1.064V0h.92V-3.12a1.469,1.469,0,0,1,.992-.6c.5,0,.736.3.736,1.064V0h.92V-2.768c0-1.12-.432-1.744-1.352-1.744A2.027,2.027,0,0,0-.6-3.7,1.175,1.175,0,0,0-1.82-4.512a1.917,1.917,0,0,0-1.36.728H-3.2L-3.276-4.4h-.752ZM3.508,0h.92V-4.4h-.92Zm.456-5.224a.536.536,0,0,0,.576-.552.534.534,0,0,0-.576-.544.527.527,0,0,0-.568.544A.529.529,0,0,0,3.964-5.224ZM7.1.1A1.842,1.842,0,0,0,8.532-.664h.024L8.628,0H9.38V-4.4H8.46v3.056c-.368.464-.648.656-1.056.656-.52,0-.736-.3-.736-1.056V-4.4h-.92v2.768C5.748-.512,6.156.1,7.1.1ZM10.764,0h.92V-3.12a1.456,1.456,0,0,1,.984-.6c.5,0,.736.3.736,1.064V0h.92V-3.12a1.469,1.469,0,0,1,.992-.6c.5,0,.736.3.736,1.064V0h.92V-2.768c0-1.12-.432-1.744-1.352-1.744a2.027,2.027,0,0,0-1.432.808,1.175,1.175,0,0,0-1.216-.808,1.917,1.917,0,0,0-1.36.728h-.024L11.516-4.4h-.752Zm8.6-.616h-1.5V.7H20.8V-4.584h-1.44ZM20.508.408H18.156v-.72h1.512V-4.288h.84Z" transform="translate(258 2860)" fill="#fff"/>
      <path id="パス_8742" data-name="パス 8742" d="M-10.144-3.616v-.272h.76c.384,0,.664.008.792.024v-.848a5.316,5.316,0,0,1-.8.048h-.752v-.928a5.216,5.216,0,0,1,.048-.7H-11a5.523,5.523,0,0,1,.04.7v.928h-2.112v-.92a4.312,4.312,0,0,1,.048-.64h-.9a4.39,4.39,0,0,1,.048.64v.92h-.784a4.973,4.973,0,0,1-.832-.064v.872c.128-.016.456-.032.832-.032h.784v1.2c0,.336-.032.664-.04.776h.888a7.113,7.113,0,0,1-.04-.776v-1.2h2.112v.32c0,2.12-.7,2.808-2.2,3.36l.68.64C-10.608-.408-10.144-1.552-10.144-3.616Zm8.256-2.336a.475.475,0,0,1,.472-.48.481.481,0,0,1,.48.48.481.481,0,0,1-.48.48A.475.475,0,0,1-1.888-5.952Zm-.424,0a.9.9,0,0,0,.9.9.9.9,0,0,0,.9-.9.9.9,0,0,0-.9-.9A.9.9,0,0,0-2.312-5.952Zm-1.232-.28h-.944a3.408,3.408,0,0,1,.064.624v.744H-6.568a6.642,6.642,0,0,1-.712-.048v.84c.216-.016.472-.024.72-.024h2.136V-.664c-.008.216-.1.3-.3.3A5.461,5.461,0,0,1-5.64-.456l.072.792A11.984,11.984,0,0,0-4.36.392c.528,0,.752-.248.752-.68V-4.1h2.016c.2,0,.472,0,.7.016v-.832a5.323,5.323,0,0,1-.712.048H-3.608V-5.6A4.3,4.3,0,0,1-3.544-6.232ZM-5.36-2.9l-.712-.344a8.3,8.3,0,0,1-1.512,2.08L-6.9-.7A11.953,11.953,0,0,0-5.36-2.9Zm3.384-.352-.688.376A13.853,13.853,0,0,1-1.336-.744L-.6-1.16A17.191,17.191,0,0,0-1.976-3.256ZM.776-3.568v.992c.272-.024.752-.04,1.192-.04H6.32c.352,0,.72.032.9.04v-.992c-.2.016-.512.048-.9.048H1.968C1.536-3.52,1.04-3.552.776-3.568Zm9.84,2.832A8.375,8.375,0,0,1,10.552.288h.984a9.373,9.373,0,0,1-.064-1.024V-3.208A20.947,20.947,0,0,1,14.5-1.96l.36-.872a27.117,27.117,0,0,0-3.384-1.28V-5.36c0-.28.032-.632.056-.9h-.984a5.791,5.791,0,0,1,.072.9Z" transform="translate(258 2849)" fill="#fff"/>
      <path id="パス_8743" data-name="パス 8743" d="M5.448-3.04A5.33,5.33,0,0,0,7.032.784L7.64.5A4.979,4.979,0,0,1,6.168-3.04,4.979,4.979,0,0,1,7.64-6.576l-.608-.288A5.33,5.33,0,0,0,5.448-3.04ZM13.856-5.5H10.144V-5.96h3.712Zm0,.936H10.144v-.464h3.712Zm.744-1.9H9.432v2.392H14.6ZM14.36-2.1a3.77,3.77,0,0,1-.728,1.008A3.526,3.526,0,0,1,12.96-2.1ZM9.832-.584V-1.1h1.256v.4Zm0-1.528h1.256v.472H9.832Zm1.256-.976v.448H9.832v-.448Zm3.72.392-.128.024H12.048V-2.1h.72l-.432.12a4.9,4.9,0,0,0,.808,1.3A4.6,4.6,0,0,1,11.8,0V-3.088h3.7V-3.7H8.488v.608h.656V-.52c-.264.024-.512.048-.728.064l.056.648C9.2.12,10.144.016,11.088-.088V.624H11.8V.056A2.33,2.33,0,0,1,12.168.6a5.525,5.525,0,0,0,1.48-.8A4.432,4.432,0,0,0,15.24.624a2.2,2.2,0,0,1,.44-.576A4.445,4.445,0,0,1,14.152-.64a4.545,4.545,0,0,0,1.112-1.88Zm7.832.416a11,11,0,0,1-1.528,1.008,4.217,4.217,0,0,1-.744-1.008Zm.016,0h.9v-.664H18.568V-3.5h3.96V-4.1h-3.96v-.552h3.96V-5.24h-3.96v-.552H22.76v-.624H17.816v3.472H16.44v.664h1.368V-.248c-.368.056-.712.1-1,.144l.176.68c.952-.152,2.3-.368,3.552-.584L20.5-.664l-1.928.3V-2.28h1.04A4.859,4.859,0,0,0,23.232.648,2.574,2.574,0,0,1,23.7-.016a5.385,5.385,0,0,1-2.1-.848,12.206,12.206,0,0,0,1.656-1.008ZM26.144.1a1.943,1.943,0,0,0,1.984-2.04,1.693,1.693,0,0,0-1.792-1.872,1.684,1.684,0,0,0-.808.208l.136-1.512h2.184V-5.9H24.864l-.176,2.8.448.3a1.549,1.549,0,0,1,.944-.336A1.092,1.092,0,0,1,27.2-1.9,1.151,1.151,0,0,1,26.032-.648a1.884,1.884,0,0,1-1.376-.632l-.44.6A2.606,2.606,0,0,0,26.144.1Zm4.84-1.96V-3.272h1.608v1.416Zm5.184,0H33.36V-3.272h2.232v-.7H33.36v-1.1h2.416v-.72H31.144c.1-.24.216-.5.312-.752l-.752-.2A6.473,6.473,0,0,1,28.96-4.032a5.916,5.916,0,0,1,.648.48,7.278,7.278,0,0,0,1.152-1.52h1.832v1.1H30.24v2.112H28.952v.72h3.64V.632h.768V-1.136h2.808Zm3.36-3.976v.552H38.016v-.552ZM38.016-4.16v-.592h1.512v.592Zm2.216.552V-6.392H37.28V.632h.736v-4.24Zm1.344-.536v-.608h1.56v.608Zm1.56-1.688v.552h-1.56v-.552ZM39.728-.664v-.664h1.624v.664ZM41.352-2.5v.624H39.728V-2.5Zm2.536-3.9H40.864v2.8h2.272V-.3c0,.136-.04.176-.184.184-.128,0-.512.008-.9-.008V-3.056h-3V.3h.68V-.1h2.16a3.332,3.332,0,0,1,.232.728A4.05,4.05,0,0,0,43.512.5c.288-.128.376-.368.376-.792ZM47.112-3.04a5.33,5.33,0,0,0-1.584-3.824l-.608.288A4.979,4.979,0,0,1,46.392-3.04,4.979,4.979,0,0,1,44.92.5l.608.288A5.33,5.33,0,0,0,47.112-3.04Z" transform="translate(231 2871)" fill="#fff"/>
    </g>
    <path id="パス_8428" data-name="パス 8428" d="M-6470.077,2369v77" transform="translate(6763.577 397)" fill="none" stroke="#707070" stroke-linecap="round" stroke-width="1" stroke-dasharray="0 3"/>
    <path id="パス_8428-2" data-name="パス 8428" d="M-6470.077,2369v77" transform="translate(6892.577 397)" fill="none" stroke="#707070" stroke-linecap="round" stroke-width="1" stroke-dasharray="0 3"/>
    <path id="パス_8428-3" data-name="パス 8428" d="M-6470.077,2369v77" transform="translate(6806.577 397)" fill="none" stroke="#707070" stroke-linecap="round" stroke-width="1" stroke-dasharray="0 3"/>
    <path id="パス_8428-4" data-name="パス 8428" d="M-6470.077,2369v77" transform="translate(6935.577 397)" fill="none" stroke="#707070" stroke-linecap="round" stroke-width="1" stroke-dasharray="0 3"/>
    <path id="パス_8428-5" data-name="パス 8428" d="M-6470.077,2369v77" transform="translate(6849.577 397)" fill="none" stroke="#707070" stroke-linecap="round" stroke-width="1" stroke-dasharray="0 3"/>
    <path id="パス_8428-6" data-name="パス 8428" d="M-6470.077,2369v77" transform="translate(6978.577 397)" fill="none" stroke="#707070" stroke-linecap="round" stroke-width="1" stroke-dasharray="0 3"/>
    <path id="合体_6" data-name="合体 6" d="M35.5,28H.5V6h35V0l8,17-8,17Z" transform="translate(293.5 2770)" fill="#818181"/>
    <path id="合体_50" data-name="合体 50" d="M164.5,28H.5V6h164V0l8,17-8,17Z" transform="translate(336.5 2770)" fill="#00c8ac"/>
    <path id="合体_51" data-name="合体 51" d="M164.5,28h-207V6h207V0l8,17-8,17Z" transform="translate(336.501 2807)" fill="#e66084"/>
    <path id="パス_8744" data-name="パス 8744" d="M-13.056-4.386l-.7-.246a4.224,4.224,0,0,1-.132.492,6.637,6.637,0,0,1-.75,1.548c-.48-.366-1.146-.828-1.65-1.146l-.4.48a17.037,17.037,0,0,1,1.656,1.182A6.521,6.521,0,0,1-17.358-.24l.528.474a7.491,7.491,0,0,0,2.3-1.9,13.386,13.386,0,0,1,1.38,1.356l.48-.528A14.7,14.7,0,0,0-14.136-2.2a8.6,8.6,0,0,0,.864-1.7A4.426,4.426,0,0,1-13.056-4.386Zm1.638,1.71v.744c.2-.018.564-.03.894-.03H-7.26c.264,0,.54.024.672.03v-.744c-.15.012-.384.036-.672.036h-3.264C-10.848-2.64-11.22-2.664-11.418-2.676Zm8.526-2.082h-.7a3.816,3.816,0,0,1,.042.516q0,.306-.018.576h-.966c-.234,0-.5-.018-.732-.036v.624c.228-.018.51-.024.732-.024h.912a3.729,3.729,0,0,1-1.1,2.358,3.2,3.2,0,0,1-.69.5l.552.45A4.3,4.3,0,0,0-3.012-3.1h1.536A8.679,8.679,0,0,1-1.758-.678a.317.317,0,0,1-.342.2,6.869,6.869,0,0,1-.87-.072l.072.63c.306.024.654.042.978.042a.669.669,0,0,0,.7-.408,11.68,11.68,0,0,0,.36-2.91c.006-.072.024-.2.042-.306l-.42-.2a2.728,2.728,0,0,1-.414.036h-1.3c.012-.186.024-.384.03-.588C-2.916-4.4-2.9-4.62-2.892-4.758ZM.582-2.676v.744c.2-.018.564-.03.894-.03H4.74c.264,0,.54.024.672.03v-.744c-.15.012-.384.036-.672.036H1.476C1.152-2.64.78-2.664.582-2.676Zm9.654-1.3H9.774v-.354h.462Zm.876,1.05H10.62v-.63h.492Zm-2.166-.63h.438v.63H8.946Zm1.29,0v.63H9.774v-.63Zm-.9-.42H8.484v1.458h3.108V-3.972h-.918v-.354h1.074v-.456H8.3v.456H9.336Zm2.106,2.178v-.42h-2.8v.42ZM8.328-1.836c-.1-.162-.54-.84-.708-1.062v-.354h.636v-.516H7.62V-5.034H7.1v1.266h-.78v.516h.732A6.4,6.4,0,0,1,6.2-1.11a2.824,2.824,0,0,1,.264.48A5.6,5.6,0,0,0,7.1-2.07V.468H7.62v-2.7c.156.282.33.612.408.8ZM8.916-.9a3.291,3.291,0,0,1-.87.858A2.091,2.091,0,0,1,8.394.3a3.843,3.843,0,0,0,.954-.966ZM11.754-1v-.456H8.268V-1h1.47v.942c0,.06-.012.078-.084.078s-.276.006-.522,0a1.742,1.742,0,0,1,.156.45A1.968,1.968,0,0,0,10.05.4c.174-.072.21-.21.21-.444V-1Zm-1.17.372a6.489,6.489,0,0,1,.8.924L11.8.006a6.1,6.1,0,0,0-.822-.894Zm5.028-2.964H14.76v-.366h.852Zm0,.762H14.76V-3.18h.852Zm0,.786H14.76v-.378h.852ZM14.22-1.6h3.372V-2.04H16.146v-.378h1.116v-.408H16.146V-3.18h1.1v-.408h-1.1v-.366h1.3v-.438H16.206c.108-.162.222-.348.33-.528l-.606-.108a5.175,5.175,0,0,1-.288.636h-.72a5.231,5.231,0,0,0,.276-.5l-.534-.168a4.149,4.149,0,0,1-1.212,1.518,4.732,4.732,0,0,1,.438.4c.108-.1.222-.2.33-.318Zm-1.428.174c.366-.4.762-.846,1.1-1.266l-.3-.378A12.244,12.244,0,0,1,12.4-1.854Zm1.122-3.138a5,5,0,0,0-.948-.45l-.288.384a4.251,4.251,0,0,1,.936.5Zm-.438.942a5.059,5.059,0,0,0-.954-.414l-.282.378a5.367,5.367,0,0,1,.948.468ZM17.7-1.134H15.258V-1.59h-.57v.456H12.324v.5h2.364V.474h.57V-.636H17.7ZM-10.38,2.984a6.411,6.411,0,0,1-1.464,2.3,3.3,3.3,0,0,1,.312.564,6.407,6.407,0,0,0,.558-.666V8.462h.528V4.37a10.811,10.811,0,0,0,.588-1.218Zm1.206.75h2.022V4.7H-9.174Zm2.892,2.622v-.5H-7.9V5.2h1.308V3.242H-9.7V5.2H-8.46v.654h-1.656v.5h1.362a4.4,4.4,0,0,1-1.554,1.428,2.46,2.46,0,0,1,.384.444A4.882,4.882,0,0,0-8.46,6.776v1.7H-7.9V6.746A5.15,5.15,0,0,0-6.51,8.24,2.494,2.494,0,0,1-6.12,7.8,4.46,4.46,0,0,1-7.6,6.356Zm2.5-3.192H-5.442V3.6h1.656ZM-4.236,6.9v.864H-5.01V6.9Zm.486-.45H-5.49V8.468h.48V8.21h1.26Zm-1.728-.4h1.692V5.624H-5.478Zm1.692-1.248H-5.478V5.24h1.692Zm-1.974-.39h2.184V3.974H-5.76Zm4.278,3.324V5.906H-.366V5.378H-1.482V3.83H-.33V3.3H-3.384V3.83h1.356V7.742h-.606V4.832H-3.15v2.91h-.42V8.27H-.228V7.742Zm2.79-1.71h.936v.516H1.308Zm.936-1.824v.45H1.308v-.45ZM1.308,5.1h.936v.5H1.308Zm1.86,1.452H2.76V4.208h.432V3.722H2.76v-.69H2.244v.69H1.308v-.69H.8v.69H.318v.486H.8v2.34H.246v.486H3.168ZM1.032,7.13a2.963,2.963,0,0,1-.8,1.02,2.845,2.845,0,0,1,.444.33A4.2,4.2,0,0,0,1.56,7.274Zm.864.216a6.208,6.208,0,0,1,.624.912l.45-.27a5.729,5.729,0,0,0-.648-.876ZM3.954,5.972c.012-.192.012-.384.012-.558V5.1H5.022v.876ZM5.022,3.758V4.6H3.966V3.758Zm.54-.5H3.438v2.16a5.562,5.562,0,0,1-.516,2.76,1.961,1.961,0,0,1,.444.324,4.77,4.77,0,0,0,.552-2.022h1.1V7.808c0,.1-.036.12-.126.126s-.378.006-.66-.006a1.914,1.914,0,0,1,.162.528,2.084,2.084,0,0,0,.912-.1c.186-.084.252-.246.252-.54Zm2.664.372V4.04H7.092V3.626ZM7.092,4.88V4.436H8.226V4.88Zm1.662.414V3.206H6.54V8.474h.552V5.294Zm1.008-.4V4.436h1.17v.456Zm1.17-1.266V4.04H9.762V3.626ZM8.376,7.5V7H9.594v.5ZM9.594,6.128V6.6H8.376V6.128Zm1.9-2.922H9.228v2.1h1.7V7.772c0,.1-.03.132-.138.138s-.384.006-.678-.006v-2.2H7.866V8.222h.51v-.3H10a2.5,2.5,0,0,1,.174.546,3.037,3.037,0,0,0,1.044-.1c.216-.1.282-.276.282-.594Z" transform="translate(313.531 2785.667)" fill="#f5f5f5"/>
    <path id="パス_8745" data-name="パス 8745" d="M-8.184-1.338h-.624V-3.48h-.528v2.142h-.456v.51h3.5v-.51H-7.632V-2.664h1.218V-3.15H-7.632V-4.3a10.053,10.053,0,0,0,1.206-.276l-.384-.444a15.943,15.943,0,0,1-2.844.492,1.6,1.6,0,0,1,.15.462c.42-.036.876-.084,1.32-.15Zm-1.932-1.65-.1.012h-.57c.294-.558.588-1.146.8-1.608l-.384-.12-.09.03h-1.29v.486h1.008c-.264.528-.63,1.23-.954,1.788l.51.15.132-.234h.678a5.164,5.164,0,0,1-.336,1.272,3.3,3.3,0,0,1-.408-.876l-.438.156a3.9,3.9,0,0,0,.6,1.206,2.611,2.611,0,0,1-.84.84,2.349,2.349,0,0,1,.42.39,2.818,2.818,0,0,0,.8-.834,3.788,3.788,0,0,0,2.52.66h1.638A2,2,0,0,1-6.2-.216C-6.552-.2-7.746-.2-8.034-.2A3.475,3.475,0,0,1-10.32-.792,6.766,6.766,0,0,0-9.786-2.9Zm9.1,1.278a8.247,8.247,0,0,1-1.146.756,3.163,3.163,0,0,1-.558-.756Zm.012,0H-.33v-.5H-4.074v-.42H-1.1v-.444h-2.97v-.414H-1.1V-3.93h-2.97v-.414H-.93v-.468H-4.638v2.6H-5.67v.5h1.026V-.186c-.276.042-.534.078-.75.108l.132.51C-4.548.318-3.54.156-2.6-.006L-2.628-.5l-1.446.222V-1.71h.78A3.644,3.644,0,0,0-.576.486a1.93,1.93,0,0,1,.354-.5A4.039,4.039,0,0,1-1.8-.648,9.154,9.154,0,0,0-.558-1.4ZM1.62-5.016a6.411,6.411,0,0,1-1.464,2.3,3.3,3.3,0,0,1,.312.564,6.407,6.407,0,0,0,.558-.666V.462h.528V-3.63a10.811,10.811,0,0,0,.588-1.218Zm1.206.75H4.848V-3.3H2.826ZM5.718-1.644v-.5H4.1V-2.8H5.406V-4.758H2.3V-2.8H3.54v.654H1.884v.5H3.246A4.4,4.4,0,0,1,1.692-.216a2.46,2.46,0,0,1,.384.444A4.882,4.882,0,0,0,3.54-1.224V.48H4.1V-1.254A5.15,5.15,0,0,0,5.49.24,2.494,2.494,0,0,1,5.88-.2,4.46,4.46,0,0,1,4.4-1.644Zm2.5-3.192H6.558V-4.4H8.214ZM7.764-1.1v.864H6.99V-1.1Zm.486-.45H6.51V.468h.48V.21H8.25Zm-1.728-.4H8.214v-.432H6.522ZM8.214-3.192H6.522v.432H8.214ZM6.24-3.582H8.424v-.444H6.24ZM10.518-.258V-2.094h1.116v-.528H10.518V-4.17H11.67V-4.7H8.616v.528H9.972V-.258H9.366v-2.91H8.85v2.91H8.43V.27h3.342V-.258ZM-7.632,3.476v.618c.168-.012.384-.018.576-.018h2.328c.2,0,.444.006.594.018V3.476a5.732,5.732,0,0,1-.588.03H-7.056A5.489,5.489,0,0,1-7.632,3.476Zm3.972,1.65-.426-.264a1.19,1.19,0,0,1-.384.054H-7.542c-.174,0-.4-.018-.636-.042V5.5c.228-.018.492-.024.636-.024h3.054a2.828,2.828,0,0,1-.666,1.2,4.037,4.037,0,0,1-2.1,1.08l.468.54A4.434,4.434,0,0,0-4.638,7.016a4.245,4.245,0,0,0,.882-1.68A1.054,1.054,0,0,1-3.66,5.126Zm1.116.636.294.594a12.276,12.276,0,0,0,2.214-.93V7.514a6.953,6.953,0,0,1-.036.708H.672A4.512,4.512,0,0,1,.63,7.514V5.024A10.121,10.121,0,0,0,2.244,3.71l-.5-.48A7.406,7.406,0,0,1,.072,4.658,9.908,9.908,0,0,1-2.544,5.762ZM4.962,7.448a6.281,6.281,0,0,1-.048.768h.738A7.03,7.03,0,0,1,5.6,7.448V5.594a15.711,15.711,0,0,1,2.268.936l.27-.654A20.338,20.338,0,0,0,5.6,4.916V3.98c0-.21.024-.474.042-.672H4.908a4.343,4.343,0,0,1,.054.672Z" transform="translate(367.5 2785.667)" fill="#f5f5f5"/>
    <path id="パス_8746" data-name="パス 8746" d="M-50.775-4.816h-3.248v-.4h3.248Zm0,.819h-3.248V-4.4h3.248Zm.651-1.659h-4.522v2.093h4.522Zm-.21,3.822a3.3,3.3,0,0,1-.637.882,3.085,3.085,0,0,1-.588-.882ZM-54.3-.511V-.966h1.1v.35Zm0-1.337h1.1v.413h-1.1Zm1.1-.854v.392h-1.1V-2.7Zm3.255.343-.112.021h-2.3v.5h.63l-.378.105A4.289,4.289,0,0,0-51.4-.588,4.028,4.028,0,0,1-52.574,0V-2.7h3.234v-.532h-6.132V-2.7h.574V-.455c-.231.021-.448.042-.637.056l.049.567c.637-.063,1.463-.154,2.289-.245V.546h.623v-.5a2.039,2.039,0,0,1,.322.476,4.835,4.835,0,0,0,1.3-.7,3.878,3.878,0,0,0,1.393.721,1.929,1.929,0,0,1,.385-.5,3.89,3.89,0,0,1-1.337-.6,3.977,3.977,0,0,0,.973-1.645ZM-43.089-2a9.621,9.621,0,0,1-1.337.882A3.69,3.69,0,0,1-45.077-2Zm.014,0h.791v-.581h-4.368v-.49h3.465v-.518h-3.465v-.483h3.465v-.518h-3.465v-.483h3.668v-.546H-47.31v3.038h-1.2V-2h1.2V-.217c-.322.049-.623.091-.875.126l.154.6C-47.2.371-46.029.182-44.93-.007l-.035-.574-1.687.259V-2h.91A4.251,4.251,0,0,0-42.571.567a2.252,2.252,0,0,1,.413-.581A4.712,4.712,0,0,1-44-.756a10.68,10.68,0,0,0,1.449-.882ZM-40.023.091a1.7,1.7,0,0,0,1.736-1.785,1.482,1.482,0,0,0-1.568-1.638,1.473,1.473,0,0,0-.707.182l.119-1.323h1.911v-.686h-2.611l-.154,2.45.392.259a1.356,1.356,0,0,1,.826-.294.956.956,0,0,1,.98,1.078,1.007,1.007,0,0,1-1.022,1.1,1.649,1.649,0,0,1-1.2-.553L-41.71-.6A2.28,2.28,0,0,0-40.023.091Zm4.235-1.715V-2.863h1.407v1.239Zm4.536,0h-2.457V-2.863h1.953v-.609h-1.953v-.966h2.114v-.63h-4.053c.091-.21.189-.441.273-.658l-.658-.175a5.664,5.664,0,0,1-1.526,2.373,5.176,5.176,0,0,1,.567.42,6.368,6.368,0,0,0,1.008-1.33h1.6v.966h-2.058v1.848h-1.127v.63h3.185V.553h.672V-.994h2.457Zm2.94-3.479v.483h-1.323V-5.1ZM-29.635-3.64v-.518h1.323v.518Zm1.939.483V-5.593h-2.583V.553h.644v-3.71Zm1.176-.469v-.532h1.365v.532ZM-25.155-5.1v.483H-26.52V-5.1ZM-28.137-.581v-.581h1.421v.581Zm1.421-1.6v.546h-1.421v-.546ZM-24.5-5.593h-2.646v2.45h1.988V-.266c0,.119-.035.154-.161.161s-.448.007-.791-.007V-2.674h-2.625V.259h.6v-.35h1.89a2.916,2.916,0,0,1,.2.637A3.543,3.543,0,0,0-24.826.434c.252-.112.329-.322.329-.693Zm7,3.136A2.591,2.591,0,0,0-20.241-5.1,3.034,3.034,0,0,0-23.37-2.184c0,1.169.637,1.939,1.33,1.939s1.274-.791,1.694-2.219a13.938,13.938,0,0,0,.42-1.967,1.861,1.861,0,0,1,1.694,1.953A2.013,2.013,0,0,1-19.926-.49a4.326,4.326,0,0,1-.623.1l.413.658A2.694,2.694,0,0,0-17.5-2.457Zm-5.166.2a2.34,2.34,0,0,1,1.995-2.163,11.144,11.144,0,0,1-.385,1.806c-.322,1.078-.651,1.533-.966,1.533S-22.663-1.449-22.663-2.254Zm10.878-.91V-3.4h.665c.336,0,.581.007.693.021v-.742a4.652,4.652,0,0,1-.7.042h-.658v-.812a4.564,4.564,0,0,1,.042-.609h-.791a4.833,4.833,0,0,1,.035.609v.812h-1.848v-.805a3.773,3.773,0,0,1,.042-.56H-15.1a3.841,3.841,0,0,1,.042.56v.805h-.686a4.352,4.352,0,0,1-.728-.056v.763c.112-.014.4-.028.728-.028h.686v1.05c0,.294-.028.581-.035.679h.777a6.224,6.224,0,0,1-.035-.679V-3.4H-12.5v.28c0,1.855-.616,2.457-1.925,2.94l.595.56C-12.191-.357-11.785-1.358-11.785-3.164Zm7.224-2.044a.415.415,0,0,1,.413-.42.421.421,0,0,1,.42.42.421.421,0,0,1-.42.42A.415.415,0,0,1-4.561-5.208Zm-.371,0a.783.783,0,0,0,.784.784.789.789,0,0,0,.791-.784.789.789,0,0,0-.791-.784A.783.783,0,0,0-4.932-5.208ZM-6.01-5.453h-.826a2.982,2.982,0,0,1,.056.546v.651H-8.656A5.812,5.812,0,0,1-9.279-4.3v.735c.189-.014.413-.021.63-.021H-6.78v3c-.007.189-.084.259-.266.259a4.779,4.779,0,0,1-.8-.077l.063.693A10.486,10.486,0,0,0-6.724.343c.462,0,.658-.217.658-.6V-3.584H-4.3c.175,0,.413,0,.616.014V-4.3a4.657,4.657,0,0,1-.623.042H-6.066V-4.9A3.76,3.76,0,0,1-6.01-5.453ZM-7.6-2.541l-.623-.3a7.266,7.266,0,0,1-1.323,1.82l.6.413A10.459,10.459,0,0,0-7.6-2.541Zm2.961-.308-.6.329A12.121,12.121,0,0,1-4.078-.651l.644-.364A15.042,15.042,0,0,0-4.638-2.849Zm2.408-.273v.868c.238-.021.658-.035,1.043-.035H2.621c.308,0,.63.028.784.035v-.868c-.175.014-.448.042-.784.042H-1.187C-1.565-3.08-2-3.108-2.23-3.122ZM6.38-.644a7.328,7.328,0,0,1-.056.9h.861a8.2,8.2,0,0,1-.056-.9V-2.807A18.329,18.329,0,0,1,9.775-1.715l.315-.763A23.728,23.728,0,0,0,7.129-3.6V-4.69c0-.245.028-.553.049-.784H6.317a5.067,5.067,0,0,1,.063.784ZM16.551-4.781h1.316V-5.936H15.291v4.627h1.26Zm-1-.9h2.058v.63H16.285v3.479H15.55ZM18.77,0h.812V-1.953h.777c1.12,0,1.939-.518,1.939-1.645,0-1.162-.819-1.561-1.967-1.561H18.77Zm.812-2.6V-4.5h.672c.819,0,1.246.224,1.246.9s-.392.994-1.218.994ZM23.229,0h.805V-2.4c.238-.609.616-.826.931-.826a1.139,1.139,0,0,1,.385.063l.147-.7a.958.958,0,0,0-.434-.084,1.331,1.331,0,0,0-1.092.791H23.95l-.063-.693h-.658Zm4.389.091a2.336,2.336,0,0,0,1.3-.406l-.28-.511a1.635,1.635,0,0,1-.917.287,1.163,1.163,0,0,1-1.19-1.176h2.5a2.087,2.087,0,0,0,.042-.413c0-1.085-.553-1.82-1.575-1.82a1.871,1.871,0,0,0-1.757,2.023A1.852,1.852,0,0,0,27.618.091ZM26.526-2.275a1.042,1.042,0,0,1,.987-1.043c.56,0,.861.385.861,1.043ZM29.97,0h.805V-2.73a1.274,1.274,0,0,1,.861-.525c.441,0,.644.266.644.931V0h.805V-2.73a1.285,1.285,0,0,1,.868-.525c.434,0,.644.266.644.931V0H35.4V-2.422c0-.98-.378-1.526-1.183-1.526a1.774,1.774,0,0,0-1.253.707A1.028,1.028,0,0,0,31.9-3.948a1.677,1.677,0,0,0-1.19.637h-.021l-.063-.539H29.97Zm6.594,0h.805V-3.85h-.805Zm.4-4.571a.469.469,0,0,0,.5-.483.467.467,0,0,0-.5-.476.461.461,0,0,0-.5.476A.463.463,0,0,0,36.964-4.571ZM39.708.091a1.612,1.612,0,0,0,1.253-.672h.021L41.045,0H41.7V-3.85H40.9v2.674c-.322.406-.567.574-.924.574-.455,0-.644-.266-.644-.924V-3.85h-.805v2.422C38.525-.448,38.882.091,39.708.091ZM42.914,0h.805V-2.73a1.274,1.274,0,0,1,.861-.525c.441,0,.644.266.644.931V0h.805V-2.73a1.285,1.285,0,0,1,.868-.525c.434,0,.644.266.644.931V0h.805V-2.422c0-.98-.378-1.526-1.183-1.526a1.774,1.774,0,0,0-1.253.707,1.028,1.028,0,0,0-1.064-.707,1.677,1.677,0,0,0-1.19.637h-.021l-.063-.539h-.658Zm7.525-.539H49.123V.616H51.7V-4.011h-1.26Zm1,.9H49.382v-.63H50.7V-3.752h.735Z" transform="translate(398.829 2826.5)" fill="#f5f5f5"/>
    <g id="グループ_4340" data-name="グループ 4340" transform="translate(219 2757)">
      <g id="パス_8747" data-name="パス 8747" fill="#d53434">
        <path d="M 14 27.5 C 10.39402008056641 27.5 7.003870010375977 26.09576034545898 4.454060077667236 23.54594039916992 C 1.904240012168884 20.99612998962402 0.5 17.60597991943359 0.5 14 C 0.5 10.39402008056641 1.904240012168884 7.003870010375977 4.454060077667236 4.454060077667236 C 7.003870010375977 1.904240012168884 10.39402008056641 0.5 14 0.5 C 17.60597991943359 0.5 20.99612998962402 1.904240012168884 23.54594039916992 4.454060077667236 C 26.09576034545898 7.003870010375977 27.5 10.39402008056641 27.5 14 C 27.5 17.60597991943359 26.09576034545898 20.99612998962402 23.54594039916992 23.54594039916992 C 20.99612998962402 26.09576034545898 17.60597991943359 27.5 14 27.5 Z" stroke="none"/>
        <path d="M 14 1 C 10.5275707244873 1 7.262990951538086 2.352239608764648 4.807609558105469 4.807609558105469 C 2.352239608764648 7.262990951538086 1 10.5275707244873 1 14 C 1 17.47241973876953 2.352239608764648 20.73701095581055 4.807609558105469 23.19239044189453 C 7.262990951538086 25.64776039123535 10.5275707244873 27 14 27 C 17.47241973876953 27 20.73701095581055 25.64776039123535 23.19239044189453 23.19239044189453 C 25.64776039123535 20.73701095581055 27 17.47241973876953 27 14 C 27 10.5275707244873 25.64776039123535 7.262990951538086 23.19239044189453 4.807609558105469 C 20.73701095581055 2.352239608764648 17.47241973876953 1 14 1 M 14 0 C 21.73197937011719 0 28 6.268009185791016 28 14 C 28 21.73197937011719 21.73197937011719 28 14 28 C 6.268009185791016 28 0 21.73197937011719 0 14 C 0 6.268009185791016 6.268009185791016 0 14 0 Z" stroke="none" fill="#fff"/>
      </g>
      <path id="パス_8748" data-name="パス 8748" d="M-3.976-5.818h-.869v4.273H-4.9l-2.96-4.273h-.812V0h.878V-4.267h.054L-4.783,0h.807ZM-2.7,0H.984V-.756h-2.8V-2.537H.76V-3.29H-1.82V-5.062H.95v-.756H-2.7ZM3.266,0h.886L5.376-4.358h.045L6.646,0H7.53L9.146-5.818H8.22L7.089-1.31H7.035L5.856-5.818H4.942L3.763-1.312H3.709L2.575-5.818H1.652Z" transform="translate(14 17)" fill="#fff"/>
    </g>
    <g id="グループ_4489" data-name="グループ 4489" transform="translate(0 -2)">
      <g id="合体_41" data-name="合体 41" transform="translate(294.333 2841)" fill="#fff">
        <path d="M 40.66740036010742 49.4995002746582 L 5.667300701141357 49.4995002746582 C 2.63442063331604 49.4995002746582 0.1670006364583969 47.03247833251953 0.1670006364583969 44.00009918212891 L 0.1670006364583969 12.99960041046143 C 0.1670006364583969 9.966720581054688 2.63442063331604 7.499300003051758 5.667300701141357 7.499300003051758 L 19.77849006652832 7.499300003051758 L 20.07268142700195 7.499300003051758 L 20.21556091308594 7.242140293121338 L 23.66726303100586 1.029572248458862 L 27.11832046508789 7.242100238800049 L 27.26119041442871 7.499300003051758 L 27.55541038513184 7.499300003051758 L 40.66740036010742 7.499300003051758 C 43.69977951049805 7.499300003051758 46.16680145263672 9.966720581054688 46.16680145263672 12.99960041046143 L 46.16680145263672 44.00009918212891 C 46.16680145263672 47.03247833251953 43.69977951049805 49.4995002746582 40.66740036010742 49.4995002746582 Z" stroke="none"/>
        <path d="M 40.66740036010742 48.9995002746582 C 43.42407989501953 48.9995002746582 45.66680145263672 46.75677871704102 45.66680145263672 44.00009918212891 L 45.66680145263672 12.99960041046143 C 45.66680145263672 10.24242973327637 43.42407989501953 7.999300003051758 40.66740036010742 7.999300003051758 L 26.96697998046875 7.999300003051758 L 23.6672191619873 2.059144258499146 L 20.36687088012695 7.999300003051758 L 5.667300701141357 7.999300003051758 C 2.910130739212036 7.999300003051758 0.6670006513595581 10.24242973327637 0.6670006513595581 12.99960041046143 L 0.6670006513595581 44.00009918212891 C 0.6670006513595581 46.75677871704102 2.910130739212036 48.9995002746582 5.667300701141357 48.9995002746582 L 40.66740036010742 48.9995002746582 M 40.66740036010742 49.9995002746582 L 5.667300701141357 49.9995002746582 C 2.353500604629517 49.9995002746582 -0.3329993784427643 47.3129997253418 -0.3329993784427643 44.00009918212891 L -0.3329993784427643 12.99960041046143 C -0.3329993784427643 9.685800552368164 2.353500604629517 6.999300003051758 5.667300701141357 6.999300003051758 L 19.77849006652832 6.999300003051758 L 23.66730117797852 1.373290956507844e-07 L 27.55541038513184 6.999300003051758 L 40.66740036010742 6.999300003051758 C 43.98030090332031 6.999300003051758 46.66680145263672 9.685800552368164 46.66680145263672 12.99960041046143 L 46.66680145263672 44.00009918212891 C 46.66680145263672 47.3129997253418 43.98030090332031 49.9995002746582 40.66740036010742 49.9995002746582 Z" stroke="none" fill="#e66084"/>
      </g>
      <path id="パス_8635" data-name="パス 8635" d="M113.372,82.007h-15.3a1.35,1.35,0,0,0-1.35,1.351v9a1.35,1.35,0,0,0,1.35,1.35h6.75v.9h-4.95a.45.45,0,0,0-.45.449v.9a.45.45,0,0,0,.45.45h11.7a.45.45,0,0,0,.449-.45v-.9a.45.45,0,0,0-.449-.449h-4.95v-.9h6.75a1.35,1.35,0,0,0,1.35-1.35v-9a1.35,1.35,0,0,0-1.35-1.351M113.2,92.219H98.245V83.5H113.2Z" transform="translate(211.278 2771.993)" fill="#e66084"/>
      <path id="パス_8749" data-name="パス 8749" d="M-12.684-3.984a5.748,5.748,0,0,0-.93-.96l-.414.264a5.743,5.743,0,0,1,.9.99Zm-3.8-1a6.59,6.59,0,0,1-1.692,2.388,3.248,3.248,0,0,1,.318.558,6.09,6.09,0,0,0,.72-.786V.462h.576v-4.1a8.939,8.939,0,0,0,.606-1.164Zm3.9,2.022-.072-.522-1.758.222c-.048-.516-.078-1.086-.1-1.686h-.564q.036.945.108,1.764l-1.344.168.084.528,1.314-.168c.228,1.842.7,3.03,1.7,3.114.318.018.594-.276.732-1.362a1.712,1.712,0,0,1-.462-.306c-.054.678-.144,1.008-.294,1-.57-.066-.93-1.056-1.122-2.526Zm3.162.408c-.2-.174-.57-.444-.882-.654h.936v-.45h-.888a2.885,2.885,0,0,0,.036-.444h.756v-.438h-.756v-.5h-.534v.5h-.882V-4.1h.882a2.328,2.328,0,0,1-.036.444H-11.82v.45h.906a2.014,2.014,0,0,1-1.014.984,1.677,1.677,0,0,1,.366.378,2.564,2.564,0,0,0,1.014-.948c.282.21.594.45.768.606Zm1.59,1.422h-2.724V-1.6H-7.83Zm-2.724.918v-.5H-7.83v.5ZM-6.534-3.2v-.45H-7.686a2.243,2.243,0,0,0,.03-.4V-4.1h.93v-.438h-.93v-.5H-8.19v.5h-.858V-4.1h.858v.042a2.4,2.4,0,0,1-.03.4h-.936v.45h.78a1.809,1.809,0,0,1-.972.786,2.2,2.2,0,0,1,.324.342H-11.1V.468h.546v-.2H-7.83v.18h.564v-2.52H-8.9A2.144,2.144,0,0,0-7.89-3.018,2.527,2.527,0,0,0-6.744-1.9,1.958,1.958,0,0,1-6.39-2.31,2.218,2.218,0,0,1-7.464-3.2Zm2.5.4.078.426c.354-.03.744-.072,1.158-.12a1.474,1.474,0,0,1,.042.2l.348-.144a3.13,3.13,0,0,0-.306-.876l-.324.114c.042.1.09.216.126.33l-.462.03c.294-.4.618-.906.876-1.338l-.4-.186c-.09.192-.21.414-.342.642-.06-.066-.132-.144-.21-.216.15-.24.324-.576.486-.87l-.426-.168a8.657,8.657,0,0,1-.336.81c-.042-.036-.078-.066-.12-.1l-.222.306a4.151,4.151,0,0,1,.618.588c-.132.2-.258.4-.384.558Zm2.1-.078.084.414.54-.06L-1.56-2.3a3.13,3.13,0,0,1,.4.294h-.678a16.053,16.053,0,0,1-.156-1.938,4.36,4.36,0,0,1,.582.564c-.114.174-.228.342-.336.48Zm.78,1.374a2.855,2.855,0,0,1-.42.66,5.46,5.46,0,0,1-.186-.708H-.342V-2h-.48l.126-.12a2.858,2.858,0,0,0-.558-.408c.192-.024.4-.042.606-.066a2.334,2.334,0,0,1,.06.24l.342-.156A3.127,3.127,0,0,0-.588-3.39l-.324.132c.048.09.09.192.132.294l-.51.036c.276-.372.582-.852.828-1.26l-.4-.186c-.09.192-.21.414-.342.642a2.335,2.335,0,0,0-.21-.222c.144-.24.324-.576.492-.87l-.432-.162a6.385,6.385,0,0,1-.336.8c-.042-.03-.078-.06-.12-.09L-2-4.008C-2-4.338-2.01-4.68-2-5.028H-2.5A22.834,22.834,0,0,0-2.316-2h-1.6c-.12-.21-.468-.78-.618-1v-.258h.594v-.51H-4.53V-5.034h-.5v1.266h-.708v.51h.66A7.038,7.038,0,0,1-5.868-1.11a3.151,3.151,0,0,1,.258.468,6.012,6.012,0,0,0,.576-1.416V.468h.5V-2.364c.144.282.294.606.366.792l.2-.288v.3h.4A2.1,2.1,0,0,1-4.308.1a1.281,1.281,0,0,1,.33.366A2.1,2.1,0,0,0-3.192-.786a5.431,5.431,0,0,1,.57.468L-2.328-.7A5.686,5.686,0,0,0-3.1-1.266c.012-.1.024-.192.036-.294h.816a5.433,5.433,0,0,0,.3,1.068,3.659,3.659,0,0,1-1.074.6,2.328,2.328,0,0,1,.3.36A4.417,4.417,0,0,0-1.74-.078,1,1,0,0,0-.894.48c.42,0,.576-.192.66-.864A1.292,1.292,0,0,1-.606-.63c-.03.5-.09.636-.252.636-.192,0-.366-.138-.516-.4a3.263,3.263,0,0,0,.69-.948Zm6.708-.594A2.221,2.221,0,0,0,3.2-4.368a2.6,2.6,0,0,0-2.682,2.5c0,1,.546,1.662,1.14,1.662s1.092-.678,1.452-1.9A11.947,11.947,0,0,0,3.474-3.8,1.6,1.6,0,0,1,4.926-2.124,1.726,1.726,0,0,1,3.474-.42a3.708,3.708,0,0,1-.534.084l.354.564A2.309,2.309,0,0,0,5.556-2.106Zm-4.428.174a2.006,2.006,0,0,1,1.71-1.854,9.552,9.552,0,0,1-.33,1.548C2.232-1.314,1.95-.924,1.68-.924S1.128-1.242,1.128-1.932Zm9.846-2.106H9.15v-.39h1.824Zm0,.774H9.15v-.4h1.824Zm.534-1.578H8.64V-2.85h2.868ZM8.292-1.956l-.078-.5-.576.168V-3.348h.636v-.516H7.638V-5.022h-.51v1.158h-.7v.516h.7v1.206c-.282.078-.546.15-.756.2L6.5-1.4l.63-.192V-.2c0,.084-.03.108-.1.108S6.738-.09,6.5-.1a1.781,1.781,0,0,1,.15.516,1.7,1.7,0,0,0,.78-.108c.156-.084.21-.234.21-.51V-1.752Zm2.028,1h1.2V-1.4h-1.2v-.624h1.506v-.456H8.358v.456H9.8V-.276A1.359,1.359,0,0,1,9.126-1.1a6.215,6.215,0,0,0,.114-.63l-.5-.06A2.761,2.761,0,0,1,7.866.138,2.59,2.59,0,0,1,8.28.474,2.6,2.6,0,0,0,8.958-.552,1.751,1.751,0,0,0,10.806.39h1.032A1.744,1.744,0,0,1,11.994-.1c-.228.006-1,.006-1.17.006a3.448,3.448,0,0,1-.5-.03Zm3.546-4.062a6.613,6.613,0,0,1-1.422,2.31,4.043,4.043,0,0,1,.306.57,6.553,6.553,0,0,0,.5-.606V.468h.546V-3.606a9.122,9.122,0,0,0,.594-1.248Zm1.326,3.93A3.879,3.879,0,0,1,14.112.1a3.707,3.707,0,0,1,.444.354A5.281,5.281,0,0,0,15.72-.924Zm1.326.258A6.843,6.843,0,0,1,17.532.474L18,.174A7.324,7.324,0,0,0,16.968-1.08ZM15.6-3.276h1.032v1.35H15.6Zm1.578,1.35v-1.35h.816V-3.81h-.816V-4.986h-.546V-3.81H15.6V-4.974h-.546V-3.81h-.72v.534h.72v1.35H14.19v.546h3.864v-.546Z" transform="translate(317 2882)" fill="#363636"/>
      <g id="合体_41-2" data-name="合体 41" transform="translate(348.333 2841)" fill="#fff">
        <path d="M 40.66740036010742 49.4995002746582 L 5.667300701141357 49.4995002746582 C 2.63442063331604 49.4995002746582 0.1670006364583969 47.03247833251953 0.1670006364583969 44.00009918212891 L 0.1670006364583969 12.99960041046143 C 0.1670006364583969 9.966720581054688 2.63442063331604 7.499300003051758 5.667300701141357 7.499300003051758 L 18.77859115600586 7.499300003051758 L 19.07278060913086 7.499300003051758 L 19.21566009521484 7.242140293121338 L 22.66736221313477 1.029572248458862 L 26.11842155456543 7.242100238800049 L 26.26129150390625 7.499300003051758 L 26.55551147460938 7.499300003051758 L 40.66740036010742 7.499300003051758 C 43.69977951049805 7.499300003051758 46.16680145263672 9.966720581054688 46.16680145263672 12.99960041046143 L 46.16680145263672 44.00009918212891 C 46.16680145263672 47.03247833251953 43.69977951049805 49.4995002746582 40.66740036010742 49.4995002746582 Z" stroke="none"/>
        <path d="M 40.66740036010742 48.9995002746582 C 43.42407989501953 48.9995002746582 45.66680145263672 46.75677871704102 45.66680145263672 44.00009918212891 L 45.66680145263672 12.99960041046143 C 45.66680145263672 10.24242973327637 43.42407989501953 7.999300003051758 40.66740036010742 7.999300003051758 L 25.96708106994629 7.999300003051758 L 22.66731834411621 2.059144258499146 L 19.36697006225586 7.999300003051758 L 5.667300701141357 7.999300003051758 C 2.910130739212036 7.999300003051758 0.6670006513595581 10.24242973327637 0.6670006513595581 12.99960041046143 L 0.6670006513595581 44.00009918212891 C 0.6670006513595581 46.75677871704102 2.910130739212036 48.9995002746582 5.667300701141357 48.9995002746582 L 40.66740036010742 48.9995002746582 M 40.66740036010742 49.9995002746582 L 5.667300701141357 49.9995002746582 C 2.353500604629517 49.9995002746582 -0.3329993784427643 47.3129997253418 -0.3329993784427643 44.00009918212891 L -0.3329993784427643 12.99960041046143 C -0.3329993784427643 9.685800552368164 2.353500604629517 6.999300003051758 5.667300701141357 6.999300003051758 L 18.77859115600586 6.999300003051758 L 22.66740036010742 1.373290956507844e-07 L 26.55551147460938 6.999300003051758 L 40.66740036010742 6.999300003051758 C 43.981201171875 6.999300003051758 46.66680145263672 9.685800552368164 46.66680145263672 12.99960041046143 L 46.66680145263672 44.00009918212891 C 46.66680145263672 47.3129997253418 43.981201171875 49.9995002746582 40.66740036010742 49.9995002746582 Z" stroke="none" fill="#e66084"/>
      </g>
      <g id="合体_52" data-name="合体 52" transform="translate(402.333 2841)" fill="#fff">
        <path d="M 40.66740036010742 49.4995002746582 L 5.667300701141357 49.4995002746582 C 2.63442063331604 49.4995002746582 0.1670006364583969 47.03247833251953 0.1670006364583969 44.00009918212891 L 0.1670006364583969 12.99960041046143 C 0.1670006364583969 9.966720581054688 2.63442063331604 7.499300003051758 5.667300701141357 7.499300003051758 L 18.77859115600586 7.499300003051758 L 19.07278060913086 7.499300003051758 L 19.21566009521484 7.242140293121338 L 22.66736221313477 1.029572248458862 L 26.11842155456543 7.242100238800049 L 26.26129150390625 7.499300003051758 L 26.55551147460938 7.499300003051758 L 40.66740036010742 7.499300003051758 C 43.69977951049805 7.499300003051758 46.16680145263672 9.966720581054688 46.16680145263672 12.99960041046143 L 46.16680145263672 44.00009918212891 C 46.16680145263672 47.03247833251953 43.69977951049805 49.4995002746582 40.66740036010742 49.4995002746582 Z" stroke="none"/>
        <path d="M 40.66740036010742 48.9995002746582 C 43.42407989501953 48.9995002746582 45.66680145263672 46.75677871704102 45.66680145263672 44.00009918212891 L 45.66680145263672 12.99960041046143 C 45.66680145263672 10.24242973327637 43.42407989501953 7.999300003051758 40.66740036010742 7.999300003051758 L 25.96708106994629 7.999300003051758 L 22.66731834411621 2.059144258499146 L 19.36697006225586 7.999300003051758 L 5.667300701141357 7.999300003051758 C 2.910130739212036 7.999300003051758 0.6670006513595581 10.24242973327637 0.6670006513595581 12.99960041046143 L 0.6670006513595581 44.00009918212891 C 0.6670006513595581 46.75677871704102 2.910130739212036 48.9995002746582 5.667300701141357 48.9995002746582 L 40.66740036010742 48.9995002746582 M 40.66740036010742 49.9995002746582 L 5.667300701141357 49.9995002746582 C 2.353500604629517 49.9995002746582 -0.3329993784427643 47.3129997253418 -0.3329993784427643 44.00009918212891 L -0.3329993784427643 12.99960041046143 C -0.3329993784427643 9.685800552368164 2.353500604629517 6.999300003051758 5.667300701141357 6.999300003051758 L 18.77859115600586 6.999300003051758 L 22.66740036010742 1.373290956507844e-07 L 26.55551147460938 6.999300003051758 L 40.66740036010742 6.999300003051758 C 43.981201171875 6.999300003051758 46.66680145263672 9.685800552368164 46.66680145263672 12.99960041046143 L 46.66680145263672 44.00009918212891 C 46.66680145263672 47.3129997253418 43.981201171875 49.9995002746582 40.66740036010742 49.9995002746582 Z" stroke="none" fill="#e66084"/>
      </g>
      <g id="合体_53" data-name="合体 53" transform="translate(455.333 2841)" fill="#fff">
        <path d="M 40.66740036010742 49.4995002746582 L 5.667300701141357 49.4995002746582 C 2.63442063331604 49.4995002746582 0.1670006364583969 47.03247833251953 0.1670006364583969 44.00009918212891 L 0.1670006364583969 12.99960041046143 C 0.1670006364583969 9.966720581054688 2.63442063331604 7.499300003051758 5.667300701141357 7.499300003051758 L 18.77859115600586 7.499300003051758 L 19.07278060913086 7.499300003051758 L 19.21566009521484 7.242140293121338 L 22.66736221313477 1.029572248458862 L 26.11842155456543 7.242100238800049 L 26.26129150390625 7.499300003051758 L 26.55551147460938 7.499300003051758 L 40.66740036010742 7.499300003051758 C 43.69977951049805 7.499300003051758 46.16680145263672 9.966720581054688 46.16680145263672 12.99960041046143 L 46.16680145263672 44.00009918212891 C 46.16680145263672 47.03247833251953 43.69977951049805 49.4995002746582 40.66740036010742 49.4995002746582 Z" stroke="none"/>
        <path d="M 40.66740036010742 48.9995002746582 C 43.42407989501953 48.9995002746582 45.66680145263672 46.75677871704102 45.66680145263672 44.00009918212891 L 45.66680145263672 12.99960041046143 C 45.66680145263672 10.24242973327637 43.42407989501953 7.999300003051758 40.66740036010742 7.999300003051758 L 25.96708106994629 7.999300003051758 L 22.66731834411621 2.059144258499146 L 19.36697006225586 7.999300003051758 L 5.667300701141357 7.999300003051758 C 2.910130739212036 7.999300003051758 0.6670006513595581 10.24242973327637 0.6670006513595581 12.99960041046143 L 0.6670006513595581 44.00009918212891 C 0.6670006513595581 46.75677871704102 2.910130739212036 48.9995002746582 5.667300701141357 48.9995002746582 L 40.66740036010742 48.9995002746582 M 40.66740036010742 49.9995002746582 L 5.667300701141357 49.9995002746582 C 2.353500604629517 49.9995002746582 -0.3329993784427643 47.3129997253418 -0.3329993784427643 44.00009918212891 L -0.3329993784427643 12.99960041046143 C -0.3329993784427643 9.685800552368164 2.353500604629517 6.999300003051758 5.667300701141357 6.999300003051758 L 18.77859115600586 6.999300003051758 L 22.66740036010742 1.373290956507844e-07 L 26.55551147460938 6.999300003051758 L 40.66740036010742 6.999300003051758 C 43.981201171875 6.999300003051758 46.66680145263672 9.685800552368164 46.66680145263672 12.99960041046143 L 46.66680145263672 44.00009918212891 C 46.66680145263672 47.3129997253418 43.981201171875 49.9995002746582 40.66740036010742 49.9995002746582 Z" stroke="none" fill="#e66084"/>
      </g>
      <path id="パス_8750" data-name="パス 8750" d="M-6.912-2.832l-.1.036h-1.1L-8-2.982c-.156-.078-.36-.168-.588-.27A9.4,9.4,0,0,0-7.11-4.428l-.408-.312-.12.03H-11.28v.516h3.1a6.294,6.294,0,0,1-.972.708c-.354-.15-.714-.288-1.014-.408l-.288.42c.468.186,1.062.45,1.548.678h-2.934v.534h2.412V-.186c0,.09-.03.114-.144.12s-.534.006-.924-.012a2.716,2.716,0,0,1,.21.54A3.885,3.885,0,0,0-9.168.372c.24-.078.318-.234.318-.546V-2.262h1.494a5.918,5.918,0,0,1-.588.846l.468.282a8.3,8.3,0,0,0,1.02-1.5Zm2.16.864h.936v.516h-.936Zm.936-1.824v.45h-.936v-.45Zm-.936.888h.936v.5h-.936Zm1.86,1.452H-3.3v-2.34h.432v-.486H-3.3v-.69h-.516v.69h-.936v-.69h-.5v.69h-.486v.486h.486v2.34h-.558v.486h2.922ZM-5.028-.87a2.963,2.963,0,0,1-.8,1.02,2.845,2.845,0,0,1,.444.33A4.2,4.2,0,0,0-4.5-.726Zm.864.216A6.208,6.208,0,0,1-3.54.258l.45-.27a5.729,5.729,0,0,0-.648-.876Zm2.058-1.374c.012-.192.012-.384.012-.558V-2.9h1.056v.876Zm1.068-2.214V-3.4H-2.094v-.846Zm.54-.5H-2.622v2.16A5.562,5.562,0,0,1-3.138.174,1.961,1.961,0,0,1-2.694.5a4.77,4.77,0,0,0,.552-2.022h1.1V-.192c0,.1-.036.12-.126.126s-.378.006-.66-.006a1.914,1.914,0,0,1,.162.528A2.084,2.084,0,0,0-.75.354C-.564.27-.5.108-.5-.186Zm5.064.084H3.924a3.964,3.964,0,0,1,.042.492v.78c-.6.054-1.254.114-1.806.168.006-.288.006-.54.006-.708a4.74,4.74,0,0,1,.03-.546H1.53a3.564,3.564,0,0,1,.042.576v.732L.99-3.114c-.252.024-.5.036-.678.036l.066.612c.156-.024.468-.066.654-.09.132-.018.318-.036.54-.06,0,.576,0,1.194.006,1.452C1.6-.174,1.758.15,3.216.15A16.889,16.889,0,0,0,4.95.048l.018-.642a11.2,11.2,0,0,1-1.788.15c-.978,0-1-.192-1.02-.81-.012-.246-.006-.84,0-1.428.558-.06,1.212-.12,1.794-.168a8.55,8.55,0,0,1-.06.87c-.012.132-.072.156-.21.156A3.5,3.5,0,0,1,3.108-1.9L3.1-1.38a7.067,7.067,0,0,0,.84.09c.288,0,.426-.078.486-.366a9.139,9.139,0,0,0,.09-1.236c.222-.012.42-.024.576-.024s.42-.012.522-.006V-3.51c-.156.012-.36.03-.516.036s-.366.024-.57.042c.006-.24.006-.5.012-.756A3.566,3.566,0,0,1,4.566-4.662ZM9.594-.744c0-.18.168-.348.474-.348a1.312,1.312,0,0,1,.654.186.773.773,0,0,1-.69.51C9.756-.4,9.594-.534,9.594-.744ZM9.78-4.716l-.66-.018a3.476,3.476,0,0,1,.012.516c-.006.1-.018.222-.03.348a3,3,0,0,0-1.362.618,7.217,7.217,0,0,1-.276-.96l-.558.234c.12.288.162.444.234.66.048.144.108.306.168.474q-.117.135-.216.27A2.648,2.648,0,0,0,6.57-.99c0,.63.372.984.828.984.8,0,1.548-1.074,1.914-2.16A7.643,7.643,0,0,0,9.606-3.42h.03A1.226,1.226,0,0,1,10.95-2.094a3.531,3.531,0,0,1-.072.72,2.071,2.071,0,0,0-.834-.174.917.917,0,0,0-.966.858c0,.516.384.822.972.822A1.252,1.252,0,0,0,11.2-.546a5.462,5.462,0,0,1,.462.51l.36-.462a3.562,3.562,0,0,0-.612-.57,4.048,4.048,0,0,0,.126-1.044A1.752,1.752,0,0,0,9.678-3.924c.012-.1.024-.2.036-.288C9.726-4.326,9.75-4.542,9.78-4.716ZM7.116-1.086A2.22,2.22,0,0,1,7.53-2.268c.078.186.15.354.222.5a5.266,5.266,0,0,0,.378.654,1.077,1.077,0,0,1-.7.5C7.254-.618,7.116-.822,7.116-1.086ZM8.142-2.25c-.066-.132-.138-.3-.21-.486a2.361,2.361,0,0,1,1.092-.612,6.5,6.5,0,0,1-.246,1.02,4.157,4.157,0,0,1-.306.684A5.618,5.618,0,0,1,8.142-2.25ZM-14.64,4.58h1.122a5.972,5.972,0,0,1-.552,1.812,6.669,6.669,0,0,1-.576-1.8Zm-1.5,2.73h-1.134V6.152h1.134Zm3.6-2.73V4.052h-1.926a8.62,8.62,0,0,0,.24-1l-.564-.09a5.372,5.372,0,0,1-1.026,2.562,1.331,1.331,0,0,1,.144.1h-.744V4.616h1.02V4.1h-1.02V2.972h-.558V4.1h-1.068v.516h1.068V5.63h-.816V8.216h.516V7.832h1.668V5.678c.1.084.2.162.258.222A3.567,3.567,0,0,0-15,5.366a7.026,7.026,0,0,0,.588,1.56,3.5,3.5,0,0,1-1.476,1.056,2.118,2.118,0,0,1,.318.5,4.159,4.159,0,0,0,1.464-1.062,3.348,3.348,0,0,0,1.23,1.062,2.02,2.02,0,0,1,.384-.486,2.926,2.926,0,0,1-1.26-1.062A6.528,6.528,0,0,0-12.96,4.58Zm3.84-.288a2.338,2.338,0,0,0-.162-.474H-7.7c-.06.156-.144.336-.2.474Zm-.666-.462a2.643,2.643,0,0,1,.162.462h-.858v.45h3.606v-.45H-7.38c.072-.132.15-.3.246-.468l-.03-.006h.582V3.374H-8.01V2.966h-.54v.408h-1.3v.444h.546Zm-.918-.63-.084.018h-1.32V8.474h.492V3.722h.642c-.114.408-.27.942-.42,1.344a1.646,1.646,0,0,1,.486,1.122c0,.174-.024.318-.108.378a.323.323,0,0,1-.186.054,1.808,1.808,0,0,1-.306-.006,1.09,1.09,0,0,1,.132.48,2.845,2.845,0,0,0,.4-.006.808.808,0,0,0,.324-.12.831.831,0,0,0,.246-.714,1.816,1.816,0,0,0-.5-1.248c.192-.468.4-1.092.57-1.6ZM-9.2,6.056h1.866v.33H-9.2Zm0-.666h1.866v.33H-9.2Zm2.766,1.734H-8.01V6.746h1.2V5.03H-9.7V6.746H-8.55v.378h-1.566v.45H-8.55v.894h.54V7.574h1.578Zm3.084-3.24.006.612a15.292,15.292,0,0,0,2.514,0V3.884A11.057,11.057,0,0,1-3.348,3.884Zm.342,2.5-.54-.048a3.039,3.039,0,0,0-.1.738c0,.582.468.936,1.488.936a8.232,8.232,0,0,0,1.518-.12l-.012-.642a6.443,6.443,0,0,1-1.494.162c-.726,0-.936-.222-.936-.492A2.084,2.084,0,0,1-3.006,6.38ZM-4.392,3.452l-.666-.06a4.361,4.361,0,0,1-.054.5A17.315,17.315,0,0,0-5.37,6.284a7.624,7.624,0,0,0,.222,1.938l.546-.036c-.006-.072-.012-.162-.012-.222a1.173,1.173,0,0,1,.03-.276c.06-.3.27-.942.426-1.4l-.3-.24c-.1.222-.216.516-.318.762a5.92,5.92,0,0,1-.036-.642,14.389,14.389,0,0,1,.294-2.262A4.3,4.3,0,0,1-4.392,3.452Zm7.176-.21-.672-.036a2.541,2.541,0,0,1-.006.474c-.012.156-.03.348-.06.564A5.838,5.838,0,0,1,.768,4.016l-.03.552a7.619,7.619,0,0,0,1.248.21c-.042.318-.084.654-.126.972A5.075,5.075,0,0,1,.63,5.51L.6,6.086a6.56,6.56,0,0,0,1.2.2c-.024.27-.042.5-.042.654,0,1,.666,1.374,1.536,1.374,1.242,0,2.046-.588,2.046-1.488a2.092,2.092,0,0,0-.6-1.41l-.666.138a1.646,1.646,0,0,1,.636,1.2c0,.564-.528.954-1.4.954-.642,0-.96-.318-.96-.864,0-.126.012-.312.03-.522H2.6c.39,0,.756-.024,1.122-.06L3.744,5.7a9.582,9.582,0,0,1-1.23.072H2.43c.036-.312.078-.654.12-.966h.012a11.54,11.54,0,0,0,1.206-.06l.018-.564a8.016,8.016,0,0,1-1.164.078c.03-.228.054-.414.072-.546S2.742,3.428,2.784,3.242Zm5.49,1.326a8.032,8.032,0,0,1-.33,1.392c-.288-.348-.588-.7-.876-1l-.39.318A15.593,15.593,0,0,1,7.7,6.53,3.492,3.492,0,0,1,6.372,7.994a3.093,3.093,0,0,1,.378.432,4.058,4.058,0,0,0,1.3-1.41,6.061,6.061,0,0,1,.468.81l.45-.378a7.334,7.334,0,0,0-.642-1,8.134,8.134,0,0,0,.5-1.806Zm3.648-.222h-.678V2.966h-.552v1.38H9.306V3.92H8.148V2.972h-.54V3.92H6.516v.516h2.6v.45h1.572V7.748c0,.1-.042.132-.144.132s-.426.006-.786-.006a2.579,2.579,0,0,1,.18.594,2.834,2.834,0,0,0,1.032-.114c.192-.1.27-.264.27-.606V4.886h.678Zm-1.68,2.388a4.512,4.512,0,0,0-.654-1.29l-.456.216a5,5,0,0,1,.63,1.314Zm3.342-2.5h4.41V3.7H15.768V2.966h-.582V3.7h-2.16V5.222A6.243,6.243,0,0,1,12.5,8.15a2.844,2.844,0,0,1,.474.318,7.139,7.139,0,0,0,.612-3.246Zm3.126.99a7.467,7.467,0,0,0-1.41-.876l-.378.366a7.4,7.4,0,0,1,1.386.924Zm-2.676,2.7a5.2,5.2,0,0,0,.5-1.92l-.51-.114a4.534,4.534,0,0,1-.486,1.812Zm1.614-.072c-.2,0-.246-.036-.246-.246v-2.2h-.546v2.2c0,.57.144.75.708.75h.78c.528,0,.672-.276.726-1.272a1.756,1.756,0,0,1-.492-.228c-.03.846-.06,1-.276,1Zm1.134-1.908a6.615,6.615,0,0,1,.792,1.98L18.12,7.7a6.412,6.412,0,0,0-.846-1.95Z" transform="translate(371 2878)" fill="#363636"/>
      <path id="パス_8751" data-name="パス 8751" d="M-13.53-5A6.493,6.493,0,0,1-15.012-2.64a3.813,3.813,0,0,1,.336.57,5.468,5.468,0,0,0,.528-.618V.462h.564v-4.02a9.408,9.408,0,0,0,.606-1.266Zm4.02,1.272h-.714V-4.968H-10.8v1.242h-2.346v.558H-10.8V-.24c0,.132-.054.174-.192.18s-.642.012-1.128-.012A2.281,2.281,0,0,1-11.9.486a4.514,4.514,0,0,0,1.326-.1c.252-.084.354-.24.354-.63V-3.168h.714Zm-1.962,2.52c-.18-.36-.57-.966-.858-1.416l-.486.228a14.929,14.929,0,0,1,.822,1.47Zm7.128-3.138v.438h-3.4v-.438Zm.552.876V-4.782H-8.286v1.74a6.342,6.342,0,0,1-.63,3.2,1.717,1.717,0,0,1,.48.282,7.1,7.1,0,0,0,.7-3.486v-.426ZM-4.356.03a4.608,4.608,0,0,0-.438-.816l-.33.084c.042.072.09.15.132.228l-.426.018v-.4h1.206v.87c0,.06-.018.072-.084.078a1.588,1.588,0,0,1-.246,0ZM-6.834-1.86v-.36h.906v.36Zm2.346-.36v.36h-.93v-.36Zm.792.984H-5.418v-.288H-3.96V-2.556H-5.418v-.306a12.067,12.067,0,0,0,1.392-.18l-.318-.33a20.189,20.189,0,0,1-3.1.234,1.332,1.332,0,0,1,.108.354c.444,0,.93-.018,1.4-.042v.27h-1.4v1.032h1.4v.288H-7.566V.48h.5V-.858h1.134v.42c-.354.012-.678.024-.942.03L-6.828,0c.546-.03,1.29-.066,2.022-.114.036.078.066.138.09.2L-4.782.084a1.84,1.84,0,0,1,.138.384A2.227,2.227,0,0,0-3.894.4c.156-.066.2-.168.2-.39ZM1.128-3.27h-2.25v-.978h2.25ZM1.7-4.782H-1.656v2.046H1.7ZM-.882-1.62V-.372H-1.974V-1.62ZM-2.5.474h.528V.162H-.882v.27H-.33V-2.154H-2.5ZM.792-.372V-1.62H1.98V-.372ZM.258-2.154V.474H.792V.162H1.98V.444h.558v-2.6Zm4.47,1.5c0-.24.276-.438.786-.438a2.718,2.718,0,0,1,.546.054c.006.132.006.252.006.336,0,.384-.258.486-.594.486C4.956-.216,4.728-.4,4.728-.654ZM6.618-4.8H5.976a1.969,1.969,0,0,1,.03.378v.366H5.748a10.871,10.871,0,0,1-1.506-.132l.006.546c.39.048,1.11.108,1.506.108H6V-2.8H5.694A11.73,11.73,0,0,1,4.212-2.9l.006.564c.414.048,1.08.078,1.464.078h.33c.006.222.018.468.024.7-.144-.012-.288-.024-.444-.024-.894,0-1.428.39-1.428.966,0,.6.486.936,1.386.936.786,0,1.116-.414,1.116-.87,0-.084-.006-.186-.012-.312A4.613,4.613,0,0,1,8,.012l.348-.534A4.818,4.818,0,0,0,6.624-1.44c-.012-.27-.03-.558-.042-.834.576-.024,1.074-.066,1.626-.132l.006-.558c-.522.072-1.05.126-1.644.15v-.744c.582-.024,1.14-.078,1.584-.132v-.552a13.183,13.183,0,0,1-1.578.168c.006-.132.006-.246.012-.318C6.594-4.56,6.606-4.692,6.618-4.8Zm3.072.78.06.654c.672-.144,2.07-.288,2.676-.348a2.407,2.407,0,0,0-1.02,1.95c0,1.32,1.23,1.95,2.406,2.01L14.028-.4c-.99-.042-2.01-.408-2.01-1.5A1.989,1.989,0,0,1,13.344-3.7a5.782,5.782,0,0,1,1.17-.084v-.606c-.414.012-1.014.048-1.656.1-1.1.1-2.172.2-2.61.24C10.128-4.038,9.918-4.026,9.69-4.02Zm3.96.9-.36.156a5.674,5.674,0,0,1,.48.84l.372-.168A8.377,8.377,0,0,0,13.65-3.12Zm.666-.258-.36.162a5.631,5.631,0,0,1,.5.828l.366-.174A8.667,8.667,0,0,0,14.316-3.378ZM-4.44,2.984A6.411,6.411,0,0,1-5.9,5.282a3.3,3.3,0,0,1,.312.564,6.407,6.407,0,0,0,.558-.666V8.462h.528V4.37a10.811,10.811,0,0,0,.588-1.218Zm1.206.75h2.022V4.7H-3.234ZM-.342,6.356v-.5h-1.62V5.2H-.654V3.242h-3.1V5.2H-2.52v.654H-4.176v.5h1.362A4.4,4.4,0,0,1-4.368,7.784a2.46,2.46,0,0,1,.384.444A4.882,4.882,0,0,0-2.52,6.776v1.7h.558V6.746A5.15,5.15,0,0,0-.57,8.24,2.494,2.494,0,0,1-.18,7.8a4.46,4.46,0,0,1-1.482-1.44ZM2.274,3.164H.618V3.6H2.274ZM1.824,6.9v.864H1.05V6.9Zm.486-.45H.57V8.468h.48V8.21H2.31Zm-1.728-.4H2.274V5.624H.582ZM2.274,4.808H.582V5.24H2.274ZM.3,4.418H2.484V3.974H.3ZM4.578,7.742V5.906H5.694V5.378H4.578V3.83H5.73V3.3H2.676V3.83H4.032V7.742H3.426V4.832H2.91v2.91H2.49V8.27H5.832V7.742Z" transform="translate(425 2878)" fill="#363636"/>
      <path id="パス_8752" data-name="パス 8752" d="M-13.818-3.87h-1.248v-.522h1.248Zm.5-.93h-2.238v1.332h2.238ZM-16.29-2l-.084-.492-.486.162V-3.354h.528V-3.87h-.528V-5.034h-.522V-3.87h-.63v.516h.63v1.212q-.4.126-.7.216l.138.534c.174-.054.366-.126.564-.2V-.156c0,.072-.024.09-.09.09s-.222.006-.4,0a2.227,2.227,0,0,1,.144.5,1.309,1.309,0,0,0,.672-.108c.15-.078.2-.222.2-.48V-1.782Zm1.254-.258h-.654v-.576h.654Zm1.176-.576h.684v.576h-.684ZM-12.6-.99v-.456h-1.578v-.408h1.458V-3.228H-14.3v1.362h-.294V-3.228h-1.524v1.374h1.4v.408h-1.506V-.99h1.212a3.872,3.872,0,0,1-1.62.912,3.01,3.01,0,0,1,.354.432,4.193,4.193,0,0,0,1.56-.99V.48h.534V-.672a3.922,3.922,0,0,0,1.32.984A2.268,2.268,0,0,1-12.5-.12,3.6,3.6,0,0,1-13.9-.99Zm2.064-4.02a6.674,6.674,0,0,1-1.428,2.316,3.362,3.362,0,0,1,.312.576,5.423,5.423,0,0,0,.492-.588V.462h.564v-4.05A9.541,9.541,0,0,0-10-4.842Zm4.122,1.494V-4.05H-8.826c.114-.252.216-.516.312-.774l-.534-.144a6.375,6.375,0,0,1-1.3,2.28,3.359,3.359,0,0,1,.432.378A6.21,6.21,0,0,0-9.1-3.516h.336V.468h.57V-.924h1.716v-.522H-8.19v-.8h1.632v-.51H-8.19v-.762Zm2.22,2.76h-.7v-1.65h.7ZM-5.748-4.224h.7a5.4,5.4,0,0,1-.81,2.178,2.732,2.732,0,0,1,.222.63,3.573,3.573,0,0,0,.282-.414V.2h.468V-.264h1.176V-2.9H-4.872a10.128,10.128,0,0,0,.348-1.32h.9v-.5H-5.748Zm3.414,1.632V-4.2h.846v1.608Zm2.028,0H-.954V-4.2h.528v-.522H-3.318V-4.2h.462v1.608H-3.48v.528h.618A3.385,3.385,0,0,1-3.6.18,2.944,2.944,0,0,1-3.174.5,3.815,3.815,0,0,0-2.34-2.064h.852V.474h.534V-2.064h.648ZM1.416-5A6.973,6.973,0,0,1,.18-2.634a4.372,4.372,0,0,1,.282.588,5.945,5.945,0,0,0,.48-.666V.468H1.47V-3.69c.174-.384.33-.78.462-1.17Zm.978,1.632c.114.084.258.2.33.264a4.251,4.251,0,0,0,.444-.474,3.354,3.354,0,0,0,.552.588,4.678,4.678,0,0,1-1.326.528Zm2.3-.582a2.609,2.609,0,0,1-.594.69,2.777,2.777,0,0,1-.672-.684l.006-.006Zm1.05,0V-4.4H3.7a4.321,4.321,0,0,0,.234-.51L3.42-5.04A3.914,3.914,0,0,1,2.394-3.51v-.8H1.908V-.516h.486v-1.9a2.581,2.581,0,0,1,.294.4,5.238,5.238,0,0,0,1.446-.666,4.682,4.682,0,0,0,1.5.618,2.633,2.633,0,0,1,.306-.456,4.651,4.651,0,0,1-1.4-.468,3.353,3.353,0,0,0,.744-.96Zm-.96,2.19a4.09,4.09,0,0,1-1.92.894,2.21,2.21,0,0,1,.276.36A4.368,4.368,0,0,0,5.2-1.6Zm-.57-.558a3.647,3.647,0,0,1-1.416.7,1.929,1.929,0,0,1,.306.324,4,4,0,0,0,1.53-.852ZM5.292-1.1A4.708,4.708,0,0,1,2.55.006a1.841,1.841,0,0,1,.288.438A4.992,4.992,0,0,0,5.772-.9ZM7.884-3.216A5.826,5.826,0,0,0,9.162-4.488a6.008,6.008,0,0,0,1.35,1.272ZM7.77-2.7h2.808v-.468a7.529,7.529,0,0,0,1.062.624,2.716,2.716,0,0,1,.354-.5,6.032,6.032,0,0,1-2.568-1.98H8.85A6.068,6.068,0,0,1,6.4-2.964a2.033,2.033,0,0,1,.33.456A7.384,7.384,0,0,0,7.77-3.132ZM6.738-1.554H8.226A10.217,10.217,0,0,1,7.668-.3L6.78-.27l.072.546C7.872.234,9.4.168,10.824.1a4.094,4.094,0,0,1,.264.39L11.6.168a7.635,7.635,0,0,0-1.392-1.542l-.48.258a8.747,8.747,0,0,1,.7.714c-.732.03-1.476.06-2.142.084.216-.384.438-.834.636-1.236h2.748v-.522H6.738ZM17.8-2.106a2.221,2.221,0,0,0-2.352-2.262,2.6,2.6,0,0,0-2.682,2.5c0,1,.546,1.662,1.14,1.662s1.092-.678,1.452-1.9a11.947,11.947,0,0,0,.36-1.686,1.6,1.6,0,0,1,1.452,1.674,1.726,1.726,0,0,1-1.452,1.7,3.708,3.708,0,0,1-.534.084l.354.564A2.309,2.309,0,0,0,17.8-2.106Zm-4.428.174a2.006,2.006,0,0,1,1.71-1.854,9.552,9.552,0,0,1-.33,1.548c-.276.924-.558,1.314-.828,1.314S13.368-1.242,13.368-1.932ZM-5.034,4.61V4.016h3.918V4.61H-2.8V4.184h-.564V4.61Zm4.6,2.346V6.47H-2.88a3.194,3.194,0,0,0,.072-.48h1.7V5.528H-2.8V5.072h1.794V4.724h.462v-1.2H-2.778V2.972h-.576v.552H-5.58v1.2h.51v.348h1.7v.456H-4.974V5.99h1.6a2.253,2.253,0,0,1-.09.48h-2.19v.486H-3.72A3.56,3.56,0,0,1-5.736,8.024a2.206,2.206,0,0,1,.342.444,3.545,3.545,0,0,0,2.3-1.476A3.077,3.077,0,0,0-.7,8.486,2,2,0,0,1-.36,8,3.027,3.027,0,0,1-2.514,6.956ZM4,7.976c-.318,0-.366-.042-.366-.276V6.134l.456-.216V7.43H4.56V5.7l.522-.246c0,.654-.006,1.092-.018,1.164s-.048.1-.108.1-.168,0-.264-.006a1.352,1.352,0,0,1,.108.42,1.353,1.353,0,0,0,.468-.048.364.364,0,0,0,.264-.366c.024-.168.024-.858.024-1.71l.024-.078L5.238,4.8l-.1.066L5.094,4.9,4.56,5.15V4.466H4.086v.906l-.456.21V4.91H3.168a4.3,4.3,0,0,0,.366-.636H5.76v-.51H3.744c.078-.222.144-.456.2-.69L3.4,2.96a4.719,4.719,0,0,1-.54,1.4V3.908h-.99V2.972H1.332v.936h-1v.516H.954A6.891,6.891,0,0,1,.264,8.09a1.54,1.54,0,0,1,.408.378,5.437,5.437,0,0,0,.762-2.79H2.04A7.962,7.962,0,0,1,1.89,7.9a.173.173,0,0,1-.18.084c-.09,0-.282,0-.5-.018a1.322,1.322,0,0,1,.144.5,3.947,3.947,0,0,0,.624-.018.435.435,0,0,0,.36-.216c.156-.2.186-.888.222-2.832.006-.072.006-.234.006-.234h-1.1c.006-.246.012-.492.018-.744H2.82a2.4,2.4,0,0,1-.294.384,3.792,3.792,0,0,1,.42.39,2.45,2.45,0,0,0,.186-.234v.852l-.516.24.2.462.312-.15V7.694c0,.6.168.756.816.756H5.082c.534,0,.69-.21.756-.936a1.436,1.436,0,0,1-.462-.2c-.03.552-.078.66-.33.66Z" transform="translate(478 2878)" fill="#363636"/>
      <g id="グループ_4484" data-name="グループ 4484" transform="translate(4.26 -62.632)">
        <path id="パス_8656" data-name="パス 8656" d="M113.372,82.007h-15.3a1.35,1.35,0,0,0-1.35,1.351v9a1.35,1.35,0,0,0,1.35,1.35h6.75v.9h-4.95a.45.45,0,0,0-.45.449v.9a.45.45,0,0,0,.45.45h11.7a.45.45,0,0,0,.449-.45v-.9a.45.45,0,0,0-.449-.449h-4.95v-.9h6.75a1.35,1.35,0,0,0,1.35-1.35v-9a1.35,1.35,0,0,0-1.35-1.351M113.2,92.219H98.245V83.5H113.2Z" transform="translate(261.018 2834.625)" fill="#e66084"/>
        <path id="パス_8653" data-name="パス 8653" d="M157.739,90.916l1.77-1.77,1.771,1.77,1.109-1.109-1.771-1.771,1.771-1.771-1.109-1.109-1.771,1.77-1.77-1.77-1.109,1.109,1.77,1.771-1.77,1.771Z" transform="translate(207.351 2834.358)" fill="#e66084"/>
      </g>
      <g id="グループ_4487" data-name="グループ 4487" transform="translate(-0.403 -0.282)">
        <path id="パス_8633" data-name="パス 8633" d="M210.614,84.857l2.428-.819.56-2.127-.84-.588-1.046,1.493-1.468-.083-.58-1.35,1.046-1.493-.839-.588-1.807,1.254.06,2.561-3.949,5.64-2.426.818-.56,2.127.84.588,1.046-1.493,1.467.083.58,1.351-1.046,1.493.84.588,1.807-1.254-.06-2.561-.006,0,3.948-5.638Z" transform="translate(214.209 2773.981)" fill="#e66084"/>
        <path id="パス_8634" data-name="パス 8634" d="M212.616,93.944l1.083.757a.856.856,0,0,0,1.19-.209l5.825-8.319.005,0,2.427-.819.561-2.128-.839-.588-1.045,1.494-1.469-.083-.58-1.351,1.046-1.494-.839-.587-1.807,1.254.059,2.561-5.826,8.318a.856.856,0,0,0,.21,1.19m.877-.795a.4.4,0,1,1,.1.56.4.4,0,0,1-.1-.56" transform="translate(212.696 2773.617)" fill="#e66084"/>
      </g>
      <g id="グループ_4488" data-name="グループ 4488" transform="translate(13.557 -63.626)">
        <path id="パス_8555" data-name="パス 8555" d="M442.584,79.758l-.921-.206c-.056.029-2.3.024-2.351,0l-.941.211A1.373,1.373,0,0,0,437.29,81.1v1.861a.365.365,0,0,0,.367.362H443.3a.364.364,0,0,0,.367-.362V81.1a1.377,1.377,0,0,0-1.083-1.339" transform="translate(18.152 2849.707)" fill="#e66084"/>
        <path id="パス_8558" data-name="パス 8558" d="M442.584,79.758l-.921-.206c-.056.029-2.3.024-2.351,0l-.941.211A1.373,1.373,0,0,0,437.29,81.1v1.861a.365.365,0,0,0,.367.362H443.3a.364.364,0,0,0,.367-.362V81.1a1.377,1.377,0,0,0-1.083-1.339" transform="translate(31.486 2849.707)" fill="#e66084"/>
        <path id="パス_8556" data-name="パス 8556" d="M442.122,75.623a1.739,1.739,0,1,0-1.739-1.739,1.739,1.739,0,0,0,1.739,1.739" transform="translate(16.509 2853.346)" fill="#e66084"/>
        <path id="パス_8557" data-name="パス 8557" d="M442.122,75.623a1.739,1.739,0,1,0-1.739-1.739,1.739,1.739,0,0,0,1.739,1.739" transform="translate(29.842 2853.346)" fill="#e66084"/>
        <path id="パス_8559" data-name="パス 8559" d="M465.616,57.774c1.838,0,3.333-1.222,3.333-2.723s-1.5-2.724-3.333-2.724-3.333,1.222-3.333,2.724a2.424,2.424,0,0,0,.723,1.692l-.55,1.033a.238.238,0,0,0,.046.284.231.231,0,0,0,.161.064.236.236,0,0,0,.123-.035l1.124-.7a3.9,3.9,0,0,0,1.707.384" transform="translate(6.493 2862.729)" fill="#e66084"/>
        <path id="パス_8561" data-name="パス 8561" d="M455.735,56.409a1.449,1.449,0,1,0-1.449,1.449,1.449,1.449,0,0,0,1.449-1.449" transform="translate(11.012 2861.545)" fill="#e66084"/>
        <g id="グループ_4294" data-name="グループ 4294" transform="translate(462.399 2919.694)">
          <path id="パス_8560" data-name="パス 8560" d="M455.219,71.4V67.561h.169a.623.623,0,0,0,.623-.624V62.662a1.265,1.265,0,0,0-.985-1.234l-.837-.19-.132.071-.944,2.532-.946-2.541-.114-.062-.853.194a1.262,1.262,0,0,0-.985,1.231v4.274a.624.624,0,0,0,.624.624h.168V71.4Z" transform="translate(-450.214 -61.219)" fill="#e66084"/>
          <path id="パス_8562" data-name="パス 8562" d="M454.856,61.2l.094.421h.655l.094-.421Z" transform="translate(-452.38 -61.2)" fill="#e66084"/>
          <path id="パス_8563" data-name="パス 8563" d="M455.692,62.265h-.718l.006.027-.006.631.362.858.362-.858-.006-.631.006-.027Z" transform="translate(-452.438 -61.728)" fill="#e66084"/>
        </g>
      </g>
    </g>
    <g id="合体_41-3" data-name="合体 41" transform="translate(294.333 2891)" fill="#fff">
      <path d="M 40.66740036010742 49.4995002746582 L 5.667300701141357 49.4995002746582 C 2.63442063331604 49.4995002746582 0.1670006364583969 47.03247833251953 0.1670006364583969 44.00009918212891 L 0.1670006364583969 12.99960041046143 C 0.1670006364583969 9.966720581054688 2.63442063331604 7.499300003051758 5.667300701141357 7.499300003051758 L 19.77849006652832 7.499300003051758 L 20.07268142700195 7.499300003051758 L 20.21556091308594 7.242140293121338 L 23.66726303100586 1.029572248458862 L 27.11832046508789 7.242100238800049 L 27.26119041442871 7.499300003051758 L 27.55541038513184 7.499300003051758 L 40.66740036010742 7.499300003051758 C 43.69977951049805 7.499300003051758 46.16680145263672 9.966720581054688 46.16680145263672 12.99960041046143 L 46.16680145263672 44.00009918212891 C 46.16680145263672 47.03247833251953 43.69977951049805 49.4995002746582 40.66740036010742 49.4995002746582 Z" stroke="none"/>
      <path d="M 40.66740036010742 48.9995002746582 C 43.42407989501953 48.9995002746582 45.66680145263672 46.75677871704102 45.66680145263672 44.00009918212891 L 45.66680145263672 12.99960041046143 C 45.66680145263672 10.24242973327637 43.42407989501953 7.999300003051758 40.66740036010742 7.999300003051758 L 26.96697998046875 7.999300003051758 L 23.6672191619873 2.059144258499146 L 20.36687088012695 7.999300003051758 L 5.667300701141357 7.999300003051758 C 2.910130739212036 7.999300003051758 0.6670006513595581 10.24242973327637 0.6670006513595581 12.99960041046143 L 0.6670006513595581 44.00009918212891 C 0.6670006513595581 46.75677871704102 2.910130739212036 48.9995002746582 5.667300701141357 48.9995002746582 L 40.66740036010742 48.9995002746582 M 40.66740036010742 49.9995002746582 L 5.667300701141357 49.9995002746582 C 2.353500604629517 49.9995002746582 -0.3329993784427643 47.3129997253418 -0.3329993784427643 44.00009918212891 L -0.3329993784427643 12.99960041046143 C -0.3329993784427643 9.685800552368164 2.353500604629517 6.999300003051758 5.667300701141357 6.999300003051758 L 19.77849006652832 6.999300003051758 L 23.66730117797852 1.373290956507844e-07 L 27.55541038513184 6.999300003051758 L 40.66740036010742 6.999300003051758 C 43.98030090332031 6.999300003051758 46.66680145263672 9.685800552368164 46.66680145263672 12.99960041046143 L 46.66680145263672 44.00009918212891 C 46.66680145263672 47.3129997253418 43.98030090332031 49.9995002746582 40.66740036010742 49.9995002746582 Z" stroke="none" fill="#e66084"/>
    </g>
    <path id="パス_8753" data-name="パス 8753" d="M-3.456-4.164h-1.41V-5.04h-.558v.876H-6.8v.528h3.348ZM-6.762-1.98-6.834-2.5c-.216.066-.438.126-.654.186V-3.354h.642V-3.87h-.642V-5.034h-.546V-3.87h-.81v.516h.81v1.188c-.336.09-.648.168-.9.222L-8.8-1.4l.762-.216V-.156c0,.09-.036.114-.114.114s-.324.006-.576-.006a1.908,1.908,0,0,1,.156.51,2.112,2.112,0,0,0,.84-.09c.18-.09.24-.24.24-.528V-1.77ZM-4.056-.024a.132.132,0,0,1-.1-.03c-.03-.024-.036-.108-.036-.252V-2.97H-6.222v1.176A1.955,1.955,0,0,1-7.146.06a1.958,1.958,0,0,1,.354.414,2.5,2.5,0,0,0,1.1-2.262v-.678h.972V-.318c0,.432.042.552.144.642A.581.581,0,0,0-4.2.456h.336A.775.775,0,0,0-3.522.384a.45.45,0,0,0,.192-.3,5.207,5.207,0,0,0,.066-.828A1.285,1.285,0,0,1-3.7-.978c0,.342-.006.606-.018.732a.381.381,0,0,1-.06.192.236.236,0,0,1-.12.03Zm3.8-.366h.48v-.9A3.9,3.9,0,0,0,1.3-.444a1.708,1.708,0,0,1,.312-.348,3.693,3.693,0,0,1-1.17-.822H1.536v-.408H.228v-.432a9.139,9.139,0,0,0,1.044-.192L.924-2.97a12.747,12.747,0,0,1-2.28.288,1.761,1.761,0,0,1,.114.342c.312-.012.654-.03.99-.066v.384H-1.53v.408H-.474a3.355,3.355,0,0,1-1.182.828,2.487,2.487,0,0,1,.312.354,3.756,3.756,0,0,0,1.092-.84ZM1.764-3.084V-.228H-1.758V-3.084ZM-2.28.474h.522V.252H1.764V.474H2.31V-3.558H-2.28ZM1.254-4.668v-.366H.7v.366H-.72v-.366h-.552v.366H-2.628v.492h1.356v.432H-.72v-.432H.7v.432h.558v-.432H2.628v-.492ZM6.12-2.976a.7.7,0,0,0-.7.7.7.7,0,0,0,.7.7.7.7,0,0,0,.7-.7A.7.7,0,0,0,6.12-2.976ZM-15.7,3.836h-1.41V2.96h-.558v.876h-1.38v.528H-15.7ZM-19,6.02l-.072-.522c-.216.066-.438.126-.654.186V4.646h.642V4.13h-.642V2.966h-.546V4.13h-.81v.516h.81V5.834c-.336.09-.648.168-.9.222l.138.546.762-.216V7.844c0,.09-.036.114-.114.114s-.324.006-.576-.006a1.908,1.908,0,0,1,.156.51,2.112,2.112,0,0,0,.84-.09c.18-.09.24-.24.24-.528V6.23ZM-16.3,7.976a.132.132,0,0,1-.1-.03c-.03-.024-.036-.108-.036-.252V5.03h-2.034V6.206a1.955,1.955,0,0,1-.924,1.854,1.958,1.958,0,0,1,.354.414,2.5,2.5,0,0,0,1.1-2.262V5.534h.972V7.682c0,.432.042.552.144.642a.581.581,0,0,0,.378.132h.336a.775.775,0,0,0,.342-.072.45.45,0,0,0,.192-.3,5.207,5.207,0,0,0,.066-.828,1.285,1.285,0,0,1-.438-.234c0,.342-.006.606-.018.732a.381.381,0,0,1-.06.192.236.236,0,0,1-.12.03Zm4.38-4.824h-.726a2.722,2.722,0,0,1,.042.5v.516h-1.308a5.7,5.7,0,0,1-.582-.03,4.466,4.466,0,0,1,.024.486v1.05c0,.132-.012.306-.024.432h.654a2.754,2.754,0,0,1-.024-.4V4.724h3.192A4.163,4.163,0,0,1-11.22,6.38a3.085,3.085,0,0,1-1.512,1.128,3.767,3.767,0,0,1-.72.2l.492.57A3.825,3.825,0,0,0-10.554,6.53a5.581,5.581,0,0,0,.576-1.758,2.255,2.255,0,0,1,.1-.408l-.414-.258a1.317,1.317,0,0,1-.45.06h-1.212V3.65A4.292,4.292,0,0,1-11.916,3.152Zm3.252,2.61.294.594a12.276,12.276,0,0,0,2.214-.93V7.514a6.953,6.953,0,0,1-.036.708h.744a4.512,4.512,0,0,1-.042-.708V5.024A10.121,10.121,0,0,0-3.876,3.71l-.5-.48A7.406,7.406,0,0,1-6.048,4.658,9.908,9.908,0,0,1-8.664,5.762ZM.09,7.868l.4.33a1.865,1.865,0,0,1,.228-.15A6.313,6.313,0,0,0,2.76,6.392l-.366-.516A4.221,4.221,0,0,1,.762,7.256V3.938a3.614,3.614,0,0,1,.03-.48H.1a4.4,4.4,0,0,1,.036.48V7.49A1.73,1.73,0,0,1,.09,7.868Zm-2.766-.054L-2.1,8.2a3.371,3.371,0,0,0,1.068-1.68A13.145,13.145,0,0,0-.846,3.956a4.491,4.491,0,0,1,.03-.48h-.7a1.87,1.87,0,0,1,.048.486,10.4,10.4,0,0,1-.174,2.394A2.777,2.777,0,0,1-2.676,7.814ZM8.01,3.962l-.39-.288a1.82,1.82,0,0,1-.522.06H4.872a6.419,6.419,0,0,1-.654-.042V4.37c.1-.006.42-.036.654-.036h2.2A4.936,4.936,0,0,1,6.12,5.918,6.742,6.742,0,0,1,3.654,7.676l.486.51A7.876,7.876,0,0,0,6.45,6.458,13.465,13.465,0,0,1,8.04,8.21l.528-.468A15.948,15.948,0,0,0,6.852,5.984a8.212,8.212,0,0,0,.984-1.71A2.071,2.071,0,0,1,8.01,3.962Zm5.166,4.014c-.318,0-.366-.042-.366-.276V6.134l.456-.216V7.43h.474V5.7l.522-.246c0,.654-.006,1.092-.018,1.164s-.048.1-.108.1-.168,0-.264-.006a1.352,1.352,0,0,1,.108.42,1.353,1.353,0,0,0,.468-.048.364.364,0,0,0,.264-.366c.024-.168.024-.858.024-1.71l.024-.078L14.418,4.8l-.1.066-.048.036-.534.246V4.466h-.474v.906l-.456.21V4.91h-.462a4.3,4.3,0,0,0,.366-.636H14.94v-.51H12.924c.078-.222.144-.456.2-.69l-.552-.114a4.719,4.719,0,0,1-.54,1.4V3.908h-.99V2.972h-.534v.936h-1v.516h.618a6.891,6.891,0,0,1-.69,3.666,1.54,1.54,0,0,1,.408.378,5.437,5.437,0,0,0,.762-2.79h.606A7.962,7.962,0,0,1,11.07,7.9a.173.173,0,0,1-.18.084c-.09,0-.282,0-.5-.018a1.322,1.322,0,0,1,.144.5,3.947,3.947,0,0,0,.624-.018.435.435,0,0,0,.36-.216c.156-.2.186-.888.222-2.832.006-.072.006-.234.006-.234h-1.1c.006-.246.012-.492.018-.744H12a2.4,2.4,0,0,1-.294.384,3.792,3.792,0,0,1,.42.39,2.45,2.45,0,0,0,.186-.234v.852l-.516.24.2.462.312-.15V7.694c0,.6.168.756.816.756h1.134c.534,0,.69-.21.756-.936a1.436,1.436,0,0,1-.462-.2c-.03.552-.078.66-.33.66Zm5.478-.5V4.19h2.088V3.614H16V4.19H18.03V7.478H15.684v.558h5.37V7.478Z" transform="translate(318 2928)" fill="#363636"/>
    <g id="合体_41-4" data-name="合体 41" transform="translate(348.333 2891)" fill="#fff">
      <path d="M 40.66740036010742 49.4995002746582 L 5.667300701141357 49.4995002746582 C 2.63442063331604 49.4995002746582 0.1670006364583969 47.03247833251953 0.1670006364583969 44.00009918212891 L 0.1670006364583969 12.99960041046143 C 0.1670006364583969 9.966720581054688 2.63442063331604 7.499300003051758 5.667300701141357 7.499300003051758 L 18.77859115600586 7.499300003051758 L 19.07278060913086 7.499300003051758 L 19.21566009521484 7.242140293121338 L 22.66736221313477 1.029572248458862 L 26.11842155456543 7.242100238800049 L 26.26129150390625 7.499300003051758 L 26.55551147460938 7.499300003051758 L 40.66740036010742 7.499300003051758 C 43.69977951049805 7.499300003051758 46.16680145263672 9.966720581054688 46.16680145263672 12.99960041046143 L 46.16680145263672 44.00009918212891 C 46.16680145263672 47.03247833251953 43.69977951049805 49.4995002746582 40.66740036010742 49.4995002746582 Z" stroke="none"/>
      <path d="M 40.66740036010742 48.9995002746582 C 43.42407989501953 48.9995002746582 45.66680145263672 46.75677871704102 45.66680145263672 44.00009918212891 L 45.66680145263672 12.99960041046143 C 45.66680145263672 10.24242973327637 43.42407989501953 7.999300003051758 40.66740036010742 7.999300003051758 L 25.96708106994629 7.999300003051758 L 22.66731834411621 2.059144258499146 L 19.36697006225586 7.999300003051758 L 5.667300701141357 7.999300003051758 C 2.910130739212036 7.999300003051758 0.6670006513595581 10.24242973327637 0.6670006513595581 12.99960041046143 L 0.6670006513595581 44.00009918212891 C 0.6670006513595581 46.75677871704102 2.910130739212036 48.9995002746582 5.667300701141357 48.9995002746582 L 40.66740036010742 48.9995002746582 M 40.66740036010742 49.9995002746582 L 5.667300701141357 49.9995002746582 C 2.353500604629517 49.9995002746582 -0.3329993784427643 47.3129997253418 -0.3329993784427643 44.00009918212891 L -0.3329993784427643 12.99960041046143 C -0.3329993784427643 9.685800552368164 2.353500604629517 6.999300003051758 5.667300701141357 6.999300003051758 L 18.77859115600586 6.999300003051758 L 22.66740036010742 1.373290956507844e-07 L 26.55551147460938 6.999300003051758 L 40.66740036010742 6.999300003051758 C 43.981201171875 6.999300003051758 46.66680145263672 9.685800552368164 46.66680145263672 12.99960041046143 L 46.66680145263672 44.00009918212891 C 46.66680145263672 47.3129997253418 43.981201171875 49.9995002746582 40.66740036010742 49.9995002746582 Z" stroke="none" fill="#e66084"/>
    </g>
    <g id="合体_52-2" data-name="合体 52" transform="translate(402.333 2891)" fill="#fff">
      <path d="M 40.66740036010742 49.4995002746582 L 5.667300701141357 49.4995002746582 C 2.63442063331604 49.4995002746582 0.1670006364583969 47.03247833251953 0.1670006364583969 44.00009918212891 L 0.1670006364583969 12.99960041046143 C 0.1670006364583969 9.966720581054688 2.63442063331604 7.499300003051758 5.667300701141357 7.499300003051758 L 18.77859115600586 7.499300003051758 L 19.07278060913086 7.499300003051758 L 19.21566009521484 7.242140293121338 L 22.66736221313477 1.029572248458862 L 26.11842155456543 7.242100238800049 L 26.26129150390625 7.499300003051758 L 26.55551147460938 7.499300003051758 L 40.66740036010742 7.499300003051758 C 43.69977951049805 7.499300003051758 46.16680145263672 9.966720581054688 46.16680145263672 12.99960041046143 L 46.16680145263672 44.00009918212891 C 46.16680145263672 47.03247833251953 43.69977951049805 49.4995002746582 40.66740036010742 49.4995002746582 Z" stroke="none"/>
      <path d="M 40.66740036010742 48.9995002746582 C 43.42407989501953 48.9995002746582 45.66680145263672 46.75677871704102 45.66680145263672 44.00009918212891 L 45.66680145263672 12.99960041046143 C 45.66680145263672 10.24242973327637 43.42407989501953 7.999300003051758 40.66740036010742 7.999300003051758 L 25.96708106994629 7.999300003051758 L 22.66731834411621 2.059144258499146 L 19.36697006225586 7.999300003051758 L 5.667300701141357 7.999300003051758 C 2.910130739212036 7.999300003051758 0.6670006513595581 10.24242973327637 0.6670006513595581 12.99960041046143 L 0.6670006513595581 44.00009918212891 C 0.6670006513595581 46.75677871704102 2.910130739212036 48.9995002746582 5.667300701141357 48.9995002746582 L 40.66740036010742 48.9995002746582 M 40.66740036010742 49.9995002746582 L 5.667300701141357 49.9995002746582 C 2.353500604629517 49.9995002746582 -0.3329993784427643 47.3129997253418 -0.3329993784427643 44.00009918212891 L -0.3329993784427643 12.99960041046143 C -0.3329993784427643 9.685800552368164 2.353500604629517 6.999300003051758 5.667300701141357 6.999300003051758 L 18.77859115600586 6.999300003051758 L 22.66740036010742 1.373290956507844e-07 L 26.55551147460938 6.999300003051758 L 40.66740036010742 6.999300003051758 C 43.981201171875 6.999300003051758 46.66680145263672 9.685800552368164 46.66680145263672 12.99960041046143 L 46.66680145263672 44.00009918212891 C 46.66680145263672 47.3129997253418 43.981201171875 49.9995002746582 40.66740036010742 49.9995002746582 Z" stroke="none" fill="#e66084"/>
    </g>
    <g id="合体_53-2" data-name="合体 53" transform="translate(455.333 2891)" fill="#fff">
      <path d="M 40.66740036010742 49.4995002746582 L 5.667300701141357 49.4995002746582 C 2.63442063331604 49.4995002746582 0.1670006364583969 47.03247833251953 0.1670006364583969 44.00009918212891 L 0.1670006364583969 12.99960041046143 C 0.1670006364583969 9.966720581054688 2.63442063331604 7.499300003051758 5.667300701141357 7.499300003051758 L 18.77859115600586 7.499300003051758 L 19.07278060913086 7.499300003051758 L 19.21566009521484 7.242140293121338 L 22.66736221313477 1.029572248458862 L 26.11842155456543 7.242100238800049 L 26.26129150390625 7.499300003051758 L 26.55551147460938 7.499300003051758 L 40.66740036010742 7.499300003051758 C 43.69977951049805 7.499300003051758 46.16680145263672 9.966720581054688 46.16680145263672 12.99960041046143 L 46.16680145263672 44.00009918212891 C 46.16680145263672 47.03247833251953 43.69977951049805 49.4995002746582 40.66740036010742 49.4995002746582 Z" stroke="none"/>
      <path d="M 40.66740036010742 48.9995002746582 C 43.42407989501953 48.9995002746582 45.66680145263672 46.75677871704102 45.66680145263672 44.00009918212891 L 45.66680145263672 12.99960041046143 C 45.66680145263672 10.24242973327637 43.42407989501953 7.999300003051758 40.66740036010742 7.999300003051758 L 25.96708106994629 7.999300003051758 L 22.66731834411621 2.059144258499146 L 19.36697006225586 7.999300003051758 L 5.667300701141357 7.999300003051758 C 2.910130739212036 7.999300003051758 0.6670006513595581 10.24242973327637 0.6670006513595581 12.99960041046143 L 0.6670006513595581 44.00009918212891 C 0.6670006513595581 46.75677871704102 2.910130739212036 48.9995002746582 5.667300701141357 48.9995002746582 L 40.66740036010742 48.9995002746582 M 40.66740036010742 49.9995002746582 L 5.667300701141357 49.9995002746582 C 2.353500604629517 49.9995002746582 -0.3329993784427643 47.3129997253418 -0.3329993784427643 44.00009918212891 L -0.3329993784427643 12.99960041046143 C -0.3329993784427643 9.685800552368164 2.353500604629517 6.999300003051758 5.667300701141357 6.999300003051758 L 18.77859115600586 6.999300003051758 L 22.66740036010742 1.373290956507844e-07 L 26.55551147460938 6.999300003051758 L 40.66740036010742 6.999300003051758 C 43.981201171875 6.999300003051758 46.66680145263672 9.685800552368164 46.66680145263672 12.99960041046143 L 46.66680145263672 44.00009918212891 C 46.66680145263672 47.3129997253418 43.981201171875 49.9995002746582 40.66740036010742 49.9995002746582 Z" stroke="none" fill="#e66084"/>
    </g>
    <path id="パス_8754" data-name="パス 8754" d="M-11.136-3.858h3.894v.852h.57v-1.38h-2.22v-.642h-.594v.642h-2.2v1.38h.546ZM-8.9-1.29h1.716v-.522H-8.9v-.882h1.416v-.534H-10.86v.534h1.386V-.366a1.717,1.717,0,0,1-.978-1.056,7.337,7.337,0,0,0,.144-.786l-.576-.054A3.3,3.3,0,0,1-11.976.12,3.018,3.018,0,0,1-11.514.5a3.054,3.054,0,0,0,.846-1.248A2.589,2.589,0,0,0-8.082.4h1.428a1.683,1.683,0,0,1,.21-.564c-.342.012-1.35.012-1.608.012A6.269,6.269,0,0,1-8.9-.21Zm4.146-.678h.936v.516h-.936Zm.936-1.824v.45h-.936v-.45Zm-.936.888h.936v.5h-.936Zm1.86,1.452H-3.3v-2.34h.432v-.486H-3.3v-.69h-.516v.69h-.936v-.69h-.5v.69h-.486v.486h.486v2.34h-.558v.486h2.922ZM-5.028-.87a2.963,2.963,0,0,1-.8,1.02,2.845,2.845,0,0,1,.444.33A4.2,4.2,0,0,0-4.5-.726Zm.864.216A6.208,6.208,0,0,1-3.54.258l.45-.27a5.729,5.729,0,0,0-.648-.876Zm2.058-1.374c.012-.192.012-.384.012-.558V-2.9h1.056v.876Zm1.068-2.214V-3.4H-2.094v-.846Zm.54-.5H-2.622v2.16A5.562,5.562,0,0,1-3.138.174,1.961,1.961,0,0,1-2.694.5a4.77,4.77,0,0,0,.552-2.022h1.1V-.192c0,.1-.036.12-.126.126s-.378.006-.66-.006a1.914,1.914,0,0,1,.162.528A2.084,2.084,0,0,0-.75.354C-.564.27-.5.108-.5-.186ZM4.518-1.794H1.578v-.942h2.94Zm.57-1.458H3.306V-3.93h2.2v-.516h-2.2v-.588h-.57v1.782H1.044v1.974H5.088ZM.822.456a3.785,3.785,0,0,0,.8-1.29L1.092-.972A3.453,3.453,0,0,1,.306.21ZM2.058-.786A7.856,7.856,0,0,1,2.184.42L2.748.348A7.13,7.13,0,0,0,2.592-.834ZM3.282-.78A6.231,6.231,0,0,1,3.7.4L4.242.264A6.394,6.394,0,0,0,3.786-.894ZM4.494-.828A6.7,6.7,0,0,1,5.244.426L5.778.21a7.157,7.157,0,0,0-.786-1.224ZM9.1-1.56v-.708H9.87v.444a1.944,1.944,0,0,1-.012.264Zm2.07-.708v.708h-.8c.006-.084.006-.168.006-.252v-.456Zm-1.9-1.38a4.075,4.075,0,0,0,.852-.894,4.346,4.346,0,0,0,.894.894Zm2.4,2.526V-2.706h-1.3V-3.18h.882v-.3a4.986,4.986,0,0,0,.5.3,2.736,2.736,0,0,1,.294-.492,4.124,4.124,0,0,1-1.686-1.356h-.5a3.953,3.953,0,0,1-1.44,1.32V-3.78h-.6V-5.034H7.3V-3.78H6.5v.516h.75A6.607,6.607,0,0,1,6.378-1.11a2.9,2.9,0,0,1,.27.486A5.637,5.637,0,0,0,7.3-2.058V.468h.522V-2.22c.156.282.318.6.4.786l.3-.438c-.09-.15-.534-.8-.7-1.014v-.378h.6v-.144a2.232,2.232,0,0,1,.12.24,3.856,3.856,0,0,0,.492-.3v.288h.84v.474H8.616v1.584H9.774C9.612-.66,9.2-.228,8.214.084A1.881,1.881,0,0,1,8.52.5,2.53,2.53,0,0,0,10.182-.774,2.536,2.536,0,0,0,11.682.5,1.339,1.339,0,0,1,12.006.03,2.146,2.146,0,0,1,10.56-1.122ZM-4.416,2.99A6.674,6.674,0,0,1-5.844,5.306a3.362,3.362,0,0,1,.312.576,5.423,5.423,0,0,0,.492-.588V8.462h.564V4.412a9.541,9.541,0,0,0,.594-1.254ZM-.294,4.484V3.95H-2.706c.114-.252.216-.516.312-.774l-.534-.144a6.375,6.375,0,0,1-1.3,2.28,3.359,3.359,0,0,1,.432.378,6.21,6.21,0,0,0,.816-1.206h.336V8.468h.57V7.076H-.354V6.554H-2.07v-.8H-.438v-.51H-2.07V4.484Zm4.176-.03a5.6,5.6,0,0,1-.264.57H2.352l.174-.036a2.524,2.524,0,0,0-.258-.534ZM5.688,7.082V6.614H3.324V6.248H5.166v-.42H3.324v-.36H5.448V5.024H4.176c.1-.168.222-.366.336-.57H5.67V3.986H4.806a9.388,9.388,0,0,0,.5-.816l-.576-.144a5.23,5.23,0,0,1-.42.888l.228.072H3.888V2.96H3.36V3.986H2.766V2.96H2.244V3.986h-.66l.306-.114a4.17,4.17,0,0,0-.48-.858l-.486.162a4.5,4.5,0,0,1,.438.81H.474v.468H1.836l-.144.024a2.972,2.972,0,0,1,.252.546H.714v.444H2.778v.36H1.008v.42h1.77v.366H.45v.468H2.3a5.821,5.821,0,0,1-2.022.834,2.5,2.5,0,0,1,.366.474,5.96,5.96,0,0,0,2.13-1.08V8.474h.546V7.268A5.352,5.352,0,0,0,5.472,8.4a2.506,2.506,0,0,1,.372-.5A5.51,5.51,0,0,1,3.81,7.082Z" transform="translate(371 2928)" fill="#363636"/>
    <path id="パス_8755" data-name="パス 8755" d="M-13.908-4.128h-2.784V-4.47h2.784Zm0,.7h-2.784v-.348h2.784Zm.558-1.422h-3.876v1.794h3.876Zm-.18,3.276a2.828,2.828,0,0,1-.546.756,2.644,2.644,0,0,1-.5-.756Zm-3.4,1.134v-.39h.942v.3Zm0-1.146h.942v.354h-.942Zm.942-.732v.336h-.942v-.336Zm2.79.294-.1.018h-1.974v.432h.54l-.324.09a3.676,3.676,0,0,0,.606.978A3.453,3.453,0,0,1-15.45,0V-2.316h2.772v-.456h-5.256v.456h.492V-.39c-.2.018-.384.036-.546.048l.042.486c.546-.054,1.254-.132,1.962-.21V.468h.534V.042a1.748,1.748,0,0,1,.276.408,4.144,4.144,0,0,0,1.11-.6A3.324,3.324,0,0,0-12.87.468a1.653,1.653,0,0,1,.33-.432A3.334,3.334,0,0,1-13.686-.48a3.409,3.409,0,0,0,.834-1.41Zm6.7-2.76H-9.534v.516H-6.5Zm-.768,2.49H-8.784V-3.2h1.518Zm.546-1.4H-9.3v1.89h2.58Zm-.642,3.45c.15-.318.324-.834.48-1.284l-.552-.12a8.227,8.227,0,0,1-.4,1.284Zm-.99-.162a4.975,4.975,0,0,0-.312-1.206l-.474.114A5.653,5.653,0,0,1-8.856-.276ZM-9.444-.78c-.138-.168-.7-.822-.936-1.068.018-.108.03-.222.042-.33H-9.5V-2.7h-.8V-3.774h.732V-4.29h-1.368c.054-.2.1-.414.138-.63l-.528-.1a4.638,4.638,0,0,1-.654,1.842,3.074,3.074,0,0,1,.48.264,4.289,4.289,0,0,0,.4-.864h.27V-2.7H-11.9v.522h1.032A3.2,3.2,0,0,1-11.94.066a1.973,1.973,0,0,1,.384.39A3.417,3.417,0,0,0-10.5-1.278a11.567,11.567,0,0,1,.7.96ZM-9.8-.168V.354h3.372V-.168Zm7-3.912a3.945,3.945,0,0,1,.654.726l.4-.3a3.856,3.856,0,0,0-.642-.66H-1.17v1.632c0,.066-.024.084-.1.084s-.306.006-.558-.006a1.8,1.8,0,0,1,.144.486A2.225,2.225,0,0,0-.87-2.2c.168-.084.21-.228.21-.48V-4.788H-2.994v.474h.54Zm1.338.612c-.6.234-1.224.48-1.632.618l.252.462c.432-.186.966-.438,1.47-.678Zm-2.4.786c0,.066-.024.084-.1.084s-.3.006-.54-.006a1.625,1.625,0,0,1,.15.486A2.117,2.117,0,0,0-3.558-2.2c.168-.084.21-.228.21-.474V-4.788H-5.622v.474h1.764ZM-5.37-4.062a3.631,3.631,0,0,1,.606.744l.4-.282a3.614,3.614,0,0,0-.624-.708Zm1.236.684c-.6.234-1.212.468-1.62.594l.228.468c.432-.192.972-.426,1.476-.66ZM-2.01-.15a11.618,11.618,0,0,0,.564-1.074l-.51-.114H-.81v-.486H-2.79v-.528h-.546v.528H-5.268v.486H-2.04a7.212,7.212,0,0,1-.492,1.1l.378.09H-3.966l.342-.1a3.9,3.9,0,0,0-.408-1.08l-.516.138A4.629,4.629,0,0,1-4.182-.15H-5.754v.5H-.348v-.5Zm3.666-.4V-2.07H4.482V-.546Zm2.826-3.54v1.464H1.656V-4.086Zm-3.4-.564V.408h.57V.018H4.482V.384h.594V-4.65ZM7.6-5.034A4.717,4.717,0,0,1,6.384-3.81a3.18,3.18,0,0,1,.3.4A6.2,6.2,0,0,0,8.106-4.842Zm3.168,3.9a2.454,2.454,0,0,1-.672.552,2.554,2.554,0,0,1-.666-.552ZM9.252-2.592h1.716v.342H9.252Zm0-.69h1.716v.336H9.252Zm1.926,1.734-.09.024H9.666a2.737,2.737,0,0,0,.24-.366h1.578V-3.654h-2.6A3.387,3.387,0,0,0,9.1-4H11.85v-.456H9.342q.1-.225.18-.45L8.976-5.04a4.1,4.1,0,0,1-.8,1.4l-.444-.156a5.251,5.251,0,0,1-1.41,1.6,4.245,4.245,0,0,1,.306.51,5.062,5.062,0,0,0,.588-.558V.486H7.74V-2.868c.132-.174.252-.36.366-.54a2.62,2.62,0,0,1,.372.264c.09-.1.18-.2.27-.318V-1.89h.588A3.507,3.507,0,0,1,8.07-.792a3.609,3.609,0,0,1,.384.342A4.4,4.4,0,0,0,9.06-.888a3.034,3.034,0,0,0,.54.534A6.268,6.268,0,0,1,8.046.018a1.75,1.75,0,0,1,.24.456A6.7,6.7,0,0,0,10.08-.042a4.842,4.842,0,0,0,1.6.5A2.282,2.282,0,0,1,12,0a5.409,5.409,0,0,1-1.4-.342,2.689,2.689,0,0,0,.918-1.038ZM12.954.474h.588V-4.8h-.588Zm2-.966V-2.1h2.106V-.492Zm2.106-3.624v1.5H14.958v-1.5Zm-2.676-.516v5.1h.57V.024h2.106v.4h.588V-4.632Z" transform="translate(426 2932)" fill="#363636"/>
    <path id="パス_8756" data-name="パス 8756" d="M-15.666-.12a4.968,4.968,0,0,0-.918-.8l-.42.3a4.527,4.527,0,0,1,.894.846ZM-16.788-2.6H-15.5V-2.2h-1.284Zm0-.786H-15.5v.414h-1.284Zm3.156,0v.414h-1.326V-3.39Zm0,1.194h-1.326V-2.6h1.326Zm1.1.8h-1.326v-.4h.768V-3.78h-1.872v-.342h2.292V-4.6h-2.292v-.432H-15.5V-4.6h-2.238v.474H-15.5v.342H-17.31V-1.8h2.91v.4h-3.486v.474H-14.4v.816c0,.084-.03.108-.126.114s-.474,0-.834-.012a2.108,2.108,0,0,1,.18.492A3.9,3.9,0,0,0-14.13.408c.216-.078.276-.216.276-.5V-.924h1.326Zm3.762-.438v-.888h1.452v.888Zm-1.884,0c.018-.222.024-.444.024-.648v-.24h1.3v.888Zm1.326-2.256v.846h-1.3v-.846Zm2.01.846H-8.766v-.846h1.452Zm.558-1.38h-4.422V-2.49A3.87,3.87,0,0,1-11.892.144a1.847,1.847,0,0,1,.438.366,3.442,3.442,0,0,0,.75-1.818h1.38V.408h.558V-1.308h1.452V-.234c0,.114-.042.15-.15.15s-.51.006-.894-.012a2.305,2.305,0,0,1,.186.54A3.285,3.285,0,0,0-7.05.348c.216-.084.294-.252.294-.576Zm5.412-.252-.384.162a6.16,6.16,0,0,1,.426.732L-1.326-4a1.37,1.37,0,0,1-.444.06H-3.216c.024-.042.042-.078.066-.12.066-.12.192-.354.312-.534l-.684-.21a2.309,2.309,0,0,1-.234.534A5.484,5.484,0,0,1-5.67-2.214l.51.39A6.8,6.8,0,0,0-3.576-3.4h1.89A4.785,4.785,0,0,1-2.43-1.878c-.4-.276-.822-.546-1.182-.756l-.414.426c.348.216.774.51,1.188.816A5.167,5.167,0,0,1-5.1-.012l.54.474A5.663,5.663,0,0,0-2.334-1.014c.252.2.474.384.648.54l.444-.534c-.186-.15-.42-.33-.678-.516A6.34,6.34,0,0,0-1-3.33,2.053,2.053,0,0,1-.834-3.7l-.354-.216.33-.144A8.7,8.7,0,0,0-1.344-4.878Zm.678-.252-.384.162a5.956,5.956,0,0,1,.492.822l.39-.168A7.093,7.093,0,0,0-.666-5.13ZM.606-2.238.9-1.644a12.276,12.276,0,0,0,2.214-.93V-.486a6.953,6.953,0,0,1-.036.708h.744A4.512,4.512,0,0,1,3.78-.486v-2.49A10.121,10.121,0,0,0,5.394-4.29l-.5-.48A7.406,7.406,0,0,1,3.222-3.342,9.908,9.908,0,0,1,.606-2.238Zm7.566-2.58-.7.156a2.506,2.506,0,0,1,.18.486c.042.138.12.414.21.756-.4.078-.7.132-.8.15-.228.036-.414.054-.636.078L6.6-2.55c.2-.048.768-.168,1.422-.3C8.3-1.824,8.634-.558,8.73-.222a4.472,4.472,0,0,1,.12.54l.7-.168C9.5.012,9.42-.234,9.384-.36c-.108-.36-.438-1.572-.732-2.622.954-.192,1.908-.384,2.088-.414a6.49,6.49,0,0,1-1.212,1.44l.606.288a9.971,9.971,0,0,0,1.512-2.124L11.22-4.1a1.217,1.217,0,0,1-.306.1c-.258.06-1.428.282-2.418.468-.084-.306-.162-.582-.222-.792A4.467,4.467,0,0,1,8.172-4.818ZM15.3-.132l.4.33a1.865,1.865,0,0,1,.228-.15A6.313,6.313,0,0,0,17.97-1.608L17.6-2.124a4.221,4.221,0,0,1-1.632,1.38V-4.062a3.614,3.614,0,0,1,.03-.48h-.7a4.4,4.4,0,0,1,.036.48V-.51A1.73,1.73,0,0,1,15.3-.132ZM12.534-.186,13.11.2a3.371,3.371,0,0,0,1.068-1.68,13.145,13.145,0,0,0,.186-2.562,4.491,4.491,0,0,1,.03-.48h-.7a1.87,1.87,0,0,1,.048.486,10.4,10.4,0,0,1-.174,2.394A2.777,2.777,0,0,1,12.534-.186ZM-3.624,5.894A2.221,2.221,0,0,0-5.976,3.632a2.6,2.6,0,0,0-2.682,2.5c0,1,.546,1.662,1.14,1.662s1.092-.678,1.452-1.9A11.947,11.947,0,0,0-5.706,4.2,1.6,1.6,0,0,1-4.254,5.876a1.726,1.726,0,0,1-1.452,1.7,3.708,3.708,0,0,1-.534.084l.354.564A2.309,2.309,0,0,0-3.624,5.894Zm-4.428.174a2.006,2.006,0,0,1,1.71-1.854,9.552,9.552,0,0,1-.33,1.548c-.276.924-.558,1.314-.828,1.314S-8.052,6.758-8.052,6.068ZM1.794,3.962H-.03v-.39H1.794Zm0,.774H-.03v-.4H1.794Zm.534-1.578H-.54V5.15H2.328ZM-.888,6.044l-.078-.5-.576.168V4.652h.636V4.136h-.636V2.978h-.51V4.136h-.7v.516h.7V5.858c-.282.078-.546.15-.756.2l.126.54.63-.192V7.8c0,.084-.03.108-.1.108s-.288,0-.528-.006a1.781,1.781,0,0,1,.15.516,1.7,1.7,0,0,0,.78-.108c.156-.084.21-.234.21-.51V6.248Zm2.028,1h1.2V6.6H1.14V5.972H2.646V5.516H-.822v.456H.618V7.724A1.359,1.359,0,0,1-.054,6.9a6.215,6.215,0,0,0,.114-.63l-.5-.06a2.761,2.761,0,0,1-.87,1.932A2.59,2.59,0,0,1-.9,8.474,2.6,2.6,0,0,0-.222,7.448a1.751,1.751,0,0,0,1.848.942H2.658A1.744,1.744,0,0,1,2.814,7.9c-.228.006-1,.006-1.17.006a3.448,3.448,0,0,1-.5-.03ZM4.686,2.978a6.613,6.613,0,0,1-1.422,2.31,4.043,4.043,0,0,1,.306.57,6.553,6.553,0,0,0,.5-.606V8.468h.546V4.394a9.122,9.122,0,0,0,.594-1.248Zm1.326,3.93A3.879,3.879,0,0,1,4.932,8.1a3.707,3.707,0,0,1,.444.354A5.281,5.281,0,0,0,6.54,7.076Zm1.326.258A6.843,6.843,0,0,1,8.352,8.474l.468-.3A7.324,7.324,0,0,0,7.788,6.92ZM6.42,4.724H7.452v1.35H6.42ZM8,6.074V4.724h.816V4.19H8V3.014H7.452V4.19H6.42V3.026H5.874V4.19h-.72v.534h.72v1.35H5.01V6.62H8.874V6.074Z" transform="translate(479 2928)" fill="#363636"/>
    <g id="グループ_4493" data-name="グループ 4493" transform="translate(9.884 -60.629)">
      <path id="パス_8619" data-name="パス 8619" d="M426.123,96.523v1.14h.8V96.524c-.13.01-.259.019-.392.019s-.276-.009-.412-.02" transform="translate(-10.931 2880.522)" fill="#e66084"/>
      <path id="パス_8620" data-name="パス 8620" d="M426.927,84.411v-1.14h-.8v1.141c.136-.011.273-.021.412-.021s.262.01.392.02" transform="translate(-10.931 2882.557)" fill="#e66084"/>
      <path id="パス_8621" data-name="パス 8621" d="M427.31,89.966a.836.836,0,0,0-.475-.753l-.412-4.018-.342,4.033a.837.837,0,1,0,1.229.737" transform="translate(-10.856 2882.262)" fill="#e66084"/>
      <path id="パス_8622" data-name="パス 8622" d="M432.914,85.544A8.563,8.563,0,0,0,428.392,81l-.113-.048-.49,1.152.113.047a7.2,7.2,0,0,1,2.3,1.563,7.313,7.313,0,0,1-2.3,11.883,7.212,7.212,0,0,1-7.945-1.563,7.313,7.313,0,0,1,2.3-11.883,7.127,7.127,0,0,1,1.822-.5V82.5L427.148,81l-3.065-1.506v.891a8.435,8.435,0,0,0-5.013,2.446,8.564,8.564,0,0,0,2.7,13.915,8.466,8.466,0,0,0,9.321-1.833,8.589,8.589,0,0,0,1.821-9.367" transform="translate(-9.466 2883.138)" fill="#e66084"/>
      <path id="パス_8623" data-name="パス 8623" d="M423.833,95.9c-.13-.063-.254-.131-.376-.2l-.466.8.37.214Z" transform="translate(-10.45 2880.65)" fill="#e66084"/>
      <path id="パス_8624" data-name="パス 8624" d="M430.543,84.214l-.37-.214-.659,1.141c.124.07.247.143.366.223Z" transform="translate(-11.451 2882.445)" fill="#e66084"/>
      <path id="パス_8625" data-name="パス 8625" d="M430.443,96.556l-.585-1.012c-.118.079-.24.153-.366.222l.58,1Z" transform="translate(-11.448 2880.673)" fill="#e66084"/>
      <path id="パス_8626" data-name="パス 8626" d="M431.772,93.506l1.087.628.215-.371-1.1-.637c-.063.13-.128.256-.2.379" transform="translate(-11.798 2881.044)" fill="#e66084"/>
      <path id="パス_8627" data-name="パス 8627" d="M423.248,84.1l-.37.214.543.942c.122-.074.247-.143.375-.207Z" transform="translate(-10.432 2882.43)" fill="#e66084"/>
      <path id="パス_8628" data-name="パス 8628" d="M420.626,86.579l-.214.371.859.5c.071-.124.146-.246.227-.363Z" transform="translate(-10.054 2882.049)" fill="#e66084"/>
      <path id="パス_8629" data-name="パス 8629" d="M431.675,87.295c.075.121.146.244.212.371l1.074-.62-.214-.37Z" transform="translate(-11.783 2882.034)" fill="#e66084"/>
      <path id="パス_8630" data-name="パス 8630" d="M433.714,90.094h-1.151c.011.134.02.267.02.4s-.009.269-.02.4h1.151Z" transform="translate(-11.92 2881.51)" fill="#e66084"/>
      <path id="パス_8631" data-name="パス 8631" d="M421.394,93.744c-.077-.119-.152-.241-.218-.367l-.878.506.214.371Z" transform="translate(-10.036 2881.005)" fill="#e66084"/>
      <path id="パス_8632" data-name="パス 8632" d="M419.323,90.094V90.9h1.13c-.011-.134-.021-.267-.021-.4s.01-.269.021-.4Z" transform="translate(-9.887 2881.51)" fill="#e66084"/>
    </g>
    <g id="グループ_4491" data-name="グループ 4491" transform="translate(4.209 -61.154)">
      <path id="パス_8636" data-name="パス 8636" d="M376.65,85.429c-1.427-.109-2.212-.211-2.588,1.182l-1.348-.327a3.07,3.07,0,0,0-.249-2.525,2.969,2.969,0,0,0-1.428-1.266,3.017,3.017,0,0,0-3.675,4.478,3.077,3.077,0,0,0,3.8,1.042c.122.38.245.762.367,1.14-1.206.261-1.54,1.205-1.063,2.909-.4,0-.784.017-1.17-.005a.579.579,0,0,1-.575-.57c0-.04,0-.081-.007-.121-.08-1.129-.082-1.123-1.1-1.547a.631.631,0,0,0-.713.095c-.216.183-.428.371-.648.55a.578.578,0,0,1-.837-.029q-.383-.361-.743-.745a.564.564,0,0,1-.032-.8,5.232,5.232,0,0,0,.56-.688,2,2,0,0,0,.1-.669c0-.023-.027-.047-.032-.073-.165-.826-.707-1.082-1.5-1.054-.523.018-.717-.226-.724-.753,0-.27-.006-.54,0-.81a.62.62,0,0,1,.653-.7c.041,0,.081,0,.121-.008,1.3-.115.992-.028,1.495-1.209a.787.787,0,0,0-.124-.586,5.667,5.667,0,0,0-.539-.655.579.579,0,0,1,.02-.838q.358-.385.744-.744a.582.582,0,0,1,.808-.04.856.856,0,0,1,.185.155,1.222,1.222,0,0,0,1.837.226.99.99,0,0,0,.376-.517,4.662,4.662,0,0,0,.087-.843.591.591,0,0,1,.63-.6c.337-.011.675-.012,1.012,0a.59.59,0,0,1,.625.6c.006.053,0,.108.009.162.116,1.3.031,1,1.206,1.5a.792.792,0,0,0,.588-.121,5.834,5.834,0,0,0,.655-.539.582.582,0,0,1,.838.019c.257.239.5.489.744.744a.579.579,0,0,1,.042.806.82.82,0,0,1-.156.186,1.222,1.222,0,0,0-.227,1.836,1.1,1.1,0,0,0,.556.383,2.957,2.957,0,0,0,.721.078c.487.04.675.233.685.713,0,.186,0,.373,0,.585" transform="translate(-4.26 2884.685)" fill="#e66084"/>
      <path id="パス_8637" data-name="パス 8637" d="M374.3,88.424c.221.164.382.266.524.389.212.183.4.339.721.2s.623-.267.634-.714c.006-.221.1-.589.228-.628a2.193,2.193,0,0,1,1.021-.011c.11.022.225.331.228.511a.758.758,0,0,0,.554.814.72.72,0,0,0,.8-.151c.172-.141.5-.329.612-.26a2.662,2.662,0,0,1,.73.767c.05.074-.1.331-.206.457-.474.541-.389.508-.086,1.162.07.149.382.187.585.269s.559.126.584.243a2.8,2.8,0,0,1-.015,1.054c-.015.09-.293.174-.457.19-.637.06-.808.167-.9.783-.027.174.145.381.226.573.088.212.31.508.24.619a2.528,2.528,0,0,1-.771.722c-.081.052-.341-.119-.484-.232a.805.805,0,0,0-1.2-.021,1,1,0,0,0-.191.557c-.036.242.011.567-.286.61a2.991,2.991,0,0,1-1.054-.074c-.085-.019-.138-.308-.156-.479-.063-.57-.272-.834-.824-.87-.174-.012-.354.163-.536.242-.21.093-.511.307-.621.235a2.4,2.4,0,0,1-.708-.781c-.053-.09.124-.382.263-.508.341-.312.25-.614.1-.977-.138-.338-.39-.37-.683-.387-.581-.033-.636-.094-.637-.671,0-.09.007-.182,0-.272-.029-.379.147-.56.523-.544a.792.792,0,0,0,.88-.575c.153-.4-.045-.592-.235-.858-.114-.16-.255-.456-.185-.562a5.734,5.734,0,0,1,.779-.818m4.564,3.517a1.948,1.948,0,1,0-1.909,1.982,1.955,1.955,0,0,0,1.909-1.982" transform="translate(-5.483 2883.809)" fill="#e66084"/>
    </g>
    <g id="グループ_4490" data-name="グループ 4490" transform="translate(-0.687 -60.621)">
      <path id="パス_8657" data-name="パス 8657" d="M34.6,199.043l.188,1.963.786-1.808-.427,1.925,1.306-1.477-1,1.7,1.7-1-1.477,1.306,1.925-.427-1.808.786,1.963.188-1.963.189,1.808.786-1.925-.428,1.477,1.306-1.7-1,1,1.7-1.306-1.477.427,1.925-.786-1.808-.188,1.963-.188-1.963-.786,1.808.427-1.925-1.306,1.477,1-1.7-1.7,1,1.477-1.306-1.925.428,1.808-.786-1.963-.189,1.963-.188-1.808-.786,1.925.427-1.477-1.306,1.7,1-1-1.7,1.306,1.477-.427-1.925.786,1.808Z" transform="translate(273.237 2766.212)" fill="#e66084"/>
      <path id="パス_8658" data-name="パス 8658" d="M51.717,201.736l.774,1.417,1.174-1.109.3,1.587,1.459-.692-.207,1.6,1.6-.207-.691,1.459,1.587.3L56.6,207.265l1.417.774-1.417.774,1.109,1.174-1.587.3.691,1.459-1.6-.207.207,1.6-1.459-.691-.3,1.587-1.174-1.108-.774,1.417-.774-1.417-1.174,1.108-.3-1.587-1.459.691.207-1.6-1.6.207.691-1.459-1.587-.3,1.109-1.174-1.417-.774,1.417-.774-1.109-1.174,1.587-.3-.691-1.459,1.6.207-.207-1.6,1.459.692.3-1.587,1.174,1.109Z" transform="translate(266.102 2765.095)" fill="#e66084"/>
      <path id="パス_8659" data-name="パス 8659" d="M76.67,196.566l.43,1.488.868-1.282-.051,1.548,1.222-.951-.526,1.456,1.456-.526-.951,1.222,1.548-.051-1.282.869,1.488.43-1.488.43,1.282.869-1.548-.051.951,1.222-1.456-.526.526,1.456-1.222-.951.051,1.548-.868-1.282-.43,1.488-.43-1.488-.868,1.282.051-1.548-1.222.951.526-1.456-1.456.526.951-1.222-1.548.051,1.282-.869-1.488-.43,1.488-.43-1.282-.869,1.548.051L73.27,198.3l1.456.526-.526-1.456,1.222.951-.051-1.548.868,1.282Z" transform="translate(251.654 2767.639)" fill="#e66084"/>
    </g>
    <g id="グループ_4492" data-name="グループ 4492" transform="translate(13.184 -60.679)">
      <g id="グループ_4177" data-name="グループ 4177" transform="translate(477.138 2967.949) rotate(110)">
        <g id="グループ_4176" data-name="グループ 4176" transform="translate(0 0)" clip-path="url(#clip-path)">
          <path id="パス_7890" data-name="パス 7890" d="M.5,3.654l-.16-.16A1.018,1.018,0,0,1,.2,2.131L2.007.323S2.6-.329,3.145.22l.4.4Z" transform="translate(0.052 7.826)" fill="#e66084"/>
          <path id="パス_7891" data-name="パス 7891" d="M.617,3.542l-.4-.4c-.549-.549.1-1.138.1-1.138L2.131.2A1.018,1.018,0,0,1,3.494.344l.16.16Z" transform="translate(7.731 0.147)" fill="#e66084"/>
          <path id="パス_7892" data-name="パス 7892" d="M0,10.829,3.037,7.791l.273.273s.247.421,1.182-.342A16.679,16.679,0,0,0,6.158,6.209l.025-.025.025-.025A16.721,16.721,0,0,0,7.723,4.493c.763-.935.342-1.182.342-1.182l-.273-.273L10.829,0l.047.047a1.97,1.97,0,0,1,.57,1.124c.009,1.2-.1,3.83-3.262,7l-.007.007-.007.007h0c-3.168,3.16-5.8,3.271-7,3.262a1.97,1.97,0,0,1-1.124-.57L0,10.829" transform="translate(0.942 1.037)" fill="#e66084"/>
        </g>
      </g>
      <path id="パス_8583" data-name="パス 8583" d="M474.5,207.6a.508.508,0,0,0,.6-.395,3.549,3.549,0,0,0-1.362-3.6.51.51,0,0,0-.605.821,2.521,2.521,0,0,1,.862,1.139,2.55,2.55,0,0,1,.107,1.428.509.509,0,0,0,.395.6" transform="translate(-0.236 2763.176)" fill="#e66084"/>
      <path id="パス_8584" data-name="パス 8584" d="M478.628,205.638a6.417,6.417,0,0,0-2.362-6.247.51.51,0,0,0-.626.805,5.4,5.4,0,0,1,1.986,5.252.509.509,0,0,0,.406.6.518.518,0,0,0,.1.009.51.51,0,0,0,.5-.416" transform="translate(-1.59 2765.551)" fill="#e66084"/>
      <path id="パス_8588" data-name="パス 8588" d="M430.111,212.126h.894l.87,2.983.878-2.983h.87l-1.368,3.93h-.791Z" transform="translate(22.705 2757.795)" fill="#e66084"/>
      <path id="パス_8757" data-name="パス 8757" d="M0,0H.832V3.93H0Z" transform="translate(457.039 2969.921)" fill="#e66084"/>
      <path id="パス_8589" data-name="パス 8589" d="M444.972,214.643h-.85v1.413h-.832v-3.93h1.745a1.441,1.441,0,0,1,.962.3,1.166,1.166,0,0,1,.359.941,1.2,1.2,0,0,1-.359.984,1.606,1.606,0,0,1-1.025.288m.391-.819a.563.563,0,0,0,.163-.447.527.527,0,0,0-.164-.437.726.726,0,0,0-.461-.131h-.78v1.156h.78a.687.687,0,0,0,.462-.141" transform="translate(15.659 2757.795)" fill="#e66084"/>
    </g>
    <path id="パス_8758" data-name="パス 8758" d="M2.088.08a1.758,1.758,0,0,0,1.73-1.969,1.762,1.762,0,0,0-1.73-1.979A1.762,1.762,0,0,0,.358-1.889,1.758,1.758,0,0,0,2.088.08Zm0-.527C1.3-.447.945-1.124.945-1.889S1.3-3.341,2.088-3.341s1.143.686,1.143,1.452S2.874-.447,2.088-.447ZM4.713,0H5.3V-2.416a.9.9,0,0,1,.964-.895,1.794,1.794,0,0,1,.358.04v-.6c-.067,0-.221-.01-.308-.01a1.039,1.039,0,0,0-.994.636H5.28v-.577H4.713Z" transform="translate(415.043 2789)" fill="#fff"/>
    <path id="パス_8759" data-name="パス 8759" d="M2.088.08a1.758,1.758,0,0,0,1.73-1.969,1.762,1.762,0,0,0-1.73-1.979A1.762,1.762,0,0,0,.358-1.889,1.758,1.758,0,0,0,2.088.08Zm0-.527C1.3-.447.945-1.124.945-1.889S1.3-3.341,2.088-3.341s1.143.686,1.143,1.452S2.874-.447,2.088-.447ZM4.713,0H5.3V-2.416a.9.9,0,0,1,.964-.895,1.794,1.794,0,0,1,.358.04v-.6c-.067,0-.221-.01-.308-.01a1.039,1.039,0,0,0-.994.636H5.28v-.577H4.713Z" transform="translate(452.043 2789)" fill="#fff"/>
    <path id="パス_8760" data-name="パス 8760" d="M5,0H21a5,5,0,0,1,0,10H5A5,5,0,0,1,5,0Z" transform="translate(387 2782)" fill="#fff"/>
    <path id="パス_8761" data-name="パス 8761" d="M5,0H21a5,5,0,0,1,0,10H5A5,5,0,0,1,5,0Z" transform="translate(424 2782)" fill="#fff"/>
    <path id="パス_8762" data-name="パス 8762" d="M5,0H22a5,5,0,0,1,0,10H5A5,5,0,0,1,5,0Z" transform="translate(461 2782)" fill="#fff"/>
    <path id="パス_8763" data-name="パス 8763" d="M.264,0H3.03V-.474H1.812c-.222,0-.492.024-.72.042C2.124-1.41,2.814-2.3,2.814-3.18a1.207,1.207,0,0,0-1.278-1.3,1.682,1.682,0,0,0-1.3.648l.318.312a1.232,1.232,0,0,1,.912-.51.773.773,0,0,1,.81.87c0,.756-.636,1.632-2.016,2.838Zm4.8-1.344V-2.532H6.408v1.188Zm3.966,0H6.858V-2.532H8.616v-.42H6.858v-.912h1.9V-4.3H5.178c.1-.2.192-.42.276-.63L5-5.034a5.077,5.077,0,0,1-1.35,2.07,2.762,2.762,0,0,1,.384.282A5.544,5.544,0,0,0,4.95-3.864H6.408v.912H4.62v1.608H3.636v.432H6.408V.462h.45V-.912H9.03Zm2.6-3.072v.5h-1.3v-.5Zm-1.3,1.356v-.528h1.3v.528Zm1.722.342V-4.764H9.888V.462h.444v-3.18Zm.966.8v.552H11.61V-1.92ZM11.61-.45v-.582h1.41V-.45ZM13.434-.1V-2.268H11.208V.2h.4V-.1Zm-.42-2.958v-.534h1.344v.534Zm1.344-1.362v.5H13.014v-.5Zm.45-.348h-2.22v2.052h1.77V-.138c0,.108-.036.144-.138.144S13.746.018,13.38,0a1.643,1.643,0,0,1,.156.456A3.415,3.415,0,0,0,14.544.378c.2-.078.264-.228.264-.51Z" transform="translate(393 2789)" fill="#00c8ac"/>
    <path id="パス_8764" data-name="パス 8764" d="M1.584.078a1.28,1.28,0,0,0,1.41-1.254,1.131,1.131,0,0,0-.93-1.116v-.024a1.1,1.1,0,0,0,.78-1.062,1.13,1.13,0,0,0-1.278-1.1,1.761,1.761,0,0,0-1.23.528l.294.348a1.284,1.284,0,0,1,.912-.426.675.675,0,0,1,.744.7c0,.474-.312.84-1.218.84v.42c1.014,0,1.368.354,1.368.876a.811.811,0,0,1-.894.822A1.454,1.454,0,0,1,.45-.882l-.276.36A1.821,1.821,0,0,0,1.584.078Zm3.48-1.422V-2.532H6.408v1.188Zm3.966,0H6.858V-2.532H8.616v-.42H6.858v-.912h1.9V-4.3H5.178c.1-.2.192-.42.276-.63L5-5.034a5.077,5.077,0,0,1-1.35,2.07,2.762,2.762,0,0,1,.384.282A5.544,5.544,0,0,0,4.95-3.864H6.408v.912H4.62v1.608H3.636v.432H6.408V.462h.45V-.912H9.03Zm2.6-3.072v.5h-1.3v-.5Zm-1.3,1.356v-.528h1.3v.528Zm1.722.342V-4.764H9.888V.462h.444v-3.18Zm.966.8v.552H11.61V-1.92ZM11.61-.45v-.582h1.41V-.45ZM13.434-.1V-2.268H11.208V.2h.4V-.1Zm-.42-2.958v-.534h1.344v.534Zm1.344-1.362v.5H13.014v-.5Zm.45-.348h-2.22v2.052h1.77V-.138c0,.108-.036.144-.138.144S13.746.018,13.38,0a1.643,1.643,0,0,1,.156.456A3.415,3.415,0,0,0,14.544.378c.2-.078.264-.228.264-.51Z" transform="translate(430 2789)" fill="#00c8ac"/>
    <path id="パス_8765" data-name="パス 8765" d="M.69-1.65l1-1.5c.126-.216.246-.432.354-.648H2.07c-.012.228-.03.582-.03.8v1.35ZM2.04,0h.516V-1.212h.582V-1.65H2.556V-4.4H1.95L.12-1.572v.36H2.04ZM5.064-1.344V-2.532H6.408v1.188Zm3.966,0H6.858V-2.532H8.616v-.42H6.858v-.912h1.9V-4.3H5.178c.1-.2.192-.42.276-.63L5-5.034a5.077,5.077,0,0,1-1.35,2.07,2.762,2.762,0,0,1,.384.282A5.544,5.544,0,0,0,4.95-3.864H6.408v.912H4.62v1.608H3.636v.432H6.408V.462h.45V-.912H9.03Zm2.6-3.072v.5h-1.3v-.5Zm-1.3,1.356v-.528h1.3v.528Zm1.722.342V-4.764H9.888V.462h.444v-3.18Zm.966.8v.552H11.61V-1.92ZM11.61-.45v-.582h1.41V-.45ZM13.434-.1V-2.268H11.208V.2h.4V-.1Zm-.42-2.958v-.534h1.344v.534Zm1.344-1.362v.5H13.014v-.5Zm.45-.348h-2.22v2.052h1.77V-.138c0,.108-.036.144-.138.144S13.746.018,13.38,0a1.643,1.643,0,0,1,.156.456A3.415,3.415,0,0,0,14.544.378c.2-.078.264-.228.264-.51Z" transform="translate(467 2789)" fill="#00c8ac"/>
  </g>
</svg>
