<svg xmlns="http://www.w3.org/2000/svg" xmlns:xlink="http://www.w3.org/1999/xlink" width="261.5" height="717" viewBox="0 0 261.5 717">
  <defs>
    <clipPath id="clip-path">
      <rect id="長方形_3555" data-name="長方形 3555" width="21.846" height="21.846" transform="translate(0)" fill="#e66084"/>
    </clipPath>
  </defs>
  <g id="グループ_4499" data-name="グループ 4499" transform="translate(-53 -4200)">
    <path id="パス_9111" data-name="パス 9111" d="M10,0H693a10,10,0,0,1,10,10V243a10,10,0,0,1-10,10H10A10,10,0,0,1,0,243V10A10,10,0,0,1,10,0Z" transform="translate(314 4214) rotate(90)" fill="#f5f5f5"/>
    <path id="パス_9112" data-name="パス 9112" d="M10,0H90V253H10A10,10,0,0,1,0,243V10A10,10,0,0,1,10,0Z" transform="translate(314 4214) rotate(90)" fill="#e66084"/>
    <path id="パス_9113" data-name="パス 9113" d="M-67.027-6.78v-.51H-65.6c.72,0,1.245.015,1.485.045v-1.59a9.968,9.968,0,0,1-1.5.09h-1.41v-1.74a9.781,9.781,0,0,1,.09-1.3h-1.695a10.357,10.357,0,0,1,.075,1.3v1.74h-3.96V-10.47a8.084,8.084,0,0,1,.09-1.2h-1.695a8.232,8.232,0,0,1,.09,1.2v1.725H-75.5a9.325,9.325,0,0,1-1.56-.12V-7.23c.24-.03.855-.06,1.56-.06h1.47v2.25c0,.63-.06,1.245-.075,1.455h1.665a13.337,13.337,0,0,1-.075-1.455V-7.29h3.96v.6c0,3.975-1.32,5.265-4.125,6.3l1.275,1.2C-67.9-.765-67.027-2.91-67.027-6.78Zm15.48-4.38a.89.89,0,0,1,.885-.9.9.9,0,0,1,.9.9.9.9,0,0,1-.9.9A.89.89,0,0,1-51.548-11.16Zm-.795,0a1.677,1.677,0,0,0,1.68,1.68,1.69,1.69,0,0,0,1.695-1.68,1.69,1.69,0,0,0-1.695-1.68A1.677,1.677,0,0,0-52.342-11.16Zm-2.31-.525h-1.77a6.39,6.39,0,0,1,.12,1.17V-9.12h-4.02a12.454,12.454,0,0,1-1.335-.09v1.575c.405-.03.885-.045,1.35-.045H-56.3v6.435c-.015.405-.18.555-.57.555a10.24,10.24,0,0,1-1.71-.165L-58.447.63a22.471,22.471,0,0,0,2.265.1c.99,0,1.41-.465,1.41-1.275V-7.68h3.78c.375,0,.885,0,1.32.03V-9.21a9.98,9.98,0,0,1-1.335.09h-3.765V-10.5A8.058,8.058,0,0,1-54.653-11.685Zm-3.4,6.24-1.335-.645a15.571,15.571,0,0,1-2.835,3.9l1.29.885A22.412,22.412,0,0,0-58.057-5.445Zm6.345-.66L-53-5.4a25.974,25.974,0,0,1,2.49,4.005l1.38-.78A32.232,32.232,0,0,0-51.713-6.105Zm5.16-.585v1.86c.51-.045,1.41-.075,2.235-.075h8.16c.66,0,1.35.06,1.68.075V-6.69c-.375.03-.96.09-1.68.09h-8.16C-45.127-6.6-46.057-6.66-46.552-6.69ZM-28.1-1.38a15.7,15.7,0,0,1-.12,1.92h1.845a17.575,17.575,0,0,1-.12-1.92V-6.015a39.277,39.277,0,0,1,5.67,2.34l.675-1.635A50.845,50.845,0,0,0-26.5-7.71v-2.34c0-.525.06-1.185.1-1.68h-1.845a10.859,10.859,0,0,1,.135,1.68Zm21.8-8.865h2.82V-12.72h-5.52v9.915h2.7Zm-2.145-1.92h4.41v1.35H-6.877V-3.36H-8.452ZM-1.552,0H.188V-4.185H1.853c2.4,0,4.155-1.11,4.155-3.525,0-2.49-1.755-3.345-4.215-3.345H-1.552ZM.188-5.58V-9.645h1.44c1.755,0,2.67.48,2.67,1.935s-.84,2.13-2.61,2.13ZM8,0H9.728V-5.145c.51-1.3,1.32-1.77,1.995-1.77a2.441,2.441,0,0,1,.825.135l.315-1.5a2.052,2.052,0,0,0-.93-.18,2.852,2.852,0,0,0-2.34,1.695H9.548L9.413-8.25H8Zm9.405.2a5.005,5.005,0,0,0,2.79-.87l-.6-1.1a3.5,3.5,0,0,1-1.965.615,2.491,2.491,0,0,1-2.55-2.52h5.355a4.472,4.472,0,0,0,.09-.885c0-2.325-1.185-3.9-3.375-3.9-1.92,0-3.765,1.665-3.765,4.335A3.968,3.968,0,0,0,17.408.2Zm-2.34-5.07A2.233,2.233,0,0,1,17.183-7.11c1.2,0,1.845.825,1.845,2.235ZM22.448,0h1.725V-5.85a2.729,2.729,0,0,1,1.845-1.125c.945,0,1.38.57,1.38,1.995V0h1.725V-5.85a2.754,2.754,0,0,1,1.86-1.125c.93,0,1.38.57,1.38,1.995V0h1.725V-5.19c0-2.1-.81-3.27-2.535-3.27a3.8,3.8,0,0,0-2.685,1.515,2.2,2.2,0,0,0-2.28-1.515A3.594,3.594,0,0,0,24.038-7.1h-.045L23.858-8.25h-1.41Zm14.13,0H38.3V-8.25H36.577Zm.855-9.8a1,1,0,0,0,1.08-1.035,1,1,0,0,0-1.08-1.02.989.989,0,0,0-1.065,1.02A.992.992,0,0,0,37.432-9.8ZM43.313.2A3.454,3.454,0,0,0,46-1.245h.045L46.177,0h1.41V-8.25H45.862v5.73c-.69.87-1.215,1.23-1.98,1.23-.975,0-1.38-.57-1.38-1.98V-8.25H40.778v5.19C40.778-.96,41.542.2,43.313.2Zm6.87-.2h1.725V-5.85a2.729,2.729,0,0,1,1.845-1.125c.945,0,1.38.57,1.38,1.995V0h1.725V-5.85a2.754,2.754,0,0,1,1.86-1.125c.93,0,1.38.57,1.38,1.995V0h1.725V-5.19c0-2.1-.81-3.27-2.535-3.27A3.8,3.8,0,0,0,56.6-6.945a2.2,2.2,0,0,0-2.28-1.515A3.594,3.594,0,0,0,51.773-7.1h-.045L51.593-8.25h-1.41ZM66.308-1.155h-2.82V1.32h5.52V-8.6h-2.7ZM68.452.765h-4.41V-.585h2.835V-8.04h1.575Z" transform="translate(188 4255)" fill="#fff"/>
    <path id="パス_9114" data-name="パス 9114" d="M-39.06-5.7a9.994,9.994,0,0,0,2.97,7.17l1.14-.54A9.335,9.335,0,0,1-37.71-5.7a9.335,9.335,0,0,1,2.76-6.63l-1.14-.54A9.994,9.994,0,0,0-39.06-5.7ZM-23.3-10.32h-6.96v-.855h6.96Zm0,1.755h-6.96v-.87h6.96Zm1.4-3.555h-9.69v4.485h9.69Zm-.45,8.19a7.069,7.069,0,0,1-1.365,1.89,6.611,6.611,0,0,1-1.26-1.89ZM-30.84-1.1V-2.07h2.355v.75Zm0-2.865h2.355v.885H-30.84Zm2.355-1.83v.84H-30.84v-.84Zm6.975.735-.24.045h-4.935v1.08h1.35l-.81.225A9.19,9.19,0,0,0-24.63-1.26,8.632,8.632,0,0,1-27.15,0V-5.79h6.93V-6.93H-33.36v1.14h1.23V-.975c-.495.045-.96.09-1.365.12l.1,1.215c1.365-.135,3.135-.33,4.905-.525V1.17h1.335V.105a4.369,4.369,0,0,1,.69,1.02,10.36,10.36,0,0,0,2.775-1.5A8.311,8.311,0,0,0-20.7,1.17,4.133,4.133,0,0,1-19.875.09,8.335,8.335,0,0,1-22.74-1.2a8.521,8.521,0,0,0,2.085-3.525Zm14.685.78A20.617,20.617,0,0,1-9.69-2.385a7.908,7.908,0,0,1-1.4-1.89Zm.03,0h1.7V-5.52h-9.36V-6.57h7.425V-7.68H-14.46V-8.715h7.425v-1.11H-14.46V-10.86H-6.6v-1.17h-9.27v6.51h-2.58v1.245h2.565v3.81c-.69.105-1.335.2-1.875.27l.33,1.275c1.785-.285,4.305-.69,6.66-1.1l-.075-1.23L-14.46-.69V-4.275h1.95a9.11,9.11,0,0,0,6.8,5.49A4.826,4.826,0,0,1-4.83-.03,10.1,10.1,0,0,1-8.775-1.62,22.885,22.885,0,0,0-5.67-3.51ZM-.255.2A3.642,3.642,0,0,0,3.465-3.63,3.175,3.175,0,0,0,.1-7.14a3.157,3.157,0,0,0-1.515.39l.255-2.835h4.1v-1.47h-5.6l-.33,5.25.84.555a2.9,2.9,0,0,1,1.77-.63,2.048,2.048,0,0,1,2.1,2.31A2.158,2.158,0,0,1-.465-1.215,3.533,3.533,0,0,1-3.045-2.4L-3.87-1.275A4.886,4.886,0,0,0-.255.2ZM8.82-3.48V-6.135h3.015V-3.48Zm9.72,0H13.275V-6.135H17.46V-7.44H13.275V-9.51H17.8v-1.35H9.12c.2-.45.4-.945.585-1.41l-1.41-.375A12.136,12.136,0,0,1,5.025-7.56a11.093,11.093,0,0,1,1.215.9A13.647,13.647,0,0,0,8.4-9.51h3.435v2.07H7.425v3.96H5.01v1.35h6.825V1.185h1.44V-2.13H18.54Zm6.3-7.455V-9.9H22.005v-1.035ZM22.005-7.8V-8.91H24.84V-7.8ZM26.16-6.765v-5.22H20.625V1.185h1.38v-7.95Zm2.52-1V-8.91h2.925v1.14Zm2.925-3.165V-9.9H28.68v-1.035Zm-6.39,9.69V-2.49H28.26v1.245ZM28.26-4.68v1.17H25.215V-4.68Zm4.755-7.305h-5.67v5.25h4.26V-.57c0,.255-.075.33-.345.345-.24,0-.96.015-1.695-.015V-5.73H23.94V.555h1.275V-.2h4.05A6.248,6.248,0,0,1,29.7,1.17,7.593,7.593,0,0,0,32.31.93c.54-.24.705-.69.705-1.485ZM39.06-5.7a9.994,9.994,0,0,0-2.97-7.17l-1.14.54A9.335,9.335,0,0,1,37.71-5.7,9.335,9.335,0,0,1,34.95.93l1.14.54A9.994,9.994,0,0,0,39.06-5.7Z" transform="translate(188 4276)" fill="#fff"/>
    <path id="パス_8428" data-name="パス 8428" d="M-6470.077,2369v164" transform="translate(-2220 -2146.077) rotate(-90)" fill="none" stroke="#707070" stroke-linecap="round" stroke-width="1" stroke-dasharray="0 3"/>
    <path id="パス_8428-2" data-name="パス 8428" d="M0,0V164" transform="translate(150 4555) rotate(-90)" fill="none" stroke="#707070" stroke-linecap="round" stroke-width="1" stroke-dasharray="0 3"/>
    <path id="パス_8428-3" data-name="パス 8428" d="M0,0V164" transform="translate(150 4440) rotate(-90)" fill="none" stroke="#707070" stroke-linecap="round" stroke-width="1" stroke-dasharray="0 3"/>
    <path id="パス_8428-4" data-name="パス 8428" d="M0,0V164" transform="translate(150 4671) rotate(-90)" fill="none" stroke="#707070" stroke-linecap="round" stroke-width="1" stroke-dasharray="0 3"/>
    <path id="パス_8428-5" data-name="パス 8428" d="M0,0V164" transform="translate(150 4786) rotate(-90)" fill="none" stroke="#707070" stroke-linecap="round" stroke-width="1" stroke-dasharray="0 3"/>
    <path id="パス_8428-6" data-name="パス 8428" d="M0,0V164" transform="translate(150 4902) rotate(-90)" fill="none" stroke="#707070" stroke-linecap="round" stroke-width="1" stroke-dasharray="0 3"/>
    <path id="パス_9115" data-name="パス 9115" d="M0,0H551V65H0Z" transform="translate(224 4324) rotate(90)" fill="#e66084"/>
    <path id="パス_8699" data-name="パス 8699" d="M0,81,30,40.5,0,0Z" transform="translate(232 4872) rotate(90)" fill="#e66084"/>
    <g id="グループ_4476" data-name="グループ 4476" transform="translate(-318 1932)">
      <g id="合体_41" data-name="合体 41" transform="translate(-4953.999 2889)" fill="#fff">
        <path d="M 5405 87.50004577636719 L 5342.99951171875 87.50004577636719 C 5337.76123046875 87.50004577636719 5333.49951171875 83.23845672607422 5333.49951171875 78.00025939941406 L 5333.49951171875 26.00054740905762 C 5333.49951171875 20.7623462677002 5337.76123046875 16.50075912475586 5342.99951171875 16.50075912475586 L 5405 16.50075912475586 C 5410.23828125 16.50075912475586 5414.5 20.7623462677002 5414.5 26.00054740905762 L 5414.5 45.33339691162109 L 5414.5 45.62758255004883 L 5414.75732421875 45.77045822143555 L 5425.97119140625 52.00105667114258 L 5414.75732421875 58.23078536987305 L 5414.5 58.37366104125977 L 5414.5 58.6678581237793 L 5414.5 78.00025939941406 C 5414.5 83.23845672607422 5410.23828125 87.50004577636719 5405 87.50004577636719 Z" stroke="none"/>
        <path d="M 5405 87.00004577636719 C 5409.96240234375 87.00004577636719 5414 82.96276092529297 5414 78.00025939941406 L 5414 58.07944488525391 L 5424.94140625 52.00102615356445 L 5414 45.92177200317383 L 5414 26.00054740905762 C 5414 21.03804588317871 5409.96240234375 17.00075912475586 5405 17.00075912475586 L 5342.99951171875 17.00075912475586 C 5338.037109375 17.00075912475586 5333.99951171875 21.03804588317871 5333.99951171875 26.00054740905762 L 5333.99951171875 78.00025939941406 C 5333.99951171875 82.96276092529297 5338.037109375 87.00004577636719 5342.99951171875 87.00004577636719 L 5405 87.00004577636719 M 5405 88.00004577636719 L 5342.99951171875 88.00004577636719 C 5337.4765625 88.00004577636719 5332.99951171875 83.52316284179688 5332.99951171875 78.00025939941406 L 5332.99951171875 26.00054740905762 C 5332.99951171875 20.47763442993164 5337.4765625 16.00075912475586 5342.99951171875 16.00075912475586 L 5405 16.00075912475586 C 5410.52294921875 16.00075912475586 5415 20.47763442993164 5415 26.00054740905762 L 5415 45.33339691162109 L 5427.00048828125 52.00108337402344 L 5415 58.6678581237793 L 5415 78.00025939941406 C 5415 83.52316284179688 5410.52294921875 88.00004577636719 5405 88.00004577636719 Z" stroke="none" fill="#e66084"/>
      </g>
      <path id="パス_9116" data-name="パス 9116" d="M-28.721-.22A9.108,9.108,0,0,0-30.4-1.694l-.77.55A8.3,8.3,0,0,1-29.535.407Zm-2.057-4.554h2.354v.748h-2.354Zm0-1.441h2.354v.759h-2.354Zm5.786,0v.759h-2.431v-.759Zm0,2.189h-2.431v-.748h2.431Zm2.024,1.463H-25.4V-3.3h1.408V-6.93h-3.432v-.627h4.2v-.869h-4.2v-.792h-1v.792h-4.1v.869h4.1v.627h-3.311V-3.3H-26.4v.737h-6.391v.869H-26.4V-.2c0,.154-.055.2-.231.209s-.869,0-1.529-.022a3.865,3.865,0,0,1,.33.9A7.153,7.153,0,0,0-25.9.748c.4-.143.506-.4.506-.913V-1.694h2.431Zm6.9-.8V-4.994h2.662v1.628Zm-3.454,0c.033-.407.044-.814.044-1.188v-.44h2.387v1.628ZM-17.094-7.5v1.551h-2.387V-7.5Zm3.685,1.551h-2.662V-7.5h2.662Zm1.023-2.53h-8.107v3.916c0,1.551-.11,3.5-1.309,4.829a3.386,3.386,0,0,1,.8.671A6.31,6.31,0,0,0-19.624-2.4h2.53V.748h1.023V-2.4h2.662V-.429c0,.209-.077.275-.275.275s-.935.011-1.639-.022a4.227,4.227,0,0,1,.341.99A6.022,6.022,0,0,0-12.925.638c.4-.154.539-.462.539-1.056Zm9.922-.462-.7.3A11.293,11.293,0,0,1-2.387-7.3l-.044-.022a2.512,2.512,0,0,1-.814.11H-5.9c.044-.077.077-.143.121-.22.121-.22.352-.649.572-.979L-6.457-8.8a4.233,4.233,0,0,1-.429.979,10.054,10.054,0,0,1-3.509,3.762l.935.715a12.458,12.458,0,0,0,2.9-2.882h3.465A8.772,8.772,0,0,1-4.455-3.443c-.737-.506-1.507-1-2.167-1.386l-.759.781c.638.4,1.419.935,2.178,1.5A9.473,9.473,0,0,1-9.35-.022l.99.869A10.382,10.382,0,0,0-4.279-1.859c.462.363.869.7,1.188.99l.814-.979c-.341-.275-.77-.6-1.243-.946A11.623,11.623,0,0,0-1.837-6.105a3.765,3.765,0,0,1,.308-.671l-.649-.4.605-.264A15.941,15.941,0,0,0-2.464-8.943Zm1.243-.462-.7.3a10.919,10.919,0,0,1,.9,1.507l.715-.308A13,13,0,0,0-1.221-9.405ZM1.111-4.1,1.65-3.014A22.506,22.506,0,0,0,5.709-4.719V-.891a12.747,12.747,0,0,1-.066,1.3H7.007a8.272,8.272,0,0,1-.077-1.3V-5.456A18.556,18.556,0,0,0,9.889-7.865l-.924-.88A13.578,13.578,0,0,1,5.907-6.127,18.164,18.164,0,0,1,1.111-4.1Zm13.871-4.73-1.276.286a4.6,4.6,0,0,1,.33.891c.077.253.22.759.385,1.386-.726.143-1.276.242-1.463.275-.418.066-.759.1-1.166.143L12.1-4.675c.374-.088,1.408-.308,2.607-.55.506,1.881,1.122,4.2,1.3,4.818a8.2,8.2,0,0,1,.22.99L17.512.275c-.088-.253-.242-.7-.308-.935-.2-.66-.8-2.882-1.342-4.807,1.749-.352,3.5-.7,3.828-.759a11.9,11.9,0,0,1-2.222,2.64l1.111.528a18.281,18.281,0,0,0,2.772-3.894l-.781-.572a2.23,2.23,0,0,1-.561.176c-.473.11-2.618.517-4.433.858-.154-.561-.3-1.067-.407-1.452A8.19,8.19,0,0,1,14.982-8.833ZM28.05-.242l.726.605a3.419,3.419,0,0,1,.418-.275,11.574,11.574,0,0,0,3.751-3.036l-.671-.946a7.738,7.738,0,0,1-2.992,2.53V-7.447a6.625,6.625,0,0,1,.055-.88H28.061a8.062,8.062,0,0,1,.066.88V-.935A3.173,3.173,0,0,1,28.05-.242Zm-5.071-.1,1.056.7a6.18,6.18,0,0,0,1.958-3.08,24.1,24.1,0,0,0,.341-4.7,8.234,8.234,0,0,1,.055-.88H25.113A3.428,3.428,0,0,1,25.2-7.4a19.073,19.073,0,0,1-.319,4.389A5.092,5.092,0,0,1,22.979-.341ZM-6.644,11.139a4.072,4.072,0,0,0-4.312-4.147,4.768,4.768,0,0,0-4.917,4.576c0,1.837,1,3.047,2.09,3.047s2-1.243,2.662-3.487a21.9,21.9,0,0,0,.66-3.091A2.925,2.925,0,0,1-7.8,11.106a3.164,3.164,0,0,1-2.662,3.124,6.8,6.8,0,0,1-.979.154l.649,1.034C-8.118,15.033-6.644,13.449-6.644,11.139Zm-8.118.319a3.677,3.677,0,0,1,3.135-3.4,17.513,17.513,0,0,1-.6,2.838c-.506,1.694-1.023,2.409-1.518,2.409C-14.223,13.306-14.762,12.723-14.762,11.458ZM3.289,7.6H-.055V6.882H3.289Zm0,1.419H-.055V8.29H3.289Zm.979-2.893H-.99V9.775H4.268Zm-5.9,5.291-.143-.924-1.056.308V8.862h1.166V7.916H-2.827V5.793h-.935V7.916H-5.038v.946h1.276v2.211c-.517.143-1,.275-1.386.374l.231.99,1.155-.352v2.552c0,.154-.055.2-.187.2s-.528,0-.968-.011a3.265,3.265,0,0,1,.275.946,3.117,3.117,0,0,0,1.43-.2c.286-.154.385-.429.385-.935V11.788ZM2.09,13.24h2.2v-.814H2.09V11.282H4.851v-.836H-1.507v.836h2.64v3.212A2.491,2.491,0,0,1-.1,12.976,11.4,11.4,0,0,0,.11,11.821l-.924-.11a5.061,5.061,0,0,1-1.6,3.542,4.749,4.749,0,0,1,.759.616A4.774,4.774,0,0,0-.407,13.988c.715,1.452,1.859,1.727,3.388,1.727H4.873a3.2,3.2,0,0,1,.286-.9c-.418.011-1.837.011-2.145.011a6.321,6.321,0,0,1-.924-.055Zm6.5-7.447a12.124,12.124,0,0,1-2.607,4.235,7.412,7.412,0,0,1,.561,1.045,12.013,12.013,0,0,0,.913-1.111v5.9h1V8.389A16.723,16.723,0,0,0,9.548,6.1ZM11.022,13a7.111,7.111,0,0,1-1.98,2.189,6.8,6.8,0,0,1,.814.649,9.683,9.683,0,0,0,2.134-2.53Zm2.431.473a12.546,12.546,0,0,1,1.859,2.4l.858-.55a13.428,13.428,0,0,0-1.892-2.3ZM11.77,8.994h1.892v2.475H11.77Zm2.893,2.475V8.994h1.5V8.015h-1.5V5.859h-1V8.015H11.77V5.881h-1V8.015H9.449v.979h1.32v2.475H9.185v1h7.084v-1Z" transform="translate(420 2955)" fill="#363636"/>
      <g id="グループ_4352" data-name="グループ 4352" transform="translate(94.896 583.316)">
        <g id="グループ_4177" data-name="グループ 4177" transform="translate(346.668 2335.156) rotate(110)">
          <g id="グループ_4176" data-name="グループ 4176" transform="translate(0 0)" clip-path="url(#clip-path)">
            <path id="パス_7890" data-name="パス 7890" d="M.882,6.395.6,6.115A1.782,1.782,0,0,1,.35,3.729L3.512.566S4.541-.577,5.5.385L6.2,1.08Z" transform="translate(0.091 13.695)" fill="#e66084"/>
            <path id="パス_7891" data-name="パス 7891" d="M1.079,6.2.385,5.5c-.962-.962.181-1.991.181-1.991L3.728.35A1.782,1.782,0,0,1,6.115.6l.28.28Z" transform="translate(13.528 0.258)" fill="#e66084"/>
            <path id="パス_7892" data-name="パス 7892" d="M0,18.95l5.315-5.315.478.478s.432.737,2.069-.6a29.188,29.188,0,0,0,2.914-2.65l.044-.044.044-.044a29.261,29.261,0,0,0,2.65-2.913c1.335-1.637.6-2.069.6-2.069l-.478-.478L18.95,0l.082.082a3.448,3.448,0,0,1,1,1.968c.015,2.1-.178,6.7-5.709,12.246l-.013.013-.013.013h0C8.752,19.852,4.147,20.045,2.05,20.03a3.448,3.448,0,0,1-1.967-1L0,18.95" transform="translate(1.649 1.815)" fill="#e66084"/>
          </g>
        </g>
        <path id="パス_8583" data-name="パス 8583" d="M475.681,210.668a.889.889,0,0,0,1.056-.691,6.21,6.21,0,0,0-2.383-6.294.892.892,0,0,0-1.06,1.436,4.412,4.412,0,0,1,1.509,1.994,4.463,4.463,0,0,1,.186,2.5.891.891,0,0,0,.691,1.056" transform="translate(-134.036 2129.435)" fill="#e66084"/>
        <path id="パス_8584" data-name="パス 8584" d="M481.017,210.4a11.23,11.23,0,0,0-4.133-10.931.893.893,0,0,0-1.1,1.409,9.443,9.443,0,0,1,3.475,9.191.891.891,0,0,0,.711,1.042.907.907,0,0,0,.167.016.893.893,0,0,0,.876-.727" transform="translate(-134.524 2130.423)" fill="#e66084"/>
        <path id="パス_8588" data-name="パス 8588" d="M430.111,212.126h1.565l1.522,5.221,1.537-5.221h1.522L433.864,219H432.48Z" transform="translate(-126.006 2126.481)" fill="#e66084"/>
        <path id="パス_9117" data-name="パス 9117" d="M0,0H1.456V6.877H0Z" transform="translate(311.494 2338.607)" fill="#e66084"/>
        <path id="パス_8589" data-name="パス 8589" d="M446.234,216.531h-1.488V219H443.29v-6.877h3.054a2.522,2.522,0,0,1,1.684.533,2.04,2.04,0,0,1,.628,1.646,2.094,2.094,0,0,1-.628,1.723,2.81,2.81,0,0,1-1.794.5m.685-1.433a.985.985,0,0,0,.285-.783.921.921,0,0,0-.287-.765,1.271,1.271,0,0,0-.807-.229h-1.364v2.024h1.364a1.2,1.2,0,0,0,.809-.247" transform="translate(-128.452 2126.481)" fill="#e66084"/>
      </g>
    </g>
    <g id="グループ_4464" data-name="グループ 4464" transform="translate(-318 1857.001)">
      <g id="合体_41-2" data-name="合体 41" transform="translate(-4953.999 2889)" fill="#fff">
        <path d="M 5405 87.50004577636719 L 5342.99951171875 87.50004577636719 C 5337.76123046875 87.50004577636719 5333.49951171875 83.23845672607422 5333.49951171875 78.00025939941406 L 5333.49951171875 26.00054740905762 C 5333.49951171875 20.7623462677002 5337.76123046875 16.50075912475586 5342.99951171875 16.50075912475586 L 5405 16.50075912475586 C 5410.23828125 16.50075912475586 5414.5 20.7623462677002 5414.5 26.00054740905762 L 5414.5 45.33339691162109 L 5414.5 45.62758255004883 L 5414.75732421875 45.77045822143555 L 5425.97119140625 52.00105667114258 L 5414.75732421875 58.23078536987305 L 5414.5 58.37366104125977 L 5414.5 58.6678581237793 L 5414.5 78.00025939941406 C 5414.5 83.23845672607422 5410.23828125 87.50004577636719 5405 87.50004577636719 Z" stroke="none"/>
        <path d="M 5405 87.00004577636719 C 5409.96240234375 87.00004577636719 5414 82.96276092529297 5414 78.00025939941406 L 5414 58.07944488525391 L 5424.94140625 52.00102615356445 L 5414 45.92177200317383 L 5414 26.00054740905762 C 5414 21.03804588317871 5409.96240234375 17.00075912475586 5405 17.00075912475586 L 5342.99951171875 17.00075912475586 C 5338.037109375 17.00075912475586 5333.99951171875 21.03804588317871 5333.99951171875 26.00054740905762 L 5333.99951171875 78.00025939941406 C 5333.99951171875 82.96276092529297 5338.037109375 87.00004577636719 5342.99951171875 87.00004577636719 L 5405 87.00004577636719 M 5405 88.00004577636719 L 5342.99951171875 88.00004577636719 C 5337.4765625 88.00004577636719 5332.99951171875 83.52316284179688 5332.99951171875 78.00025939941406 L 5332.99951171875 26.00054740905762 C 5332.99951171875 20.47763442993164 5337.4765625 16.00075912475586 5342.99951171875 16.00075912475586 L 5405 16.00075912475586 C 5410.52294921875 16.00075912475586 5415 20.47763442993164 5415 26.00054740905762 L 5415 45.33339691162109 L 5427.00048828125 52.00108337402344 L 5415 58.6678581237793 L 5415 78.00025939941406 C 5415 83.52316284179688 5410.52294921875 88.00004577636719 5405 88.00004577636719 Z" stroke="none" fill="#e66084"/>
      </g>
      <path id="パス_9118" data-name="パス 9118" d="M-25.5-7.568h-5.1V-8.2h5.1Zm0,1.287h-5.1v-.638h5.1Zm1.023-2.607h-7.106V-5.6h7.106Zm-.33,6.006a5.184,5.184,0,0,1-1,1.386,4.848,4.848,0,0,1-.924-1.386ZM-31.031-.8v-.715H-29.3v.55Zm0-2.1H-29.3v.649h-1.727ZM-29.3-4.246v.616h-1.727v-.616Zm5.115.539-.176.033h-3.619v.792h.99l-.594.165A6.739,6.739,0,0,0-26.477-.924,6.33,6.33,0,0,1-28.325,0V-4.246h5.082v-.836h-9.636v.836h.9V-.715c-.363.033-.7.066-1,.088l.077.891c1-.1,2.3-.242,3.6-.385V.858h.979V.077a3.2,3.2,0,0,1,.506.748,7.6,7.6,0,0,0,2.035-1.1A6.1,6.1,0,0,0-23.595.858,3.031,3.031,0,0,1-22.99.066a6.112,6.112,0,0,1-2.1-.946,6.249,6.249,0,0,0,1.529-2.585Zm12.276-5.06h-5.566v.946h5.566ZM-13.321-4.2H-16.1V-5.874h2.783Zm1-2.574h-4.73v3.465h4.73ZM-13.5-.451c.275-.583.594-1.529.88-2.354l-1.012-.22a15.083,15.083,0,0,1-.726,2.354Zm-1.815-.3a9.122,9.122,0,0,0-.572-2.211l-.869.209a10.364,10.364,0,0,1,.517,2.244Zm-2-.682c-.253-.308-1.276-1.507-1.716-1.958.033-.2.055-.407.077-.6h1.529V-4.95H-18.9V-6.919h1.342v-.946h-2.508c.1-.374.187-.759.253-1.155l-.968-.176a8.5,8.5,0,0,1-1.2,3.377,5.637,5.637,0,0,1,.88.484,7.863,7.863,0,0,0,.737-1.584h.5V-4.95h-1.947v.957h1.892A5.869,5.869,0,0,1-21.89.121a3.617,3.617,0,0,1,.7.715A6.264,6.264,0,0,0-19.25-2.343a21.206,21.206,0,0,1,1.276,1.76Zm-.649,1.122V.649h6.182V-.308ZM-5.126-7.48a7.232,7.232,0,0,1,1.2,1.331L-3.2-6.7a7.07,7.07,0,0,0-1.177-1.21h2.233v2.992c0,.121-.044.154-.176.154s-.561.011-1.023-.011a3.306,3.306,0,0,1,.264.891,4.079,4.079,0,0,0,1.485-.154c.308-.154.385-.418.385-.88V-8.778H-5.489v.869h.99Zm2.453,1.122c-1.1.429-2.244.88-2.992,1.133l.462.847c.792-.341,1.771-.8,2.7-1.243Zm-4.4,1.441c0,.121-.044.154-.176.154s-.55.011-.99-.011a2.98,2.98,0,0,1,.275.891,3.881,3.881,0,0,0,1.441-.154c.308-.154.385-.418.385-.869V-8.778h-4.169v.869h3.234Zm-2.772-2.53A6.657,6.657,0,0,1-8.734-6.083l.726-.517A6.626,6.626,0,0,0-9.152-7.9Zm2.266,1.254c-1.1.429-2.222.858-2.97,1.089l.418.858c.792-.352,1.782-.781,2.706-1.21ZM-3.685-.275A21.3,21.3,0,0,0-2.651-2.244l-.935-.209h2.1v-.891h-3.63v-.968h-1v.968H-9.658v.891H-3.74a13.223,13.223,0,0,1-.9,2.013l.693.165H-7.271l.627-.187a7.145,7.145,0,0,0-.748-1.98l-.946.253A8.487,8.487,0,0,1-7.667-.275h-2.882V.638H-.638V-.275ZM3.036-1V-3.8H8.217V-1Zm5.181-6.49v2.684H3.036V-7.491ZM1.991-8.525V.748H3.036V.033H8.217V.7H9.306V-8.525Zm11.946-.7A8.649,8.649,0,0,1,11.7-6.985a5.83,5.83,0,0,1,.55.737,11.375,11.375,0,0,0,2.607-2.629Zm5.808,7.15a4.5,4.5,0,0,1-1.232,1.012,4.683,4.683,0,0,1-1.221-1.012ZM16.962-4.752h3.146v.627H16.962Zm0-1.265h3.146V-5.4H16.962Zm3.531,3.179-.165.044H17.721a5.019,5.019,0,0,0,.44-.671h2.893V-6.7H16.291a6.21,6.21,0,0,0,.4-.638h5.038v-.836h-4.6q.182-.412.33-.825l-1-.242a7.511,7.511,0,0,1-1.463,2.574l-.814-.286a9.627,9.627,0,0,1-2.585,2.926,7.783,7.783,0,0,1,.561.935,9.28,9.28,0,0,0,1.078-1.023V.891h.957V-5.258c.242-.319.462-.66.671-.99a4.8,4.8,0,0,1,.682.484c.165-.176.33-.374.495-.583v2.882h1.078A6.429,6.429,0,0,1,14.8-1.452a6.617,6.617,0,0,1,.7.627,8.065,8.065,0,0,0,1.111-.8,5.562,5.562,0,0,0,.99.979,11.491,11.491,0,0,1-2.849.682,3.208,3.208,0,0,1,.44.836A12.29,12.29,0,0,0,18.48-.077a8.878,8.878,0,0,0,2.926.924A4.183,4.183,0,0,1,22,0a9.917,9.917,0,0,1-2.574-.627,4.929,4.929,0,0,0,1.683-1.9ZM23.749.869h1.078V-8.8H23.749ZM27.423-.9V-3.85h3.861V-.9Zm3.861-6.644V-4.8H27.423v-2.75Zm-4.906-.946V.858h1.045V.044h3.861V.77h1.078V-8.492Z" transform="translate(420 2964)" fill="#363636"/>
      <g id="グループ_4344" data-name="グループ 4344" transform="translate(-556.588 -0.502)">
        <path id="パス_8619" data-name="パス 8619" d="M426.123,96.523v1.908h1.346V96.524c-.217.017-.434.033-.656.033s-.462-.016-.69-.034" transform="translate(549.982 2843.106)" fill="#e66084"/>
        <path id="パス_8620" data-name="パス 8620" d="M427.469,85.179V83.271h-1.346v1.91c.228-.018.458-.035.69-.035s.439.017.656.034" transform="translate(549.982 2837.585)" fill="#e66084"/>
        <path id="パス_8621" data-name="パス 8621" d="M428.439,93.179a1.4,1.4,0,0,0-.795-1.259l-.69-6.725-.572,6.75a1.4,1.4,0,1,0,2.057,1.234" transform="translate(549.777 2838.386)" fill="#e66084"/>
        <path id="パス_8622" data-name="パス 8622" d="M443.916,89.621a14.331,14.331,0,0,0-7.569-7.613l-.188-.081-.82,1.928.188.079a12.053,12.053,0,0,1,3.858,2.617,12.24,12.24,0,0,1-3.858,19.888,12.07,12.07,0,0,1-13.3-2.617,12.24,12.24,0,0,1,3.857-19.888,11.928,11.928,0,0,1,3.049-.836v1.434l5.13-2.522-5.13-2.52v1.492a14.117,14.117,0,0,0-8.389,4.094,14.332,14.332,0,0,0,4.522,23.288,14.176,14.176,0,0,0,11.078,0,14.355,14.355,0,0,0,7.569-18.742" transform="translate(546.006 2836.01)" fill="#e66084"/>
        <path id="パス_8623" data-name="パス 8623" d="M424.4,96.034c-.217-.106-.425-.22-.629-.341l-.779,1.347.619.358Z" transform="translate(548.677 2842.761)" fill="#e66084"/>
        <path id="パス_8624" data-name="パス 8624" d="M431.237,84.358,430.617,84l-1.1,1.91c.208.118.414.239.612.373Z" transform="translate(551.394 2837.889)" fill="#e66084"/>
        <path id="パス_8625" data-name="パス 8625" d="M431.083,97.238l-.979-1.694c-.2.132-.4.256-.612.371l.97,1.682Z" transform="translate(551.385 2842.698)" fill="#e66084"/>
        <path id="パス_8626" data-name="パス 8626" d="M431.772,93.762l1.819,1.051.36-.62-1.844-1.065c-.1.217-.214.428-.334.635" transform="translate(552.335 2841.691)" fill="#e66084"/>
        <path id="パス_8627" data-name="パス 8627" d="M423.5,84.1l-.619.358.909,1.577c.2-.123.414-.239.628-.346Z" transform="translate(548.63 2837.929)" fill="#e66084"/>
        <path id="パス_8628" data-name="パス 8628" d="M420.77,86.579l-.358.62,1.438.83c.119-.208.244-.412.38-.608Z" transform="translate(547.602 2838.963)" fill="#e66084"/>
        <path id="パス_8629" data-name="パス 8629" d="M431.675,87.712c.126.2.245.408.356.621l1.8-1.037-.358-.619Z" transform="translate(552.294 2839.004)" fill="#e66084"/>
        <path id="パス_8630" data-name="パス 8630" d="M434.49,90.094h-1.927c.018.224.034.448.034.674s-.016.45-.034.674h1.927Z" transform="translate(552.664 2840.428)" fill="#e66084"/>
        <path id="パス_8631" data-name="パス 8631" d="M422.132,93.992c-.129-.2-.254-.4-.365-.615l-1.469.847.358.62Z" transform="translate(547.554 2841.796)" fill="#e66084"/>
        <path id="パス_8632" data-name="パス 8632" d="M419.323,90.094v1.349h1.891c-.018-.224-.035-.446-.035-.674s.017-.45.035-.674Z" transform="translate(547.148 2840.428)" fill="#e66084"/>
      </g>
    </g>
    <g id="グループ_4475" data-name="グループ 4475" transform="translate(-318 1782.002)">
      <g id="合体_41-3" data-name="合体 41" transform="translate(-4953.999 2889)" fill="#fff">
        <path d="M 5405 87.50004577636719 L 5342.99951171875 87.50004577636719 C 5337.76123046875 87.50004577636719 5333.49951171875 83.23845672607422 5333.49951171875 78.00025939941406 L 5333.49951171875 26.00054740905762 C 5333.49951171875 20.7623462677002 5337.76123046875 16.50075912475586 5342.99951171875 16.50075912475586 L 5405 16.50075912475586 C 5410.23828125 16.50075912475586 5414.5 20.7623462677002 5414.5 26.00054740905762 L 5414.5 45.33339691162109 L 5414.5 45.62758255004883 L 5414.75732421875 45.77045822143555 L 5425.97119140625 52.00105667114258 L 5414.75732421875 58.23078536987305 L 5414.5 58.37366104125977 L 5414.5 58.6678581237793 L 5414.5 78.00025939941406 C 5414.5 83.23845672607422 5410.23828125 87.50004577636719 5405 87.50004577636719 Z" stroke="none"/>
        <path d="M 5405 87.00004577636719 C 5409.96240234375 87.00004577636719 5414 82.96276092529297 5414 78.00025939941406 L 5414 58.07944488525391 L 5424.94140625 52.00102615356445 L 5414 45.92177200317383 L 5414 26.00054740905762 C 5414 21.03804588317871 5409.96240234375 17.00075912475586 5405 17.00075912475586 L 5342.99951171875 17.00075912475586 C 5338.037109375 17.00075912475586 5333.99951171875 21.03804588317871 5333.99951171875 26.00054740905762 L 5333.99951171875 78.00025939941406 C 5333.99951171875 82.96276092529297 5338.037109375 87.00004577636719 5342.99951171875 87.00004577636719 L 5405 87.00004577636719 M 5405 88.00004577636719 L 5342.99951171875 88.00004577636719 C 5337.4765625 88.00004577636719 5332.99951171875 83.52316284179688 5332.99951171875 78.00025939941406 L 5332.99951171875 26.00054740905762 C 5332.99951171875 20.47763442993164 5337.4765625 16.00075912475586 5342.99951171875 16.00075912475586 L 5405 16.00075912475586 C 5410.52294921875 16.00075912475586 5415 20.47763442993164 5415 26.00054740905762 L 5415 45.33339691162109 L 5427.00048828125 52.00108337402344 L 5415 58.6678581237793 L 5415 78.00025939941406 C 5415 83.52316284179688 5410.52294921875 88.00004577636719 5405 88.00004577636719 Z" stroke="none" fill="#e66084"/>
      </g>
      <path id="パス_9119" data-name="パス 9119" d="M-20.416-7.073h7.139v1.562h1.045v-2.53H-16.3V-9.218h-1.089v1.177h-4.026v2.53h1Zm4.1,4.708h3.146v-.957h-3.146V-4.939h2.6v-.979H-19.91v.979h2.541V-.671a3.149,3.149,0,0,1-1.793-1.936A13.453,13.453,0,0,0-18.9-4.048l-1.056-.1c-.231,1.925-.792,3.465-2,4.367a5.533,5.533,0,0,1,.847.7,5.6,5.6,0,0,0,1.551-2.288c1,1.727,2.585,2.09,4.741,2.09H-12.2a3.085,3.085,0,0,1,.385-1.034c-.627.022-2.475.022-2.948.022a11.493,11.493,0,0,1-1.551-.1Zm7.6-1.243H-7v.946H-8.712ZM-7-6.952v.825H-8.712v-.825ZM-8.712-5.324H-7v.913H-8.712ZM-5.3-2.662H-6.05v-4.29h.792v-.891H-6.05V-9.108H-7v1.265H-8.712V-9.108h-.924v1.265h-.891v.891h.891v4.29h-1.023v.891H-5.3ZM-9.218-1.6A5.432,5.432,0,0,1-10.692.275,5.216,5.216,0,0,1-9.878.88,7.692,7.692,0,0,0-8.25-1.331Zm1.584.4A11.382,11.382,0,0,1-6.49.473l.825-.5A10.5,10.5,0,0,0-6.853-1.628Zm3.773-2.519c.022-.352.022-.7.022-1.023v-.583H-1.9v1.606ZM-1.9-7.777v1.551H-3.839V-7.777Zm.99-.924H-4.807v3.96A10.2,10.2,0,0,1-5.753.319a3.6,3.6,0,0,1,.814.594A8.745,8.745,0,0,0-3.927-2.794H-1.9V-.352c0,.176-.066.22-.231.231-.143,0-.693.011-1.21-.011a3.509,3.509,0,0,1,.3.968A3.82,3.82,0,0,0-1.375.649C-1.034.5-.913.2-.913-.341Zm9.2,5.412H2.893V-5.016h5.39ZM9.328-5.962H6.061V-7.205H10.1v-.946H6.061V-9.229H5.016v3.267h-3.1v3.619H9.328ZM1.507.836A6.94,6.94,0,0,0,2.97-1.529L2-1.782A6.331,6.331,0,0,1,.561.385ZM3.773-1.441A14.4,14.4,0,0,1,4,.77L5.038.638a13.072,13.072,0,0,0-.286-2.167Zm2.244.011A11.423,11.423,0,0,1,6.776.737l1-.253a11.722,11.722,0,0,0-.836-2.123Zm2.222-.088A12.275,12.275,0,0,1,9.614.781l.979-.4A13.121,13.121,0,0,0,9.152-1.859ZM16.687-2.86v-1.3H18.1v.814a3.564,3.564,0,0,1-.022.484Zm3.8-1.3v1.3H19.008c.011-.154.011-.308.011-.462v-.836Zm-3.476-2.53a7.471,7.471,0,0,0,1.562-1.639,7.967,7.967,0,0,0,1.639,1.639Zm4.4,4.631v-2.9H19.019V-5.83h1.617v-.55a9.141,9.141,0,0,0,.913.55,5.015,5.015,0,0,1,.539-.9A7.561,7.561,0,0,1,19-9.218h-.924a7.248,7.248,0,0,1-2.64,2.42V-6.93h-1.1v-2.3h-.957v2.3H11.924v.946H13.3a12.113,12.113,0,0,1-1.606,3.949,5.324,5.324,0,0,1,.495.891,10.335,10.335,0,0,0,1.188-2.629V.858h.957V-4.07c.286.517.583,1.1.726,1.441l.55-.8c-.165-.275-.979-1.474-1.276-1.859v-.693h1.1v-.264a4.092,4.092,0,0,1,.22.44,7.07,7.07,0,0,0,.9-.55v.528H18.1v.869H15.8v2.9h2.123c-.3.847-1.045,1.639-2.86,2.211a3.449,3.449,0,0,1,.561.77,4.638,4.638,0,0,0,3.047-2.343A4.65,4.65,0,0,0,21.417.913a2.455,2.455,0,0,1,.594-.858A3.935,3.935,0,0,1,19.36-2.057ZM-8.1,5.815a12.236,12.236,0,0,1-2.618,4.246,6.163,6.163,0,0,1,.572,1.056,9.942,9.942,0,0,0,.9-1.078v5.808h1.034V8.422a17.492,17.492,0,0,0,1.089-2.3ZM-.539,8.554V7.575H-4.961c.209-.462.4-.946.572-1.419l-.979-.264a11.688,11.688,0,0,1-2.376,4.18,6.158,6.158,0,0,1,.792.693,11.385,11.385,0,0,0,1.5-2.211h.616v7.3H-3.8V13.306H-.649v-.957H-3.8V10.886H-.8V9.951H-3.8v-1.4ZM7.117,8.5a10.264,10.264,0,0,1-.484,1.045H4.312l.319-.066A4.628,4.628,0,0,0,4.158,8.5Zm3.311,4.818v-.858H6.094v-.671H9.471v-.77H6.094v-.66H9.988V9.544H7.656c.187-.308.407-.671.616-1.045H10.4V7.641H8.811a17.211,17.211,0,0,0,.913-1.5L8.668,5.881A9.587,9.587,0,0,1,7.9,7.509l.418.132H7.128V5.76H6.16V7.641H5.071V5.76H4.114V7.641H2.9l.561-.209a7.646,7.646,0,0,0-.88-1.573l-.891.3a8.247,8.247,0,0,1,.8,1.485H.869V8.5h2.5L3.1,8.543a5.449,5.449,0,0,1,.462,1H1.309v.814H5.093v.66H1.848v.77H5.093v.671H.825v.858h3.4A10.673,10.673,0,0,1,.517,14.846a4.591,4.591,0,0,1,.671.869,10.926,10.926,0,0,0,3.905-1.98v2.134h1V13.658a9.812,9.812,0,0,0,3.938,2.068,4.594,4.594,0,0,1,.682-.913,10.1,10.1,0,0,1-3.729-1.5Z" transform="translate(420 2955)" fill="#363636"/>
      <g id="グループ_4345" data-name="グループ 4345" transform="translate(-461 -1.002)">
        <path id="パス_8636" data-name="パス 8636" d="M385.449,89.932c-2.35-.179-3.643-.348-4.263,1.947l-2.221-.538a5.057,5.057,0,0,0-.41-4.159A4.89,4.89,0,0,0,376.2,85.1a4.97,4.97,0,0,0-6.053,7.376c1.359,1.994,3.565,2.594,6.258,1.716.2.626.4,1.254.6,1.877-1.987.43-2.536,1.985-1.751,4.792-.653,0-1.291.028-1.927-.009a.953.953,0,0,1-.947-.939c-.007-.065-.007-.133-.011-.2-.132-1.859-.135-1.85-1.805-2.549a1.039,1.039,0,0,0-1.175.156c-.356.3-.705.612-1.067.905a.952.952,0,0,1-1.379-.048q-.63-.594-1.223-1.227a.928.928,0,0,1-.053-1.324,8.616,8.616,0,0,0,.922-1.134,3.285,3.285,0,0,0,.169-1.1c0-.038-.044-.078-.053-.121-.272-1.361-1.165-1.782-2.465-1.735-.861.03-1.181-.372-1.192-1.24-.006-.444-.01-.89,0-1.334a1.021,1.021,0,0,1,1.076-1.161c.067-.006.133-.006.2-.013,2.134-.189,1.633-.045,2.462-1.991a1.3,1.3,0,0,0-.2-.965,9.34,9.34,0,0,0-.887-1.078.953.953,0,0,1,.033-1.381q.59-.634,1.226-1.225a.959.959,0,0,1,1.331-.065,1.41,1.41,0,0,1,.305.255c.883,1.162,1.94,1.061,3.026.372a1.631,1.631,0,0,0,.619-.851,7.678,7.678,0,0,0,.143-1.388.973.973,0,0,1,1.037-.985c.555-.018,1.113-.02,1.668,0a.972.972,0,0,1,1.029.992c.01.088.007.177.016.267.192,2.144.051,1.639,1.987,2.465a1.3,1.3,0,0,0,.968-.2,9.611,9.611,0,0,0,1.079-.888.958.958,0,0,1,1.381.031c.423.393.83.8,1.226,1.226a.954.954,0,0,1,.07,1.328,1.351,1.351,0,0,1-.257.307c-1.165.881-1.057,1.943-.373,3.024a1.817,1.817,0,0,0,.915.631,4.87,4.87,0,0,0,1.188.128c.8.065,1.111.383,1.128,1.175.007.307,0,.614,0,.964" transform="translate(503.949 2833.531)" fill="#e66084"/>
        <path id="パス_8637" data-name="パス 8637" d="M375.439,88.957c.365.27.629.438.863.64.348.3.657.558,1.188.324.551-.244,1.026-.44,1.044-1.176.01-.364.162-.971.376-1.035a3.613,3.613,0,0,1,1.681-.018c.181.037.37.545.376.841a1.249,1.249,0,0,0,.912,1.341,1.185,1.185,0,0,0,1.324-.249c.283-.233.825-.542,1.009-.428a4.386,4.386,0,0,1,1.2,1.264c.083.123-.158.546-.339.753-.781.89-.641.837-.141,1.914.116.245.629.308.964.444s.92.207.962.4a4.6,4.6,0,0,1-.025,1.736c-.024.148-.483.287-.753.313-1.049.1-1.331.275-1.49,1.289-.045.287.238.628.372.944.146.349.51.837.395,1.02a4.164,4.164,0,0,1-1.27,1.189c-.133.086-.562-.2-.8-.383a1.326,1.326,0,0,0-1.972-.035,1.654,1.654,0,0,0-.314.918c-.06.4.018.934-.471,1a4.925,4.925,0,0,1-1.737-.121c-.14-.031-.227-.508-.257-.788-.1-.938-.448-1.374-1.357-1.434-.286-.019-.584.268-.883.4-.346.153-.841.505-1.022.387a3.952,3.952,0,0,1-1.167-1.287c-.087-.148.2-.629.433-.837.562-.513.412-1.012.17-1.609-.227-.557-.642-.61-1.126-.637-.957-.054-1.048-.155-1.049-1.106,0-.148.011-.3,0-.448-.048-.624.242-.923.862-.9a1.3,1.3,0,0,0,1.45-.946c.252-.652-.073-.975-.387-1.413-.188-.263-.421-.752-.3-.926a9.44,9.44,0,0,1,1.283-1.348m7.517,5.792a3.208,3.208,0,1,0-3.144,3.265,3.22,3.22,0,0,0,3.144-3.265" transform="translate(508.07 2837.998)" fill="#e66084"/>
      </g>
    </g>
    <g id="グループ_4474" data-name="グループ 4474" transform="translate(-318 1707.002)">
      <g id="合体_41-4" data-name="合体 41" transform="translate(-4953.999 2889)" fill="#fff">
        <path d="M 5405 87.50004577636719 L 5342.99951171875 87.50004577636719 C 5337.76123046875 87.50004577636719 5333.49951171875 83.23845672607422 5333.49951171875 78.00025939941406 L 5333.49951171875 26.00054740905762 C 5333.49951171875 20.7623462677002 5337.76123046875 16.50075912475586 5342.99951171875 16.50075912475586 L 5405 16.50075912475586 C 5410.23828125 16.50075912475586 5414.5 20.7623462677002 5414.5 26.00054740905762 L 5414.5 45.33339691162109 L 5414.5 45.62758255004883 L 5414.75732421875 45.77045822143555 L 5425.97119140625 52.00105667114258 L 5414.75732421875 58.23078536987305 L 5414.5 58.37366104125977 L 5414.5 58.6678581237793 L 5414.5 78.00025939941406 C 5414.5 83.23845672607422 5410.23828125 87.50004577636719 5405 87.50004577636719 Z" stroke="none"/>
        <path d="M 5405 87.00004577636719 C 5409.96240234375 87.00004577636719 5414 82.96276092529297 5414 78.00025939941406 L 5414 58.07944488525391 L 5424.94140625 52.00102615356445 L 5414 45.92177200317383 L 5414 26.00054740905762 C 5414 21.03804588317871 5409.96240234375 17.00075912475586 5405 17.00075912475586 L 5342.99951171875 17.00075912475586 C 5338.037109375 17.00075912475586 5333.99951171875 21.03804588317871 5333.99951171875 26.00054740905762 L 5333.99951171875 78.00025939941406 C 5333.99951171875 82.96276092529297 5338.037109375 87.00004577636719 5342.99951171875 87.00004577636719 L 5405 87.00004577636719 M 5405 88.00004577636719 L 5342.99951171875 88.00004577636719 C 5337.4765625 88.00004577636719 5332.99951171875 83.52316284179688 5332.99951171875 78.00025939941406 L 5332.99951171875 26.00054740905762 C 5332.99951171875 20.47763442993164 5337.4765625 16.00075912475586 5342.99951171875 16.00075912475586 L 5405 16.00075912475586 C 5410.52294921875 16.00075912475586 5415 20.47763442993164 5415 26.00054740905762 L 5415 45.33339691162109 L 5427.00048828125 52.00108337402344 L 5415 58.6678581237793 L 5415 78.00025939941406 C 5415 83.52316284179688 5410.52294921875 88.00004577636719 5405 88.00004577636719 Z" stroke="none" fill="#e66084"/>
      </g>
      <path id="パス_9120" data-name="パス 9120" d="M-6.336-7.634H-8.921V-9.24H-9.944v1.606h-2.53v.968h6.138Zm-6.061,4-.132-.957c-.4.121-.8.231-1.2.341v-1.9h1.177V-7.1h-1.177V-9.229h-1V-7.1h-1.485v.946h1.485v2.178c-.616.165-1.188.308-1.65.407l.253,1,1.4-.4V-.286c0,.165-.066.209-.209.209s-.594.011-1.056-.011a3.5,3.5,0,0,1,.286.935,3.873,3.873,0,0,0,1.54-.165c.33-.165.44-.44.44-.968V-3.245ZM-7.436-.044A.242.242,0,0,1-7.612-.1c-.055-.044-.066-.2-.066-.462V-5.445h-3.729v2.156A3.585,3.585,0,0,1-13.1.11a3.59,3.59,0,0,1,.649.759,4.582,4.582,0,0,0,2.013-4.147V-4.521h1.782V-.583c0,.792.077,1.012.264,1.177A1.065,1.065,0,0,0-7.7.836h.616A1.42,1.42,0,0,0-6.457.7.825.825,0,0,0-6.1.154a9.547,9.547,0,0,0,.121-1.518,2.355,2.355,0,0,1-.8-.429c0,.627-.011,1.111-.033,1.342A.7.7,0,0,1-6.93-.1a.433.433,0,0,1-.22.055ZM-.462-.715h.88v-1.65A7.157,7.157,0,0,0,2.387-.814a3.132,3.132,0,0,1,.572-.638A6.771,6.771,0,0,1,.814-2.959h2v-.748H.418V-4.5a16.754,16.754,0,0,0,1.914-.352l-.638-.594a23.37,23.37,0,0,1-4.18.528,3.228,3.228,0,0,1,.209.627c.572-.022,1.2-.055,1.815-.121v.7H-2.8v.748H-.869A6.15,6.15,0,0,1-3.036-1.441a4.56,4.56,0,0,1,.572.649,6.886,6.886,0,0,0,2-1.54Zm3.7-4.939V-.418H-3.223V-5.654ZM-4.18.869h.957V.462H3.234V.869h1V-6.523H-4.18ZM2.3-8.558v-.671H1.276v.671h-2.6v-.671H-2.332v.671H-4.818v.9h2.486v.792H-1.32v-.792h2.6v.792H2.3v-.792H4.818v-.9Zm8.921,3.1A1.277,1.277,0,0,0,9.944-4.18,1.277,1.277,0,0,0,11.22-2.9,1.277,1.277,0,0,0,12.5-4.18,1.277,1.277,0,0,0,11.22-5.456Zm-40,12.822h-2.585V5.76h-1.023V7.366h-2.53v.968h6.138Zm-6.061,4-.132-.957c-.4.121-.8.231-1.2.341v-1.9h1.177V7.9h-1.177V5.771h-1V7.9h-1.485v.946h1.485v2.178c-.616.165-1.188.308-1.65.407l.253,1,1.4-.4v2.673c0,.165-.066.209-.209.209s-.594.011-1.056-.011a3.5,3.5,0,0,1,.286.935,3.873,3.873,0,0,0,1.54-.165c.33-.165.44-.44.44-.968V11.755Zm4.961,3.586a.242.242,0,0,1-.176-.055c-.055-.044-.066-.2-.066-.462V9.555h-3.729v2.156a3.585,3.585,0,0,1-1.694,3.4,3.59,3.59,0,0,1,.649.759,4.582,4.582,0,0,0,2.013-4.147V10.479H-31.1v3.938c0,.792.077,1.012.264,1.177a1.065,1.065,0,0,0,.693.242h.616A1.42,1.42,0,0,0-28.9,15.7a.825.825,0,0,0,.352-.55,9.547,9.547,0,0,0,.121-1.518,2.355,2.355,0,0,1-.8-.429c0,.627-.011,1.111-.033,1.342a.7.7,0,0,1-.11.352.433.433,0,0,1-.22.055Zm8.03-8.844h-1.331a4.99,4.99,0,0,1,.077.913v.946h-2.4a10.452,10.452,0,0,1-1.067-.055,8.188,8.188,0,0,1,.044.891v1.925c0,.242-.022.561-.044.792h1.2a5.049,5.049,0,0,1-.044-.726v-1.8h5.852A7.632,7.632,0,0,1-20.57,12.03,5.656,5.656,0,0,1-23.342,14.1a6.906,6.906,0,0,1-1.32.363l.9,1.045a7.012,7.012,0,0,0,4.411-3.2,10.232,10.232,0,0,0,1.056-3.223,4.135,4.135,0,0,1,.187-.748l-.759-.473a2.415,2.415,0,0,1-.825.11h-2.222V7.025A7.868,7.868,0,0,1-21.846,6.112Zm5.962,4.785.539,1.089a22.506,22.506,0,0,0,4.059-1.7v3.828a12.746,12.746,0,0,1-.066,1.3h1.364a8.272,8.272,0,0,1-.077-1.3V9.544A18.556,18.556,0,0,0-7.106,7.135l-.924-.88a13.578,13.578,0,0,1-3.058,2.618A18.164,18.164,0,0,1-15.884,10.9ZM.165,14.758l.726.6a3.419,3.419,0,0,1,.418-.275A11.574,11.574,0,0,0,5.06,12.052l-.671-.946A7.738,7.738,0,0,1,1.4,13.636V7.553a6.625,6.625,0,0,1,.055-.88H.176a8.062,8.062,0,0,1,.066.88v6.512A3.173,3.173,0,0,1,.165,14.758Zm-5.071-.1,1.056.7a6.18,6.18,0,0,0,1.958-3.08,24.1,24.1,0,0,0,.341-4.7,8.233,8.233,0,0,1,.055-.88H-2.772a3.428,3.428,0,0,1,.088.891A19.073,19.073,0,0,1-3,11.986,5.092,5.092,0,0,1-4.906,14.659ZM14.685,7.6l-.715-.528a3.337,3.337,0,0,1-.957.11H8.932a11.769,11.769,0,0,1-1.2-.077V8.345c.176-.011.77-.066,1.2-.066h4.037a9.05,9.05,0,0,1-1.749,2.9A12.36,12.36,0,0,1,6.7,14.406l.891.935a14.44,14.44,0,0,0,4.235-3.168,24.686,24.686,0,0,1,2.915,3.212l.968-.858A29.238,29.238,0,0,0,12.562,11.3a15.056,15.056,0,0,0,1.8-3.135A3.8,3.8,0,0,1,14.685,7.6Zm9.471,7.359c-.583,0-.671-.077-.671-.506V11.579l.836-.4v2.772h.869V10.776l.957-.451c0,1.2-.011,2-.033,2.134-.033.154-.088.187-.2.187-.088,0-.308,0-.484-.011a2.478,2.478,0,0,1,.2.77,2.48,2.48,0,0,0,.858-.088.667.667,0,0,0,.484-.671c.044-.308.044-1.573.044-3.135l.044-.143-.627-.231-.176.121-.088.066-.979.451V8.521h-.869v1.661l-.836.385V9.335h-.847a7.891,7.891,0,0,0,.671-1.166H27.39V7.234h-3.7c.143-.407.264-.836.374-1.265L23.056,5.76a8.652,8.652,0,0,1-.99,2.574V7.5H20.251V5.782h-.979V7.5H17.446v.946h1.133c-.044,2.629-.165,5.214-1.265,6.721a2.823,2.823,0,0,1,.748.693,9.968,9.968,0,0,0,1.4-5.115H20.57c-.044,2.838-.11,3.861-.275,4.081a.318.318,0,0,1-.33.154c-.165,0-.517,0-.924-.033a2.424,2.424,0,0,1,.264.913,7.237,7.237,0,0,0,1.144-.033.8.8,0,0,0,.66-.4c.286-.374.341-1.628.407-5.192.011-.132.011-.429.011-.429H19.514c.011-.451.022-.9.033-1.364H22a4.4,4.4,0,0,1-.539.7,6.952,6.952,0,0,1,.77.715,4.493,4.493,0,0,0,.341-.429V11l-.946.44.374.847.572-.275v2.431c0,1.1.308,1.386,1.5,1.386h2.079c.979,0,1.265-.385,1.386-1.716a2.633,2.633,0,0,1-.847-.363c-.055,1.012-.143,1.21-.6,1.21ZM34.2,14.043V8.015h3.828V6.959h-8.69V8.015h3.718v6.028h-4.3v1.023H38.6V14.043Z" transform="translate(420 2955)" fill="#363636"/>
      <g id="グループ_4351" data-name="グループ 4351" transform="translate(-378.5 -23.626)">
        <path id="パス_8657" data-name="パス 8657" d="M36.829,199.043l.322,3.35,1.341-3.086-.729,3.285,2.229-2.521-1.709,2.9,2.9-1.709-2.522,2.228,3.285-.729L38.859,204.1l3.35.322-3.35.322,3.086,1.341-3.285-.73,2.522,2.23-2.9-1.709,1.709,2.9-2.229-2.521.729,3.285-1.341-3.086-.322,3.35-.322-3.35-1.341,3.086.729-3.285-2.229,2.521,1.709-2.9-2.9,1.709L35,205.354l-3.285.73,3.086-1.341-3.35-.322,3.35-.322-3.086-1.341,3.285.729-2.522-2.228,2.9,1.709-1.709-2.9,2.229,2.521-.729-3.285,1.341,3.086Z" transform="translate(743.05 2739.374)" fill="#e66084"/>
        <path id="パス_8658" data-name="パス 8658" d="M56.172,201.736l1.321,2.418,2-1.892.508,2.709,2.49-1.181-.353,2.733,2.733-.353-1.18,2.49,2.709.508-1.892,2,2.418,1.321-2.418,1.321,1.892,2-2.709.509,1.18,2.49-2.733-.353L62.5,221.2l-2.49-1.18-.508,2.708-2-1.892-1.321,2.419-1.321-2.419-2,1.892-.509-2.708-2.49,1.18.353-2.733-2.732.353,1.18-2.49-2.709-.509,1.892-2-2.418-1.321,2.418-1.321-1.892-2,2.709-.508-1.18-2.49,2.732.353-.353-2.733,2.49,1.181.509-2.709,2,1.892Z" transform="translate(740.742 2739.371)" fill="#e66084"/>
        <path id="パス_8659" data-name="パス 8659" d="M79.64,196.566l.734,2.539,1.482-2.188-.087,2.642,2.086-1.623-.9,2.485,2.485-.9-1.623,2.086,2.642-.086L84.274,203l2.539.733-2.539.734,2.188,1.483-2.642-.087,1.623,2.086-2.485-.9.9,2.485-2.086-1.623.087,2.642-1.482-2.188-.734,2.539-.734-2.539-1.482,2.188.087-2.642-2.086,1.623.9-2.485-2.485.9,1.623-2.086-2.642.087,2.188-1.483-2.539-.734L75.007,203l-2.188-1.483,2.642.086-1.623-2.086,2.485.9-.9-2.485,2.086,1.623-.087-2.642,1.482,2.188Z" transform="translate(735.205 2740.058)" fill="#e66084"/>
      </g>
    </g>
    <g id="グループ_4473" data-name="グループ 4473" transform="translate(-318 1632.003)">
      <g id="合体_41-5" data-name="合体 41" transform="translate(-4953.999 2889)" fill="#fff">
        <path d="M 5405 87.50004577636719 L 5342.99951171875 87.50004577636719 C 5337.76123046875 87.50004577636719 5333.49951171875 83.23845672607422 5333.49951171875 78.00025939941406 L 5333.49951171875 26.00054740905762 C 5333.49951171875 20.7623462677002 5337.76123046875 16.50075912475586 5342.99951171875 16.50075912475586 L 5405 16.50075912475586 C 5410.23828125 16.50075912475586 5414.5 20.7623462677002 5414.5 26.00054740905762 L 5414.5 45.33339691162109 L 5414.5 45.62758255004883 L 5414.75732421875 45.77045822143555 L 5425.97119140625 52.00105667114258 L 5414.75732421875 58.23078536987305 L 5414.5 58.37366104125977 L 5414.5 58.6678581237793 L 5414.5 78.00025939941406 C 5414.5 83.23845672607422 5410.23828125 87.50004577636719 5405 87.50004577636719 Z" stroke="none"/>
        <path d="M 5405 87.00004577636719 C 5409.96240234375 87.00004577636719 5414 82.96276092529297 5414 78.00025939941406 L 5414 58.07944488525391 L 5424.94140625 52.00102615356445 L 5414 45.92177200317383 L 5414 26.00054740905762 C 5414 21.03804588317871 5409.96240234375 17.00075912475586 5405 17.00075912475586 L 5342.99951171875 17.00075912475586 C 5338.037109375 17.00075912475586 5333.99951171875 21.03804588317871 5333.99951171875 26.00054740905762 L 5333.99951171875 78.00025939941406 C 5333.99951171875 82.96276092529297 5338.037109375 87.00004577636719 5342.99951171875 87.00004577636719 L 5405 87.00004577636719 M 5405 88.00004577636719 L 5342.99951171875 88.00004577636719 C 5337.4765625 88.00004577636719 5332.99951171875 83.52316284179688 5332.99951171875 78.00025939941406 L 5332.99951171875 26.00054740905762 C 5332.99951171875 20.47763442993164 5337.4765625 16.00075912475586 5342.99951171875 16.00075912475586 L 5405 16.00075912475586 C 5410.52294921875 16.00075912475586 5415 20.47763442993164 5415 26.00054740905762 L 5415 45.33339691162109 L 5427.00048828125 52.00108337402344 L 5415 58.6678581237793 L 5415 78.00025939941406 C 5415 83.52316284179688 5410.52294921875 88.00004577636719 5405 88.00004577636719 Z" stroke="none" fill="#e66084"/>
      </g>
      <path id="パス_9121" data-name="パス 9121" d="M-25.333-7.1h-2.288v-.957h2.288Zm.924-1.7h-4.1v2.442h4.1Zm-5.456,5.137-.154-.9-.891.3V-6.149h.968V-7.1h-.968V-9.229h-.957V-7.1h-1.155v.946h1.155v2.222q-.726.231-1.287.4l.253.979c.319-.1.671-.231,1.034-.363V-.286c0,.132-.044.165-.165.165-.1,0-.407.011-.737,0A4.083,4.083,0,0,1-32.5.792a2.4,2.4,0,0,0,1.232-.2c.275-.143.363-.407.363-.88V-3.267Zm2.3-.473h-1.2V-5.192h1.2Zm2.156-1.056h1.254v1.056H-25.41Zm2.31,3.377v-.836h-2.893V-3.4h2.673V-5.918h-2.893v2.5h-.539v-2.5h-2.794V-3.4h2.574v.748h-2.761v.836h2.222a7.1,7.1,0,0,1-2.97,1.672,5.519,5.519,0,0,1,.649.792,7.688,7.688,0,0,0,2.86-1.815V.88h.979V-1.232a7.19,7.19,0,0,0,2.42,1.8,4.157,4.157,0,0,1,.649-.792,6.608,6.608,0,0,1-2.552-1.6Zm3.784-7.37a12.236,12.236,0,0,1-2.618,4.246,6.163,6.163,0,0,1,.572,1.056,9.942,9.942,0,0,0,.9-1.078V.847h1.034V-6.578a17.491,17.491,0,0,0,1.089-2.3Zm7.557,2.739v-.979h-4.422c.209-.462.4-.946.572-1.419l-.979-.264a11.688,11.688,0,0,1-2.376,4.18,6.159,6.159,0,0,1,.792.693,11.385,11.385,0,0,0,1.5-2.211h.616v7.3h1.045V-1.694h3.146v-.957h-3.146V-4.114h2.992v-.935h-2.992v-1.4Zm4.07,5.06H-8.965V-4.411h1.276Zm-2.849-6.358h1.276a9.9,9.9,0,0,1-1.485,3.993A5.009,5.009,0,0,1-10.34-2.6a6.55,6.55,0,0,0,.517-.759V.363h.858V-.484h2.156v-4.84H-8.932a18.568,18.568,0,0,0,.638-2.42h1.65v-.924h-3.894Zm6.259,2.992V-7.7h1.551v2.948Zm3.718,0H-1.749V-7.7h.968v-.957h-5.3V-7.7h.847v2.948H-6.38v.968h1.133A6.206,6.206,0,0,1-6.6.33a5.4,5.4,0,0,1,.781.594A7,7,0,0,0-4.29-3.784h1.562V.869h.979V-3.784H-.561ZM2.6-9.174A12.783,12.783,0,0,1,.33-4.829,8.015,8.015,0,0,1,.847-3.751a10.9,10.9,0,0,0,.88-1.221V.858H2.7V-6.765c.319-.7.605-1.43.847-2.145ZM4.389-6.182c.209.154.473.363.605.484a7.794,7.794,0,0,0,.814-.869A6.148,6.148,0,0,0,6.82-5.489a8.577,8.577,0,0,1-2.431.968ZM8.613-7.249A4.783,4.783,0,0,1,7.524-5.984,5.091,5.091,0,0,1,6.292-7.238L6.3-7.249Zm1.925,0v-.825H6.776a7.921,7.921,0,0,0,.429-.935L6.27-9.24A7.176,7.176,0,0,1,4.389-6.435V-7.9H3.5V-.946h.891V-4.433a4.731,4.731,0,0,1,.539.726A9.6,9.6,0,0,0,7.579-4.928,8.583,8.583,0,0,0,10.329-3.8a4.827,4.827,0,0,1,.561-.836,8.526,8.526,0,0,1-2.574-.858A6.148,6.148,0,0,0,9.68-7.249ZM8.778-3.234A7.5,7.5,0,0,1,5.258-1.6a4.052,4.052,0,0,1,.506.66A8.008,8.008,0,0,0,9.537-2.926ZM7.733-4.257a6.686,6.686,0,0,1-2.6,1.287,3.536,3.536,0,0,1,.561.594A7.34,7.34,0,0,0,8.5-3.938ZM9.7-2.013C8.745-.935,6.8-.3,4.675.011a3.375,3.375,0,0,1,.528.8C7.48.407,9.482-.352,10.582-1.65ZM14.454-5.9A10.682,10.682,0,0,0,16.8-8.228,11.015,11.015,0,0,0,19.272-5.9Zm-.209.946h5.148v-.858A13.8,13.8,0,0,0,21.34-4.664a4.98,4.98,0,0,1,.649-.924,11.058,11.058,0,0,1-4.708-3.63H16.225a11.124,11.124,0,0,1-4.5,3.784,3.727,3.727,0,0,1,.605.836,13.537,13.537,0,0,0,1.914-1.144Zm-1.892,2.1h2.728a18.731,18.731,0,0,1-1.023,2.3L12.43-.5l.132,1c1.87-.077,4.664-.2,7.282-.33a7.507,7.507,0,0,1,.484.715l.935-.583a14,14,0,0,0-2.552-2.827l-.88.473A16.035,16.035,0,0,1,19.107-.737c-1.342.055-2.706.11-3.927.154.4-.7.8-1.529,1.166-2.266h5.038v-.957H12.353ZM32.626-3.861a4.072,4.072,0,0,0-4.312-4.147A4.768,4.768,0,0,0,23.4-3.432c0,1.837,1,3.047,2.09,3.047s2-1.243,2.662-3.487a21.9,21.9,0,0,0,.66-3.091,2.925,2.925,0,0,1,2.662,3.069A3.164,3.164,0,0,1,28.809-.77a6.8,6.8,0,0,1-.979.154L28.479.418C31.152.033,32.626-1.551,32.626-3.861Zm-8.118.319a3.677,3.677,0,0,1,3.135-3.4,17.513,17.513,0,0,1-.6,2.838c-.506,1.694-1.023,2.409-1.518,2.409C25.047-1.694,24.508-2.277,24.508-3.542ZM-9.229,8.785V7.7h7.183V8.785H-5.137V8H-6.171v.781Zm8.437,4.3v-.891H-5.28a5.855,5.855,0,0,0,.132-.88h3.124v-.847H-5.137V9.632h3.289V8.994H-1v-2.2H-5.093V5.782H-6.149V6.794H-10.23v2.2H-9.3v.638h3.124v.836H-9.119v.847h2.937a4.131,4.131,0,0,1-.165.88h-4.015v.891H-6.82a6.526,6.526,0,0,1-3.7,1.958,4.045,4.045,0,0,1,.627.814c2.42-.693,3.63-1.65,4.224-2.706a5.64,5.64,0,0,0,4.389,2.739A3.67,3.67,0,0,1-.66,15a5.55,5.55,0,0,1-3.949-1.914Zm8.118,1.87c-.583,0-.671-.077-.671-.506V11.579l.836-.4v2.772H8.36V10.776l.957-.451c0,1.2-.011,2-.033,2.134-.033.154-.088.187-.2.187-.088,0-.308,0-.484-.011a2.478,2.478,0,0,1,.2.77,2.48,2.48,0,0,0,.858-.088.667.667,0,0,0,.484-.671c.044-.308.044-1.573.044-3.135l.044-.143L9.6,9.137l-.176.121-.088.066-.979.451V8.521H7.491v1.661l-.836.385V9.335H5.808a7.891,7.891,0,0,0,.671-1.166H10.56V7.234h-3.7c.143-.407.264-.836.374-1.265L6.226,5.76a8.652,8.652,0,0,1-.99,2.574V7.5H3.421V5.782H2.442V7.5H.616v.946H1.749C1.7,11.073,1.584,13.658.484,15.165a2.823,2.823,0,0,1,.748.693,9.968,9.968,0,0,0,1.4-5.115H3.74c-.044,2.838-.11,3.861-.275,4.081a.318.318,0,0,1-.33.154c-.165,0-.517,0-.924-.033a2.424,2.424,0,0,1,.264.913,7.237,7.237,0,0,0,1.144-.033.8.8,0,0,0,.66-.4c.286-.374.341-1.628.407-5.192.011-.132.011-.429.011-.429H2.684c.011-.451.022-.9.033-1.364H5.17a4.4,4.4,0,0,1-.539.7,6.952,6.952,0,0,1,.77.715,4.493,4.493,0,0,0,.341-.429V11l-.946.44.374.847.572-.275v2.431c0,1.1.308,1.386,1.5,1.386H9.317c.979,0,1.265-.385,1.386-1.716a2.633,2.633,0,0,1-.847-.363c-.055,1.012-.143,1.21-.6,1.21Z" transform="translate(420 2955)" fill="#363636"/>
      <g id="グループ_4341" data-name="グループ 4341" transform="translate(100 582)">
        <path id="パス_8555" data-name="パス 8555" d="M446.422,79.908l-1.588-.356c-.1.05-3.976.042-4.055,0l-1.624.364a2.369,2.369,0,0,0-1.865,2.3v3.21a.629.629,0,0,0,.633.624h9.734a.629.629,0,0,0,.632-.624V82.218a2.376,2.376,0,0,0-1.868-2.31" transform="translate(-134.29 2271.948)" fill="#e66084"/>
        <path id="パス_8558" data-name="パス 8558" d="M446.422,79.908l-1.588-.356c-.1.05-3.976.042-4.055,0l-1.624.364a2.369,2.369,0,0,0-1.865,2.3v3.21a.629.629,0,0,0,.633.624h9.734a.629.629,0,0,0,.632-.624V82.218a2.376,2.376,0,0,0-1.868-2.31" transform="translate(-111.29 2271.948)" fill="#e66084"/>
        <path id="パス_8556" data-name="パス 8556" d="M443.383,78.145a3,3,0,1,0-3-3,3,3,0,0,0,3,3" transform="translate(-134.883 2272.855)" fill="#e66084"/>
        <path id="パス_8557" data-name="パス 8557" d="M443.383,78.145a3,3,0,1,0-3-3,3,3,0,0,0,3,3" transform="translate(-111.883 2272.855)" fill="#e66084"/>
        <path id="パス_8559" data-name="パス 8559" d="M468.033,61.724c3.17,0,5.75-2.108,5.75-4.7s-2.58-4.7-5.75-4.7-5.75,2.108-5.75,4.7a4.18,4.18,0,0,0,1.247,2.918l-.949,1.782a.411.411,0,0,0,.08.49.4.4,0,0,0,.277.111.407.407,0,0,0,.212-.06l1.938-1.2a6.729,6.729,0,0,0,2.945.662" transform="translate(-136.283 2274.673)" fill="#e66084"/>
        <path id="パス_8561" data-name="パス 8561" d="M457.836,57.46a2.5,2.5,0,1,0-2.5,2.5,2.5,2.5,0,0,0,2.5-2.5" transform="translate(-135.336 2274.54)" fill="#e66084"/>
        <g id="グループ_4294" data-name="グループ 4294" transform="translate(315 2335)">
          <path id="パス_8560" data-name="パス 8560" d="M458.847,78.761V72.145h.292a1.075,1.075,0,0,0,1.075-1.076V63.7a2.183,2.183,0,0,0-1.7-2.128l-1.444-.329-.228.123-1.629,4.367-1.632-4.384-.2-.107-1.472.334a2.176,2.176,0,0,0-1.7,2.124v7.373a1.076,1.076,0,0,0,1.076,1.076h.289v6.616Z" transform="translate(-450.214 -61.205)" fill="#e66084"/>
          <path id="パス_8562" data-name="パス 8562" d="M454.856,61.2l.162.726h1.13l.162-.726Z" transform="translate(-450.584 -61.2)" fill="#e66084"/>
          <path id="パス_8563" data-name="パス 8563" d="M456.212,62.265h-1.238l.01.046-.01,1.088.625,1.48.625-1.48-.01-1.088.01-.046Z" transform="translate(-450.599 -61.338)" fill="#e66084"/>
        </g>
      </g>
    </g>
    <g id="グループ_4467" data-name="グループ 4467" transform="translate(-318 1557.004)">
      <g id="合体_41-6" data-name="合体 41" transform="translate(-4953.999 2889)" fill="#fff">
        <path d="M 5405 87.50004577636719 L 5342.99951171875 87.50004577636719 C 5337.76123046875 87.50004577636719 5333.49951171875 83.23845672607422 5333.49951171875 78.00025939941406 L 5333.49951171875 26.00054740905762 C 5333.49951171875 20.7623462677002 5337.76123046875 16.50075912475586 5342.99951171875 16.50075912475586 L 5405 16.50075912475586 C 5410.23828125 16.50075912475586 5414.5 20.7623462677002 5414.5 26.00054740905762 L 5414.5 45.33339691162109 L 5414.5 45.62758255004883 L 5414.75732421875 45.77045822143555 L 5425.97119140625 52.00105667114258 L 5414.75732421875 58.23078536987305 L 5414.5 58.37366104125977 L 5414.5 58.6678581237793 L 5414.5 78.00025939941406 C 5414.5 83.23845672607422 5410.23828125 87.50004577636719 5405 87.50004577636719 Z" stroke="none"/>
        <path d="M 5405 87.00004577636719 C 5409.96240234375 87.00004577636719 5414 82.96276092529297 5414 78.00025939941406 L 5414 58.07944488525391 L 5424.94140625 52.00102615356445 L 5414 45.92177200317383 L 5414 26.00054740905762 C 5414 21.03804588317871 5409.96240234375 17.00075912475586 5405 17.00075912475586 L 5342.99951171875 17.00075912475586 C 5338.037109375 17.00075912475586 5333.99951171875 21.03804588317871 5333.99951171875 26.00054740905762 L 5333.99951171875 78.00025939941406 C 5333.99951171875 82.96276092529297 5338.037109375 87.00004577636719 5342.99951171875 87.00004577636719 L 5405 87.00004577636719 M 5405 88.00004577636719 L 5342.99951171875 88.00004577636719 C 5337.4765625 88.00004577636719 5332.99951171875 83.52316284179688 5332.99951171875 78.00025939941406 L 5332.99951171875 26.00054740905762 C 5332.99951171875 20.47763442993164 5337.4765625 16.00075912475586 5342.99951171875 16.00075912475586 L 5405 16.00075912475586 C 5410.52294921875 16.00075912475586 5415 20.47763442993164 5415 26.00054740905762 L 5415 45.33339691162109 L 5427.00048828125 52.00108337402344 L 5415 58.6678581237793 L 5415 78.00025939941406 C 5415 83.52316284179688 5410.52294921875 88.00004577636719 5405 88.00004577636719 Z" stroke="none" fill="#e66084"/>
      </g>
      <path id="パス_9122" data-name="パス 9122" d="M-24.805-9.163A11.9,11.9,0,0,1-27.522-4.84,6.99,6.99,0,0,1-26.906-3.8a10.025,10.025,0,0,0,.968-1.133V.847H-24.9v-7.37a17.248,17.248,0,0,0,1.111-2.321Zm7.37,2.332h-1.309V-9.108H-19.8v2.277h-4.3v1.023h4.3V-.44c0,.242-.1.319-.352.33s-1.177.022-2.068-.022a4.182,4.182,0,0,1,.4,1.023A8.276,8.276,0,0,0-19.393.715c.462-.154.649-.44.649-1.155V-5.808h1.309Zm-3.6,4.62c-.33-.66-1.045-1.771-1.573-2.6l-.891.418a27.37,27.37,0,0,1,1.507,2.7ZM-7.964-7.964v.8H-14.19v-.8Zm1.012,1.606V-8.767h-8.239v3.19c0,1.738-.1,4.18-1.155,5.874a3.148,3.148,0,0,1,.88.517c1.111-1.793,1.276-4.521,1.276-6.391v-.781ZM-7.986.055a8.449,8.449,0,0,0-.8-1.5l-.6.154c.077.132.165.275.242.418l-.781.033v-.737h2.211v1.6c0,.11-.033.132-.154.143a2.912,2.912,0,0,1-.451,0ZM-12.529-3.41v-.66h1.661v.66Zm4.3-.66v.66h-1.7v-.66Zm1.452,1.8H-9.933v-.528H-7.26V-4.686H-9.933v-.561a22.123,22.123,0,0,0,2.552-.33l-.583-.605a37.013,37.013,0,0,1-5.676.429,2.442,2.442,0,0,1,.2.649c.814,0,1.7-.033,2.574-.077v.495h-2.574v1.892h2.574v.528h-3V.88h.924V-1.573h2.079V-.8c-.649.022-1.243.044-1.727.055l.077.748c1-.055,2.365-.121,3.707-.209.066.143.121.253.165.374L-8.767.154a3.373,3.373,0,0,1,.253.7A4.082,4.082,0,0,0-7.139.737c.286-.121.363-.308.363-.715ZM2.068-6H-2.057V-7.788H2.068ZM3.113-8.767H-3.036v3.751H3.113Zm-4.73,5.8V-.682h-2V-2.97ZM-4.587.869h.968V.3h2v.5H-.6V-3.949H-4.587ZM1.452-.682V-2.97H3.63V-.682ZM.473-3.949V.869h.979V.3H3.63V.814H4.653V-3.949ZM8.668-1.2c0-.44.506-.8,1.441-.8a4.983,4.983,0,0,1,1,.1c.011.242.011.462.011.616,0,.7-.473.891-1.089.891C9.086-.4,8.668-.726,8.668-1.2Zm3.465-7.6H10.956a3.609,3.609,0,0,1,.055.693v.671h-.473a19.93,19.93,0,0,1-2.761-.242l.011,1c.715.088,2.035.2,2.761.2H11v1.353h-.561a21.505,21.505,0,0,1-2.717-.2L7.733-4.29c.759.088,1.98.143,2.684.143h.6c.011.407.033.858.044,1.287-.264-.022-.528-.044-.814-.044-1.639,0-2.618.715-2.618,1.771,0,1.1.891,1.716,2.541,1.716,1.441,0,2.046-.759,2.046-1.6,0-.154-.011-.341-.022-.572A8.458,8.458,0,0,1,14.663.022L15.3-.957A8.832,8.832,0,0,0,12.144-2.64c-.022-.5-.055-1.023-.077-1.529,1.056-.044,1.969-.121,2.981-.242l.011-1.023c-.957.132-1.925.231-3.014.275V-6.523c1.067-.044,2.09-.143,2.9-.242V-7.777a24.169,24.169,0,0,1-2.893.308c.011-.242.011-.451.022-.583C12.089-8.36,12.111-8.6,12.133-8.8Zm5.632,1.43.11,1.2c1.232-.264,3.8-.528,4.906-.638a4.412,4.412,0,0,0-1.87,3.575c0,2.42,2.255,3.575,4.411,3.685l.4-1.177C23.9-.8,22.033-1.474,22.033-3.476a3.647,3.647,0,0,1,2.431-3.311,10.6,10.6,0,0,1,2.145-.154V-8.052c-.759.022-1.859.088-3.036.187-2.024.176-3.982.363-4.785.44C18.568-7.4,18.183-7.381,17.765-7.37Zm7.26,1.65-.66.286a10.4,10.4,0,0,1,.88,1.54l.682-.308A15.357,15.357,0,0,0,25.025-5.72Zm1.221-.473-.66.3a10.323,10.323,0,0,1,.924,1.518l.671-.319A15.888,15.888,0,0,0,26.246-6.193ZM-8.14,5.8a11.754,11.754,0,0,1-2.684,4.213,6.055,6.055,0,0,1,.572,1.034A11.746,11.746,0,0,0-9.229,9.83v6.017h.968v-7.5A19.82,19.82,0,0,0-7.183,6.112Zm2.211,1.375h3.707V8.95H-5.929Zm5.3,4.807v-.924H-3.6v-1.2h2.4V6.277H-6.886V9.863H-4.62v1.2H-7.656v.924h2.5A8.065,8.065,0,0,1-8.008,14.6a4.511,4.511,0,0,1,.7.814A8.95,8.95,0,0,0-4.62,12.756V15.88H-3.6V12.7A9.442,9.442,0,0,0-1.045,15.44a4.572,4.572,0,0,1,.715-.814,8.176,8.176,0,0,1-2.717-2.64Zm4.8-5.852H1.133v.8H4.169Zm-.825,6.853v1.584H1.925V12.987Zm.891-.825H1.045v3.7h.88v-.473h2.31Zm-3.168-.726h3.1v-.792h-3.1Zm3.1-2.288h-3.1V9.94h3.1ZM.55,8.433h4V7.619h-4Zm7.843,6.094V11.161h2.046v-.968H8.393V7.355h2.112V6.387h-5.6v.968H7.392v7.172H6.281V9.192H5.335v5.335h-.77v.968h6.127v-.968Z" transform="translate(420 2955)" fill="#363636"/>
      <g id="グループ_4342" data-name="グループ 4342" transform="translate(-177.663 -4)">
        <path id="パス_8633" data-name="パス 8633" d="M218.56,89.542l4.475-1.509,1.032-3.92-1.548-1.084-1.928,2.751-2.706-.154-1.068-2.488,1.928-2.753L217.2,79.3l-3.332,2.311.11,4.72-7.279,10.4-4.472,1.507-1.032,3.92,1.548,1.084,1.928-2.753,2.7.154,1.07,2.489-1.928,2.753,1.548,1.084,3.33-2.312-.11-4.72-.011-.008,7.277-10.392Z" transform="translate(377.115 2835.699)" fill="#e66084"/>
        <path id="パス_8634" data-name="パス 8634" d="M212.923,105.18l2,1.4a1.578,1.578,0,0,0,2.193-.386l10.737-15.335.009.006,4.474-1.509,1.034-3.922-1.547-1.084L229.894,87.1l-2.708-.154-1.07-2.49,1.928-2.753L226.5,80.62l-3.331,2.312.108,4.721-10.739,15.334a1.578,1.578,0,0,0,.387,2.193m1.616-1.465a.741.741,0,1,1,.182,1.032.743.743,0,0,1-.182-1.032" transform="translate(383.652 2836.139)" fill="#e66084"/>
      </g>
    </g>
    <g id="グループ_4465" data-name="グループ 4465" transform="translate(-318 1482.005)">
      <g id="合体_41-7" data-name="合体 41" transform="translate(-4953.999 2889)" fill="#fff">
        <path d="M 5405 87.50004577636719 L 5342.99951171875 87.50004577636719 C 5337.76123046875 87.50004577636719 5333.49951171875 83.23845672607422 5333.49951171875 78.00025939941406 L 5333.49951171875 26.00054740905762 C 5333.49951171875 20.7623462677002 5337.76123046875 16.50075912475586 5342.99951171875 16.50075912475586 L 5405 16.50075912475586 C 5410.23828125 16.50075912475586 5414.5 20.7623462677002 5414.5 26.00054740905762 L 5414.5 45.33339691162109 L 5414.5 45.62758255004883 L 5414.75732421875 45.77045822143555 L 5425.97119140625 52.00105667114258 L 5414.75732421875 58.23078536987305 L 5414.5 58.37366104125977 L 5414.5 58.6678581237793 L 5414.5 78.00025939941406 C 5414.5 83.23845672607422 5410.23828125 87.50004577636719 5405 87.50004577636719 Z" stroke="none"/>
        <path d="M 5405 87.00004577636719 C 5409.96240234375 87.00004577636719 5414 82.96276092529297 5414 78.00025939941406 L 5414 58.07944488525391 L 5424.94140625 52.00102615356445 L 5414 45.92177200317383 L 5414 26.00054740905762 C 5414 21.03804588317871 5409.96240234375 17.00075912475586 5405 17.00075912475586 L 5342.99951171875 17.00075912475586 C 5338.037109375 17.00075912475586 5333.99951171875 21.03804588317871 5333.99951171875 26.00054740905762 L 5333.99951171875 78.00025939941406 C 5333.99951171875 82.96276092529297 5338.037109375 87.00004577636719 5342.99951171875 87.00004577636719 L 5405 87.00004577636719 M 5405 88.00004577636719 L 5342.99951171875 88.00004577636719 C 5337.4765625 88.00004577636719 5332.99951171875 83.52316284179688 5332.99951171875 78.00025939941406 L 5332.99951171875 26.00054740905762 C 5332.99951171875 20.47763442993164 5337.4765625 16.00075912475586 5342.99951171875 16.00075912475586 L 5405 16.00075912475586 C 5410.52294921875 16.00075912475586 5415 20.47763442993164 5415 26.00054740905762 L 5415 45.33339691162109 L 5427.00048828125 52.00108337402344 L 5415 58.6678581237793 L 5415 78.00025939941406 C 5415 83.52316284179688 5410.52294921875 88.00004577636719 5405 88.00004577636719 Z" stroke="none" fill="#e66084"/>
      </g>
      <path id="パス_9123" data-name="パス 9123" d="M-12.672-5.192l-.187.066h-2.024l.209-.341c-.286-.143-.66-.308-1.078-.5a17.226,17.226,0,0,0,2.717-2.156l-.748-.572-.22.055H-20.68v.946H-15a11.539,11.539,0,0,1-1.782,1.3c-.649-.275-1.309-.528-1.859-.748l-.528.77c.858.341,1.947.825,2.838,1.243h-5.379v.979h4.422V-.341c0,.165-.055.209-.264.22s-.979.011-1.694-.022a4.979,4.979,0,0,1,.385.99A7.123,7.123,0,0,0-16.808.682c.44-.143.583-.429.583-1V-4.147h2.739A10.85,10.85,0,0,1-14.564-2.6l.858.517a15.211,15.211,0,0,0,1.87-2.75Zm3.96,1.584H-7v.946H-8.712ZM-7-6.952v.825H-8.712v-.825ZM-8.712-5.324H-7v.913H-8.712ZM-5.3-2.662H-6.05v-4.29h.792v-.891H-6.05V-9.108H-7v1.265H-8.712V-9.108h-.924v1.265h-.891v.891h.891v4.29h-1.023v.891H-5.3ZM-9.218-1.6A5.432,5.432,0,0,1-10.692.275,5.216,5.216,0,0,1-9.878.88,7.692,7.692,0,0,0-8.25-1.331Zm1.584.4A11.382,11.382,0,0,1-6.49.473l.825-.5A10.5,10.5,0,0,0-6.853-1.628Zm3.773-2.519c.022-.352.022-.7.022-1.023v-.583H-1.9v1.606ZM-1.9-7.777v1.551H-3.839V-7.777Zm.99-.924H-4.807v3.96A10.2,10.2,0,0,1-5.753.319a3.6,3.6,0,0,1,.814.594A8.745,8.745,0,0,0-3.927-2.794H-1.9V-.352c0,.176-.066.22-.231.231-.143,0-.693.011-1.21-.011a3.509,3.509,0,0,1,.3.968A3.82,3.82,0,0,0-1.375.649C-1.034.5-.913.2-.913-.341Zm9.284.154H7.194a7.267,7.267,0,0,1,.077.9v1.43c-1.1.1-2.3.209-3.311.308.011-.528.011-.99.011-1.3a8.69,8.69,0,0,1,.055-1H2.805A6.535,6.535,0,0,1,2.882-7.15v1.342c-.462.044-.825.077-1.067.1-.462.044-.913.066-1.243.066L.693-4.521c.286-.044.858-.121,1.2-.165.242-.033.583-.066.99-.11,0,1.056,0,2.189.011,2.662.044,1.815.33,2.409,3,2.409A30.963,30.963,0,0,0,9.075.088l.033-1.177A20.533,20.533,0,0,1,5.83-.814c-1.793,0-1.837-.352-1.87-1.485-.022-.451-.011-1.54,0-2.618,1.023-.11,2.222-.22,3.289-.308a15.676,15.676,0,0,1-.11,1.6c-.022.242-.132.286-.385.286A6.408,6.408,0,0,1,5.7-3.487l-.022.957a12.957,12.957,0,0,0,1.54.165c.528,0,.781-.143.891-.671A16.755,16.755,0,0,0,8.272-5.3c.407-.022.77-.044,1.056-.044s.77-.022.957-.011V-6.435c-.286.022-.66.055-.946.066-.308.022-.671.044-1.045.077.011-.44.011-.913.022-1.386A6.537,6.537,0,0,1,8.371-8.547Zm9.218,7.183c0-.33.308-.638.869-.638a2.4,2.4,0,0,1,1.2.341,1.418,1.418,0,0,1-1.265.935C17.886-.726,17.589-.979,17.589-1.364Zm.341-7.282-1.21-.033a6.374,6.374,0,0,1,.022.946c-.011.187-.033.407-.055.638a5.507,5.507,0,0,0-2.5,1.133,13.232,13.232,0,0,1-.506-1.76l-1.023.429c.22.528.3.814.429,1.21.088.264.2.561.308.869q-.214.248-.4.495a4.854,4.854,0,0,0-.957,2.9c0,1.155.682,1.8,1.518,1.8,1.463,0,2.838-1.969,3.509-3.96a14.012,14.012,0,0,0,.539-2.3h.055a2.247,2.247,0,0,1,2.409,2.431,6.473,6.473,0,0,1-.132,1.32,3.8,3.8,0,0,0-1.529-.319,1.681,1.681,0,0,0-1.771,1.573c0,.946.7,1.507,1.782,1.507A2.294,2.294,0,0,0,20.526-1a10.015,10.015,0,0,1,.847.935l.66-.847a6.53,6.53,0,0,0-1.122-1.045,7.421,7.421,0,0,0,.231-1.914,3.212,3.212,0,0,0-3.4-3.322c.022-.176.044-.363.066-.528C17.831-7.931,17.875-8.327,17.93-8.646ZM13.046-1.991a4.07,4.07,0,0,1,.759-2.167c.143.341.275.649.407.913a9.653,9.653,0,0,0,.693,1.2,1.974,1.974,0,0,1-1.287.913C13.3-1.133,13.046-1.507,13.046-1.991Zm1.881-2.134c-.121-.242-.253-.55-.385-.891a4.328,4.328,0,0,1,2-1.122,11.92,11.92,0,0,1-.451,1.87,7.62,7.62,0,0,1-.561,1.254A10.3,10.3,0,0,1,14.927-4.125ZM-26.84,8.73h2.057a10.949,10.949,0,0,1-1.012,3.322,12.227,12.227,0,0,1-1.056-3.3Zm-2.75,5.005h-2.079V11.612h2.079Zm6.6-5.005V7.762h-3.531a15.8,15.8,0,0,0,.44-1.826l-1.034-.165A9.848,9.848,0,0,1-29,10.468a2.44,2.44,0,0,1,.264.187H-30.1V8.8h1.87V7.85H-30.1V5.782h-1.023V7.85h-1.958V8.8h1.958v1.859h-1.5V15.4h.946v-.7h3.058V10.743c.187.154.363.3.473.407a6.539,6.539,0,0,0,.638-.979,12.882,12.882,0,0,0,1.078,2.86,6.425,6.425,0,0,1-2.706,1.936,3.883,3.883,0,0,1,.583.913,7.624,7.624,0,0,0,2.684-1.947,6.138,6.138,0,0,0,2.255,1.947,3.7,3.7,0,0,1,.7-.891,5.365,5.365,0,0,1-2.31-1.947A11.968,11.968,0,0,0-23.76,8.73Zm7.04-.528a4.287,4.287,0,0,0-.3-.869h2.134c-.11.286-.264.616-.374.869Zm-1.221-.847a4.845,4.845,0,0,1,.3.847h-1.573v.825h6.611V8.2H-13.53c.132-.242.275-.55.451-.858l-.055-.011h1.067V6.519h-2.618V5.771h-.99v.748h-2.387v.814h1ZM-18.854,6.2l-.154.033h-2.42v9.636h.9V7.157h1.177c-.209.748-.5,1.727-.77,2.464a3.017,3.017,0,0,1,.891,2.057c0,.319-.044.583-.2.693a.592.592,0,0,1-.341.1,3.315,3.315,0,0,1-.561-.011,2,2,0,0,1,.242.88,5.216,5.216,0,0,0,.726-.011,1.481,1.481,0,0,0,.594-.22,1.523,1.523,0,0,0,.451-1.309,3.33,3.33,0,0,0-.913-2.288c.352-.858.737-2,1.045-2.926Zm1.991,5.236h3.421v.6h-3.421Zm0-1.221h3.421v.6h-3.421Zm5.071,3.179h-2.893V12.7h2.2V9.555h-5.3V12.7h2.112v.693h-2.871v.825h2.871v1.639h.99V14.219h2.893Zm5.654-5.94.011,1.122a28.035,28.035,0,0,0,4.609,0V7.454A20.271,20.271,0,0,1-6.138,7.454Zm.627,4.576-.99-.088A5.571,5.571,0,0,0-6.688,13.3c0,1.067.858,1.716,2.728,1.716a15.092,15.092,0,0,0,2.783-.22L-1.2,13.614a11.812,11.812,0,0,1-2.739.3c-1.331,0-1.716-.407-1.716-.9A3.821,3.821,0,0,1-5.511,12.03ZM-8.052,6.662l-1.221-.11a8,8,0,0,1-.1.913,31.743,31.743,0,0,0-.473,4.389,13.978,13.978,0,0,0,.407,3.553l1-.066c-.011-.132-.022-.3-.022-.407a2.15,2.15,0,0,1,.055-.506c.11-.55.495-1.727.781-2.563l-.55-.44c-.176.407-.4.946-.583,1.4a10.854,10.854,0,0,1-.066-1.177A26.38,26.38,0,0,1-8.283,7.5,7.889,7.889,0,0,1-8.052,6.662ZM5.1,6.277,3.872,6.211a4.658,4.658,0,0,1-.011.869c-.022.286-.055.638-.11,1.034A10.7,10.7,0,0,1,1.408,7.7L1.353,8.708a13.968,13.968,0,0,0,2.288.385c-.077.583-.154,1.2-.231,1.782a9.3,9.3,0,0,1-2.255-.44L1.1,11.491a12.027,12.027,0,0,0,2.2.374c-.044.495-.077.913-.077,1.2,0,1.826,1.221,2.519,2.816,2.519,2.277,0,3.751-1.078,3.751-2.728a3.835,3.835,0,0,0-1.1-2.585l-1.221.253a3.017,3.017,0,0,1,1.166,2.2c0,1.034-.968,1.749-2.574,1.749-1.177,0-1.76-.583-1.76-1.584,0-.231.022-.572.055-.957h.418c.715,0,1.386-.044,2.057-.11l.033-1.034a17.567,17.567,0,0,1-2.255.132H4.455c.066-.572.143-1.2.22-1.771H4.7a21.156,21.156,0,0,0,2.211-.11L6.941,8a14.7,14.7,0,0,1-2.134.143c.055-.418.1-.759.132-1C4.983,6.882,5.027,6.618,5.1,6.277ZM15.169,8.708a14.725,14.725,0,0,1-.6,2.552c-.528-.638-1.078-1.276-1.606-1.826l-.715.583a28.586,28.586,0,0,1,1.881,2.288,6.4,6.4,0,0,1-2.442,2.684,5.67,5.67,0,0,1,.693.792A7.44,7.44,0,0,0,14.751,13.2a11.111,11.111,0,0,1,.858,1.485l.825-.693a13.446,13.446,0,0,0-1.177-1.837A14.913,14.913,0,0,0,16.17,8.84ZM21.857,8.3H20.614V5.771H19.6V8.3H17.061V7.52H14.938V5.782h-.99V7.52h-2v.946H16.72v.825H19.6v5.247c0,.187-.077.242-.264.242s-.781.011-1.441-.011a4.728,4.728,0,0,1,.33,1.089,5.2,5.2,0,0,0,1.892-.209c.352-.187.495-.484.495-1.111V9.291h1.243Zm-3.08,4.378a8.271,8.271,0,0,0-1.2-2.365l-.836.4A9.158,9.158,0,0,1,17.9,13.119ZM24.9,8.1h8.085v-.99H28.908V5.771H27.841V7.113h-3.96V9.907a11.445,11.445,0,0,1-.968,5.368,5.214,5.214,0,0,1,.869.583A13.088,13.088,0,0,0,24.9,9.907Zm5.731,1.815A13.69,13.69,0,0,0,28.05,8.312l-.693.671A13.564,13.564,0,0,1,29.9,10.677Zm-4.906,4.95a9.524,9.524,0,0,0,.913-3.52l-.935-.209a8.311,8.311,0,0,1-.891,3.322Zm2.959-.132c-.374,0-.451-.066-.451-.451V10.248h-1v4.037c0,1.045.264,1.375,1.3,1.375h1.43c.968,0,1.232-.506,1.331-2.332a3.218,3.218,0,0,1-.9-.418c-.055,1.551-.11,1.826-.506,1.826Zm2.079-3.5a12.127,12.127,0,0,1,1.452,3.63l1-.418a11.756,11.756,0,0,0-1.551-3.575Z" transform="translate(420 2955)" fill="#363636"/>
      <g id="グループ_4343" data-name="グループ 4343" transform="translate(-87.248 -3.999)">
        <path id="パス_8656" data-name="パス 8656" d="M126.783,82.007H99.159a2.438,2.438,0,0,0-2.437,2.438v16.25a2.437,2.437,0,0,0,2.437,2.437h12.187v1.626h-8.938a.812.812,0,0,0-.813.811v1.626a.812.812,0,0,0,.813.813h21.125a.812.812,0,0,0,.811-.813v-1.626a.812.812,0,0,0-.811-.811H114.6v-1.626h12.187a2.437,2.437,0,0,0,2.437-2.437V84.445a2.438,2.438,0,0,0-2.437-2.438m-.314,18.438h-27V84.694h27Z" transform="translate(394.278 2834.993)" fill="#e66084"/>
        <path id="パス_8653" data-name="パス 8653" d="M158.633,95.556l3.2-3.2,3.2,3.2,2-2-3.2-3.2,3.2-3.2-2-2-3.2,3.2-3.2-3.2-2,2,3.2,3.2-3.2,3.2Z" transform="translate(345.638 2837.046)" fill="#e66084"/>
      </g>
    </g>
    <g id="グループ_4463" data-name="グループ 4463" transform="translate(-318 1407.005)">
      <g id="合体_41-8" data-name="合体 41" transform="translate(-4953.999 2889)" fill="#fff">
        <path d="M 5405 87.50004577636719 L 5342.99951171875 87.50004577636719 C 5337.76123046875 87.50004577636719 5333.49951171875 83.23845672607422 5333.49951171875 78.00025939941406 L 5333.49951171875 26.00054740905762 C 5333.49951171875 20.7623462677002 5337.76123046875 16.50075912475586 5342.99951171875 16.50075912475586 L 5405 16.50075912475586 C 5410.23828125 16.50075912475586 5414.5 20.7623462677002 5414.5 26.00054740905762 L 5414.5 45.33339691162109 L 5414.5 45.62758255004883 L 5414.75732421875 45.77045822143555 L 5425.97119140625 52.00105667114258 L 5414.75732421875 58.23078536987305 L 5414.5 58.37366104125977 L 5414.5 58.6678581237793 L 5414.5 78.00025939941406 C 5414.5 83.23845672607422 5410.23828125 87.50004577636719 5405 87.50004577636719 Z" stroke="none"/>
        <path d="M 5405 87.00004577636719 C 5409.96240234375 87.00004577636719 5414 82.96276092529297 5414 78.00025939941406 L 5414 58.07944488525391 L 5424.94140625 52.00102615356445 L 5414 45.92177200317383 L 5414 26.00054740905762 C 5414 21.03804588317871 5409.96240234375 17.00075912475586 5405 17.00075912475586 L 5342.99951171875 17.00075912475586 C 5338.037109375 17.00075912475586 5333.99951171875 21.03804588317871 5333.99951171875 26.00054740905762 L 5333.99951171875 78.00025939941406 C 5333.99951171875 82.96276092529297 5338.037109375 87.00004577636719 5342.99951171875 87.00004577636719 L 5405 87.00004577636719 M 5405 88.00004577636719 L 5342.99951171875 88.00004577636719 C 5337.4765625 88.00004577636719 5332.99951171875 83.52316284179688 5332.99951171875 78.00025939941406 L 5332.99951171875 26.00054740905762 C 5332.99951171875 20.47763442993164 5337.4765625 16.00075912475586 5342.99951171875 16.00075912475586 L 5405 16.00075912475586 C 5410.52294921875 16.00075912475586 5415 20.47763442993164 5415 26.00054740905762 L 5415 45.33339691162109 L 5427.00048828125 52.00108337402344 L 5415 58.6678581237793 L 5415 78.00025939941406 C 5415 83.52316284179688 5410.52294921875 88.00004577636719 5405 88.00004577636719 Z" stroke="none" fill="#e66084"/>
      </g>
      <path id="パス_8635" data-name="パス 8635" d="M126.783,82.007H99.159a2.438,2.438,0,0,0-2.437,2.438v16.25a2.437,2.437,0,0,0,2.437,2.437h12.187v1.626h-8.938a.812.812,0,0,0-.813.811v1.626a.812.812,0,0,0,.813.813h21.125a.812.812,0,0,0,.811-.813v-1.626a.812.812,0,0,0-.811-.811H114.6v-1.626h12.187a2.437,2.437,0,0,0,2.437-2.437V84.445a2.438,2.438,0,0,0-2.437-2.438m-.314,18.438h-27V84.694h27Z" transform="translate(307.279 2834.993)" fill="#e66084"/>
      <path id="パス_9124" data-name="パス 9124" d="M-23.254-7.3a10.539,10.539,0,0,0-1.705-1.76l-.759.484a10.529,10.529,0,0,1,1.65,1.815ZM-30.217-9.13a12.082,12.082,0,0,1-3.1,4.378,5.954,5.954,0,0,1,.583,1.023,11.165,11.165,0,0,0,1.32-1.441V.847h1.056V-6.677a16.389,16.389,0,0,0,1.111-2.134Zm7.15,3.707L-23.2-6.38l-3.223.407c-.088-.946-.143-1.991-.176-3.091h-1.034q.066,1.733.2,3.234l-2.464.308.154.968,2.409-.308c.418,3.377,1.276,5.555,3.113,5.709.583.033,1.089-.506,1.342-2.5a3.138,3.138,0,0,1-.847-.561c-.1,1.243-.264,1.848-.539,1.837-1.045-.121-1.7-1.936-2.057-4.631Zm5.8.748c-.374-.319-1.045-.814-1.617-1.2h1.716V-6.7H-18.8a5.288,5.288,0,0,0,.066-.814h1.386v-.8h-1.386v-.913h-.979v.913h-1.617v.8h1.617a4.268,4.268,0,0,1-.066.814H-21.67v.825h1.661a3.692,3.692,0,0,1-1.859,1.8,3.075,3.075,0,0,1,.671.693,4.7,4.7,0,0,0,1.859-1.738c.517.385,1.089.825,1.408,1.111Zm2.915,2.607h-4.994v-.869h4.994ZM-19.349-.385V-1.3h4.994v.913Zm7.37-5.489V-6.7h-2.112a4.112,4.112,0,0,0,.055-.726v-.088h1.705v-.8h-1.705v-.913h-.979v.913h-1.573v.8h1.573v.077a4.4,4.4,0,0,1-.055.737h-1.716v.825h1.43a3.317,3.317,0,0,1-1.782,1.441,4.035,4.035,0,0,1,.594.627H-20.35V.858h1V.484h4.994v.33h1.034v-4.62h-3a3.93,3.93,0,0,0,1.859-1.727,4.633,4.633,0,0,0,2.1,2.057,3.59,3.59,0,0,1,.649-.759,4.066,4.066,0,0,1-1.969-1.639Zm4.587.726.143.781c.649-.055,1.364-.132,2.123-.22a2.7,2.7,0,0,1,.077.363l.638-.264a5.738,5.738,0,0,0-.561-1.606l-.594.209c.077.187.165.4.231.605l-.847.055c.539-.726,1.133-1.661,1.606-2.453L-5.3-8.019c-.165.352-.385.759-.627,1.177-.11-.121-.242-.264-.385-.4.275-.44.594-1.056.891-1.595L-6.2-9.141A15.87,15.87,0,0,1-6.82-7.656c-.077-.066-.143-.121-.22-.176l-.407.561A7.61,7.61,0,0,1-6.314-6.193c-.242.374-.473.726-.7,1.023Zm3.85-.143.154.759.99-.11-.462.429a5.738,5.738,0,0,1,.737.539H-3.366a29.43,29.43,0,0,1-.286-3.553A7.994,7.994,0,0,1-2.585-6.193c-.209.319-.418.627-.616.88Zm1.43,2.519a5.234,5.234,0,0,1-.77,1.21,10.009,10.009,0,0,1-.341-1.3h2.6v-.814h-.88l.231-.22A5.24,5.24,0,0,0-2.3-4.642c.352-.044.726-.077,1.111-.121a4.278,4.278,0,0,1,.11.44l.627-.286a5.734,5.734,0,0,0-.627-1.606l-.594.242c.088.165.165.352.242.539l-.935.066C-1.859-6.05-1.3-6.93-.847-7.678l-.726-.341c-.165.352-.385.759-.627,1.177a4.28,4.28,0,0,0-.385-.407c.264-.44.594-1.056.9-1.595l-.792-.3a11.706,11.706,0,0,1-.616,1.474c-.077-.055-.143-.11-.22-.165l-.352.484c-.011-.605-.022-1.232-.011-1.87h-.9a41.863,41.863,0,0,0,.33,5.544H-7.172C-7.392-4.059-8.03-5.1-8.3-5.5v-.473h1.089v-.935H-8.3V-9.229h-.924v2.321h-1.3v.935h1.21a12.9,12.9,0,0,1-1.441,3.938,5.777,5.777,0,0,1,.473.858,11.022,11.022,0,0,0,1.056-2.6V.858H-8.3V-4.334c.264.517.539,1.111.671,1.452l.374-.528v.55h.737A3.855,3.855,0,0,1-7.9.176a2.349,2.349,0,0,1,.6.671A3.855,3.855,0,0,0-5.852-1.441a9.957,9.957,0,0,1,1.045.858l.539-.7A10.425,10.425,0,0,0-5.676-2.321c.022-.176.044-.352.066-.539h1.5A9.96,9.96,0,0,0-3.564-.9,6.708,6.708,0,0,1-5.533.2a4.268,4.268,0,0,1,.55.66,8.1,8.1,0,0,0,1.793-1A1.839,1.839,0,0,0-1.639.88C-.869.88-.583.528-.429-.7a2.368,2.368,0,0,1-.682-.451C-1.166-.231-1.276.011-1.573.011c-.352,0-.671-.253-.946-.726A5.982,5.982,0,0,0-1.254-2.453Zm12.3-1.089A4.072,4.072,0,0,0,5.874-8.008,4.768,4.768,0,0,0,.957-3.432c0,1.837,1,3.047,2.09,3.047s2-1.243,2.662-3.487a21.9,21.9,0,0,0,.66-3.091A2.925,2.925,0,0,1,9.031-3.894,3.164,3.164,0,0,1,6.369-.77a6.8,6.8,0,0,1-.979.154L6.039.418C8.712.033,10.186-1.551,10.186-3.861Zm-8.118.319A3.677,3.677,0,0,1,5.2-6.941,17.513,17.513,0,0,1,4.6-4.1C4.092-2.409,3.575-1.694,3.08-1.694,2.607-1.694,2.068-2.277,2.068-3.542ZM20.119-7.4H16.775v-.715h3.344Zm0,1.419H16.775V-6.71h3.344ZM21.1-8.877H15.84v3.652H21.1ZM15.2-3.586l-.143-.924L14-4.2V-6.138h1.166v-.946H14V-9.207h-.935v2.123H11.792v.946h1.276v2.211c-.517.143-1,.275-1.386.374l.231.99,1.155-.352V-.363c0,.154-.055.2-.187.2s-.528,0-.968-.011a3.265,3.265,0,0,1,.275.946,3.117,3.117,0,0,0,1.43-.2C13.9.418,14,.143,14-.363V-3.212ZM18.92-1.76h2.2v-.814h-2.2V-3.718h2.761v-.836H15.323v.836h2.64V-.506a2.491,2.491,0,0,1-1.232-1.518,11.4,11.4,0,0,0,.209-1.155l-.924-.11a5.061,5.061,0,0,1-1.6,3.542,4.749,4.749,0,0,1,.759.616,4.774,4.774,0,0,0,1.243-1.881C17.138.44,18.282.715,19.811.715H21.7a3.2,3.2,0,0,1,.286-.9c-.418.011-1.837.011-2.145.011a6.321,6.321,0,0,1-.924-.055Zm6.5-7.447a12.124,12.124,0,0,1-2.607,4.235,7.412,7.412,0,0,1,.561,1.045,12.014,12.014,0,0,0,.913-1.111v5.9h1V-6.611A16.723,16.723,0,0,0,26.378-8.9ZM27.852-2A7.111,7.111,0,0,1,25.872.187a6.8,6.8,0,0,1,.814.649,9.683,9.683,0,0,0,2.134-2.53Zm2.431.473a12.546,12.546,0,0,1,1.859,2.4L33,.319a13.428,13.428,0,0,0-1.892-2.3ZM28.6-6.006h1.892v2.475H28.6Zm2.893,2.475V-6.006h1.5v-.979h-1.5V-9.141h-1v2.156H28.6V-9.119h-1v2.134h-1.32v.979H27.6v2.475H26.015v1H33.1v-1Z" transform="translate(420 2962)" fill="#363636"/>
    </g>
    <path id="パス_9125" data-name="パス 9125" d="M-2.948-7.568h-5.1V-8.2h5.1Zm0,1.287h-5.1v-.638h5.1Zm1.023-2.607H-9.031V-5.6h7.106Zm-.33,6.006a5.184,5.184,0,0,1-1,1.386A4.848,4.848,0,0,1-4.18-2.882ZM-8.481-.8v-.715h1.727v.55Zm0-2.1h1.727v.649H-8.481Zm1.727-1.342v.616H-8.481v-.616Zm5.115.539-.176.033H-5.434v.792h.99l-.594.165A6.739,6.739,0,0,0-3.927-.924,6.33,6.33,0,0,1-5.775,0V-4.246H-.693v-.836h-9.636v.836h.9V-.715c-.363.033-.7.066-1,.088l.077.891c1-.1,2.3-.242,3.6-.385V.858h.979V.077a3.2,3.2,0,0,1,.506.748,7.6,7.6,0,0,0,2.035-1.1A6.1,6.1,0,0,0-1.045.858,3.031,3.031,0,0,1-.44.066a6.112,6.112,0,0,1-2.1-.946A6.249,6.249,0,0,0-1.012-3.465ZM9.13-3.135a15.119,15.119,0,0,1-2.1,1.386A5.8,5.8,0,0,1,6.006-3.135Zm.022,0H10.4v-.913H3.531v-.77H8.976v-.814H3.531v-.759H8.976v-.814H3.531v-.759H9.3v-.858H2.5v4.774H.605v.913H2.486V-.341c-.506.077-.979.143-1.375.2l.242.935C2.662.583,4.51.286,6.237-.011l-.055-.9L3.531-.506V-3.135h1.43A6.68,6.68,0,0,0,9.944.891a3.539,3.539,0,0,1,.649-.913A7.4,7.4,0,0,1,7.7-1.188,16.783,16.783,0,0,0,9.977-2.574ZM-16.687,22.143a2.671,2.671,0,0,0,2.728-2.805,2.328,2.328,0,0,0-2.464-2.574,2.315,2.315,0,0,0-1.111.286l.187-2.079h3V13.893h-4.1l-.242,3.85.616.407a2.13,2.13,0,0,1,1.3-.462,1.5,1.5,0,0,1,1.54,1.694,1.582,1.582,0,0,1-1.606,1.727,2.591,2.591,0,0,1-1.892-.869l-.6.825A3.583,3.583,0,0,0-16.687,22.143Zm6.655-2.695V17.5h2.211v1.947Zm7.128,0H-6.765V17.5H-3.7v-.957H-6.765V15.026h3.322v-.99H-9.812c.143-.33.3-.693.429-1.034l-1.034-.275a8.9,8.9,0,0,1-2.4,3.729,8.135,8.135,0,0,1,.891.66,10.007,10.007,0,0,0,1.584-2.09h2.519v1.518h-3.234v2.9h-1.771v.99h5.005v2.431h1.056V20.438H-2.9Zm4.62-5.467v.759H-.363v-.759Zm-2.079,2.3v-.814H1.716v.814Zm3.047.759V13.211H-1.375v9.658H-.363v-5.83ZM4.532,16.3v-.836H6.677V16.3Zm2.145-2.321v.759H4.532v-.759ZM1.991,21.087v-.913H4.224v.913Zm2.233-2.519v.858H1.991v-.858Zm3.487-5.357H3.553v3.85H6.677v4.521c0,.187-.055.242-.253.253-.176,0-.7.011-1.243-.011V17.8H1.056v4.609h.935v-.55h2.97a4.582,4.582,0,0,1,.319,1,5.568,5.568,0,0,0,1.914-.176c.4-.176.517-.506.517-1.089Zm11,4.928A4.072,4.072,0,0,0,14.4,13.992a4.768,4.768,0,0,0-4.917,4.576c0,1.837,1,3.047,2.09,3.047s2-1.243,2.662-3.487a21.9,21.9,0,0,0,.66-3.091,2.925,2.925,0,0,1,2.662,3.069,3.164,3.164,0,0,1-2.662,3.124,6.8,6.8,0,0,1-.979.154l.649,1.034C17.237,22.033,18.711,20.449,18.711,18.139Zm-8.118.319a3.677,3.677,0,0,1,3.135-3.4,17.513,17.513,0,0,1-.6,2.838c-.506,1.694-1.023,2.409-1.518,2.409C11.132,20.306,10.593,19.723,10.593,18.458Zm-24.541,20.57v-.374H-12.9c.528,0,.913.011,1.089.033V37.521a7.31,7.31,0,0,1-1.1.066h-1.034V36.311a7.172,7.172,0,0,1,.066-.957h-1.243a7.6,7.6,0,0,1,.055.957v1.276h-2.9V36.322a5.928,5.928,0,0,1,.066-.88h-1.243a6.036,6.036,0,0,1,.066.88v1.265h-1.078a6.838,6.838,0,0,1-1.144-.088v1.2c.176-.022.627-.044,1.144-.044h1.078V40.3c0,.462-.044.913-.055,1.067h1.221a9.78,9.78,0,0,1-.055-1.067v-1.65h2.9v.44c0,2.915-.968,3.861-3.025,4.62l.935.88C-14.586,43.439-13.948,41.866-13.948,39.028ZM-2.6,35.816a.653.653,0,0,1,.649-.66.662.662,0,0,1,.66.66.662.662,0,0,1-.66.66A.653.653,0,0,1-2.6,35.816Zm-.583,0a1.23,1.23,0,0,0,1.232,1.232A1.239,1.239,0,0,0-.7,35.816a1.239,1.239,0,0,0-1.243-1.232A1.23,1.23,0,0,0-3.179,35.816Zm-1.694-.385h-1.3a4.686,4.686,0,0,1,.088.858v1.023H-9.031a9.133,9.133,0,0,1-.979-.066V38.4c.3-.022.649-.033.99-.033h2.937v4.719c-.011.3-.132.407-.418.407a7.509,7.509,0,0,1-1.254-.121l.1,1.089a16.48,16.48,0,0,0,1.661.077c.726,0,1.034-.341,1.034-.935V38.368h2.772c.275,0,.649,0,.968.022V37.246a7.318,7.318,0,0,1-.979.066H-4.961V36.3A5.909,5.909,0,0,1-4.873,35.431Zm-2.5,4.576-.979-.473a11.419,11.419,0,0,1-2.079,2.86l.946.649A16.435,16.435,0,0,0-7.37,40.007Zm4.653-.484-.946.517a19.047,19.047,0,0,1,1.826,2.937L-.825,42.4A23.637,23.637,0,0,0-2.717,39.523Zm3.784-.429v1.364c.374-.033,1.034-.055,1.639-.055H8.69c.484,0,.99.044,1.232.055V39.094c-.275.022-.7.066-1.232.066H2.706C2.112,39.16,1.43,39.116,1.067,39.094ZM14.6,42.988a11.515,11.515,0,0,1-.088,1.408h1.353a12.888,12.888,0,0,1-.088-1.408v-3.4a28.8,28.8,0,0,1,4.158,1.716l.5-1.2a37.287,37.287,0,0,0-4.653-1.76V36.63c0-.385.044-.869.077-1.232H14.5a7.963,7.963,0,0,1,.1,1.232Zm-41.222,15.5h2.068V56.672h-4.048v7.271h1.98ZM-28.2,57.079h3.234v.99h-2.079v5.467H-28.2ZM-23.138,66h1.276V62.931h1.221c1.76,0,3.047-.814,3.047-2.585,0-1.826-1.287-2.453-3.091-2.453h-2.453Zm1.276-4.092V58.927h1.056c1.287,0,1.958.352,1.958,1.419s-.616,1.562-1.914,1.562ZM-16.131,66h1.265V62.227c.374-.957.968-1.3,1.463-1.3a1.79,1.79,0,0,1,.6.1l.231-1.1a1.505,1.505,0,0,0-.682-.132,2.091,2.091,0,0,0-1.716,1.243H-15l-.1-1.089h-1.034Zm6.9.143A3.67,3.67,0,0,0-7.188,65.5l-.44-.8a2.569,2.569,0,0,1-1.441.451,1.827,1.827,0,0,1-1.87-1.848h3.927a3.279,3.279,0,0,0,.066-.649c0-1.7-.869-2.86-2.475-2.86a2.941,2.941,0,0,0-2.761,3.179A2.91,2.91,0,0,0-9.234,66.143Zm-1.716-3.718A1.638,1.638,0,0,1-9.4,60.786c.88,0,1.353.6,1.353,1.639ZM-5.538,66h1.265V61.71a2,2,0,0,1,1.353-.825c.693,0,1.012.418,1.012,1.463V66H-.643V61.71a2.02,2.02,0,0,1,1.364-.825c.682,0,1.012.418,1.012,1.463V66H3V62.194c0-1.54-.594-2.4-1.859-2.4A2.787,2.787,0,0,0-.83,60.907,1.615,1.615,0,0,0-2.5,59.8a2.635,2.635,0,0,0-1.87,1h-.033l-.1-.847H-5.538ZM4.824,66H6.089V59.95H4.824Zm.627-7.183a.754.754,0,1,0,0-1.507.754.754,0,1,0,0,1.507Zm4.312,7.326a2.533,2.533,0,0,0,1.969-1.056h.033l.1.913H12.9V59.95H11.633v4.2c-.506.638-.891.9-1.452.9-.715,0-1.012-.418-1.012-1.452V59.95H7.9v3.806C7.9,65.3,8.465,66.143,9.763,66.143ZM14.8,66h1.265V61.71a2,2,0,0,1,1.353-.825c.693,0,1.012.418,1.012,1.463V66H19.7V61.71a2.02,2.02,0,0,1,1.364-.825c.682,0,1.012.418,1.012,1.463V66h1.265V62.194c0-1.54-.594-2.4-1.859-2.4a2.787,2.787,0,0,0-1.969,1.111A1.615,1.615,0,0,0,17.837,59.8a2.635,2.635,0,0,0-1.87,1h-.033l-.1-.847H14.8Zm11.825-.847H24.558v1.815h4.048V59.7h-1.98ZM28.2,66.561H24.965v-.99h2.079V60.1H28.2Z" transform="translate(191 4569)" fill="#fff"/>
    <g id="グループ_4471" data-name="グループ 4471" transform="translate(-166 1443)">
      <g id="パス_9126" data-name="パス 9126" transform="translate(219 2757)" fill="#d53434">
        <path d="M 25 49 C 21.75958061218262 49 18.61661911010742 48.36558151245117 15.65841960906982 47.1143684387207 C 12.80064010620117 45.9056282043457 10.23388004302979 44.17499923706055 8.029439926147461 41.97055816650391 C 5.824999809265137 39.76612091064453 4.094369888305664 37.19935989379883 2.885629892349243 34.34157943725586 C 1.634420037269592 31.38338088989258 1 28.24041938781738 1 25 C 1 21.75958061218262 1.634420037269592 18.61661911010742 2.885629892349243 15.65841960906982 C 4.094369888305664 12.80064010620117 5.824999809265137 10.23388004302979 8.029439926147461 8.029439926147461 C 10.23388004302979 5.824999809265137 12.80064010620117 4.094369888305664 15.65841960906982 2.885629892349243 C 18.61661911010742 1.634420037269592 21.75958061218262 1 25 1 C 28.24041938781738 1 31.38338088989258 1.634420037269592 34.34157943725586 2.885629892349243 C 37.19935989379883 4.094369888305664 39.76612091064453 5.824999809265137 41.97055816650391 8.029439926147461 C 44.17499923706055 10.23388004302979 45.9056282043457 12.80064010620117 47.1143684387207 15.65841960906982 C 48.36558151245117 18.61661911010742 49 21.75958061218262 49 25 C 49 28.24041938781738 48.36558151245117 31.38338088989258 47.1143684387207 34.34157943725586 C 45.9056282043457 37.19935989379883 44.17499923706055 39.76612091064453 41.97055816650391 41.97055816650391 C 39.76612091064453 44.17499923706055 37.19935989379883 45.9056282043457 34.34157943725586 47.1143684387207 C 31.38338088989258 48.36558151245117 28.24041938781738 49 25 49 Z" stroke="none"/>
        <path d="M 25 2 C 21.89414024353027 2 18.88224029541016 2.607841491699219 16.04798126220703 3.806629180908203 C 13.30939102172852 4.964958190917969 10.84946823120117 6.623619079589844 8.736541748046875 8.736541748046875 C 6.623619079589844 10.84946823120117 4.964958190917969 13.30939102172852 3.806629180908203 16.04798126220703 C 2.607841491699219 18.88224029541016 2 21.89414024353027 2 25 C 2 28.10585975646973 2.607841491699219 31.11775970458984 3.806629180908203 33.95201873779297 C 4.964958190917969 36.69060897827148 6.623619079589844 39.15052795410156 8.736541748046875 41.26345825195312 C 10.84946823120117 43.37638092041016 13.30939102172852 45.03504180908203 16.04798126220703 46.1933708190918 C 18.88224029541016 47.39215850830078 21.89414024353027 48 25 48 C 28.10585975646973 48 31.11775970458984 47.39215850830078 33.95201873779297 46.1933708190918 C 36.69060897827148 45.03504180908203 39.15052795410156 43.37638092041016 41.26345825195312 41.26345825195312 C 43.37638092041016 39.15052795410156 45.03504180908203 36.69060897827148 46.1933708190918 33.95201873779297 C 47.39215850830078 31.11775970458984 48 28.10585975646973 48 25 C 48 21.89414024353027 47.39215850830078 18.88224029541016 46.1933708190918 16.04798126220703 C 45.03504180908203 13.30939102172852 43.37638092041016 10.84946823120117 41.26345825195312 8.736541748046875 C 39.15052795410156 6.623619079589844 36.69060897827148 4.964958190917969 33.95201873779297 3.806629180908203 C 31.11775970458984 2.607841491699219 28.10585975646973 2 25 2 M 25 0 C 38.80712127685547 0 50 11.19287872314453 50 25 C 50 38.80712127685547 38.80712127685547 50 25 50 C 11.19287872314453 50 0 38.80712127685547 0 25 C 0 11.19287872314453 11.19287872314453 0 25 0 Z" stroke="none" fill="#fff"/>
      </g>
      <path id="パス_9127" data-name="パス 9127" d="M-7.455-10.909h-1.63V-2.9h-.1l-5.55-8.011H-16.26V0h1.646V-8h.1l5.545,8h1.513ZM-5.058,0h6.9V-1.417H-3.412v-3.34H1.425V-6.168H-3.412V-9.492H1.782v-1.417H-5.058ZM6.123,0H7.785l2.3-8.171h.085L12.462,0h1.657l3.031-10.909H15.413l-2.12,8.453h-.1l-2.211-8.453H9.266L7.055-2.461h-.1L4.829-10.909H3.1Z" transform="translate(244 2788)" fill="#fff"/>
    </g>
    <path id="パス_9128" data-name="パス 9128" d="M0,0H435V55H0Z" transform="translate(299 4440) rotate(90)" fill="#00c8ac"/>
    <path id="パス_9129" data-name="パス 9129" d="M-12.576-2.472H-15.4V-5.436H-12.8v-.8H-15.4V-8.724a19.567,19.567,0,0,0,2.472-.564L-13.572-10a29.924,29.924,0,0,1-5.7,1.008,2.412,2.412,0,0,1,.252.732c.876-.084,1.824-.192,2.748-.324v6.108h-1.476v-4.44H-18.6v4.44h-.972v.828h7Zm-7.56-3.408-.168.024h-1.44c.624-1.152,1.26-2.364,1.7-3.264l-.612-.2-.144.048h-2.676v.792h2.208C-21.816-7.416-22.62-5.94-23.292-4.8l.816.252.3-.528h1.62a10.864,10.864,0,0,1-.8,2.868A6.041,6.041,0,0,1-22.3-4.14l-.7.264A7.333,7.333,0,0,0-21.78-1.44,5.5,5.5,0,0,1-23.556.348a2.774,2.774,0,0,1,.672.624A5.937,5.937,0,0,0-21.168-.8c1.284,1.14,3.036,1.416,5.2,1.416h3.192a2.937,2.937,0,0,1,.36-.876c-.624.024-3.036.024-3.528.024-1.956-.012-3.612-.24-4.812-1.3a12.724,12.724,0,0,0,1.14-4.2Zm18.2,2.46A18.441,18.441,0,0,1-4.464-1.8,6.072,6.072,0,0,1-5.7-3.528H-.672v-.8H-8.316v-1.02H-2.2v-.732h-6.12v-1H-2.2v-.732h-6.12v-1h6.48v-.756H-9.228v5.232h-2.1v.8h2.1V-.216c-.564.084-1.092.168-1.524.228l.228.816C-9.1.588-7.044.24-5.136-.1l-.036-.792c-1.056.18-2.148.36-3.144.528V-3.528h1.7A7.5,7.5,0,0,0-1.032.948,2.783,2.783,0,0,1-.48.168,8.1,8.1,0,0,1-3.9-1.308,19.462,19.462,0,0,0-1.2-2.94Zm5.268-6.588A13.474,13.474,0,0,1,.312-5.28a7.287,7.287,0,0,1,.5.864A12.967,12.967,0,0,0,2.1-5.952V.888h.852V-7.26a17.826,17.826,0,0,0,1.224-2.5ZM5.412-8.676H9.864v2.2H5.412Zm6,5.292V-4.2H8.052V-5.688h2.7V-9.48H4.572v3.792H7.164V-4.2H3.684v.816H6.648A8.889,8.889,0,0,1,3.336-.312,4.395,4.395,0,0,1,3.96.4,10.029,10.029,0,0,0,7.164-2.8V.924h.888V-2.832A11.052,11.052,0,0,0,11.088.42a4.043,4.043,0,0,1,.636-.708,9.35,9.35,0,0,1-3.156-3.1Zm5-6.24H13.14v.72h3.276Zm.42,1.6H12.5V-7.3h4.332Zm-.408,1.656h-3.36v.708h3.36Zm-3.36,2.34h3.36V-4.74h-3.36ZM15.7-2.376V-.384H13.824V-2.376Zm.78-.732H13.044V.9h.78V.36h2.652Zm4.4,2.76V-4.332h2.376v-.84H20.88v-3.3h2.448V-9.3h-6.1v.828h2.784V-.348h-1.44V-6.312h-.84V-.348h-.9V.5H23.52V-.348ZM-15.228,13.06v1c.324-.024.708-.036,1.08-.036h4.7c.408,0,.816.012,1.1.036v-1a7.474,7.474,0,0,1-1.092.06h-4.716A7.5,7.5,0,0,1-15.228,13.06Zm7.764,3.168-.684-.432a1.594,1.594,0,0,1-.66.1h-6.324a11.342,11.342,0,0,1-1.176-.072v1.008c.432-.024.888-.036,1.176-.036H-8.76a6.135,6.135,0,0,1-1.428,2.652,8,8,0,0,1-4.224,2.2l.744.852a8.69,8.69,0,0,0,4.3-2.508A8.264,8.264,0,0,0-7.62,16.576,2.1,2.1,0,0,1-7.464,16.228Zm2.5,1.44.48.936A23.7,23.7,0,0,0,.084,16.648v4.44a11.131,11.131,0,0,1-.072,1.284H1.188a9.055,9.055,0,0,1-.072-1.284V16.024a19.632,19.632,0,0,0,3.24-2.676l-.8-.744a14.3,14.3,0,0,1-3.276,2.82A19.837,19.837,0,0,1-4.968,17.668Zm15.012,3.276A10.573,10.573,0,0,1,9.96,22.36h1.164c-.048-.4-.072-1.044-.072-1.416,0-.348,0-2.16-.012-3.96a31.461,31.461,0,0,1,4.716,1.932l.408-1.02a38.354,38.354,0,0,0-5.124-1.98V13.96c0-.36.048-.876.084-1.248H9.948a7.574,7.574,0,0,1,.1,1.248Z" transform="translate(271 4598)" fill="#fff"/>
    <g id="グループ_4420" data-name="グループ 4420" transform="translate(2193 63)">
      <path id="パス_9130" data-name="パス 9130" d="M3.579.136c1.773,0,2.966-1.347,2.966-3.375,0-2.045-1.193-3.392-2.966-3.392S.614-5.284.614-3.239C.614-1.21,1.807.136,3.579.136Zm0-.9c-1.347,0-1.96-1.159-1.96-2.472s.614-2.489,1.96-2.489S5.54-4.551,5.54-3.239,4.926-.767,3.579-.767ZM8.08,0H9.085V-4.142a1.548,1.548,0,0,1,1.653-1.534,3.075,3.075,0,0,1,.614.068V-6.631c-.115-.009-.379-.017-.528-.017a1.781,1.781,0,0,0-1.7,1.091H9.051v-.989H8.08Z" transform="translate(-1927 4614)" fill="#fff"/>
      <path id="パス_9131" data-name="パス 9131" d="M3.579.136c1.773,0,2.966-1.347,2.966-3.375,0-2.045-1.193-3.392-2.966-3.392S.614-5.284.614-3.239C.614-1.21,1.807.136,3.579.136Zm0-.9c-1.347,0-1.96-1.159-1.96-2.472s.614-2.489,1.96-2.489S5.54-4.551,5.54-3.239,4.926-.767,3.579-.767ZM8.08,0H9.085V-4.142a1.548,1.548,0,0,1,1.653-1.534,3.075,3.075,0,0,1,.614.068V-6.631c-.115-.009-.379-.017-.528-.017a1.781,1.781,0,0,0-1.7,1.091H9.051v-.989H8.08Z" transform="translate(-1927 4663)" fill="#fff"/>
      <path id="パス_9132" data-name="パス 9132" d="M9,0H39a9,9,0,0,1,0,18H9A9,9,0,0,1,9,0Z" transform="translate(-1946 4576)" fill="#fff"/>
      <path id="パス_9133" data-name="パス 9133" d="M9,0H39a9,9,0,0,1,0,18H9A9,9,0,0,1,9,0Z" transform="translate(-1946 4625)" fill="#fff"/>
      <path id="パス_9134" data-name="パス 9134" d="M9,0H39a9,9,0,0,1,0,18H9A9,9,0,0,1,9,0Z" transform="translate(-1946 4674)" fill="#fff"/>
      <path id="パス_9135" data-name="パス 9135" d="M.528,0H6.06V-.948H3.624c-.444,0-.984.048-1.44.084C4.248-2.82,5.628-4.608,5.628-6.36a2.413,2.413,0,0,0-2.556-2.6A3.364,3.364,0,0,0,.48-7.668l.636.624A2.463,2.463,0,0,1,2.94-8.064a1.546,1.546,0,0,1,1.62,1.74C4.56-4.812,3.288-3.06.528-.648Zm9.6-2.688V-5.064h2.688v2.376Zm7.932,0H13.716V-5.064h3.516V-5.9H13.716V-7.728h3.792v-.864H10.356c.192-.408.384-.84.552-1.26l-.9-.216a10.155,10.155,0,0,1-2.7,4.14,5.523,5.523,0,0,1,.768.564A11.087,11.087,0,0,0,9.9-7.728h2.916V-5.9H9.24v3.216H7.272v.864h5.544V.924h.9V-1.824H18.06Zm5.2-6.144v1H20.664v-1ZM20.664-6.12V-7.176h2.592V-6.12Zm3.444.684V-9.528H19.776V.924h.888v-6.36Zm1.932,1.6v1.1H23.22v-1.1ZM23.22-.9V-2.064h2.82V-.9Zm3.648.708V-4.536H22.416V.408h.8v-.6Zm-.84-5.916V-7.176h2.688v1.068Zm2.688-2.724v1H26.028v-1Zm.9-.7h-4.44v4.1h3.54V-.276c0,.216-.072.288-.276.288S27.492.036,26.76,0a3.287,3.287,0,0,1,.312.912A6.83,6.83,0,0,0,29.088.756c.4-.156.528-.456.528-1.02Z" transform="translate(-1937 4590)" fill="#00c8ac"/>
      <path id="パス_9136" data-name="パス 9136" d="M3.168.156a2.561,2.561,0,0,0,2.82-2.508,2.263,2.263,0,0,0-1.86-2.232v-.048a2.2,2.2,0,0,0,1.56-2.124A2.26,2.26,0,0,0,3.132-8.964,3.522,3.522,0,0,0,.672-7.908l.588.7a2.568,2.568,0,0,1,1.824-.852A1.35,1.35,0,0,1,4.572-6.672c0,.948-.624,1.68-2.436,1.68v.84c2.028,0,2.736.708,2.736,1.752A1.622,1.622,0,0,1,3.084-.756,2.908,2.908,0,0,1,.9-1.764l-.552.72A3.641,3.641,0,0,0,3.168.156Zm6.96-2.844V-5.064h2.688v2.376Zm7.932,0H13.716V-5.064h3.516V-5.9H13.716V-7.728h3.792v-.864H10.356c.192-.408.384-.84.552-1.26l-.9-.216a10.155,10.155,0,0,1-2.7,4.14,5.523,5.523,0,0,1,.768.564A11.087,11.087,0,0,0,9.9-7.728h2.916V-5.9H9.24v3.216H7.272v.864h5.544V.924h.9V-1.824H18.06Zm5.2-6.144v1H20.664v-1ZM20.664-6.12V-7.176h2.592V-6.12Zm3.444.684V-9.528H19.776V.924h.888v-6.36Zm1.932,1.6v1.1H23.22v-1.1ZM23.22-.9V-2.064h2.82V-.9Zm3.648.708V-4.536H22.416V.408h.8v-.6Zm-.84-5.916V-7.176h2.688v1.068Zm2.688-2.724v1H26.028v-1Zm.9-.7h-4.44v4.1h3.54V-.276c0,.216-.072.288-.276.288S27.492.036,26.76,0a3.287,3.287,0,0,1,.312.912A6.83,6.83,0,0,0,29.088.756c.4-.156.528-.456.528-1.02Z" transform="translate(-1937 4639)" fill="#00c8ac"/>
      <path id="パス_9137" data-name="パス 9137" d="M1.38-3.3l2-3c.252-.432.492-.864.708-1.3H4.14c-.024.456-.06,1.164-.06,1.6v2.7ZM4.08,0H5.112V-2.424H6.276V-3.3H5.112V-8.808H3.9L.24-3.144v.72H4.08Zm6.048-2.688V-5.064h2.688v2.376Zm7.932,0H13.716V-5.064h3.516V-5.9H13.716V-7.728h3.792v-.864H10.356c.192-.408.384-.84.552-1.26l-.9-.216a10.155,10.155,0,0,1-2.7,4.14,5.523,5.523,0,0,1,.768.564A11.087,11.087,0,0,0,9.9-7.728h2.916V-5.9H9.24v3.216H7.272v.864h5.544V.924h.9V-1.824H18.06Zm5.2-6.144v1H20.664v-1ZM20.664-6.12V-7.176h2.592V-6.12Zm3.444.684V-9.528H19.776V.924h.888v-6.36Zm1.932,1.6v1.1H23.22v-1.1ZM23.22-.9V-2.064h2.82V-.9Zm3.648.708V-4.536H22.416V.408h.8v-.6Zm-.84-5.916V-7.176h2.688v1.068Zm2.688-2.724v1H26.028v-1Zm.9-.7h-4.44v4.1h3.54V-.276c0,.216-.072.288-.276.288S27.492.036,26.76,0a3.287,3.287,0,0,1,.312.912A6.83,6.83,0,0,0,29.088.756c.4-.156.528-.456.528-1.02Z" transform="translate(-1937 4688)" fill="#00c8ac"/>
    </g>
    <path id="パス_8697" data-name="パス 8697" d="M0,71,30,35.5,0,0Z" transform="translate(307 4872) rotate(90)" fill="#00c8ac"/>
    <g id="グループ_4419" data-name="グループ 4419" transform="translate(2290 155)">
      <path id="パス_9138" data-name="パス 9138" d="M0,0H88V55H0Z" transform="translate(-1991 4169) rotate(90)" fill="#818181"/>
      <path id="パス_8429" data-name="パス 8429" d="M0,71,30,35.5,0,0Z" transform="translate(-1983 4255) rotate(90)" fill="#818181"/>
      <path id="パス_9139" data-name="パス 9139" d="M-14.28-8.736l-1.1-.384a6.884,6.884,0,0,1-.24.888,13.425,13.425,0,0,1-1.632,3.276c-.948-.732-2.34-1.716-3.372-2.376l-.624.756a37.543,37.543,0,0,1,3.384,2.424A13.323,13.323,0,0,1-22.632-.384l.828.756A15.288,15.288,0,0,0-17.1-3.5a26.763,26.763,0,0,1,2.832,2.76l.756-.828A30.031,30.031,0,0,0-16.476-4.32a16.716,16.716,0,0,0,1.8-3.54A6.475,6.475,0,0,1-14.28-8.736Zm3.5,3.54V-4.02c.372-.036,1.008-.06,1.668-.06H-2.52c.54,0,1.044.048,1.284.06V-5.2c-.264.024-.7.06-1.3.06H-9.108C-9.78-5.136-10.416-5.172-10.776-5.2ZM6.1-9.444H4.968a7.275,7.275,0,0,1,.084,1c0,.432-.024.84-.048,1.224H2.892A12.56,12.56,0,0,1,1.524-7.3v1.02A12.8,12.8,0,0,1,2.9-6.324H4.92A7.716,7.716,0,0,1,2.544-1.272a5.915,5.915,0,0,1-1.236.888l.876.708c2-1.38,3.252-3.2,3.684-6.648h3.36c0,1.284-.156,4.236-.612,5.148a.65.65,0,0,1-.7.4A14.6,14.6,0,0,1,6.132-.912l.12,1c.624.036,1.32.084,1.932.084A1.245,1.245,0,0,0,9.468-.564c.54-1.152.684-4.644.732-5.8a3.753,3.753,0,0,1,.06-.588l-.672-.336a4.325,4.325,0,0,1-.768.06H5.964c.024-.4.048-.8.06-1.236C6.036-8.748,6.06-9.168,6.1-9.444ZM13.224-5.2V-4.02c.372-.036,1.008-.06,1.668-.06H21.48c.54,0,1.044.048,1.284.06V-5.2c-.264.024-.7.06-1.3.06H14.892C14.22-5.136,13.584-5.172,13.224-5.2ZM-3.444,14.056h-1.1v-.828h1.1Zm1.836,2.172H-2.784V14.752h1.176Zm-4.68-1.476h1.08v1.476h-1.08Zm2.844,0v1.476H-4.56V14.752Zm-1.836-.7H-7.044v2.856H-.828V14.056h-1.9v-.828H-.516v-.744h-6.9v.744H-5.28Zm4.152,4.26v-.684h-5.6v.684ZM-7.416,18.3c-.2-.324-1.092-1.656-1.428-2.1v-.828H-7.5v-.828H-8.844V11.956H-9.66v2.592h-1.68v.828h1.584a13.025,13.025,0,0,1-1.824,4.5,4.978,4.978,0,0,1,.456.768A12.53,12.53,0,0,0-9.66,17.3v5.6h.816V17.26c.348.588.768,1.32.936,1.7Zm1.32,1.884A6.965,6.965,0,0,1-7.92,21.964a2.954,2.954,0,0,1,.552.54A7.924,7.924,0,0,0-5.412,20.56Zm5.58-.276v-.72h-6.96v.72H-4.44v2.112c0,.12-.036.168-.18.168H-5.8a2.674,2.674,0,0,1,.264.732,4.925,4.925,0,0,0,1.548-.132c.3-.12.372-.348.372-.756V19.912Zm-2.232.72a14.759,14.759,0,0,1,1.656,1.884l.66-.48a12.819,12.819,0,0,0-1.692-1.812Zm10.02-5.76H5.328V14H7.272Zm0,1.524H5.328v-.852H7.272Zm0,1.584H5.328v-.912H7.272Zm-2.8.72H11.16v-.72H8.112v-.912h2.4V16.4h-2.4v-.852h2.376v-.672H8.112V14h2.724v-.72H8.184c.216-.348.456-.744.672-1.128l-.948-.18a12.684,12.684,0,0,1-.624,1.308H5.616A9.369,9.369,0,0,0,6.24,12.16l-.852-.252a8.483,8.483,0,0,1-2.424,3.06,5.891,5.891,0,0,1,.7.612,8.555,8.555,0,0,0,.816-.8Zm-2.988.408c.72-.78,1.524-1.7,2.208-2.544l-.48-.6a28.1,28.1,0,0,1-2.352,2.46Zm2.3-6.18a9.674,9.674,0,0,0-1.932-.9l-.444.612a10.425,10.425,0,0,1,1.908.984ZM2.9,14.8A10.674,10.674,0,0,0,.96,14l-.444.624a9.852,9.852,0,0,1,1.944.888Zm8.472,4.968H6.408v-.984h-.9v.984H.672v.8H5.508v2.352h.9V20.572h4.968Zm-32.04,14.224a13.474,13.474,0,0,1-3.024,4.728,7.287,7.287,0,0,1,.5.864A12.968,12.968,0,0,0-21.9,38.048v6.84h.852V36.74a17.826,17.826,0,0,0,1.224-2.5Zm2.076,1.332h4.452v2.2h-4.452Zm6,5.292V39.8h-3.36V38.312h2.7V34.52h-6.18v3.792h2.592V39.8h-3.48v.816h2.964a8.889,8.889,0,0,1-3.312,3.072,4.395,4.395,0,0,1,.624.708,10.029,10.029,0,0,0,3.2-3.192v3.72h.888V41.168a11.052,11.052,0,0,0,3.036,3.252,4.043,4.043,0,0,1,.636-.708,9.35,9.35,0,0,1-3.156-3.1Zm5-6.24H-10.86v.72h3.276Zm.42,1.6H-11.5V36.7h4.332Zm-.408,1.656h-3.36v.708h3.36Zm-3.36,2.34h3.36V39.26h-3.36ZM-8.3,41.624v1.992h-1.872V41.624Zm.78-.732h-3.432V44.9h.78v-.54h2.652Zm4.4,2.76V39.668H-.744v-.84H-3.12v-3.3H-.672V34.7h-6.1v.828h2.784v8.124h-1.44V37.688h-.84v5.964h-.9V44.5H-.48v-.852Zm5.6-3.636H4.656v1.2H2.484Zm2.172-3.672V37.4H2.484V36.344ZM2.484,38.12H4.656V39.3H2.484Zm3.876,3.1H5.484V36.344H6.36v-.8H5.484V34.1H4.656v1.44H2.484V34.1H1.668v1.44H.66v.8H1.668v4.872H.5v.8H6.36Zm-4.2,1.056A6.26,6.26,0,0,1,.516,44.408a5.516,5.516,0,0,1,.72.516A7.932,7.932,0,0,0,3.012,42.5Zm1.7.372A9.42,9.42,0,0,1,5.1,44.468l.72-.42a8.89,8.89,0,0,0-1.26-1.776Zm3.9-2.568c.012-.408.024-.816.024-1.188v-.8h2.448v1.992Zm2.472-4.7V37.28H7.788V35.372Zm.864-.816H6.948v4.332c0,1.716-.1,4-1.092,5.58a2.287,2.287,0,0,1,.708.516,9.4,9.4,0,0,0,1.14-4.1h2.532v2.88c0,.192-.072.252-.252.252s-.768.012-1.4,0a3.628,3.628,0,0,1,.276.864,5.319,5.319,0,0,0,1.788-.168c.324-.144.456-.408.456-.936Zm5.5.612v1H14v-1ZM14,37.88V36.824H16.6V37.88Zm3.444.684V34.472H13.116V44.924H14v-6.36Zm1.932,1.6v1.1H16.56v-1.1ZM16.56,43.1V41.936h2.82V43.1Zm3.648.708V39.464H15.756v4.944h.8v-.6Zm-.84-5.916V36.824h2.688v1.068Zm2.688-2.724v1H19.368v-1Zm.9-.7h-4.44v4.1h3.54v5.148c0,.216-.072.288-.276.288s-.948.024-1.68-.012a3.287,3.287,0,0,1,.312.912,6.83,6.83,0,0,0,2.016-.156c.4-.156.528-.456.528-1.02Z" transform="translate(-2018 4199)" fill="#f5f5f5"/>
    </g>
  </g>
</svg>
