<svg xmlns="http://www.w3.org/2000/svg" xmlns:xlink="http://www.w3.org/1999/xlink" width="186" height="229" viewBox="0 0 186 229">
  <defs>
    <clipPath id="clip-path">
      <path id="パス_7877" data-name="パス 7877" d="M194.41,102.347a4.291,4.291,0,1,1,2.369.716,4.291,4.291,0,0,1-2.369-.716M110.093,34.828l11.62,6.617L121.237,52,111.7,56.542l-10.621-8.136S98.818,62.723,110.3,67.985c9.516,4.364,13.041.64,15.813.3s5.218.916,7.83,3.012,46.2,30.983,51.982,35.075c7.267,5.149,15.635,6.45,20.421-2.464,4.251-7.907-.2-13.23-7.983-17.808-6.1-3.586-51.459-28.309-54.406-29.9s-5.054-3.354-5.821-6.043,1.3-7.38-6.424-14.454a15.024,15.024,0,0,0-10.443-4.033,23.6,23.6,0,0,0-11.173,3.161" transform="translate(-100.9 -31.667)" fill="#00c8ac"/>
    </clipPath>
    <clipPath id="clip-path-2">
      <path id="パス_7878" data-name="パス 7878" d="M126.516,47.811,104.2,81.451c-.018.025-.025.058-.044.084l13.684,9.077c.018-.025.04-.044.058-.073L140.219,56.9a5,5,0,0,0-1.4-6.911l-5.385-3.572a5,5,0,0,0-6.918,1.4" transform="translate(-104.159 -45.584)" fill="#00c8ac"/>
    </clipPath>
    <clipPath id="clip-path-3">
      <path id="パス_7879" data-name="パス 7879" d="M129.748,39.239l.9,6.722L116.852,66.1l4.851,3.23,12.583-20.958,6.33-1.922,6.319-14.556L140.5,27.7Z" transform="translate(-116.852 -27.703)" fill="#00c8ac"/>
    </clipPath>
  </defs>
  <g id="グループ_4482" data-name="グループ 4482" transform="translate(-1047 -542)">
    <g id="グループ_4170" data-name="グループ 4170" transform="translate(1047 542)">
      <g id="グループ_4151" data-name="グループ 4151" transform="translate(0 14.57)">
        <g id="グループ_4150" data-name="グループ 4150" clip-path="url(#clip-path)">
          <rect id="長方形_3534" data-name="長方形 3534" width="111.776" height="81.152" transform="translate(-2.083 -0.001)" fill="#00c8ac"/>
        </g>
      </g>
      <g id="グループ_4153" data-name="グループ 4153" transform="translate(12.141 64.973)">
        <g id="グループ_4152" data-name="グループ 4152" clip-path="url(#clip-path-2)">
          <rect id="長方形_3535" data-name="長方形 3535" width="37.575" height="45.027" transform="translate(0 -0.001)" fill="#00c8ac"/>
        </g>
      </g>
      <g id="グループ_4155" data-name="グループ 4155" transform="translate(58.262)">
        <g id="グループ_4154" data-name="グループ 4154" clip-path="url(#clip-path-3)">
          <rect id="長方形_3536" data-name="長方形 3536" width="30.082" height="41.626" fill="#00c8ac"/>
        </g>
      </g>
    </g>
    <g id="グループ_4171" data-name="グループ 4171" transform="translate(50 -64)">
      <path id="合体_1" data-name="合体 1" d="M6862.242,97A1.242,1.242,0,0,1,6861,95.758V45h-2V24.082A4.118,4.118,0,0,1,6863.128,20H6898V10.211A8.142,8.142,0,0,1,6906.052,2h37.9A8.143,8.143,0,0,1,6952,10.211V20h34.869a4.12,4.12,0,0,1,4.13,4.083V45h-2V95.758A1.242,1.242,0,0,1,6987.758,97Zm81.7-77,.006-9.788h-37.9V20Z" transform="translate(-5808 738)" fill="#00c8ac"/>
      <rect id="長方形_3548" data-name="長方形 3548" width="25" height="4" transform="translate(1054 783)" fill="#fff"/>
      <rect id="長方形_3550" data-name="長方形 3550" width="25" height="4" transform="translate(1155 783)" fill="#fff"/>
      <rect id="長方形_3549" data-name="長方形 3549" width="54" height="4" transform="translate(1090 783)" fill="#fff"/>
      <path id="パス_7884" data-name="パス 7884" d="M125.571,79.439h6.292a1.314,1.314,0,0,1,1.352,1.276V92.163a1.317,1.317,0,0,1-1.352,1.276h-6.292a1.32,1.32,0,0,1-1.356-1.276V80.715a1.318,1.318,0,0,1,1.356-1.276" transform="translate(1020.785 698.561)" fill="#fff"/>
      <path id="パス_7884-2" data-name="パス 7884" d="M125.571,79.439h6.292a1.314,1.314,0,0,1,1.352,1.276V92.163a1.317,1.317,0,0,1-1.352,1.276h-6.292a1.32,1.32,0,0,1-1.356-1.276V80.715a1.318,1.318,0,0,1,1.356-1.276" transform="translate(955.785 698.561)" fill="#fff"/>
    </g>
  </g>
</svg>
