<svg xmlns="http://www.w3.org/2000/svg" xmlns:xlink="http://www.w3.org/1999/xlink" width="186" height="207" viewBox="0 0 186 207">
  <defs>
    <clipPath id="clip-path">
      <rect id="長方形_3554" data-name="長方形 3554" width="118.844" height="136" fill="#00c8ac"/>
    </clipPath>
    <clipPath id="clip-path-2">
      <rect id="長方形_3555" data-name="長方形 3555" width="88" height="88" fill="#00c8ac"/>
    </clipPath>
  </defs>
  <g id="グループ_4484" data-name="グループ 4484" transform="translate(-1047 -867)">
    <g id="グループ_4175" data-name="グループ 4175" transform="translate(1047 867)">
      <g id="グループ_4174" data-name="グループ 4174" clip-path="url(#clip-path)">
        <path id="パス_7889" data-name="パス 7889" d="M118.815,133.766a32.341,32.341,0,0,0-4.1-10.2,29.782,29.782,0,0,0-6.912-7.9,28.549,28.549,0,0,0-11.744-5.486c-1.258-.276-2.456-.532-3.615-.778-5.822-1.243-10.42-2.224-13.641-3.843a10.226,10.226,0,0,1-4.492-4.287,19.659,19.659,0,0,1-1.99-9.521,1.876,1.876,0,0,0-.072-.513,26.149,26.149,0,0,0,5.2-4.617,31.223,31.223,0,0,0,5.539-9.542,1.955,1.955,0,0,0,.118-.568A13.235,13.235,0,0,0,86.3,72.627a14.475,14.475,0,0,0,1.348-3.536,5.36,5.36,0,0,0,1.229.141,5.829,5.829,0,0,0,1.374-.167l.947-.233a7.256,7.256,0,0,0,5.362-7.045l-.05-1.7,1.171.348a10.809,10.809,0,0,0,4.258-.257,11.688,11.688,0,0,0,6.688-5.09,1.26,1.26,0,0,0,.1-1.012,1.239,1.239,0,0,0-.676-.752C96.867,48.4,97.026,38.854,97.2,28.746c0,0,3.348-30.849-18.655-25.568L74.377,2.93C67.548.551,56.939-2.491,44.7,3.438c-17.167,8.315-20.824,29.754-18.737,41.14l.772,2.37-.054.018-1.259.453a8.265,8.265,0,0,0-5.168,7.354v7.181a7.261,7.261,0,0,0,5.569,6.884l.952.2a5.8,5.8,0,0,0,1.213.131,5.252,5.252,0,0,0,2.343-.539,45.542,45.542,0,0,0,9.191,15.286,40.329,40.329,0,0,0,7.363,6.32,1.9,1.9,0,0,0-.282.994,22.245,22.245,0,0,1-1.705,9.449,9.756,9.756,0,0,1-3.758,4.264c-3.259,2-8.077,3.033-14.745,4.457-1.159.246-2.357.5-3.614.778a28.546,28.546,0,0,0-11.745,5.486,29.782,29.782,0,0,0-6.912,7.9,32.341,32.341,0,0,0-4.1,10.2A1.905,1.905,0,0,0,1.905,136H116.938a1.905,1.905,0,0,0,1.877-2.234m-39.308-1.576c-4.982-8.175-17.182-8.443-17.182-8.443l15.531-13.078,1.8,21.521Zm-21.661-8.821s-12.5.273-17.362,8.743l2.394-22.328,9.874,8.83ZM90.294,65.132l-.945.231a1.336,1.336,0,0,1-1.8-1.37l-.366-12.381a.878.878,0,0,1,1.329-.994l1.273.416a4.49,4.49,0,0,1,2.758,3.688l.212,7.178a3.468,3.468,0,0,1-2.46,3.231M29.111,46.655a4.982,4.982,0,0,0-.832-.02,1.075,1.075,0,0,1,.832.02M28.846,65.09a1.5,1.5,0,0,1-1.273.226l-.952-.2a3.471,3.471,0,0,1-2.555-3.158V54.773A4.494,4.494,0,0,1,26.714,51l1.259-.453a1.787,1.787,0,0,1,.6-.12.734.734,0,0,1,.42.112,1.165,1.165,0,0,1,.339.962V63.892a1.5,1.5,0,0,1-.487,1.2M42.33,81.343a42.031,42.031,0,0,1-9.253-16.58,5.938,5.938,0,0,0,.065-.872V51.5a5.517,5.517,0,0,0-.4-2.108c4.771-.876,31.683-6.657,39.655-26.816,0,0,1.544,12.2,5.911,17.834,2.645,3.411,5.148,5.362,6.041,8.042a5.133,5.133,0,0,0-.971,3.269l.366,12.38a5.547,5.547,0,0,0,.756,2.671l-.318-.008v-.011a10.342,10.342,0,0,1-1.295,4.179C81.327,73.7,78.649,75.405,74.926,76a1.916,1.916,0,0,0-.367.1,5.665,5.665,0,0,0-1.462-1.64A7.4,7.4,0,0,0,68.615,73H61.832a7.4,7.4,0,0,0-4.481,1.45,4.923,4.923,0,0,0,0,8.11,7.4,7.4,0,0,0,4.481,1.45h6.782a7.4,7.4,0,0,0,4.483-1.45,5.38,5.38,0,0,0,1.952-2.788c.057.005.116.008.174.008a1.909,1.909,0,0,0,.3-.024,18.626,18.626,0,0,0,2.349-.526,23.248,23.248,0,0,1-8.926,9.583,21.632,21.632,0,0,1-7.932,2.75l-.1.015a5.134,5.134,0,0,1-2.528-.159,1.209,1.209,0,0,0-.306-.116,34.462,34.462,0,0,1-15.75-9.962m29.088-2.834c0,.8-1.2,1.693-2.8,1.693H61.832c-1.6,0-2.8-.894-2.8-1.693s1.2-1.695,2.8-1.695h6.782c1.6,0,2.8.894,2.8,1.695M48.34,102.321A24.473,24.473,0,0,0,50.4,92.314a35.911,35.911,0,0,0,6.508,2.618,8.087,8.087,0,0,0,3.023.53,10.711,10.711,0,0,0,1.522-.112l.094-.012a25.448,25.448,0,0,0,7-2.035,22.092,22.092,0,0,0,2.434,9.821,14.046,14.046,0,0,0,3.751,4.363l-14.052,11.9H59.33l-14.2-12.694a13.974,13.974,0,0,0,3.206-4.37" transform="translate(0 0)" fill="#00c8ac"/>
      </g>
    </g>
    <g id="グループ_4177" data-name="グループ 4177" transform="translate(1145 986)">
      <g id="グループ_4176" data-name="グループ 4176" clip-path="url(#clip-path-2)">
        <path id="パス_7890" data-name="パス 7890" d="M74.887,88.311l-1.14-1.14a7.263,7.263,0,0,1-1.031-9.729L85.607,64.55s4.2-4.657,8.116-.737l2.831,2.831Z" transform="translate(-71.291 -7.469)" fill="#00c8ac"/>
        <path id="パス_7891" data-name="パス 7891" d="M12.534,25.264,9.7,22.433c-3.92-3.92.737-8.116.737-8.116L23.332,1.426a7.263,7.263,0,0,1,9.729,1.031L34.2,3.6Z" transform="translate(46.64 0)" fill="#00c8ac"/>
        <path id="パス_7892" data-name="パス 7892" d="M0,84.46,21.667,62.792l1.949,1.949s1.761,3,8.433-2.438A118.985,118.985,0,0,0,43.926,51.5l.181-.181.181-.181a119.274,119.274,0,0,0,10.8-11.876c5.442-6.673,2.438-8.434,2.438-8.434l-1.949-1.949L77.246,7.214l.334.335s3.844,3.688,4.068,8.02c.061,8.547-.727,27.32-23.27,49.919l-.052.052-.052.053h0C35.676,88.135,16.9,88.923,8.355,88.863,4.023,88.639.335,84.795.335,84.795L0,84.46" transform="translate(6.349 -0.866)" fill="#00c8ac"/>
      </g>
    </g>
  </g>
</svg>
