<svg xmlns="http://www.w3.org/2000/svg" width="212" height="208" viewBox="0 0 212 208">
  <g id="グループ_4481" data-name="グループ 4481" transform="translate(-444 -541)">
    <path id="パス_8700" data-name="パス 8700" d="M68,0A68,68,0,1,1,0,68,68,68,0,0,1,68,0Z" transform="translate(445 542)" fill="#fff" stroke="#00c8ac" stroke-width="2"/>
    <path id="パス_8701" data-name="パス 8701" d="M0,0H94.785V100H0Z" transform="translate(561.215 588)" fill="#fff"/>
    <g id="グループ_4222" data-name="グループ 4222" transform="translate(5196.025 -64)">
      <path id="パス_7377" data-name="パス 7377" d="M102.148,110.073a.245.245,0,0,1-.234-.255V93.181H91.741a.255.255,0,0,1,0-.508h10.407a.244.244,0,0,1,.234.253v16.892a.245.245,0,0,1-.234.255" transform="translate(-4842.507 702.927)" fill="#797570"/>
      <path id="パス_7906" data-name="パス 7906" d="M172.467,12.436a2.175,2.175,0,1,0,2.175-2.175,2.18,2.18,0,0,0-2.175,2.175" transform="translate(-4760.342 628.739)" fill="#00c8ac"/>
      <path id="パス_7909" data-name="パス 7909" d="M172.467,12.436a2.175,2.175,0,1,0,2.175-2.175,2.18,2.18,0,0,0-2.175,2.175" transform="translate(-4760.342 633.089)" fill="#00c8ac"/>
      <path id="パス_7916" data-name="パス 7916" d="M172.467,12.436a2.175,2.175,0,1,0,2.175-2.175,2.18,2.18,0,0,0-2.175,2.175" transform="translate(-4760.342 637.439)" fill="#00c8ac"/>
      <path id="パス_7921" data-name="パス 7921" d="M172.467,12.436a2.175,2.175,0,1,0,2.175-2.175,2.18,2.18,0,0,0-2.175,2.175" transform="translate(-4760.342 641.789)" fill="#00c8ac"/>
      <path id="パス_7929" data-name="パス 7929" d="M172.467,12.436a2.175,2.175,0,1,0,2.175-2.175,2.18,2.18,0,0,0-2.175,2.175" transform="translate(-4760.342 646.139)" fill="#00c8ac"/>
      <path id="パス_7940" data-name="パス 7940" d="M172.467,12.436a2.175,2.175,0,1,0,2.175-2.175,2.18,2.18,0,0,0-2.175,2.175" transform="translate(-4760.342 650.489)" fill="#00c8ac"/>
      <path id="パス_7951" data-name="パス 7951" d="M172.467,12.436a2.175,2.175,0,1,0,2.175-2.175,2.18,2.18,0,0,0-2.175,2.175" transform="translate(-4760.342 654.839)" fill="#00c8ac"/>
      <path id="パス_7963" data-name="パス 7963" d="M172.467,12.436a2.175,2.175,0,1,0,2.175-2.175,2.18,2.18,0,0,0-2.175,2.175" transform="translate(-4760.342 659.189)" fill="#00c8ac"/>
      <path id="パス_7974" data-name="パス 7974" d="M172.467,12.436a2.175,2.175,0,1,0,2.175-2.175,2.18,2.18,0,0,0-2.175,2.175" transform="translate(-4760.342 663.539)" fill="#00c8ac"/>
      <path id="パス_7986" data-name="パス 7986" d="M172.467,12.436a2.175,2.175,0,1,0,2.175-2.175,2.18,2.18,0,0,0-2.175,2.175" transform="translate(-4760.342 667.889)" fill="#00c8ac"/>
      <path id="パス_7989" data-name="パス 7989" d="M172.467,12.436a2.175,2.175,0,1,0,2.175-2.175,2.18,2.18,0,0,0-2.175,2.175" transform="translate(-4734.242 667.889)" fill="#00c8ac"/>
      <path id="パス_7962" data-name="パス 7962" d="M172.467,12.436a2.175,2.175,0,1,0,2.175-2.175,2.18,2.18,0,0,0-2.175,2.175" transform="translate(-4764.692 654.839)" fill="#00c8ac"/>
      <path id="パス_7964" data-name="パス 7964" d="M172.467,12.436a2.175,2.175,0,1,0,2.175-2.175,2.18,2.18,0,0,0-2.175,2.175" transform="translate(-4764.692 659.189)" fill="#00c8ac"/>
      <path id="パス_7975" data-name="パス 7975" d="M172.467,12.436a2.175,2.175,0,1,0,2.175-2.175,2.18,2.18,0,0,0-2.175,2.175" transform="translate(-4764.692 663.539)" fill="#00c8ac"/>
      <path id="パス_7984" data-name="パス 7984" d="M172.467,12.436a2.175,2.175,0,1,0,2.175-2.175,2.18,2.18,0,0,0-2.175,2.175" transform="translate(-4764.692 667.889)" fill="#00c8ac"/>
      <path id="パス_7987" data-name="パス 7987" d="M172.467,12.436a2.175,2.175,0,1,0,2.175-2.175,2.18,2.18,0,0,0-2.175,2.175" transform="translate(-4738.592 667.889)" fill="#00c8ac"/>
      <path id="パス_7973" data-name="パス 7973" d="M172.467,12.436a2.175,2.175,0,1,0,2.175-2.175,2.18,2.18,0,0,0-2.175,2.175" transform="translate(-4769.042 659.189)" fill="#00c8ac"/>
      <path id="パス_7976" data-name="パス 7976" d="M172.467,12.436a2.175,2.175,0,1,0,2.175-2.175,2.18,2.18,0,0,0-2.175,2.175" transform="translate(-4769.042 663.539)" fill="#00c8ac"/>
      <path id="パス_7985" data-name="パス 7985" d="M172.467,12.436a2.175,2.175,0,1,0,2.175-2.175,2.18,2.18,0,0,0-2.175,2.175" transform="translate(-4769.042 667.889)" fill="#00c8ac"/>
      <path id="パス_7988" data-name="パス 7988" d="M172.467,12.436a2.175,2.175,0,1,0,2.175-2.175,2.18,2.18,0,0,0-2.175,2.175" transform="translate(-4742.942 667.889)" fill="#00c8ac"/>
      <path id="パス_7907" data-name="パス 7907" d="M172.467,12.436a2.175,2.175,0,1,0,2.175-2.175,2.18,2.18,0,0,0-2.175,2.175" transform="translate(-4755.992 628.739)" fill="#00c8ac"/>
      <path id="パス_7910" data-name="パス 7910" d="M172.467,12.436a2.175,2.175,0,1,0,2.175-2.175,2.18,2.18,0,0,0-2.175,2.175" transform="translate(-4755.992 633.089)" fill="#00c8ac"/>
      <path id="パス_7917" data-name="パス 7917" d="M172.467,12.436a2.175,2.175,0,1,0,2.175-2.175,2.18,2.18,0,0,0-2.175,2.175" transform="translate(-4755.992 637.439)" fill="#00c8ac"/>
      <path id="パス_7922" data-name="パス 7922" d="M172.467,12.436a2.175,2.175,0,1,0,2.175-2.175,2.18,2.18,0,0,0-2.175,2.175" transform="translate(-4755.992 641.789)" fill="#00c8ac"/>
      <path id="パス_7930" data-name="パス 7930" d="M172.467,12.436a2.175,2.175,0,1,0,2.175-2.175,2.18,2.18,0,0,0-2.175,2.175" transform="translate(-4755.992 646.139)" fill="#00c8ac"/>
      <path id="パス_7941" data-name="パス 7941" d="M172.467,12.436a2.175,2.175,0,1,0,2.175-2.175,2.18,2.18,0,0,0-2.175,2.175" transform="translate(-4755.992 650.489)" fill="#00c8ac"/>
      <path id="パス_7952" data-name="パス 7952" d="M172.467,12.436a2.175,2.175,0,1,0,2.175-2.175,2.18,2.18,0,0,0-2.175,2.175" transform="translate(-4755.992 654.839)" fill="#00c8ac"/>
      <path id="パス_7965" data-name="パス 7965" d="M172.467,12.436a2.175,2.175,0,1,0,2.175-2.175,2.18,2.18,0,0,0-2.175,2.175" transform="translate(-4755.992 659.189)" fill="#00c8ac"/>
      <path id="パス_7977" data-name="パス 7977" d="M172.467,12.436a2.175,2.175,0,1,0,2.175-2.175,2.18,2.18,0,0,0-2.175,2.175" transform="translate(-4755.992 663.539)" fill="#00c8ac"/>
      <path id="パス_7912" data-name="パス 7912" d="M172.467,12.436a2.175,2.175,0,1,0,2.175-2.175,2.18,2.18,0,0,0-2.175,2.175" transform="translate(-4747.292 633.089)" fill="#00c8ac"/>
      <path id="パス_7918" data-name="パス 7918" d="M172.467,12.436a2.175,2.175,0,1,0,2.175-2.175,2.18,2.18,0,0,0-2.175,2.175" transform="translate(-4747.292 637.439)" fill="#00c8ac"/>
      <path id="パス_7923" data-name="パス 7923" d="M172.467,12.436a2.175,2.175,0,1,0,2.175-2.175,2.18,2.18,0,0,0-2.175,2.175" transform="translate(-4747.292 641.789)" fill="#00c8ac"/>
      <path id="パス_7931" data-name="パス 7931" d="M172.467,12.436a2.175,2.175,0,1,0,2.175-2.175,2.18,2.18,0,0,0-2.175,2.175" transform="translate(-4747.292 646.139)" fill="#00c8ac"/>
      <path id="パス_7942" data-name="パス 7942" d="M172.467,12.436a2.175,2.175,0,1,0,2.175-2.175,2.18,2.18,0,0,0-2.175,2.175" transform="translate(-4747.292 650.489)" fill="#00c8ac"/>
      <path id="パス_7953" data-name="パス 7953" d="M172.467,12.436a2.175,2.175,0,1,0,2.175-2.175,2.18,2.18,0,0,0-2.175,2.175" transform="translate(-4747.292 654.839)" fill="#00c8ac"/>
      <path id="パス_7966" data-name="パス 7966" d="M172.467,12.436a2.175,2.175,0,1,0,2.175-2.175,2.18,2.18,0,0,0-2.175,2.175" transform="translate(-4747.292 659.189)" fill="#00c8ac"/>
      <path id="パス_7978" data-name="パス 7978" d="M172.467,12.436a2.175,2.175,0,1,0,2.175-2.175,2.18,2.18,0,0,0-2.175,2.175" transform="translate(-4747.292 663.539)" fill="#00c8ac"/>
      <path id="パス_7914" data-name="パス 7914" d="M172.467,12.436a2.175,2.175,0,1,0,2.175-2.175,2.18,2.18,0,0,0-2.175,2.175" transform="translate(-4738.592 637.439)" fill="#00c8ac"/>
      <path id="パス_7924" data-name="パス 7924" d="M172.467,12.436a2.175,2.175,0,1,0,2.175-2.175,2.18,2.18,0,0,0-2.175,2.175" transform="translate(-4738.592 641.789)" fill="#00c8ac"/>
      <path id="パス_7932" data-name="パス 7932" d="M172.467,12.436a2.175,2.175,0,1,0,2.175-2.175,2.18,2.18,0,0,0-2.175,2.175" transform="translate(-4738.592 646.139)" fill="#00c8ac"/>
      <path id="パス_7943" data-name="パス 7943" d="M172.467,12.436a2.175,2.175,0,1,0,2.175-2.175,2.18,2.18,0,0,0-2.175,2.175" transform="translate(-4738.592 650.489)" fill="#00c8ac"/>
      <path id="パス_7954" data-name="パス 7954" d="M172.467,12.436a2.175,2.175,0,1,0,2.175-2.175,2.18,2.18,0,0,0-2.175,2.175" transform="translate(-4738.592 654.839)" fill="#00c8ac"/>
      <path id="パス_7967" data-name="パス 7967" d="M172.467,12.436a2.175,2.175,0,1,0,2.175-2.175,2.18,2.18,0,0,0-2.175,2.175" transform="translate(-4738.592 659.189)" fill="#00c8ac"/>
      <path id="パス_7979" data-name="パス 7979" d="M172.467,12.436a2.175,2.175,0,1,0,2.175-2.175,2.18,2.18,0,0,0-2.175,2.175" transform="translate(-4738.592 663.539)" fill="#00c8ac"/>
      <path id="パス_7937" data-name="パス 7937" d="M172.467,12.436a2.175,2.175,0,1,0,2.175-2.175,2.18,2.18,0,0,0-2.175,2.175" transform="translate(-4725.542 646.139)" fill="#00c8ac"/>
      <path id="パス_7944" data-name="パス 7944" d="M172.467,12.436a2.175,2.175,0,1,0,2.175-2.175,2.18,2.18,0,0,0-2.175,2.175" transform="translate(-4725.542 650.489)" fill="#00c8ac"/>
      <path id="パス_7955" data-name="パス 7955" d="M172.467,12.436a2.175,2.175,0,1,0,2.175-2.175,2.18,2.18,0,0,0-2.175,2.175" transform="translate(-4725.542 654.839)" fill="#00c8ac"/>
      <path id="パス_7968" data-name="パス 7968" d="M172.467,12.436a2.175,2.175,0,1,0,2.175-2.175,2.18,2.18,0,0,0-2.175,2.175" transform="translate(-4725.542 659.189)" fill="#00c8ac"/>
      <path id="パス_7908" data-name="パス 7908" d="M172.467,12.436a2.175,2.175,0,1,0,2.175-2.175,2.18,2.18,0,0,0-2.175,2.175" transform="translate(-4751.642 628.739)" fill="#00c8ac"/>
      <path id="パス_7911" data-name="パス 7911" d="M172.467,12.436a2.175,2.175,0,1,0,2.175-2.175,2.18,2.18,0,0,0-2.175,2.175" transform="translate(-4751.642 633.089)" fill="#00c8ac"/>
      <path id="パス_7919" data-name="パス 7919" d="M172.467,12.436a2.175,2.175,0,1,0,2.175-2.175,2.18,2.18,0,0,0-2.175,2.175" transform="translate(-4751.642 637.439)" fill="#00c8ac"/>
      <path id="パス_7925" data-name="パス 7925" d="M172.467,12.436a2.175,2.175,0,1,0,2.175-2.175,2.18,2.18,0,0,0-2.175,2.175" transform="translate(-4751.642 641.789)" fill="#00c8ac"/>
      <path id="パス_7933" data-name="パス 7933" d="M172.467,12.436a2.175,2.175,0,1,0,2.175-2.175,2.18,2.18,0,0,0-2.175,2.175" transform="translate(-4751.642 646.139)" fill="#00c8ac"/>
      <path id="パス_7945" data-name="パス 7945" d="M172.467,12.436a2.175,2.175,0,1,0,2.175-2.175,2.18,2.18,0,0,0-2.175,2.175" transform="translate(-4751.642 650.489)" fill="#00c8ac"/>
      <path id="パス_7956" data-name="パス 7956" d="M172.467,12.436a2.175,2.175,0,1,0,2.175-2.175,2.18,2.18,0,0,0-2.175,2.175" transform="translate(-4751.642 654.839)" fill="#00c8ac"/>
      <path id="パス_7969" data-name="パス 7969" d="M172.467,12.436a2.175,2.175,0,1,0,2.175-2.175,2.18,2.18,0,0,0-2.175,2.175" transform="translate(-4751.642 659.189)" fill="#00c8ac"/>
      <path id="パス_7980" data-name="パス 7980" d="M172.467,12.436a2.175,2.175,0,1,0,2.175-2.175,2.18,2.18,0,0,0-2.175,2.175" transform="translate(-4751.642 663.539)" fill="#00c8ac"/>
      <path id="パス_7990" data-name="パス 7990" d="M172.467,12.436a2.175,2.175,0,1,0,2.175-2.175,2.18,2.18,0,0,0-2.175,2.175" transform="translate(-4751.642 676.589)" fill="#ccebe7"/>
      <path id="パス_7993" data-name="パス 7993" d="M172.467,12.436a2.175,2.175,0,1,0,2.175-2.175,2.18,2.18,0,0,0-2.175,2.175" transform="translate(-4751.642 680.939)" fill="#ccebe7"/>
      <path id="パス_7994" data-name="パス 7994" d="M172.467,12.436a2.175,2.175,0,1,0,2.175-2.175,2.18,2.18,0,0,0-2.175,2.175" transform="translate(-4760.342 680.939)" fill="#ccebe7"/>
      <path id="パス_7999" data-name="パス 7999" d="M172.467,12.436a2.175,2.175,0,1,0,2.175-2.175,2.18,2.18,0,0,0-2.175,2.175" transform="translate(-4760.342 685.289)" fill="#ccebe7"/>
      <path id="パス_8003" data-name="パス 8003" d="M172.467,12.436a2.175,2.175,0,1,0,2.175-2.175,2.18,2.18,0,0,0-2.175,2.175" transform="translate(-4760.342 689.639)" fill="#ccebe7"/>
      <path id="パス_8009" data-name="パス 8009" d="M172.467,12.436a2.175,2.175,0,1,0,2.175-2.175,2.18,2.18,0,0,0-2.175,2.175" transform="translate(-4760.342 693.989)" fill="#ccebe7"/>
      <path id="パス_8016" data-name="パス 8016" d="M172.467,12.436a2.175,2.175,0,1,0,2.175-2.175,2.18,2.18,0,0,0-2.175,2.175" transform="translate(-4760.342 698.339)" fill="#ccebe7"/>
      <path id="パス_8023" data-name="パス 8023" d="M172.467,12.436a2.175,2.175,0,1,0,2.175-2.175,2.18,2.18,0,0,0-2.175,2.175" transform="translate(-4760.342 702.689)" fill="#ccebe7"/>
      <path id="パス_8060" data-name="パス 8060" d="M172.467,12.436a2.175,2.175,0,1,0,2.175-2.175,2.18,2.18,0,0,0-2.175,2.175" transform="translate(-4760.342 720.089)" fill="#ccebe7"/>
      <path id="パス_8030" data-name="パス 8030" d="M172.467,12.436a2.175,2.175,0,1,0,2.175-2.175,2.18,2.18,0,0,0-2.175,2.175" transform="translate(-4760.342 707.039)" fill="#ccebe7"/>
      <path id="パス_8056" data-name="パス 8056" d="M172.467,12.436a2.175,2.175,0,1,0,2.175-2.175,2.18,2.18,0,0,0-2.175,2.175" transform="translate(-4760.342 724.439)" fill="#ccebe7"/>
      <path id="パス_8125" data-name="パス 8125" d="M172.467,12.436a2.175,2.175,0,1,0,2.175-2.175,2.18,2.18,0,0,0-2.175,2.175" transform="translate(-4760.342 741.839)" fill="#00c8ac"/>
      <path id="パス_8036" data-name="パス 8036" d="M172.467,12.436a2.175,2.175,0,1,0,2.175-2.175,2.18,2.18,0,0,0-2.175,2.175" transform="translate(-4760.342 711.389)" fill="#ccebe7"/>
      <path id="パス_8052" data-name="パス 8052" d="M172.467,12.436a2.175,2.175,0,1,0,2.175-2.175,2.18,2.18,0,0,0-2.175,2.175" transform="translate(-4760.342 728.789)" fill="#ccebe7"/>
      <path id="パス_8118" data-name="パス 8118" d="M172.467,12.436a2.175,2.175,0,1,0,2.175-2.175,2.18,2.18,0,0,0-2.175,2.175" transform="translate(-4760.342 746.189)" fill="#00c8ac"/>
      <path id="パス_8042" data-name="パス 8042" d="M172.467,12.436a2.175,2.175,0,1,0,2.175-2.175,2.18,2.18,0,0,0-2.175,2.175" transform="translate(-4760.342 715.739)" fill="#ccebe7"/>
      <path id="パス_8048" data-name="パス 8048" d="M172.467,12.436a2.175,2.175,0,1,0,2.175-2.175,2.18,2.18,0,0,0-2.175,2.175" transform="translate(-4760.342 733.139)" fill="#ccebe7"/>
      <path id="パス_8109" data-name="パス 8109" d="M172.467,12.436a2.175,2.175,0,1,0,2.175-2.175,2.18,2.18,0,0,0-2.175,2.175" transform="translate(-4760.342 750.539)" fill="#00c8ac"/>
      <path id="パス_8002" data-name="パス 8002" d="M172.467,12.436a2.175,2.175,0,1,0,2.175-2.175,2.18,2.18,0,0,0-2.175,2.175" transform="translate(-4747.292 685.289)" fill="#ccebe7"/>
      <path id="パス_8004" data-name="パス 8004" d="M172.467,12.436a2.175,2.175,0,1,0,2.175-2.175,2.18,2.18,0,0,0-2.175,2.175" transform="translate(-4747.292 689.639)" fill="#ccebe7"/>
      <path id="パス_8010" data-name="パス 8010" d="M172.467,12.436a2.175,2.175,0,1,0,2.175-2.175,2.18,2.18,0,0,0-2.175,2.175" transform="translate(-4747.292 693.989)" fill="#ccebe7"/>
      <path id="パス_8017" data-name="パス 8017" d="M172.467,12.436a2.175,2.175,0,1,0,2.175-2.175,2.18,2.18,0,0,0-2.175,2.175" transform="translate(-4747.292 698.339)" fill="#ccebe7"/>
      <path id="パス_8024" data-name="パス 8024" d="M172.467,12.436a2.175,2.175,0,1,0,2.175-2.175,2.18,2.18,0,0,0-2.175,2.175" transform="translate(-4747.292 702.689)" fill="#ccebe7"/>
      <path id="パス_8064" data-name="パス 8064" d="M172.467,12.436a2.175,2.175,0,1,0,2.175-2.175,2.18,2.18,0,0,0-2.175,2.175" transform="translate(-4747.292 720.089)" fill="#ccebe7"/>
      <path id="パス_8035" data-name="パス 8035" d="M172.467,12.436a2.175,2.175,0,1,0,2.175-2.175,2.18,2.18,0,0,0-2.175,2.175" transform="translate(-4747.292 707.039)" fill="#ccebe7"/>
      <path id="パス_8065" data-name="パス 8065" d="M172.467,12.436a2.175,2.175,0,1,0,2.175-2.175,2.18,2.18,0,0,0-2.175,2.175" transform="translate(-4747.292 724.439)" fill="#ccebe7"/>
      <path id="パス_8126" data-name="パス 8126" d="M172.467,12.436a2.175,2.175,0,1,0,2.175-2.175,2.18,2.18,0,0,0-2.175,2.175" transform="translate(-4747.292 741.839)" fill="#00c8ac"/>
      <path id="パス_8041" data-name="パス 8041" d="M172.467,12.436a2.175,2.175,0,1,0,2.175-2.175,2.18,2.18,0,0,0-2.175,2.175" transform="translate(-4747.292 711.389)" fill="#ccebe7"/>
      <path id="パス_8066" data-name="パス 8066" d="M172.467,12.436a2.175,2.175,0,1,0,2.175-2.175,2.18,2.18,0,0,0-2.175,2.175" transform="translate(-4747.292 728.789)" fill="#ccebe7"/>
      <path id="パス_8119" data-name="パス 8119" d="M172.467,12.436a2.175,2.175,0,1,0,2.175-2.175,2.18,2.18,0,0,0-2.175,2.175" transform="translate(-4747.292 746.189)" fill="#00c8ac"/>
      <path id="パス_8047" data-name="パス 8047" d="M172.467,12.436a2.175,2.175,0,1,0,2.175-2.175,2.18,2.18,0,0,0-2.175,2.175" transform="translate(-4747.292 715.739)" fill="#ccebe7"/>
      <path id="パス_8067" data-name="パス 8067" d="M172.467,12.436a2.175,2.175,0,1,0,2.175-2.175,2.18,2.18,0,0,0-2.175,2.175" transform="translate(-4747.292 733.139)" fill="#ccebe7"/>
      <path id="パス_8110" data-name="パス 8110" d="M172.467,12.436a2.175,2.175,0,1,0,2.175-2.175,2.18,2.18,0,0,0-2.175,2.175" transform="translate(-4747.292 750.539)" fill="#00c8ac"/>
      <path id="パス_8015" data-name="パス 8015" d="M172.467,12.436a2.175,2.175,0,1,0,2.175-2.175,2.18,2.18,0,0,0-2.175,2.175" transform="translate(-4742.942 693.989)" fill="#ccebe7"/>
      <path id="パス_8022" data-name="パス 8022" d="M172.467,12.436a2.175,2.175,0,1,0,2.175-2.175,2.18,2.18,0,0,0-2.175,2.175" transform="translate(-4742.942 698.339)" fill="#ccebe7"/>
      <path id="パス_8029" data-name="パス 8029" d="M172.467,12.436a2.175,2.175,0,1,0,2.175-2.175,2.18,2.18,0,0,0-2.175,2.175" transform="translate(-4742.942 702.689)" fill="#ccebe7"/>
      <path id="パス_7995" data-name="パス 7995" d="M172.467,12.436a2.175,2.175,0,1,0,2.175-2.175,2.18,2.18,0,0,0-2.175,2.175" transform="translate(-4764.692 680.939)" fill="#ccebe7"/>
      <path id="パス_7997" data-name="パス 7997" d="M172.467,12.436a2.175,2.175,0,1,0,2.175-2.175,2.18,2.18,0,0,0-2.175,2.175" transform="translate(-4764.692 685.289)" fill="#ccebe7"/>
      <path id="パス_8005" data-name="パス 8005" d="M172.467,12.436a2.175,2.175,0,1,0,2.175-2.175,2.18,2.18,0,0,0-2.175,2.175" transform="translate(-4764.692 689.639)" fill="#ccebe7"/>
      <path id="パス_8011" data-name="パス 8011" d="M172.467,12.436a2.175,2.175,0,1,0,2.175-2.175,2.18,2.18,0,0,0-2.175,2.175" transform="translate(-4764.692 693.989)" fill="#ccebe7"/>
      <path id="パス_8018" data-name="パス 8018" d="M172.467,12.436a2.175,2.175,0,1,0,2.175-2.175,2.18,2.18,0,0,0-2.175,2.175" transform="translate(-4764.692 698.339)" fill="#ccebe7"/>
      <path id="パス_8025" data-name="パス 8025" d="M172.467,12.436a2.175,2.175,0,1,0,2.175-2.175,2.18,2.18,0,0,0-2.175,2.175" transform="translate(-4764.692 702.689)" fill="#ccebe7"/>
      <path id="パス_8061" data-name="パス 8061" d="M172.467,12.436a2.175,2.175,0,1,0,2.175-2.175,2.18,2.18,0,0,0-2.175,2.175" transform="translate(-4764.692 720.089)" fill="#ccebe7"/>
      <path id="パス_8068" data-name="パス 8068" d="M172.467,12.436a2.175,2.175,0,1,0,2.175-2.175,2.18,2.18,0,0,0-2.175,2.175" transform="translate(-4769.042 720.089)" fill="#6de0d0"/>
      <path id="パス_8072" data-name="パス 8072" d="M172.467,12.436a2.175,2.175,0,1,0,2.175-2.175,2.18,2.18,0,0,0-2.175,2.175" transform="translate(-4773.392 720.089)" fill="#6de0d0"/>
      <path id="パス_8031" data-name="パス 8031" d="M172.467,12.436a2.175,2.175,0,1,0,2.175-2.175,2.18,2.18,0,0,0-2.175,2.175" transform="translate(-4764.692 707.039)" fill="#ccebe7"/>
      <path id="パス_8057" data-name="パス 8057" d="M172.467,12.436a2.175,2.175,0,1,0,2.175-2.175,2.18,2.18,0,0,0-2.175,2.175" transform="translate(-4764.692 724.439)" fill="#ccebe7"/>
      <path id="パス_8127" data-name="パス 8127" d="M172.467,12.436a2.175,2.175,0,1,0,2.175-2.175,2.18,2.18,0,0,0-2.175,2.175" transform="translate(-4764.692 741.839)" fill="#00c8ac"/>
      <path id="パス_8069" data-name="パス 8069" d="M172.467,12.436a2.175,2.175,0,1,0,2.175-2.175,2.18,2.18,0,0,0-2.175,2.175" transform="translate(-4769.042 724.439)" fill="#6de0d0"/>
      <path id="パス_8128" data-name="パス 8128" d="M172.467,12.436a2.175,2.175,0,1,0,2.175-2.175,2.18,2.18,0,0,0-2.175,2.175" transform="translate(-4769.042 741.839)" fill="#00c8ac"/>
      <path id="パス_8149" data-name="パス 8149" d="M172.467,12.436a2.175,2.175,0,1,0,2.175-2.175,2.18,2.18,0,0,0-2.175,2.175" transform="translate(-4769.042 759.239)" fill="#6de0d0"/>
      <path id="パス_8078" data-name="パス 8078" d="M172.467,12.436a2.175,2.175,0,1,0,2.175-2.175,2.18,2.18,0,0,0-2.175,2.175" transform="translate(-4777.742 724.439)" fill="#6de0d0"/>
      <path id="パス_8073" data-name="パス 8073" d="M172.467,12.436a2.175,2.175,0,1,0,2.175-2.175,2.18,2.18,0,0,0-2.175,2.175" transform="translate(-4773.392 724.439)" fill="#6de0d0"/>
      <path id="パス_8129" data-name="パス 8129" d="M172.467,12.436a2.175,2.175,0,1,0,2.175-2.175,2.18,2.18,0,0,0-2.175,2.175" transform="translate(-4773.392 741.839)" fill="#00c8ac"/>
      <path id="パス_8150" data-name="パス 8150" d="M172.467,12.436a2.175,2.175,0,1,0,2.175-2.175,2.18,2.18,0,0,0-2.175,2.175" transform="translate(-4773.392 759.239)" fill="#6de0d0"/>
      <path id="パス_8076" data-name="パス 8076" d="M172.467,12.436a2.175,2.175,0,1,0,2.175-2.175,2.18,2.18,0,0,0-2.175,2.175" transform="translate(-4782.092 724.439)" fill="#6de0d0"/>
      <path id="パス_8037" data-name="パス 8037" d="M172.467,12.436a2.175,2.175,0,1,0,2.175-2.175,2.18,2.18,0,0,0-2.175,2.175" transform="translate(-4764.692 711.389)" fill="#ccebe7"/>
      <path id="パス_8053" data-name="パス 8053" d="M172.467,12.436a2.175,2.175,0,1,0,2.175-2.175,2.18,2.18,0,0,0-2.175,2.175" transform="translate(-4764.692 728.789)" fill="#ccebe7"/>
      <path id="パス_8120" data-name="パス 8120" d="M172.467,12.436a2.175,2.175,0,1,0,2.175-2.175,2.18,2.18,0,0,0-2.175,2.175" transform="translate(-4764.692 746.189)" fill="#00c8ac"/>
      <path id="パス_8070" data-name="パス 8070" d="M172.467,12.436a2.175,2.175,0,1,0,2.175-2.175,2.18,2.18,0,0,0-2.175,2.175" transform="translate(-4769.042 728.789)" fill="#6de0d0"/>
      <path id="パス_8121" data-name="パス 8121" d="M172.467,12.436a2.175,2.175,0,1,0,2.175-2.175,2.18,2.18,0,0,0-2.175,2.175" transform="translate(-4769.042 746.189)" fill="#00c8ac"/>
      <path id="パス_8146" data-name="パス 8146" d="M172.467,12.436a2.175,2.175,0,1,0,2.175-2.175,2.18,2.18,0,0,0-2.175,2.175" transform="translate(-4769.042 763.589)" fill="#6de0d0"/>
      <path id="パス_8088" data-name="パス 8088" d="M172.467,12.436a2.175,2.175,0,1,0,2.175-2.175,2.18,2.18,0,0,0-2.175,2.175" transform="translate(-4786.442 728.789)" fill="#6de0d0"/>
      <path id="パス_8200" data-name="パス 8200" d="M172.467,12.436a2.175,2.175,0,1,0,2.175-2.175,2.18,2.18,0,0,0-2.175,2.175" transform="translate(-4786.442 750.539)" fill="#6de0d0"/>
      <path id="パス_8163" data-name="パス 8163" d="M172.467,12.436a2.175,2.175,0,1,0,2.175-2.175,2.18,2.18,0,0,0-2.175,2.175" transform="translate(-4786.442 737.489)" fill="#6de0d0"/>
      <path id="パス_8201" data-name="パス 8201" d="M172.467,12.436a2.175,2.175,0,1,0,2.175-2.175,2.18,2.18,0,0,0-2.175,2.175" transform="translate(-4786.442 759.239)" fill="#6de0d0"/>
      <path id="パス_8095" data-name="パス 8095" d="M172.467,12.436a2.175,2.175,0,1,0,2.175-2.175,2.18,2.18,0,0,0-2.175,2.175" transform="translate(-4786.442 715.739)" fill="#6de0d0"/>
      <path id="パス_8079" data-name="パス 8079" d="M172.467,12.436a2.175,2.175,0,1,0,2.175-2.175,2.18,2.18,0,0,0-2.175,2.175" transform="translate(-4777.742 728.789)" fill="#6de0d0"/>
      <path id="パス_8210" data-name="パス 8210" d="M172.467,12.436a2.175,2.175,0,1,0,2.175-2.175,2.18,2.18,0,0,0-2.175,2.175" transform="translate(-4777.742 750.539)" fill="#6de0d0"/>
      <path id="パス_8164" data-name="パス 8164" d="M172.467,12.436a2.175,2.175,0,1,0,2.175-2.175,2.18,2.18,0,0,0-2.175,2.175" transform="translate(-4777.742 737.489)" fill="#6de0d0"/>
      <path id="パス_8211" data-name="パス 8211" d="M172.467,12.436a2.175,2.175,0,1,0,2.175-2.175,2.18,2.18,0,0,0-2.175,2.175" transform="translate(-4777.742 759.239)" fill="#6de0d0"/>
      <path id="パス_8083" data-name="パス 8083" d="M172.467,12.436a2.175,2.175,0,1,0,2.175-2.175,2.18,2.18,0,0,0-2.175,2.175" transform="translate(-4795.142 728.789)" fill="#6de0d0"/>
      <path id="パス_8190" data-name="パス 8190" d="M172.467,12.436a2.175,2.175,0,1,0,2.175-2.175,2.18,2.18,0,0,0-2.175,2.175" transform="translate(-4795.142 750.539)" fill="#6de0d0"/>
      <path id="パス_8165" data-name="パス 8165" d="M172.467,12.436a2.175,2.175,0,1,0,2.175-2.175,2.18,2.18,0,0,0-2.175,2.175" transform="translate(-4795.142 737.489)" fill="#6de0d0"/>
      <path id="パス_8191" data-name="パス 8191" d="M172.467,12.436a2.175,2.175,0,1,0,2.175-2.175,2.18,2.18,0,0,0-2.175,2.175" transform="translate(-4795.142 759.239)" fill="#6de0d0"/>
      <path id="パス_8092" data-name="パス 8092" d="M172.467,12.436a2.175,2.175,0,1,0,2.175-2.175,2.18,2.18,0,0,0-2.175,2.175" transform="translate(-4803.842 728.789)" fill="#6de0d0"/>
      <path id="パス_8184" data-name="パス 8184" d="M172.467,12.436a2.175,2.175,0,1,0,2.175-2.175,2.18,2.18,0,0,0-2.175,2.175" transform="translate(-4803.842 750.539)" fill="#6de0d0"/>
      <path id="パス_8166" data-name="パス 8166" d="M172.467,12.436a2.175,2.175,0,1,0,2.175-2.175,2.18,2.18,0,0,0-2.175,2.175" transform="translate(-4803.842 737.489)" fill="#6de0d0"/>
      <path id="パス_8182" data-name="パス 8182" d="M172.467,12.436a2.175,2.175,0,1,0,2.175-2.175,2.18,2.18,0,0,0-2.175,2.175" transform="translate(-4803.842 759.239)" fill="#6de0d0"/>
      <path id="パス_8224" data-name="パス 8224" d="M172.467,12.436a2.175,2.175,0,1,0,2.175-2.175,2.18,2.18,0,0,0-2.175,2.175" transform="translate(-4808.192 759.239)" fill="#00c8ac"/>
      <path id="パス_8094" data-name="パス 8094" d="M172.467,12.436a2.175,2.175,0,1,0,2.175-2.175,2.18,2.18,0,0,0-2.175,2.175" transform="translate(-4803.842 724.439)" fill="#6de0d0"/>
      <path id="パス_8074" data-name="パス 8074" d="M172.467,12.436a2.175,2.175,0,1,0,2.175-2.175,2.18,2.18,0,0,0-2.175,2.175" transform="translate(-4773.392 728.789)" fill="#6de0d0"/>
      <path id="パス_8122" data-name="パス 8122" d="M172.467,12.436a2.175,2.175,0,1,0,2.175-2.175,2.18,2.18,0,0,0-2.175,2.175" transform="translate(-4773.392 746.189)" fill="#00c8ac"/>
      <path id="パス_8145" data-name="パス 8145" d="M172.467,12.436a2.175,2.175,0,1,0,2.175-2.175,2.18,2.18,0,0,0-2.175,2.175" transform="translate(-4773.392 763.589)" fill="#6de0d0"/>
      <path id="パス_8086" data-name="パス 8086" d="M172.467,12.436a2.175,2.175,0,1,0,2.175-2.175,2.18,2.18,0,0,0-2.175,2.175" transform="translate(-4790.792 728.789)" fill="#6de0d0"/>
      <path id="パス_8195" data-name="パス 8195" d="M172.467,12.436a2.175,2.175,0,1,0,2.175-2.175,2.18,2.18,0,0,0-2.175,2.175" transform="translate(-4790.792 750.539)" fill="#6de0d0"/>
      <path id="パス_8167" data-name="パス 8167" d="M172.467,12.436a2.175,2.175,0,1,0,2.175-2.175,2.18,2.18,0,0,0-2.175,2.175" transform="translate(-4790.792 737.489)" fill="#6de0d0"/>
      <path id="パス_8196" data-name="パス 8196" d="M172.467,12.436a2.175,2.175,0,1,0,2.175-2.175,2.18,2.18,0,0,0-2.175,2.175" transform="translate(-4790.792 759.239)" fill="#6de0d0"/>
      <path id="パス_8077" data-name="パス 8077" d="M172.467,12.436a2.175,2.175,0,1,0,2.175-2.175,2.18,2.18,0,0,0-2.175,2.175" transform="translate(-4782.092 728.789)" fill="#6de0d0"/>
      <path id="パス_8205" data-name="パス 8205" d="M172.467,12.436a2.175,2.175,0,1,0,2.175-2.175,2.18,2.18,0,0,0-2.175,2.175" transform="translate(-4782.092 750.539)" fill="#6de0d0"/>
      <path id="パス_8168" data-name="パス 8168" d="M172.467,12.436a2.175,2.175,0,1,0,2.175-2.175,2.18,2.18,0,0,0-2.175,2.175" transform="translate(-4782.092 737.489)" fill="#6de0d0"/>
      <path id="パス_8206" data-name="パス 8206" d="M172.467,12.436a2.175,2.175,0,1,0,2.175-2.175,2.18,2.18,0,0,0-2.175,2.175" transform="translate(-4782.092 759.239)" fill="#6de0d0"/>
      <path id="パス_8082" data-name="パス 8082" d="M172.467,12.436a2.175,2.175,0,1,0,2.175-2.175,2.18,2.18,0,0,0-2.175,2.175" transform="translate(-4799.492 728.789)" fill="#6de0d0"/>
      <path id="パス_8185" data-name="パス 8185" d="M172.467,12.436a2.175,2.175,0,1,0,2.175-2.175,2.18,2.18,0,0,0-2.175,2.175" transform="translate(-4799.492 750.539)" fill="#6de0d0"/>
      <path id="パス_8169" data-name="パス 8169" d="M172.467,12.436a2.175,2.175,0,1,0,2.175-2.175,2.18,2.18,0,0,0-2.175,2.175" transform="translate(-4799.492 737.489)" fill="#6de0d0"/>
      <path id="パス_8186" data-name="パス 8186" d="M172.467,12.436a2.175,2.175,0,1,0,2.175-2.175,2.18,2.18,0,0,0-2.175,2.175" transform="translate(-4799.492 759.239)" fill="#6de0d0"/>
      <path id="パス_8090" data-name="パス 8090" d="M172.467,12.436a2.175,2.175,0,1,0,2.175-2.175,2.18,2.18,0,0,0-2.175,2.175" transform="translate(-4808.192 728.789)" fill="#6de0d0"/>
      <path id="パス_8170" data-name="パス 8170" d="M172.467,12.436a2.175,2.175,0,1,0,2.175-2.175,2.18,2.18,0,0,0-2.175,2.175" transform="translate(-4808.192 737.489)" fill="#6de0d0"/>
      <path id="パス_8043" data-name="パス 8043" d="M172.467,12.436a2.175,2.175,0,1,0,2.175-2.175,2.18,2.18,0,0,0-2.175,2.175" transform="translate(-4764.692 715.739)" fill="#ccebe7"/>
      <path id="パス_8049" data-name="パス 8049" d="M172.467,12.436a2.175,2.175,0,1,0,2.175-2.175,2.18,2.18,0,0,0-2.175,2.175" transform="translate(-4764.692 733.139)" fill="#ccebe7"/>
      <path id="パス_8111" data-name="パス 8111" d="M172.467,12.436a2.175,2.175,0,1,0,2.175-2.175,2.18,2.18,0,0,0-2.175,2.175" transform="translate(-4764.692 750.539)" fill="#00c8ac"/>
      <path id="パス_8071" data-name="パス 8071" d="M172.467,12.436a2.175,2.175,0,1,0,2.175-2.175,2.18,2.18,0,0,0-2.175,2.175" transform="translate(-4769.042 733.139)" fill="#6de0d0"/>
      <path id="パス_8112" data-name="パス 8112" d="M172.467,12.436a2.175,2.175,0,1,0,2.175-2.175,2.18,2.18,0,0,0-2.175,2.175" transform="translate(-4769.042 750.539)" fill="#00c8ac"/>
      <path id="パス_8147" data-name="パス 8147" d="M172.467,12.436a2.175,2.175,0,1,0,2.175-2.175,2.18,2.18,0,0,0-2.175,2.175" transform="translate(-4769.042 767.939)" fill="#6de0d0"/>
      <path id="パス_8097" data-name="パス 8097" d="M172.467,12.436a2.175,2.175,0,1,0,2.175-2.175,2.18,2.18,0,0,0-2.175,2.175" transform="translate(-4769.042 737.489)" fill="#00c8ac"/>
      <path id="パス_8104" data-name="パス 8104" d="M172.467,12.436a2.175,2.175,0,1,0,2.175-2.175,2.18,2.18,0,0,0-2.175,2.175" transform="translate(-4769.042 754.889)" fill="#00c8ac"/>
      <path id="パス_8148" data-name="パス 8148" d="M172.467,12.436a2.175,2.175,0,1,0,2.175-2.175,2.18,2.18,0,0,0-2.175,2.175" transform="translate(-4769.042 772.289)" fill="#6de0d0"/>
      <path id="パス_8099" data-name="パス 8099" d="M172.467,12.436a2.175,2.175,0,1,0,2.175-2.175,2.18,2.18,0,0,0-2.175,2.175" transform="translate(-4760.342 737.489)" fill="#00c8ac"/>
      <path id="パス_8105" data-name="パス 8105" d="M172.467,12.436a2.175,2.175,0,1,0,2.175-2.175,2.18,2.18,0,0,0-2.175,2.175" transform="translate(-4760.342 754.889)" fill="#00c8ac"/>
      <path id="パス_8139" data-name="パス 8139" d="M172.467,12.436a2.175,2.175,0,1,0,2.175-2.175,2.18,2.18,0,0,0-2.175,2.175" transform="translate(-4760.342 763.589)" fill="#00c8ac"/>
      <path id="パス_8132" data-name="パス 8132" d="M172.467,12.436a2.175,2.175,0,1,0,2.175-2.175,2.18,2.18,0,0,0-2.175,2.175" transform="translate(-4760.342 759.239)" fill="#00c8ac"/>
      <path id="パス_8137" data-name="パス 8137" d="M172.467,12.436a2.175,2.175,0,1,0,2.175-2.175,2.18,2.18,0,0,0-2.175,2.175" transform="translate(-4760.342 767.939)" fill="#00c8ac"/>
      <path id="パス_8101" data-name="パス 8101" d="M172.467,12.436a2.175,2.175,0,1,0,2.175-2.175,2.18,2.18,0,0,0-2.175,2.175" transform="translate(-4751.642 737.489)" fill="#00c8ac"/>
      <path id="パス_8113" data-name="パス 8113" d="M172.467,12.436a2.175,2.175,0,1,0,2.175-2.175,2.18,2.18,0,0,0-2.175,2.175" transform="translate(-4751.642 754.889)" fill="#00c8ac"/>
      <path id="パス_8141" data-name="パス 8141" d="M172.467,12.436a2.175,2.175,0,1,0,2.175-2.175,2.18,2.18,0,0,0-2.175,2.175" transform="translate(-4751.642 763.589)" fill="#00c8ac"/>
      <path id="パス_8133" data-name="パス 8133" d="M172.467,12.436a2.175,2.175,0,1,0,2.175-2.175,2.18,2.18,0,0,0-2.175,2.175" transform="translate(-4751.642 759.239)" fill="#00c8ac"/>
      <path id="パス_8103" data-name="パス 8103" d="M172.467,12.436a2.175,2.175,0,1,0,2.175-2.175,2.18,2.18,0,0,0-2.175,2.175" transform="translate(-4747.292 737.489)" fill="#00c8ac"/>
      <path id="パス_8114" data-name="パス 8114" d="M172.467,12.436a2.175,2.175,0,1,0,2.175-2.175,2.18,2.18,0,0,0-2.175,2.175" transform="translate(-4747.292 754.889)" fill="#00c8ac"/>
      <path id="パス_8142" data-name="パス 8142" d="M172.467,12.436a2.175,2.175,0,1,0,2.175-2.175,2.18,2.18,0,0,0-2.175,2.175" transform="translate(-4747.292 763.589)" fill="#00c8ac"/>
      <path id="パス_8134" data-name="パス 8134" d="M172.467,12.436a2.175,2.175,0,1,0,2.175-2.175,2.18,2.18,0,0,0-2.175,2.175" transform="translate(-4747.292 759.239)" fill="#00c8ac"/>
      <path id="パス_8089" data-name="パス 8089" d="M172.467,12.436a2.175,2.175,0,1,0,2.175-2.175,2.18,2.18,0,0,0-2.175,2.175" transform="translate(-4786.442 733.139)" fill="#6de0d0"/>
      <path id="パス_8202" data-name="パス 8202" d="M172.467,12.436a2.175,2.175,0,1,0,2.175-2.175,2.18,2.18,0,0,0-2.175,2.175" transform="translate(-4786.442 754.889)" fill="#6de0d0"/>
      <path id="パス_8155" data-name="パス 8155" d="M172.467,12.436a2.175,2.175,0,1,0,2.175-2.175,2.18,2.18,0,0,0-2.175,2.175" transform="translate(-4786.442 741.839)" fill="#6de0d0"/>
      <path id="パス_8203" data-name="パス 8203" d="M172.467,12.436a2.175,2.175,0,1,0,2.175-2.175,2.18,2.18,0,0,0-2.175,2.175" transform="translate(-4786.442 763.589)" fill="#6de0d0"/>
      <path id="パス_8171" data-name="パス 8171" d="M172.467,12.436a2.175,2.175,0,1,0,2.175-2.175,2.18,2.18,0,0,0-2.175,2.175" transform="translate(-4786.442 746.189)" fill="#6de0d0"/>
      <path id="パス_8204" data-name="パス 8204" d="M172.467,12.436a2.175,2.175,0,1,0,2.175-2.175,2.18,2.18,0,0,0-2.175,2.175" transform="translate(-4786.442 767.939)" fill="#6de0d0"/>
      <path id="パス_8215" data-name="パス 8215" d="M172.467,12.436a2.175,2.175,0,1,0,2.175-2.175,2.18,2.18,0,0,0-2.175,2.175" transform="translate(-4786.442 772.289)" fill="#6de0d0"/>
      <path id="パス_8096" data-name="パス 8096" d="M172.467,12.436a2.175,2.175,0,1,0,2.175-2.175,2.18,2.18,0,0,0-2.175,2.175" transform="translate(-4786.442 720.089)" fill="#6de0d0"/>
      <path id="パス_8080" data-name="パス 8080" d="M172.467,12.436a2.175,2.175,0,1,0,2.175-2.175,2.18,2.18,0,0,0-2.175,2.175" transform="translate(-4777.742 733.139)" fill="#6de0d0"/>
      <path id="パス_8212" data-name="パス 8212" d="M172.467,12.436a2.175,2.175,0,1,0,2.175-2.175,2.18,2.18,0,0,0-2.175,2.175" transform="translate(-4777.742 754.889)" fill="#6de0d0"/>
      <path id="パス_8162" data-name="パス 8162" d="M172.467,12.436a2.175,2.175,0,1,0,2.175-2.175,2.18,2.18,0,0,0-2.175,2.175" transform="translate(-4777.742 741.839)" fill="#6de0d0"/>
      <path id="パス_8213" data-name="パス 8213" d="M172.467,12.436a2.175,2.175,0,1,0,2.175-2.175,2.18,2.18,0,0,0-2.175,2.175" transform="translate(-4777.742 763.589)" fill="#6de0d0"/>
      <path id="パス_8172" data-name="パス 8172" d="M172.467,12.436a2.175,2.175,0,1,0,2.175-2.175,2.18,2.18,0,0,0-2.175,2.175" transform="translate(-4777.742 746.189)" fill="#6de0d0"/>
      <path id="パス_8214" data-name="パス 8214" d="M172.467,12.436a2.175,2.175,0,1,0,2.175-2.175,2.18,2.18,0,0,0-2.175,2.175" transform="translate(-4777.742 767.939)" fill="#6de0d0"/>
      <path id="パス_8220" data-name="パス 8220" d="M172.467,12.436a2.175,2.175,0,1,0,2.175-2.175,2.18,2.18,0,0,0-2.175,2.175" transform="translate(-4777.742 772.289)" fill="#6de0d0"/>
      <path id="パス_8084" data-name="パス 8084" d="M172.467,12.436a2.175,2.175,0,1,0,2.175-2.175,2.18,2.18,0,0,0-2.175,2.175" transform="translate(-4795.142 733.139)" fill="#6de0d0"/>
      <path id="パス_8192" data-name="パス 8192" d="M172.467,12.436a2.175,2.175,0,1,0,2.175-2.175,2.18,2.18,0,0,0-2.175,2.175" transform="translate(-4795.142 754.889)" fill="#6de0d0"/>
      <path id="パス_8156" data-name="パス 8156" d="M172.467,12.436a2.175,2.175,0,1,0,2.175-2.175,2.18,2.18,0,0,0-2.175,2.175" transform="translate(-4795.142 741.839)" fill="#6de0d0"/>
      <path id="パス_8193" data-name="パス 8193" d="M172.467,12.436a2.175,2.175,0,1,0,2.175-2.175,2.18,2.18,0,0,0-2.175,2.175" transform="translate(-4795.142 763.589)" fill="#6de0d0"/>
      <path id="パス_8173" data-name="パス 8173" d="M172.467,12.436a2.175,2.175,0,1,0,2.175-2.175,2.18,2.18,0,0,0-2.175,2.175" transform="translate(-4795.142 746.189)" fill="#6de0d0"/>
      <path id="パス_8194" data-name="パス 8194" d="M172.467,12.436a2.175,2.175,0,1,0,2.175-2.175,2.18,2.18,0,0,0-2.175,2.175" transform="translate(-4795.142 767.939)" fill="#6de0d0"/>
      <path id="パス_8216" data-name="パス 8216" d="M172.467,12.436a2.175,2.175,0,1,0,2.175-2.175,2.18,2.18,0,0,0-2.175,2.175" transform="translate(-4795.142 772.289)" fill="#6de0d0"/>
      <path id="パス_8093" data-name="パス 8093" d="M172.467,12.436a2.175,2.175,0,1,0,2.175-2.175,2.18,2.18,0,0,0-2.175,2.175" transform="translate(-4803.842 733.139)" fill="#6de0d0"/>
      <path id="パス_8183" data-name="パス 8183" d="M172.467,12.436a2.175,2.175,0,1,0,2.175-2.175,2.18,2.18,0,0,0-2.175,2.175" transform="translate(-4803.842 754.889)" fill="#6de0d0"/>
      <path id="パス_8225" data-name="パス 8225" d="M172.467,12.436a2.175,2.175,0,1,0,2.175-2.175,2.18,2.18,0,0,0-2.175,2.175" transform="translate(-4808.192 754.889)" fill="#00c8ac"/>
      <path id="パス_8157" data-name="パス 8157" d="M172.467,12.436a2.175,2.175,0,1,0,2.175-2.175,2.18,2.18,0,0,0-2.175,2.175" transform="translate(-4803.842 741.839)" fill="#6de0d0"/>
      <path id="パス_8181" data-name="パス 8181" d="M172.467,12.436a2.175,2.175,0,1,0,2.175-2.175,2.18,2.18,0,0,0-2.175,2.175" transform="translate(-4803.842 763.589)" fill="#6de0d0"/>
      <path id="パス_8223" data-name="パス 8223" d="M172.467,12.436a2.175,2.175,0,1,0,2.175-2.175,2.18,2.18,0,0,0-2.175,2.175" transform="translate(-4808.192 763.589)" fill="#00c8ac"/>
      <path id="パス_8277" data-name="パス 8277" d="M172.467,12.436a2.175,2.175,0,1,0,2.175-2.175,2.18,2.18,0,0,0-2.175,2.175" transform="translate(-4808.192 776.639)" fill="#00c8ac"/>
      <path id="パス_8174" data-name="パス 8174" d="M172.467,12.436a2.175,2.175,0,1,0,2.175-2.175,2.18,2.18,0,0,0-2.175,2.175" transform="translate(-4803.842 746.189)" fill="#6de0d0"/>
      <path id="パス_8229" data-name="パス 8229" d="M172.467,12.436a2.175,2.175,0,1,0,2.175-2.175,2.18,2.18,0,0,0-2.175,2.175" transform="translate(-4825.592 746.189)" fill="#00c8ac"/>
      <path id="パス_8286" data-name="パス 8286" d="M172.467,12.436a2.175,2.175,0,1,0,2.175-2.175,2.18,2.18,0,0,0-2.175,2.175" transform="translate(-4856.042 746.189)" fill="#6de0d0"/>
      <path id="パス_8245" data-name="パス 8245" d="M172.467,12.436a2.175,2.175,0,1,0,2.175-2.175,2.18,2.18,0,0,0-2.175,2.175" transform="translate(-4825.592 754.889)" fill="#00c8ac"/>
      <path id="パス_8297" data-name="パス 8297" d="M172.467,12.436a2.175,2.175,0,1,0,2.175-2.175,2.18,2.18,0,0,0-2.175,2.175" transform="translate(-4856.042 754.889)" fill="#6de0d0"/>
      <path id="パス_8339" data-name="パス 8339" d="M172.467,12.436a2.175,2.175,0,1,0,2.175-2.175,2.18,2.18,0,0,0-2.175,2.175" transform="translate(-4856.042 785.339)" fill="#ccebe7"/>
      <path id="パス_8231" data-name="パス 8231" d="M172.467,12.436a2.175,2.175,0,1,0,2.175-2.175,2.18,2.18,0,0,0-2.175,2.175" transform="translate(-4825.592 750.539)" fill="#00c8ac"/>
      <path id="パス_8290" data-name="パス 8290" d="M172.467,12.436a2.175,2.175,0,1,0,2.175-2.175,2.18,2.18,0,0,0-2.175,2.175" transform="translate(-4856.042 750.539)" fill="#6de0d0"/>
      <path id="パス_8348" data-name="パス 8348" d="M172.467,12.436a2.175,2.175,0,1,0,2.175-2.175,2.18,2.18,0,0,0-2.175,2.175" transform="translate(-4856.042 780.989)" fill="#ccebe7"/>
      <path id="パス_8238" data-name="パス 8238" d="M172.467,12.436a2.175,2.175,0,1,0,2.175-2.175,2.18,2.18,0,0,0-2.175,2.175" transform="translate(-4825.592 759.239)" fill="#00c8ac"/>
      <path id="パス_8304" data-name="パス 8304" d="M172.467,12.436a2.175,2.175,0,1,0,2.175-2.175,2.18,2.18,0,0,0-2.175,2.175" transform="translate(-4856.042 759.239)" fill="#6de0d0"/>
      <path id="パス_8333" data-name="パス 8333" d="M172.467,12.436a2.175,2.175,0,1,0,2.175-2.175,2.18,2.18,0,0,0-2.175,2.175" transform="translate(-4856.042 789.689)" fill="#ccebe7"/>
      <path id="パス_8263" data-name="パス 8263" d="M172.467,12.436a2.175,2.175,0,1,0,2.175-2.175,2.18,2.18,0,0,0-2.175,2.175" transform="translate(-4825.592 767.939)" fill="#00c8ac"/>
      <path id="パス_8271" data-name="パス 8271" d="M172.467,12.436a2.175,2.175,0,1,0,2.175-2.175,2.18,2.18,0,0,0-2.175,2.175" transform="translate(-4825.592 780.989)" fill="#00c8ac"/>
      <path id="パス_8252" data-name="パス 8252" d="M172.467,12.436a2.175,2.175,0,1,0,2.175-2.175,2.18,2.18,0,0,0-2.175,2.175" transform="translate(-4825.592 763.589)" fill="#00c8ac"/>
      <path id="パス_8311" data-name="パス 8311" d="M172.467,12.436a2.175,2.175,0,1,0,2.175-2.175,2.18,2.18,0,0,0-2.175,2.175" transform="translate(-4856.042 763.589)" fill="#6de0d0"/>
      <path id="パス_8366" data-name="パス 8366" d="M172.467,12.436a2.175,2.175,0,1,0,2.175-2.175,2.18,2.18,0,0,0-2.175,2.175" transform="translate(-4890.842 763.589)" fill="#00c8ac"/>
      <path id="パス_8394" data-name="パス 8394" d="M172.467,12.436a2.175,2.175,0,1,0,2.175-2.175,2.18,2.18,0,0,0-2.175,2.175" transform="translate(-4890.842 776.639)" fill="#00c8ac"/>
      <path id="パス_8407" data-name="パス 8407" d="M172.467,12.436a2.175,2.175,0,1,0,2.175-2.175,2.18,2.18,0,0,0-2.175,2.175" transform="translate(-4890.842 789.689)" fill="#00c8ac"/>
      <path id="パス_8369" data-name="パス 8369" d="M172.467,12.436a2.175,2.175,0,1,0,2.175-2.175,2.18,2.18,0,0,0-2.175,2.175" transform="translate(-4890.842 767.939)" fill="#00c8ac"/>
      <path id="パス_8388" data-name="パス 8388" d="M172.467,12.436a2.175,2.175,0,1,0,2.175-2.175,2.18,2.18,0,0,0-2.175,2.175" transform="translate(-4890.842 780.989)" fill="#00c8ac"/>
      <path id="パス_8402" data-name="パス 8402" d="M172.467,12.436a2.175,2.175,0,1,0,2.175-2.175,2.18,2.18,0,0,0-2.175,2.175" transform="translate(-4890.842 794.039)" fill="#00c8ac"/>
      <path id="パス_8376" data-name="パス 8376" d="M172.467,12.436a2.175,2.175,0,1,0,2.175-2.175,2.18,2.18,0,0,0-2.175,2.175" transform="translate(-4890.842 772.289)" fill="#00c8ac"/>
      <path id="パス_8384" data-name="パス 8384" d="M172.467,12.436a2.175,2.175,0,1,0,2.175-2.175,2.18,2.18,0,0,0-2.175,2.175" transform="translate(-4890.842 785.339)" fill="#00c8ac"/>
      <path id="パス_8327" data-name="パス 8327" d="M172.467,12.436a2.175,2.175,0,1,0,2.175-2.175,2.18,2.18,0,0,0-2.175,2.175" transform="translate(-4856.042 794.039)" fill="#ccebe7"/>
      <path id="パス_8278" data-name="パス 8278" d="M172.467,12.436a2.175,2.175,0,1,0,2.175-2.175,2.18,2.18,0,0,0-2.175,2.175" transform="translate(-4825.592 776.639)" fill="#00c8ac"/>
      <path id="パス_8259" data-name="パス 8259" d="M172.467,12.436a2.175,2.175,0,1,0,2.175-2.175,2.18,2.18,0,0,0-2.175,2.175" transform="translate(-4825.592 772.289)" fill="#00c8ac"/>
      <path id="パス_8267" data-name="パス 8267" d="M172.467,12.436a2.175,2.175,0,1,0,2.175-2.175,2.18,2.18,0,0,0-2.175,2.175" transform="translate(-4825.592 785.339)" fill="#00c8ac"/>
      <path id="パス_8180" data-name="パス 8180" d="M172.467,12.436a2.175,2.175,0,1,0,2.175-2.175,2.18,2.18,0,0,0-2.175,2.175" transform="translate(-4803.842 767.939)" fill="#6de0d0"/>
      <path id="パス_8222" data-name="パス 8222" d="M172.467,12.436a2.175,2.175,0,1,0,2.175-2.175,2.18,2.18,0,0,0-2.175,2.175" transform="translate(-4808.192 767.939)" fill="#00c8ac"/>
      <path id="パス_8275" data-name="パス 8275" d="M172.467,12.436a2.175,2.175,0,1,0,2.175-2.175,2.18,2.18,0,0,0-2.175,2.175" transform="translate(-4808.192 780.989)" fill="#00c8ac"/>
      <path id="パス_8075" data-name="パス 8075" d="M172.467,12.436a2.175,2.175,0,1,0,2.175-2.175,2.18,2.18,0,0,0-2.175,2.175" transform="translate(-4773.392 733.139)" fill="#6de0d0"/>
      <path id="パス_8115" data-name="パス 8115" d="M172.467,12.436a2.175,2.175,0,1,0,2.175-2.175,2.18,2.18,0,0,0-2.175,2.175" transform="translate(-4773.392 750.539)" fill="#00c8ac"/>
      <path id="パス_8144" data-name="パス 8144" d="M172.467,12.436a2.175,2.175,0,1,0,2.175-2.175,2.18,2.18,0,0,0-2.175,2.175" transform="translate(-4773.392 767.939)" fill="#6de0d0"/>
      <path id="パス_8098" data-name="パス 8098" d="M172.467,12.436a2.175,2.175,0,1,0,2.175-2.175,2.18,2.18,0,0,0-2.175,2.175" transform="translate(-4773.392 737.489)" fill="#00c8ac"/>
      <path id="パス_8106" data-name="パス 8106" d="M172.467,12.436a2.175,2.175,0,1,0,2.175-2.175,2.18,2.18,0,0,0-2.175,2.175" transform="translate(-4773.392 754.889)" fill="#00c8ac"/>
      <path id="パス_8143" data-name="パス 8143" d="M172.467,12.436a2.175,2.175,0,1,0,2.175-2.175,2.18,2.18,0,0,0-2.175,2.175" transform="translate(-4773.392 772.289)" fill="#6de0d0"/>
      <path id="パス_8100" data-name="パス 8100" d="M172.467,12.436a2.175,2.175,0,1,0,2.175-2.175,2.18,2.18,0,0,0-2.175,2.175" transform="translate(-4764.692 737.489)" fill="#00c8ac"/>
      <path id="パス_8107" data-name="パス 8107" d="M172.467,12.436a2.175,2.175,0,1,0,2.175-2.175,2.18,2.18,0,0,0-2.175,2.175" transform="translate(-4764.692 754.889)" fill="#00c8ac"/>
      <path id="パス_8140" data-name="パス 8140" d="M172.467,12.436a2.175,2.175,0,1,0,2.175-2.175,2.18,2.18,0,0,0-2.175,2.175" transform="translate(-4764.692 763.589)" fill="#00c8ac"/>
      <path id="パス_8135" data-name="パス 8135" d="M172.467,12.436a2.175,2.175,0,1,0,2.175-2.175,2.18,2.18,0,0,0-2.175,2.175" transform="translate(-4764.692 759.239)" fill="#00c8ac"/>
      <path id="パス_8138" data-name="パス 8138" d="M172.467,12.436a2.175,2.175,0,1,0,2.175-2.175,2.18,2.18,0,0,0-2.175,2.175" transform="translate(-4764.692 767.939)" fill="#00c8ac"/>
      <path id="パス_8102" data-name="パス 8102" d="M172.467,12.436a2.175,2.175,0,1,0,2.175-2.175,2.18,2.18,0,0,0-2.175,2.175" transform="translate(-4755.992 737.489)" fill="#00c8ac"/>
      <path id="パス_8108" data-name="パス 8108" d="M172.467,12.436a2.175,2.175,0,1,0,2.175-2.175,2.18,2.18,0,0,0-2.175,2.175" transform="translate(-4755.992 754.889)" fill="#00c8ac"/>
      <path id="パス_8136" data-name="パス 8136" d="M172.467,12.436a2.175,2.175,0,1,0,2.175-2.175,2.18,2.18,0,0,0-2.175,2.175" transform="translate(-4755.992 759.239)" fill="#00c8ac"/>
      <path id="パス_8087" data-name="パス 8087" d="M172.467,12.436a2.175,2.175,0,1,0,2.175-2.175,2.18,2.18,0,0,0-2.175,2.175" transform="translate(-4790.792 733.139)" fill="#6de0d0"/>
      <path id="パス_8197" data-name="パス 8197" d="M172.467,12.436a2.175,2.175,0,1,0,2.175-2.175,2.18,2.18,0,0,0-2.175,2.175" transform="translate(-4790.792 754.889)" fill="#6de0d0"/>
      <path id="パス_8158" data-name="パス 8158" d="M172.467,12.436a2.175,2.175,0,1,0,2.175-2.175,2.18,2.18,0,0,0-2.175,2.175" transform="translate(-4790.792 741.839)" fill="#6de0d0"/>
      <path id="パス_8198" data-name="パス 8198" d="M172.467,12.436a2.175,2.175,0,1,0,2.175-2.175,2.18,2.18,0,0,0-2.175,2.175" transform="translate(-4790.792 763.589)" fill="#6de0d0"/>
      <path id="パス_8175" data-name="パス 8175" d="M172.467,12.436a2.175,2.175,0,1,0,2.175-2.175,2.18,2.18,0,0,0-2.175,2.175" transform="translate(-4790.792 746.189)" fill="#6de0d0"/>
      <path id="パス_8199" data-name="パス 8199" d="M172.467,12.436a2.175,2.175,0,1,0,2.175-2.175,2.18,2.18,0,0,0-2.175,2.175" transform="translate(-4790.792 767.939)" fill="#6de0d0"/>
      <path id="パス_8217" data-name="パス 8217" d="M172.467,12.436a2.175,2.175,0,1,0,2.175-2.175,2.18,2.18,0,0,0-2.175,2.175" transform="translate(-4790.792 772.289)" fill="#6de0d0"/>
      <path id="パス_8081" data-name="パス 8081" d="M172.467,12.436a2.175,2.175,0,1,0,2.175-2.175,2.18,2.18,0,0,0-2.175,2.175" transform="translate(-4782.092 733.139)" fill="#6de0d0"/>
      <path id="パス_8207" data-name="パス 8207" d="M172.467,12.436a2.175,2.175,0,1,0,2.175-2.175,2.18,2.18,0,0,0-2.175,2.175" transform="translate(-4782.092 754.889)" fill="#6de0d0"/>
      <path id="パス_8159" data-name="パス 8159" d="M172.467,12.436a2.175,2.175,0,1,0,2.175-2.175,2.18,2.18,0,0,0-2.175,2.175" transform="translate(-4782.092 741.839)" fill="#6de0d0"/>
      <path id="パス_8208" data-name="パス 8208" d="M172.467,12.436a2.175,2.175,0,1,0,2.175-2.175,2.18,2.18,0,0,0-2.175,2.175" transform="translate(-4782.092 763.589)" fill="#6de0d0"/>
      <path id="パス_8176" data-name="パス 8176" d="M172.467,12.436a2.175,2.175,0,1,0,2.175-2.175,2.18,2.18,0,0,0-2.175,2.175" transform="translate(-4782.092 746.189)" fill="#6de0d0"/>
      <path id="パス_8209" data-name="パス 8209" d="M172.467,12.436a2.175,2.175,0,1,0,2.175-2.175,2.18,2.18,0,0,0-2.175,2.175" transform="translate(-4782.092 767.939)" fill="#6de0d0"/>
      <path id="パス_8219" data-name="パス 8219" d="M172.467,12.436a2.175,2.175,0,1,0,2.175-2.175,2.18,2.18,0,0,0-2.175,2.175" transform="translate(-4782.092 772.289)" fill="#6de0d0"/>
      <path id="パス_8085" data-name="パス 8085" d="M172.467,12.436a2.175,2.175,0,1,0,2.175-2.175,2.18,2.18,0,0,0-2.175,2.175" transform="translate(-4799.492 733.139)" fill="#6de0d0"/>
      <path id="パス_8187" data-name="パス 8187" d="M172.467,12.436a2.175,2.175,0,1,0,2.175-2.175,2.18,2.18,0,0,0-2.175,2.175" transform="translate(-4799.492 754.889)" fill="#6de0d0"/>
      <path id="パス_8160" data-name="パス 8160" d="M172.467,12.436a2.175,2.175,0,1,0,2.175-2.175,2.18,2.18,0,0,0-2.175,2.175" transform="translate(-4799.492 741.839)" fill="#6de0d0"/>
      <path id="パス_8188" data-name="パス 8188" d="M172.467,12.436a2.175,2.175,0,1,0,2.175-2.175,2.18,2.18,0,0,0-2.175,2.175" transform="translate(-4799.492 763.589)" fill="#6de0d0"/>
      <path id="パス_8177" data-name="パス 8177" d="M172.467,12.436a2.175,2.175,0,1,0,2.175-2.175,2.18,2.18,0,0,0-2.175,2.175" transform="translate(-4799.492 746.189)" fill="#6de0d0"/>
      <path id="パス_8230" data-name="パス 8230" d="M172.467,12.436a2.175,2.175,0,1,0,2.175-2.175,2.18,2.18,0,0,0-2.175,2.175" transform="translate(-4821.242 746.189)" fill="#00c8ac"/>
      <path id="パス_8287" data-name="パス 8287" d="M172.467,12.436a2.175,2.175,0,1,0,2.175-2.175,2.18,2.18,0,0,0-2.175,2.175" transform="translate(-4851.692 746.189)" fill="#6de0d0"/>
      <path id="パス_8356" data-name="パス 8356" d="M172.467,12.436a2.175,2.175,0,1,0,2.175-2.175,2.18,2.18,0,0,0-2.175,2.175" transform="translate(-4851.692 776.639)" fill="#ccebe7"/>
      <path id="パス_8246" data-name="パス 8246" d="M172.467,12.436a2.175,2.175,0,1,0,2.175-2.175,2.18,2.18,0,0,0-2.175,2.175" transform="translate(-4821.242 754.889)" fill="#00c8ac"/>
      <path id="パス_8298" data-name="パス 8298" d="M172.467,12.436a2.175,2.175,0,1,0,2.175-2.175,2.18,2.18,0,0,0-2.175,2.175" transform="translate(-4851.692 754.889)" fill="#6de0d0"/>
      <path id="パス_8340" data-name="パス 8340" d="M172.467,12.436a2.175,2.175,0,1,0,2.175-2.175,2.18,2.18,0,0,0-2.175,2.175" transform="translate(-4851.692 785.339)" fill="#ccebe7"/>
      <path id="パス_8232" data-name="パス 8232" d="M172.467,12.436a2.175,2.175,0,1,0,2.175-2.175,2.18,2.18,0,0,0-2.175,2.175" transform="translate(-4821.242 750.539)" fill="#00c8ac"/>
      <path id="パス_8291" data-name="パス 8291" d="M172.467,12.436a2.175,2.175,0,1,0,2.175-2.175,2.18,2.18,0,0,0-2.175,2.175" transform="translate(-4851.692 750.539)" fill="#6de0d0"/>
      <path id="パス_8349" data-name="パス 8349" d="M172.467,12.436a2.175,2.175,0,1,0,2.175-2.175,2.18,2.18,0,0,0-2.175,2.175" transform="translate(-4851.692 780.989)" fill="#ccebe7"/>
      <path id="パス_8239" data-name="パス 8239" d="M172.467,12.436a2.175,2.175,0,1,0,2.175-2.175,2.18,2.18,0,0,0-2.175,2.175" transform="translate(-4821.242 759.239)" fill="#00c8ac"/>
      <path id="パス_8305" data-name="パス 8305" d="M172.467,12.436a2.175,2.175,0,1,0,2.175-2.175,2.18,2.18,0,0,0-2.175,2.175" transform="translate(-4851.692 759.239)" fill="#6de0d0"/>
      <path id="パス_8334" data-name="パス 8334" d="M172.467,12.436a2.175,2.175,0,1,0,2.175-2.175,2.18,2.18,0,0,0-2.175,2.175" transform="translate(-4851.692 789.689)" fill="#ccebe7"/>
      <path id="パス_8264" data-name="パス 8264" d="M172.467,12.436a2.175,2.175,0,1,0,2.175-2.175,2.18,2.18,0,0,0-2.175,2.175" transform="translate(-4821.242 767.939)" fill="#00c8ac"/>
      <path id="パス_8272" data-name="パス 8272" d="M172.467,12.436a2.175,2.175,0,1,0,2.175-2.175,2.18,2.18,0,0,0-2.175,2.175" transform="translate(-4821.242 780.989)" fill="#00c8ac"/>
      <path id="パス_8253" data-name="パス 8253" d="M172.467,12.436a2.175,2.175,0,1,0,2.175-2.175,2.18,2.18,0,0,0-2.175,2.175" transform="translate(-4821.242 763.589)" fill="#00c8ac"/>
      <path id="パス_8312" data-name="パス 8312" d="M172.467,12.436a2.175,2.175,0,1,0,2.175-2.175,2.18,2.18,0,0,0-2.175,2.175" transform="translate(-4851.692 763.589)" fill="#6de0d0"/>
      <path id="パス_8368" data-name="パス 8368" d="M172.467,12.436a2.175,2.175,0,1,0,2.175-2.175,2.18,2.18,0,0,0-2.175,2.175" transform="translate(-4886.492 763.589)" fill="#00c8ac"/>
      <path id="パス_8395" data-name="パス 8395" d="M172.467,12.436a2.175,2.175,0,1,0,2.175-2.175,2.18,2.18,0,0,0-2.175,2.175" transform="translate(-4886.492 776.639)" fill="#00c8ac"/>
      <path id="パス_8408" data-name="パス 8408" d="M172.467,12.436a2.175,2.175,0,1,0,2.175-2.175,2.18,2.18,0,0,0-2.175,2.175" transform="translate(-4886.492 789.689)" fill="#00c8ac"/>
      <path id="パス_8370" data-name="パス 8370" d="M172.467,12.436a2.175,2.175,0,1,0,2.175-2.175,2.18,2.18,0,0,0-2.175,2.175" transform="translate(-4886.492 767.939)" fill="#00c8ac"/>
      <path id="パス_8389" data-name="パス 8389" d="M172.467,12.436a2.175,2.175,0,1,0,2.175-2.175,2.18,2.18,0,0,0-2.175,2.175" transform="translate(-4886.492 780.989)" fill="#00c8ac"/>
      <path id="パス_8405" data-name="パス 8405" d="M172.467,12.436a2.175,2.175,0,1,0,2.175-2.175,2.18,2.18,0,0,0-2.175,2.175" transform="translate(-4886.492 794.039)" fill="#00c8ac"/>
      <path id="パス_8377" data-name="パス 8377" d="M172.467,12.436a2.175,2.175,0,1,0,2.175-2.175,2.18,2.18,0,0,0-2.175,2.175" transform="translate(-4886.492 772.289)" fill="#00c8ac"/>
      <path id="パス_8387" data-name="パス 8387" d="M172.467,12.436a2.175,2.175,0,1,0,2.175-2.175,2.18,2.18,0,0,0-2.175,2.175" transform="translate(-4886.492 785.339)" fill="#00c8ac"/>
      <path id="パス_8406" data-name="パス 8406" d="M172.467,12.436a2.175,2.175,0,1,0,2.175-2.175,2.18,2.18,0,0,0-2.175,2.175" transform="translate(-4886.492 798.389)" fill="#00c8ac"/>
      <path id="パス_8328" data-name="パス 8328" d="M172.467,12.436a2.175,2.175,0,1,0,2.175-2.175,2.18,2.18,0,0,0-2.175,2.175" transform="translate(-4851.692 794.039)" fill="#ccebe7"/>
      <path id="パス_8279" data-name="パス 8279" d="M172.467,12.436a2.175,2.175,0,1,0,2.175-2.175,2.18,2.18,0,0,0-2.175,2.175" transform="translate(-4821.242 776.639)" fill="#00c8ac"/>
      <path id="パス_8260" data-name="パス 8260" d="M172.467,12.436a2.175,2.175,0,1,0,2.175-2.175,2.18,2.18,0,0,0-2.175,2.175" transform="translate(-4821.242 772.289)" fill="#00c8ac"/>
      <path id="パス_8268" data-name="パス 8268" d="M172.467,12.436a2.175,2.175,0,1,0,2.175-2.175,2.18,2.18,0,0,0-2.175,2.175" transform="translate(-4821.242 785.339)" fill="#00c8ac"/>
      <path id="パス_8189" data-name="パス 8189" d="M172.467,12.436a2.175,2.175,0,1,0,2.175-2.175,2.18,2.18,0,0,0-2.175,2.175" transform="translate(-4799.492 767.939)" fill="#6de0d0"/>
      <path id="パス_8218" data-name="パス 8218" d="M172.467,12.436a2.175,2.175,0,1,0,2.175-2.175,2.18,2.18,0,0,0-2.175,2.175" transform="translate(-4799.492 772.289)" fill="#6de0d0"/>
      <path id="パス_8091" data-name="パス 8091" d="M172.467,12.436a2.175,2.175,0,1,0,2.175-2.175,2.18,2.18,0,0,0-2.175,2.175" transform="translate(-4808.192 733.139)" fill="#6de0d0"/>
      <path id="パス_8161" data-name="パス 8161" d="M172.467,12.436a2.175,2.175,0,1,0,2.175-2.175,2.18,2.18,0,0,0-2.175,2.175" transform="translate(-4808.192 741.839)" fill="#6de0d0"/>
      <path id="パス_8178" data-name="パス 8178" d="M172.467,12.436a2.175,2.175,0,1,0,2.175-2.175,2.18,2.18,0,0,0-2.175,2.175" transform="translate(-4808.192 746.189)" fill="#6de0d0"/>
      <path id="パス_8228" data-name="パス 8228" d="M172.467,12.436a2.175,2.175,0,1,0,2.175-2.175,2.18,2.18,0,0,0-2.175,2.175" transform="translate(-4829.942 746.189)" fill="#00c8ac"/>
      <path id="パス_8285" data-name="パス 8285" d="M172.467,12.436a2.175,2.175,0,1,0,2.175-2.175,2.18,2.18,0,0,0-2.175,2.175" transform="translate(-4860.392 746.189)" fill="#6de0d0"/>
      <path id="パス_8357" data-name="パス 8357" d="M172.467,12.436a2.175,2.175,0,1,0,2.175-2.175,2.18,2.18,0,0,0-2.175,2.175" transform="translate(-4860.392 776.639)" fill="#ccebe7"/>
      <path id="パス_8247" data-name="パス 8247" d="M172.467,12.436a2.175,2.175,0,1,0,2.175-2.175,2.18,2.18,0,0,0-2.175,2.175" transform="translate(-4829.942 754.889)" fill="#00c8ac"/>
      <path id="パス_8299" data-name="パス 8299" d="M172.467,12.436a2.175,2.175,0,1,0,2.175-2.175,2.18,2.18,0,0,0-2.175,2.175" transform="translate(-4860.392 754.889)" fill="#6de0d0"/>
      <path id="パス_8341" data-name="パス 8341" d="M172.467,12.436a2.175,2.175,0,1,0,2.175-2.175,2.18,2.18,0,0,0-2.175,2.175" transform="translate(-4860.392 785.339)" fill="#ccebe7"/>
      <path id="パス_8233" data-name="パス 8233" d="M172.467,12.436a2.175,2.175,0,1,0,2.175-2.175,2.18,2.18,0,0,0-2.175,2.175" transform="translate(-4829.942 750.539)" fill="#00c8ac"/>
      <path id="パス_8292" data-name="パス 8292" d="M172.467,12.436a2.175,2.175,0,1,0,2.175-2.175,2.18,2.18,0,0,0-2.175,2.175" transform="translate(-4860.392 750.539)" fill="#6de0d0"/>
      <path id="パス_8350" data-name="パス 8350" d="M172.467,12.436a2.175,2.175,0,1,0,2.175-2.175,2.18,2.18,0,0,0-2.175,2.175" transform="translate(-4860.392 780.989)" fill="#ccebe7"/>
      <path id="パス_8240" data-name="パス 8240" d="M172.467,12.436a2.175,2.175,0,1,0,2.175-2.175,2.18,2.18,0,0,0-2.175,2.175" transform="translate(-4829.942 759.239)" fill="#00c8ac"/>
      <path id="パス_8306" data-name="パス 8306" d="M172.467,12.436a2.175,2.175,0,1,0,2.175-2.175,2.18,2.18,0,0,0-2.175,2.175" transform="translate(-4860.392 759.239)" fill="#6de0d0"/>
      <path id="パス_8335" data-name="パス 8335" d="M172.467,12.436a2.175,2.175,0,1,0,2.175-2.175,2.18,2.18,0,0,0-2.175,2.175" transform="translate(-4860.392 789.689)" fill="#ccebe7"/>
      <path id="パス_8254" data-name="パス 8254" d="M172.467,12.436a2.175,2.175,0,1,0,2.175-2.175,2.18,2.18,0,0,0-2.175,2.175" transform="translate(-4829.942 763.589)" fill="#00c8ac"/>
      <path id="パス_8313" data-name="パス 8313" d="M172.467,12.436a2.175,2.175,0,1,0,2.175-2.175,2.18,2.18,0,0,0-2.175,2.175" transform="translate(-4860.392 763.589)" fill="#6de0d0"/>
      <path id="パス_8367" data-name="パス 8367" d="M172.467,12.436a2.175,2.175,0,1,0,2.175-2.175,2.18,2.18,0,0,0-2.175,2.175" transform="translate(-4895.192 763.589)" fill="#00c8ac"/>
      <path id="パス_8396" data-name="パス 8396" d="M172.467,12.436a2.175,2.175,0,1,0,2.175-2.175,2.18,2.18,0,0,0-2.175,2.175" transform="translate(-4895.192 776.639)" fill="#00c8ac"/>
      <path id="パス_8409" data-name="パス 8409" d="M172.467,12.436a2.175,2.175,0,1,0,2.175-2.175,2.18,2.18,0,0,0-2.175,2.175" transform="translate(-4895.192 789.689)" fill="#00c8ac"/>
      <path id="パス_8371" data-name="パス 8371" d="M172.467,12.436a2.175,2.175,0,1,0,2.175-2.175,2.18,2.18,0,0,0-2.175,2.175" transform="translate(-4895.192 767.939)" fill="#00c8ac"/>
      <path id="パス_8390" data-name="パス 8390" d="M172.467,12.436a2.175,2.175,0,1,0,2.175-2.175,2.18,2.18,0,0,0-2.175,2.175" transform="translate(-4895.192 780.989)" fill="#00c8ac"/>
      <path id="パス_8403" data-name="パス 8403" d="M172.467,12.436a2.175,2.175,0,1,0,2.175-2.175,2.18,2.18,0,0,0-2.175,2.175" transform="translate(-4895.192 794.039)" fill="#00c8ac"/>
      <path id="パス_8378" data-name="パス 8378" d="M172.467,12.436a2.175,2.175,0,1,0,2.175-2.175,2.18,2.18,0,0,0-2.175,2.175" transform="translate(-4895.192 772.289)" fill="#00c8ac"/>
      <path id="パス_8385" data-name="パス 8385" d="M172.467,12.436a2.175,2.175,0,1,0,2.175-2.175,2.18,2.18,0,0,0-2.175,2.175" transform="translate(-4895.192 785.339)" fill="#00c8ac"/>
      <path id="パス_8400" data-name="パス 8400" d="M172.467,12.436a2.175,2.175,0,1,0,2.175-2.175,2.18,2.18,0,0,0-2.175,2.175" transform="translate(-4895.192 798.389)" fill="#00c8ac"/>
      <path id="パス_8329" data-name="パス 8329" d="M172.467,12.436a2.175,2.175,0,1,0,2.175-2.175,2.18,2.18,0,0,0-2.175,2.175" transform="translate(-4860.392 794.039)" fill="#ccebe7"/>
      <path id="パス_8179" data-name="パス 8179" d="M172.467,12.436a2.175,2.175,0,1,0,2.175-2.175,2.18,2.18,0,0,0-2.175,2.175" transform="translate(-4808.192 750.539)" fill="#00c8ac"/>
      <path id="パス_8221" data-name="パス 8221" d="M172.467,12.436a2.175,2.175,0,1,0,2.175-2.175,2.18,2.18,0,0,0-2.175,2.175" transform="translate(-4808.192 772.289)" fill="#00c8ac"/>
      <path id="パス_8276" data-name="パス 8276" d="M172.467,12.436a2.175,2.175,0,1,0,2.175-2.175,2.18,2.18,0,0,0-2.175,2.175" transform="translate(-4808.192 785.339)" fill="#00c8ac"/>
      <path id="パス_8151" data-name="パス 8151" d="M172.467,12.436a2.175,2.175,0,1,0,2.175-2.175,2.18,2.18,0,0,0-2.175,2.175" transform="translate(-4812.542 737.489)" fill="#6de0d0"/>
      <path id="パス_8152" data-name="パス 8152" d="M172.467,12.436a2.175,2.175,0,1,0,2.175-2.175,2.18,2.18,0,0,0-2.175,2.175" transform="translate(-4812.542 741.839)" fill="#6de0d0"/>
      <path id="パス_8153" data-name="パス 8153" d="M172.467,12.436a2.175,2.175,0,1,0,2.175-2.175,2.18,2.18,0,0,0-2.175,2.175" transform="translate(-4812.542 746.189)" fill="#6de0d0"/>
      <path id="パス_8289" data-name="パス 8289" d="M172.467,12.436a2.175,2.175,0,1,0,2.175-2.175,2.18,2.18,0,0,0-2.175,2.175" transform="translate(-4842.992 746.189)" fill="#6de0d0"/>
      <path id="パス_8358" data-name="パス 8358" d="M172.467,12.436a2.175,2.175,0,1,0,2.175-2.175,2.18,2.18,0,0,0-2.175,2.175" transform="translate(-4842.992 776.639)" fill="#ccebe7"/>
      <path id="パス_8248" data-name="パス 8248" d="M172.467,12.436a2.175,2.175,0,1,0,2.175-2.175,2.18,2.18,0,0,0-2.175,2.175" transform="translate(-4812.542 754.889)" fill="#00c8ac"/>
      <path id="パス_8300" data-name="パス 8300" d="M172.467,12.436a2.175,2.175,0,1,0,2.175-2.175,2.18,2.18,0,0,0-2.175,2.175" transform="translate(-4842.992 754.889)" fill="#6de0d0"/>
      <path id="パス_8345" data-name="パス 8345" d="M172.467,12.436a2.175,2.175,0,1,0,2.175-2.175,2.18,2.18,0,0,0-2.175,2.175" transform="translate(-4842.992 785.339)" fill="#ccebe7"/>
      <path id="パス_8234" data-name="パス 8234" d="M172.467,12.436a2.175,2.175,0,1,0,2.175-2.175,2.18,2.18,0,0,0-2.175,2.175" transform="translate(-4812.542 750.539)" fill="#00c8ac"/>
      <path id="パス_8293" data-name="パス 8293" d="M172.467,12.436a2.175,2.175,0,1,0,2.175-2.175,2.18,2.18,0,0,0-2.175,2.175" transform="translate(-4842.992 750.539)" fill="#6de0d0"/>
      <path id="パス_8351" data-name="パス 8351" d="M172.467,12.436a2.175,2.175,0,1,0,2.175-2.175,2.18,2.18,0,0,0-2.175,2.175" transform="translate(-4842.992 780.989)" fill="#ccebe7"/>
      <path id="パス_8244" data-name="パス 8244" d="M172.467,12.436a2.175,2.175,0,1,0,2.175-2.175,2.18,2.18,0,0,0-2.175,2.175" transform="translate(-4812.542 759.239)" fill="#00c8ac"/>
      <path id="パス_8307" data-name="パス 8307" d="M172.467,12.436a2.175,2.175,0,1,0,2.175-2.175,2.18,2.18,0,0,0-2.175,2.175" transform="translate(-4842.992 759.239)" fill="#6de0d0"/>
      <path id="パス_8346" data-name="パス 8346" d="M172.467,12.436a2.175,2.175,0,1,0,2.175-2.175,2.18,2.18,0,0,0-2.175,2.175" transform="translate(-4842.992 789.689)" fill="#ccebe7"/>
      <path id="パス_8265" data-name="パス 8265" d="M172.467,12.436a2.175,2.175,0,1,0,2.175-2.175,2.18,2.18,0,0,0-2.175,2.175" transform="translate(-4812.542 767.939)" fill="#00c8ac"/>
      <path id="パス_8273" data-name="パス 8273" d="M172.467,12.436a2.175,2.175,0,1,0,2.175-2.175,2.18,2.18,0,0,0-2.175,2.175" transform="translate(-4812.542 780.989)" fill="#00c8ac"/>
      <path id="パス_8258" data-name="パス 8258" d="M172.467,12.436a2.175,2.175,0,1,0,2.175-2.175,2.18,2.18,0,0,0-2.175,2.175" transform="translate(-4812.542 763.589)" fill="#00c8ac"/>
      <path id="パス_8314" data-name="パス 8314" d="M172.467,12.436a2.175,2.175,0,1,0,2.175-2.175,2.18,2.18,0,0,0-2.175,2.175" transform="translate(-4842.992 763.589)" fill="#6de0d0"/>
      <path id="パス_8347" data-name="パス 8347" d="M172.467,12.436a2.175,2.175,0,1,0,2.175-2.175,2.18,2.18,0,0,0-2.175,2.175" transform="translate(-4842.992 794.039)" fill="#ccebe7"/>
      <path id="パス_8280" data-name="パス 8280" d="M172.467,12.436a2.175,2.175,0,1,0,2.175-2.175,2.18,2.18,0,0,0-2.175,2.175" transform="translate(-4812.542 776.639)" fill="#00c8ac"/>
      <path id="パス_8262" data-name="パス 8262" d="M172.467,12.436a2.175,2.175,0,1,0,2.175-2.175,2.18,2.18,0,0,0-2.175,2.175" transform="translate(-4812.542 772.289)" fill="#00c8ac"/>
      <path id="パス_8270" data-name="パス 8270" d="M172.467,12.436a2.175,2.175,0,1,0,2.175-2.175,2.18,2.18,0,0,0-2.175,2.175" transform="translate(-4812.542 785.339)" fill="#00c8ac"/>
      <path id="パス_8227" data-name="パス 8227" d="M172.467,12.436a2.175,2.175,0,1,0,2.175-2.175,2.18,2.18,0,0,0-2.175,2.175" transform="translate(-4834.292 746.189)" fill="#00c8ac"/>
      <path id="パス_8284" data-name="パス 8284" d="M172.467,12.436a2.175,2.175,0,1,0,2.175-2.175,2.18,2.18,0,0,0-2.175,2.175" transform="translate(-4864.742 746.189)" fill="#6de0d0"/>
      <path id="パス_8359" data-name="パス 8359" d="M172.467,12.436a2.175,2.175,0,1,0,2.175-2.175,2.18,2.18,0,0,0-2.175,2.175" transform="translate(-4864.742 776.639)" fill="#ccebe7"/>
      <path id="パス_8249" data-name="パス 8249" d="M172.467,12.436a2.175,2.175,0,1,0,2.175-2.175,2.18,2.18,0,0,0-2.175,2.175" transform="translate(-4834.292 754.889)" fill="#00c8ac"/>
      <path id="パス_8301" data-name="パス 8301" d="M172.467,12.436a2.175,2.175,0,1,0,2.175-2.175,2.18,2.18,0,0,0-2.175,2.175" transform="translate(-4864.742 754.889)" fill="#6de0d0"/>
      <path id="パス_8342" data-name="パス 8342" d="M172.467,12.436a2.175,2.175,0,1,0,2.175-2.175,2.18,2.18,0,0,0-2.175,2.175" transform="translate(-4864.742 785.339)" fill="#ccebe7"/>
      <path id="パス_8235" data-name="パス 8235" d="M172.467,12.436a2.175,2.175,0,1,0,2.175-2.175,2.18,2.18,0,0,0-2.175,2.175" transform="translate(-4834.292 750.539)" fill="#00c8ac"/>
      <path id="パス_8294" data-name="パス 8294" d="M172.467,12.436a2.175,2.175,0,1,0,2.175-2.175,2.18,2.18,0,0,0-2.175,2.175" transform="translate(-4864.742 750.539)" fill="#6de0d0"/>
      <path id="パス_8352" data-name="パス 8352" d="M172.467,12.436a2.175,2.175,0,1,0,2.175-2.175,2.18,2.18,0,0,0-2.175,2.175" transform="translate(-4864.742 780.989)" fill="#ccebe7"/>
      <path id="パス_8241" data-name="パス 8241" d="M172.467,12.436a2.175,2.175,0,1,0,2.175-2.175,2.18,2.18,0,0,0-2.175,2.175" transform="translate(-4834.292 759.239)" fill="#00c8ac"/>
      <path id="パス_8308" data-name="パス 8308" d="M172.467,12.436a2.175,2.175,0,1,0,2.175-2.175,2.18,2.18,0,0,0-2.175,2.175" transform="translate(-4864.742 759.239)" fill="#6de0d0"/>
      <path id="パス_8336" data-name="パス 8336" d="M172.467,12.436a2.175,2.175,0,1,0,2.175-2.175,2.18,2.18,0,0,0-2.175,2.175" transform="translate(-4864.742 789.689)" fill="#ccebe7"/>
      <path id="パス_8255" data-name="パス 8255" d="M172.467,12.436a2.175,2.175,0,1,0,2.175-2.175,2.18,2.18,0,0,0-2.175,2.175" transform="translate(-4834.292 763.589)" fill="#00c8ac"/>
      <path id="パス_8315" data-name="パス 8315" d="M172.467,12.436a2.175,2.175,0,1,0,2.175-2.175,2.18,2.18,0,0,0-2.175,2.175" transform="translate(-4864.742 763.589)" fill="#6de0d0"/>
      <path id="パス_8363" data-name="パス 8363" d="M172.467,12.436a2.175,2.175,0,1,0,2.175-2.175,2.18,2.18,0,0,0-2.175,2.175" transform="translate(-4899.542 763.589)" fill="#00c8ac"/>
      <path id="パス_8397" data-name="パス 8397" d="M172.467,12.436a2.175,2.175,0,1,0,2.175-2.175,2.18,2.18,0,0,0-2.175,2.175" transform="translate(-4899.542 776.639)" fill="#00c8ac"/>
      <path id="パス_8410" data-name="パス 8410" d="M172.467,12.436a2.175,2.175,0,1,0,2.175-2.175,2.18,2.18,0,0,0-2.175,2.175" transform="translate(-4899.542 789.689)" fill="#00c8ac"/>
      <path id="パス_8372" data-name="パス 8372" d="M172.467,12.436a2.175,2.175,0,1,0,2.175-2.175,2.18,2.18,0,0,0-2.175,2.175" transform="translate(-4899.542 767.939)" fill="#00c8ac"/>
      <path id="パス_8391" data-name="パス 8391" d="M172.467,12.436a2.175,2.175,0,1,0,2.175-2.175,2.18,2.18,0,0,0-2.175,2.175" transform="translate(-4899.542 780.989)" fill="#00c8ac"/>
      <path id="パス_8404" data-name="パス 8404" d="M172.467,12.436a2.175,2.175,0,1,0,2.175-2.175,2.18,2.18,0,0,0-2.175,2.175" transform="translate(-4899.542 794.039)" fill="#00c8ac"/>
      <path id="パス_8379" data-name="パス 8379" d="M172.467,12.436a2.175,2.175,0,1,0,2.175-2.175,2.18,2.18,0,0,0-2.175,2.175" transform="translate(-4899.542 772.289)" fill="#00c8ac"/>
      <path id="パス_8386" data-name="パス 8386" d="M172.467,12.436a2.175,2.175,0,1,0,2.175-2.175,2.18,2.18,0,0,0-2.175,2.175" transform="translate(-4899.542 785.339)" fill="#00c8ac"/>
      <path id="パス_8401" data-name="パス 8401" d="M172.467,12.436a2.175,2.175,0,1,0,2.175-2.175,2.18,2.18,0,0,0-2.175,2.175" transform="translate(-4899.542 798.389)" fill="#00c8ac"/>
      <path id="パス_8330" data-name="パス 8330" d="M172.467,12.436a2.175,2.175,0,1,0,2.175-2.175,2.18,2.18,0,0,0-2.175,2.175" transform="translate(-4864.742 794.039)" fill="#ccebe7"/>
      <path id="パス_8282" data-name="パス 8282" d="M172.467,12.436a2.175,2.175,0,1,0,2.175-2.175,2.18,2.18,0,0,0-2.175,2.175" transform="translate(-4832.117 770.114)" fill="#00c8ac"/>
      <path id="パス_8154" data-name="パス 8154" d="M172.467,12.436a2.175,2.175,0,1,0,2.175-2.175,2.18,2.18,0,0,0-2.175,2.175" transform="translate(-4816.892 746.189)" fill="#6de0d0"/>
      <path id="パス_8288" data-name="パス 8288" d="M172.467,12.436a2.175,2.175,0,1,0,2.175-2.175,2.18,2.18,0,0,0-2.175,2.175" transform="translate(-4847.342 746.189)" fill="#6de0d0"/>
      <path id="パス_8360" data-name="パス 8360" d="M172.467,12.436a2.175,2.175,0,1,0,2.175-2.175,2.18,2.18,0,0,0-2.175,2.175" transform="translate(-4847.342 776.639)" fill="#ccebe7"/>
      <path id="パス_8250" data-name="パス 8250" d="M172.467,12.436a2.175,2.175,0,1,0,2.175-2.175,2.18,2.18,0,0,0-2.175,2.175" transform="translate(-4816.892 754.889)" fill="#00c8ac"/>
      <path id="パス_8302" data-name="パス 8302" d="M172.467,12.436a2.175,2.175,0,1,0,2.175-2.175,2.18,2.18,0,0,0-2.175,2.175" transform="translate(-4847.342 754.889)" fill="#6de0d0"/>
      <path id="パス_8343" data-name="パス 8343" d="M172.467,12.436a2.175,2.175,0,1,0,2.175-2.175,2.18,2.18,0,0,0-2.175,2.175" transform="translate(-4847.342 785.339)" fill="#ccebe7"/>
      <path id="パス_8236" data-name="パス 8236" d="M172.467,12.436a2.175,2.175,0,1,0,2.175-2.175,2.18,2.18,0,0,0-2.175,2.175" transform="translate(-4816.892 750.539)" fill="#00c8ac"/>
      <path id="パス_8295" data-name="パス 8295" d="M172.467,12.436a2.175,2.175,0,1,0,2.175-2.175,2.18,2.18,0,0,0-2.175,2.175" transform="translate(-4847.342 750.539)" fill="#6de0d0"/>
      <path id="パス_8353" data-name="パス 8353" d="M172.467,12.436a2.175,2.175,0,1,0,2.175-2.175,2.18,2.18,0,0,0-2.175,2.175" transform="translate(-4847.342 780.989)" fill="#ccebe7"/>
      <path id="パス_8242" data-name="パス 8242" d="M172.467,12.436a2.175,2.175,0,1,0,2.175-2.175,2.18,2.18,0,0,0-2.175,2.175" transform="translate(-4816.892 759.239)" fill="#00c8ac"/>
      <path id="パス_8309" data-name="パス 8309" d="M172.467,12.436a2.175,2.175,0,1,0,2.175-2.175,2.18,2.18,0,0,0-2.175,2.175" transform="translate(-4847.342 759.239)" fill="#6de0d0"/>
      <path id="パス_8337" data-name="パス 8337" d="M172.467,12.436a2.175,2.175,0,1,0,2.175-2.175,2.18,2.18,0,0,0-2.175,2.175" transform="translate(-4847.342 789.689)" fill="#ccebe7"/>
      <path id="パス_8266" data-name="パス 8266" d="M172.467,12.436a2.175,2.175,0,1,0,2.175-2.175,2.18,2.18,0,0,0-2.175,2.175" transform="translate(-4816.892 767.939)" fill="#00c8ac"/>
      <path id="パス_8274" data-name="パス 8274" d="M172.467,12.436a2.175,2.175,0,1,0,2.175-2.175,2.18,2.18,0,0,0-2.175,2.175" transform="translate(-4816.892 780.989)" fill="#00c8ac"/>
      <path id="パス_8257" data-name="パス 8257" d="M172.467,12.436a2.175,2.175,0,1,0,2.175-2.175,2.18,2.18,0,0,0-2.175,2.175" transform="translate(-4816.892 763.589)" fill="#00c8ac"/>
      <path id="パス_8316" data-name="パス 8316" d="M172.467,12.436a2.175,2.175,0,1,0,2.175-2.175,2.18,2.18,0,0,0-2.175,2.175" transform="translate(-4847.342 763.589)" fill="#6de0d0"/>
      <path id="パス_8332" data-name="パス 8332" d="M172.467,12.436a2.175,2.175,0,1,0,2.175-2.175,2.18,2.18,0,0,0-2.175,2.175" transform="translate(-4847.342 794.039)" fill="#ccebe7"/>
      <path id="パス_8281" data-name="パス 8281" d="M172.467,12.436a2.175,2.175,0,1,0,2.175-2.175,2.18,2.18,0,0,0-2.175,2.175" transform="translate(-4816.892 776.639)" fill="#00c8ac"/>
      <path id="パス_8261" data-name="パス 8261" d="M172.467,12.436a2.175,2.175,0,1,0,2.175-2.175,2.18,2.18,0,0,0-2.175,2.175" transform="translate(-4816.892 772.289)" fill="#00c8ac"/>
      <path id="パス_8269" data-name="パス 8269" d="M172.467,12.436a2.175,2.175,0,1,0,2.175-2.175,2.18,2.18,0,0,0-2.175,2.175" transform="translate(-4816.892 785.339)" fill="#00c8ac"/>
      <path id="パス_8226" data-name="パス 8226" d="M172.467,12.436a2.175,2.175,0,1,0,2.175-2.175,2.18,2.18,0,0,0-2.175,2.175" transform="translate(-4838.642 746.189)" fill="#00c8ac"/>
      <path id="パス_8283" data-name="パス 8283" d="M172.467,12.436a2.175,2.175,0,1,0,2.175-2.175,2.18,2.18,0,0,0-2.175,2.175" transform="translate(-4869.092 746.189)" fill="#6de0d0"/>
      <path id="パス_8361" data-name="パス 8361" d="M172.467,12.436a2.175,2.175,0,1,0,2.175-2.175,2.18,2.18,0,0,0-2.175,2.175" transform="translate(-4869.092 776.639)" fill="#ccebe7"/>
      <path id="パス_8251" data-name="パス 8251" d="M172.467,12.436a2.175,2.175,0,1,0,2.175-2.175,2.18,2.18,0,0,0-2.175,2.175" transform="translate(-4838.642 754.889)" fill="#00c8ac"/>
      <path id="パス_8326" data-name="パス 8326" d="M172.467,12.436a2.175,2.175,0,1,0,2.175-2.175,2.18,2.18,0,0,0-2.175,2.175" transform="translate(-4838.642 785.339)" fill="#ccebe7"/>
      <path id="パス_8303" data-name="パス 8303" d="M172.467,12.436a2.175,2.175,0,1,0,2.175-2.175,2.18,2.18,0,0,0-2.175,2.175" transform="translate(-4869.092 754.889)" fill="#6de0d0"/>
      <path id="パス_8344" data-name="パス 8344" d="M172.467,12.436a2.175,2.175,0,1,0,2.175-2.175,2.18,2.18,0,0,0-2.175,2.175" transform="translate(-4869.092 785.339)" fill="#ccebe7"/>
      <path id="パス_8320" data-name="パス 8320" d="M172.467,12.436a2.175,2.175,0,1,0,2.175-2.175,2.18,2.18,0,0,0-2.175,2.175" transform="translate(-4873.442 754.889)" fill="#6de0d0"/>
      <path id="パス_8237" data-name="パス 8237" d="M172.467,12.436a2.175,2.175,0,1,0,2.175-2.175,2.18,2.18,0,0,0-2.175,2.175" transform="translate(-4838.642 750.539)" fill="#00c8ac"/>
      <path id="パス_8296" data-name="パス 8296" d="M172.467,12.436a2.175,2.175,0,1,0,2.175-2.175,2.18,2.18,0,0,0-2.175,2.175" transform="translate(-4869.092 750.539)" fill="#6de0d0"/>
      <path id="パス_8354" data-name="パス 8354" d="M172.467,12.436a2.175,2.175,0,1,0,2.175-2.175,2.18,2.18,0,0,0-2.175,2.175" transform="translate(-4869.092 780.989)" fill="#ccebe7"/>
      <path id="パス_8321" data-name="パス 8321" d="M172.467,12.436a2.175,2.175,0,1,0,2.175-2.175,2.18,2.18,0,0,0-2.175,2.175" transform="translate(-4873.442 750.539)" fill="#6de0d0"/>
      <path id="パス_8243" data-name="パス 8243" d="M172.467,12.436a2.175,2.175,0,1,0,2.175-2.175,2.18,2.18,0,0,0-2.175,2.175" transform="translate(-4838.642 759.239)" fill="#00c8ac"/>
      <path id="パス_8325" data-name="パス 8325" d="M172.467,12.436a2.175,2.175,0,1,0,2.175-2.175,2.18,2.18,0,0,0-2.175,2.175" transform="translate(-4838.642 789.689)" fill="#ccebe7"/>
      <path id="パス_8310" data-name="パス 8310" d="M172.467,12.436a2.175,2.175,0,1,0,2.175-2.175,2.18,2.18,0,0,0-2.175,2.175" transform="translate(-4869.092 759.239)" fill="#6de0d0"/>
      <path id="パス_8338" data-name="パス 8338" d="M172.467,12.436a2.175,2.175,0,1,0,2.175-2.175,2.18,2.18,0,0,0-2.175,2.175" transform="translate(-4869.092 789.689)" fill="#ccebe7"/>
      <path id="パス_8319" data-name="パス 8319" d="M172.467,12.436a2.175,2.175,0,1,0,2.175-2.175,2.18,2.18,0,0,0-2.175,2.175" transform="translate(-4873.442 759.239)" fill="#6de0d0"/>
      <path id="パス_8256" data-name="パス 8256" d="M172.467,12.436a2.175,2.175,0,1,0,2.175-2.175,2.18,2.18,0,0,0-2.175,2.175" transform="translate(-4838.642 763.589)" fill="#00c8ac"/>
      <path id="パス_8324" data-name="パス 8324" d="M172.467,12.436a2.175,2.175,0,1,0,2.175-2.175,2.18,2.18,0,0,0-2.175,2.175" transform="translate(-4838.642 794.039)" fill="#ccebe7"/>
      <path id="パス_8322" data-name="パス 8322" d="M172.467,12.436a2.175,2.175,0,1,0,2.175-2.175,2.18,2.18,0,0,0-2.175,2.175" transform="translate(-4838.642 776.639)" fill="#ccebe7"/>
      <path id="パス_8323" data-name="パス 8323" d="M172.467,12.436a2.175,2.175,0,1,0,2.175-2.175,2.18,2.18,0,0,0-2.175,2.175" transform="translate(-4838.642 780.989)" fill="#ccebe7"/>
      <path id="パス_8317" data-name="パス 8317" d="M172.467,12.436a2.175,2.175,0,1,0,2.175-2.175,2.18,2.18,0,0,0-2.175,2.175" transform="translate(-4869.092 763.589)" fill="#6de0d0"/>
      <path id="パス_8364" data-name="パス 8364" d="M172.467,12.436a2.175,2.175,0,1,0,2.175-2.175,2.18,2.18,0,0,0-2.175,2.175" transform="translate(-4903.892 763.589)" fill="#00c8ac"/>
      <path id="パス_8373" data-name="パス 8373" d="M172.467,12.436a2.175,2.175,0,1,0,2.175-2.175,2.18,2.18,0,0,0-2.175,2.175" transform="translate(-4903.892 767.939)" fill="#00c8ac"/>
      <path id="パス_8380" data-name="パス 8380" d="M172.467,12.436a2.175,2.175,0,1,0,2.175-2.175,2.18,2.18,0,0,0-2.175,2.175" transform="translate(-4903.892 772.289)" fill="#00c8ac"/>
      <path id="パス_8331" data-name="パス 8331" d="M172.467,12.436a2.175,2.175,0,1,0,2.175-2.175,2.18,2.18,0,0,0-2.175,2.175" transform="translate(-4869.092 794.039)" fill="#ccebe7"/>
      <path id="パス_8318" data-name="パス 8318" d="M172.467,12.436a2.175,2.175,0,1,0,2.175-2.175,2.18,2.18,0,0,0-2.175,2.175" transform="translate(-4873.442 763.589)" fill="#6de0d0"/>
      <path id="パス_8365" data-name="パス 8365" d="M172.467,12.436a2.175,2.175,0,1,0,2.175-2.175,2.18,2.18,0,0,0-2.175,2.175" transform="translate(-4908.242 763.589)" fill="#00c8ac"/>
      <path id="パス_8374" data-name="パス 8374" d="M172.467,12.436a2.175,2.175,0,1,0,2.175-2.175,2.18,2.18,0,0,0-2.175,2.175" transform="translate(-4908.242 767.939)" fill="#00c8ac"/>
      <path id="パス_8381" data-name="パス 8381" d="M172.467,12.436a2.175,2.175,0,1,0,2.175-2.175,2.18,2.18,0,0,0-2.175,2.175" transform="translate(-4908.242 772.289)" fill="#00c8ac"/>
      <path id="パス_8383" data-name="パス 8383" d="M172.467,12.436a2.175,2.175,0,1,0,2.175-2.175,2.18,2.18,0,0,0-2.175,2.175" transform="translate(-4908.242 776.639)" fill="#00c8ac"/>
      <path id="パス_8416" data-name="パス 8416" d="M172.467,12.436a2.175,2.175,0,1,0,2.175-2.175,2.18,2.18,0,0,0-2.175,2.175" transform="translate(-4921.292 794.039)" fill="#00c8ac"/>
      <path id="パス_8417" data-name="パス 8417" d="M172.467,12.436a2.175,2.175,0,1,0,2.175-2.175,2.18,2.18,0,0,0-2.175,2.175" transform="translate(-4921.292 798.389)" fill="#00c8ac"/>
      <path id="パス_8362" data-name="パス 8362" d="M172.467,12.436a2.175,2.175,0,1,0,2.175-2.175,2.18,2.18,0,0,0-2.175,2.175" transform="translate(-4882.142 763.589)" fill="#00c8ac"/>
      <path id="パス_8398" data-name="パス 8398" d="M172.467,12.436a2.175,2.175,0,1,0,2.175-2.175,2.18,2.18,0,0,0-2.175,2.175" transform="translate(-4882.142 776.639)" fill="#00c8ac"/>
      <path id="パス_8411" data-name="パス 8411" d="M172.467,12.436a2.175,2.175,0,1,0,2.175-2.175,2.18,2.18,0,0,0-2.175,2.175" transform="translate(-4882.142 789.689)" fill="#00c8ac"/>
      <path id="パス_8375" data-name="パス 8375" d="M172.467,12.436a2.175,2.175,0,1,0,2.175-2.175,2.18,2.18,0,0,0-2.175,2.175" transform="translate(-4882.142 767.939)" fill="#00c8ac"/>
      <path id="パス_8392" data-name="パス 8392" d="M172.467,12.436a2.175,2.175,0,1,0,2.175-2.175,2.18,2.18,0,0,0-2.175,2.175" transform="translate(-4882.142 780.989)" fill="#00c8ac"/>
      <path id="パス_8412" data-name="パス 8412" d="M172.467,12.436a2.175,2.175,0,1,0,2.175-2.175,2.18,2.18,0,0,0-2.175,2.175" transform="translate(-4882.142 794.039)" fill="#00c8ac"/>
      <path id="パス_8382" data-name="パス 8382" d="M172.467,12.436a2.175,2.175,0,1,0,2.175-2.175,2.18,2.18,0,0,0-2.175,2.175" transform="translate(-4882.142 772.289)" fill="#00c8ac"/>
      <path id="パス_8393" data-name="パス 8393" d="M172.467,12.436a2.175,2.175,0,1,0,2.175-2.175,2.18,2.18,0,0,0-2.175,2.175" transform="translate(-4882.142 785.339)" fill="#00c8ac"/>
      <path id="パス_8413" data-name="パス 8413" d="M172.467,12.436a2.175,2.175,0,1,0,2.175-2.175,2.18,2.18,0,0,0-2.175,2.175" transform="translate(-4882.142 798.389)" fill="#00c8ac"/>
      <path id="パス_8000" data-name="パス 8000" d="M172.467,12.436a2.175,2.175,0,1,0,2.175-2.175,2.18,2.18,0,0,0-2.175,2.175" transform="translate(-4751.642 685.289)" fill="#ccebe7"/>
      <path id="パス_8006" data-name="パス 8006" d="M172.467,12.436a2.175,2.175,0,1,0,2.175-2.175,2.18,2.18,0,0,0-2.175,2.175" transform="translate(-4751.642 689.639)" fill="#ccebe7"/>
      <path id="パス_8012" data-name="パス 8012" d="M172.467,12.436a2.175,2.175,0,1,0,2.175-2.175,2.18,2.18,0,0,0-2.175,2.175" transform="translate(-4751.642 693.989)" fill="#ccebe7"/>
      <path id="パス_8019" data-name="パス 8019" d="M172.467,12.436a2.175,2.175,0,1,0,2.175-2.175,2.18,2.18,0,0,0-2.175,2.175" transform="translate(-4751.642 698.339)" fill="#ccebe7"/>
      <path id="パス_8026" data-name="パス 8026" d="M172.467,12.436a2.175,2.175,0,1,0,2.175-2.175,2.18,2.18,0,0,0-2.175,2.175" transform="translate(-4751.642 702.689)" fill="#ccebe7"/>
      <path id="パス_8062" data-name="パス 8062" d="M172.467,12.436a2.175,2.175,0,1,0,2.175-2.175,2.18,2.18,0,0,0-2.175,2.175" transform="translate(-4751.642 720.089)" fill="#ccebe7"/>
      <path id="パス_8032" data-name="パス 8032" d="M172.467,12.436a2.175,2.175,0,1,0,2.175-2.175,2.18,2.18,0,0,0-2.175,2.175" transform="translate(-4751.642 707.039)" fill="#ccebe7"/>
      <path id="パス_8058" data-name="パス 8058" d="M172.467,12.436a2.175,2.175,0,1,0,2.175-2.175,2.18,2.18,0,0,0-2.175,2.175" transform="translate(-4751.642 724.439)" fill="#ccebe7"/>
      <path id="パス_8130" data-name="パス 8130" d="M172.467,12.436a2.175,2.175,0,1,0,2.175-2.175,2.18,2.18,0,0,0-2.175,2.175" transform="translate(-4751.642 741.839)" fill="#00c8ac"/>
      <path id="パス_8038" data-name="パス 8038" d="M172.467,12.436a2.175,2.175,0,1,0,2.175-2.175,2.18,2.18,0,0,0-2.175,2.175" transform="translate(-4751.642 711.389)" fill="#ccebe7"/>
      <path id="パス_8054" data-name="パス 8054" d="M172.467,12.436a2.175,2.175,0,1,0,2.175-2.175,2.18,2.18,0,0,0-2.175,2.175" transform="translate(-4751.642 728.789)" fill="#ccebe7"/>
      <path id="パス_8123" data-name="パス 8123" d="M172.467,12.436a2.175,2.175,0,1,0,2.175-2.175,2.18,2.18,0,0,0-2.175,2.175" transform="translate(-4751.642 746.189)" fill="#00c8ac"/>
      <path id="パス_8044" data-name="パス 8044" d="M172.467,12.436a2.175,2.175,0,1,0,2.175-2.175,2.18,2.18,0,0,0-2.175,2.175" transform="translate(-4751.642 715.739)" fill="#ccebe7"/>
      <path id="パス_8051" data-name="パス 8051" d="M172.467,12.436a2.175,2.175,0,1,0,2.175-2.175,2.18,2.18,0,0,0-2.175,2.175" transform="translate(-4751.642 733.139)" fill="#ccebe7"/>
      <path id="パス_8116" data-name="パス 8116" d="M172.467,12.436a2.175,2.175,0,1,0,2.175-2.175,2.18,2.18,0,0,0-2.175,2.175" transform="translate(-4751.642 750.539)" fill="#00c8ac"/>
      <path id="パス_7996" data-name="パス 7996" d="M172.467,12.436a2.175,2.175,0,1,0,2.175-2.175,2.18,2.18,0,0,0-2.175,2.175" transform="translate(-4769.042 680.939)" fill="#ccebe7"/>
      <path id="パス_7998" data-name="パス 7998" d="M172.467,12.436a2.175,2.175,0,1,0,2.175-2.175,2.18,2.18,0,0,0-2.175,2.175" transform="translate(-4769.042 685.289)" fill="#ccebe7"/>
      <path id="パス_8007" data-name="パス 8007" d="M172.467,12.436a2.175,2.175,0,1,0,2.175-2.175,2.18,2.18,0,0,0-2.175,2.175" transform="translate(-4769.042 689.639)" fill="#ccebe7"/>
      <path id="パス_8013" data-name="パス 8013" d="M172.467,12.436a2.175,2.175,0,1,0,2.175-2.175,2.18,2.18,0,0,0-2.175,2.175" transform="translate(-4769.042 693.989)" fill="#ccebe7"/>
      <path id="パス_8020" data-name="パス 8020" d="M172.467,12.436a2.175,2.175,0,1,0,2.175-2.175,2.18,2.18,0,0,0-2.175,2.175" transform="translate(-4769.042 698.339)" fill="#ccebe7"/>
      <path id="パス_8027" data-name="パス 8027" d="M172.467,12.436a2.175,2.175,0,1,0,2.175-2.175,2.18,2.18,0,0,0-2.175,2.175" transform="translate(-4769.042 702.689)" fill="#ccebe7"/>
      <path id="パス_8033" data-name="パス 8033" d="M172.467,12.436a2.175,2.175,0,1,0,2.175-2.175,2.18,2.18,0,0,0-2.175,2.175" transform="translate(-4769.042 707.039)" fill="#ccebe7"/>
      <path id="パス_8039" data-name="パス 8039" d="M172.467,12.436a2.175,2.175,0,1,0,2.175-2.175,2.18,2.18,0,0,0-2.175,2.175" transform="translate(-4769.042 711.389)" fill="#ccebe7"/>
      <path id="パス_8045" data-name="パス 8045" d="M172.467,12.436a2.175,2.175,0,1,0,2.175-2.175,2.18,2.18,0,0,0-2.175,2.175" transform="translate(-4769.042 715.739)" fill="#ccebe7"/>
      <path id="パス_8001" data-name="パス 8001" d="M172.467,12.436a2.175,2.175,0,1,0,2.175-2.175,2.18,2.18,0,0,0-2.175,2.175" transform="translate(-4755.992 685.289)" fill="#ccebe7"/>
      <path id="パス_8008" data-name="パス 8008" d="M172.467,12.436a2.175,2.175,0,1,0,2.175-2.175,2.18,2.18,0,0,0-2.175,2.175" transform="translate(-4755.992 689.639)" fill="#ccebe7"/>
      <path id="パス_8014" data-name="パス 8014" d="M172.467,12.436a2.175,2.175,0,1,0,2.175-2.175,2.18,2.18,0,0,0-2.175,2.175" transform="translate(-4755.992 693.989)" fill="#ccebe7"/>
      <path id="パス_8021" data-name="パス 8021" d="M172.467,12.436a2.175,2.175,0,1,0,2.175-2.175,2.18,2.18,0,0,0-2.175,2.175" transform="translate(-4755.992 698.339)" fill="#ccebe7"/>
      <path id="パス_8028" data-name="パス 8028" d="M172.467,12.436a2.175,2.175,0,1,0,2.175-2.175,2.18,2.18,0,0,0-2.175,2.175" transform="translate(-4755.992 702.689)" fill="#ccebe7"/>
      <path id="パス_8063" data-name="パス 8063" d="M172.467,12.436a2.175,2.175,0,1,0,2.175-2.175,2.18,2.18,0,0,0-2.175,2.175" transform="translate(-4755.992 720.089)" fill="#ccebe7"/>
      <path id="パス_8034" data-name="パス 8034" d="M172.467,12.436a2.175,2.175,0,1,0,2.175-2.175,2.18,2.18,0,0,0-2.175,2.175" transform="translate(-4755.992 707.039)" fill="#ccebe7"/>
      <path id="パス_8059" data-name="パス 8059" d="M172.467,12.436a2.175,2.175,0,1,0,2.175-2.175,2.18,2.18,0,0,0-2.175,2.175" transform="translate(-4755.992 724.439)" fill="#ccebe7"/>
      <path id="パス_8131" data-name="パス 8131" d="M172.467,12.436a2.175,2.175,0,1,0,2.175-2.175,2.18,2.18,0,0,0-2.175,2.175" transform="translate(-4755.992 741.839)" fill="#00c8ac"/>
      <path id="パス_8040" data-name="パス 8040" d="M172.467,12.436a2.175,2.175,0,1,0,2.175-2.175,2.18,2.18,0,0,0-2.175,2.175" transform="translate(-4755.992 711.389)" fill="#ccebe7"/>
      <path id="パス_8055" data-name="パス 8055" d="M172.467,12.436a2.175,2.175,0,1,0,2.175-2.175,2.18,2.18,0,0,0-2.175,2.175" transform="translate(-4755.992 728.789)" fill="#ccebe7"/>
      <path id="パス_8124" data-name="パス 8124" d="M172.467,12.436a2.175,2.175,0,1,0,2.175-2.175,2.18,2.18,0,0,0-2.175,2.175" transform="translate(-4755.992 746.189)" fill="#00c8ac"/>
      <path id="パス_8046" data-name="パス 8046" d="M172.467,12.436a2.175,2.175,0,1,0,2.175-2.175,2.18,2.18,0,0,0-2.175,2.175" transform="translate(-4755.992 715.739)" fill="#ccebe7"/>
      <path id="パス_8050" data-name="パス 8050" d="M172.467,12.436a2.175,2.175,0,1,0,2.175-2.175,2.18,2.18,0,0,0-2.175,2.175" transform="translate(-4755.992 733.139)" fill="#ccebe7"/>
      <path id="パス_8117" data-name="パス 8117" d="M172.467,12.436a2.175,2.175,0,1,0,2.175-2.175,2.18,2.18,0,0,0-2.175,2.175" transform="translate(-4755.992 750.539)" fill="#00c8ac"/>
      <path id="パス_7913" data-name="パス 7913" d="M172.467,12.436a2.175,2.175,0,1,0,2.175-2.175,2.18,2.18,0,0,0-2.175,2.175" transform="translate(-4742.942 633.089)" fill="#00c8ac"/>
      <path id="パス_7920" data-name="パス 7920" d="M172.467,12.436a2.175,2.175,0,1,0,2.175-2.175,2.18,2.18,0,0,0-2.175,2.175" transform="translate(-4742.942 637.439)" fill="#00c8ac"/>
      <path id="パス_7926" data-name="パス 7926" d="M172.467,12.436a2.175,2.175,0,1,0,2.175-2.175,2.18,2.18,0,0,0-2.175,2.175" transform="translate(-4742.942 641.789)" fill="#00c8ac"/>
      <path id="パス_7934" data-name="パス 7934" d="M172.467,12.436a2.175,2.175,0,1,0,2.175-2.175,2.18,2.18,0,0,0-2.175,2.175" transform="translate(-4742.942 646.139)" fill="#00c8ac"/>
      <path id="パス_7946" data-name="パス 7946" d="M172.467,12.436a2.175,2.175,0,1,0,2.175-2.175,2.18,2.18,0,0,0-2.175,2.175" transform="translate(-4742.942 650.489)" fill="#00c8ac"/>
      <path id="パス_7957" data-name="パス 7957" d="M172.467,12.436a2.175,2.175,0,1,0,2.175-2.175,2.18,2.18,0,0,0-2.175,2.175" transform="translate(-4742.942 654.839)" fill="#00c8ac"/>
      <path id="パス_7970" data-name="パス 7970" d="M172.467,12.436a2.175,2.175,0,1,0,2.175-2.175,2.18,2.18,0,0,0-2.175,2.175" transform="translate(-4742.942 659.189)" fill="#00c8ac"/>
      <path id="パス_7981" data-name="パス 7981" d="M172.467,12.436a2.175,2.175,0,1,0,2.175-2.175,2.18,2.18,0,0,0-2.175,2.175" transform="translate(-4742.942 663.539)" fill="#00c8ac"/>
      <path id="パス_7915" data-name="パス 7915" d="M172.467,12.436a2.175,2.175,0,1,0,2.175-2.175,2.18,2.18,0,0,0-2.175,2.175" transform="translate(-4734.242 637.439)" fill="#00c8ac"/>
      <path id="パス_7927" data-name="パス 7927" d="M172.467,12.436a2.175,2.175,0,1,0,2.175-2.175,2.18,2.18,0,0,0-2.175,2.175" transform="translate(-4734.242 641.789)" fill="#00c8ac"/>
      <path id="パス_7935" data-name="パス 7935" d="M172.467,12.436a2.175,2.175,0,1,0,2.175-2.175,2.18,2.18,0,0,0-2.175,2.175" transform="translate(-4734.242 646.139)" fill="#00c8ac"/>
      <path id="パス_7947" data-name="パス 7947" d="M172.467,12.436a2.175,2.175,0,1,0,2.175-2.175,2.18,2.18,0,0,0-2.175,2.175" transform="translate(-4734.242 650.489)" fill="#00c8ac"/>
      <path id="パス_7958" data-name="パス 7958" d="M172.467,12.436a2.175,2.175,0,1,0,2.175-2.175,2.18,2.18,0,0,0-2.175,2.175" transform="translate(-4734.242 654.839)" fill="#00c8ac"/>
      <path id="パス_7971" data-name="パス 7971" d="M172.467,12.436a2.175,2.175,0,1,0,2.175-2.175,2.18,2.18,0,0,0-2.175,2.175" transform="translate(-4734.242 659.189)" fill="#00c8ac"/>
      <path id="パス_7982" data-name="パス 7982" d="M172.467,12.436a2.175,2.175,0,1,0,2.175-2.175,2.18,2.18,0,0,0-2.175,2.175" transform="translate(-4734.242 663.539)" fill="#00c8ac"/>
      <path id="パス_7938" data-name="パス 7938" d="M172.467,12.436a2.175,2.175,0,1,0,2.175-2.175,2.18,2.18,0,0,0-2.175,2.175" transform="translate(-4721.192 646.139)" fill="#00c8ac"/>
      <path id="パス_7948" data-name="パス 7948" d="M172.467,12.436a2.175,2.175,0,1,0,2.175-2.175,2.18,2.18,0,0,0-2.175,2.175" transform="translate(-4721.192 650.489)" fill="#00c8ac"/>
      <path id="パス_7959" data-name="パス 7959" d="M172.467,12.436a2.175,2.175,0,1,0,2.175-2.175,2.18,2.18,0,0,0-2.175,2.175" transform="translate(-4721.192 654.839)" fill="#00c8ac"/>
      <path id="パス_7928" data-name="パス 7928" d="M172.467,12.436a2.175,2.175,0,1,0,2.175-2.175,2.18,2.18,0,0,0-2.175,2.175" transform="translate(-4729.892 641.789)" fill="#00c8ac"/>
      <path id="パス_7936" data-name="パス 7936" d="M172.467,12.436a2.175,2.175,0,1,0,2.175-2.175,2.18,2.18,0,0,0-2.175,2.175" transform="translate(-4729.892 646.139)" fill="#00c8ac"/>
      <path id="パス_7949" data-name="パス 7949" d="M172.467,12.436a2.175,2.175,0,1,0,2.175-2.175,2.18,2.18,0,0,0-2.175,2.175" transform="translate(-4729.892 650.489)" fill="#00c8ac"/>
      <path id="パス_7960" data-name="パス 7960" d="M172.467,12.436a2.175,2.175,0,1,0,2.175-2.175,2.18,2.18,0,0,0-2.175,2.175" transform="translate(-4729.892 654.839)" fill="#00c8ac"/>
      <path id="パス_7972" data-name="パス 7972" d="M172.467,12.436a2.175,2.175,0,1,0,2.175-2.175,2.18,2.18,0,0,0-2.175,2.175" transform="translate(-4729.892 659.189)" fill="#00c8ac"/>
      <path id="パス_7983" data-name="パス 7983" d="M172.467,12.436a2.175,2.175,0,1,0,2.175-2.175,2.18,2.18,0,0,0-2.175,2.175" transform="translate(-4729.892 663.539)" fill="#00c8ac"/>
      <path id="パス_7939" data-name="パス 7939" d="M172.467,12.436a2.175,2.175,0,1,0,2.175-2.175,2.18,2.18,0,0,0-2.175,2.175" transform="translate(-4716.842 646.139)" fill="#00c8ac"/>
      <path id="パス_7950" data-name="パス 7950" d="M172.467,12.436a2.175,2.175,0,1,0,2.175-2.175,2.18,2.18,0,0,0-2.175,2.175" transform="translate(-4716.842 650.489)" fill="#00c8ac"/>
      <path id="パス_7961" data-name="パス 7961" d="M172.467,12.436a2.175,2.175,0,1,0,2.175-2.175,2.18,2.18,0,0,0-2.175,2.175" transform="translate(-4716.842 654.839)" fill="#00c8ac"/>
    </g>
    <path id="パス_8702" data-name="パス 8702" d="M-47.005-8.109a20.6,20.6,0,0,0,4.692-4.641,22.249,22.249,0,0,0,4.9,4.641Zm5.542,5.117h4.947V-4.369h-4.947V-6.715h4.25V-7.973a21.292,21.292,0,0,0,1.87,1.19,9.27,9.27,0,0,1,1.037-1.394,20.117,20.117,0,0,1-7.276-6.137H-43.2A19.354,19.354,0,0,1-50.15-7.99a6.23,6.23,0,0,1,1,1.275,20.06,20.06,0,0,0,1.955-1.258v1.258h4.063v2.346h-4.862v1.377h4.862V-.527h-6.239V.9H-35.02V-.527h-6.443Zm19.244-.578,1.037-.629a11.991,11.991,0,0,0-1.581-1.768l-1,.544A10.833,10.833,0,0,1-22.253-3.57H-24.6V-6.086h3.179V-7.429H-24.6V-9.486h3.553V-10.88h-8.483v1.394h3.451v2.057h-3.009v1.343h3.009V-3.57h-3.689v1.309h9.061V-3.57ZM-30.685-.952V-12.07h10.778V-.952Zm-1.6-12.58V1.343h1.6V.51h10.778v.833h1.683V-13.532Zm20.468.391-1.683.714c.782,1.819,1.649,3.723,2.431,5.151-1.734,1.241-2.89,2.635-2.89,4.437,0,2.72,2.414,3.672,5.695,3.672A32.364,32.364,0,0,0-2.856.408l.017-1.921A26.759,26.759,0,0,1-8.33-.918c-2.533,0-3.808-.782-3.808-2.125,0-1.241.952-2.3,2.448-3.281A43.917,43.917,0,0,1-5.185-8.772c.544-.289,1.02-.527,1.462-.8l-.85-1.564a9.674,9.674,0,0,1-1.377.9c-.867.476-2.261,1.156-3.655,2.006A38.8,38.8,0,0,1-11.815-13.141Zm8.347-.2-1.105.459a20.861,20.861,0,0,1,1.36,2.38l1.1-.493A23.3,23.3,0,0,0-3.468-13.345Zm1.938-.714-1.105.459a16.1,16.1,0,0,1,1.394,2.346l1.105-.493A22.568,22.568,0,0,0-1.53-14.059ZM3.6-12.121v1.768c1.36.1,2.839.187,4.573.187,1.581,0,3.553-.119,4.726-.2v-1.768c-1.258.119-3.094.238-4.743.238A39.032,39.032,0,0,1,3.6-12.121Zm1.02,7L2.873-5.27a10.413,10.413,0,0,0-.34,2.4C2.533-.646,4.5.561,8.16.561a24.348,24.348,0,0,0,5.831-.595L13.974-1.9a21.806,21.806,0,0,1-5.882.68c-2.6,0-3.791-.85-3.791-2.057A6.06,6.06,0,0,1,4.624-5.117Zm13.4-6.273.17,1.853c1.9-.408,5.865-.816,7.582-.986A6.819,6.819,0,0,0,22.882-5c0,3.74,3.485,5.525,6.817,5.7l.612-1.819c-2.805-.119-5.7-1.156-5.7-4.25a5.637,5.637,0,0,1,3.757-5.117,16.382,16.382,0,0,1,3.315-.238v-1.717c-1.173.034-2.873.136-4.692.289-3.128.272-6.154.561-7.395.68C19.261-11.441,18.666-11.407,18.02-11.39ZM29.24-8.84,28.22-8.4a16.076,16.076,0,0,1,1.36,2.38l1.054-.476A23.733,23.733,0,0,0,29.24-8.84Zm1.887-.731-1.02.459a15.954,15.954,0,0,1,1.428,2.346l1.037-.493A24.554,24.554,0,0,0,31.127-9.571Zm10.336-3.91-1.9-.1a7.2,7.2,0,0,1-.017,1.343c-.034.442-.085.986-.17,1.6a16.542,16.542,0,0,1-3.621-.646l-.085,1.564a21.586,21.586,0,0,0,3.536.6c-.119.9-.238,1.853-.357,2.754a14.378,14.378,0,0,1-3.485-.68l-.085,1.632a18.587,18.587,0,0,0,3.4.578c-.068.765-.119,1.411-.119,1.853C38.556-.17,40.443.9,42.908.9c3.519,0,5.8-1.666,5.8-4.216a5.927,5.927,0,0,0-1.7-3.995l-1.887.391a4.662,4.662,0,0,1,1.8,3.4c0,1.6-1.5,2.7-3.978,2.7-1.819,0-2.72-.9-2.72-2.448,0-.357.034-.884.085-1.479h.646c1.1,0,2.142-.068,3.179-.17l.051-1.6a27.149,27.149,0,0,1-3.485.2H40.46c.1-.884.221-1.853.34-2.737h.034a32.7,32.7,0,0,0,3.417-.17l.051-1.6a22.713,22.713,0,0,1-3.3.221c.085-.646.153-1.173.2-1.547C41.276-12.546,41.344-12.954,41.463-13.481ZM-36.159,19.3l-1.309-.85a4.332,4.332,0,0,1-1.088.119H-46.8a15.246,15.246,0,0,1-1.836-.136v1.9c.425-.034,1.1-.068,1.836-.068h8.347a11.739,11.739,0,0,1-2.125,5.219,11.214,11.214,0,0,1-6.647,4.046l1.462,1.6A13.1,13.1,0,0,0-39,26.52a16.853,16.853,0,0,0,2.533-6.239A5.165,5.165,0,0,1-36.159,19.3Zm10.914,10.931,1.122.935a5.284,5.284,0,0,1,.646-.425,17.887,17.887,0,0,0,5.8-4.692l-1.037-1.462a11.959,11.959,0,0,1-4.624,3.91v-9.4a10.239,10.239,0,0,1,.085-1.36h-1.972a12.459,12.459,0,0,1,.1,1.36V29.155A4.9,4.9,0,0,1-25.245,30.226Zm-7.837-.153,1.632,1.088a9.551,9.551,0,0,0,3.026-4.76,37.243,37.243,0,0,0,.527-7.259,12.724,12.724,0,0,1,.085-1.36h-1.972a5.3,5.3,0,0,1,.136,1.377c0,1.955,0,5.27-.493,6.783A7.869,7.869,0,0,1-33.082,30.073Zm28.526-7.157v-.578h1.615c.816,0,1.411.017,1.683.051v-1.8a11.3,11.3,0,0,1-1.7.1h-1.6V18.717a11.085,11.085,0,0,1,.1-1.479H-6.375a11.738,11.738,0,0,1,.085,1.479v1.972h-4.488V18.734a9.162,9.162,0,0,1,.1-1.36H-12.6a9.329,9.329,0,0,1,.1,1.36v1.955h-1.666a10.568,10.568,0,0,1-1.768-.136v1.853c.272-.034.969-.068,1.768-.068h1.666v2.55c0,.714-.068,1.411-.085,1.649h1.887a15.115,15.115,0,0,1-.085-1.649v-2.55H-6.29v.68c0,4.505-1.5,5.967-4.675,7.14l1.445,1.36C-5.542,29.733-4.556,27.3-4.556,22.916Zm17.544-4.964a1.009,1.009,0,0,1,1-1.02,1.02,1.02,0,1,1,0,2.04A1.009,1.009,0,0,1,12.988,17.952Zm-.9,0a1.913,1.913,0,1,0,1.9-1.9A1.9,1.9,0,0,0,12.087,17.952Zm-2.618-.6H7.463A7.243,7.243,0,0,1,7.6,18.683v1.581H3.043a14.114,14.114,0,0,1-1.513-.1v1.785c.459-.034,1-.051,1.53-.051H7.6v7.293c-.017.459-.2.629-.646.629a11.605,11.605,0,0,1-1.938-.187l.153,1.683a25.467,25.467,0,0,0,2.567.119c1.122,0,1.6-.527,1.6-1.445V21.9h4.284c.425,0,1,0,1.5.034V20.162a11.311,11.311,0,0,1-1.513.1H9.333V18.7A9.132,9.132,0,0,1,9.469,17.357ZM5.61,24.429,4.1,23.7a17.647,17.647,0,0,1-3.213,4.42l1.462,1A25.4,25.4,0,0,0,5.61,24.429Zm7.191-.748-1.462.8a29.437,29.437,0,0,1,2.822,4.539l1.564-.884A36.53,36.53,0,0,0,12.8,23.681Zm5.848-.663v2.108c.578-.051,1.6-.085,2.533-.085H30.43c.748,0,1.53.068,1.9.085V23.018c-.425.034-1.088.1-1.9.1H21.182C20.264,23.12,19.21,23.052,18.649,23.018Zm20.91,6.018a17.8,17.8,0,0,1-.136,2.176h2.091a19.919,19.919,0,0,1-.136-2.176V23.783A44.513,44.513,0,0,1,47.8,26.435l.765-1.853a57.625,57.625,0,0,0-7.191-2.72V19.21c0-.595.068-1.343.119-1.9H39.406a12.306,12.306,0,0,1,.153,1.9Z" transform="translate(513 602)" fill="#00c8ac"/>
  </g>
</svg>
