<svg xmlns="http://www.w3.org/2000/svg" width="107" height="107" viewBox="0 0 107 107">
  <g id="グループ_3989" data-name="グループ 3989" transform="translate(-293 -1471)">
    <g id="パス_6915" data-name="パス 6915" transform="translate(293 1471)" fill="#989898">
      <path d="M 53.5 105 C 46.54666137695312 105 39.80238342285156 103.6386337280273 33.45449066162109 100.9536895751953 C 27.32215309143066 98.35993957519531 21.81432342529297 94.64630889892578 17.08399963378906 89.91600036621094 C 12.35369205474854 85.18567657470703 8.640061378479004 79.67784881591797 6.046307563781738 73.54550933837891 C 3.361369132995605 67.19761657714844 2 60.45333862304688 2 53.5 C 2 46.54666137695312 3.361369132995605 39.80238342285156 6.046307563781738 33.45449066162109 C 8.640061378479004 27.32215309143066 12.35369205474854 21.81432342529297 17.08399963378906 17.08399963378906 C 21.81432342529297 12.35369205474854 27.32215309143066 8.640061378479004 33.45449066162109 6.046307563781738 C 39.80238342285156 3.361369132995605 46.54666137695312 2 53.5 2 C 60.45333862304688 2 67.19761657714844 3.361369132995605 73.54550933837891 6.046307563781738 C 79.67784881591797 8.640061378479004 85.18567657470703 12.35369205474854 89.91600036621094 17.08399963378906 C 94.64630889892578 21.81432342529297 98.35993957519531 27.32215309143066 100.9536895751953 33.45449066162109 C 103.6386337280273 39.80238342285156 105 46.54666137695312 105 53.5 C 105 60.45333862304688 103.6386337280273 67.19761657714844 100.9536895751953 73.54550933837891 C 98.35993957519531 79.67784881591797 94.64630889892578 85.18567657470703 89.91600036621094 89.91600036621094 C 85.18567657470703 94.64630889892578 79.67784881591797 98.35993957519531 73.54550933837891 100.9536895751953 C 67.19761657714844 103.6386337280273 60.45333862304688 105 53.5 105 Z" stroke="none"/>
      <path d="M 53.5 4 C 46.81578063964844 4 40.3336181640625 5.308219909667969 34.23359680175781 7.8883056640625 C 28.33963775634766 10.38123321533203 23.04549407958984 13.950927734375 18.49821472167969 18.49821472167969 C 13.950927734375 23.04549407958984 10.38123321533203 28.33963775634766 7.8883056640625 34.23359680175781 C 5.308219909667969 40.3336181640625 4 46.81578063964844 4 53.5 C 4 60.18421936035156 5.308219909667969 66.6663818359375 7.8883056640625 72.76640319824219 C 10.38123321533203 78.66036224365234 13.950927734375 83.95451354980469 18.49821472167969 88.50178527832031 C 23.04549407958984 93.049072265625 28.33963775634766 96.61876678466797 34.23359680175781 99.1116943359375 C 40.3336181640625 101.691780090332 46.81578063964844 103 53.5 103 C 60.18421936035156 103 66.6663818359375 101.691780090332 72.76640319824219 99.1116943359375 C 78.66036224365234 96.61876678466797 83.95451354980469 93.049072265625 88.50178527832031 88.50178527832031 C 93.049072265625 83.95451354980469 96.61876678466797 78.66036224365234 99.1116943359375 72.76640319824219 C 101.691780090332 66.6663818359375 103 60.18421936035156 103 53.5 C 103 46.81578063964844 101.691780090332 40.3336181640625 99.1116943359375 34.23359680175781 C 96.61876678466797 28.33963775634766 93.049072265625 23.04549407958984 88.50178527832031 18.49821472167969 C 83.95451354980469 13.950927734375 78.66036224365234 10.38123321533203 72.76640319824219 7.8883056640625 C 66.6663818359375 5.308219909667969 60.18421936035156 4 53.5 4 M 53.5 0 C 83.04723358154297 0 107 23.95276641845703 107 53.5 C 107 83.04723358154297 83.04723358154297 107 53.5 107 C 23.95276641845703 107 0 83.04723358154297 0 53.5 C 0 23.95276641845703 23.95276641845703 0 53.5 0 Z" stroke="none" fill="#fff"/>
    </g>
    <path id="パス_6916" data-name="パス 6916" d="M7.32-16.32H1.62v1.8h5.7Zm.58,2.68H.66v1.88H7.9Zm-.52,2.78H1.56v1.82H7.38ZM1.56-6.34H7.38V-8.12H1.56ZM5.42-1.18H3.46v-2.3H5.42ZM10.84-11.2h1.68v1.28H10.84Zm0-3.12h1.68v1.3H10.84Zm5.5,1.3H14.58v-1.3h1.76Zm0,3.1H14.58V-11.2h1.76Zm2.64,5.14v-2.1H14.72V-8.04h3.82v-8.14H8.72v8.14H12.4v1.16H8.14v2.1h3.28A11.581,11.581,0,0,1,7.4-.92V-5.36H1.5V1.46H3.46V.68H7.4V-.76A10.175,10.175,0,0,1,8.9.98a12.633,12.633,0,0,0,3.5-3.62V1.72h2.32V-2.84A15.6,15.6,0,0,0,18,.9,8.6,8.6,0,0,1,19.6-.9a13.645,13.645,0,0,1-3.92-3.88Zm17.18-6.06H32.52v-.92h3.64Zm0,2.46H32.52V-9.3h3.64Zm0,2.48H32.52v-.96h3.64Zm-5.74-7.46v9.08h7.96v-9.08h-3.4l.48-1.08h3.5V-16.1H29.8v1.66h3.52c-.12.36-.22.74-.34,1.08ZM34.84-3.4A16.052,16.052,0,0,1,37.7-.74l1.7-1a14.911,14.911,0,0,0-2.92-2.52Zm-2.8-.74a9.131,9.131,0,0,1-3.08,2.16A14.325,14.325,0,0,1,30.48-.6a11.719,11.719,0,0,0,3.5-2.92Zm-5.24-9.5H23.94v-.94H26.8Zm0,2.48H23.94v-.98H26.8Zm2.2-5H21.82v6.6H29ZM26.62-3.34H29.5V-5.06H26.62V-6.7h3.26V-8.42H20.92V-6.7h3.7v4.56A5.385,5.385,0,0,1,23.6-3.72c.06-.72.1-1.44.12-2.18h-1.9c-.06,2.4-.26,4.76-1.38,6.14a6.669,6.669,0,0,1,1.38,1.62,7.4,7.4,0,0,0,1.4-3.08c1.6,2.18,4.08,2.56,7.84,2.56h7.7a6.45,6.45,0,0,1,.76-1.96c-1.64.08-7.1.08-8.46.08a15.919,15.919,0,0,1-4.44-.44Z" transform="translate(327 1533)" fill="#fff"/>
  </g>
</svg>
