<svg xmlns="http://www.w3.org/2000/svg" width="33" height="102" viewBox="0 0 33 102">
  <g id="グループ_3992" data-name="グループ 3992" transform="translate(-45 -1157)">
    <g id="パス_6922" data-name="パス 6922" transform="translate(45 1157)" fill="#989898">
      <path d="M 16.5 100.5 C 12.49335670471191 100.5 8.726528167724609 98.93972778320312 5.893400192260742 96.10659790039062 C 3.060271501541138 93.27346801757812 1.5 89.50664520263672 1.5 85.5 L 1.5 16.5 C 1.5 12.49335670471191 3.060271501541138 8.726528167724609 5.893400192260742 5.893400192260742 C 8.726528167724609 3.060271501541138 12.49335670471191 1.5 16.5 1.5 C 20.50664329528809 1.5 24.27347183227539 3.060271501541138 27.10659980773926 5.893400192260742 C 29.93972778320312 8.726528167724609 31.5 12.49335670471191 31.5 16.5 L 31.5 85.5 C 31.5 89.50664520263672 29.93972778320312 93.27346801757812 27.10659980773926 96.10659790039062 C 24.27347183227539 98.93972778320312 20.50664329528809 100.5 16.5 100.5 Z" stroke="none"/>
      <path d="M 16.5 3 C 12.89401626586914 3 9.503877639770508 4.404243469238281 6.954061508178711 6.954063415527344 C 4.404245376586914 9.503860473632812 3 12.89401245117188 3 16.5 L 3 85.5 C 3 89.10598754882812 4.404245376586914 92.49612426757812 6.954061508178711 95.04593658447266 C 9.503877639770508 97.59575653076172 12.89401626586914 99 16.5 99 C 20.10598373413086 99 23.49612426757812 97.59575653076172 26.04593849182129 95.04593658447266 C 28.59575271606445 92.49612426757812 30 89.10598754882812 30 85.5 L 30 16.5 C 30 12.89401245117188 28.59575271606445 9.503860473632812 26.04593849182129 6.954063415527344 C 23.49612426757812 4.404243469238281 20.10598373413086 3 16.5 3 M 16.5 0 C 25.61269187927246 0 33 7.387290954589844 33 16.5 L 33 85.5 C 33 94.61269378662109 25.61269187927246 102 16.5 102 C 7.387308120727539 102 0 94.61269378662109 0 85.5 L 0 16.5 C 0 7.387290954589844 7.387308120727539 0 16.5 0 Z" stroke="none" fill="#fff"/>
    </g>
    <path id="パス_6923" data-name="パス 6923" d="M9.99,4.76H5.715V6.11H9.99Zm.435,2.01H4.995V8.18h5.43Zm-.39,2.085H5.67V10.22h4.365ZM5.67,12.245h4.365V10.91H5.67Zm2.9,3.87H7.1V14.39h1.47ZM12.63,8.6h1.26v.96H12.63Zm0-2.34h1.26v.975H12.63Zm4.125.975h-1.32V6.26h1.32Zm0,2.325h-1.32V8.6h1.32Zm1.98,3.855V11.84H15.54v-.87h2.865v-6.1H11.04v6.1H13.8v.87H10.6v1.575h2.46A8.685,8.685,0,0,1,10.05,16.31V12.98H5.625v5.115H7.1V17.51H10.05V16.43a7.631,7.631,0,0,1,1.125,1.305A9.475,9.475,0,0,0,13.8,15.02v3.27h1.74V14.87a11.7,11.7,0,0,0,2.46,2.8,6.451,6.451,0,0,1,1.2-1.35,10.234,10.234,0,0,1-2.94-2.91ZM16.62,28.47H13.89v-.69h2.73Zm0,1.845H13.89v-.69h2.73Zm0,1.86H13.89v-.72h2.73Zm-4.305-5.6v6.81h5.97V26.58h-2.55l.36-.81H18.72V24.525H11.85V25.77h2.64c-.09.27-.165.555-.255.81Zm3.315,7.47a12.039,12.039,0,0,1,2.145,1.995l1.275-.75a11.183,11.183,0,0,0-2.19-1.89Zm-2.1-.555a6.848,6.848,0,0,1-2.31,1.62,10.744,10.744,0,0,1,1.14,1.035,8.789,8.789,0,0,0,2.625-2.19ZM9.6,26.37H7.455v-.705H9.6Zm0,1.86H7.455v-.735H9.6Zm1.65-3.75H5.865v4.95H11.25ZM9.465,34.095h2.16V32.8H9.465v-1.23H11.91v-1.29H5.19v1.29H7.965v3.42A4.039,4.039,0,0,1,7.2,33.81c.045-.54.075-1.08.09-1.635H5.865c-.045,1.8-.2,3.57-1.035,4.6a5,5,0,0,1,1.035,1.215,5.553,5.553,0,0,0,1.05-2.31c1.2,1.635,3.06,1.92,5.88,1.92H18.57a4.838,4.838,0,0,1,.57-1.47c-1.23.06-5.325.06-6.345.06a11.94,11.94,0,0,1-3.33-.33Z" transform="translate(49 1187)" fill="#fff"/>
  </g>
</svg>
