<svg xmlns="http://www.w3.org/2000/svg" width="107" height="107" viewBox="0 0 107 107">
  <g id="グループ_3990" data-name="グループ 3990" transform="translate(-293 -1598)">
    <g id="パス_6917" data-name="パス 6917" transform="translate(293 1598)" fill="#6de0d0">
      <path d="M 53.5 105 C 46.54666137695312 105 39.80238342285156 103.6386337280273 33.45449066162109 100.9536895751953 C 27.32215309143066 98.35993957519531 21.81432342529297 94.64630889892578 17.08399963378906 89.91600036621094 C 12.35369205474854 85.18567657470703 8.640061378479004 79.67784881591797 6.046307563781738 73.54550933837891 C 3.361369132995605 67.19761657714844 2 60.45333862304688 2 53.5 C 2 46.54666137695312 3.361369132995605 39.80238342285156 6.046307563781738 33.45449066162109 C 8.640061378479004 27.32215309143066 12.35369205474854 21.81432342529297 17.08399963378906 17.08399963378906 C 21.81432342529297 12.35369205474854 27.32215309143066 8.640061378479004 33.45449066162109 6.046307563781738 C 39.80238342285156 3.361369132995605 46.54666137695312 2 53.5 2 C 60.45333862304688 2 67.19761657714844 3.361369132995605 73.54550933837891 6.046307563781738 C 79.67784881591797 8.640061378479004 85.18567657470703 12.35369205474854 89.91600036621094 17.08399963378906 C 94.64630889892578 21.81432342529297 98.35993957519531 27.32215309143066 100.9536895751953 33.45449066162109 C 103.6386337280273 39.80238342285156 105 46.54666137695312 105 53.5 C 105 60.45333862304688 103.6386337280273 67.19761657714844 100.9536895751953 73.54550933837891 C 98.35993957519531 79.67784881591797 94.64630889892578 85.18567657470703 89.91600036621094 89.91600036621094 C 85.18567657470703 94.64630889892578 79.67784881591797 98.35993957519531 73.54550933837891 100.9536895751953 C 67.19761657714844 103.6386337280273 60.45333862304688 105 53.5 105 Z" stroke="none"/>
      <path d="M 53.5 4 C 46.81578063964844 4 40.3336181640625 5.308219909667969 34.23359680175781 7.8883056640625 C 28.33963775634766 10.38123321533203 23.04549407958984 13.950927734375 18.49821472167969 18.49821472167969 C 13.950927734375 23.04549407958984 10.38123321533203 28.33963775634766 7.8883056640625 34.23359680175781 C 5.308219909667969 40.3336181640625 4 46.81578063964844 4 53.5 C 4 60.18421936035156 5.308219909667969 66.6663818359375 7.8883056640625 72.76640319824219 C 10.38123321533203 78.66036224365234 13.950927734375 83.95451354980469 18.49821472167969 88.50178527832031 C 23.04549407958984 93.049072265625 28.33963775634766 96.61876678466797 34.23359680175781 99.1116943359375 C 40.3336181640625 101.691780090332 46.81578063964844 103 53.5 103 C 60.18421936035156 103 66.6663818359375 101.691780090332 72.76640319824219 99.1116943359375 C 78.66036224365234 96.61876678466797 83.95451354980469 93.049072265625 88.50178527832031 88.50178527832031 C 93.049072265625 83.95451354980469 96.61876678466797 78.66036224365234 99.1116943359375 72.76640319824219 C 101.691780090332 66.6663818359375 103 60.18421936035156 103 53.5 C 103 46.81578063964844 101.691780090332 40.3336181640625 99.1116943359375 34.23359680175781 C 96.61876678466797 28.33963775634766 93.049072265625 23.04549407958984 88.50178527832031 18.49821472167969 C 83.95451354980469 13.950927734375 78.66036224365234 10.38123321533203 72.76640319824219 7.8883056640625 C 66.6663818359375 5.308219909667969 60.18421936035156 4 53.5 4 M 53.5 0 C 83.04723358154297 0 107 23.95276641845703 107 53.5 C 107 83.04723358154297 83.04723358154297 107 53.5 107 C 23.95276641845703 107 0 83.04723358154297 0 53.5 C 0 23.95276641845703 23.95276641845703 0 53.5 0 Z" stroke="none" fill="#fff"/>
    </g>
    <path id="パス_6918" data-name="パス 6918" d="M-20.3-10.18a5.669,5.669,0,0,1,.96,1.36c.14-.06.28-.14.42-.2a11,11,0,0,1-1.38,3.9Zm-3.08,4.94V-6.9h1.14v1.66Zm-2.7-1.66h1.12v1.66H-26.1c.02-.46.02-.9.02-1.32Zm2.1-6.38c-.18.5-.36,1.02-.56,1.46h-1.72c.24-.46.46-.96.68-1.46Zm.6,3.2h1.14v1.5h-1.14Zm-2.7,0h1.12v1.5h-1.12Zm15.46,6.4h-3.4v-1.8h3v-2h-3v-1.8h-2.26v1.8h-.98c.12-.42.2-.86.28-1.28l-1.78-.36a6.091,6.091,0,0,0,3.14-4.86h2.32a6.267,6.267,0,0,1-.36,2.56.592.592,0,0,1-.54.22c-.28,0-.82-.02-1.44-.08a4.741,4.741,0,0,1,.54,1.92,14.77,14.77,0,0,0,2.02-.06,1.78,1.78,0,0,0,1.22-.66c.42-.52.6-1.9.7-5.08.02-.26.04-.76.04-.76H-20v1.94h2.24A4.189,4.189,0,0,1-20.3-10.6v-1.22h-2.24a22.447,22.447,0,0,0,1.1-2.52l-1.36-.84-.3.1h-1.82c.16-.46.3-.94.42-1.42l-2.1-.44a14,14,0,0,1-2.96,6.14A12.884,12.884,0,0,1-28-9.52v2.96c0,2.24-.1,5.22-1.44,7.28A8.226,8.226,0,0,1-27.8,1.78a12.462,12.462,0,0,0,1.58-5.26h3.98V-.6c0,.26-.1.34-.34.34s-1.02,0-1.82-.04a6.348,6.348,0,0,1,.68,2.02,5.623,5.623,0,0,0,2.66-.4c.6-.34.76-.94.76-1.88V-4.78a11.179,11.179,0,0,1,1.56.84,8.53,8.53,0,0,0,.8-1.54h1.66v1.8h-3.7v2.04h3.7v3.3h2.26v-3.3h3.4Zm7.3-11.2a15.062,15.062,0,0,0-3.62-1.96l-1.3,1.76A13.734,13.734,0,0,1-4.7-12.92Zm-1.1,5.32a13.955,13.955,0,0,0-3.7-1.9L-9.38-9.68a15.533,15.533,0,0,1,3.6,2.1ZM-5.3-6.4A60.253,60.253,0,0,1-8.84-.02l2.08,1.48C-5.64-.5-4.48-2.8-3.48-4.92Zm8.32-5.24H5.5v3.62H2.96c.04-.66.06-1.3.06-1.96Zm6.3,5.86V-8.02H7.82v-5.86H3.02v-3.04H.66v3.04H-2.68v2.24H.66V-10q0,.99-.06,1.98H-3.66v2.24H.24A8.972,8.972,0,0,1-4.72.12,9.066,9.066,0,0,1-2.74,1.8,10,10,0,0,0,2.44-4.62a11.278,11.278,0,0,0,5.44,6.4A8.839,8.839,0,0,1,9.54-.3a9.379,9.379,0,0,1-5.1-5.48Zm12.18-.5h3.74v1.4c0,.22-.08.28-.32.28-.22,0-1.04.02-1.68-.04A10.142,10.142,0,0,1,24-2.86a12.605,12.605,0,0,1-2.5-1.66ZM15.84-11.3l1.8-.7a12.379,12.379,0,0,0-.68-1.4h2.46a7.839,7.839,0,0,1-.74.68q.27.15.6.36h-.34v1.06Zm11.86,3H21.5v-.96h7.2V-11.3H21.5v-.94a11,11,0,0,0,.88-1.16h.96a10.24,10.24,0,0,1,1.02,2.06l2.12-.68a8.977,8.977,0,0,0-.7-1.38h3.26v-1.98H23.48c.18-.38.34-.76.48-1.12l-2.34-.58a10.424,10.424,0,0,1-1.9,3.34v-1.64H15.4c.18-.36.34-.74.48-1.08l-2.24-.62a11.743,11.743,0,0,1-3.08,4.38,15.38,15.38,0,0,1,1.98,1.3,12.243,12.243,0,0,0,1.66-2h.34a12.464,12.464,0,0,1,1.02,2.1H11.32v2.04h7.62v.96H12.6v5.56h2.52V-6.28h3.82v1.4c-1.7,1.94-4.8,3.44-8.12,4.1a9.59,9.59,0,0,1,1.48,2,16.967,16.967,0,0,0,6.64-3.44V1.76H21.5V-2.16a17.159,17.159,0,0,0,6.48,3.24,10.889,10.889,0,0,1,1.5-2.1A19.631,19.631,0,0,1,24.12-2.8a7.377,7.377,0,0,0,2.66-.3c.72-.3.92-.78.92-1.78Z" transform="translate(347 1660)" fill="#fff"/>
  </g>
</svg>
