<svg xmlns="http://www.w3.org/2000/svg" width="33" height="102" viewBox="0 0 33 102">
  <g id="グループ_3993" data-name="グループ 3993" transform="translate(-45 -1289)">
    <g id="パス_6924" data-name="パス 6924" transform="translate(45 1289)" fill="#6de0d0">
      <path d="M 16.5 100.5 C 12.49335670471191 100.5 8.726528167724609 98.93972778320312 5.893400192260742 96.10659790039062 C 3.060271501541138 93.27346801757812 1.5 89.50664520263672 1.5 85.5 L 1.5 16.5 C 1.5 12.49335670471191 3.060271501541138 8.726528167724609 5.893400192260742 5.893400192260742 C 8.726528167724609 3.060271501541138 12.49335670471191 1.5 16.5 1.5 C 20.50664329528809 1.5 24.27347183227539 3.060271501541138 27.10659980773926 5.893400192260742 C 29.93972778320312 8.726528167724609 31.5 12.49335670471191 31.5 16.5 L 31.5 85.5 C 31.5 89.50664520263672 29.93972778320312 93.27346801757812 27.10659980773926 96.10659790039062 C 24.27347183227539 98.93972778320312 20.50664329528809 100.5 16.5 100.5 Z" stroke="none"/>
      <path d="M 16.5 3 C 12.89401626586914 3 9.503877639770508 4.404243469238281 6.954061508178711 6.954063415527344 C 4.404245376586914 9.503860473632812 3 12.89401245117188 3 16.5 L 3 85.5 C 3 89.10598754882812 4.404245376586914 92.49612426757812 6.954061508178711 95.04593658447266 C 9.503877639770508 97.59575653076172 12.89401626586914 99 16.5 99 C 20.10598373413086 99 23.49612426757812 97.59575653076172 26.04593849182129 95.04593658447266 C 28.59575271606445 92.49612426757812 30 89.10598754882812 30 85.5 L 30 16.5 C 30 12.89401245117188 28.59575271606445 9.503860473632812 26.04593849182129 6.954063415527344 C 23.49612426757812 4.404243469238281 20.10598373413086 3 16.5 3 M 16.5 0 C 25.61269187927246 0 33 7.387290954589844 33 16.5 L 33 85.5 C 33 94.61269378662109 25.61269187927246 102 16.5 102 C 7.387308120727539 102 0 94.61269378662109 0 85.5 L 0 16.5 C 0 7.387290954589844 7.387308120727539 0 16.5 0 Z" stroke="none" fill="#fff"/>
    </g>
    <path id="パス_6925" data-name="パス 6925" d="M11.775,9.365a4.252,4.252,0,0,1,.72,1.02c.1-.045.21-.105.315-.15a8.246,8.246,0,0,1-1.035,2.925Zm-2.31,3.7V11.825h.855V13.07ZM7.44,11.825h.84V13.07H7.425c.015-.345.015-.675.015-.99ZM9.015,7.04c-.135.375-.27.765-.42,1.1H7.305c.18-.345.345-.72.51-1.1Zm.45,2.4h.855v1.125H9.465Zm-2.025,0h.84v1.125H7.44Zm11.595,4.8h-2.55V12.89h2.25v-1.5h-2.25V10.04H14.79v1.35h-.735c.09-.315.15-.645.21-.96l-1.335-.27a4.568,4.568,0,0,0,2.355-3.645h1.74a4.7,4.7,0,0,1-.27,1.92.444.444,0,0,1-.405.165c-.21,0-.615-.015-1.08-.06a3.556,3.556,0,0,1,.405,1.44,11.078,11.078,0,0,0,1.515-.045,1.335,1.335,0,0,0,.915-.495c.315-.39.45-1.425.525-3.81.015-.2.03-.57.03-.57H12V6.515h1.68A3.141,3.141,0,0,1,11.775,9.05V8.135H10.1a16.835,16.835,0,0,0,.825-1.89L9.9,5.615l-.225.075H8.31c.12-.345.225-.705.315-1.065L7.05,4.295A10.5,10.5,0,0,1,4.83,8.9,9.663,9.663,0,0,1,6,9.86v2.22c0,1.68-.075,3.915-1.08,5.46a6.169,6.169,0,0,1,1.23.795A9.347,9.347,0,0,0,7.335,14.39H10.32v2.16c0,.2-.075.255-.255.255s-.765,0-1.365-.03a4.761,4.761,0,0,1,.51,1.515,4.217,4.217,0,0,0,1.995-.3c.45-.255.57-.7.57-1.41V13.415a8.384,8.384,0,0,1,1.17.63,6.4,6.4,0,0,0,.6-1.155H14.79v1.35H12.015v1.53H14.79v2.475h1.695V15.77h2.55ZM9.51,25.44A11.3,11.3,0,0,0,6.8,23.97L5.82,25.29a10.3,10.3,0,0,1,2.655,1.62Zm-.825,3.99A10.466,10.466,0,0,0,5.91,28L4.965,29.34a11.65,11.65,0,0,1,2.7,1.575Zm-.66,2.37A45.189,45.189,0,0,1,5.37,36.585l1.56,1.11c.84-1.47,1.71-3.195,2.46-4.785Zm6.24-3.93h1.86v2.715h-1.9c.03-.5.045-.975.045-1.47Zm4.725,4.4v-1.68H17.865v-4.4h-3.6V23.91H12.5v2.28H9.99v1.68H12.5V29.1q0,.743-.045,1.485h-3.2v1.68H12.18A6.729,6.729,0,0,1,8.46,36.69a6.8,6.8,0,0,1,1.485,1.26,7.5,7.5,0,0,0,3.885-4.815,8.459,8.459,0,0,0,4.08,4.8,6.629,6.629,0,0,1,1.245-1.56,7.034,7.034,0,0,1-3.825-4.11ZM13.125,51.49h2.8v1.05c0,.165-.06.21-.24.21s-.78.015-1.26-.03A7.606,7.606,0,0,1,15,54.055a9.454,9.454,0,0,1-1.875-1.245ZM8.88,47.725l1.35-.525a9.284,9.284,0,0,0-.51-1.05h1.845a5.88,5.88,0,0,1-.555.51q.2.113.45.27H11.2v.8Zm8.9,2.25h-4.65v-.72h5.4v-1.53h-5.4V47.02a8.248,8.248,0,0,0,.66-.87h.72a7.68,7.68,0,0,1,.765,1.545l1.59-.51a6.732,6.732,0,0,0-.525-1.035H18.78V44.665H14.61c.135-.285.255-.57.36-.84l-1.755-.435a7.818,7.818,0,0,1-1.425,2.505v-1.23H8.55c.135-.27.255-.555.36-.81L7.23,43.39a8.807,8.807,0,0,1-2.31,3.285,11.536,11.536,0,0,1,1.485.975,9.182,9.182,0,0,0,1.245-1.5h.255a9.348,9.348,0,0,1,.765,1.575H5.49v1.53H11.2v.72H6.45v4.17H8.34V51.49H11.2v1.05a11.255,11.255,0,0,1-6.09,3.075,7.193,7.193,0,0,1,1.11,1.5,12.725,12.725,0,0,0,4.98-2.58V57.52h1.92V54.58a12.87,12.87,0,0,0,4.86,2.43,8.166,8.166,0,0,1,1.125-1.575A14.723,14.723,0,0,1,15.09,54.1a5.533,5.533,0,0,0,2-.225c.54-.225.69-.585.69-1.335Z" transform="translate(49 1309)" fill="#fff"/>
  </g>
</svg>
