<svg xmlns="http://www.w3.org/2000/svg" width="33" height="102" viewBox="0 0 33 102">
  <g id="グループ_3994" data-name="グループ 3994" transform="translate(-45 -1421)">
    <g id="パス_6926" data-name="パス 6926" transform="translate(45 1421)" fill="#00c8ac">
      <path d="M 16.5 100.5 C 12.49335670471191 100.5 8.726528167724609 98.93972778320312 5.893400192260742 96.10659790039062 C 3.060271501541138 93.27346801757812 1.5 89.50664520263672 1.5 85.5 L 1.5 16.5 C 1.5 12.49335670471191 3.060271501541138 8.726528167724609 5.893400192260742 5.893400192260742 C 8.726528167724609 3.060271501541138 12.49335670471191 1.5 16.5 1.5 C 20.50664329528809 1.5 24.27347183227539 3.060271501541138 27.10659980773926 5.893400192260742 C 29.93972778320312 8.726528167724609 31.5 12.49335670471191 31.5 16.5 L 31.5 85.5 C 31.5 89.50664520263672 29.93972778320312 93.27346801757812 27.10659980773926 96.10659790039062 C 24.27347183227539 98.93972778320312 20.50664329528809 100.5 16.5 100.5 Z" stroke="none"/>
      <path d="M 16.5 3 C 12.89401626586914 3 9.503877639770508 4.404243469238281 6.954061508178711 6.954063415527344 C 4.404245376586914 9.503860473632812 3 12.89401245117188 3 16.5 L 3 85.5 C 3 89.10598754882812 4.404245376586914 92.49612426757812 6.954061508178711 95.04593658447266 C 9.503877639770508 97.59575653076172 12.89401626586914 99 16.5 99 C 20.10598373413086 99 23.49612426757812 97.59575653076172 26.04593849182129 95.04593658447266 C 28.59575271606445 92.49612426757812 30 89.10598754882812 30 85.5 L 30 16.5 C 30 12.89401245117188 28.59575271606445 9.503860473632812 26.04593849182129 6.954063415527344 C 23.49612426757812 4.404243469238281 20.10598373413086 3 16.5 3 M 16.5 0 C 25.61269187927246 0 33 7.387290954589844 33 16.5 L 33 85.5 C 33 94.61269378662109 25.61269187927246 102 16.5 102 C 7.387308120727539 102 0 94.61269378662109 0 85.5 L 0 16.5 C 0 7.387290954589844 7.387308120727539 0 16.5 0 Z" stroke="none" fill="#fff"/>
    </g>
    <path id="パス_6927" data-name="パス 6927" d="M6.7,8.09a6.941,6.941,0,0,1-1.92,2.775,12.438,12.438,0,0,1,1.35,1.065,9.856,9.856,0,0,0,2.22-3.42Zm5.16,7.05a13.4,13.4,0,0,0-1.6-1.68,13.627,13.627,0,0,0,.885-2.19l.06.165,1.485-.8a10.844,10.844,0,0,0-1.77-2.745l-1.38.69a12.158,12.158,0,0,1,1.44,2.3l-1.485-.315a12.294,12.294,0,0,1-.6,1.725c-.51-.4-1.02-.8-1.5-1.14L6.39,12.4c.54.42,1.125.9,1.7,1.41a8.762,8.762,0,0,1-3.24,3.045,9.6,9.6,0,0,1,1.2,1.425,11.278,11.278,0,0,0,3.33-3.255,11.773,11.773,0,0,1,1.365,1.575ZM15.57,7.58c.015-.99.03-2.025.03-3.09H13.89c0,1.08,0,2.115-.015,3.09h-1.35V6.17H9.78V4.37H8.04v1.8H5.22V7.76h7.2V9.275h1.41c-.15,3.36-.69,6.015-2.685,7.785a5.42,5.42,0,0,1,1.26,1.29c2.265-2.07,2.91-5.22,3.1-9.075h1.44c-.09,4.83-.225,6.66-.54,7.065a.553.553,0,0,1-.525.255c-.285,0-.9-.015-1.575-.06a4.116,4.116,0,0,1,.51,1.665,10.578,10.578,0,0,0,1.9-.06,1.516,1.516,0,0,0,1.17-.735c.5-.675.615-2.865.735-9.03.015-.225.015-.795.015-.795ZM8.67,29.37v-.96h2.415v.96Zm0-3.3h2.415v.96H8.67Zm6.69.96H12.975v-.96H15.36Zm0,2.34H12.975v-.96H15.36ZM18.7,33.375V31.74h-5.73v-.885h4.35v-6.27H6.8v6.27h4.29v.885H5.34v1.635H9.78a13.447,13.447,0,0,1-4.905,2.64A9.249,9.249,0,0,1,6.09,37.5a14.4,14.4,0,0,0,4.995-3.21V37.9h1.89v-3.69a15.05,15.05,0,0,0,4.965,3.2,7.21,7.21,0,0,1,1.2-1.515,14.7,14.7,0,0,1-4.86-2.52Z" transform="translate(49 1451)" fill="#fff"/>
  </g>
</svg>
