<svg xmlns="http://www.w3.org/2000/svg" width="107" height="107" viewBox="0 0 107 107">
  <g id="グループ_3991" data-name="グループ 3991" transform="translate(-293 -1725)">
    <g id="パス_6919" data-name="パス 6919" transform="translate(293 1725)" fill="#00c8ac">
      <path d="M 53.5 105 C 46.54666137695312 105 39.80238342285156 103.6386337280273 33.45449066162109 100.9536895751953 C 27.32215309143066 98.35993957519531 21.81432342529297 94.64630889892578 17.08399963378906 89.91600036621094 C 12.35369205474854 85.18567657470703 8.640061378479004 79.67784881591797 6.046307563781738 73.54550933837891 C 3.361369132995605 67.19761657714844 2 60.45333862304688 2 53.5 C 2 46.54666137695312 3.361369132995605 39.80238342285156 6.046307563781738 33.45449066162109 C 8.640061378479004 27.32215309143066 12.35369205474854 21.81432342529297 17.08399963378906 17.08399963378906 C 21.81432342529297 12.35369205474854 27.32215309143066 8.640061378479004 33.45449066162109 6.046307563781738 C 39.80238342285156 3.361369132995605 46.54666137695312 2 53.5 2 C 60.45333862304688 2 67.19761657714844 3.361369132995605 73.54550933837891 6.046307563781738 C 79.67784881591797 8.640061378479004 85.18567657470703 12.35369205474854 89.91600036621094 17.08399963378906 C 94.64630889892578 21.81432342529297 98.35993957519531 27.32215309143066 100.9536895751953 33.45449066162109 C 103.6386337280273 39.80238342285156 105 46.54666137695312 105 53.5 C 105 60.45333862304688 103.6386337280273 67.19761657714844 100.9536895751953 73.54550933837891 C 98.35993957519531 79.67784881591797 94.64630889892578 85.18567657470703 89.91600036621094 89.91600036621094 C 85.18567657470703 94.64630889892578 79.67784881591797 98.35993957519531 73.54550933837891 100.9536895751953 C 67.19761657714844 103.6386337280273 60.45333862304688 105 53.5 105 Z" stroke="none"/>
      <path d="M 53.5 4 C 46.81578063964844 4 40.3336181640625 5.308219909667969 34.23359680175781 7.8883056640625 C 28.33963775634766 10.38123321533203 23.04549407958984 13.950927734375 18.49821472167969 18.49821472167969 C 13.950927734375 23.04549407958984 10.38123321533203 28.33963775634766 7.8883056640625 34.23359680175781 C 5.308219909667969 40.3336181640625 4 46.81578063964844 4 53.5 C 4 60.18421936035156 5.308219909667969 66.6663818359375 7.8883056640625 72.76640319824219 C 10.38123321533203 78.66036224365234 13.950927734375 83.95451354980469 18.49821472167969 88.50178527832031 C 23.04549407958984 93.049072265625 28.33963775634766 96.61876678466797 34.23359680175781 99.1116943359375 C 40.3336181640625 101.691780090332 46.81578063964844 103 53.5 103 C 60.18421936035156 103 66.6663818359375 101.691780090332 72.76640319824219 99.1116943359375 C 78.66036224365234 96.61876678466797 83.95451354980469 93.049072265625 88.50178527832031 88.50178527832031 C 93.049072265625 83.95451354980469 96.61876678466797 78.66036224365234 99.1116943359375 72.76640319824219 C 101.691780090332 66.6663818359375 103 60.18421936035156 103 53.5 C 103 46.81578063964844 101.691780090332 40.3336181640625 99.1116943359375 34.23359680175781 C 96.61876678466797 28.33963775634766 93.049072265625 23.04549407958984 88.50178527832031 18.49821472167969 C 83.95451354980469 13.950927734375 78.66036224365234 10.38123321533203 72.76640319824219 7.8883056640625 C 66.6663818359375 5.308219909667969 60.18421936035156 4 53.5 4 M 53.5 0 C 83.04723358154297 0 107 23.95276641845703 107 53.5 C 107 83.04723358154297 83.04723358154297 107 53.5 107 C 23.95276641845703 107 0 83.04723358154297 0 53.5 C 0 23.95276641845703 23.95276641845703 0 53.5 0 Z" stroke="none" fill="#fff"/>
    </g>
    <path id="パス_6920" data-name="パス 6920" d="M2.94-11.88A9.255,9.255,0,0,1,.38-8.18a16.584,16.584,0,0,1,1.8,1.42,13.142,13.142,0,0,0,2.96-4.56Zm6.88,9.4A17.861,17.861,0,0,0,7.68-4.72,18.169,18.169,0,0,0,8.86-7.64l.08.22,1.98-1.06a14.458,14.458,0,0,0-2.36-3.66l-1.84.92A16.211,16.211,0,0,1,8.64-8.16L6.66-8.58a16.392,16.392,0,0,1-.8,2.3c-.68-.54-1.36-1.06-2-1.52L2.52-6.14c.72.56,1.5,1.2,2.26,1.88A11.682,11.682,0,0,1,.46-.2a12.8,12.8,0,0,1,1.6,1.9A15.037,15.037,0,0,0,6.5-2.64,15.7,15.7,0,0,1,8.32-.54Zm4.94-10.08c.02-1.32.04-2.7.04-4.12H12.52c0,1.44,0,2.82-.02,4.12H10.7v-1.88H7.04v-2.4H4.72v2.4H.96v2.12h9.6v2.02h1.88c-.2,4.48-.92,8.02-3.58,10.38A7.226,7.226,0,0,1,10.54,1.8c3.02-2.76,3.88-6.96,4.14-12.1H16.6c-.12,6.44-.3,8.88-.72,9.42a.738.738,0,0,1-.7.34c-.38,0-1.2-.02-2.1-.08a5.488,5.488,0,0,1,.68,2.22,14.1,14.1,0,0,0,2.54-.08A2.021,2.021,0,0,0,17.86.54c.66-.9.82-3.82.98-12.04.02-.3.02-1.06.02-1.06Zm10.8,2.92v-1.28h3.22v1.28Zm0-4.4h3.22v1.28H25.56Zm8.92,1.28H31.3v-1.28h3.18Zm0,3.12H31.3v-1.28h3.18ZM38.94-4.3V-6.48H31.3V-7.66h5.8v-8.36H23.06v8.36h5.72v1.18H21.12V-4.3h5.92A17.929,17.929,0,0,1,20.5-.78,12.333,12.333,0,0,1,22.12,1.2a19.2,19.2,0,0,0,6.66-4.28V1.74H31.3V-3.18a20.067,20.067,0,0,0,6.62,4.26,9.613,9.613,0,0,1,1.6-2.02A19.6,19.6,0,0,1,33.04-4.3Z" transform="translate(327 1787)" fill="#fff"/>
  </g>
</svg>
