<svg xmlns="http://www.w3.org/2000/svg" width="87.555" height="88.611" viewBox="0 0 87.555 88.611">
  <g id="グループ_3988" data-name="グループ 3988" transform="translate(-1022.75 -509.545)">
    <path id="パス_6914" data-name="パス 6914" d="M-10.515,0h1.74V-4.185H-7.11c2.4,0,4.155-1.11,4.155-3.525,0-2.49-1.755-3.345-4.215-3.345h-3.345Zm1.74-5.58V-9.645h1.44c1.755,0,2.67.48,2.67,1.935s-.84,2.13-2.61,2.13ZM1.5.2A3.458,3.458,0,0,0,3.9-.93h.06L4.1,0h1.41V-11.955H3.78V-8.9L3.855-7.53a3.183,3.183,0,0,0-2.22-.93C-.21-8.46-1.9-6.8-1.9-4.125-1.9-1.38-.57.2,1.5.2ZM1.905-1.23C.615-1.23-.12-2.265-.12-4.14c0-1.785.93-2.88,2.085-2.88a2.587,2.587,0,0,1,1.815.75v4.035A2.425,2.425,0,0,1,1.905-1.23ZM8.385,0H10.11V-6.87h1.665V-8.25H10.11V-9.3c0-1.005.36-1.485,1.095-1.485a2.244,2.244,0,0,1,.9.21l.345-1.305a4.059,4.059,0,0,0-1.455-.27c-1.845,0-2.61,1.17-2.61,2.865V-8.25L7.26-8.16v1.29H8.385Zm-41.82,11.8-.96.405a15.4,15.4,0,0,1,1.065,1.83l-.06-.03a3.425,3.425,0,0,1-1.11.15h-3.615c.06-.105.1-.2.165-.3.165-.3.48-.885.78-1.335L-38.88,12a5.773,5.773,0,0,1-.585,1.335,13.71,13.71,0,0,1-4.785,5.13l1.275.975a16.988,16.988,0,0,0,3.96-3.93h4.725a11.962,11.962,0,0,1-1.86,3.8c-1-.69-2.055-1.365-2.955-1.89L-40.14,18.48c.87.54,1.935,1.275,2.97,2.04a12.917,12.917,0,0,1-5.655,3.45l1.35,1.185a14.157,14.157,0,0,0,5.565-3.69c.63.495,1.185.96,1.62,1.35l1.11-1.335c-.465-.375-1.05-.825-1.695-1.29a15.849,15.849,0,0,0,2.3-4.515,5.134,5.134,0,0,1,.42-.915l-.885-.54.825-.36A21.737,21.737,0,0,0-33.435,11.8Zm1.695-.63-.96.4a14.89,14.89,0,0,1,1.23,2.055l.975-.42A17.732,17.732,0,0,0-31.74,11.175Zm10.05.7H-23.5a6.8,6.8,0,0,1,.1,1.245v1.29h-3.27a14.253,14.253,0,0,1-1.455-.075,11.166,11.166,0,0,1,.06,1.215V18.18c0,.33-.03.765-.06,1.08h1.635a6.885,6.885,0,0,1-.06-.99V15.81h7.98a10.407,10.407,0,0,1-1.38,4.14,7.713,7.713,0,0,1-3.78,2.82,9.417,9.417,0,0,1-1.8.495l1.23,1.425a9.562,9.562,0,0,0,6.015-4.365,13.952,13.952,0,0,0,1.44-4.4,5.639,5.639,0,0,1,.255-1.02l-1.035-.645a3.293,3.293,0,0,1-1.125.15h-3.03v-1.29A10.73,10.73,0,0,1-21.69,11.88Zm10.185.945-1.1,1.17a32.535,32.535,0,0,1,3.75,3.18l1.185-1.215A31.476,31.476,0,0,0-11.505,12.825ZM-13.05,22.86l1.005,1.545A16.539,16.539,0,0,0-6.3,22.17a15.337,15.337,0,0,0,5.265-5.43L-1.95,15.1A14.282,14.282,0,0,1-7.155,20.76,15.586,15.586,0,0,1-13.05,22.86Zm15.105-9.3c.03.39.03.915.03,1.305V22.23c0,.6-.03,1.8-.045,1.935H3.675c-.015-.075-.015-.435-.015-.84h7.77c-.015.42-.015.765-.03.84h1.635c0-.12-.03-1.41-.03-1.935V14.865c0-.42,0-.885.03-1.29-.495.015-1.035.015-1.38.015H3.51C3.135,13.59,2.655,13.59,2.055,13.56Zm1.59,1.53H11.43v6.735H3.645Zm12.81,2.22v1.86c.51-.045,1.41-.075,2.235-.075h8.16c.66,0,1.35.06,1.68.075V17.31c-.375.03-.96.09-1.68.09H18.69C17.88,17.4,16.95,17.34,16.455,17.31Zm23.55-4.26L39,13.485a13.666,13.666,0,0,1,1.32,2.3l1.05-.465A18.493,18.493,0,0,0,40.005,13.05Zm1.89-.78-1.005.465a14.99,14.99,0,0,1,1.38,2.25l1.035-.51A22.272,22.272,0,0,0,41.9,12.27ZM34.44,22.83a15.9,15.9,0,0,1-.12,1.92h1.83c-.06-.54-.1-1.455-.1-1.92,0-.5,0-2.565-.015-4.635a41.917,41.917,0,0,1,5.685,2.325l.66-1.62a48.591,48.591,0,0,0-6.345-2.4V14.16c0-.54.075-1.185.12-1.68H34.305a10.714,10.714,0,0,1,.135,1.68Z" transform="translate(1067 573)" fill="#fff"/>
    <g id="グループ_2422" data-name="グループ 2422" transform="translate(-153.999 -16.41)">
      <path id="パス_1616" data-name="パス 1616" d="M26.289.006V0H9.15A1.872,1.872,0,0,0,7.284,1.866v8.312H9.772V2.488H23.8v7.929h7.929v22.55H9.772v-7.7H7.284v8.318A1.872,1.872,0,0,0,9.15,35.455h23.2a1.872,1.872,0,0,0,1.866-1.867V7.929l.006-.006Zm0,7.923v-4.4l4.4,4.4Z" transform="translate(1202.035 525.955)" fill="#fff"/>
      <path id="パス_1617" data-name="パス 1617" d="M13.113,21.842h-.726v3.55h.742c1.006,0,1.584-.647,1.584-1.775,0-1.144-.568-1.775-1.6-1.775" transform="translate(1200.659 520.065)" fill="#fff"/>
      <path id="パス_1618" data-name="パス 1618" d="M19.751,16.5H.622A.624.624,0,0,0,0,17.122V27.232a.624.624,0,0,0,.622.622H19.751a.624.624,0,0,0,.622-.622V17.122a.624.624,0,0,0-.622-.622M4.67,23.1H3.782v2.167H2.4V19.057h2.3a1.894,1.894,0,0,1,1.973,2.012,1.862,1.862,0,0,1-2,2.027m7.4,1.369a2.859,2.859,0,0,1-2.125.838H7.487V19.05H9.925a2.885,2.885,0,0,1,2.96,3.127,3.22,3.22,0,0,1-.819,2.288m5.911-4.2H15.388v1.451h2.247v1.18H15.388V25.27H13.822V19.05h4.155Z" transform="translate(1203.999 521.505)" fill="#fff"/>
      <path id="パス_1619" data-name="パス 1619" d="M5.769,21.71H5.148v1.543h.628c.5,0,.892-.193.892-.772s-.4-.771-.9-.771" transform="translate(1202.611 520.1)" fill="#fff"/>
    </g>
  </g>
</svg>
