<svg xmlns="http://www.w3.org/2000/svg" width="142.59" height="29" viewBox="0 0 142.59 29">
  <g id="グループ_2498" data-name="グループ 2498" transform="translate(-191 -493)">
    <path id="パス_6921" data-name="パス 6921" d="M-51.814,0h1.624V-3.906h1.554c2.24,0,3.878-1.036,3.878-3.29,0-2.324-1.638-3.122-3.934-3.122h-3.122Zm1.624-5.208V-9h1.344c1.638,0,2.492.448,2.492,1.806s-.784,1.988-2.436,1.988ZM-40.6.182a3.227,3.227,0,0,0,2.24-1.05h.056l.126.868h1.316V-11.158h-1.61V-8.3l.07,1.274A2.971,2.971,0,0,0-40.474-7.9c-1.722,0-3.3,1.554-3.3,4.046C-43.778-1.288-42.532.182-40.6.182Zm.378-1.33c-1.2,0-1.89-.966-1.89-2.716,0-1.666.868-2.688,1.946-2.688a2.415,2.415,0,0,1,1.694.7v3.766A2.263,2.263,0,0,1-40.222-1.148ZM-34.174,0h1.61V-6.412h1.554V-7.7h-1.554v-.98c0-.938.336-1.386,1.022-1.386a2.1,2.1,0,0,1,.84.2l.322-1.218a3.788,3.788,0,0,0-1.358-.252c-1.722,0-2.436,1.092-2.436,2.674V-7.7l-1.05.084v1.2h1.05Zm14.14-11.382-.9.378A14.373,14.373,0,0,1-19.936-9.3l-.056-.028a3.2,3.2,0,0,1-1.036.14H-24.4c.056-.1.1-.182.154-.28.154-.28.448-.826.728-1.246l-1.6-.49a5.388,5.388,0,0,1-.546,1.246,12.8,12.8,0,0,1-4.466,4.788l1.19.91a15.855,15.855,0,0,0,3.7-3.668h4.41a11.165,11.165,0,0,1-1.736,3.542c-.938-.644-1.918-1.274-2.758-1.764l-.966.994c.812.5,1.806,1.19,2.772,1.9A12.056,12.056,0,0,1-28.8-.028l1.26,1.106a13.213,13.213,0,0,0,5.194-3.444c.588.462,1.106.9,1.512,1.26L-19.8-2.352c-.434-.35-.98-.77-1.582-1.2A14.793,14.793,0,0,0-19.236-7.77a4.791,4.791,0,0,1,.392-.854l-.826-.5.77-.336A20.288,20.288,0,0,0-20.034-11.382Zm1.582-.588-.9.378A13.9,13.9,0,0,1-18.2-9.674l.91-.392A16.55,16.55,0,0,0-18.452-11.97Zm9.38.658h-1.694a6.351,6.351,0,0,1,.1,1.162v1.2H-13.72a13.3,13.3,0,0,1-1.358-.07,10.421,10.421,0,0,1,.056,1.134v2.45c0,.308-.028.714-.056,1.008h1.526a6.426,6.426,0,0,1-.056-.924v-2.3H-6.16A9.714,9.714,0,0,1-7.448-3.78a7.2,7.2,0,0,1-3.528,2.632,8.789,8.789,0,0,1-1.68.462l1.148,1.33A8.925,8.925,0,0,0-5.894-3.43a13.022,13.022,0,0,0,1.344-4.1,5.263,5.263,0,0,1,.238-.952l-.966-.6a3.074,3.074,0,0,1-1.05.14H-9.156v-1.2A10.015,10.015,0,0,1-9.072-11.312Zm9.506.882L-.588-9.338a30.366,30.366,0,0,1,3.5,2.968L4.018-7.5A29.378,29.378,0,0,0,.434-10.43ZM-1.008-1.064-.07.378A15.436,15.436,0,0,0,5.292-1.708a14.314,14.314,0,0,0,4.914-5.068L9.352-8.3A13.33,13.33,0,0,1,4.494-3.024,14.547,14.547,0,0,1-1.008-1.064Zm14.1-8.68c.028.364.028.854.028,1.218v6.874c0,.56-.028,1.68-.042,1.806H14.6c-.014-.07-.014-.406-.014-.784H21.84c-.014.392-.014.714-.028.784h1.526c0-.112-.028-1.316-.028-1.806V-8.526c0-.392,0-.826.028-1.2-.462.014-.966.014-1.288.014h-7.6C14.1-9.716,13.65-9.716,13.09-9.744Zm1.484,1.428H21.84V-2.03H14.574ZM26.53-6.244v1.736c.476-.042,1.316-.07,2.086-.07h7.616c.616,0,1.26.056,1.568.07V-6.244c-.35.028-.9.084-1.568.084H28.616C27.86-6.16,26.992-6.216,26.53-6.244ZM48.51-10.22l-.938.406A12.755,12.755,0,0,1,48.8-7.672l.98-.434A17.26,17.26,0,0,0,48.51-10.22Zm1.764-.728-.938.434a13.991,13.991,0,0,1,1.288,2.1l.966-.476A20.788,20.788,0,0,0,50.274-10.948ZM43.316-1.092A14.835,14.835,0,0,1,43.2.7h1.708c-.056-.5-.1-1.358-.1-1.792,0-.462,0-2.394-.014-4.326a39.122,39.122,0,0,1,5.306,2.17l.616-1.512A45.352,45.352,0,0,0,44.8-7V-9.184c0-.5.07-1.106.112-1.568H43.19a10,10,0,0,1,.126,1.568Z" transform="translate(282 513)" fill="#fff"/>
    <g id="グループ_2497" data-name="グループ 2497" transform="translate(-1012.999 -32.955)">
      <path id="パス_1616" data-name="パス 1616" d="M22.547,0V0H8.783a1.517,1.517,0,0,0-1.5,1.526v6.8h2V2.035H20.549V8.52h6.368V26.965H9.282v-6.3h-2v6.8A1.517,1.517,0,0,0,8.783,29H27.416a1.517,1.517,0,0,0,1.5-1.527V6.485l0,0Zm0,6.48v-3.6l3.537,3.6Z" transform="translate(1201.079 525.955)" fill="#fff"/>
      <path id="パス_1617" data-name="パス 1617" d="M12.983,21.842h-.6v2.913H13c.826,0,1.3-.531,1.3-1.457s-.466-1.456-1.313-1.456" transform="translate(1198.893 517.156)" fill="#fff"/>
      <path id="パス_1618" data-name="パス 1618" d="M16.2,16.5H.51a.512.512,0,0,0-.51.51V25.3a.512.512,0,0,0,.51.51H16.2a.512.512,0,0,0,.51-.51V17.01a.512.512,0,0,0-.51-.51M3.831,21.911H3.1v1.778H1.965V18.6H3.85a1.554,1.554,0,0,1,1.619,1.651,1.527,1.527,0,0,1-1.638,1.663M9.9,23.035a2.346,2.346,0,0,1-1.743.688H6.142V18.592h2a2.367,2.367,0,0,1,2.428,2.566A2.641,2.641,0,0,1,9.9,23.035m4.849-3.448H12.624v1.191h1.843v.968H12.624v1.95H11.339v-5.1h3.409Z" transform="translate(1203.999 519.297)" fill="#fff"/>
      <path id="パス_1619" data-name="パス 1619" d="M5.657,21.71H5.148v1.266h.515c.407,0,.732-.158.732-.633s-.325-.633-.738-.633" transform="translate(1201.936 517.212)" fill="#fff"/>
    </g>
  </g>
</svg>
